<svg width="604pt" height="604pt" version="1.0" viewBox="0 0 604 604" xmlns="http://www.w3.org/2000/svg"><g transform="translate(0 604) scale(.1 -.1)" fill="#f2f2f2"><path d="m2760 5641c0-4-19-6-43-7-67-1-210-16-337-34-110-17-133-20-150-25-8-2-33-6-55-10-22-3-56-10-75-15s-48-11-65-14c-16-3-59-14-95-23-68-19-214-22-375-9-44 4-102 9-130 11-362 30-497 24-639-29-210-79-330-247-362-504-9-74-9-215 0-367 18-305 17-404-5-464-11-31-22-60-23-66-2-5-6-17-9-25-25-65-66-227-82-325-3-16-7-41-10-55-9-46-14-85-20-140-3-30-8-66-10-80-24-154-25-914-1-1033 2-7 6-30 10-52 41-227 85-376 167-562 29-65 56-123 60-128 4-6 21-35 37-65 28-55 126-206 159-247 10-11 29-36 43-54 70-93 250-278 339-349 24-19 57-47 75-61 94-78 272-189 428-266 79-39 297-129 337-139 9-2 66-17 126-34 61-16 137-35 170-41 33-5 71-12 85-15 14-2 45-7 70-10s56-7 70-10c25-4 283-17 330-15 14 0 196 2 405 5s391 7 405 9 43 7 65 11 56 8 75 11c19 2 60 9 90 15s66 14 80 16c37 7 143 36 170 47 8 3 40 13 70 22 127 40 468 195 490 224 3 3 22 15 43 26s47 28 57 38c11 9 22 17 25 17 10 0 184 133 235 180 167 151 307 309 396 445 21 33 42 62 45 65 12 10 162 289 168 312 1 4 11 29 22 54 33 79 98 292 118 389 40 194 45 274 45 690 0 442-6 530-50 773-13 75-74 303-91 342-3 8-7 17-8 20s-5 14-10 25c-4 11-13 34-19 50-13 32-12 185 0 390 9 155 10 365 2 435-19 157-81 292-173 379-68 63-182 126-250 137-11 2-41 9-66 15-74 17-398 14-495-5-40-8-241-19-344-19-84 0-123 5-195 26-49 14-101 28-115 31s-54 12-90 20-83 17-105 21c-22 3-54 8-71 11-41 6-97 13-164 19-30 3-77 8-105 12-64 7-675 11-675 4z" fill="#f2f2f2"/></g></svg>
