<svg version="1.0" viewBox="0 0 800 800" xmlns="http://www.w3.org/2000/svg"><path d="m313 46.5c-46.1 7.99-81.1 15.4-129 11.6-48.1-3.75-63.3-5.06-87.4 3.97s-43.5 32.7-49.5 68.9c-5.99 36.3 6.41 95.2-0.685 114-7.1 18.4-14.1 44.2-19.7 83.6-5.62 39.4-5.49 166 22.7 236 28.2 70.6 97.3 131 156 160 58.7 29.4 106 36.5 163 36.1 9.65-0.0654 20.5-0.689 31.8-0.689 11.3 0 22.2 0.624 31.8 0.689 56.3 0.381 104-6.67 163-36.1 58.7-29.4 128-89.4 156-160 28.2-70.6 28.3-197 22.7-236-5.62-39.4-12.6-65.1-19.7-83.6-7.1-18.4 5.3-77.4-0.685-114-5.99-36.3-25.4-59.9-49.5-68.9-24.1-9.03-39.3-7.71-87.4-3.97-48.1 3.75-83.2-3.64-129-11.6-27.2-4.72-57.4-7.27-86.5-7.27s-59.3 2.55-86.5 7.27z" fill="#e6e6e6"/></svg>
