<svg version="1.1" viewBox="0 0 256 256" xmlns="http://www.w3.org/2000/svg"><g transform="rotate(180 128 128)" stroke-width="7.555"><path d="m57.08 105.3h141.7v45.44h-141.7z" fill="#ccc" stop-color="#000000" style="paint-order:markers fill stroke"/><g fill="#4d4d4d"><path d="m74.36 105.3h11.14v45.44h-11.14z" stop-color="#000000" style="paint-order:markers fill stroke"/><path d="m97.75 105.3h11.14v45.44h-11.14z" stop-color="#000000" style="paint-order:markers fill stroke"/><path d="m122.4 105.3h11.14v45.44h-11.14z" stop-color="#000000" style="paint-order:markers fill stroke"/><path d="m146.9 105.3h11.14v45.44h-11.14z" stop-color="#000000" style="paint-order:markers fill stroke"/><path d="m172.5 105.3h11.14v45.44h-11.14z" stop-color="#000000" style="paint-order:markers fill stroke"/></g><path d="m37.83 99h14.96c2.374 0 4.285 1.796 4.285 4.028v49.94c0 2.231-1.911 4.028-4.285 4.028h-14.96c-2.374 0-4.285-1.796-4.285-4.028v-49.94c0-2.231 1.911-4.028 4.285-4.028z" fill="#ccc" stop-color="#000000" style="paint-order:markers fill stroke"/><path d="m203.1 99h14.96c2.374 0 4.285 1.796 4.285 4.028v49.94c0 2.231-1.911 4.028-4.285 4.028h-14.96c-2.374 0-4.285-1.796-4.285-4.028v-49.94c0-2.231 1.911-4.028 4.285-4.028z" fill="#ccc" stop-color="#000000" style="paint-order:markers fill stroke"/><g fill="#4d4d4d"><path d="m33.54 122.4v11.14h-33.54v-11.14z" stop-color="#000000" style="paint-order:markers fill stroke"/><path d="m255.9 122.4v11.14h-33.54v-11.14z" stop-color="#000000" style="paint-order:markers fill stroke"/><path d="m256 256h-16.87v-256h16.87z" stop-color="#000000" stroke-width="7.555" style="paint-order:markers fill stroke"/><path d="m16.77 256h-16.82v-256h16.82z" stop-color="#000000" stroke-width="7.555" style="paint-order:markers fill stroke"/></g></g><text transform="scale(1.518 .6589)" x="84.023033" y="132.27296" fill="#4d4d4d" font-family="'Nimbus Sans L'" font-size="181.4px" stop-color="#000000" stroke-width="7.554" text-align="center" text-anchor="middle" style="-inkscape-stroke:none;paint-order:markers fill stroke" xml:space="preserve"><tspan x="84.023033" y="132.27296" stroke-width="7.554">M</tspan></text><text transform="scale(1.534 -.6519)" x="83.288765" y="-263.13141" fill="#4d4d4d" font-family="'Nimbus Sans L'" font-size="174.9px" stop-color="#000000" stroke-width="7.555" text-align="center" text-anchor="middle" style="-inkscape-stroke:none;paint-order:markers fill stroke" xml:space="preserve"><tspan x="83.288765" y="-263.13141" stroke-width="7.555">O</tspan></text></svg>
