<?xml version="1.0" standalone="no"?>
<!DOCTYPE svg PUBLIC "-//W3C//DTD SVG 20010904//EN"
 "http://www.w3.org/TR/2001/REC-SVG-20010904/DTD/svg10.dtd">
<svg version="1.0" xmlns="http://www.w3.org/2000/svg"
 width="884.000000pt" height="884.000000pt" viewBox="0 0 884.000000 884.000000"
 preserveAspectRatio="xMidYMid meet">
<metadata>
Created by potrace 1.14, written by Peter Selinger 2001-2017
</metadata>
<g transform="translate(0.000000,884.000000) scale(0.100000,-0.100000)"
fill="#000000" stroke="none">
<path d="M3 4423 l2 -4408 1467 -1 1466 -2 1 4409 0 4409 -1470 0 -1469 0 3
-4407z"/>
<path d="M2954 4423 l1 -4408 1467 -1 1468 -1 0 4408 0 4409 -1469 0 -1468 0
1 -4407z"/>
<path d="M5905 4423 l0 -4408 1468 -1 1467 -1 0 4408 0 4409 -1468 0 -1468 0
1 -4407z"/>
</g>
</svg>
