<?xml version="1.0" encoding="UTF-8" standalone="no"?>
<!-- Created with Inkscape (http://www.inkscape.org/) -->

<svg
   version="1.1"
   id="svg2"
   width="112"
   height="133"
   viewBox="0 0 112 133"
   sodipodi:docname="01.svg"
   inkscape:version="1.2.2 (1:1.2.2+202212051551+b0a8486541)"
   xmlns:inkscape="http://www.inkscape.org/namespaces/inkscape"
   xmlns:sodipodi="http://sodipodi.sourceforge.net/DTD/sodipodi-0.dtd"
   xmlns="http://www.w3.org/2000/svg"
   xmlns:svg="http://www.w3.org/2000/svg">
  <defs
     id="defs6">
    <inkscape:path-effect
       effect="spiro"
       id="path-effect360"
       is_visible="true"
       lpeversion="1" />
  </defs>
  <sodipodi:namedview
     id="namedview4"
     pagecolor="#ffffff"
     bordercolor="#000000"
     borderopacity="0.25"
     inkscape:showpageshadow="2"
     inkscape:pageopacity="0.0"
     inkscape:pagecheckerboard="0"
     inkscape:deskcolor="#d1d1d1"
     showgrid="false"
     inkscape:zoom="2.5094316"
     inkscape:cx="44.631621"
     inkscape:cy="62.763217"
     inkscape:window-width="1440"
     inkscape:window-height="828"
     inkscape:window-x="0"
     inkscape:window-y="0"
     inkscape:window-maximized="1"
     inkscape:current-layer="g8" />
  <g
     inkscape:groupmode="layer"
     inkscape:label="Image"
     id="g8">
    <path
       id="path686"
       style="fill:#ffffff;stroke:#000000;stroke-width:2;stroke-linecap:round;stroke-linejoin:bevel;stroke-dasharray:none;paint-order:markers fill stroke;stop-color:#000000"
       d="m 36.334983,22.323609 -16.10587,27.896186 c 0,0 -19.48201161,-18.19896 -14.1133876,-27.497689 5.3686226,-9.298729 30.2192576,-0.398497 30.2192576,-0.398497 z"
       sodipodi:nodetypes="ccsc" />
    <path
       id="path689"
       style="fill:#ffffff;stroke-width:2;stroke-linecap:round;stroke-linejoin:bevel;paint-order:markers fill stroke;stop-color:#000000;stroke:#000000;stroke-dasharray:none"
       d="m 76.983486,22.457207 16.105869,27.896186 c 0,0 21.474495,-18.597457 16.105875,-27.896186 -5.36863,-9.298728 -32.211744,0 -32.211744,0 z"
       sodipodi:nodetypes="ccsc" />
    <path
       id="circle629"
       style="fill:#ffffff;stroke:#000000;stroke-width:2;stroke-linecap:round;stroke-linejoin:bevel;stroke-dasharray:none;paint-order:markers fill stroke;stop-color:#000000"
       d="m 48.306123,65.353516 c 24.649339,0 44.630859,19.98152 44.630859,44.630864 0,11.5785 6.491943,19.13684 5.744143,23.11328 H 3.942842 C 1.130633,129.03573 -0.33518703,121.93497 0.08737297,109.98438 0.92976297,86.160195 23.656784,65.353516 48.306123,65.353516 Z" />
    <path
       id="path627"
       style="fill:#ffffff;stroke:#000000;stroke-width:2;stroke-linecap:round;stroke-linejoin:bevel;paint-order:markers fill stroke;stop-color:#000000"
       d="m 101.21814,48.616585 c 0,24.649365 -19.982258,40.24816 -44.631623,40.248159 -24.649364,0 -44.631622,-15.598795 -44.631622,-40.248159 0,-24.649364 20.779251,-43.037636 45.428615,-43.037636 24.649365,-6e-7 43.83463,18.388271 43.83463,43.037636 z"
       sodipodi:nodetypes="sssss" />
    <path
       id="path362"
       style="fill:#000000;stroke:none;stroke-width:2;stroke-linecap:round;stroke-linejoin:bevel;stroke-dasharray:none;paint-order:markers fill stroke;stop-color:#000000"
       d="m 58.610456,46.21279 c 0.08613,-2.067146 4.434075,-2.781846 3.944695,-4.792074 -0.507484,-2.084594 -3.771565,-2.533037 -5.917042,-2.533037 -2.145477,0 -5.409558,0.448443 -5.917042,2.533037 -0.48938,2.010228 3.882075,2.724083 3.944695,4.792074 0.153798,5.079157 -12.648297,8.678473 -8.958616,12.334369 3.374029,3.343134 6.25138,-8.87503 10.930963,-8.811198 4.708259,0.06422 7.278612,12.240116 10.752049,9.161872 3.89192,-3.449113 -8.993782,-7.547155 -8.779702,-12.685043 z"
       sodipodi:nodetypes="aaaaaaaaa" />
    <ellipse
       style="fill:#000000;stroke:none;stroke-width:2;stroke-linecap:round;stroke-linejoin:bevel;stroke-dasharray:none;paint-order:markers fill stroke;stop-color:#000000"
       id="path567"
       cx="40.717163"
       cy="37.40398"
       rx="8.662652"
       ry="5.3538136" />
    <ellipse
       style="fill:#000000;stroke:none;stroke-width:2;stroke-linecap:round;stroke-linejoin:bevel;stroke-dasharray:none;paint-order:markers fill stroke;stop-color:#000000"
       id="ellipse569"
       cx="73.262711"
       cy="37.40398"
       rx="8.662652"
       ry="5.3538136" />
    <ellipse
       style="fill:#ffffff;stroke:none;stroke-width:2;stroke-linecap:round;stroke-linejoin:bevel;stroke-dasharray:none;paint-order:markers fill stroke;stop-color:#000000"
       id="ellipse571"
       cx="76.183067"
       cy="35.431522"
       rx="1.9463494"
       ry="1.2029102" />
    <ellipse
       style="fill:#ffffff;stroke:none;stroke-width:2;stroke-linecap:round;stroke-linejoin:bevel;stroke-dasharray:none;paint-order:markers fill stroke;stop-color:#000000"
       id="ellipse573"
       cx="43.963196"
       cy="35.431522"
       rx="1.9463494"
       ry="1.2029102" />
  </g>
</svg>
