<svg id="svg1325" width="100mm" height="100mm" version="1.1" viewBox="0 0 100 100" xmlns="http://www.w3.org/2000/svg"><g id="layer1" transform="translate(-47.85 -31.71)" fill="#f8f9d5" stroke="#aeaf93" stroke-width=".529"><path id="path436" d="M48.89 84.27c-1.53 7.934-2.448 15.84 13.93 20.09 3.009.78-14.33 17.3-12.65 23.56 3.622 13.52 24.5-23.61 27.14-23.61 18.27 0 17.89-13.14 15.91-22.19-3.803-17.41-3.602-26.83-32.5-17.41-2.919.952-9.863 9.339-11.84 19.56z" stop-color="#000" style="-inkscape-stroke:none;font-variation-settings:normal;paint-order:markers fill stroke"/><path id="path440" d="M144.8 84.27c1.53 7.934 2.448 15.84-13.93 20.09-3.009.78 14.33 17.3 12.65 23.56-3.622 13.52-24.5-23.61-27.14-23.61-18.27 0-17.89-13.14-15.91-22.19 3.803-17.41 3.602-26.83 32.5-17.41 2.919.952 9.863 9.339 11.84 19.56z" stop-color="#000" style="-inkscape-stroke:none;font-variation-settings:normal;paint-order:markers fill stroke"/><path id="path442" d="M128.4 33.16c3.519.416 7.863-1.385 10.35 1.027 2.273 2.203 1.012 6.087 1.238 9.418 1.697 4.219 1.51 7.246 1.51 11.68 0 10.35-8.798 18.68-19.7 18.68h-4.679c-10.9 0-19.7-8.328-19.7-18.68-.136-3.962.103-8.406 1.51-11.68.222-3.308-1.035-7.184 1.238-9.418 2.484-2.413 6.812-.609 10.35-1.027 5.24-1.463 12.92-1.673 17.98 0z" stop-color="#000" style="-inkscape-stroke:none;font-variation-settings:normal;paint-order:markers fill stroke"/><path id="path540" d="M110.8 74.74c-1.176-.142-2.341.248-3.38.764-2 .994-3.745 2.412-5.657 3.554-1.114.665-2.296 1.3-3.597 1.48-.624.087-1.255.022-1.882-.005-3.184-.136-6.432-.162-9.501-1.039-1.297-.37-2.741-.388-3.986.19-1.307.607-2.231 1.896-2.489 3.307-.225 1.23.108 2.563.953 3.502.828.92 2.064 1.375 3.275 1.47.464.036.928.047 1.393.097 4.936.529 9.908.766 14.87.597 1.4-.048 2.732-.575 3.959-1.215 2.027-1.057 3.87-2.421 5.807-3.63" stop-color="#000" style="-inkscape-stroke:none;font-variation-settings:normal;paint-order:markers fill stroke"/><path id="path507" d="M88.38 71.56c3.038.381 6.117.598 9.172.291 3.122-.313 6.182-1.06 9.187-1.93.752-.219 1.525-.386 2.313-.39 1.174-.007 2.355.409 3.227 1.21 1.256 1.153 1.764 3.05 1.234 4.679-.322.99-1.072 1.81-1.996 2.28-.886.452-1.907.445-2.882.6-3.461.55-6.957.883-10.46.964-2.782.064-5.565-.014-8.346-.102" stop-color="#000" style="-inkscape-stroke:none;font-variation-settings:normal;paint-order:markers fill stroke"/><path id="path438" d="M65.32 33.16c-3.519.416-7.863-1.385-10.35 1.027-2.273 2.203-1.012 6.087-1.238 9.418-1.697 4.219-1.51 7.246-1.51 11.68 0 10.35 8.798 18.68 19.7 18.68h4.679c10.9 0 19.7-8.328 19.7-18.68.136-3.962-.103-8.406-1.51-11.68-.222-3.308 1.035-7.184-1.238-9.418-2.484-2.413-6.812-.609-10.35-1.027-5.24-1.463-12.92-1.673-17.98 0z" stop-color="#000" style="-inkscape-stroke:none;font-variation-settings:normal;paint-order:markers fill stroke"/></g></svg>