<svg id="svg1325" width="100mm" height="100mm" version="1.1" viewBox="0 0 100 100" xmlns="http://www.w3.org/2000/svg"><g id="layer1" transform="translate(-47.85 -31.71)" fill="#f8f9d5" stroke="#aeaf93" stroke-width=".529"><path id="path436" d="m62.82 104.4c3.009 0.7806-19.62 18-12.65 23.56 9.37 7.482 24.5-23.61 27.14-23.61 18.27 0 17.89-13.14 15.91-22.19-3.805-17.41-3.602-26.83-32.5-17.41-2.919 0.9516-9.863 9.339-11.61 18.42s-2.667 16.98 13.71 21.23z" stop-color="#000000" style="-inkscape-stroke:none;font-variation-settings:normal;paint-order:markers fill stroke"/><path id="path440" d="m146.4 84.27c1.53 7.934 2.448 15.84-13.93 20.09-3.009 0.78 19.62 18 12.65 23.56-9.37 7.482-24.5-23.61-27.14-23.61-18.27 0-17.89-13.14-15.91-22.19 3.803-17.41 3.602-26.83 32.5-17.41 2.919 0.952 9.863 9.339 11.84 19.56z" stop-color="#000000" style="-inkscape-stroke:none;font-variation-settings:normal;paint-order:markers fill stroke"/><path id="path442" d="m130 33.16c3.519 0.416 7.863-1.385 10.35 1.027 2.273 2.203 1.012 6.087 1.238 9.418 1.697 4.219 1.51 7.246 1.51 11.68 0 10.35-8.798 18.68-19.7 18.68h-4.679c-10.9 0-19.7-8.328-19.7-18.68-0.136-3.962 0.103-8.406 1.51-11.68 0.222-3.308-1.035-7.184 1.238-9.418 2.484-2.413 6.812-0.609 10.35-1.027 5.24-1.463 12.92-1.673 17.98 0z" stop-color="#000000" style="-inkscape-stroke:none;font-variation-settings:normal;paint-order:markers fill stroke"/><path id="path438" d="m54.97 34.19c-2.273 2.203-1.012 6.087-1.238 9.418-1.697 4.219-1.51 7.246-1.51 11.68 0 10.35 8.798 18.68 19.7 18.68h4.679c10.9 0 19.7-8.328 19.7-18.68 0.136-3.962-0.103-8.406-1.51-11.68-0.222-3.308 1.035-7.184-1.238-9.418-2.484-2.413-6.812-0.609-10.35-1.027-5.24-1.463-12.92-1.673-17.16-0.6285s-8.585-0.7565-11.07 1.656z" stop-color="#000000" style="-inkscape-stroke:none;font-variation-settings:normal;paint-order:markers fill stroke"/><path id="path412" d="m62.87 104.4c0.2962-1.015 1.047-1.914 2.068-2.259 0.9353-0.3158 1.971-0.2572 2.91 0.0119m64.1 2.865c0.4629-0.1436 0.1142-0.7921-0.0571-1.065-0.8265-1.319-2.422-1.963-3.938-1.996-0.3226-7e-3 -0.6456 0.0101-0.9661 0.0473" fill="none" stop-color="#000000" stroke="#aeaf93" stroke-width=".5292" style="-inkscape-stroke:none;paint-order:markers fill stroke"/><path id="rect643" d="m108.6 56.58h27.11c0.6247 0 1.128 0.258 1.128 0.5784v24.01c0 0.3204-0.5029 0.5784-1.128 0.5784h-27.11c-0.6247 0-1.128-0.258-1.128-0.5784v-24.01c0-0.3204 0.5029-0.5784 1.128-0.5784z" stop-color="#000000" stroke="none" style="paint-order:markers fill stroke"/><path id="rect612" d="m59.46 61.97h27.11c0.6247 0 1.128 0.258 1.128 0.5784v24.01c0 0.3204-0.5029 0.5784-1.128 0.5784h-27.11c-0.6247 0-1.128-0.258-1.128-0.5784v-24.01c0-0.3204 0.5029-0.5784 1.128-0.5784z" stop-color="#000000" stroke="none" style="paint-order:markers fill stroke"/></g></svg>
