<svg id="svg1325" width="100mm" height="100mm" version="1.1" viewBox="0 0 100 100" xmlns="http://www.w3.org/2000/svg"><g id="layer1" transform="translate(-47.85 -31.71)" fill="#f8f9d5" stroke="#aeaf93" stroke-width=".529"><path id="path436" d="M62.82 104.4c3.009.78-19.62 18-12.65 23.56 9.37 7.482 24.5-23.61 27.14-23.61 18.27 0 17.89-13.14 15.91-22.19-3.805-17.41-3.602-26.83-32.5-17.41-2.919.952-9.863 9.339-11.61 18.42s-2.667 16.98 13.71 21.23z" stop-color="#000" style="-inkscape-stroke:none;font-variation-settings:normal;paint-order:markers fill stroke"/><path id="path440" d="M146.4 84.27c1.53 7.934 2.448 15.84-13.93 20.09-3.009.78 19.62 18 12.65 23.56-9.37 7.482-24.5-23.61-27.14-23.61-18.27 0-17.89-13.14-15.91-22.19 3.803-17.41 3.602-26.83 32.5-17.41 2.919.952 9.863 9.339 11.84 19.56z" stop-color="#000" style="-inkscape-stroke:none;font-variation-settings:normal;paint-order:markers fill stroke"/><path id="path442" d="M130 33.16c3.519.416 7.863-1.385 10.35 1.027 2.273 2.203 1.012 6.087 1.238 9.418 1.697 4.219 1.51 7.246 1.51 11.68 0 10.35-8.798 18.68-19.7 18.68h-4.679c-10.9 0-19.7-8.328-19.7-18.68-.136-3.962.103-8.406 1.51-11.68.222-3.308-1.035-7.184 1.238-9.418 2.484-2.413 6.812-.609 10.35-1.027 5.24-1.463 12.92-1.673 17.98 0z" stop-color="#000" style="-inkscape-stroke:none;font-variation-settings:normal;paint-order:markers fill stroke"/><path id="path438" d="M54.97 34.19c-2.273 2.203-1.012 6.087-1.238 9.418-1.697 4.219-1.51 7.246-1.51 11.68 0 10.35 8.798 18.68 19.7 18.68h4.679c10.9 0 19.7-8.328 19.7-18.68.136-3.962-.103-8.406-1.51-11.68-.222-3.308 1.035-7.184-1.238-9.418-2.484-2.413-6.812-.609-10.35-1.027-5.24-1.463-12.92-1.673-17.16-.629s-8.585-.756-11.07 1.656z" stop-color="#000" style="-inkscape-stroke:none;font-variation-settings:normal;paint-order:markers fill stroke"/><path id="path412" d="M62.87 104.4c.296-1.015 1.047-1.914 2.068-2.259.935-.316 1.971-.257 2.91.012m64.1 2.865c.463-.144.114-.792-.057-1.065-.827-1.32-2.422-1.963-3.938-1.996a7.056 7.056 0 0 0-.966.047" fill="none" stop-color="#000" stroke="#aeaf93" stroke-width=".529" style="-inkscape-stroke:none;paint-order:markers fill stroke"/><path id="rect643" d="M108.6 56.58h27.11c.625 0 1.128.258 1.128.578v24.01c0 .32-.503.579-1.128.579H108.6c-.625 0-1.128-.258-1.128-.579v-24.01c0-.32.503-.578 1.128-.578z" stop-color="#000" stroke="none" style="paint-order:markers fill stroke"/><path id="rect612" d="M59.46 61.97h27.11c.625 0 1.128.258 1.128.578v24.01c0 .32-.503.579-1.128.579H59.46c-.625 0-1.128-.258-1.128-.579v-24.01c0-.32.503-.578 1.128-.578z" stop-color="#000" stroke="none" style="paint-order:markers fill stroke"/></g></svg>