<svg viewBox="0 0 1024 1024" xmlns="http://www.w3.org/2000/svg"><path d="M0-.01h1024v1024H0z" fill="#fff" fill-opacity=".34" style="paint-order:markers fill stroke"/><text x="337" y="61.183" font-family="monospace" font-size="25.4" stroke-width="273.3" style="-inkscape-stroke:none;paint-order:markers fill stroke" xml:space="preserve"><tspan x="337" y="61.183">Amethist: 1.544 - 1.553</tspan><tspan x="337" y="92.927">Obsidian: 1.480 - 1.510</tspan><tspan x="337" y="124.67">Diamond: 2.417 - 2.541</tspan><tspan x="337" y="156.414">Emerald: 1.576 - 1.582</tspan><tspan x="337" y="188.158">Liquid methane: 1.150</tspan><tspan x="337" y="219.902">Standart glass: 1.520</tspan><tspan x="337" y="251.645">Acrylic glass: 1.491</tspan><tspan x="337" y="283.389">Agate: 1.544 - 1.553</tspan><tspan x="337" y="315.133">Clear Plastic: 1.400</tspan><tspan x="337" y="346.877">Glass: 1.440 - 1.900</tspan><tspan x="337" y="378.62">Topaz: 1.620 - 1.627</tspan><tspan x="337" y="410.364">Jade: 1.660 - 1.680</tspan><tspan x="337" y="442.108">Onyx: 1.486 - 1.658</tspan><tspan x="337" y="473.852">Ruby: 1.760 - 2.419</tspan><tspan x="337" y="505.596">Crown glass: 1.510</tspan><tspan x="337" y="537.339">Flint glass: 1.613</tspan><tspan x="337" y="569.083">Heavy glass: 1.650</tspan><tspan x="337" y="600.827">Light glass: 1.450</tspan><tspan x="337" y="632.57">Ice(H2O): 1.310</tspan><tspan x="337" y="664.314">Benzene: 1.501</tspan><tspan x="337" y="696.058">Cristal: 1.870</tspan><tspan x="337" y="727.802">Saphire: 1.760</tspan><tspan x="337" y="759.546">Bubble: 1.100</tspan><tspan x="337" y="791.289">Jasper: 1.540</tspan><tspan x="337" y="823.033">Quartz: 1.550</tspan><tspan x="337" y="854.777">Amber: 1.550</tspan><tspan x="337" y="886.521">Sugar: 1.560</tspan><tspan x="337" y="918.264">Water: 1.333</tspan><tspan x="337" y="950.008">Salt: 1.544</tspan><tspan x="337" y="981.752">Air: 1.000</tspan></text></svg>