<svg width="48mm" height="128mm" version="1.1" viewBox="0 0 48 128" xmlns="http://www.w3.org/2000/svg"><path d="m8.46e-8 -1.225e-8h48v127.7h-48z" fill="#fff" stop-color="#000000" stroke-width=".5292" style="paint-order:markers fill stroke"/><text x="0.969899" y="4.6720428" fill="#000000" font-family="monospace" font-size="3.342px" stop-color="#000000" stroke-width=".5478" text-align="center" style="-inkscape-stroke:none;paint-order:markers fill stroke" xml:space="preserve"><tspan x="0.969899" y="4.6720428" text-align="start">Amethist: 1.544 - 1.553</tspan><tspan x="0.969899" y="8.8495512" text-align="start">Obsidian: 1.480 - 1.510</tspan><tspan x="0.969899" y="13.027059" text-align="start">Diamond: 2.417 - 2.541</tspan><tspan x="0.969899" y="17.204567" text-align="start">Emerald: 1.576 - 1.582</tspan><tspan x="0.969899" y="21.382074" text-align="start">Liquid methane: 1.150</tspan><tspan x="0.969899" y="25.559582" text-align="start">Standart glass: 1.520</tspan><tspan x="0.969899" y="29.737091" text-align="start">Acrylic glass: 1.491</tspan><tspan x="0.969899" y="33.914597" text-align="start">Agate: 1.544 - 1.553</tspan><tspan x="0.969899" y="38.092102" text-align="start">Clear Plastic: 1.400</tspan><tspan x="0.969899" y="42.269611" text-align="start">Glass: 1.440 - 1.900</tspan><tspan x="0.969899" y="46.447121" text-align="start">Topaz: 1.620 - 1.627</tspan><tspan x="0.969899" y="50.624626" text-align="start">Jade: 1.660 - 1.680</tspan><tspan x="0.969899" y="54.802135" text-align="start">Onyx: 1.486 - 1.658</tspan><tspan x="0.969899" y="58.979641" text-align="start">Ruby: 1.760 - 2.419</tspan><tspan x="0.969899" y="63.15715" text-align="start">Crown glass: 1.510</tspan><tspan x="0.969899" y="67.334671" text-align="start">Flint glass: 1.613</tspan><tspan x="0.969899" y="71.512177" text-align="start">Heavy glass: 1.650</tspan><tspan x="0.969899" y="75.689682" text-align="start">Light glass: 1.450</tspan><tspan x="0.969899" y="79.867188" text-align="start">Ice(H2O): 1.310</tspan><tspan x="0.969899" y="84.044701" text-align="start">Benzene: 1.501</tspan><tspan x="0.969899" y="88.222206" text-align="start">Cristal: 1.870</tspan><tspan x="0.969899" y="92.399719" text-align="start">Saphire: 1.760</tspan><tspan x="0.969899" y="96.577217" text-align="start">Bubble: 1.100</tspan><tspan x="0.969899" y="100.75472" text-align="start">Jasper: 1.540</tspan><tspan x="0.969899" y="104.93223" text-align="start">Quartz: 1.550</tspan><tspan x="0.969899" y="109.10975" text-align="start">Amber: 1.550</tspan><tspan x="0.969899" y="113.28726" text-align="start">Sugar: 1.560</tspan><tspan x="0.969899" y="117.46476" text-align="start">Water: 1.333</tspan><tspan x="0.969899" y="121.64227" text-align="start">Salt: 1.544</tspan><tspan x="0.969899" y="125.81977" text-align="start">Air: 1.000</tspan></text></svg>
