<svg version="1.1" viewBox="0 0 1e3 1e3" xmlns="http://www.w3.org/2000/svg"><path d="M143 0C68 0 0 68 0 143v714c0 75 68 143 143 143h714c75 0 143-68 143-143V143c0-75-68-143-143-143zm0 75h714c38 0 68 30 68 68v714c0 38-30 68-68 68H143c-38 0-68-30-68-68V143c0-38 30-68 68-68z" fill="#747c84"/><path d="M496 856c18 .22 37-1 53-3.1 143-19 261-121 301-259l5.7 1.5c15 4 29-9.7 25-25l-22-82c-4-15-23-20-34-9l-60 60c-11 11-5.9 30 9 34l5.5 1.5c-33 110-126 190-240 205-116 15-230-41-289-143-10-17-32-23-50-13-17 10-23 32-13 50 64 112 182 180 309 182zm9.7-713c-18-.22-37 1-53 3.1-143 19-261 121-301 259l-5.7-1.5c-15-4-29 9.7-25 25l22 82c4 15 23 20 34 9l60-60c11-11 5.9-30-9-34l-5.5-1.5c33-110 126-190 240-205 116-15 230 41 289 143 10 17 32 23 50 13 17-10 23-32 13-50-64-112-182-180-309-182z" fill="none" stroke="#747c84" stroke-linecap="round" stroke-linejoin="round" stroke-width="30"><animateTransform attributeName="transform" attributeType="XML" dur="3s" from="360 500 500" repeatCount="indefinite" to="0 500 500" type="rotate"/></path></svg>
