<svg id="svg488" version="1.1" viewBox="0 0 223 223" xmlns="http://www.w3.org/2000/svg"><g fill="#feffff" stroke="#15425c"><path id="path2" d="m132.7 83.91c90.07 7.663 66.63 101.5 0 103.1-90.07-7.663-66.63-101.5 0-103.1z" stop-color="#000000" style="paint-order:markers fill stroke"/><path id="path4" d="m126.9 83.91c27.86-6.107 47.6 17.25 46.66-20.39-0.274-11.68-0.367-23.46-0.367-35.05 0-11.42 6.571-18.74 13.73-18.7 6.71 0.04 13.91 6.594 16.6 22.33 13.24 77.32 0 80.36 6.571 95.69 7.616 17.72 7.824 38.99-4.389 50.61-41.55 39.94-47.6 18.58-43.19 0 2.175-9.424 19.48-22.53 19.48-22.53" stop-color="#000000" style="paint-order:markers fill stroke"/><path id="path6" d="m151.6 130.6c6.152 9.408 8.244 36.22 9.497 57.57 5.666 34.61-38.99 29.03-37.17 8.758 0.508-5.641-3.042-9.545-12.03-7.616-17.32 4.644-25.31-5.922-29.03 5.944-6.524 22.01-36.69 13.61-37.17-1.809l-0.539-21.67" stop-color="#000000" style="paint-order:markers fill stroke"/><path id="path18" d="m105.6 56.18c10.5 1.243 23.46-4.133 30.88 3.065 6.78 6.571 3.018 18.16 3.691 28.1 5.061 12.59 4.505 21.62 4.505 34.83 0 30.88-26.24 55.71-58.75 55.71h-13.95c-32.5 0-58.75-24.85-58.75-55.71-0.404-11.82 0.309-25.08 4.505-34.83 0.662-9.866-3.088-21.43 3.691-28.1 7.408-7.199 20.32-1.816 30.88-3.065 15.63-4.366 38.55-4.991 53.63 0z" stop-color="#000000" style="paint-order:markers fill stroke"/></g><g stroke="#15425c"><path id="path20" d="m84.35 128.1a12.05 12.05 0 1 0 12.05-12.05c-6.655 0-12.05 5.395-12.05 12.05z" fill="#abc4d1" stop-color="#000000" style="paint-order:markers fill stroke"/><path id="path22" d="m41.15 128.1a12.05 12.05 0 1 0 24.1 0 12.05 12.05 0 0 0-24.1 0z" fill="#fffe9a" stop-color="#000000" style="paint-order:markers fill stroke"/><path id="path2071" d="m41.15 128.1a12.05 12.05 0 1 0 24.1 0 12.05 12.05 0 0 0-24.1 0z" fill="#abc4d1" stop-color="#000000" style="paint-order:markers fill stroke"/><path id="path357" d="m121.9 63.11a12.04 12.04 0 0 1 12.05 12.05c0 5.783-1.655 7.824-4.808 8.268-6.594 0.908-14.47-7.243-14.35-13.89 0.055-3.18 1.145-6.432 7.105-6.432zm-86.38 0c6.038 0 7.082 3.392 7.104 6.641 0.074 6.55-7.547 14.49-14.02 13.7-3.227-0.395-5.133-2.391-5.133-8.292a12.04 12.04 0 0 1 12.05-12.05z" fill="#e1e9ed" style="paint-order:markers fill stroke"/></g><path id="path32" d="m86.15 125.9a10.12 10.07 0 0 0 10.12 10.07 10.12 10.07 0 0 0 10.12-10.07 10.12 10.07 0 0 0-10.12-10.07 10.12 10.07 0 0 0-10.12 10.07z" stop-color="#000000" style="paint-order:markers fill stroke"/><path id="path34" d="m42.95 125.9a10.12 10.07 0 0 0 10.12 10.07 10.12 10.07 0 0 0 10.12-10.07 10.12 10.07 0 0 0-10.12-10.07 10.12 10.07 0 0 0-10.12 10.07z" stop-color="#000000" style="paint-order:markers fill stroke"/><path id="path36" d="m70.65 139.8a1.275 1.17 0 0 0 1.275 1.17 1.275 1.17 0 0 0 1.275-1.17 1.275 1.17 0 0 0-1.275-1.17 1.275 1.17 0 0 0-1.275 1.17z" stop-color="#000000" stroke="#15425c" style="paint-order:markers fill stroke"/><path id="path38" d="m75.15 139.8a1.275 1.17 0 0 0 1.275 1.17 1.275 1.17 0 0 0 1.275-1.17 1.275 1.17 0 0 0-1.275-1.17 1.275 1.17 0 0 0-1.275 1.17z" stop-color="#000000" stroke="#15425c" style="paint-order:markers fill stroke"/><path id="path2060" d="m102.9 119a12.05 12.05 0 0 1 2.015 3.042 10.12 1.805 0 0 1-5.852-1.632 10.12 1.805 0 0 1 3.855-1.412zm-43.19 0a12.05 12.05 0 0 1 2.015 3.042 10.12 1.805 0 0 1-5.852-1.632 10.12 1.805 0 0 1 3.855-1.412z" fill="#f2f2f2" style="paint-order:markers fill stroke"/><g stroke="#15425c"><path id="path44" d="m59.55 146.7c-3.46 0.927-3.53 21.88 13.4 23.22 16.93 1.341 17.85-25.78 13.4-23.22-7.732 4.458-26.7 0-26.7 0z" stop-color="#000000" style="paint-order:markers fill stroke"/><path id="path46" d="m64.55 147.8-0.233 1.691c-0.115 0.838 0.593 1.593 1.588 1.69l3.042 0.298c0.994 0.097 1.89-0.499 2.006-1.338l0.232-1.69z" fill="#fff" stop-color="#000000" style="paint-order:markers fill stroke"/><path id="path48" d="m86.15 159.1c-0.424 2.855-1.448 5.896-3.681 8.092-3.932 3.615-11.79 3.883-16.75 1.164-4.218-2.362-5.597-6.533-6.07-10.17 3.764-1.668 10.35-1.526 13.17 0.514 3.826-2.814 10.66-2.157 13.35 0.423z" fill="#e1e9ed" stop-color="#000000" style="paint-order:markers fill stroke"/><path id="path50" d="m72.85 158.4-2.578 3.972" fill="#0f0" stop-color="#000000" style="paint-order:markers fill stroke"/><path id="path42" d="m75.15 148.9 0.189 1.696c0.094 0.84 0.971 1.453 1.972 1.374l3.041-0.242c0.997-0.079 1.725-0.819 1.632-1.66l-0.189-1.695z" fill="#fff" stop-color="#000000" style="paint-order:markers fill stroke"/></g><g fill="none" stroke="#15425c" stroke-linecap="round"><path id="path54" d="m50.55 147c-7.732-0.439-15.28-3.008-20.24-8.934" stop-color="#000000" style="paint-order:markers fill stroke"/><path id="path56" d="m50.55 147c-6.764 6.72-11.81 8.502-20.24 8.919" stop-color="#000000" style="paint-order:markers fill stroke"/><path id="path2192" d="m50.55 147c-6.883 3.925-14.55 5.869-21.58 3.562" stop-color="#000000" style="paint-order:markers fill stroke"/><path id="path60" d="m95.55 147c12.72 1.39 15.64-3.385 20.24-8.934" stop-color="#000000" style="paint-order:markers fill stroke"/><path id="path62" d="m95.55 147c4.486 6.408 7.042 8.47 13.7 8.975" stop-color="#000000" style="paint-order:markers fill stroke"/><path id="path2194" d="m95.55 147c7.685 2.173 15.28 2.402 21.82-1.699" stop-color="#000000" style="paint-order:markers fill stroke"/><path id="path2196" d="m95.55 147c6.556 4.966 13.58 8.052 20.97 6.663" stop-color="#000000" style="paint-order:markers fill stroke"/><path id="path461" d="m113.1 119c-2.57-4.965-5.322-8.051-8.204-6.663" stop-color="#000000" style="paint-order:markers fill stroke"/><path id="path463" d="m38.15 119c2.569-4.965 5.322-8.051 8.204-6.663" stop-color="#000000" style="paint-order:markers fill stroke"/></g></svg>
