<svg id="svg488" width="64.6mm" height="64.9mm" version="1.1" viewBox="0 0 64.6 64.9" xmlns="http://www.w3.org/2000/svg"><g id="layer1" transform="matrix(-.118 0 0 .118 43.7 11)" stroke-width="1.14"><g id="g1204" transform="matrix(-.736 0 0 .736 135 79.7)" stroke-width="1.55"><g id="g6" fill="#feffff" stroke="#15425c" stroke-width=".929"><path id="path2" d="m39.4 126c-38.8 3.3-28.7 43.7 0 44.4 38.8-3.3 28.7-43.7 0-44.4z" stop-color="#000000" style="paint-order:markers fill stroke"/><path id="path4" d="m41.9 126c-12-2.63-20.5 7.43-20.1-8.78 0.118-5.03 0.158-10.1 0.158-15.1 0-4.92-2.83-8.07-5.91-8.05-2.89 0.0175-5.99 2.84-7.15 9.62-5.7 33.3 2.13e-4 34.6-2.83 41.2-3.28 7.63-3.37 16.8 1.89 21.8 17.9 17.2 20.5 8 18.6 0-0.937-4.06-8.39-9.7-8.39-9.7" stop-color="#000000" style="paint-order:markers fill stroke"/><path id="path6" d="m31.2 146c-2.65 4.05-3.55 15.6-4.09 24.8-2.44 14.9 16.8 12.5 16 3.77-0.219-2.43 1.31-4.11 5.18-3.28 7.46 2 10.9-2.55 12.5 2.56 2.81 9.48 15.8 5.86 16-0.779l0.232-9.33" stop-color="#000000" style="paint-order:markers fill stroke"/><path id="path18" d="m51 114c-4.52 0.535-10.1-1.78-13.3 1.32-2.92 2.83-1.3 7.82-1.59 12.1-2.18 5.42-1.94 9.31-1.94 15 0 13.3 11.3 24 25.3 24h6.01c14 0 25.3-10.7 25.3-24 0.174-5.09-0.133-10.8-1.94-15-0.285-4.25 1.33-9.23-1.59-12.1-3.19-3.1-8.75-0.782-13.3-1.32-6.73-1.88-16.6-2.15-23.1 0z" stop-color="#000000" style="paint-order:markers fill stroke"/></g><g id="g12" stroke="#15425c" stroke-width=".929"><path id="path20" d="m60.2 145a5.19 5.19 0 0 1-5.19 5.19 5.19 5.19 0 0 1-5.19-5.19 5.19 5.19 0 0 1 5.19-5.19 5.19 5.19 0 0 1 5.19 5.19z" fill="#abc4d1" stop-color="#000000" style="paint-order:markers fill stroke"/><path id="path22" d="m78.8 145a5.19 5.19 0 0 1-5.19 5.19 5.19 5.19 0 0 1-5.19-5.19 5.19 5.19 0 0 1 5.19-5.19 5.19 5.19 0 0 1 5.19 5.19z" fill="#fffe9a" stop-color="#000000" style="paint-order:markers fill stroke"/><path id="path2071" d="m78.8 145a5.19 5.19 0 0 1-5.19 5.19 5.19 5.19 0 0 1-5.19-5.19 5.19 5.19 0 0 1 5.19-5.19 5.19 5.19 0 0 1 5.19 5.19z" fill="#abc4d1" stop-color="#000000" style="paint-order:markers fill stroke"/><path id="path357" d="m44 117c-2.87 0-5.19 2.32-5.19 5.19 0 2.49 0.713 3.37 2.07 3.56 2.84 0.391 6.23-3.12 6.18-5.98-0.0236-1.37-0.493-2.77-3.06-2.77zm37.2 0c-2.6 0-3.05 1.46-3.06 2.86-0.0317 2.82 3.25 6.24 6.04 5.9 1.39-0.17 2.21-1.03 2.21-3.57 0-2.87-2.32-5.19-5.19-5.19z" fill="#e1e9ed" style="paint-order:markers fill stroke"/></g><path id="path32" d="m59.4 144a4.36 4.34 0 0 1-4.36 4.34 4.36 4.34 0 0 1-4.36-4.34 4.36 4.34 0 0 1 4.36-4.34 4.36 4.34 0 0 1 4.36 4.34z" stop-color="#000000" stroke-width="1.76" style="paint-order:markers fill stroke"/><path id="path34" d="m78 144a4.36 4.34 0 0 1-4.36 4.34 4.36 4.34 0 0 1-4.36-4.34 4.36 4.34 0 0 1 4.36-4.34 4.36 4.34 0 0 1 4.36 4.34z" stop-color="#000000" stroke-width="1.76" style="paint-order:markers fill stroke"/><path id="path36" d="m66.1 150a0.549 0.504 0 0 1-0.549 0.504 0.549 0.504 0 0 1-0.549-0.504 0.549 0.504 0 0 1 0.549-0.504 0.549 0.504 0 0 1 0.549 0.504z" stop-color="#000000" stroke="#15425c" stroke-width=".817" style="paint-order:markers fill stroke"/><path id="path38" d="m64.2 150a0.549 0.504 0 0 1-0.549 0.504 0.549 0.504 0 0 1-0.549-0.504 0.549 0.504 0 0 1 0.549-0.504 0.549 0.504 0 0 1 0.549 0.504z" stop-color="#000000" stroke="#15425c" stroke-width=".817" style="paint-order:markers fill stroke"/><path id="path2060" d="m52.2 141a5.19 5.19 0 0 0-0.868 1.31 4.36 0.777 0 0 0 2.52-0.703 4.36 0.777 0 0 0-1.66-0.608zm18.6 0a5.19 5.19 0 0 0-0.868 1.31 4.36 0.777 0 0 0 2.52-0.703 4.36 0.777 0 0 0-1.66-0.608z" fill="#f2f2f2" stroke-width="1.76" style="paint-order:markers fill stroke"/><g id="g24" stroke="#15425c" stroke-width=".929"><path id="path44" d="m70.9 153c1.49 0.399 1.52 9.42-5.77 10s-7.69-11.1-5.77-10c3.33 1.92 11.5 0 11.5 0z" stop-color="#000000" style="paint-order:markers fill stroke"/><path id="path46" d="m68.7 154 0.1 0.728c0.0498 0.361-0.255 0.686-0.684 0.728l-1.31 0.128c-0.428 0.042-0.814-0.215-0.864-0.576l-0.1-0.728z" fill="#fff" stop-color="#000000" style="paint-order:markers fill stroke"/><path id="path48" d="m58.7 158c0.206 1.39 0.704 2.87 1.79 3.94 1.91 1.76 5.73 1.89 8.14 0.567 2.05-1.15 2.72-3.18 2.95-4.95-1.83-0.812-5.03-0.743-6.4 0.25-1.86-1.37-5.18-1.05-6.49 0.206z" fill="#e1e9ed" stop-color="#000000" style="paint-order:markers fill stroke"/><path id="path50" d="m65.2 157 1.11 1.71" fill="#0f0" stop-color="#000000" style="paint-order:markers fill stroke"/><path id="path42" d="m64.2 154-0.0815 0.73c-0.0404 0.362-0.418 0.626-0.849 0.592l-1.31-0.104c-0.429-0.0341-0.743-0.353-0.703-0.715l0.0815-0.73z" fill="#fff" stop-color="#000000" style="paint-order:markers fill stroke"/></g><g id="g2499" transform="matrix(.522 0 0 .581 23.2 54.4)" fill="none" stroke="#15425c" stroke-linecap="round"><g id="g33" stroke-width="1.69"><path id="path54" d="m98.8 170c6.38-0.326 12.6-2.23 16.7-6.62" stop-color="#000000" style="paint-order:markers fill stroke"/><path id="path56" d="m98.8 170c5.58 4.98 9.74 6.3 16.7 6.61" stop-color="#000000" style="paint-order:markers fill stroke"/><path id="path2192" d="m98.8 170c5.68 2.91 12 4.35 17.8 2.64" stop-color="#000000" style="paint-order:markers fill stroke"/><path id="path60" d="m61.6 170c-10.5 1.03-12.9-2.51-16.7-6.62" stop-color="#000000" style="paint-order:markers fill stroke"/><path id="path62" d="m61.6 170c-3.7 4.75-5.81 6.28-11.3 6.65" stop-color="#000000" style="paint-order:markers fill stroke"/><path id="path2194" d="m61.6 170c-6.34 1.61-12.6 1.78-18-1.26" stop-color="#000000" style="paint-order:markers fill stroke"/><path id="path2196" d="m61.6 170c-5.41 3.68-11.2 5.97-17.3 4.94" stop-color="#000000" style="paint-order:markers fill stroke"/></g><path id="path461" d="m47.1 149c2.12-3.68 4.39-5.97 6.77-4.94" stop-color="#000000" stroke-width="1.49" style="paint-order:markers fill stroke"/><path id="path463" d="m109 149c-2.12-3.68-4.39-5.97-6.77-4.94" stop-color="#000000" stroke-width="1.49" style="paint-order:markers fill stroke"/></g></g></g></svg>
