<svg viewBox="0 0 1920 1080" xmlns="http://www.w3.org/2000/svg"><g fill-rule="evenodd"><path d="M1920 1072c-3.5 2.7-7 5.2-11 7.9h11z" fill="#887468"/><path d="M1920 1000c-24 21-49 40-73 56h73z" fill="#8d786c"/><path d="M1920 971c-45 46-92 81-140 109h104c12-9.4 25-19 37-30z" fill="#917c70"/><path d="M1920 915a791 791 0 0 1-23 26c-61 64-125 108-191 140h115c34-23 67-50 99-81z" fill="#8d786c"/><path d="M1920 854c-5.3 6.8-11 14-16 20a785 785 0 0 1-41 46c-76 79-157 128-240 160h131c53-32 105-72 154-124a820 820 0 0 0 9.3-10c.62-.68 1.2-1.4 1.9-2.1z" fill="#8f7a6e"/><path d="M1920 788c-16 24-33 46-50 66a780 780 0 0 1-40 45c-96 100-199 151-305 180h158c66-34 131-80 193-144a815 815 0 0 0 9.3-9.9c12-13 24-27 35-41z" fill="#978377"/><path d="M1920 715c-27 45-55 85-84 119a774 774 0 0 1-40 45c-126 130-263 177-406 200h214c82-35 163-86 238-165a810 810 0 0 0 9.2-9.8c23-25 46-54 69-85z" fill="#907b6f"/><path d="M1920 636c-37 71-77 130-118 179a768 768 0 0 1-40 45c-128 132-268 178-414 200a1600 1599 0 0 1-52 7.2c-43 5.3-86 9.1-130 13h347c102-33 203-89 295-186a805 805 0 0 0 9.2-9.8c35-38 69-83 102-134z" fill="#897568"/><path d="M1920 547c-47 103-98 184-151 248a762 762 0 0 1-40 44c-127 131-267 176-412 199-17 2.7-35 5-52 7.1-103 13-208 17-309 35h446c129-29 257-84 373-206a799 799 0 0 0 9.1-9.7c48-51 93-114 135-190z" fill="#887468"/><path d="M1920 448c-57 142-119 248-185 327a756 756 0 0 1-40 44c-127 130-266 175-409 197a1596 1596 0 0 1-52 7.1c-135 16-273 18-402 57h407c1.1-.13 2.2-.2 3.3-.33 3.1-.37 6.2-.76 9.3-1.1 166-21 339-67 491-225a794 794 0 0 0 9.1-9.7c60-65 117-148 169-253z" fill="#917c70"/><path d="M1920 338c-65 189-139 323-219 417a750 750 0 0 1-40 44c-126 128-264 173-407 195-17 2.6-34 4.9-51 7-151 18-306 18-448 74a586 586 0 0 0-13 5.6h249c71-8.4 146-13 221-22 3.1-.37 6.1-.75 9.2-1.1 165-21 337-66 488-223a789 789 0 0 0 9.1-9.6c73-79 141-184 202-325z" fill="#917c70"/><path d="M1920 211c-72 248-159 413-253 525a744 744 0 0 1-40 43c-125 127-263 171-405 193a1593 1593 0 0 1-51 6.9c-150 18-304 17-446 73a583 583 0 0 0-24 10c-12 5.5-24 12-36 18h164c109-26 228-30 352-45 3-.37 6.1-.74 9.1-1.1 164-21 335-66 485-222a784 784 0 0 0 9-9.5c87-94 167-225 236-409z" fill="#958074"/><path d="M1920 64c-78 320-178 523-287 652a739 739 0 0 1-39 43c-125 126-261 170-403 191a1592 1592 0 0 1-51 6.9c-149 18-302 17-443 73a579 579 0 0 0-24 10c-25 11-50 25-74 41h127c127-48 273-48 424-67 3-.37 6.1-.74 9.1-1.1 163-20 333-65 482-220 3-3.1 6-6.3 9-9.5 102-109 193-269 269-506z" fill="#8f7a6e"/><path d="M1896 0c-79 346-183 561-297 696a733 733 0 0 1-39 43c-124 125-260 168-401 190a1591 1591 0 0 1-50 6.8c-148 18-301 17-440 72a576 576 0 0 0-24 9.9c-37 16-72 37-106 63h107c2.1-1 4.1-2.2 6.2-3.2a506 506 0 0 1 26-12c130-55 283-55 441-74a1945 1945 0 0 0 9-1.1c162-20 331-65 480-218a773 773 0 0 0 8.9-9.4c117-125 221-318 302-620V0z" fill="#867367"/><path d="M1858 0c-79 335-180 544-292 676a727 727 0 0 1-39 42c-124 124-259 167-399 188a1589 1589 0 0 1-50 6.7c-148 18-299 17-438 72a573 573 0 0 0-24 9.9c-47 21-91 49-133 86h94c15-9.7 31-18 47-26a503 503 0 0 1 26-12c129-54 281-54 439-73 3-.36 6-.73 9-1.1 161-20 329-64 477-217a769 769 0 0 0 8.9-9.3c132-141 247-369 332-742z" fill="#978377"/><path d="M1819 0c-78 325-178 528-288 656a721 721 0 0 1-39 42c-123 123-257 165-397 186a1588 1588 0 0 1-50 6.7c-147 17-297 17-435 71a569 569 0 0 0-23 9.8c-55 25-108 60-156 108h86c26-20 52-36 79-49a501 501 0 0 1 26-12c129-54 279-54 436-73 3-.36 5.9-.72 8.9-1.1 160-20 328-64 474-215a764 764 0 0 0 8.8-9.2c130-138 242-360 327-721z" fill="#947f73"/><path d="M1780 0c-77 314-175 511-283 636a716 716 0 0 1-39 42c-122 122-256 164-394 184a1587 1587 0 0 1-50 6.6c-146 17-295 17-432 71a566 566 0 0 0-23 9.7c-64 28-123 70-177 131h79c34-31 70-54 107-72a498 498 0 0 1 26-12c128-53 278-53 433-72a1912 1912 0 0 0 8.9-1.1c159-20 326-64 471-214a759 759 0 0 0 8.8-9.2c127-135 238-351 322-701z" fill="#8a7569"/><path d="M1741 0c-76 302-172 494-278 616a710 710 0 0 1-39 41c-122 121-254 162-392 182a1586 1587 0 0 1-49 6.5c-145 17-293 17-429 70a562 562 0 0 0-23 9.7c-71 32-137 80-196 154h75c41-42 85-72 131-95a496 496 0 0 1 26-11c127-53 276-53 431-71 2.9-.35 5.9-.71 8.8-1.1 158-20 324-63 469-212a753 753 0 0 0 8.7-9.1c125-132 234-342 317-680z" fill="#947f73"/><path d="M1702 0c-75 292-169 477-272 596a704 704 0 0 1-38 41c-121 119-253 160-390 181a1586 1586 0 0 1-49 6.5c-144 17-291 17-427 70-7.7 3-15 6.2-23 9.6-78 35-150 90-213 176h72c46-55 97-92 152-118 8.4-4 17-7.8 25-11 126-52 274-52 428-71 2.9-.35 5.8-.7 8.8-1.1 157-20 322-63 466-210a748 748 0 0 0 8.7-9.1c122-129 229-333 311-660z" fill="#8a7569"/><path d="M1663 0c-74 281-166 460-267 576a698 698 0 0 1-38 41c-120 118-252 159-388 179-16 2.4-32 4.5-49 6.4-143 17-289 17-424 70a556 556 0 0 0-23 9.6c-84 38-162 99-228 199h69c51-68 108-111 170-141a491 491 0 0 1 25-11c125-52 272-52 425-70 2.9-.35 5.8-.7 8.7-1.1 157-20 320-62 463-209a743 743 0 0 0 8.7-9c120-126 224-325 305-639z" fill="#927d71"/><path d="M1624 0c-73 270-163 444-262 556a693 693 0 0 1-38 40c-120 117-250 157-386 177a1584 1585 0 0 1-48 6.3c-142 16-288 16-421 69a552 552 0 0 0-23 9.5c-90 40-173 108-241 221h67c55-81 118-131 187-164a489 489 0 0 1 25-11c125-51 271-51 423-69 2.9-.34 5.8-.69 8.7-1.1 156-19 318-62 460-207a738 738 0 0 0 8.6-8.9c117-123 220-316 300-619z" fill="#968275"/><path d="M1585 0c-72 259-160 427-256 537a687 687 0 0 1-38 40c-119 116-249 156-384 175a1584 1584 0 0 1-48 6.2c-141 16-286 16-419 69a549 549 0 0 0-22 9.4c-96 43-183 117-254 244h66c59-95 127-151 202-186a486 486 0 0 1 25-11c124-51 269-51 420-69a1850 1849 0 0 0 8.6-1c155-19 316-61 458-205 2.9-2.9 5.7-5.9 8.6-8.9 114-120 215-306 294-599z" fill="#937e72"/><path d="M1545 0c-71 248-157 410-251 517a681 681 0 0 1-38 40c-118 115-247 154-382 174a1584 1584 0 0 1-48 6.2c-140 16-284 16-416 68a545 546 0 0 0-22 9.4c-101 45-193 125-266 266h65c61-109 134-171 215-209a484 484 0 0 1 25-11c123-50 267-50 417-68 2.8-.34 5.7-.69 8.5-1 154-19 314-61 455-204 2.8-2.9 5.7-5.8 8.5-8.8 112-117 210-297 288-578z" fill="#927d71"/><path d="M1506 0c-70 238-154 394-245 497a676 676 0 0 1-38 39c-118 114-246 152-379 172-16 2.3-32 4.3-47 6.1-139 16-282 16-413 68a542 542 0 0 0-22 9.3c-107 48-202 134-276 289h64c64-124 141-192 227-232a482 482 0 0 1 25-11c122-50 266-50 415-67 2.8-.34 5.7-.68 8.5-1 153-19 312-60 452-202 2.8-2.9 5.7-5.8 8.5-8.7 109-114 205-288 282-558z" fill="#8d786c"/><path d="M1466 0c-68 227-151 377-239 477a670 670 0 0 1-37 39c-117 113-245 151-377 170-16 2.3-31 4.2-47 6-138 16-280 16-411 67a539 539 0 0 0-22 9.2c-111 50-210 142-285 312h63c66-139 147-212 238-255a479 479 0 0 1 25-11c121-49 264-49 412-67a1816 1816 0 0 0 8.4-1c152-19 310-60 449-201 2.8-2.8 5.6-5.7 8.4-8.7 106-111 200-279 276-537z" fill="#937e72"/><path d="M1426 0c-67 216-147 360-233 457a664 664 0 0 1-37 39c-116 112-243 149-375 168a1584 1584 0 0 1-47 6c-138 16-278 16-408 67a535 535 0 0 0-22 9.2c-116 52-219 150-294 334h62c67-155 152-233 248-278a477 477 0 0 1 24-11c121-49 262-49 409-66 2.8-.33 5.6-.67 8.4-1 151-19 308-59 446-199 2.8-2.8 5.6-5.7 8.4-8.6 103-108 195-270 269-517z" fill="#8e796d"/><path d="M1386 0c-66 206-143 344-227 437a659 659 0 0 1-37 38c-116 110-242 148-373 166a1584 1584 0 0 1-46 5.9c-137 15-277 16-405 66a532 532 0 0 0-22 9.1C169 770 74 857 1 1014v65h34c69-170 157-254 257-301a475 475 0 0 1 24-11c120-48 261-48 407-65 2.8-.33 5.5-.66 8.3-1 150-19 306-59 444-197 2.8-2.8 5.6-5.6 8.3-8.5 101-104 190-260 263-496z" fill="#8f7a6e"/><path d="M1346 0c-64 195-140 327-221 417a653 653 0 0 1-37 38C973 564 848 601 717 620a1584 1584 0 0 1-46 5.8c-136 15-275 16-403 66-7.3 2.9-14 5.9-22 9.1-94 42-178 114-247 238v137c69-183 160-271 264-319a472 472 0 0 1 24-10c119-48 259-48 404-65 2.8-.33 5.5-.66 8.3-1 149-18 304-59 441-196a703 703 0 0 0 8.3-8.4c98-101 185-251 256-476z" fill="#968275"/><path d="M1305 0c-63 184-136 311-214 397a648 648 0 0 1-37 38C940 543 815 580 685 598a1585 1585 0 0 1-46 5.8c-135 15-273 15-400 66a525 525 0 0 0-21 9c-81 36-155 95-218 191v118c65-140 145-212 236-254a470 470 0 0 1 24-10c118-47 257-47 401-64 2.7-.32 5.5-.65 8.2-.99 148-18 302-58 438-194 2.8-2.8 5.5-5.5 8.2-8.4 95-98 179-242 249-455z" fill="#8d786c"/><path d="M1265 0c-61 174-132 294-208 378a642 642 0 0 1-37 37C906 522 782 558 653 576a1586 1585 0 0 1-46 5.7c-134 15-271 15-397 65a522 522 0 0 0-21 8.9c-69 31-134 79-190 152v102c60-105 130-164 209-200a468 468 0 0 1 24-10c118-47 255-47 399-63 2.7-.32 5.4-.65 8.2-.98 147-18 300-58 435-192 2.7-2.7 5.5-5.5 8.2-8.3 92-94 174-232 243-435z" fill="#958074"/><path d="M1224 0c-60 164-128 278-201 358a637 637 0 0 1-36 37C874 501 751 536 623 554a1586 1586 0 0 1-45 5.6c-133 15-269 15-394 65a518 518 0 0 0-21 8.9c-58 26-112 64-162 118v92c53-78 114-125 181-155a465 465 0 0 1 24-10c117-46 254-46 396-63 2.7-.32 5.4-.65 8.1-.98 146-18 299-57 433-191a687 687 0 0 0 8.2-8.3c89-91 168-223 235-415z" fill="#927d71"/><path d="M1183 0c-58 153-123 262-193 338a631 631 0 0 1-36 37C842 480 719 515 592 532a1588 1588 0 0 1-45 5.5c-132 15-267 15-392 64-7.1 2.8-14 5.7-21 8.8-47 21-92 50-133 89v83c46-56 98-93 153-118 7.8-3.6 16-6.9 24-10 116-46 252-45 393-62 2.7-.31 5.4-.64 8-.97 145-18 297-57 430-189 2.7-2.7 5.4-5.4 8.1-8.2 85-87 162-213 228-394z" fill="#867367"/><path d="M1142 0c-56 143-119 245-186 318a626 626 0 0 1-36 36C808 458 686 492 560 510a1589 1589 0 0 1-45 5.5c-131 14-265 15-389 64a512 512 0 0 0-21 8.8c-36 16-71 37-105 65v77c39-39 81-67 125-87a461 461 0 0 1 23-9.9c115-45 250-45 391-62 2.7-.31 5.3-.63 8-.96 144-18 295-56 427-187l8.1-8.1c82-84 157-203 220-374z" fill="#917c70"/><path d="M1100 0c-54 133-114 229-178 298a620 620 0 0 1-36 36C775 437 654 471 528 488a1590 1590 0 0 1-44 5.4c-130 14-264 15-386 63-7 2.7-14 5.6-21 8.7-26 12-52 26-76 43v72c31-26 64-46 98-61a459 459 0 0 1 23-9.8c114-45 249-44 388-61 2.6-.31 5.3-.63 7.9-.95 143-18 293-56 424-186 2.7-2.6 5.4-5.3 8-8 79-80 151-193 212-353z" fill="#927d71"/><path d="M1058 0c-52 123-109 213-170 278a615 615 0 0 1-36 36C742 415 621 449 496 466c-15 2-29 3.7-44 5.3-129 14-262 15-384 63-6.9 2.7-14 5.6-21 8.6-16 7.2-32 15-48 25v68c23-16 46-29 70-40a456 456 0 0 1 23-9.7c114-44 247-44 386-60 2.6-.31 5.2-.62 7.9-.94 142-17 291-55 422-184a667 667 0 0 0 8-8c76-77 144-184 204-333z" fill="#867367"/><path d="M1000 0c-50 113-104 197-162 258a609 609 0 0 1-36 35C692 393 573 426 448 443a1594 1594 0 0 1-44 5.3c-128 14-260 15-381 62a502 502 0 0 0-20 8.6c-6.5 2.9-13 6.1-19 9.3v65c14-8.1 28-15 42-22 7.6-3.4 15-6.6 23-9.5 113-43 245-43 383-60 2.6-.31 5.2-.62 7.8-.94 141-17 289-55 419-183 2.7-2.6 5.3-5.2 7.9-7.9 72-73 138-174 196-312z" fill="#8e796d"/><path d="M973 0c-47 103-99 181-153 238a604 604 0 0 1-35 35c-109 99-228 132-352 148-14 1.9-29 3.6-43 5.2-128 14-258 15-378 62a498 498 0 0 0-11 4.7v63c4.8-2.4 9.7-4.7 15-6.9a452 452 0 0 1 23-9.4c112-43 244-43 380-59a1675 1675 0 0 0 7.8-.92c140-17 287-54 416-181 2.6-2.6 5.3-5.2 7.9-7.8 69-69 131-164 187-292z" fill="#927d71"/><path d="M930 0c-45 94-93 165-144 219a598 598 0 0 1-35 35c-108 98-227 130-349 147a1598 1598 0 0 1-43 5.1c-121 13-244 14-358 55v62a450 450 0 0 1 9.5-3.9c111-42 242-42 378-58 2.6-.3 5.1-.61 7.7-.92 139-17 285-54 413-179 2.6-2.6 5.2-5.1 7.8-7.8 65-65 125-153 178-272z" fill="#8c776b"/><path d="M887 0c-42 84-87 149-135 199a593 593 0 0 1-35 34c-108 97-225 129-347 145-14 1.9-29 3.5-43 5.1-110 12-222 14-327 45v60c106-35 229-36 357-51 2.6-.3 5.1-.6 7.7-.91 138-17 283-54 411-178 2.6-2.5 5.2-5.1 7.8-7.7 61-61 118-143 169-251z" fill="#917c70"/><path d="M843 0c-39 75-81 133-125 179a588 588 0 0 1-35 34c-107 96-224 127-345 143a1603 1603 0 0 1-43 5c-99 10-200 14-296 37v59c99-27 210-29 326-42 2.5-.29 5.1-.59 7.6-.9 138-17 281-53 408-176 2.6-2.5 5.2-5.1 7.8-7.6 57-57 111-132 159-231z" fill="#887468"/></g><path d="M799 0c-36 65-75 117-114 159a582 582 0 0 1-35 34c-106 95-222 126-343 141a1606 1607 0 0 1-42 4.9c-88 9.2-178 13-265 30v59c91-20 192-23 295-35 2.5-.29 5-.59 7.6-.9 137-17 279-53 405-174 2.6-2.5 5.1-5 7.7-7.6 53-53 103-122 149-210z" fill="#907b6f"/><g fill-rule="evenodd"><path d="M754 0c-33 56-68 102-103 139a577 577 0 0 1-35 33c-106 94-221 124-341 140-14 1.8-28 3.4-42 4.8-78 8-157 12-233 25v59c83-15 172-18 265-29 2.5-.29 5-.59 7.5-.89 136-16 277-52 402-173 2.6-2.5 5.1-5 7.7-7.5 49-49 95-111 138-190z" fill="#887468"/><path d="M708 0c-29 47-60 87-92 119a572 572 0 0 1-34 33c-105 92-220 122-339 138a1614 1613 0 0 1-42 4.8c-67 6.9-135 11-202 20v58c74-11 153-14 234-24 2.5-.29 5-.58 7.4-.88 135-16 275-52 399-171 2.5-2.4 5.1-4.9 7.6-7.4 45-45 87-100 127-169z" fill="#917c70"/><path d="M662 0c-26 39-52 71-79 99a566 566 0 0 1-34 33c-104 91-218 121-337 136a1618 1617 0 0 1-41 4.7c-57 5.8-114 9.3-171 16v58c65-7.9 134-12 204-20 2.5-.29 4.9-.58 7.4-.87 134-16 273-51 397-170 2.5-2.4 5.1-4.9 7.6-7.4 40-40 79-89 115-149z" fill="#897568"/><path d="M615 0c-21 30-43 57-66 80a561 561 0 0 1-34 32c-104 90-217 119-334 134a1622 1622 0 0 1-41 4.6c-46 4.7-93 7.8-139 12v58c56-5.8 114-9.7 173-17 2.4-.28 4.9-.57 7.3-.86 133-16 272-51 394-168 2.5-2.4 5-4.8 7.5-7.3 36-35 70-78 102-128z" fill="#937e72"/><path d="M566 0c-17 22-34 42-51 60a556 556 0 0 1-34 32c-103 89-215 118-332 132a1626 1626 0 0 1-41 4.6c-36 3.6-72 6.3-108 9.5v58c47-4.3 94-8 143-14 2.4-.28 4.8-.56 7.3-.86 132-16 270-50 391-166a612 612 0 0 0 7.5-7.2c31-30 61-66 89-108z" fill="#8c776b"/><path d="M517 0c-12 14-24 28-36 40a551 551 0 0 1-34 31c-102 88-214 116-330 131-13 1.7-27 3.2-40 4.5-26 2.6-51 4.6-77 6.7v58c37-3.2 74-6.4 112-11 2.4-.28 4.8-.56 7.2-.85 131-16 268-50 388-165 2.5-2.4 5-4.8 7.4-7.2 26-25 51-54 75-88z" fill="#937e72"/><path d="M466 0c-6.2 6.9-12 14-19 20a545 545 0 0 1-34 31C311 138 200 166 85 180c-13 1.7-27 3.1-40 4.4-15 1.5-30 2.7-46 4v58c27-2.3 54-4.7 82-7.8a1550 1550 0 0 0 7.2-.84c130-16 266-49 386-163a602 602 0 0 0 7.4-7.1c20-20 40-42 59-67z" fill="#937e72"/><path d="M414 0a540 540 0 0 1-33 31C280 117 170 144 55 158a1643 1643 0 0 1-40 4.4c-4.8.47-9.6.8-14 1.2v57c17-1.6 34-2.9 51-4.9 2.4-.27 4.7-.55 7.1-.83 129-15 264-49 383-161 2.5-2.3 4.9-4.7 7.3-7 15-14 29-30 43-47z" fill="#8e796d"/><path d="M358 0a535 535 0 0 1-12 11C246 95 136 122 22 136c-7.5.91-15 1.6-23 2.4v57c6.9-.72 14-1.2 21-2 2.3-.27 4.7-.54 7.1-.82 128-15 262-49 380-160a592 592 0 0 0 7.3-7c8.5-8.3 17-17 25-26z" fill="#8c776b"/><path d="M301 0C207 74 106 99 0 113v58c126-15 258-49 374-158 2.4-2.3 4.8-4.6 7.3-6.9 1.9-1.8 3.8-3.9 5.7-5.8z" fill="#8c776b"/><path d="M239 0C163 51 83 74 0 86v58C113 128 228 93 332 0z" fill="#927d71"/><path d="M172 0C117 30 59 48 0 59v58C93 100 187 69 275 0z" fill="#897568"/><path d="M95 0C64 13 32 23 0 30v59C72 73 145 47 213 0z" fill="#867367"/><path d="M.83 0C.55.079.28.17 0 .25v59c50-13 99-31 147-59z" fill="#907b6f"/><path d="M0 0v29c25-7.8 50-17 74-29z" fill="#8b766a"/></g></svg>