<svg version="1.1" viewBox="0 0 1920 1080" xmlns="http://www.w3.org/2000/svg"><defs><clipPath id="a"><path d="m-243.45 301.14h672.02v378.01h-672.02z" fill="#520" stroke-width="20"/></clipPath></defs><g transform="matrix(2.857 0 0 2.8571 695.55 -860.37)" clip-path="url(#a)" color="#000000" fill-rule="evenodd" font-family="sans-serif" font-weight="400" stroke-width=".99711"><path d="m671 363.54c-31.002 161.41-73.532 259.02-121.2 318.66a295.74 295.74 0 0 1-14.803 17.158c-47.868 51.29-100.24 69.415-154.52 78.285a569.66 569.66 0 0 1-19.683 2.844c-57.99 7.41-117.48 6.78-172.01 28.255a224.02 224.02 0 0 0-9.238 3.878c-55.11 24.606-102.85 74.735-135.31 177.63a593.79 593.79 0 0 0-3.288 10.785 1.243e7 1.243e7 0 0 0 19.183 5.654c29.372-99.668 70.08-146.39 117.43-170.93a193.56 193.56 0 0 1 10.135-4.879c50.713-22.643 110.25-22.504 172.1-30.114 1.175-0.145 2.352-0.292 3.528-0.442 63.119-8.066 128.83-25.755 186.29-87.323a305.14 305.14 0 0 0 3.422-3.728c54.88-60.795 101.83-161.5 135.58-331.63 0.678-3.418 1.35-6.863 2.018-10.337l-19.64-3.771" fill="#d22d2d" opacity=".93" overflow="visible" solid-color="#000000" style="isolation:auto;mix-blend-mode:normal;text-decoration-color:#000000;text-decoration-line:none;text-decoration-style:solid;text-indent:0;text-transform:none;white-space:normal"/><path d="m658.69 358.43c-30.883 160.56-73.26 257.58-120.74 316.81a293.64 293.64 0 0 1-14.746 17.04c-47.636 50.896-99.757 68.862-153.77 77.66a568.77 568.77 0 0 1-19.576 2.818c-57.673 7.347-116.84 6.74-171.07 28.099a222.83 222.83 0 0 0-9.187 3.856c-54.83 24.48-102.33 74.341-134.61 176.62a310.19 310.19 0 0 0-3.126 10.65c0.086 0.03 14.953 4.415 18.37 5.422 0.447 0.13 0.701 0.202 0.702 0.2 29.245-99.097 69.775-145.5 116.93-169.87 3.328-1.72 6.69-3.33 10.083-4.841 50.44-22.462 109.65-22.327 171.17-29.889 1.169-0.143 2.338-0.29 3.509-0.44 62.785-8.015 128.16-25.595 185.32-86.75a303.31 303.31 0 0 0 3.406-3.706c54.65-60.434 101.4-160.56 134.99-329.73 0.667-3.363 1.28-6.765 1.879-10.196-0.09-0.02-19.532-3.756-19.532-3.756" fill="#d43b37" opacity=".932" overflow="visible" solid-color="#000000" style="isolation:auto;mix-blend-mode:normal;text-decoration-color:#000000;text-decoration-line:none;text-decoration-style:solid;text-indent:0;text-transform:none;white-space:normal"/><path d="m646.38 353.33c-30.763 159.7-72.987 256.13-120.29 314.96a291.55 291.55 0 0 1-14.688 16.923c-47.404 50.5-99.27 68.308-153.02 77.032a567.94 567.94 0 0 1-19.47 2.795c-57.355 7.284-116.19 6.7-170.12 27.942a221.66 221.66 0 0 0-9.136 3.834c-54.549 24.354-101.81 73.947-133.92 175.62-1.079 3.42-2.038 6.935-2.962 10.517 0.172 0.057 14.904 4.408 18.266 5.398 0.442 0.125 0.692 0.194 0.694 0.189 29.118-98.526 69.47-144.61 116.43-168.8a191.78 191.78 0 0 1 10.033-4.803c50.167-22.281 109.06-22.15 170.24-29.664 1.163-0.142 2.326-0.288 3.49-0.436 62.453-7.967 127.48-25.436 184.36-86.18a301.32 301.32 0 0 0 3.39-3.682c54.42-60.075 100.96-159.62 134.4-327.84 0.656-3.309 1.21-6.666 1.74-10.055-0.18-0.039-19.424-3.74-19.424-3.74" fill="#d56a36" opacity=".907" overflow="visible" solid-color="#000000" style="isolation:auto;mix-blend-mode:normal;text-decoration-color:#000000;text-decoration-line:none;text-decoration-style:solid;text-indent:0;text-transform:none;white-space:normal"/><path d="m634.06 348.22c-30.643 158.85-72.714 254.68-119.84 313.1a289.46 289.46 0 0 1-14.63 16.805c-47.174 50.105-98.784 67.754-152.28 76.405a567.09 567.09 0 0 1-19.363 2.77c-57.038 7.221-115.55 6.66-169.18 27.785a220.47 220.47 0 0 0-9.087 3.814c-54.267 24.226-101.29 73.551-133.22 174.61-1.06 3.364-1.952 6.839-2.798 10.383 0.257 0.086 14.856 4.4 18.162 5.375 0.436 0.12 0.683 0.185 0.685 0.178 28.992-97.954 69.166-143.72 115.92-167.74a190.89 190.89 0 0 1 9.982-4.767c49.895-22.1 108.46-21.971 169.32-29.437 1.156-0.142 2.313-0.287 3.47-0.434 62.12-7.917 126.8-25.277 183.39-85.61a299.73 299.73 0 0 0 3.375-3.658c54.189-59.713 100.53-158.68 133.81-325.94 0.646-3.254 1.141-6.567 1.601-9.914-0.27-0.059-19.315-3.725-19.315-3.725" fill="#db624a" opacity=".906" overflow="visible" solid-color="#000000" style="isolation:auto;mix-blend-mode:normal;text-decoration-color:#000000;text-decoration-line:none;text-decoration-style:solid;text-indent:0;text-transform:none;white-space:normal"/><path d="m621.75 343.12c-30.523 158-72.441 253.23-119.38 311.25a287.37 287.37 0 0 1-14.575 16.687c-46.94 49.711-98.296 67.2-151.53 75.779a566.29 566.29 0 0 1-19.256 2.745c-56.721 7.159-114.9 6.62-168.24 27.629a219.3 219.3 0 0 0-9.036 3.792c-53.987 24.101-100.77 73.158-132.53 173.61-1.044 3.308-1.866 6.742-2.635 10.248 0.343 0.115 14.808 4.395 18.059 5.353 0.429 0.116 0.673 0.177 0.676 0.167 28.865-97.381 68.861-142.84 115.42-166.68a190.01 190.01 0 0 1 9.93-4.73c49.623-21.918 107.86-21.793 168.39-29.211 1.15-0.141 2.3-0.285 3.45-0.431 61.787-7.867 126.13-25.118 182.42-85.038a297.9 297.9 0 0 0 3.359-3.635c53.957-59.354 100.09-157.74 133.22-324.05 0.635-3.2 1.071-6.469 1.462-9.773-0.36-0.078-19.207-3.71-19.207-3.71" fill="#da5745" opacity=".942" overflow="visible" solid-color="#000000" style="isolation:auto;mix-blend-mode:normal;text-decoration-color:#000000;text-decoration-line:none;text-decoration-style:solid;text-indent:0;text-transform:none;white-space:normal"/><path d="m609.44 338.02c-30.403 157.14-72.168 251.78-118.93 309.4a285.28 285.28 0 0 1-14.516 16.569c-46.71 49.316-97.809 66.647-150.78 75.151a565.47 565.47 0 0 1-19.15 2.722c-56.403 7.095-114.25 6.58-167.3 27.471a218.11 218.11 0 0 0-8.985 3.771c-53.708 23.976-100.25 72.764-131.84 172.6-1.026 3.253-1.78 6.647-2.471 10.115 0.428 0.144 14.76 4.388 17.955 5.33 0.423 0.111 0.663 0.169 0.667 0.157 28.739-96.812 68.557-141.95 114.92-165.62a189.13 189.13 0 0 1 9.88-4.692c49.35-21.738 107.27-21.615 167.46-28.986 1.143-0.14 2.287-0.283 3.432-0.428 61.453-7.818 125.45-24.958 181.45-84.467a296.08 296.08 0 0 0 3.344-3.612c53.727-58.994 99.659-156.8 132.63-322.15 0.624-3.146 1-6.371 1.322-9.633-0.448-0.098-19.098-3.694-19.098-3.694" fill="#da6145" opacity=".926" overflow="visible" solid-color="#000000" style="isolation:auto;mix-blend-mode:normal;text-decoration-color:#000000;text-decoration-line:none;text-decoration-style:solid;text-indent:0;text-transform:none;white-space:normal"/><path d="m597.13 332.92c-30.284 156.29-71.896 250.33-118.47 307.55a283.2 283.2 0 0 1-14.46 16.451c-46.478 48.921-97.322 66.094-150.03 74.525a564.67 564.67 0 0 1-19.042 2.697c-56.086 7.033-113.61 6.54-166.36 27.315a216.92 216.92 0 0 0-8.935 3.75c-53.425 23.849-99.723 72.37-131.14 171.6-1.009 3.196-1.694 6.551-2.309 9.981 0.515 0.172 14.712 4.381 17.853 5.307 0.416 0.107 0.653 0.16 0.658 0.146 28.611-96.24 68.253-141.06 114.42-164.56a188.26 188.26 0 0 1 9.83-4.654c49.076-21.557 106.67-21.438 166.53-28.76 1.137-0.14 2.274-0.282 3.413-0.426 61.12-7.768 124.78-24.799 180.48-83.896a294.26 294.26 0 0 0 3.328-3.588c53.495-58.634 99.224-155.86 132.04-320.26 0.614-3.092 0.932-6.273 1.184-9.492-0.538-0.117-18.99-3.678-18.99-3.678" fill="#d87249" opacity=".949" overflow="visible" solid-color="#000000" style="isolation:auto;mix-blend-mode:normal;text-decoration-color:#000000;text-decoration-line:none;text-decoration-style:solid;text-indent:0;text-transform:none;white-space:normal"/><path d="m584.82 327.81c-30.164 155.44-71.623 248.88-118.02 305.7a281.12 281.12 0 0 1-14.402 16.333c-46.246 48.526-96.834 65.54-149.28 73.898a563.92 563.92 0 0 1-18.936 2.672c-55.768 6.97-112.96 6.5-165.41 27.159a215.75 215.75 0 0 0-8.884 3.728c-53.146 23.723-99.203 71.976-130.45 170.59-0.99 3.14-1.607 6.455-2.145 9.847 0.6 0.2 14.663 4.375 17.75 5.284 0.409 0.102 0.643 0.152 0.649 0.135 28.484-95.668 67.948-140.17 113.92-163.5a187.36 187.36 0 0 1 9.778-4.616c48.803-21.376 106.08-21.26 165.6-28.536a730.26 730.26 0 0 0 3.394-0.422c60.787-7.719 124.1-24.64 179.51-83.325a292.52 292.52 0 0 0 3.312-3.565c53.265-58.273 98.79-154.92 131.45-318.36 0.603-3.038 0.862-6.174 1.045-9.351-0.628-0.137-18.881-3.662-18.881-3.662" fill="#d86e49" opacity=".961" overflow="visible" solid-color="#000000" style="isolation:auto;mix-blend-mode:normal;text-decoration-color:#000000;text-decoration-line:none;text-decoration-style:solid;text-indent:0;text-transform:none;white-space:normal"/><path d="m572.51 322.71c-30.044 154.58-71.35 247.43-117.57 303.84a279.04 279.04 0 0 1-14.346 16.215c-46.014 48.132-96.347 64.987-148.53 73.272a563.17 563.17 0 0 1-18.83 2.648c-55.451 6.907-112.32 6.46-164.47 27.001-2.96 1.166-5.905 2.4-8.833 3.707-52.864 23.597-98.681 71.582-129.75 169.59-0.972 3.084-1.52 6.359-1.981 9.713 0.686 0.23 14.615 4.368 17.646 5.261 0.403 0.098 0.634 0.144 0.64 0.125 28.358-95.099 67.644-139.28 113.41-162.44 3.21-1.627 6.454-3.15 9.728-4.579 48.53-21.195 105.48-21.082 164.67-28.31 1.124-0.137 2.249-0.277 3.374-0.42 60.454-7.668 123.43-24.48 178.55-82.752 1.102-1.165 2.201-2.345 3.297-3.542 53.034-57.914 98.355-153.99 130.86-316.47 0.591-2.984 0.791-6.076 0.905-9.211-0.717-0.156-18.772-3.647-18.772-3.647" fill="#d9794e" opacity=".965" overflow="visible" solid-color="#000000" style="isolation:auto;mix-blend-mode:normal;text-decoration-color:#000000;text-decoration-line:none;text-decoration-style:solid;text-indent:0;text-transform:none;white-space:normal"/><path d="m560.2 317.6c-29.924 153.73-71.077 245.98-117.11 301.99a276.98 276.98 0 0 1-14.29 16.098c-45.782 47.737-95.859 64.433-147.78 72.645a562.44 562.44 0 0 1-18.724 2.623c-55.133 6.844-111.67 6.42-163.53 26.845a213.38 213.38 0 0 0-8.783 3.686c-52.583 23.47-98.16 71.187-129.06 168.58-0.955 3.028-1.435 6.263-1.818 9.579 0.772 0.258 14.566 4.361 17.542 5.238 0.397 0.093 0.625 0.136 0.632 0.114 28.231-94.526 67.339-138.39 112.91-161.38a185.61 185.61 0 0 1 9.676-4.541c48.258-21.014 104.89-20.904 163.74-28.084 1.117-0.137 2.235-0.276 3.355-0.417 60.12-7.62 122.75-24.32 177.58-82.182 1.096-1.157 2.19-2.33 3.28-3.519 52.804-57.553 97.921-153.05 130.27-314.58 0.58-2.93 0.721-5.978 0.766-9.07-0.807-0.176-18.664-3.631-18.664-3.631" fill="#da8053" opacity=".99" overflow="visible" solid-color="#000000" style="isolation:auto;mix-blend-mode:normal;text-decoration-color:#000000;text-decoration-line:none;text-decoration-style:solid;text-indent:0;text-transform:none;white-space:normal"/><path d="m547.89 312.5c-29.805 152.88-70.805 244.53-116.66 300.14a274.91 274.91 0 0 1-14.231 15.977c-45.55 47.342-95.373 63.88-147.03 72.018a561.79 561.79 0 0 1-18.616 2.6c-54.816 6.78-111.02 6.38-162.58 26.688a212.21 212.21 0 0 0-8.732 3.664c-52.304 23.345-97.639 70.794-128.36 167.58-0.937 2.972-1.349 6.167-1.655 9.445 0.858 0.287 14.52 4.354 17.44 5.215 0.39 0.088 0.615 0.128 0.623 0.103 28.104-93.955 67.034-137.5 112.41-160.32 3.176-1.6 6.385-3.098 9.625-4.504 47.984-20.833 104.29-20.726 162.81-27.858 1.111-0.135 2.223-0.274 3.336-0.414 59.788-7.57 122.07-24.161 176.61-81.611a286.98 286.98 0 0 0 3.265-3.495c52.572-57.193 97.487-152.11 129.68-312.68 0.57-2.875 0.652-5.88 0.627-8.93-0.896-0.194-18.554-3.615-18.554-3.615" fill="#d88949" opacity=".986" overflow="visible" solid-color="#000000" style="isolation:auto;mix-blend-mode:normal;text-decoration-color:#000000;text-decoration-line:none;text-decoration-style:solid;text-indent:0;text-transform:none;white-space:normal"/><path d="m535.58 307.4c-29.685 152.02-70.532 243.08-116.2 298.29a272.85 272.85 0 0 1-14.175 15.86c-45.32 46.948-94.886 63.327-146.28 71.392a561.11 561.11 0 0 1-18.51 2.575c-54.498 6.718-110.38 6.34-161.64 26.531a211.02 211.02 0 0 0-8.681 3.643c-52.022 23.219-97.117 70.399-127.67 166.57-0.92 2.916-1.263 6.07-1.492 9.31 0.944 0.316 14.47 4.348 17.336 5.193 0.384 0.084 0.605 0.12 0.614 0.093 27.978-93.384 66.73-136.61 111.91-159.26a183.86 183.86 0 0 1 9.574-4.467c47.712-20.652 103.7-20.549 161.88-27.633a714.18 714.18 0 0 0 3.316-0.411c59.455-7.52 121.4-24.002 175.64-81.04a285.24 285.24 0 0 0 3.25-3.472c52.341-56.832 97.052-151.17 129.09-310.79 0.56-2.82 0.582-5.78 0.488-8.788-0.986-0.215-18.446-3.6-18.446-3.6" fill="#da8e57" opacity=".966" overflow="visible" solid-color="#000000" style="isolation:auto;mix-blend-mode:normal;text-decoration-color:#000000;text-decoration-line:none;text-decoration-style:solid;text-indent:0;text-transform:none;white-space:normal"/><path d="m523.27 302.3c-29.565 151.17-70.26 241.63-115.75 296.43a270.79 270.79 0 0 1-14.12 15.743c-45.087 46.553-94.398 62.773-145.53 70.765a560.48 560.48 0 0 1-18.403 2.55c-54.182 6.656-109.73 6.301-160.7 26.375a209.84 209.84 0 0 0-8.63 3.622c-51.743 23.092-96.597 70.004-126.97 165.56-0.902 2.86-1.176 5.975-1.328 9.177 1.03 0.344 14.422 4.34 17.233 5.17 0.377 0.078 0.595 0.11 0.605 0.081 27.85-92.812 66.425-135.72 111.4-158.2a183 183 0 0 1 9.524-4.43c47.439-20.47 103.1-20.37 160.96-27.407 1.099-0.133 2.198-0.27 3.298-0.409 59.121-7.47 120.72-23.842 174.67-80.468a283.42 283.42 0 0 0 3.234-3.448c52.111-56.473 96.618-150.23 128.5-308.89 0.548-2.766 0.512-5.682 0.349-8.647-1.077-0.235-18.338-3.584-18.338-3.584" fill="#db8e4a" opacity=".973" overflow="visible" solid-color="#000000" style="isolation:auto;mix-blend-mode:normal;text-decoration-color:#000000;text-decoration-line:none;text-decoration-style:solid;text-indent:0;text-transform:none;white-space:normal"/><path d="m510.96 297.19c-29.445 150.32-69.986 240.19-115.3 294.58a268.74 268.74 0 0 1-14.061 15.625c-44.856 46.157-93.911 62.22-144.79 70.138a559.85 559.85 0 0 1-18.296 2.526c-53.865 6.592-109.08 6.26-159.76 26.217a208.65 208.65 0 0 0-8.581 3.6c-51.46 22.967-96.075 69.611-126.28 164.56-0.885 2.804-1.09 5.879-1.165 9.043 1.115 0.372 14.374 4.334 17.13 5.146 0.37 0.075 0.585 0.103 0.596 0.071 27.724-92.24 66.12-134.83 110.9-157.14a182.12 182.12 0 0 1 9.472-4.392c47.166-20.29 102.5-20.193 160.03-27.181 1.092-0.133 2.185-0.268 3.278-0.406 58.789-7.422 120.05-23.683 173.71-79.898a281.6 281.6 0 0 0 3.217-3.425c51.88-56.112 96.184-149.29 127.91-307 0.538-2.713 0.442-5.584 0.21-8.507-1.166-0.254-18.229-3.569-18.229-3.569" fill="#dc9459" opacity=".976" overflow="visible" solid-color="#000000" style="isolation:auto;mix-blend-mode:normal;text-decoration-color:#000000;text-decoration-line:none;text-decoration-style:solid;text-indent:0;text-transform:none;white-space:normal"/><path d="m498.65 292.09c-29.325 149.46-69.713 238.74-114.84 292.73a266.69 266.69 0 0 1-14.005 15.507c-44.623 45.763-93.423 61.666-144.04 69.511-6.04 0.939-12.105 1.76-18.19 2.502-53.547 6.53-108.44 6.22-158.81 26.061a207.46 207.46 0 0 0-8.53 3.58c-51.18 22.84-95.554 69.215-125.58 163.55-0.867 2.747-1.004 5.782-1.001 8.909 1.2 0.401 14.325 4.327 17.026 5.123 0.365 0.07 0.576 0.095 0.587 0.06 27.598-91.669 65.816-133.94 110.4-156.07a181.27 181.27 0 0 1 9.422-4.354c46.893-20.109 101.91-20.015 159.1-26.956 1.085-0.132 2.171-0.266 3.258-0.403 58.456-7.372 119.37-23.524 172.74-79.327a279.79 279.79 0 0 0 3.202-3.401c51.65-55.752 95.749-148.35 127.32-305.1 0.527-2.658 0.372-5.486 0.071-8.366-1.256-0.274-18.12-3.553-18.12-3.553" fill="#db955c" opacity=".988" overflow="visible" solid-color="#000000" style="isolation:auto;mix-blend-mode:normal;text-decoration-color:#000000;text-decoration-line:none;text-decoration-style:solid;text-indent:0;text-transform:none;white-space:normal"/><path d="m486.34 286.98c-29.206 148.61-69.441 237.29-114.39 290.88a264.64 264.64 0 0 1-13.948 15.389c-44.392 45.368-92.936 61.112-143.29 68.884a558.69 558.69 0 0 1-18.082 2.477c-53.23 6.467-107.79 6.181-157.87 25.905a206.3 206.3 0 0 0-8.48 3.558c-50.899 22.713-95.032 68.821-124.89 162.55-0.849 2.691-0.918 5.686-0.838 8.775 1.287 0.43 14.278 4.32 16.923 5.1 0.359 0.065 0.567 0.086 0.579 0.05 27.47-91.098 65.511-133.05 109.9-155.01a180.4 180.4 0 0 1 9.37-4.317c46.62-19.927 101.31-19.837 158.17-26.73 1.078-0.131 2.158-0.264 3.239-0.4 58.122-7.323 118.7-23.365 171.77-78.755a277.97 277.97 0 0 0 3.185-3.379c51.42-55.392 95.315-147.41 126.73-303.21 0.517-2.604 0.303-5.387-0.067-8.225-1.346-0.293-18.012-3.538-18.012-3.538" fill="#df9966" opacity=".957" overflow="visible" solid-color="#000000" style="isolation:auto;mix-blend-mode:normal;text-decoration-color:#000000;text-decoration-line:none;text-decoration-style:solid;text-indent:0;text-transform:none;white-space:normal"/><path d="m474.02 281.88c-29.086 147.76-69.168 235.84-113.94 289.03a262.61 262.61 0 0 1-13.89 15.271c-44.16 44.974-92.45 60.56-142.54 68.258-5.969 0.92-11.962 1.725-17.976 2.453-52.912 6.403-107.14 6.14-156.93 25.747a205.11 205.11 0 0 0-8.429 3.537c-50.618 22.588-94.51 68.427-124.19 161.54-0.832 2.635-0.832 5.59-0.675 8.64 1.373 0.46 14.23 4.315 16.82 5.078 0.352 0.06 0.556 0.078 0.57 0.04 27.343-90.529 65.206-132.16 109.4-153.95a179.55 179.55 0 0 1 9.32-4.28c46.347-19.746 100.72-19.658 157.24-26.504 1.072-0.13 2.146-0.262 3.22-0.398 57.79-7.272 118.02-23.204 170.8-78.183a276.24 276.24 0 0 0 3.17-3.355c51.189-55.032 94.881-146.47 126.14-301.31 0.507-2.55 0.234-5.288-0.206-8.084-1.435-0.313-17.903-3.522-17.903-3.522" fill="#dc9c5d" opacity=".97" overflow="visible" solid-color="#000000" style="isolation:auto;mix-blend-mode:normal;text-decoration-color:#000000;text-decoration-line:none;text-decoration-style:solid;text-indent:0;text-transform:none;white-space:normal"/><path d="m461.71 276.78c-28.966 146.9-68.895 234.39-113.48 287.18a260.57 260.57 0 0 1-13.834 15.153c-43.928 44.578-91.962 60.005-141.79 67.63a557.62 557.62 0 0 1-17.869 2.43c-52.595 6.34-106.5 6.1-155.99 25.59a203.93 203.93 0 0 0-8.378 3.515c-50.338 22.462-93.99 68.033-123.5 160.54-0.814 2.58-0.745 5.494-0.511 8.506 1.458 0.488 14.181 4.308 16.716 5.055 0.346 0.056 0.547 0.07 0.561 0.029 27.218-89.956 64.902-131.27 108.9-152.89a178.68 178.68 0 0 1 9.268-4.242c46.075-19.565 100.12-19.48 156.31-26.279 1.066-0.129 2.133-0.26 3.2-0.395 57.457-7.223 117.34-23.045 169.83-77.612a274.35 274.35 0 0 0 3.154-3.332c50.958-54.671 94.446-145.53 125.55-299.42 0.495-2.495 0.164-5.19-0.345-7.943-1.525-0.332-17.795-3.507-17.795-3.507" fill="#daa757" opacity=".959" overflow="visible" solid-color="#000000" style="isolation:auto;mix-blend-mode:normal;text-decoration-color:#000000;text-decoration-line:none;text-decoration-style:solid;text-indent:0;text-transform:none;white-space:normal"/><path d="m449.4 271.67c-28.846 146.05-68.622 232.94-113.03 285.32a258.54 258.54 0 0 1-13.777 15.035c-43.697 44.184-91.475 59.452-141.04 67.005a557.19 557.19 0 0 1-17.763 2.404c-52.278 6.277-105.85 6.06-155.04 25.434a202.74 202.74 0 0 0-8.328 3.494c-50.056 22.335-93.468 67.638-122.8 159.53-0.796 2.523-0.66 5.398-0.348 8.372 1.544 0.516 14.133 4.3 16.613 5.032 0.339 0.052 0.537 0.062 0.552 0.018 27.09-89.384 64.597-130.38 108.39-151.83a177.84 177.84 0 0 1 9.218-4.204c45.801-19.385 99.526-19.303 155.38-26.054 1.06-0.128 2.12-0.258 3.182-0.392 57.123-7.173 116.67-22.885 168.86-77.041 1.05-1.087 2.095-2.19 3.139-3.308 50.727-54.311 94.012-144.6 124.96-297.52 0.484-2.441 0.093-5.092-0.484-7.803-1.615-0.352-17.687-3.491-17.687-3.491" fill="#dda65e" opacity=".981" overflow="visible" solid-color="#000000" style="isolation:auto;mix-blend-mode:normal;text-decoration-color:#000000;text-decoration-line:none;text-decoration-style:solid;text-indent:0;text-transform:none;white-space:normal"/><path d="m437.09 266.57c-28.726 145.2-68.35 231.49-112.57 283.47a256.51 256.51 0 0 1-13.72 14.918c-43.465 43.789-90.987 58.898-140.29 66.377a556.73 556.73 0 0 1-17.656 2.38c-51.96 6.215-105.2 6.021-154.1 25.277a201.55 201.55 0 0 0-8.277 3.473c-49.776 22.21-92.947 67.244-122.11 158.53-0.777 2.467-0.572 5.302-0.183 8.238 1.63 0.545 14.084 4.294 16.51 5.009 0.332 0.047 0.527 0.054 0.542 7e-3 26.964-88.813 64.293-129.49 107.89-150.77a176.98 176.98 0 0 1 9.167-4.167c45.529-19.203 98.93-19.125 154.45-25.828a680.83 680.83 0 0 0 3.162-0.389c56.79-7.124 115.99-22.726 167.9-76.47a270.73 270.73 0 0 0 3.123-3.285c50.496-53.951 93.578-143.66 124.37-295.63 0.474-2.386 0.024-4.993-0.623-7.662-1.704-0.37-17.578-3.475-17.578-3.475" fill="#dfa16a" opacity=".942" overflow="visible" solid-color="#000000" style="isolation:auto;mix-blend-mode:normal;text-decoration-color:#000000;text-decoration-line:none;text-decoration-style:solid;text-indent:0;text-transform:none;white-space:normal"/><path d="m424.78 261.47c-28.607 144.34-68.077 230.04-112.12 281.62a254.49 254.49 0 0 1-13.663 14.8c-43.233 43.393-90.5 58.344-139.54 65.75a556.33 556.33 0 0 1-17.55 2.355c-51.642 6.152-104.56 5.982-153.16 25.12a200.39 200.39 0 0 0-8.226 3.452c-49.496 22.083-92.426 66.85-121.42 157.52-0.76 2.41-0.487 5.206-0.02 8.104 1.715 0.574 14.036 4.287 16.406 4.986 0.326 0.042 0.518 0.045 0.534-3e-3 26.837-88.242 63.988-128.6 107.39-149.71a176.13 176.13 0 0 1 9.116-4.13c45.255-19.022 98.334-18.947 153.52-25.602 1.047-0.126 2.095-0.255 3.143-0.387 56.458-7.074 115.32-22.567 166.93-75.899a269.08 269.08 0 0 0 3.107-3.26c50.265-53.592 93.143-142.72 123.78-293.74 0.463-2.332-0.046-4.895-0.762-7.521-1.794-0.391-17.47-3.46-17.47-3.46" fill="#dfad66" opacity=".956" overflow="visible" solid-color="#000000" style="isolation:auto;mix-blend-mode:normal;text-decoration-color:#000000;text-decoration-line:none;text-decoration-style:solid;text-indent:0;text-transform:none;white-space:normal"/><path d="m412.47 256.36c-28.486 143.49-67.803 228.59-111.67 279.77a252.48 252.48 0 0 1-13.606 14.68c-43.001 43-90.013 57.792-138.79 65.125a555.97 555.97 0 0 1-17.443 2.33c-51.325 6.09-103.91 5.942-152.22 24.964a199.2 199.2 0 0 0-8.177 3.43c-49.214 21.958-91.904 66.457-120.72 156.52-0.742 2.355-0.4 5.11 0.143 7.97 1.802 0.602 13.989 4.28 16.303 4.963 0.32 0.038 0.509 0.037 0.526-0.014 26.71-87.67 63.683-127.72 106.89-148.65a175.28 175.28 0 0 1 9.064-4.091c44.983-18.842 97.74-18.77 152.6-25.377 1.04-0.125 2.082-0.253 3.124-0.384 56.124-7.025 114.64-22.407 165.96-75.328a267.34 267.34 0 0 0 3.092-3.237c50.035-53.231 92.709-141.78 123.19-291.84 0.452-2.278-0.116-4.796-0.902-7.38-1.883-0.41-17.36-3.444-17.36-3.444" fill="#e0b36b" opacity=".959" overflow="visible" solid-color="#000000" style="isolation:auto;mix-blend-mode:normal;text-decoration-color:#000000;text-decoration-line:none;text-decoration-style:solid;text-indent:0;text-transform:none;white-space:normal"/><path d="m400.16 251.26c-28.367 142.64-67.531 227.14-111.21 277.91a250.46 250.46 0 0 1-13.549 14.563c-42.77 42.605-89.526 57.238-138.04 64.498a555.61 555.61 0 0 1-17.336 2.306c-51.008 6.026-103.26 5.902-151.27 24.807a198.01 198.01 0 0 0-8.126 3.409c-48.934 21.83-91.383 66.062-120.02 155.51-0.725 2.3-0.315 5.015 0.306 7.837 1.887 0.63 13.94 4.274 16.2 4.94 0.313 0.033 0.498 0.029 0.516-0.025 26.584-87.099 63.38-126.82 106.38-147.59a174.43 174.43 0 0 1 9.014-4.055c44.71-18.66 97.143-18.592 151.67-25.15a669.19 669.19 0 0 0 3.104-0.382c55.791-6.975 113.97-22.248 164.99-74.756a265.54 265.54 0 0 0 3.076-3.215c49.804-52.87 92.274-140.84 122.6-289.94 0.442-2.224-0.186-4.699-1.04-7.24-1.973-0.43-17.252-3.429-17.252-3.429" fill="#dfb462" opacity=".973" overflow="visible" solid-color="#000000" style="isolation:auto;mix-blend-mode:normal;text-decoration-color:#000000;text-decoration-line:none;text-decoration-style:solid;text-indent:0;text-transform:none;white-space:normal"/><path d="m387.85 246.16c-28.248 141.78-67.26 225.7-110.76 276.06a248.45 248.45 0 0 1-13.492 14.445c-42.538 42.21-89.039 56.684-137.3 63.87a555.32 555.32 0 0 1-17.23 2.282c-50.69 5.964-102.62 5.862-150.33 24.65a196.83 196.83 0 0 0-8.075 3.388c-48.653 21.705-90.862 65.668-119.33 154.51-0.708 2.242-0.229 4.917 0.469 7.702 1.973 0.66 13.892 4.267 16.096 4.917 0.307 0.029 0.49 0.02 0.508-0.035 26.457-86.528 63.074-125.94 105.88-146.53a173.58 173.58 0 0 1 8.963-4.017c44.436-18.48 96.546-18.414 150.74-24.926 1.028-0.123 2.056-0.249 3.085-0.378 55.459-6.926 113.29-22.089 164.02-74.185a263.73 263.73 0 0 0 3.06-3.191c49.573-52.511 91.84-139.9 122.01-288.05 0.43-2.17-0.256-4.6-1.18-7.1-2.062-0.449-17.143-3.412-17.143-3.412" fill="#dfaf70" opacity=".943" overflow="visible" solid-color="#000000" style="isolation:auto;mix-blend-mode:normal;text-decoration-color:#000000;text-decoration-line:none;text-decoration-style:solid;text-indent:0;text-transform:none;white-space:normal"/><path d="m375.54 241.05c-28.127 140.93-66.985 224.25-110.3 274.21a246.46 246.46 0 0 1-13.435 14.327c-42.306 41.815-88.551 56.131-136.55 63.244a555.03 555.03 0 0 1-17.122 2.258c-50.373 5.9-101.97 5.821-149.39 24.493-2.69 1.06-5.365 2.18-8.025 3.367-48.372 21.578-90.34 65.273-118.64 153.5-0.69 2.186-0.142 4.821 0.632 7.568 2.06 0.688 13.844 4.26 15.994 4.894 0.3 0.024 0.48 0.012 0.499-0.046 26.33-85.957 62.77-125.05 105.38-145.47 2.939-1.415 5.91-2.738 8.911-3.98 44.164-18.298 95.952-18.236 149.81-24.7 1.021-0.122 2.043-0.247 3.066-0.375 55.125-6.876 112.61-21.93 163.06-73.614a261.85 261.85 0 0 0 3.045-3.168c49.342-52.15 91.405-138.96 121.42-286.16 0.42-2.116-0.326-4.502-1.319-6.958-2.152-0.47-17.035-3.398-17.035-3.398" fill="#e2b075" opacity=".961" overflow="visible" solid-color="#000000" style="isolation:auto;mix-blend-mode:normal;text-decoration-color:#000000;text-decoration-line:none;text-decoration-style:solid;text-indent:0;text-transform:none;white-space:normal"/><path d="m363.23 235.95c-28.008 140.07-66.713 222.8-109.85 272.36a244.46 244.46 0 0 1-13.378 14.209c-42.075 41.42-88.064 55.577-135.8 62.617-5.65 0.837-11.324 1.57-17.015 2.233-50.056 5.838-101.33 5.782-148.45 24.337a194.46 194.46 0 0 0-7.974 3.345c-48.092 21.452-89.82 64.879-117.94 152.49-0.673 2.131-0.057 4.726 0.795 7.435 2.145 0.717 13.796 4.253 15.89 4.87 0.295 0.02 0.47 5e-3 0.49-0.056 26.204-85.385 62.465-124.16 104.88-144.41a171.91 171.91 0 0 1 8.86-3.942c43.891-18.117 95.357-18.058 148.88-24.474 1.015-0.122 2.03-0.246 3.047-0.373 54.792-6.827 111.94-21.77 162.09-73.043a260.2 260.2 0 0 0 3.028-3.144c49.112-51.79 90.971-138.02 120.83-284.26 0.409-2.062-0.396-4.404-1.458-6.818-2.242-0.489-16.926-3.382-16.926-3.382" fill="#dfba6a" opacity=".966" overflow="visible" solid-color="#000000" style="isolation:auto;mix-blend-mode:normal;text-decoration-color:#000000;text-decoration-line:none;text-decoration-style:solid;text-indent:0;text-transform:none;white-space:normal"/><path d="m350.92 230.85c-27.888 139.22-66.44 221.35-109.4 270.5a242.47 242.47 0 0 1-13.321 14.091c-41.843 41.026-87.577 55.024-135.05 61.99a554.61 554.61 0 0 1-16.909 2.21c-49.739 5.774-100.68 5.741-147.5 24.18a193.29 193.29 0 0 0-7.923 3.323c-47.811 21.326-89.299 64.485-117.25 151.49-0.655 2.074 0.03 4.63 0.959 7.3 2.23 0.745 13.748 4.247 15.787 4.848 0.288 0.015 0.46-4e-3 0.481-0.067 26.077-84.814 62.16-123.27 104.38-143.35a171.08 171.08 0 0 1 8.81-3.904c43.618-17.937 94.76-17.88 147.95-24.25 1.008-0.12 2.018-0.243 3.028-0.369 54.458-6.777 111.26-21.61 161.12-72.472a258.4 258.4 0 0 0 3.013-3.12c48.88-51.43 90.536-137.08 120.24-282.37 0.398-2.007-0.465-4.304-1.596-6.676-2.332-0.508-16.818-3.366-16.818-3.366" fill="#e3b77e" opacity=".94" overflow="visible" solid-color="#000000" style="isolation:auto;mix-blend-mode:normal;text-decoration-color:#000000;text-decoration-line:none;text-decoration-style:solid;text-indent:0;text-transform:none;white-space:normal"/><path d="m338.61 225.74c-27.768 138.37-66.167 219.9-108.94 268.65a240.48 240.48 0 0 1-13.263 13.973c-41.611 40.63-87.09 54.47-134.3 61.364a554.44 554.44 0 0 1-16.803 2.184c-49.422 5.712-100.04 5.702-146.56 24.022a192.1 192.1 0 0 0-7.873 3.302c-47.53 21.2-88.777 64.091-116.55 150.48-0.638 2.019 0.115 4.534 1.122 7.167 2.316 0.774 13.7 4.24 15.683 4.825 0.282 0.01 0.45-0.012 0.473-0.078 25.95-84.243 61.856-122.38 103.87-142.28a170.24 170.24 0 0 1 8.76-3.867c43.345-17.755 94.165-17.702 147.02-24.023a647.35 647.35 0 0 0 3.008-0.367c54.126-6.727 110.59-21.451 160.15-71.9 1.002-1.019 2-2.051 2.997-3.098 48.65-51.07 90.103-136.14 119.65-280.47 0.387-1.953-0.536-4.207-1.736-6.536-2.421-0.528-16.709-3.35-16.709-3.35" fill="#e3bd7a" opacity=".99" overflow="visible" solid-color="#000000" style="isolation:auto;mix-blend-mode:normal;text-decoration-color:#000000;text-decoration-line:none;text-decoration-style:solid;text-indent:0;text-transform:none;white-space:normal"/><path d="m326.3 220.64c-27.648 137.51-65.894 218.45-108.49 266.8a238.49 238.49 0 0 1-13.207 13.856c-41.38 40.235-86.603 53.917-133.55 60.736a554.35 554.35 0 0 1-16.696 2.16c-49.104 5.65-99.387 5.662-145.62 23.867a190.93 190.93 0 0 0-7.822 3.28c-47.25 21.075-88.256 63.697-115.86 149.48-0.62 1.962 0.202 4.437 1.286 7.031 2.402 0.803 13.65 4.234 15.58 4.803 0.275 6e-3 0.44-0.02 0.463-0.089 25.824-83.67 61.552-121.49 103.37-141.22a169.42 169.42 0 0 1 8.708-3.83c43.072-17.574 93.57-17.525 146.09-23.798 0.996-0.119 1.992-0.24 2.99-0.364 53.792-6.678 109.91-21.292 159.18-71.33 0.997-1.01 1.99-2.035 2.981-3.074 48.42-50.71 89.669-135.2 119.06-278.58 0.376-1.899-0.606-4.108-1.875-6.395-2.511-0.547-16.6-3.335-16.6-3.335" fill="#e0bb73" opacity=".916" overflow="visible" solid-color="#000000" style="isolation:auto;mix-blend-mode:normal;text-decoration-color:#000000;text-decoration-line:none;text-decoration-style:solid;text-indent:0;text-transform:none;white-space:normal"/><path d="m313.98 215.54c-27.528 136.66-65.621 217-108.04 264.95a236.52 236.52 0 0 1-13.15 13.737c-41.147 39.84-86.115 53.364-132.8 60.11-5.51 0.8-11.04 1.5-16.59 2.136-48.786 5.586-98.74 5.622-144.68 23.71a189.74 189.74 0 0 0-7.772 3.26c-46.97 20.947-87.735 63.301-115.16 148.47-0.601 1.907 0.289 4.342 1.45 6.898 2.487 0.832 13.602 4.227 15.476 4.78 0.269 0 0.431-0.029 0.455-0.1 25.696-83.1 61.247-120.6 102.87-140.16a168.59 168.59 0 0 1 8.658-3.792c42.799-17.394 92.973-17.347 145.16-23.573 0.989-0.118 1.979-0.238 2.97-0.36 53.46-6.63 109.24-21.133 158.22-70.76 0.99-1.002 1.98-2.02 2.965-3.05 48.189-50.35 89.234-134.27 118.47-276.68 0.366-1.844-0.675-4.01-2.013-6.254-2.601-0.567-16.493-3.32-16.493-3.32" fill="#e2be79" opacity=".992" overflow="visible" solid-color="#000000" style="isolation:auto;mix-blend-mode:normal;text-decoration-color:#000000;text-decoration-line:none;text-decoration-style:solid;text-indent:0;text-transform:none;white-space:normal"/><path d="m301.67 210.43c-27.409 135.81-65.35 215.55-107.58 263.1a234.54 234.54 0 0 1-13.093 13.62c-40.915 39.446-85.627 52.81-132.05 59.483-5.474 0.79-10.97 1.483-16.483 2.111-48.469 5.523-98.094 5.582-143.73 23.553a188.56 188.56 0 0 0-7.722 3.238c-46.688 20.822-87.213 62.908-114.47 147.47-0.583 1.85 0.375 4.246 1.613 6.764 2.574 0.86 13.555 4.22 15.373 4.756 0.263-3e-3 0.422-0.036 0.447-0.11 25.57-82.528 60.942-119.71 102.37-139.1a167.77 167.77 0 0 1 8.606-3.755c42.526-17.212 92.378-17.169 144.24-23.346a635.69 635.69 0 0 0 2.95-0.359c53.128-6.579 108.56-20.973 157.25-70.187 0.986-0.995 1.97-2.004 2.95-3.028 47.958-49.99 88.799-133.33 117.88-274.79 0.355-1.79-0.745-3.91-2.153-6.113-2.69-0.587-16.383-3.304-16.383-3.304" fill="#e3c27c" overflow="visible" solid-color="#000000" style="isolation:auto;mix-blend-mode:normal;text-decoration-color:#000000;text-decoration-line:none;text-decoration-style:solid;text-indent:0;text-transform:none;white-space:normal"/><path d="m289.36 205.33c-27.289 134.95-65.076 214.1-107.13 261.24a232.58 232.58 0 0 1-13.036 13.501c-40.684 39.051-85.14 52.257-131.3 58.857a554.32 554.32 0 0 1-16.376 2.086c-48.152 5.46-97.448 5.543-142.79 23.397a187.38 187.38 0 0 0-7.67 3.217c-46.408 20.695-86.693 62.513-113.77 146.46-0.566 1.794 0.46 4.15 1.776 6.63 2.66 0.889 13.507 4.214 15.27 4.733 0.256-8e-3 0.412-0.044 0.437-0.12 25.443-81.957 60.638-118.82 101.86-138.04a166.95 166.95 0 0 1 8.556-3.717c42.253-17.031 91.782-16.992 143.31-23.121 0.976-0.116 1.953-0.235 2.931-0.356 52.794-6.53 107.88-20.814 156.28-69.616 0.98-0.988 1.959-1.989 2.934-3.004 47.727-49.63 88.365-132.39 117.29-272.89 0.344-1.736-0.815-3.813-2.292-5.973-2.78-0.606-16.275-3.289-16.275-3.289" fill="#e6c58b" opacity=".999" overflow="visible" solid-color="#000000" style="isolation:auto;mix-blend-mode:normal;text-decoration-color:#000000;text-decoration-line:none;text-decoration-style:solid;text-indent:0;text-transform:none;white-space:normal"/><path d="m277.05 200.23c-27.169 134.1-64.803 212.65-106.68 259.39a230.62 230.62 0 0 1-12.979 13.384c-40.452 38.656-84.653 51.703-130.56 58.23a554.39 554.39 0 0 1-16.27 2.062c-47.834 5.397-96.801 5.502-141.85 23.24a186.2 186.2 0 0 0-7.62 3.195c-46.127 20.57-86.171 62.12-113.08 145.46-0.548 1.738 0.547 4.054 1.94 6.496 2.745 0.918 13.458 4.207 15.166 4.71 0.25-0.012 0.403-0.053 0.429-0.13 25.316-81.386 60.333-117.93 101.36-136.98a166.13 166.13 0 0 1 8.504-3.68c41.98-16.85 91.187-16.813 142.38-22.895 0.97-0.115 1.94-0.233 2.912-0.353 52.46-6.48 107.21-20.654 155.31-69.045 0.976-0.98 1.948-1.973 2.918-2.98 47.497-49.27 87.931-131.45 116.7-271 0.334-1.682-0.885-3.715-2.43-5.832-2.87-0.626-16.167-3.273-16.167-3.273" fill="#e6c88d" opacity=".996" overflow="visible" solid-color="#000000" style="isolation:auto;mix-blend-mode:normal;text-decoration-color:#000000;text-decoration-line:none;text-decoration-style:solid;text-indent:0;text-transform:none;white-space:normal"/><path d="m264.74 195.12c-27.049 133.24-64.53 211.2-106.22 257.54a228.66 228.66 0 0 1-12.922 13.266c-40.22 38.262-84.166 51.15-129.81 57.603a554.57 554.57 0 0 1-16.162 2.038c-47.517 5.335-96.155 5.463-140.91 23.083-2.538 1-5.061 2.056-7.57 3.174-45.846 20.444-85.65 61.725-112.38 144.45-0.531 1.682 0.633 3.957 2.102 6.362 2.831 0.946 13.41 4.2 15.064 4.687 0.243-0.016 0.393-0.06 0.42-0.141 25.19-80.815 60.028-117.04 100.86-135.92a165.32 165.32 0 0 1 8.453-3.642c41.707-16.67 90.591-16.636 141.45-22.67 0.964-0.114 1.928-0.23 2.893-0.35 52.127-6.43 106.53-20.495 154.34-68.474a245.91 245.91 0 0 0 2.902-2.957c47.266-48.909 87.496-130.51 116.11-269.1 0.323-1.627-0.955-3.616-2.57-5.691-2.96-0.645-16.058-3.257-16.058-3.257" fill="#e6c98b" opacity=".994" overflow="visible" solid-color="#000000" style="isolation:auto;mix-blend-mode:normal;text-decoration-color:#000000;text-decoration-line:none;text-decoration-style:solid;text-indent:0;text-transform:none;white-space:normal"/><path d="m252.43 190.02c-26.929 132.39-64.257 209.75-105.77 255.69a226.71 226.71 0 0 1-12.865 13.148c-39.989 37.866-83.679 50.596-129.06 56.976a554.71 554.71 0 0 1-16.055 2.014c-47.2 5.271-95.51 5.422-139.96 22.925a183.83 183.83 0 0 0-7.519 3.154c-45.565 20.317-85.128 61.33-111.69 143.45-0.513 1.626 0.72 3.861 2.266 6.228 2.917 0.975 13.362 4.193 14.96 4.664 0.237-0.021 0.383-0.07 0.411-0.152 25.063-80.243 59.724-116.15 100.36-134.86a164.51 164.51 0 0 1 8.402-3.604c41.435-16.489 89.996-16.458 140.52-22.445 0.957-0.113 1.915-0.229 2.873-0.347 51.795-6.38 105.86-20.335 153.38-67.903 0.965-0.964 1.927-1.942 2.886-2.934 47.036-48.548 87.062-129.57 115.52-267.21 0.312-1.573-1.025-3.518-2.71-5.55-3.049-0.665-15.949-3.242-15.949-3.242" fill="#e6c78b" opacity=".994" overflow="visible" solid-color="#000000" style="isolation:auto;mix-blend-mode:normal;text-decoration-color:#000000;text-decoration-line:none;text-decoration-style:solid;text-indent:0;text-transform:none;white-space:normal"/><path d="m240.12 184.92c-26.81 131.54-63.985 208.3-105.32 253.84a224.77 224.77 0 0 1-12.808 13.03c-39.757 37.47-83.192 50.041-128.31 56.348a554.94 554.94 0 0 1-15.949 1.989c-46.882 5.208-94.862 5.383-139.02 22.77a182.64 182.64 0 0 0-7.47 3.131c-45.284 20.191-84.606 60.937-110.99 142.44-0.495 1.57 0.806 3.765 2.43 6.094 3.003 1.003 13.314 4.187 14.857 4.641 0.23-0.026 0.373-0.077 0.402-0.163 24.936-79.671 59.419-115.26 99.855-133.8a163.69 163.69 0 0 1 8.352-3.567c41.161-16.307 89.4-16.28 139.59-22.218 0.951-0.113 1.903-0.228 2.855-0.345 51.461-6.331 105.18-20.176 152.41-67.332 0.96-0.956 1.917-1.926 2.87-2.91 46.806-48.189 86.629-128.63 114.93-265.31 0.301-1.518-1.094-3.419-2.848-5.41-3.139-0.683-15.84-3.225-15.84-3.225" fill="#e7cf90" opacity=".998" overflow="visible" solid-color="#000000" style="isolation:auto;mix-blend-mode:normal;text-decoration-color:#000000;text-decoration-line:none;text-decoration-style:solid;text-indent:0;text-transform:none;white-space:normal"/><path d="m227.81 179.81c-26.69 130.69-63.712 206.86-104.86 251.98a222.84 222.84 0 0 1-12.752 12.912c-39.525 37.077-82.704 49.489-127.56 55.723a555.27 555.27 0 0 1-15.842 1.964c-46.565 5.146-94.216 5.343-138.08 22.613a181.47 181.47 0 0 0-7.417 3.11c-45.004 20.065-84.086 60.543-110.3 141.44-0.477 1.514 0.893 3.67 2.594 5.96 3.088 1.032 13.265 4.18 14.753 4.618 0.224-0.03 0.364-0.086 0.393-0.173 24.81-79.1 59.115-114.37 99.354-132.74a162.91 162.91 0 0 1 8.3-3.53c40.89-16.125 88.805-16.101 138.66-21.992 0.944-0.112 1.89-0.226 2.835-0.342 51.128-6.282 104.5-20.017 151.44-66.76a240.62 240.62 0 0 0 2.854-2.888c46.574-47.828 86.194-127.69 114.34-263.42 0.29-1.465-1.164-3.321-2.987-5.27-3.229-0.703-15.732-3.21-15.732-3.21" fill="#e6cd8b" opacity=".998" overflow="visible" solid-color="#000000" style="isolation:auto;mix-blend-mode:normal;text-decoration-color:#000000;text-decoration-line:none;text-decoration-style:solid;text-indent:0;text-transform:none;white-space:normal"/><path d="m215.5 174.71c-26.57 129.83-63.44 205.41-104.41 250.13a220.9 220.9 0 0 1-12.694 12.793c-39.294 36.683-82.217 48.936-126.81 55.096a555.66 555.66 0 0 1-15.737 1.94c-46.247 5.083-93.57 5.303-137.14 22.456-2.47 0.973-4.926 2.002-7.367 3.09-44.723 19.939-83.564 60.148-109.6 140.43-0.46 1.458 0.978 3.573 2.757 5.826 3.174 1.06 13.217 4.173 14.65 4.595 0.218-0.035 0.354-0.094 0.384-0.184 24.683-78.53 58.81-113.48 98.851-131.68 2.72-1.243 5.47-2.404 8.25-3.493 40.616-15.945 88.209-15.924 137.73-21.767 0.937-0.11 1.876-0.224 2.815-0.339 50.796-6.232 103.83-19.857 150.47-66.19 0.95-0.94 1.896-1.895 2.84-2.863 46.343-47.468 85.759-126.75 113.75-261.52 0.28-1.41-1.235-3.223-3.126-5.128-3.319-0.723-15.624-3.195-15.624-3.195" fill="#e6c78b" opacity=".979" overflow="visible" solid-color="#000000" style="isolation:auto;mix-blend-mode:normal;text-decoration-color:#000000;text-decoration-line:none;text-decoration-style:solid;text-indent:0;text-transform:none;white-space:normal"/><path d="m203.19 169.61c-26.45 128.98-63.166 203.96-103.95 248.28a218.98 218.98 0 0 1-12.637 12.676c-39.062 36.287-81.73 48.382-126.06 54.47a556.07 556.07 0 0 1-15.63 1.915c-45.93 5.02-92.922 5.263-136.19 22.299a179.12 179.12 0 0 0-7.317 3.068c-44.443 19.813-83.043 59.754-108.91 139.42-0.442 1.402 1.065 3.477 2.92 5.692 3.26 1.09 13.17 4.166 14.547 4.572 0.212-0.04 0.345-0.102 0.376-0.195 24.556-77.957 58.505-112.59 98.349-130.62a161.31 161.31 0 0 1 8.198-3.455c40.343-15.764 87.614-15.746 136.8-21.542 0.932-0.11 1.864-0.222 2.797-0.336 50.462-6.183 103.15-19.698 149.5-65.618 0.944-0.934 1.885-1.88 2.823-2.84 46.113-47.108 85.325-125.82 113.16-259.63 0.27-1.356-1.304-3.124-3.265-4.987-3.408-0.743-15.515-3.18-15.515-3.18" fill="#e6cc8d" opacity=".972" overflow="visible" solid-color="#000000" style="isolation:auto;mix-blend-mode:normal;text-decoration-color:#000000;text-decoration-line:none;text-decoration-style:solid;text-indent:0;text-transform:none;white-space:normal"/><path d="m190.88 164.5c-26.33 128.12-62.893 202.51-103.5 246.43a217.06 217.06 0 0 1-12.58 12.557c-38.83 35.893-81.243 47.829-125.31 53.843a556.59 556.59 0 0 1-15.523 1.891c-45.612 4.957-92.276 5.223-135.25 22.143-2.437 0.959-4.86 1.973-7.266 3.046-44.162 19.687-82.523 59.36-108.22 138.42-0.425 1.345 1.15 3.38 3.083 5.558 3.346 1.118 13.121 4.16 14.444 4.55 0.205-0.045 0.334-0.111 0.366-0.206 24.43-77.387 58.201-111.71 97.847-129.56a160.53 160.53 0 0 1 8.148-3.417c40.07-15.583 87.017-15.569 135.88-21.317 0.925-0.108 1.85-0.22 2.777-0.333 50.13-6.133 102.48-19.539 148.54-65.047 0.939-0.926 1.875-1.865 2.808-2.817 45.882-46.748 84.89-124.88 112.57-257.74 0.258-1.301-1.374-3.025-3.404-4.846-3.498-0.763-15.407-3.164-15.407-3.164" fill="#eacf9f" opacity=".973" overflow="visible" solid-color="#000000" style="isolation:auto;mix-blend-mode:normal;text-decoration-color:#000000;text-decoration-line:none;text-decoration-style:solid;text-indent:0;text-transform:none;white-space:normal"/><path d="m178.57 159.4c-26.21 127.27-62.621 201.06-103.05 244.58a215.15 215.15 0 0 1-12.523 12.44c-38.599 35.498-80.757 47.275-124.56 53.215-5.12 0.698-10.26 1.31-15.416 1.867-45.295 4.894-91.63 5.183-134.31 21.985-2.42 0.953-4.825 1.96-7.216 3.026-43.88 19.56-82 58.965-107.52 137.41-0.406 1.29 1.237 3.285 3.247 5.423 3.431 1.147 13.073 4.154 14.34 4.527 0.199-0.049 0.325-0.119 0.358-0.216 24.302-76.815 57.896-110.82 97.345-128.49a159.74 159.74 0 0 1 8.096-3.38c39.798-15.402 86.422-15.39 134.95-21.09 0.918-0.108 1.837-0.218 2.757-0.33 49.796-6.085 101.8-19.38 147.57-64.477a233.53 233.53 0 0 0 2.792-2.793c45.651-46.388 84.456-123.94 111.98-255.84 0.248-1.248-1.443-2.928-3.543-4.707-3.587-0.781-15.297-3.147-15.297-3.147" fill="#e9cf98" opacity=".959" overflow="visible" solid-color="#000000" style="isolation:auto;mix-blend-mode:normal;text-decoration-color:#000000;text-decoration-line:none;text-decoration-style:solid;text-indent:0;text-transform:none;white-space:normal"/><path d="m166.26 154.3c-26.09 126.42-62.348 199.61-102.59 242.72a213.24 213.24 0 0 1-12.466 12.321c-38.367 35.103-80.269 46.722-123.82 52.59a557.85 557.85 0 0 1-15.31 1.842c-44.978 4.831-90.984 5.143-133.36 21.829a175.56 175.56 0 0 0-7.165 3.004c-43.6 19.434-81.48 58.571-106.82 136.41-0.39 1.233 1.323 3.189 3.41 5.29 3.517 1.175 13.024 4.146 14.237 4.503 0.192-0.053 0.315-0.127 0.349-0.227 24.175-76.244 57.591-109.93 96.842-127.43 2.652-1.19 5.334-2.3 8.046-3.342 39.524-15.221 85.826-15.213 134.02-20.865 0.912-0.107 1.825-0.216 2.739-0.328 49.463-6.034 101.13-19.22 146.6-63.905 0.929-0.91 1.854-1.834 2.777-2.77 45.42-46.027 84.021-123 111.39-253.94 0.237-1.194-1.513-2.83-3.682-4.566-3.677-0.8-15.19-3.132-15.19-3.132" fill="#e7d394" opacity=".99" overflow="visible" solid-color="#000000" style="isolation:auto;mix-blend-mode:normal;text-decoration-color:#000000;text-decoration-line:none;text-decoration-style:solid;text-indent:0;text-transform:none;white-space:normal"/><path d="m153.94 149.19c-25.97 125.56-62.074 198.16-102.14 240.87a211.34 211.34 0 0 1-12.41 12.204c-38.134 34.708-79.78 46.168-123.06 51.962-5.05 0.68-10.12 1.276-15.203 1.819-44.66 4.768-90.338 5.103-132.42 21.671a174.37 174.37 0 0 0-7.114 2.983c-43.32 19.308-80.959 58.177-106.13 135.4-0.372 1.177 1.408 3.093 3.573 5.155 3.603 1.205 12.976 4.14 14.133 4.481 0.186-0.058 0.306-0.135 0.34-0.237 24.05-75.673 57.287-109.04 96.34-126.37a158.19 158.19 0 0 1 7.995-3.305c39.252-15.04 85.231-15.035 133.09-20.64a586.23 586.23 0 0 0 2.72-0.324c49.129-5.985 100.45-19.06 145.63-63.334 0.922-0.902 1.843-1.818 2.76-2.746 45.19-45.668 83.587-122.06 110.8-252.05 0.226-1.14-1.584-2.732-3.821-4.426-3.767-0.82-15.08-3.116-15.08-3.116" fill="#ecd5a9" opacity=".977" overflow="visible" solid-color="#000000" style="isolation:auto;mix-blend-mode:normal;text-decoration-color:#000000;text-decoration-line:none;text-decoration-style:solid;text-indent:0;text-transform:none;white-space:normal"/><path d="m141.63 144.09c-25.85 124.71-61.802 196.71-101.68 239.02a209.44 209.44 0 0 1-12.352 12.086c-37.904 34.314-79.294 45.615-122.32 51.336a559.34 559.34 0 0 1-15.095 1.794c-44.344 4.705-89.692 5.063-131.48 21.515a173.2 173.2 0 0 0-7.065 2.962c-43.039 19.182-80.437 57.782-105.44 134.4-0.354 1.121 1.495 2.996 3.736 5.021 3.69 1.233 12.929 4.133 14.03 4.458 0.18-0.062 0.297-0.143 0.332-0.248 23.922-75.101 56.982-108.15 95.838-125.31a157.41 157.41 0 0 1 7.944-3.267c38.978-14.859 84.635-14.857 132.16-20.414 0.899-0.105 1.799-0.212 2.7-0.322 48.796-5.935 99.775-18.901 144.66-62.763 0.917-0.895 1.832-1.802 2.745-2.723 44.959-45.307 83.152-121.12 110.21-250.16 0.216-1.085-1.653-2.632-3.96-4.284-3.856-0.84-14.972-3.1-14.972-3.1" fill="#ead39b" opacity=".966" overflow="visible" solid-color="#000000" style="isolation:auto;mix-blend-mode:normal;text-decoration-color:#000000;text-decoration-line:none;text-decoration-style:solid;text-indent:0;text-transform:none;white-space:normal"/><g fill="#ebdca6"><path d="m129.32 138.98c-25.73 123.86-61.53 195.26-101.23 237.17a207.56 207.56 0 0 1-12.295 11.968c-37.672 33.919-78.807 45.061-121.57 50.709-4.979 0.66-9.977 1.24-14.989 1.77-44.026 4.642-89.045 5.023-130.54 21.358-2.352 0.926-4.69 1.905-7.013 2.94-42.758 19.056-79.916 57.388-104.74 133.39-0.336 1.065 1.581 2.9 3.9 4.887 3.775 1.262 12.88 4.126 13.927 4.435 0.173-0.067 0.287-0.151 0.323-0.259 23.795-74.53 56.677-107.26 95.336-124.25a156.64 156.64 0 0 1 7.892-3.23c38.706-14.678 84.04-14.68 131.23-20.189 0.894-0.104 1.787-0.21 2.682-0.319 48.464-5.886 99.1-18.742 143.69-62.191 0.912-0.888 1.822-1.788 2.73-2.7 44.727-44.947 82.718-120.18 109.62-248.26 0.205-1.03-1.723-2.533-4.099-4.143-3.946-0.86-14.864-3.085-14.864-3.085" opacity=".97" overflow="visible" solid-color="#000000" style="isolation:auto;mix-blend-mode:normal;text-decoration-color:#000000;text-decoration-line:none;text-decoration-style:solid;text-indent:0;text-transform:none;white-space:normal"/><path d="m117.01 133.88c-25.612 123-61.257 193.81-100.78 235.32a205.68 205.68 0 0 1-12.239 11.85c-37.44 33.523-78.319 44.507-120.82 50.082a561.21 561.21 0 0 1-14.882 1.745c-43.709 4.58-88.399 4.983-129.6 21.201-2.335 0.92-4.656 1.891-6.962 2.92-42.478 18.929-79.395 56.993-104.05 132.39-0.318 1.01 1.668 2.805 4.064 4.754 3.86 1.29 12.832 4.12 13.824 4.412 0.166-0.072 0.276-0.16 0.313-0.27 23.669-73.958 56.373-106.37 94.834-123.19a155.88 155.88 0 0 1 7.842-3.192c38.433-14.496 83.443-14.501 130.3-19.963 0.886-0.103 1.773-0.208 2.661-0.316 48.13-5.836 98.424-18.582 142.73-61.62 0.907-0.88 1.812-1.772 2.714-2.677 44.497-44.587 82.284-119.24 109.04-246.37 0.193-0.977-1.793-2.436-4.238-4.003-4.036-0.879-14.755-3.07-14.755-3.07" opacity=".944" overflow="visible" solid-color="#000000" style="isolation:auto;mix-blend-mode:normal;text-decoration-color:#000000;text-decoration-line:none;text-decoration-style:solid;text-indent:0;text-transform:none;white-space:normal"/><path d="m104.7 128.78c-25.49 122.15-60.982 192.36-100.32 233.46a203.8 203.8 0 0 1-12.182 11.732c-37.208 33.129-77.832 43.954-120.07 49.456a562.31 562.31 0 0 1-14.776 1.72c-43.39 4.517-87.752 4.944-128.65 21.045a169.67 169.67 0 0 0-6.912 2.898c-42.196 18.803-78.873 56.6-103.35 131.38-0.3 0.954 1.753 2.71 4.227 4.62 3.946 1.319 12.783 4.113 13.72 4.389 0.16-0.076 0.267-0.168 0.305-0.28 23.542-73.387 56.068-105.48 94.332-122.13a155.13 155.13 0 0 1 7.79-3.154c38.16-14.316 82.849-14.324 129.37-19.737 0.88-0.103 1.761-0.207 2.643-0.314 47.797-5.787 97.747-18.423 141.76-61.05 0.901-0.871 1.8-1.755 2.697-2.652 44.267-44.227 81.85-118.3 108.44-244.47 0.183-0.922-1.862-2.337-4.377-3.862-4.125-0.899-14.646-3.054-14.646-3.054" opacity=".965" overflow="visible" solid-color="#000000" style="isolation:auto;mix-blend-mode:normal;text-decoration-color:#000000;text-decoration-line:none;text-decoration-style:solid;text-indent:0;text-transform:none;white-space:normal"/></g><path d="m92.39 123.68c-25.372 121.3-60.71 190.92-99.87 231.61a201.94 201.94 0 0 1-12.123 11.613c-36.976 32.735-77.345 43.401-119.32 48.83-4.873 0.632-9.764 1.188-14.669 1.695-43.074 4.454-87.106 4.904-127.71 20.888a168.48 168.48 0 0 0-6.862 2.877c-41.916 18.677-78.352 56.205-102.66 130.38-0.283 0.898 1.84 2.613 4.39 4.486 4.032 1.347 12.736 4.106 13.618 4.366 0.153-0.08 0.257-0.176 0.296-0.29 23.415-72.817 55.764-104.59 93.829-121.07 2.55-1.109 5.13-2.146 7.74-3.117 37.887-14.134 82.253-14.145 128.44-19.511 0.873-0.102 1.748-0.205 2.623-0.311 47.464-5.737 97.072-18.264 140.79-60.478 0.896-0.864 1.79-1.74 2.682-2.63 44.036-43.866 81.415-117.36 107.86-242.58 0.172-0.868-1.933-2.239-4.516-3.72-4.215-0.92-14.538-3.04-14.538-3.04" fill="#ecd5a9" opacity=".942" overflow="visible" solid-color="#000000" style="isolation:auto;mix-blend-mode:normal;text-decoration-color:#000000;text-decoration-line:none;text-decoration-style:solid;text-indent:0;text-transform:none;white-space:normal"/><path d="m80.08 118.57c-25.253 120.44-60.44 189.47-99.416 229.76a200.07 200.07 0 0 1-12.068 11.496c-36.744 32.34-76.857 42.847-118.57 48.202a564.75 564.75 0 0 1-14.562 1.672c-42.757 4.39-86.46 4.863-126.77 20.731-2.285 0.9-4.555 1.85-6.811 2.855-41.636 18.552-77.831 55.811-101.96 129.37-0.266 0.841 1.926 2.517 4.553 4.352 4.118 1.376 12.688 4.1 13.514 4.343 0.148-0.085 0.248-0.184 0.287-0.301 23.289-72.245 55.46-103.7 93.328-120.01a153.62 153.62 0 0 1 7.688-3.08c37.614-13.954 81.658-13.968 127.52-19.286 0.868-0.1 1.736-0.203 2.604-0.308 47.132-5.688 96.397-18.104 139.82-59.907 0.891-0.856 1.78-1.725 2.666-2.606 43.805-43.507 80.982-116.42 107.27-240.68 0.161-0.813-2.003-2.14-4.655-3.58-4.305-0.938-14.43-3.023-14.43-3.023" fill="#efdfb8" opacity=".956" overflow="visible" solid-color="#000000" style="isolation:auto;mix-blend-mode:normal;text-decoration-color:#000000;text-decoration-line:none;text-decoration-style:solid;text-indent:0;text-transform:none;white-space:normal"/><path d="m67.769 113.47c-25.133 119.59-60.166 188.02-98.962 227.91a198.22 198.22 0 0 1-12.01 11.377c-36.514 31.945-76.371 42.294-117.82 47.576a566.15 566.15 0 0 1-14.456 1.647c-42.439 4.328-85.813 4.824-125.82 20.575a166.13 166.13 0 0 0-6.76 2.834c-41.355 18.425-77.31 55.417-101.27 128.36-0.248 0.785 2.012 2.42 4.717 4.218 4.203 1.405 12.64 4.092 13.41 4.32 0.142-0.09 0.239-0.193 0.279-0.312 23.162-71.673 55.155-102.81 92.825-118.95a152.89 152.89 0 0 1 7.638-3.043c37.341-13.772 81.061-13.79 126.59-19.06 0.86-0.1 1.722-0.201 2.585-0.305 46.798-5.638 95.72-17.945 138.85-59.336 0.886-0.849 1.77-1.71 2.65-2.583 43.575-43.146 80.547-115.48 106.68-238.79 0.15-0.76-2.072-2.042-4.794-3.44-4.394-0.957-14.32-3.007-14.32-3.007" fill="#edd8ac" opacity=".957" overflow="visible" solid-color="#000000" style="isolation:auto;mix-blend-mode:normal;text-decoration-color:#000000;text-decoration-line:none;text-decoration-style:solid;text-indent:0;text-transform:none;white-space:normal"/><path d="m55.458 108.36c-25.013 118.74-59.893 186.57-98.508 226.06a196.37 196.37 0 0 1-11.954 11.26c-36.281 31.55-75.883 41.74-117.07 46.949a567.67 567.67 0 0 1-14.35 1.622c-42.121 4.266-85.166 4.784-124.88 20.418a164.93 164.93 0 0 0-6.71 2.813c-41.074 18.299-76.788 55.023-100.57 127.36-0.23 0.73 2.099 2.325 4.88 4.084 4.29 1.433 12.592 4.086 13.308 4.297a0.672 0.672 0 0 0 0.27-0.323c23.035-71.102 54.85-101.92 92.322-117.89 2.5-1.07 5.03-2.07 7.587-3.005 37.069-13.592 80.466-13.612 125.66-18.835 0.854-0.098 1.71-0.2 2.565-0.302 46.465-5.588 95.045-17.785 137.89-58.765 0.88-0.84 1.758-1.694 2.634-2.56 43.344-42.784 80.113-114.54 106.09-236.89 0.14-0.705-2.142-1.944-4.933-3.299-4.484-0.977-14.212-2.992-14.212-2.992" fill="#efdfb8" opacity=".938" overflow="visible" solid-color="#000000" style="isolation:auto;mix-blend-mode:normal;text-decoration-color:#000000;text-decoration-line:none;text-decoration-style:solid;text-indent:0;text-transform:none;white-space:normal"/><path d="m43.147 103.26c-24.893 117.88-59.62 185.12-98.055 224.2a194.53 194.53 0 0 1-11.896 11.142c-36.05 31.155-75.396 41.186-116.32 46.321a569.27 569.27 0 0 1-14.243 1.599c-41.804 4.202-84.52 4.744-123.94 20.261a163.76 163.76 0 0 0-6.66 2.791c-40.792 18.173-76.266 54.629-99.877 126.36-0.212 0.673 2.184 2.229 5.044 3.95 4.375 1.462 12.542 4.079 13.204 4.274a0.726 0.726 0 0 0 0.26-0.333c22.909-70.531 54.546-101.03 91.82-116.83a151.42 151.42 0 0 1 7.537-2.967c36.795-13.411 79.87-13.435 124.73-18.61 0.848-0.097 1.697-0.197 2.546-0.3 46.133-5.538 94.37-17.625 136.92-58.192a214.31 214.31 0 0 0 2.619-2.537c43.113-42.425 79.677-113.61 105.5-235 0.129-0.65-2.212-1.845-5.073-3.158-4.573-0.996-14.103-2.976-14.103-2.976" fill="#efe1b6" opacity=".943" overflow="visible" solid-color="#000000" style="isolation:auto;mix-blend-mode:normal;text-decoration-color:#000000;text-decoration-line:none;text-decoration-style:solid;text-indent:0;text-transform:none;white-space:normal"/><path d="m30.836 98.158c-24.773 117.03-59.347 183.67-97.6 222.35a192.7 192.7 0 0 1-11.84 11.024c-35.818 30.76-74.909 40.633-115.58 45.695-4.696 0.587-9.41 1.103-14.135 1.574-41.487 4.14-83.874 4.704-123 20.105-2.217 0.872-4.42 1.795-6.609 2.77-40.512 18.046-75.746 54.234-99.183 125.35-0.194 0.616 2.27 2.131 5.207 3.814 4.461 1.491 12.495 4.073 13.101 4.252a0.793 0.793 0 0 0 0.252-0.344c22.781-69.96 54.24-100.14 91.318-115.76a150.71 150.71 0 0 1 7.486-2.93c36.522-13.23 79.274-13.256 123.8-18.383 0.841-0.097 1.684-0.196 2.527-0.297 45.799-5.49 93.693-17.467 135.95-57.622 0.87-0.826 1.737-1.664 2.602-2.513 42.884-42.066 79.244-112.67 104.91-233.1 0.119-0.596-2.282-1.747-5.21-3.017-4.664-1.016-13.996-2.96-13.996-2.96" fill="#eedfb1" opacity=".936" overflow="visible" solid-color="#000000" style="isolation:auto;mix-blend-mode:normal;text-decoration-color:#000000;text-decoration-line:none;text-decoration-style:solid;text-indent:0;text-transform:none;white-space:normal"/><path d="m18.525 93.054c-24.653 116.18-59.075 182.22-97.147 220.5a190.88 190.88 0 0 1-11.782 10.906c-35.586 30.365-74.422 40.08-114.83 45.068-4.66 0.578-9.338 1.085-14.029 1.55-41.17 4.076-83.227 4.664-122.06 19.947a161.39 161.39 0 0 0-6.558 2.749c-40.232 17.92-75.225 53.84-98.488 124.34-0.177 0.56 2.357 2.036 5.37 3.681 4.547 1.52 12.447 4.066 12.998 4.229a0.876 0.876 0 0 0 0.242-0.355c22.655-69.388 53.937-99.253 90.817-114.7a149.98 149.98 0 0 1 7.434-2.893c36.25-13.049 78.679-13.079 122.87-18.158a542.49 542.49 0 0 0 2.508-0.294c45.466-5.44 93.018-17.307 134.98-57.051a210.82 210.82 0 0 0 2.588-2.49c42.651-41.705 78.809-111.73 104.32-231.21 0.108-0.543-2.352-1.649-5.35-2.877-4.754-1.035-13.887-2.945-13.887-2.945" fill="#eddbac" opacity=".942" overflow="visible" solid-color="#000000" style="isolation:auto;mix-blend-mode:normal;text-decoration-color:#000000;text-decoration-line:none;text-decoration-style:solid;text-indent:0;text-transform:none;white-space:normal"/><path d="m6.215 87.95c-24.535 115.32-58.803 180.77-96.695 218.65a189.06 189.06 0 0 1-11.725 10.788c-35.354 29.97-73.934 39.526-114.08 44.442a574.96 574.96 0 0 1-13.922 1.525c-40.852 4.014-82.581 4.624-121.11 19.79-2.183 0.86-4.352 1.768-6.507 2.728-39.951 17.795-74.704 53.446-97.794 123.34-0.16 0.505 2.443 1.94 5.534 3.547 4.632 1.549 12.398 4.06 12.894 4.206a0.98 0.98 0 0 0 0.234-0.365c22.528-68.817 53.632-98.364 90.314-113.64a149.27 149.27 0 0 1 7.384-2.856c35.976-12.867 78.083-12.9 121.94-17.932 0.829-0.095 1.658-0.192 2.488-0.291 45.134-5.39 92.342-17.148 134.01-56.48 0.86-0.81 1.716-1.632 2.571-2.466 42.422-41.346 78.376-110.79 103.73-229.32 0.096-0.488-2.422-1.55-5.49-2.736-4.843-1.055-13.777-2.93-13.777-2.93" fill="#f0deb9" opacity=".86" overflow="visible" solid-color="#000000" style="isolation:auto;mix-blend-mode:normal;text-decoration-color:#000000;text-decoration-line:none;text-decoration-style:solid;text-indent:0;text-transform:none;white-space:normal"/><path d="m-6.096 82.847c-24.414 114.47-58.53 179.32-96.24 216.8a187.25 187.25 0 0 1-11.668 10.67c-35.123 29.575-73.447 38.972-113.33 43.815-4.59 0.559-9.197 1.05-13.815 1.5-40.535 3.951-81.935 4.585-120.17 19.634a159.02 159.02 0 0 0-6.458 2.707c-39.67 17.668-74.182 53.051-97.099 122.33-0.141 0.449 2.53 1.844 5.698 3.413 4.718 1.577 12.35 4.053 12.79 4.183 0.103-0.118 0.18-0.242 0.226-0.376 22.401-68.246 53.327-97.475 89.812-112.58 2.415-1.004 4.86-1.94 7.332-2.818 35.704-12.687 77.488-12.723 121.01-17.707 0.822-0.094 1.645-0.19 2.469-0.288 44.8-5.34 91.666-16.989 133.04-55.909a207.34 207.34 0 0 0 2.556-2.443c42.19-40.985 77.94-109.85 103.14-227.42 0.086-0.434-2.491-1.452-5.628-2.595-4.933-1.075-13.67-2.914-13.67-2.914" fill="#ecdaa9" opacity=".951" overflow="visible" solid-color="#000000" style="isolation:auto;mix-blend-mode:normal;text-decoration-color:#000000;text-decoration-line:none;text-decoration-style:solid;text-indent:0;text-transform:none;white-space:normal"/><path d="m-18.407 77.744c-24.294 113.62-58.257 177.87-95.786 214.94a185.45 185.45 0 0 1-11.611 10.552c-34.89 29.181-72.96 38.42-112.58 43.188-4.555 0.55-9.126 1.034-13.709 1.477-40.218 3.887-81.288 4.544-119.23 19.477-2.15 0.846-4.285 1.74-6.407 2.685-39.39 17.542-73.66 52.657-96.404 121.33-0.124 0.392 2.615 1.748 5.86 3.28a1340.5 1340.5 0 0 0 12.688 4.159c0.096-0.122 0.17-0.25 0.216-0.387 22.275-67.674 53.023-96.585 89.31-111.52 2.398-0.99 4.826-1.915 7.282-2.78 35.43-12.506 76.892-12.545 120.08-17.481 0.816-0.094 1.633-0.189 2.45-0.286 44.467-5.291 90.99-16.83 132.08-55.338 0.85-0.795 1.696-1.601 2.54-2.42 41.96-40.623 77.506-108.91 102.55-225.52 0.075-0.38-2.561-1.353-5.767-2.454-5.023-1.094-13.561-2.898-13.561-2.898" fill="#f1e2c0" opacity=".901" overflow="visible" solid-color="#000000" style="isolation:auto;mix-blend-mode:normal;text-decoration-color:#000000;text-decoration-line:none;text-decoration-style:solid;text-indent:0;text-transform:none;white-space:normal"/><path d="m-30.718 72.64c-24.174 112.76-57.984 176.43-95.332 213.09a183.66 183.66 0 0 1-11.554 10.434c-34.66 28.786-72.473 37.865-111.83 42.561-4.52 0.54-9.055 1.016-13.602 1.452-39.9 3.825-80.642 4.505-118.28 19.32-2.132 0.84-4.252 1.727-6.356 2.664-39.11 17.416-73.14 52.263-95.71 120.32-0.106 0.336 2.702 1.652 6.024 3.145 4.89 1.634 12.254 4.04 12.585 4.137 0.09-0.127 0.16-0.259 0.207-0.397 22.148-67.103 52.718-95.696 88.808-110.46 2.381-0.977 4.792-1.89 7.23-2.743 35.158-12.324 76.297-12.367 119.16-17.255 0.81-0.093 1.62-0.187 2.43-0.283 44.134-5.242 90.315-16.67 131.11-54.767 0.843-0.787 1.684-1.585 2.524-2.396 41.728-40.264 77.071-107.97 101.96-223.63 0.064-0.325-2.632-1.254-5.907-2.313-5.112-1.114-13.452-2.882-13.452-2.882" fill="#f1e1be" opacity=".874" overflow="visible" solid-color="#000000" style="isolation:auto;mix-blend-mode:normal;text-decoration-color:#000000;text-decoration-line:none;text-decoration-style:solid;text-indent:0;text-transform:none;white-space:normal"/><path d="m-43.029 67.537c-24.054 111.91-57.71 174.98-94.878 211.24a181.87 181.87 0 0 1-11.497 10.316c-34.428 28.391-71.986 37.313-111.08 41.935-4.484 0.531-8.984 0.999-13.496 1.427-39.583 3.762-79.996 4.465-117.34 19.164a155.49 155.49 0 0 0-6.306 2.643c-38.828 17.29-72.618 51.868-95.014 119.32-0.089 0.28 2.787 1.556 6.187 3.011a1706.1 1706.1 0 0 0 12.481 4.114c0.083-0.131 0.151-0.267 0.199-0.408 22.02-66.532 52.413-94.806 88.305-109.4a146.5 146.5 0 0 1 7.18-2.705c34.884-12.144 75.7-12.19 118.22-17.03 0.804-0.091 1.607-0.185 2.412-0.28 43.8-5.192 89.639-16.51 130.14-54.195 0.839-0.78 1.675-1.57 2.509-2.373 41.498-39.904 76.637-107.04 101.37-221.74 0.054-0.272-2.7-1.157-6.045-2.173-5.202-1.133-13.344-2.867-13.344-2.867" fill="#efe1b6" opacity=".882" overflow="visible" solid-color="#000000" style="isolation:auto;mix-blend-mode:normal;text-decoration-color:#000000;text-decoration-line:none;text-decoration-style:solid;text-indent:0;text-transform:none;white-space:normal"/><path d="m-55.34 62.434c-23.934 111.05-57.438 173.53-94.424 209.39a180.09 180.09 0 0 1-11.44 10.198c-34.196 27.996-71.499 36.759-110.33 41.308a587.56 587.56 0 0 1-13.39 1.403c-39.265 3.699-79.349 4.425-116.4 19.007a154.32 154.32 0 0 0-6.255 2.62c-38.547 17.165-72.097 51.475-94.32 118.31-0.07 0.224 2.874 1.46 6.35 2.877a2032.8 2032.8 0 0 0 12.379 4.09c0.077-0.135 0.141-0.274 0.19-0.418 21.894-65.96 52.108-93.917 87.803-108.34 2.347-0.95 4.724-1.837 7.128-2.668 34.612-11.962 75.105-12.011 117.3-16.804 0.797-0.09 1.594-0.183 2.392-0.277 43.468-5.143 88.963-16.351 129.17-53.624 0.833-0.772 1.664-1.555 2.492-2.35 41.268-39.544 76.203-106.1 100.78-219.84 0.043-0.217-2.77-1.058-6.184-2.032a4410.3 4410.3 0 0 0-13.235-2.851" fill="#f3e2c8" opacity=".882" overflow="visible" solid-color="#000000" style="isolation:auto;mix-blend-mode:normal;text-decoration-color:#000000;text-decoration-line:none;text-decoration-style:solid;text-indent:0;text-transform:none;white-space:normal"/><path d="m-67.65 57.33c-23.815 110.2-57.166 172.08-93.97 207.54a178.33 178.33 0 0 1-11.385 10.08c-33.963 27.602-71.01 36.206-109.58 40.681-4.414 0.513-8.843 0.965-13.283 1.38-38.948 3.635-78.703 4.384-115.46 18.85-2.081 0.819-4.15 1.685-6.204 2.6-38.267 17.037-71.576 51.08-93.626 117.31-0.053 0.168 2.96 1.364 6.515 2.743 5.147 1.72 12.109 4.019 12.274 4.067 0.07-0.14 0.132-0.282 0.18-0.428 21.769-65.39 51.805-93.028 87.302-107.28 2.33-0.937 4.69-1.812 7.078-2.63 34.339-11.781 74.51-11.834 116.37-16.579 0.79-0.09 1.58-0.18 2.372-0.274 43.135-5.093 88.288-16.192 128.2-53.053a198.75 198.75 0 0 0 2.477-2.326c41.037-39.184 75.768-105.16 100.19-217.95 0.033-0.163-2.84-0.96-6.323-1.89-5.38-1.173-13.126-2.837-13.126-2.837" fill="#f2e4c7" opacity=".865" overflow="visible" solid-color="#000000" style="isolation:auto;mix-blend-mode:normal;text-decoration-color:#000000;text-decoration-line:none;text-decoration-style:solid;text-indent:0;text-transform:none;white-space:normal"/><path d="m-79.961 52.227c-23.695 109.35-56.893 170.63-93.517 205.68a176.57 176.57 0 0 1-11.327 9.962c-33.732 27.207-70.523 35.652-108.84 40.054-4.377 0.504-8.771 0.947-13.175 1.355-38.63 3.573-78.057 4.344-114.52 18.693a151.94 151.94 0 0 0-6.154 2.579c-37.986 16.911-71.054 50.685-92.93 116.3-0.036 0.113 3.046 1.269 6.677 2.61 5.233 1.749 12.061 4.012 12.171 4.044a5.05 5.05 0 0 0 0.173-0.44c21.64-64.817 51.5-92.137 86.799-106.22a144.5 144.5 0 0 1 7.026-2.593c34.066-11.6 73.914-11.656 115.44-16.354 0.783-0.088 1.568-0.179 2.353-0.271 42.802-5.044 87.612-16.032 127.24-52.482 0.823-0.757 1.643-1.524 2.461-2.303 40.806-38.823 75.335-104.22 99.598-216.05 0.022-0.11-2.91-0.862-6.462-1.75-5.47-1.193-13.018-2.821-13.018-2.821" fill="#f1e5bc" opacity=".923" overflow="visible" solid-color="#000000" style="isolation:auto;mix-blend-mode:normal;text-decoration-color:#000000;text-decoration-line:none;text-decoration-style:solid;text-indent:0;text-transform:none;white-space:normal"/><path d="m-92.272 47.123c-23.575 108.49-56.62 169.18-93.063 203.83a174.82 174.82 0 0 1-11.27 9.844c-33.5 26.812-70.036 35.099-108.09 39.428-4.342 0.494-8.7 0.93-13.069 1.33-38.313 3.51-77.41 4.305-113.57 18.537a150.76 150.76 0 0 0-6.103 2.557c-37.705 16.785-70.533 50.292-92.236 115.3-0.017 0.056 3.133 1.171 6.841 2.475a7024.8 7024.8 0 0 0 12.068 4.021c0.058-0.149 0.113-0.299 0.163-0.45 21.515-64.246 51.195-91.248 86.297-105.16 2.297-0.91 4.622-1.76 6.976-2.556 33.793-11.42 73.318-11.478 114.51-16.127 0.777-0.088 1.555-0.178 2.334-0.27 42.469-4.993 86.936-15.872 126.27-51.91 0.817-0.749 1.632-1.508 2.445-2.279 40.575-38.464 74.9-103.28 99.008-214.16 0.01-0.055-2.98-0.763-6.602-1.61-5.56-1.211-12.909-2.805-12.909-2.805" fill="#efe0b8" opacity=".962" overflow="visible" solid-color="#000000" style="isolation:auto;mix-blend-mode:normal;text-decoration-color:#000000;text-decoration-line:none;text-decoration-style:solid;text-indent:0;text-transform:none;white-space:normal"/><path d="m-104.58 42.02c-23.455 107.64-56.347 167.73-92.609 201.98a173.08 173.08 0 0 1-11.213 9.727c-33.268 26.417-69.549 34.545-107.34 38.8-4.307 0.486-8.63 0.913-12.962 1.306-37.996 3.448-76.764 4.265-112.63 18.38-2.03 0.8-4.048 1.644-6.052 2.536-37.425 16.66-70.012 49.898-91.541 114.29a4160242 4160242 0 0 0 18.968 6.34l0.155-0.46c21.387-63.675 50.89-90.36 85.795-104.1a143.21 143.21 0 0 1 6.924-2.518c33.52-11.239 72.723-11.3 113.58-15.902 0.77-0.087 1.542-0.176 2.314-0.266 42.136-4.945 86.261-15.714 125.3-51.34 0.813-0.74 1.623-1.493 2.43-2.255 40.345-38.104 74.466-102.34 98.418-212.26l-6.74-1.469-12.8-2.789" fill="#f4e9cf" opacity=".941" overflow="visible" solid-color="#000000" style="isolation:auto;mix-blend-mode:normal;text-decoration-color:#000000;text-decoration-line:none;text-decoration-style:solid;text-indent:0;text-transform:none;white-space:normal"/></g></svg>
