<svg version="1.1" viewBox="0 0 1920 1080" xmlns="http://www.w3.org/2000/svg"><g fill-rule="evenodd"><path transform="matrix(1 0 0 .99999 -.013297 -.017092)" d="m-692.61 178.3c88.573 461.16 210.08 740.05 346.27 910.44a844.93 844.96 0 0 0 42.292 49.022c136.76 146.54 286.39 198.33 441.46 223.67a1627.5 1627.6 0 0 0 56.234 8.1256c165.68 21.171 335.64 19.371 491.43 80.727a640.03 640.05 0 0 1 26.393 11.08c157.45 70.302 293.84 213.53 386.58 507.51a1696.5 1696.5 0 0 1 9.3939 30.814 35512510 35513753 0 0 1-54.806 16.154c-83.916-284.76-200.22-418.25-335.5-488.36a553 553.02 0 0 0-28.956-13.94c-144.89-64.693-314.98-64.296-491.69-86.039-3.357-0.4142-6.7197-0.8342-10.08-1.2628-180.33-23.045-368.07-73.585-532.23-249.49a871.78 871.82 0 0 1-9.7766-10.651c-156.79-173.7-290.93-461.42-387.35-947.5-1.937-9.7656-3.857-19.608-5.7654-29.534l56.111-10.774" color="#000000" fill="#85745c" style="isolation:auto;mix-blend-mode:normal;text-decoration-color:#000000;text-decoration-line:none;text-decoration-style:solid;text-indent:0;text-transform:none;white-space:normal"/><path transform="matrix(1 0 0 .99999 -.013297 -.017092)" d="m-657.44 163.7c88.233 458.74 209.3 735.93 344.95 905.16a838.93 838.96 0 0 0 42.129 48.685c136.1 145.41 285.01 196.75 439.32 221.88a1625 1625 0 0 0 55.929 8.0513c164.77 20.991 333.81 19.257 488.75 80.282a636.63 636.65 0 0 1 26.247 11.017c156.65 69.942 292.36 212.4 384.58 504.62a886.21 886.24 0 0 1 8.931 30.428c-0.2457 0.086-42.721 12.614-52.483 15.491-1.2771 0.3714-2.0028 0.5772-2.0056 0.5714-83.553-283.13-199.35-415.71-334.07-485.34-9.5081-4.9142-19.113-9.5142-28.807-13.831-144.11-64.176-313.27-63.79-489.03-85.396-3.3398-0.4086-6.6797-0.8286-10.025-1.2571-179.38-22.9-366.15-73.128-529.46-247.85a866.56 866.59 0 0 1-9.731-10.588c-156.14-172.67-289.7-458.74-385.67-942.07-1.9056-9.6084-3.657-19.328-5.3683-29.131 0.25713-0.0571 55.803-10.731 55.803-10.731" color="#000000" fill="#887861" style="isolation:auto;mix-blend-mode:normal;text-decoration-color:#000000;text-decoration-line:none;text-decoration-style:solid;text-indent:0;text-transform:none;white-space:normal"/><path transform="matrix(1 0 0 .99999 -.013297 -.017092)" d="m-622.27 149.13c87.89 456.28 208.52 731.79 343.67 899.87a832.96 832.99 0 0 0 41.964 48.351c135.43 144.28 283.61 195.16 437.18 220.09a1622.6 1622.7 0 0 0 55.626 7.9856c163.86 20.811 331.95 19.143 486.03 79.833a633.28 633.3 0 0 1 26.102 10.954c155.85 69.582 290.87 211.27 382.61 501.76 3.0828 9.7713 5.8226 19.814 8.4625 30.048-0.4914 0.1629-42.581 12.594-52.186 15.423-1.2628 0.3572-1.977 0.5543-1.9827 0.54-83.19-281.5-198.48-413.17-332.64-482.28a547.92 547.93 0 0 0-28.664-13.723c-143.33-63.659-311.58-63.285-486.38-84.753-3.3227-0.4057-6.6454-0.8229-9.9709-1.2457-178.43-22.762-364.21-72.673-526.72-246.22a860.87 860.9 0 0 1-9.6852-10.52c-155.48-171.64-288.44-456.05-383.98-936.67-1.8742-9.4542-3.457-19.045-4.9712-28.728 0.51426-0.11143 55.494-10.686 55.494-10.686" color="#000000" fill="#88765f" style="isolation:auto;mix-blend-mode:normal;text-decoration-color:#000000;text-decoration-line:none;text-decoration-style:solid;text-indent:0;text-transform:none;white-space:normal"/><path transform="matrix(1 0 0 .99999 -.013297 -.017092)" d="m-587.07 134.53c87.547 453.85 207.74 727.65 342.38 894.56a826.99 827.02 0 0 0 41.798 48.014c134.78 143.16 282.23 193.58 435.06 218.3a1620.2 1620.2 0 0 0 55.32 7.9141c162.96 20.631 330.13 19.028 483.35 79.385a629.88 629.9 0 0 1 25.962 10.897c155.04 69.216 289.39 210.14 380.61 498.88 3.0284 9.6112 5.5768 19.54 7.9939 29.665-0.7343 0.2457-42.444 12.571-51.889 15.357-1.2456 0.3429-1.9513 0.5286-1.957 0.5086-82.83-279.86-197.61-410.62-331.18-479.25a545.37 545.39 0 0 0-28.519-13.62c-142.55-63.142-309.87-62.773-483.75-84.104-3.3027-0.4057-6.6082-0.82-9.9138-1.24-177.48-22.62-362.27-72.219-523.95-244.6a856.33 856.36 0 0 1-9.6424-10.451c-154.82-170.61-287.21-453.36-382.3-931.24-1.8456-9.297-3.2598-18.763-4.5741-28.325 0.77139-0.16857 55.183-10.643 55.183-10.643" color="#000000" fill="#7f6e56" style="isolation:auto;mix-blend-mode:normal;text-decoration-color:#000000;text-decoration-line:none;text-decoration-style:solid;text-indent:0;text-transform:none;white-space:normal"/><path transform="matrix(1 0 0 .99999 -.013297 -.017092)" d="m-551.9 119.96c87.204 451.42 206.96 723.5 341.07 889.27a821.02 821.04 0 0 0 41.641 47.676c134.11 142.03 280.83 192 432.92 216.51a1617.9 1617.9 0 0 0 55.014 7.8428c162.05 20.454 328.27 18.914 480.66 78.939a626.54 626.56 0 0 1 25.816 10.834c154.24 68.859 287.9 209.02 378.64 496.02 2.9827 9.4513 5.3312 19.263 7.5282 29.28-0.9799 0.3286-42.306 12.557-51.594 15.294-1.2257 0.3314-1.9228 0.5057-1.9314 0.4771-82.467-278.23-196.74-408.11-329.75-476.22a542.86 542.88 0 0 0-28.37-13.514c-141.77-62.622-308.16-62.265-481.09-83.459-3.2856-0.4028-6.5711-0.8142-9.8566-1.2314-176.53-22.477-360.35-71.765-521.17-242.96a851.1 851.13 0 0 1-9.5967-10.386c-154.16-169.58-285.96-450.68-380.61-925.84-1.8142-9.1427-3.0598-18.483-4.1769-27.922 1.0285-0.22286 54.874-10.6 54.874-10.6" color="#000000" fill="#786854" style="isolation:auto;mix-blend-mode:normal;text-decoration-color:#000000;text-decoration-line:none;text-decoration-style:solid;text-indent:0;text-transform:none;white-space:normal"/><path transform="matrix(1 0 0 .99999 -.013297 -.017092)" d="m-516.73 105.39c86.861 448.96 206.18 719.36 339.78 883.99a815.04 815.07 0 0 0 41.472 47.339c133.45 140.9 279.44 190.42 430.78 214.71a1615.5 1615.6 0 0 0 54.712 7.777c161.14 20.271 326.41 18.8 477.98 78.487a623.14 623.16 0 0 1 25.67 10.774c153.44 68.502 286.41 207.89 376.67 493.14 2.9313 9.2941 5.0854 18.991 7.0596 28.9-1.2228 0.4114-42.169 12.537-51.297 15.228-1.2085 0.3171-1.8942 0.4829-1.9056 0.4486-82.107-276.6-195.87-405.57-328.33-473.19a540.34 540.36 0 0 0-28.227-13.406c-140.99-62.108-306.47-61.756-478.43-82.816-3.2656-0.4-6.534-0.8086-9.8052-1.2229-175.57-22.337-358.41-71.308-518.4-241.33a845.9 845.93 0 0 1-9.5538-10.32c-153.5-168.55-284.73-447.99-378.92-920.41-1.7828-8.9884-2.857-18.203-3.777-27.522 1.2799-0.28 54.563-10.554 54.563-10.554" color="#000000" fill="#81725c" style="isolation:auto;mix-blend-mode:normal;text-decoration-color:#000000;text-decoration-line:none;text-decoration-style:solid;text-indent:0;text-transform:none;white-space:normal"/><path transform="matrix(1 0 0 .99999 -.013297 -.017092)" d="m-481.56 90.816c86.521 446.54 205.41 715.22 338.47 878.7a809.1 809.13 0 0 0 41.312 47.002c132.79 139.77 278.05 188.84 428.64 212.93a1613.3 1613.3 0 0 0 54.403 7.7056c160.24 20.094 324.58 18.685 475.29 78.042a619.74 619.76 0 0 1 25.527 10.714c152.64 68.139 284.91 206.77 374.67 490.28 2.8827 9.1313 4.8398 18.717 6.5968 28.517-1.4713 0.4914-42.032 12.517-51.006 15.163-1.1885 0.3057-1.8656 0.4571-1.8799 0.4171-81.742-274.97-195-403.02-326.9-470.16a537.86 537.88 0 0 0-28.084-13.297c-140.21-61.59-304.76-61.25-475.78-82.17-3.2484-0.4-6.4968-0.8057-9.7509-1.2171-174.62-22.194-356.5-70.853-515.63-239.7a840.7 840.73 0 0 1-9.5081-10.251c-152.84-167.52-283.48-445.31-377.24-915.01-1.7542-8.8342-2.6627-17.923-3.3827-27.12 1.5371-0.33428 54.254-10.508 54.254-10.508" color="#000000" fill="#796b54" style="isolation:auto;mix-blend-mode:normal;text-decoration-color:#000000;text-decoration-line:none;text-decoration-style:solid;text-indent:0;text-transform:none;white-space:normal"/></g><g fill="#81725c" fill-rule="evenodd"><path transform="matrix(1 0 0 .99999 -.013297 -.017092)" d="m-446.39 76.216c86.179 444.11 204.63 711.08 337.18 873.42a803.16 803.19 0 0 0 41.147 46.665c132.12 138.64 276.65 187.25 426.49 211.13a1611.1 1611.2 0 0 0 54.1 7.6342c159.33 19.914 322.73 18.571 472.58 77.596a616.4 616.42 0 0 1 25.382 10.651c151.84 67.779 283.42 205.64 372.7 487.39 2.8285 8.9713 4.5912 18.443 6.1283 28.134-1.7142 0.5714-41.892 12.5-50.712 15.097-1.1685 0.2914-1.837 0.4343-1.8541 0.3857-81.379-273.33-194.13-400.48-325.47-467.14a535.29 535.31 0 0 0-27.936-13.188c-139.43-61.073-303.07-60.742-473.12-81.53a2086.4 2086.4 0 0 1-9.6967-1.2057c-173.67-22.054-354.55-70.399-512.86-238.07a835.73 835.76 0 0 1-9.4624-10.186c-152.18-166.49-282.24-442.62-375.55-909.59-1.7228-8.6799-2.4627-17.64-2.9856-26.717 1.7942-0.39142 53.943-10.463 53.943-10.463" color="#000000" style="isolation:auto;mix-blend-mode:normal;text-decoration-color:#000000;text-decoration-line:none;text-decoration-style:solid;text-indent:0;text-transform:none;white-space:normal"/><path transform="matrix(1 0 0 .99999 -.013297 -.017092)" d="m-411.22 61.645c85.836 441.65 203.85 706.93 335.9 868.1a797.22 797.25 0 0 0 40.987 46.328c131.46 137.52 275.26 185.67 424.35 209.35a1609 1609 0 0 0 53.797 7.5656c158.42 19.734 320.9 18.457 469.89 77.145 8.4567 3.3313 16.871 6.857 25.236 10.591 151.03 67.419 281.93 204.52 370.7 484.54 2.777 8.8113 4.3426 18.168 5.6597 27.751-1.9599 0.6572-41.755 12.48-50.415 15.031-1.1514 0.28-1.8114 0.4115-1.8285 0.3572-81.019-271.71-193.26-397.94-324.01-464.11-9.171-4.6485-18.439-8.9999-27.793-13.083-138.65-60.556-301.36-60.233-470.46-80.884-3.2113-0.3914-6.4254-0.7914-9.6395-1.2-172.72-21.908-352.64-69.942-510.12-236.43-3.1484-3.3285-6.2883-6.6999-9.4195-10.12-151.52-165.47-281-439.96-373.87-904.19-1.6885-8.5256-2.2599-17.36-2.5856-26.317 2.0485-0.44571 53.632-10.42 53.632-10.42" color="#000000" style="isolation:auto;mix-blend-mode:normal;text-decoration-color:#000000;text-decoration-line:none;text-decoration-style:solid;text-indent:0;text-transform:none;white-space:normal"/><path transform="matrix(1 0 0 .99999 -.013297 -.017092)" d="m-376.05 47.045c85.493 439.22 203.07 702.79 334.58 862.82a791.33 791.36 0 0 0 40.827 45.994c130.8 136.39 273.87 184.09 422.21 207.55a1606.9 1606.9 0 0 0 53.494 7.4942c157.51 19.554 319.04 18.343 467.21 76.699a609.63 609.65 0 0 1 25.093 10.531c150.23 67.056 280.44 203.39 368.72 481.65 2.7284 8.6513 4.0998 17.894 5.194 27.368-2.2056 0.7371-41.615 12.46-50.118 14.966-1.1342 0.2657-1.7856 0.3885-1.8056 0.3257-80.656-270.07-192.39-395.39-322.58-461.08a530.29 530.31 0 0 0-27.644-12.974c-137.87-60.039-299.67-59.725-467.81-80.239-3.1913-0.3914-6.3854-0.7886-9.5852-1.1914-171.76-21.771-350.7-69.485-507.35-234.8-3.1313-3.3057-6.2568-6.657-9.371-10.054-150.86-164.43-279.76-437.28-372.18-898.79-1.6571-8.3713-2.0599-17.08-2.1885-25.914 2.3056-0.50285 53.323-10.374 53.323-10.374" color="#000000" style="isolation:auto;mix-blend-mode:normal;text-decoration-color:#000000;text-decoration-line:none;text-decoration-style:solid;text-indent:0;text-transform:none;white-space:normal"/></g><g fill-rule="evenodd"><path transform="matrix(1 0 0 .99999 -.013297 -.017092)" d="m-340.88 32.474c85.153 436.79 202.29 698.65 333.3 857.53a785.42 785.45 0 0 0 40.658 45.648c130.14 135.26 272.48 182.51 420.06 205.76a1605 1605.1 0 0 0 53.186 7.4284c156.61 19.371 317.18 18.228 464.49 76.25a606.28 606.31 0 0 1 24.947 10.468c149.43 66.699 278.95 202.27 366.72 478.79 2.677 8.4913 3.8541 17.62 4.7283 26.985-2.4513 0.82-41.484 12.44-49.826 14.9-1.1142 0.2514-1.757 0.3657-1.7799 0.2943-80.293-268.44-191.52-392.85-321.16-458.05-9.0738-4.5713-18.242-8.8513-27.499-12.868-137.09-59.522-297.96-59.216-465.15-79.593-3.1741-0.3857-6.3511-0.7829-9.531-1.1829-170.81-21.628-348.75-69.03-504.57-233.17a819.9 819.93 0 0 1-9.3281-9.9856c-150.2-163.41-278.52-434.59-370.5-893.36-1.6285-8.2142-1.8628-16.8-1.7913-25.514 2.5599-0.55428 53.009-10.328 53.009-10.328" color="#000000" fill="#7f6f58" style="isolation:auto;mix-blend-mode:normal;text-decoration-color:#000000;text-decoration-line:none;text-decoration-style:solid;text-indent:0;text-transform:none;white-space:normal"/><path transform="matrix(1 0 0 .99999 -.013297 -.017092)" d="m-305.71 17.903c84.81 434.34 201.51 694.5 331.98 852.24a779.53 779.56 0 0 0 40.498 45.314c129.48 134.14 271.09 180.93 417.92 203.97a1603.1 1603.1 0 0 0 52.883 7.357c155.7 19.194 315.36 18.114 461.81 75.802a602.88 602.91 0 0 1 24.802 10.408c148.63 66.339 277.46 201.14 364.75 475.91 2.6285 8.3313 3.6084 17.343 4.2627 26.6-2.697 0.9028-41.341 12.423-49.529 14.837-1.0971 0.24-1.7285 0.3429-1.7542 0.2657-79.933-266.81-190.65-390.31-319.73-455.02a525.29 525.31 0 0 0-27.353-12.763c-136.31-59.005-296.27-58.71-462.49-78.95a2040.4 2040.5 0 0 1-9.4738-1.1743c-169.86-21.485-346.84-68.576-501.8-231.54a814.93 814.96 0 0 1-9.2852-9.9198c-149.54-162.37-277.28-431.91-368.81-887.96-1.5999-8.057-1.6628-16.514-1.3942-25.108 2.817-0.61428 52.7-10.286 52.7-10.286" color="#000000" fill="#7f6e56" style="isolation:auto;mix-blend-mode:normal;text-decoration-color:#000000;text-decoration-line:none;text-decoration-style:solid;text-indent:0;text-transform:none;white-space:normal"/><path transform="matrix(1 0 0 .99999 -.013297 -.017092)" d="m-270.54 3.3313c84.467 431.91 200.73 690.36 330.7 846.93a773.65 773.67 0 0 0 40.341 44.979c128.81 133.01 269.7 179.35 415.78 202.18a1601.3 1601.3 0 0 0 52.577 7.2856c154.8 19.017 313.5 18.003 459.12 75.356a599.51 599.53 0 0 1 24.656 10.348c147.83 65.976 275.98 200.01 362.75 473.02 2.577 8.1713 3.3598 17.071 3.7941 26.22-2.9427 0.9828-41.204 12.4-49.235 14.771-1.0771 0.2229-1.6999 0.3143-1.7285 0.2314-79.567-265.17-189.78-387.77-318.27-451.99a522.83 522.85 0 0 0-27.21-12.657c-135.53-58.485-294.56-58.199-459.86-78.305-3.1398-0.38-6.2797-0.7714-9.4224-1.1685-168.91-21.343-344.9-68.119-499.03-229.91a809.73 809.76 0 0 1-9.2395-9.8513c-148.88-161.35-276.04-429.22-367.12-882.53-1.5656-7.9027-1.4628-16.234-0.99709-24.705 3.077-0.67142 52.392-10.24 52.392-10.24" color="#000000" fill="#7b6d58" style="isolation:auto;mix-blend-mode:normal;text-decoration-color:#000000;text-decoration-line:none;text-decoration-style:solid;text-indent:0;text-transform:none;white-space:normal"/><path transform="matrix(1 0 0 .99999 -.013297 -.017092)" d="m-235.37-11.268c84.124 429.48 199.95 686.25 329.41 841.64a767.79 767.82 0 0 0 40.172 44.642c128.15 131.88 268.3 177.77 413.67 200.39a1599.5 1599.5 0 0 0 52.272 7.2171c153.89 18.834 311.64 17.885 456.43 74.905a596.11 596.13 0 0 1 24.516 10.286c147.02 65.619 274.49 198.89 360.78 470.16 2.5284 8.0113 3.1141 16.797 3.3284 25.837-3.1856 1.0628-41.067 12.383-48.94 14.703-1.0571 0.2143-1.6714 0.2943-1.7028 0.2028-79.208-263.54-188.9-385.22-316.84-448.96a520.32 520.34 0 0 0-27.062-12.548c-134.75-57.971-292.84-57.694-457.21-77.659-3.1198-0.38-6.2425-0.7657-9.3652-1.16-167.96-21.205-342.98-67.665-496.29-228.28a804.53 804.56 0 0 1-9.191-9.7856c-148.22-160.32-274.8-426.54-365.44-877.13-1.5371-7.7513-1.2628-15.954-0.59997-24.305 3.3313-0.7257 52.08-10.197 52.08-10.197" color="#000000" fill="#796b54" style="isolation:auto;mix-blend-mode:normal;text-decoration-color:#000000;text-decoration-line:none;text-decoration-style:solid;text-indent:0;text-transform:none;white-space:normal"/><path transform="matrix(1 0 0 .99999 -.013297 -.017092)" d="m-200.21-25.84c83.782 427.02 199.17 682.1 328.1 836.36a761.93 761.96 0 0 0 40.012 44.305c127.49 130.75 266.91 176.19 411.52 198.6 17.256 2.6829 34.584 5.0285 51.969 7.1485 152.98 18.657 309.81 17.771 453.72 74.459a592.71 592.73 0 0 1 24.37 10.228c146.22 65.256 273 197.75 358.78 467.28 2.477 7.8485 2.8684 16.52 2.8598 25.454-3.4284 1.1457-40.926 12.363-48.643 14.637-1.0428 0.2-1.6456 0.2715-1.677 0.1715-78.848-261.91-188.04-382.68-315.41-445.91a517.89 517.91 0 0 0-26.919-12.44c-133.97-57.454-291.16-57.185-454.55-77.016-3.0998-0.3772-6.2026-0.76-9.3081-1.1514-167.01-21.063-341.04-67.21-493.52-226.65a799.36 799.39 0 0 1-9.1481-9.717c-147.56-159.29-273.55-423.85-363.75-871.7-1.5056-7.5942-1.0628-15.674-0.20285-23.902 3.5884-0.78285 51.769-10.151 51.769-10.151" color="#000000" fill="#887861" style="isolation:auto;mix-blend-mode:normal;text-decoration-color:#000000;text-decoration-line:none;text-decoration-style:solid;text-indent:0;text-transform:none;white-space:normal"/><path transform="matrix(1 0 0 .99999 -.013297 -.017092)" d="m-165.04-40.439c83.442 424.59 198.39 677.96 326.81 831.07a756.08 756.1 0 0 0 39.849 43.968c126.83 129.62 265.52 174.6 409.38 196.81a1596.2 1596.2 0 0 0 51.66 7.077c152.08 18.477 307.96 17.66 451.03 74.013a589.4 589.42 0 0 1 24.227 10.166c145.42 64.893 271.51 196.63 356.81 464.42 2.4256 7.6884 2.6227 16.245 2.3941 25.071-3.6769 1.2286-40.792 12.343-48.349 14.571-1.0256 0.1857-1.6199 0.2457-1.6542 0.1429-78.482-260.28-187.16-380.14-313.98-442.88a515.4 515.42 0 0 0-26.77-12.334c-133.19-56.933-289.44-56.676-451.89-76.37-3.0798-0.3742-6.1654-0.7542-9.2538-1.1428-166.05-20.922-339.13-66.756-490.75-225.01a794.16 794.19 0 0 1-9.0996-9.6542c-146.91-158.26-272.31-421.17-362.07-866.3-1.4771-7.4399-0.86567-15.391 0.19142-23.5 3.8455-0.83713 51.46-10.108 51.46-10.108" color="#000000" fill="#88765f" style="isolation:auto;mix-blend-mode:normal;text-decoration-color:#000000;text-decoration-line:none;text-decoration-style:solid;text-indent:0;text-transform:none;white-space:normal"/><path transform="matrix(1 0 0 .99999 -.013297 -.017092)" d="m-129.84-55.011c83.099 422.17 197.61 673.82 325.53 825.79a750.28 750.3 0 0 0 39.684 43.631c126.17 128.5 264.13 173.03 407.24 195.02 17.053 2.6285 34.175 4.9285 51.357 7.0084 151.17 18.294 306.1 17.543 448.35 73.562a586 586.02 0 0 1 24.082 10.106c144.62 64.536 270.02 195.5 354.81 461.54 2.377 7.5284 2.377 15.971 1.9285 24.685-3.9227 1.3143-40.655 12.328-48.055 14.508-1.0057 0.1714-1.5885 0.2228-1.6285 0.1143-78.119-258.65-186.29-377.59-312.56-439.85a512.97 512.99 0 0 0-26.627-12.228c-132.41-56.416-287.76-56.165-449.23-75.724-3.0627-0.3715-6.1311-0.7486-9.1995-1.1372-165.11-20.777-337.18-66.296-487.98-223.38a789.22 789.25 0 0 1-9.0567-9.5856c-146.25-157.23-271.08-418.48-360.38-860.87-1.4485-7.2856-0.66854-15.108 0.58854-23.097 4.0998-0.89427 51.149-10.063 51.149-10.063" color="#000000" fill="#82735d" style="isolation:auto;mix-blend-mode:normal;text-decoration-color:#000000;text-decoration-line:none;text-decoration-style:solid;text-indent:0;text-transform:none;white-space:normal"/><path transform="matrix(1 0 0 .99999 -.013297 -.017092)" d="m-94.668-69.582c82.756 419.71 196.83 669.68 324.21 820.5a744.45 744.47 0 0 0 39.524 43.294c125.5 127.36 262.74 171.44 405.09 193.23a1593.1 1593.2 0 0 0 51.052 6.9428c150.26 18.114 304.27 17.428 445.66 73.113a582.63 582.65 0 0 1 23.936 10.043c143.82 64.176 268.53 194.38 352.84 458.68 2.3256 7.3713 2.1284 15.697 1.4599 24.302-4.1655 1.3943-40.515 12.308-47.758 14.443-0.9885 0.16-1.5628 0.2-1.6028 0.083-77.762-257.01-185.42-375.05-311.13-436.82a510.49 510.51 0 0 0-26.479-12.12c-131.64-55.899-286.04-55.656-446.58-75.082-3.0456-0.3685-6.094-0.7428-9.1424-1.1285-164.15-20.637-335.24-65.842-485.2-221.75a783.82 783.85 0 0 1-9.011-9.5199c-145.59-156.2-269.83-415.79-358.7-855.47-1.4142-7.1285-0.46855-14.828 0.98567-22.694 4.3569-0.94856 50.84-10.02 50.84-10.02" color="#000000" fill="#86745d" style="isolation:auto;mix-blend-mode:normal;text-decoration-color:#000000;text-decoration-line:none;text-decoration-style:solid;text-indent:0;text-transform:none;white-space:normal"/><path transform="matrix(1 0 0 .99999 -.013297 -.017092)" d="m-59.498-84.182c82.413 417.28 196.05 665.53 322.93 815.19a738.65 738.67 0 0 0 39.361 42.956c124.84 126.24 261.34 169.86 402.95 191.44a1591.9 1591.9 0 0 0 50.749 6.8685c149.36 17.934 302.41 17.314 442.95 72.668a579.23 579.25 0 0 1 23.793 9.9827c143.01 63.813 267.04 193.25 350.84 455.79 2.2742 7.2085 1.8857 15.423 0.9943 23.92-4.4112 1.4742-40.378 12.286-47.463 14.377-0.9685 0.1486-1.5342 0.1771-1.577 0.051-77.396-255.38-184.55-372.51-309.67-433.79a508.09 508.11 0 0 0-26.336-12.011c-130.85-55.385-284.35-55.151-443.92-74.439-3.0284-0.3657-6.0568-0.7371-9.091-1.12-163.2-20.494-333.33-65.385-482.43-220.11-2.9998-3.1057-5.9854-6.257-8.9681-9.4513-144.93-155.17-268.59-413.14-357.01-850.04-1.3828-6.9742-0.2657-14.548 1.3828-22.294 4.6141-1.0057 50.532-9.9741 50.532-9.9741" color="#000000" fill="#7f6e56" style="isolation:auto;mix-blend-mode:normal;text-decoration-color:#000000;text-decoration-line:none;text-decoration-style:solid;text-indent:0;text-transform:none;white-space:normal"/><path transform="matrix(1 0 0 .99999 -.013297 -.017092)" d="m-24.328-98.753c82.07 414.85 195.28 661.39 321.61 809.9a732.85 732.87 0 0 0 39.198 42.622c124.18 125.11 259.95 168.28 400.81 189.65a1590.6 1590.6 0 0 0 50.443 6.7999c148.45 17.757 300.56 17.203 440.26 72.219a575.83 575.85 0 0 1 23.647 9.9228c142.21 63.456 265.55 192.12 348.87 452.94 2.2199 7.0485 1.6342 15.148 0.5228 23.537-4.6569 1.5571-40.238 12.268-47.169 14.311-0.9485 0.1343-1.5056 0.1543-1.5485 0.02-77.036-253.75-183.69-369.97-308.24-430.76a505.63 505.65 0 0 0-26.19-11.906c-130.08-54.865-282.64-54.642-441.26-73.793a1945.1 1945.2 0 0 1-9.0338-1.1114c-162.25-20.354-331.38-64.93-479.69-218.48a773.48 773.5 0 0 1-8.9224-9.3856c-144.27-154.14-267.35-410.45-355.33-844.64-1.3542-6.817-0.06857-14.266 1.7799-21.891 4.8683-1.0571 50.22-9.9284 50.22-9.9284" color="#000000" fill="#786854" style="isolation:auto;mix-blend-mode:normal;text-decoration-color:#000000;text-decoration-line:none;text-decoration-style:solid;text-indent:0;text-transform:none;white-space:normal"/><path transform="matrix(1 0 0 .99999 -.013297 -.017092)" d="m10.841-113.32c81.73 412.39 194.5 657.25 320.33 804.62a727.08 727.1 0 0 0 39.035 42.285c123.52 123.98 258.56 166.69 398.67 187.85a1589.4 1589.5 0 0 0 50.14 6.7285c147.54 17.577 298.73 17.091 437.58 71.77a572.51 572.53 0 0 1 23.502 9.8627c141.41 63.093 264.06 191 346.9 450.05 2.1714 6.8856 1.3914 14.874 0.057 23.154-4.8998 1.64-40.101 12.248-46.872 14.246-0.9313 0.12-1.4799 0.1286-1.5256-0.01-76.673-252.12-182.81-367.42-306.81-427.74a503.2 503.22 0 0 0-26.044-11.8c-129.29-54.348-280.94-54.134-438.61-73.148-2.9913-0.36-5.9854-0.72856-8.9796-1.1057-161.3-20.21-329.47-64.475-476.92-216.85a768.76 768.79 0 0 1-8.8767-9.3142c-143.61-153.12-266.11-407.77-353.64-839.24-1.3228-6.6628 0.13142-13.986 2.177-21.488 5.1255-1.1171 49.912-9.8856 49.912-9.8856" color="#000000" fill="#80715b" style="isolation:auto;mix-blend-mode:normal;text-decoration-color:#000000;text-decoration-line:none;text-decoration-style:solid;text-indent:0;text-transform:none;white-space:normal"/><path transform="matrix(1 0 0 .99999 -.013297 -.017092)" d="m46.011-127.92c81.384 409.97 193.71 653.1 319.04 799.33a721.34 721.36 0 0 0 38.872 41.942c122.85 122.86 257.17 165.12 396.52 186.07a1588.4 1588.5 0 0 0 49.835 6.657c146.64 17.4 296.87 16.977 434.89 71.325a569.11 569.13 0 0 1 23.362 9.7998c140.6 62.736 262.57 189.87 344.9 447.19 2.1199 6.7285 1.1428 14.6-0.4086 22.771-5.1483 1.72-39.966 12.228-46.578 14.18-0.9143 0.1086-1.4542 0.1057-1.5028-0.04-76.31-250.48-181.94-364.91-305.38-424.71a500.77 500.79 0 0 0-25.896-11.688c-128.52-53.833-279.24-53.628-435.98-72.505-2.9713-0.35714-5.9483-0.72285-8.9253-1.0971-160.35-20.071-327.53-64.019-474.15-215.22a763.79 763.82 0 0 1-8.8338-9.2484c-142.95-152.09-264.87-405.08-351.95-833.82-1.2914-6.5085 0.33141-13.703 2.577-21.085 5.3797-1.1714 49.598-9.8398 49.598-9.8398" color="#000000" fill="#7a6c55" style="isolation:auto;mix-blend-mode:normal;text-decoration-color:#000000;text-decoration-line:none;text-decoration-style:solid;text-indent:0;text-transform:none;white-space:normal"/><path transform="matrix(1 0 0 .99999 -.013297 -.017092)" d="m81.181-142.5c81.045 407.54 192.94 648.96 317.73 794.02a715.56 715.59 0 0 0 38.709 41.608c122.19 121.73 255.78 163.53 394.38 184.28a1587.4 1587.4 0 0 0 49.529 6.5885c145.73 17.217 295.01 16.863 432.18 70.876a565.71 565.73 0 0 1 23.216 9.7399c139.8 62.37 261.08 188.75 342.9 444.31 2.0713 6.5713 0.8999 14.328-0.8743 22.391-5.3911 1.8-39.826 12.211-46.283 14.114-0.8942 0.094-1.4227 0.083-1.4742-0.071-75.95-248.85-181.08-362.34-303.93-421.68a498.35 498.36 0 0 0-25.753-11.586c-127.74-53.314-277.54-53.12-433.32-71.856a1911.9 1911.9 0 0 1-8.8681-1.0914c-159.39-19.928-325.61-63.565-471.38-213.59a758.65 758.67 0 0 1-8.7881-9.1856c-142.29-151.05-263.63-402.39-350.27-828.39-1.2628-6.3542 0.5314-13.426 2.9713-20.685 5.6369-1.2286 49.289-9.797 49.289-9.797" color="#000000" fill="#81725c" style="isolation:auto;mix-blend-mode:normal;text-decoration-color:#000000;text-decoration-line:none;text-decoration-style:solid;text-indent:0;text-transform:none;white-space:normal"/><path transform="matrix(1 0 0 .99999 -.013297 -.017092)" d="m116.35-157.07c80.705 405.08 192.16 644.85 316.44 788.73a709.82 709.85 0 0 0 38.547 41.271c121.53 120.6 254.38 161.95 392.27 182.48a1586.5 1586.6 0 0 0 49.226 6.5199c144.82 17.04 293.19 16.748 429.49 70.428a562.34 562.36 0 0 1 23.07 9.6798c139 62.013 259.59 187.62 340.93 441.45 2.0228 6.4057 0.6543 14.048-1.3399 22.005-5.6369 1.8857-39.69 12.191-45.986 14.048-0.8771 0.083-1.3999 0.057-1.4513-0.1-75.588-247.22-180.2-359.82-302.5-418.65a495.92 495.94 0 0 0-25.607-11.477c-126.95-52.799-275.83-52.611-430.66-71.216-2.937-0.35142-5.874-0.71142-8.8138-1.08-158.45-19.788-323.67-63.11-468.61-211.95a753.48 753.5 0 0 1-8.7424-9.117c-141.63-150.03-262.39-399.71-348.58-822.99-1.2285-6.1999 0.73139-13.143 3.3713-20.285 5.8911-1.2828 48.978-9.7484 48.978-9.7484" color="#000000" fill="#7a6c55" style="isolation:auto;mix-blend-mode:normal;text-decoration-color:#000000;text-decoration-line:none;text-decoration-style:solid;text-indent:0;text-transform:none;white-space:normal"/><path transform="matrix(1 0 0 .99999 -.013297 -.017092)" d="m151.52-171.67c80.359 402.65 191.38 640.7 315.13 783.45a704.14 704.16 0 0 0 38.384 40.934c120.87 119.47 252.99 160.37 390.12 180.69a1585.7 1585.8 0 0 0 48.918 6.4513c143.92 16.857 291.33 16.631 426.81 69.979 7.6854 3.0285 15.328 6.2285 22.928 9.6199 138.2 61.65 258.1 186.49 338.95 438.56 1.9713 6.2457 0.4056 13.774-1.8057 21.623-5.8854 1.9657-39.552 12.171-45.695 13.983-0.8571 0.069-1.3714 0.034-1.4257-0.1314-75.225-245.59-179.33-357.28-301.07-415.62-8.3968-4.0428-16.885-7.8227-25.459-11.371-126.18-52.279-274.13-52.102-428.01-70.57-2.917-0.34857-5.8368-0.70571-8.7596-1.0714-157.49-19.645-321.73-62.656-465.86-210.32a748.11 748.13 0 0 1-8.6996-9.0513c-140.97-149-261.14-397.02-346.9-817.59-1.1999-6.0456 0.93138-12.863 3.7684-19.88 6.1483-1.3428 48.669-9.7084 48.669-9.7084" color="#000000" fill="#88765f" style="isolation:auto;mix-blend-mode:normal;text-decoration-color:#000000;text-decoration-line:none;text-decoration-style:solid;text-indent:0;text-transform:none;white-space:normal"/><path transform="matrix(1 0 0 .99999 -.013297 -.017092)" d="m186.69-186.24c80.019 400.19 190.6 636.56 313.84 778.16a698.42 698.45 0 0 0 38.221 40.597c120.21 118.34 251.6 158.79 387.98 178.9 16.142 2.3914 32.353 4.4856 48.612 6.3799 143.01 16.68 289.5 16.52 424.12 69.533a555.57 555.59 0 0 1 22.782 9.557c137.4 61.291 256.62 185.37 336.95 435.68 1.9228 6.0885 0.1628 13.503-2.2713 21.242-6.1283 2.0486-39.415 12.151-45.398 13.914-0.8428 0.057-1.3427 0.014-1.3999-0.16-74.865-243.95-178.46-354.74-299.64-412.59a491.15 491.16 0 0 0-25.313-11.263c-125.4-51.762-272.43-51.594-425.35-69.925-2.8998-0.34856-5.7997-0.70284-8.7053-1.0657-156.54-19.505-319.81-62.199-463.09-208.69a743.39 743.42 0 0 1-8.651-8.9827c-140.31-147.97-259.9-394.34-345.21-812.16-1.1685-5.8913 1.1314-12.583 4.1655-19.48 6.4054-1.3971 48.358-9.6627 48.358-9.6627" color="#000000" fill="#81725c" style="isolation:auto;mix-blend-mode:normal;text-decoration-color:#000000;text-decoration-line:none;text-decoration-style:solid;text-indent:0;text-transform:none;white-space:normal"/><path transform="matrix(1 0 0 .99999 -.013297 -.017092)" d="m221.86-200.81c79.676 397.77 189.82 632.42 312.56 772.85a692.74 692.76 0 0 0 38.058 40.259c119.55 117.22 250.21 157.21 385.84 177.11a1584.5 1584.6 0 0 0 48.309 6.3142c142.1 16.497 287.64 16.403 421.41 69.085a552.23 552.25 0 0 1 22.636 9.4941c136.6 60.931 255.13 184.24 334.98 432.82 1.8713 5.9256-0.086 13.228-2.7399 20.857-6.3711 2.1286-39.278 12.134-45.103 13.851-0.8229 0.043-1.3143-0.012-1.3743-0.1915-74.502-242.32-177.59-352.19-298.21-409.57a488.78 488.79 0 0 0-25.17-11.154c-124.62-51.248-270.73-51.085-422.69-69.285-2.8798-0.34285-5.7654-0.69428-8.651-1.0543-155.59-19.363-317.87-61.742-460.32-207.06a738.25 738.27 0 0 1-8.6082-8.9142c-139.65-146.94-258.66-391.65-343.53-806.76-1.1371-5.7342 1.3285-12.297 4.5598-19.074 6.6625-1.4514 48.049-9.617 48.049-9.617" color="#000000" fill="#88765f" style="isolation:auto;mix-blend-mode:normal;text-decoration-color:#000000;text-decoration-line:none;text-decoration-style:solid;text-indent:0;text-transform:none;white-space:normal"/><path transform="matrix(1 0 0 .99999 -.013297 -.017092)" d="m257.03-215.41c79.333 395.34 189.04 628.28 311.24 767.56a687.05 687.08 0 0 0 37.892 39.922c118.88 116.08 248.82 155.63 383.7 175.32a1584 1584.1 0 0 0 48.006 6.2399c141.2 16.32 285.81 16.291 418.72 68.633a548.83 548.85 0 0 1 22.493 9.4342c135.79 60.571 253.64 183.11 332.98 429.94 1.8228 5.7685-0.3286 12.954-3.2056 20.477-6.6168 2.2114-39.141 12.114-44.806 13.786-0.8057 0.028-1.2856-0.034-1.3513-0.2229-74.139-240.69-176.72-349.65-296.76-406.51a486.38 486.39 0 0 0-25.027-11.048c-123.84-50.728-269.03-50.576-420.04-68.636a1849.5 1849.5 0 0 1-8.5938-1.0486c-154.64-19.22-315.96-61.288-457.55-205.43-2.8627-2.9114-5.714-5.8599-8.5624-8.8513-138.99-145.91-257.42-388.97-341.84-801.33-1.1057-5.5799 1.5314-12.02 4.9598-18.674 6.9168-1.5085 47.738-9.5713 47.738-9.5713" color="#000000" fill="#85745c" style="isolation:auto;mix-blend-mode:normal;text-decoration-color:#000000;text-decoration-line:none;text-decoration-style:solid;text-indent:0;text-transform:none;white-space:normal"/><path transform="matrix(1 0 0 .99999 -.013297 -.017092)" d="m292.2-229.98c78.99 392.88 188.26 624.13 309.96 762.27a681.37 681.39 0 0 0 37.732 39.588c118.22 114.96 247.42 154.05 381.55 173.53a1583.8 1583.8 0 0 0 47.7 6.1713c140.29 16.143 283.95 16.177 416.04 68.19a545.49 545.51 0 0 1 22.347 9.3713c134.99 60.213 252.15 181.99 331.01 427.08 1.7713 5.6056-0.5771 12.677-3.6741 20.088-6.8626 2.2943-38.998 12.097-44.512 13.723-0.7857 0.017-1.2571-0.057-1.3228-0.2543-73.779-239.05-175.85-347.11-295.33-403.48a484.03 484.05 0 0 0-24.879-10.943c-123.06-50.211-267.33-50.071-417.38-67.993-2.8455-0.33999-5.6911-0.6857-8.5424-1.04-153.68-19.08-314.01-60.833-454.78-203.8-2.8484-2.8857-5.6854-5.8142-8.5167-8.7827-138.34-144.88-256.18-386.28-340.15-795.93-1.0742-5.4256 1.7313-11.737 5.3569-18.271 7.1739-1.5628 47.426-9.5284 47.426-9.5284" color="#000000" fill="#7b6d56" style="isolation:auto;mix-blend-mode:normal;text-decoration-color:#000000;text-decoration-line:none;text-decoration-style:solid;text-indent:0;text-transform:none;white-space:normal"/><path transform="matrix(1 0 0 .99999 -.013297 -.017092)" d="m327.4-244.55c78.648 390.45 187.48 619.99 308.67 756.99a675.74 675.76 0 0 0 37.57 39.248c117.56 113.83 246.03 152.47 379.41 171.74 15.742 2.2857 31.541 4.2856 47.398 6.1028 139.38 15.96 282.1 16.063 413.35 67.742a542.09 542.11 0 0 1 22.205 9.3142c134.19 59.848 250.66 180.86 329.01 424.19 1.717 5.4485-0.8257 12.406-4.1427 19.708-7.1053 2.3771-38.861 12.077-44.215 13.657-0.7685 0-1.2314-0.083-1.2999-0.2857-73.414-237.42-174.98-344.57-293.9-400.45a481.66 481.68 0 0 0-24.736-10.834c-122.28-49.696-265.62-49.562-414.72-67.35-2.8256-0.33714-5.6541-0.67999-8.4853-1.0286-152.74-18.943-312.1-60.379-452.03-202.17-2.8284-2.8628-5.6569-5.7714-8.471-8.7142-137.68-143.85-254.94-383.62-338.47-790.5-1.0457-5.2685 1.9285-11.457 5.7511-17.868 7.431-1.62 47.12-9.4856 47.12-9.4856" color="#000000" fill="#796b54" style="isolation:auto;mix-blend-mode:normal;text-decoration-color:#000000;text-decoration-line:none;text-decoration-style:solid;text-indent:0;text-transform:none;white-space:normal"/><path transform="matrix(1 0 0 .99999 -.013297 -.017092)" d="m362.57-259.15c78.308 388.02 186.7 615.85 307.36 751.7a670.08 670.1 0 0 0 37.407 38.914c116.89 112.7 244.64 150.88 377.27 169.95 15.639 2.2571 31.341 4.2371 47.092 6.0313 138.48 15.78 280.25 15.948 410.64 67.293a538.72 538.73 0 0 1 22.062 9.2513c133.39 59.491 249.17 179.73 327.04 421.34 1.6656 5.2856-1.0714 12.131-4.6083 19.325-7.354 2.4571-38.727 12.057-43.921 13.588-0.7514-0.01-1.2056-0.1029-1.2771-0.3143-73.054-235.79-174.11-342.02-292.47-397.42a479.32 479.34 0 0 0-24.587-10.728c-121.5-49.176-263.92-49.054-412.09-66.702a1816.2 1816.2 0 0 1-8.4281-1.0257c-151.79-18.797-310.16-59.922-449.26-200.53-2.817-2.8428-5.6283-5.7256-8.4282-8.6513-137.02-142.83-253.7-380.94-336.78-785.1-1.0142-5.1142 2.1285-11.171 6.1511-17.465 7.6853-1.6771 46.806-9.4399 46.806-9.4399" color="#000000" fill="#807059" style="isolation:auto;mix-blend-mode:normal;text-decoration-color:#000000;text-decoration-line:none;text-decoration-style:solid;text-indent:0;text-transform:none;white-space:normal"/><path transform="matrix(1 0 0 .99999 -.013297 -.017092)" d="m397.74-273.72c77.965 385.57 185.92 611.71 306.07 746.39a664.48 664.5 0 0 0 37.244 38.574c116.23 111.57 243.24 149.3 375.12 168.16a1583.7 1583.7 0 0 0 46.786 5.9599c137.57 15.6 278.41 15.837 407.95 66.848a535.34 535.36 0 0 1 21.913 9.1913c132.59 59.128 247.68 178.61 325.04 418.45 1.617 5.1257-1.3142 11.857-5.074 18.943-7.5997 2.54-38.59 12.04-43.626 13.523-0.7314-0.023-1.1771-0.1258-1.2485-0.3429-72.691-234.16-173.24-339.48-291.01-394.39a476.98 476.99 0 0 0-24.444-10.62c-120.72-48.659-262.22-48.548-409.44-66.059-2.7885-0.33143-5.5798-0.67142-8.3739-1.0171-150.83-18.657-308.21-59.468-446.49-198.9-2.7999-2.8228-5.5969-5.6828-8.3824-8.5827-136.36-141.8-252.46-378.25-335.1-779.67-0.98281-4.9599 2.3284-10.894 6.5482-17.065 7.9425-1.7314 46.498-9.397 46.498-9.397" color="#000000" fill="#7f6f58" style="isolation:auto;mix-blend-mode:normal;text-decoration-color:#000000;text-decoration-line:none;text-decoration-style:solid;text-indent:0;text-transform:none;white-space:normal"/><path transform="matrix(1 0 0 .99999 -.013297 -.017092)" d="m432.91-288.29c77.622 383.14 185.14 607.56 304.78 741.1a658.88 658.9 0 0 0 37.081 38.239c115.57 110.44 241.85 147.72 373.01 166.37a1583.9 1583.9 0 0 0 46.483 5.8913c136.66 15.42 276.56 15.72 405.27 66.399a531.97 531.99 0 0 1 21.77 9.1284c131.78 58.771 246.19 177.48 323.07 415.59 1.5656 4.9656-1.5628 11.583-5.5426 18.56-7.8425 2.6228-38.45 12.02-43.329 13.457-0.7142-0.034-1.1513-0.1515-1.2256-0.3715-72.328-232.53-172.37-336.94-289.59-391.37a474.63 474.65 0 0 0-24.296-10.514c-119.94-48.142-260.52-48.036-406.78-65.413-2.7713-0.32857-5.5426-0.66571-8.3196-1.0086-149.88-18.514-306.3-59.011-443.72-197.27-2.7884-2.8-5.5654-5.6371-8.3367-8.5142-135.7-140.77-251.22-375.57-333.41-774.27-0.95424-4.8056 2.5284-10.614 6.9425-16.663 8.1996-1.7885 46.189-9.3513 46.189-9.3513" color="#000000" fill="#80715b" style="isolation:auto;mix-blend-mode:normal;text-decoration-color:#000000;text-decoration-line:none;text-decoration-style:solid;text-indent:0;text-transform:none;white-space:normal"/><path transform="matrix(1 0 0 .99999 -.013297 -.017092)" d="m468.08-302.89c77.279 380.68 184.36 603.42 303.47 735.82a653.28 653.3 0 0 0 36.918 37.902c114.91 109.32 240.46 146.14 370.87 164.58a1584.4 1584.5 0 0 0 46.175 5.8228c135.76 15.243 274.71 15.608 402.58 65.95 7.2511 2.8571 14.459 5.8742 21.628 9.0684 130.98 58.411 244.7 176.35 321.07 412.71 1.5171 4.8057-1.8084 11.306-6.0054 18.177-8.0881 2.7028-38.312 12-43.038 13.391-0.6943-0.046-1.1228-0.1714-1.2-0.4028-71.968-230.9-171.5-334.39-288.16-388.34a472.32 472.34 0 0 0-24.15-10.406c-119.16-47.628-258.82-47.531-404.12-64.77-2.7541-0.3257-5.5083-0.65713-8.2653-0.99998-148.93-18.371-304.36-58.556-440.95-195.64a702.56 702.59 0 0 1-8.291-8.4484c-135.04-139.74-249.98-372.88-331.73-768.85-0.92281-4.6485 2.7284-10.331 7.3425-16.26 8.4567-1.8428 45.878-9.3056 45.878-9.3056" color="#000000" fill="#80715b" style="isolation:auto;mix-blend-mode:normal;text-decoration-color:#000000;text-decoration-line:none;text-decoration-style:solid;text-indent:0;text-transform:none;white-space:normal"/><path transform="matrix(1 0 0 .99999 -.013297 -.017092)" d="m503.25-317.46c76.936 378.25 183.58 599.28 302.18 730.53a647.71 647.73 0 0 0 36.755 37.565c114.25 108.19 239.07 144.56 368.72 162.79a1584.8 1584.9 0 0 0 45.869 5.7542c134.85 15.06 272.87 15.491 399.87 65.499a525.2 525.22 0 0 1 21.482 9.0113c130.18 58.048 243.21 175.23 319.1 409.85 1.4656 4.6457-2.0571 11.031-6.474 17.794-8.3339 2.7857-38.175 11.98-42.741 13.326-0.6771-0.06-1.0942-0.2-1.1742-0.4343-71.605-229.26-170.63-331.85-286.73-385.31a470.01 470.02 0 0 0-24.004-10.297c-118.38-47.111-257.12-47.022-401.47-64.128-2.7342-0.32286-5.4712-0.65428-8.2082-0.99142-147.98-18.228-302.44-58.099-438.21-194.01-2.757-2.7542-5.5054-5.5485-8.2453-8.3827-134.38-138.71-248.74-370.19-330.04-763.45-0.89139-4.4942 2.9284-10.051 7.7425-15.857 8.711-1.9 45.566-9.2627 45.566-9.2627" color="#000000" fill="#87765e" style="isolation:auto;mix-blend-mode:normal;text-decoration-color:#000000;text-decoration-line:none;text-decoration-style:solid;text-indent:0;text-transform:none;white-space:normal"/><path transform="matrix(1 0 0 .99999 -.013297 -.017092)" d="m538.41-332.04c76.596 375.82 182.81 595.13 300.9 725.25a642.17 642.19 0 0 0 36.592 37.228c113.59 107.06 237.68 142.97 366.58 160.99a1585.5 1585.5 0 0 0 45.566 5.6828c133.94 14.88 271.02 15.38 397.18 65.056a521.8 521.82 0 0 1 21.342 8.9456c129.38 57.688 241.72 174.1 317.1 406.97 1.4142 4.4857-2.3028 10.757-6.9425 17.411-8.5796 2.8657-38.038 11.963-42.446 13.26-0.6571-0.074-1.0656-0.22-1.1485-0.4657-71.242-227.63-169.76-329.31-285.29-382.28a467.66 467.68 0 0 0-23.862-10.191c-117.6-46.591-255.42-46.514-398.81-63.479-2.717-0.32285-5.4369-0.65142-8.1568-0.9857-147.02-18.088-300.5-57.645-435.44-192.37-2.7427-2.7314-5.4769-5.5028-8.1996-8.3142-133.72-137.68-247.5-367.51-328.36-758.02-0.85996-4.3371 3.1256-9.7684 8.1367-15.457 8.9681-1.9514 45.255-9.2142 45.255-9.2142" color="#000000" fill="#7f6f58" style="isolation:auto;mix-blend-mode:normal;text-decoration-color:#000000;text-decoration-line:none;text-decoration-style:solid;text-indent:0;text-transform:none;white-space:normal"/><path transform="matrix(1 0 0 .99999 -.013297 -.017092)" d="m573.58-346.63c76.253 373.39 182.03 591.02 299.59 719.93a636.65 636.68 0 0 0 36.432 36.891c112.92 105.93 236.29 141.4 364.44 159.21a1586.4 1586.5 0 0 0 45.261 5.6113c133.04 14.703 269.18 15.265 394.49 64.608a518.46 518.48 0 0 1 21.19 8.8856c128.58 57.328 240.23 172.98 315.13 404.11 1.3627 4.3257-2.5513 10.486-7.4111 17.028-8.8224 2.9486-37.898 11.943-42.149 13.194-0.64-0.086-1.04-0.2457-1.1228-0.4943-70.882-226-168.89-326.77-283.85-379.25a465.43 465.45 0 0 0-23.713-10.086c-116.82-46.071-253.72-46.002-396.15-62.833-2.697-0.31999-5.3998-0.6457-8.0996-0.97712-146.07-17.948-298.56-57.191-432.66-190.74a687.45 687.48 0 0 1-8.1539-8.2513c-133.06-136.65-246.26-364.82-326.67-752.62-0.82853-4.1856 3.3255-9.4884 8.5338-15.057 9.2253-2.0085 44.946-9.1713 44.946-9.1713" color="#000000" fill="#85745c" style="isolation:auto;mix-blend-mode:normal;text-decoration-color:#000000;text-decoration-line:none;text-decoration-style:solid;text-indent:0;text-transform:none;white-space:normal"/><path transform="matrix(1 0 0 .99999 -.013297 -.017092)" d="m608.75-361.21c75.91 370.94 181.25 586.88 298.3 714.65a631.11 631.13 0 0 0 36.267 36.551c112.26 104.81 234.89 139.82 362.3 157.41a1587.5 1587.6 0 0 0 44.961 5.5428c132.13 14.523 267.33 15.151 391.81 64.159 7.0568 2.78 14.074 5.7199 21.048 8.8284 127.77 56.968 238.74 171.85 313.13 401.22 1.3142 4.1657-2.7941 10.208-7.8767 16.646-9.0682 3.0285-37.761 11.923-41.855 13.128-0.6228-0.1-1.0114-0.2686-1.0971-0.5257-70.519-224.37-168.02-324.22-282.42-376.22-7.771-3.5514-15.628-6.8685-23.57-9.9798-116.04-45.556-252.01-45.496-393.49-62.19-2.6771-0.31428-5.3598-0.63999-8.0425-0.96856-145.12-17.805-296.64-56.733-429.89-189.11-2.7142-2.6857-5.4169-5.4142-8.1139-8.1799-132.4-135.62-245.01-362.14-324.98-747.19-0.79996-4.0285 3.5284-9.2084 8.931-14.651 9.4824-2.0657 44.638-9.1284 44.638-9.1284" color="#000000" fill="#887861" style="isolation:auto;mix-blend-mode:normal;text-decoration-color:#000000;text-decoration-line:none;text-decoration-style:solid;text-indent:0;text-transform:none;white-space:normal"/><path transform="matrix(1 0 0 .99999 -.013297 -.017092)" d="m643.92-375.78c75.568 368.51 180.47 582.73 296.99 709.36a625.63 625.65 0 0 0 36.104 36.217c111.6 103.68 233.5 138.23 360.15 155.63a1588.7 1588.7 0 0 0 44.655 5.4713c131.22 14.343 265.48 15.037 389.09 63.71a511.75 511.76 0 0 1 20.905 8.7656c126.97 56.608 237.25 170.72 311.16 398.34 1.2628 4.0057-3.0427 9.9342-8.3424 16.263-9.3138 3.1142-37.627 11.903-41.561 13.063-0.6057-0.1143-0.9857-0.2914-1.0742-0.5571-70.156-222.73-167.15-321.68-280.98-373.19a460.86 460.88 0 0 0-23.422-9.8713c-115.26-45.039-250.31-44.988-390.84-61.548-2.6627-0.31428-5.3254-0.63428-7.991-0.95999-144.17-17.665-294.7-56.279-427.12-187.48-2.697-2.6685-5.3854-5.3714-8.0653-8.1142-131.74-134.59-243.77-359.48-323.3-741.79-0.77139-3.8742 3.7255-8.9256 9.3281-14.248 9.7367-2.1228 44.326-9.0856 44.326-9.0856" color="#000000" fill="#7a6c55" style="isolation:auto;mix-blend-mode:normal;text-decoration-color:#000000;text-decoration-line:none;text-decoration-style:solid;text-indent:0;text-transform:none;white-space:normal"/><path transform="matrix(1 0 0 .99999 -.013297 -.017092)" d="m679.09-390.38c75.225 366.05 179.69 578.59 295.7 704.08a620.14 620.16 0 0 0 35.941 35.877c110.94 102.55 232.11 136.65 358.01 153.83a1590.2 1590.2 0 0 0 44.349 5.4028c130.31 14.163 263.63 14.923 386.41 63.265 6.9625 2.74 13.885 5.6371 20.759 8.7027 126.17 56.248 235.77 169.6 309.18 395.48 1.2143 3.8428-3.2855 9.657-8.8081 15.88-9.5595 3.1942-37.487 11.886-41.266 13-0.5857-0.1286-0.9542-0.3172-1.0457-0.5886-69.796-221.1-166.28-319.17-279.55-370.17a458.63 458.65 0 0 0-23.279-9.7627c-114.48-44.522-248.61-44.482-388.21-60.905-2.6428-0.30857-5.2855-0.62856-7.9339-0.95141-143.22-17.523-292.79-55.825-424.38-185.85-2.6827-2.6457-5.3569-5.3285-8.0225-8.0484-131.08-133.56-242.53-356.79-321.61-736.39-0.7371-3.7171 3.9255-8.6427 9.7252-13.846 9.9938-2.18 44.018-9.0399 44.018-9.0399" color="#000000" fill="#86745d" style="isolation:auto;mix-blend-mode:normal;text-decoration-color:#000000;text-decoration-line:none;text-decoration-style:solid;text-indent:0;text-transform:none;white-space:normal"/><path transform="matrix(1 0 0 .99999 -.013297 -.017092)" d="m714.26-404.95c74.882 363.62 178.91 574.45 294.41 698.79a614.68 614.71 0 0 0 35.778 35.542c110.28 101.42 230.72 135.07 355.87 152.04 14.628 1.9942 29.313 3.7428 44.044 5.3342 129.41 13.983 261.79 14.808 383.72 62.813 6.9139 2.7228 13.785 5.5999 20.616 8.6456 125.37 55.885 234.27 168.47 307.18 392.59 1.16 3.6857-3.5341 9.3856-9.2767 15.494-9.8023 3.2771-37.35 11.868-40.969 12.934-0.5686-0.14-0.9286-0.34-1.0228-0.61714-69.431-219.47-165.41-316.62-278.11-367.11a456.38 456.39 0 0 0-23.13-9.657c-113.7-44.005-246.91-43.971-385.55-60.256-2.6228-0.30857-5.2483-0.62285-7.8768-0.94284-142.27-17.385-290.84-55.371-421.61-184.22a667.2 667.22 0 0 1-7.9767-7.9799c-130.42-132.54-241.29-354.11-319.93-730.96-0.70854-3.5657 4.1226-8.3656 10.122-13.448 10.248-2.2314 43.704-8.9913 43.704-8.9913" color="#000000" fill="#80715b" style="isolation:auto;mix-blend-mode:normal;text-decoration-color:#000000;text-decoration-line:none;text-decoration-style:solid;text-indent:0;text-transform:none;white-space:normal"/><path transform="matrix(1 0 0 .99999 -.013297 -.017092)" d="m749.43-419.52c74.539 361.19 178.13 570.31 293.1 693.48a609.23 609.25 0 0 0 35.615 35.202c109.61 100.29 229.33 133.49 353.75 150.25a1593.8 1593.8 0 0 0 43.741 5.2628c128.5 13.803 259.94 14.694 381.01 62.368a501.57 501.59 0 0 1 20.47 8.5827c124.57 55.525 232.79 167.34 305.18 389.74 1.1143 3.5228-3.7798 9.1113-9.7423 15.114-10.048 3.3571-37.21 11.846-40.675 12.866-0.5486-0.15142-0.9-0.36285-0.9971-0.64856-69.068-217.84-164.54-314.08-276.68-364.08-7.5768-3.4-15.239-6.5713-22.987-9.5484-112.92-43.488-245.2-43.465-382.9-59.613-2.6056-0.30571-5.214-0.61713-7.8253-0.93713-141.32-17.24-288.93-54.913-418.84-182.58-2.6542-2.6-5.2969-5.2399-7.9339-7.9142-129.76-131.5-240.05-351.42-318.24-725.53-0.67711-3.4114 4.3226-8.0856 10.519-13.046 10.505-2.2857 43.398-8.9484 43.398-8.9484" color="#000000" fill="#87765e" style="isolation:auto;mix-blend-mode:normal;text-decoration-color:#000000;text-decoration-line:none;text-decoration-style:solid;text-indent:0;text-transform:none;white-space:normal"/><path transform="matrix(1 0 0 .99999 -.013297 -.017092)" d="m784.63-434.12c74.196 358.74 177.35 566.16 291.81 688.19a603.8 603.82 0 0 0 35.455 34.868c108.95 99.164 227.93 131.91 351.58 148.46 14.428 1.9428 28.913 3.6457 43.435 5.1971 127.59 13.623 258.1 14.58 378.32 61.916a498.18 498.19 0 0 1 20.325 8.5227c123.77 55.165 231.3 166.22 303.21 386.85 1.0628 3.3628-4.0226 8.837-10.208 14.728-10.294 3.4428-37.072 11.828-40.378 12.803-0.5314-0.16571-0.8743-0.38571-0.9714-0.67713-68.711-216.21-163.67-311.54-275.24-361.05a451.95 451.96 0 0 0-22.842-9.4427c-112.14-42.971-243.5-42.956-380.24-58.971a1674.9 1674.9 0 0 1-7.7711-0.9257c-140.36-17.1-286.99-54.456-416.06-180.95-2.6341-2.5771-5.2654-5.1942-7.8853-7.8456-129.11-130.48-238.81-348.74-316.56-720.13-0.64568-3.2571 4.5255-7.8056 10.917-12.646 10.762-2.3428 43.084-8.9027 43.084-8.9027" color="#000000" fill="#807059" style="isolation:auto;mix-blend-mode:normal;text-decoration-color:#000000;text-decoration-line:none;text-decoration-style:solid;text-indent:0;text-transform:none;white-space:normal"/><path transform="matrix(1 0 0 .99999 -.013297 -.017092)" d="m819.8-448.69c73.853 356.31 176.57 562.02 290.5 682.9a598.37 598.39 0 0 0 35.29 34.531c108.29 98.039 226.54 130.33 349.47 146.67a1598 1598.1 0 0 0 43.126 5.1256c126.69 13.443 256.25 14.466 375.64 61.471a494.83 494.85 0 0 1 20.185 8.4627c122.96 54.805 229.81 165.09 301.24 383.99 1.0114 3.2028-4.2712 8.5599-10.674 14.346-10.542 3.5228-36.938 11.808-40.084 12.737-0.5143-0.17714-0.8486-0.40856-0.9486-0.70856-68.345-214.57-162.8-309-273.81-358.02a449.72 449.74 0 0 0-22.696-9.3342c-111.36-42.454-241.8-42.448-377.58-58.325-2.5684-0.3-5.1397-0.60571-7.7139-0.91999-139.41-16.957-285.06-54.002-413.29-179.32-2.6199-2.5571-5.234-5.1485-7.8425-7.7799-128.45-129.45-237.57-346.05-314.87-714.73-0.61711-3.1 4.7226-7.5199 11.314-12.24 11.017-2.4 42.775-8.857 42.775-8.857" color="#000000" fill="#7f6f58" style="isolation:auto;mix-blend-mode:normal;text-decoration-color:#000000;text-decoration-line:none;text-decoration-style:solid;text-indent:0;text-transform:none;white-space:normal"/><path transform="matrix(1 0 0 .99999 -.013297 -.017092)" d="m854.97-463.29c73.511 353.88 175.79 557.88 289.21 677.62a593 593.02 0 0 0 35.127 34.194c107.63 96.91 225.15 128.74 347.33 144.88 14.225 1.8857 28.504 3.5428 42.824 5.0571 125.78 13.263 254.4 14.351 372.95 61.022 6.7197 2.6457 13.399 5.4428 20.036 8.3999 122.16 54.445 228.32 163.96 299.24 381.11 0.96 3.0428-4.5169 8.2856-11.142 13.963-10.785 3.6057-36.798 11.788-39.789 12.671-0.4943-0.19143-0.8199-0.43142-0.9228-0.73999-67.982-212.94-161.93-306.45-272.38-354.99a447.52 447.54 0 0 0-22.547-9.2284c-110.58-41.937-240.1-41.942-374.92-57.682-2.5542-0.29714-5.1055-0.59999-7.6625-0.91141-138.46-16.817-283.13-53.548-410.52-177.69-2.6056-2.5371-5.2055-5.1085-7.7996-7.7142-127.79-128.42-236.33-343.37-313.18-709.3-0.58569-2.9428 4.9226-7.237 11.711-11.837 11.274-2.4571 42.466-8.8142 42.466-8.8142" color="#000000" fill="#7b6d58" style="isolation:auto;mix-blend-mode:normal;text-decoration-color:#000000;text-decoration-line:none;text-decoration-style:solid;text-indent:0;text-transform:none;white-space:normal"/><path transform="matrix(1 0 0 .99999 -.013297 -.017092)" d="m890.14-477.86c73.173 351.42 175.01 553.73 287.93 672.33a587.63 587.65 0 0 0 34.967 33.857c106.97 95.779 223.76 127.16 345.18 143.09a1603.4 1603.4 0 0 0 42.518 4.9856c124.88 13.086 252.56 14.237 370.27 60.573 6.6711 2.6285 13.302 5.4028 19.89 8.3427 121.36 54.082 226.83 162.83 297.27 378.25 0.9085 2.8857-4.7655 8.0142-11.611 13.583-11.028 3.6857-36.661 11.771-39.495 12.606-0.4743-0.20571-0.7885-0.45713-0.8942-0.77141-67.622-211.31-161.06-303.91-270.94-351.97a445.35 445.36 0 0 0-22.405-9.1199c-109.8-41.417-238.4-41.431-372.27-57.036-2.5313-0.29428-5.0654-0.59428-7.6025-0.90285-137.51-16.674-281.2-53.091-407.78-176.05-2.5913-2.5142-5.1768-5.0628-7.7539-7.6485-127.13-127.39-235.09-340.68-311.53-703.9-0.5514-2.7914 5.1226-6.9599 12.108-11.437 11.531-2.5114 42.155-8.7713 42.155-8.7713" color="#000000" fill="#7b6d56" style="isolation:auto;mix-blend-mode:normal;text-decoration-color:#000000;text-decoration-line:none;text-decoration-style:solid;text-indent:0;text-transform:none;white-space:normal"/></g><path transform="matrix(1 0 0 .99999 -.013297 -.017092)" d="m925.31-492.43c72.825 348.99 174.23 549.59 286.61 667.02a582.26 582.28 0 0 0 34.804 33.52c106.3 94.653 222.37 125.58 343.04 141.3a1606.5 1606.6 0 0 0 42.215 4.9142c123.97 12.906 250.71 14.126 367.55 60.128a484.75 484.76 0 0 1 19.748 8.2799c120.55 53.722 225.34 161.71 295.27 375.37 0.8571 2.7257-5.0083 7.7428-12.076 13.2-11.274 3.7685-36.521 11.751-39.198 12.54-0.4571-0.21714-0.7628-0.47999-0.8713-0.79999-67.26-209.67-160.19-301.37-269.51-348.94a443.21 443.22 0 0 0-22.256-9.0113c-109.02-40.902-236.7-40.925-369.61-56.391-2.5141-0.29428-5.0312-0.59142-7.551-0.89713-136.56-16.534-279.26-52.636-405.01-174.43-2.5741-2.4885-5.1426-5.0142-7.7053-7.577-126.47-126.36-233.85-337.99-309.81-698.48-0.52283-2.6342 5.3197-6.677 12.505-11.034 11.785-2.5685 41.844-8.7256 41.844-8.7256" color="#000000" fill="#86745d" fill-opacity=".99608" fill-rule="evenodd" style="isolation:auto;mix-blend-mode:normal;text-decoration-color:#000000;text-decoration-line:none;text-decoration-style:solid;text-indent:0;text-transform:none;white-space:normal"/><g fill-rule="evenodd"><path transform="matrix(1 0 0 .99999 -.013297 -.017092)" d="m960.48-507c72.488 346.57 173.45 545.48 285.33 661.73a576.94 576.96 0 0 0 34.635 33.18c105.64 93.527 220.97 124 340.9 139.51 13.922 1.8057 27.896 3.3942 41.909 4.8428 123.06 12.726 248.86 14.011 364.87 59.679a481.35 481.36 0 0 1 19.605 8.2199c119.75 53.362 223.85 160.58 293.3 372.51 0.8085 2.5657-5.2569 7.4656-12.542 12.817-11.519 3.8485-36.387 11.731-38.907 12.474-0.4371-0.22857-0.7342-0.50285-0.8457-0.82856-66.897-208.05-159.32-298.82-268.07-345.91-7.2854-3.1685-14.656-6.1313-22.113-8.9056-108.24-40.382-235-40.414-366.95-55.745-2.4941-0.29142-4.994-0.5857-7.4939-0.88856-135.6-16.391-277.33-52.182-402.24-172.79-2.5599-2.4685-5.114-4.9714-7.6625-7.5142-125.81-125.33-232.6-335.31-308.16-693.08-0.4914-2.48 5.5226-6.397 12.902-10.628 12.042-2.6285 41.535-8.6856 41.535-8.6856" color="#000000" fill="#86745d" style="isolation:auto;mix-blend-mode:normal;text-decoration-color:#000000;text-decoration-line:none;text-decoration-style:solid;text-indent:0;text-transform:none;white-space:normal"/><path transform="matrix(1 0 0 .99999 -.013297 -.017092)" d="m995.65-521.6c72.148 344.11 172.68 541.33 284.03 656.45a571.6 571.62 0 0 0 34.478 32.845c104.98 92.399 219.58 122.42 338.75 137.72a1613.5 1613.5 0 0 0 41.604 4.7771c122.16 12.543 247.02 13.894 362.18 59.231 6.5283 2.5714 13.014 5.2856 19.459 8.157 118.95 53.005 222.36 159.46 291.3 369.62 0.76 2.4028-5.5026 7.1913-13.008 12.434-11.765 3.9314-36.25 11.714-38.61 12.408-0.4229-0.24285-0.7086-0.5257-0.82-0.85999-66.537-206.41-158.45-296.28-266.64-342.88a438.89 438.91 0 0 0-21.965-8.7999c-107.46-39.868-233.3-39.908-364.32-55.102-2.4799-0.28571-4.9598-0.58-7.4397-0.87999-134.66-16.251-275.41-51.725-399.47-171.16-2.5456-2.4457-5.0855-4.9285-7.6168-7.4456-125.15-124.3-231.37-332.62-306.47-687.65-0.45998-2.3228 5.7226-6.1142 13.299-10.228 12.299-2.68 41.227-8.637 41.227-8.637" color="#000000" fill="#887861" style="isolation:auto;mix-blend-mode:normal;text-decoration-color:#000000;text-decoration-line:none;text-decoration-style:solid;text-indent:0;text-transform:none;white-space:normal"/><path transform="matrix(1 0 0 .99999 -.013297 -.017092)" d="m1030.8-536.17c71.805 341.68 171.89 537.19 282.73 651.16a566.31 566.33 0 0 0 34.313 32.505c104.32 91.27 218.19 120.84 336.61 135.93a1617.5 1617.5 0 0 0 41.301 4.7056c121.25 12.366 245.17 13.783 359.47 58.785a474.63 474.65 0 0 1 19.313 8.097c118.15 52.642 220.87 158.33 289.33 366.74 0.7085 2.2428-5.7483 6.9142-13.476 12.051-12.008 4.0142-36.112 11.691-38.312 12.343-0.4057-0.25714-0.6828-0.55142-0.7971-0.89142-66.174-204.78-157.58-293.74-265.2-339.85a436.81 436.82 0 0 0-21.822-8.6942c-106.68-39.348-231.59-39.399-361.67-54.456-2.457-0.28571-4.9198-0.57428-7.3854-0.87142-133.7-16.108-273.47-51.271-396.69-169.53-2.5313-2.4257-5.0569-4.8856-7.5711-7.3799-124.49-123.27-230.12-329.94-304.78-682.25-0.42855-2.1714 5.9197-5.8342 13.696-9.8284 12.554-2.7342 40.912-8.5913 40.912-8.5913" color="#000000" fill="#88765f" style="isolation:auto;mix-blend-mode:normal;text-decoration-color:#000000;text-decoration-line:none;text-decoration-style:solid;text-indent:0;text-transform:none;white-space:normal"/><path transform="matrix(1 0 0 .99999 -.013297 -.017092)" d="m1066-550.77c71.462 339.25 171.11 533.05 281.44 645.88a561.03 561.05 0 0 0 34.152 32.171c103.65 90.142 216.8 119.26 334.47 134.14a1621.8 1621.9 0 0 0 40.998 4.6342c120.34 12.188 243.32 13.668 356.78 58.336a471.21 471.22 0 0 1 19.17 8.037c117.35 52.282 219.38 157.21 287.33 363.88 0.6571 2.0857-5.9969 6.6428-13.942 11.668-12.256 4.0942-35.975 11.674-38.021 12.277a1.9199 1.92 0 0 1-0.7714-0.92284c-65.811-203.15-156.71-291.2-263.76-336.82-7.1425-3.0571-14.371-5.9142-21.676-8.5856-105.91-38.834-229.89-38.891-359.01-53.813-2.4398-0.28-4.8854-0.57142-7.3282-0.86285-132.75-15.965-271.54-50.814-393.95-167.9-2.5141-2.4-5.0226-4.8399-7.5253-7.3142-123.83-122.24-228.88-327.25-303.1-676.82-0.3999-2.0143 6.1197-5.5542 14.094-9.4256 12.811-2.7914 40.604-8.5484 40.604-8.5484" color="#000000" fill="#81725c" style="isolation:auto;mix-blend-mode:normal;text-decoration-color:#000000;text-decoration-line:none;text-decoration-style:solid;text-indent:0;text-transform:none;white-space:normal"/><path transform="matrix(1 0 0 .99999 -.013297 -.017092)" d="m1101.2-565.35c71.119 336.79 170.33 528.91 280.14 640.56a555.77 555.79 0 0 0 33.987 31.834c102.99 89.013 215.41 117.67 332.33 132.34a1626.4 1626.5 0 0 0 40.692 4.5685c119.43 12.006 241.47 13.554 354.1 57.888a467.86 467.88 0 0 1 19.028 7.9742c116.54 51.922 217.89 156.08 285.35 361.02 0.6057 1.9228-6.2397 6.3685-14.411 11.286-12.499 4.1771-35.832 11.654-37.724 12.211a2.0742 2.0743 0 0 1-0.7428-0.95141c-65.451-201.51-155.84-288.65-262.33-333.8a432.61 432.62 0 0 0-21.533-8.477c-105.12-38.317-228.19-38.385-356.35-53.171-2.4227-0.27714-4.8483-0.56285-7.2739-0.85713-131.8-15.823-269.62-50.356-391.18-166.26a612.28 612.31 0 0 1-7.4825-7.2485c-123.17-121.21-227.64-324.6-301.41-671.42-0.3685-1.8571 6.3197-5.2714 14.494-9.0227 13.065-2.8457 40.292-8.5027 40.292-8.5027" color="#000000" fill="#81725c" style="isolation:auto;mix-blend-mode:normal;text-decoration-color:#000000;text-decoration-line:none;text-decoration-style:solid;text-indent:0;text-transform:none;white-space:normal"/><path transform="matrix(1 0 0 .99999 -.013297 -.017092)" d="m1136.3-579.92c70.776 334.37 169.55 524.76 278.84 635.28a550.54 550.56 0 0 0 33.827 31.497c102.33 87.884 214.02 116.09 330.21 130.56 13.416 1.6771 26.884 3.1514 40.384 4.4971 118.53 11.828 239.63 13.44 351.41 57.442 6.334 2.4914 12.628 5.1285 18.882 7.9142 115.74 51.559 216.41 154.95 283.37 358.14 0.5543 1.76-6.4854 6.0885-14.876 10.897-12.745 4.2599-35.698 11.637-37.43 12.148a2.2656 2.2657 0 0 1-0.72-0.98284c-65.085-199.88-154.96-286.11-260.9-330.74a430.58 430.59 0 0 0-21.388-8.3713c-104.34-37.799-226.49-37.874-353.7-52.522-2.4028-0.27714-4.8112-0.55999-7.2197-0.84856-130.85-15.685-267.68-49.905-388.41-164.63-2.4856-2.36-4.9626-4.7542-7.4339-7.1799-122.52-120.19-226.4-321.91-299.73-665.99-0.34-1.7028 6.5197-4.9914 14.885-8.6199 13.325-2.9028 39.986-8.457 39.986-8.457" color="#000000" fill="#87765e" style="isolation:auto;mix-blend-mode:normal;text-decoration-color:#000000;text-decoration-line:none;text-decoration-style:solid;text-indent:0;text-transform:none;white-space:normal"/><path transform="matrix(1 0 0 .99999 -.013297 -.017092)" d="m1171.5-594.51c70.434 331.94 168.78 520.62 277.55 629.99a545.34 545.36 0 0 0 33.661 31.16c101.67 86.756 212.62 114.51 328.07 128.76 13.314 1.6514 26.679 3.1 40.081 4.4285 117.62 11.646 237.78 13.326 348.73 56.991a461.09 461.11 0 0 1 18.736 7.8542c114.94 51.199 214.92 153.83 281.38 355.25 0.5057 1.6-6.7339 5.817-15.342 10.517-12.991 4.3428-35.561 11.617-37.135 12.083a2.5027 2.5028 0 0 1-0.6914-1.0143c-64.725-198.25-154.1-283.58-259.46-327.71a428.49 428.51 0 0 0-21.239-8.2656c-103.57-37.282-224.79-37.368-351.04-51.879a1549.9 1549.9 0 0 1-7.1654-0.83999c-129.9-15.543-265.75-49.448-385.64-163a602.31 602.33 0 0 1-7.3939-7.1142c-121.85-119.16-225.16-319.22-298.04-660.59-0.3086-1.5514 6.7197-4.7114 15.285-8.2199 13.582-2.9571 39.675-8.4142 39.675-8.4142" color="#000000" fill="#81725c" style="isolation:auto;mix-blend-mode:normal;text-decoration-color:#000000;text-decoration-line:none;text-decoration-style:solid;text-indent:0;text-transform:none;white-space:normal"/><path transform="matrix(1 0 0 .99999 -.013297 -.017092)" d="m1206.7-609.09c70.096 329.48 168 516.48 276.26 624.7a540.14 540.16 0 0 0 33.498 30.822c101.01 85.627 211.23 112.93 325.93 126.98a1642.7 1642.7 0 0 0 39.775 4.3571c116.71 11.468 235.93 13.211 346.01 56.542 6.2368 2.4571 12.434 5.0514 18.59 7.7942 114.14 50.842 213.43 152.7 279.4 352.39 0.4571 1.4428-6.9796 5.5428-15.811 10.134-13.234 4.4256-35.421 11.6-36.838 12.017a2.7999 2.8 0 0 1-0.6685-1.0428c-64.362-196.62-153.23-281.04-258.03-324.68a426.46 426.48 0 0 0-21.096-8.1599c-102.78-36.762-223.08-36.857-348.38-51.234-2.3684-0.27143-4.7369-0.54856-7.1082-0.83142-128.95-15.4-263.82-48.994-382.87-161.37-2.457-2.3143-4.9026-4.6628-7.3453-7.0456-121.2-118.13-223.92-316.54-296.36-655.19-0.2743-1.3943 6.9196-4.4285 15.685-7.817 13.836-3.0142 39.361-8.3713 39.361-8.3713" color="#000000" fill="#85745c" style="isolation:auto;mix-blend-mode:normal;text-decoration-color:#000000;text-decoration-line:none;text-decoration-style:solid;text-indent:0;text-transform:none;white-space:normal"/><path transform="matrix(1 0 0 .99999 -.013297 -.017092)" d="m1241.9-623.67c69.751 327.05 167.22 512.34 274.96 619.42a534.97 534.99 0 0 0 33.335 30.485c100.35 84.499 209.84 111.35 323.78 125.18 13.114 1.5971 26.276 3 39.47 4.2856 115.81 11.288 234.09 13.1 343.33 56.096a454.32 454.34 0 0 1 18.45 7.7342c113.34 50.479 211.94 151.57 277.41 349.51 0.4029 1.2828-7.2282 5.2685-16.279 9.7513-13.479 4.5056-35.284 11.58-36.541 11.951-0.2943-0.33713-0.5142-0.69142-0.6457-1.0743-64-194.99-152.36-278.5-256.59-321.65-6.8997-2.8685-13.885-5.5428-20.948-8.0513-102.01-36.248-221.38-36.351-345.73-50.591-2.3485-0.26857-4.6998-0.54285-7.054-0.82285-127.99-15.257-261.89-48.539-380.1-159.74a592.37 592.39 0 0 1-7.3024-6.9799c-120.54-117.1-222.67-313.85-294.67-649.76-0.2457-1.24 7.1168-4.1485 16.079-7.4142 14.094-3.0714 39.055-8.3256 39.055-8.3256" color="#000000" fill="#85745c" style="isolation:auto;mix-blend-mode:normal;text-decoration-color:#000000;text-decoration-line:none;text-decoration-style:solid;text-indent:0;text-transform:none;white-space:normal"/><path transform="matrix(1 0 0 .99999 -.013297 -.017092)" d="m1277-638.25c69.408 324.62 166.44 508.19 273.66 614.11a529.83 529.85 0 0 0 33.173 30.148c99.681 83.373 208.45 109.77 321.64 123.39 13.014 1.5714 26.073 2.9542 39.167 4.2199 114.9 11.106 232.24 12.983 340.64 55.648 6.1426 2.4171 12.242 4.9714 18.305 7.6713 112.54 50.119 210.45 150.45 275.43 346.65 0.3543 1.12-7.471 4.9942-16.742 9.3713a3829.8 3829.9 0 0 1-36.25 11.883c-0.2743-0.34857-0.4857-0.71428-0.6171-1.1057-63.64-193.35-151.49-275.95-255.16-318.62-6.8511-2.8285-13.788-5.4714-20.805-7.9427-101.22-35.731-219.68-35.842-343.07-49.945-2.3313-0.26856-4.6655-0.53999-6.9997-0.81713-127.04-15.117-259.96-48.085-377.35-158.11-2.4285-2.2714-4.8455-4.5742-7.2568-6.9142-119.88-116.06-221.43-311.17-292.99-644.33-0.2142-1.0857 7.3168-3.8657 16.476-7.0113 14.351-3.1257 38.744-8.2799 38.744-8.2799" color="#000000" fill="#86745d" style="isolation:auto;mix-blend-mode:normal;text-decoration-color:#000000;text-decoration-line:none;text-decoration-style:solid;text-indent:0;text-transform:none;white-space:normal"/><path transform="matrix(1 0 0 .99999 -.013297 -.017092)" d="m1312.2-652.83c69.065 322.17 165.66 504.08 272.36 608.82a524.72 524.73 0 0 0 33.01 29.811c99.024 82.244 207.06 108.18 319.5 121.6 12.914 1.5428 25.87 2.9028 38.861 4.1485 113.99 10.928 230.39 12.871 337.93 55.199 6.0911 2.4 12.148 4.9342 18.159 7.6113 111.74 49.759 208.96 149.32 273.44 343.77 0.3028 0.95998-7.7196 4.7199-17.211 8.9856-13.971 4.6685-35.01 11.543-35.955 11.82-0.2572-0.36285-0.4572-0.73999-0.5914-1.1343-63.277-191.72-150.62-273.41-253.72-315.6-6.8025-2.7914-13.691-5.3999-20.656-7.837-100.45-35.211-217.98-35.334-340.44-49.299-2.3142-0.26571-4.6284-0.53428-6.9425-0.80856-126.09-14.977-258.03-47.628-374.58-156.47-2.4085-2.2485-4.8112-4.5285-7.2111-6.8456-119.22-115.04-220.19-308.48-291.3-638.93-0.1828-0.92856 7.5196-3.5828 16.876-6.6085 14.605-3.1828 38.432-8.2342 38.432-8.2342" color="#000000" fill="#86745d" style="isolation:auto;mix-blend-mode:normal;text-decoration-color:#000000;text-decoration-line:none;text-decoration-style:solid;text-indent:0;text-transform:none;white-space:normal"/><path transform="matrix(1 0 0 .99999 -.013297 -.017092)" d="m1347.4-667.41c68.722 319.74 164.88 499.94 271.07 603.53a519.6 519.62 0 0 0 32.847 29.474c98.361 81.116 205.66 106.61 317.36 119.81 12.811 1.5171 25.667 2.8542 38.558 4.0771 113.09 10.748 228.55 12.757 335.24 54.753a444.23 444.25 0 0 1 18.016 7.5513c110.93 49.399 207.47 148.19 271.46 340.91 0.2543 0.79999-7.9625 4.4456-17.676 8.6027a4874.3 4874.5 0 0 1-35.658 11.754c-0.2371-0.37428-0.4314-0.76285-0.5685-1.1657-62.911-190.09-149.74-270.87-252.29-312.57a418.55 418.57 0 0 0-20.513-7.7284c-99.664-34.697-216.27-34.828-337.75-48.656-2.2971-0.25999-4.5912-0.52856-6.8911-0.79998-125.14-14.834-256.1-47.171-371.81-154.84-2.397-2.2285-4.7855-4.4856-7.1682-6.7799-118.56-114.01-218.95-305.82-289.61-633.53-0.1543-0.77713 7.7139-3.3057 17.271-6.2085 14.862-3.2371 38.124-8.1913 38.124-8.1913" color="#000000" fill="#87765e" style="isolation:auto;mix-blend-mode:normal;text-decoration-color:#000000;text-decoration-line:none;text-decoration-style:solid;text-indent:0;text-transform:none;white-space:normal"/><path transform="matrix(1 0 0 .99999 -.013297 -.017092)" d="m1382.5-681.99c68.379 317.28 164.1 495.79 269.77 598.25a514.52 514.54 0 0 0 32.684 29.137c97.698 79.987 204.27 105.02 315.21 118.02a1678.7 1678.7 0 0 0 38.255 4.0085c112.18 10.568 226.7 12.643 332.55 54.305a440.89 440.91 0 0 1 17.87 7.4856c110.13 49.042 205.98 147.07 269.47 338.02 0.2 0.63999-8.211 4.1714-18.142 8.2199a5807.7 5807.9 0 0 1-35.367 11.686c-0.22-0.38571-0.4028-0.78284-0.5428-1.1943-62.551-188.45-148.87-268.33-250.85-309.54-6.7054-2.7142-13.496-5.2485-20.365-7.6227-98.886-34.177-214.58-34.317-335.13-48.011-2.277-0.25714-4.5541-0.52285-6.834-0.79142-124.19-14.694-254.17-46.716-369.04-153.21-2.3799-2.2057-4.7541-4.4428-7.1197-6.7142-117.9-112.98-217.71-303.14-287.93-628.1-0.1229-0.61999 7.9138-3.0228 17.668-5.8056a12600 12601 0 0 1 37.812-8.1456" color="#000000" fill="#87765e" style="isolation:auto;mix-blend-mode:normal;text-decoration-color:#000000;text-decoration-line:none;text-decoration-style:solid;text-indent:0;text-transform:none;white-space:normal"/><path transform="matrix(1 0 0 .99999 -.013297 -.017092)" d="m1417.7-696.57c68.04 314.85 163.32 491.65 268.47 592.96a509.49 509.51 0 0 0 32.527 28.8c97.032 78.862 202.88 103.44 313.07 116.23 12.611 1.4657 25.264 2.7571 37.95 3.9428 111.27 10.386 224.85 12.526 329.87 53.856 5.9454 2.34 11.856 4.8142 17.725 7.4285 109.33 48.676 204.49 145.94 267.49 335.17 0.1514 0.48-8.4567 3.8971-18.613 7.837-14.705 4.9142-34.596 11.483-35.067 11.62-0.2-0.4-0.3771-0.80571-0.5142-1.2228-62.194-186.83-148.01-265.79-249.42-306.51-6.6569-2.6771-13.399-5.1771-20.222-7.5142-98.106-33.66-212.88-33.811-332.47-47.368-2.257-0.25714-4.514-0.51428-6.7768-0.78284-123.24-14.551-252.24-46.262-366.27-151.58a567.83 567.85 0 0 1-7.0768-6.6456c-117.24-111.95-216.47-300.45-286.24-622.7-0.094-0.4657 8.1139-2.7428 18.065-5.3999 15.371-3.3514 37.501-8.1056 37.501-8.1056" color="#000000" fill="#7b6d58" style="isolation:auto;mix-blend-mode:normal;text-decoration-color:#000000;text-decoration-line:none;text-decoration-style:solid;text-indent:0;text-transform:none;white-space:normal"/><path transform="matrix(1 0 0 .99999 -.013297 -.017092)" d="m1452.9-711.15c67.697 312.42 162.54 487.51 267.18 587.65a504.46 504.48 0 0 0 32.361 28.462c96.372 77.733 201.48 101.86 310.96 114.44 12.505 1.44 25.059 2.7057 37.641 3.8714 110.37 10.208 223.01 12.411 327.18 53.408a434.09 434.11 0 0 1 17.582 7.3685c108.53 48.316 203 144.81 265.5 332.28 0.1028 0.32285-8.7025 3.6256-19.076 7.457-14.951 4.9971-34.458 11.463-34.773 11.554a14.428 14.428 0 0 1-0.4942-1.2571c-61.826-185.19-147.14-263.24-247.98-303.48a412.84 412.85 0 0 0-20.073-7.4085c-97.326-33.142-211.17-33.302-329.81-46.725-2.2371-0.25142-4.4798-0.51142-6.7226-0.77427-122.29-14.411-250.31-45.805-363.52-149.95-2.3513-2.1628-4.6941-4.3542-7.0311-6.5799-116.58-110.92-215.23-297.77-284.55-617.28-0.063-0.31428 8.3139-2.4628 18.462-4.9999 15.628-3.4085 37.192-8.0599 37.192-8.0599" color="#000000" fill="#7f6f58" style="isolation:auto;mix-blend-mode:normal;text-decoration-color:#000000;text-decoration-line:none;text-decoration-style:solid;text-indent:0;text-transform:none;white-space:normal"/><path transform="matrix(1 0 0 .99999 -.013297 -.017092)" d="m1488.1-725.73c67.354 309.97 161.76 483.36 265.88 582.36a499.46 499.48 0 0 0 32.198 28.125c95.71 76.605 200.09 100.28 308.81 112.65 12.405 1.4114 24.856 2.6571 37.338 3.7999 109.46 10.028 221.16 12.3 324.47 52.962a430.72 430.74 0 0 1 17.436 7.3056c107.72 47.956 201.51 143.69 263.52 329.42 0.048 0.16-8.951 3.3457-19.545 7.0713a20070 20071 0 0 1-34.478 11.488c-0.1657-0.42571-0.3228-0.85427-0.4656-1.2857-61.468-183.56-146.26-260.7-246.55-300.45-6.5625-2.6-13.205-5.0285-19.93-7.3028-96.547-32.628-209.47-32.794-327.16-46.076-2.2199-0.25142-4.4426-0.50856-6.6682-0.77142-121.33-14.266-248.38-45.348-360.75-148.31-2.3342-2.14-4.6626-4.3085-6.9854-6.5113-115.92-109.9-213.99-295.08-282.87-611.88-0.029-0.15714 8.5138-2.18 18.862-4.5999 15.885-3.4599 36.881-8.0142 36.881-8.0142" color="#000000" fill="#887861" style="isolation:auto;mix-blend-mode:normal;text-decoration-color:#000000;text-decoration-line:none;text-decoration-style:solid;text-indent:0;text-transform:none;white-space:normal"/><path transform="matrix(1 0 0 .99999 -.013297 -.017092)" d="m1523.2-740.31c67.011 307.54 160.98 479.22 264.58 577.08a494.49 494.51 0 0 0 32.036 27.791c95.047 75.476 198.7 98.699 306.67 110.86 12.305 1.3886 24.656 2.6085 37.032 3.7314 108.55 9.8513 219.31 12.186 321.78 52.513 5.7997 2.2857 11.565 4.6971 17.291 7.2456 106.92 47.599 200.02 142.56 261.53 326.54a11885811 11886227 0 0 1-54.192 18.114l-0.4429-1.3143c-61.103-181.93-145.39-258.17-245.12-297.42a409.15 409.17 0 0 0-19.782-7.1942c-95.767-32.111-207.77-32.285-324.5-45.434-2.1999-0.24857-4.4055-0.50285-6.6111-0.75999-120.38-14.128-246.45-44.896-357.98-146.68-2.3228-2.1142-4.6369-4.2656-6.9425-6.4428-115.27-108.87-212.75-292.4-281.18-606.45l19.256-4.1971 36.57-7.9684" color="#000000" fill="#88765f" style="isolation:auto;mix-blend-mode:normal;text-decoration-color:#000000;text-decoration-line:none;text-decoration-style:solid;text-indent:0;text-transform:none;white-space:normal"/></g></svg>
