<svg id="SVGRoot" version="1.1" viewBox="0 0 1920 1080" xmlns="http://www.w3.org/2000/svg" xmlns:xlink="http://www.w3.org/1999/xlink"><defs><radialGradient id="o" cx="1325.2" cy="-540.85" r="41.416" fy="-522.89" gradientTransform="matrix(1.0417 0 0 .92434 -69.481 -22.32)" gradientUnits="userSpaceOnUse" spreadMethod="reflect" xlink:href="#a"/><linearGradient id="a"><stop stop-color="#fff" stop-opacity=".784" offset="0"/><stop stop-color="#3c8fff" stop-opacity=".588" offset=".338"/><stop stop-color="#00255d" offset=".676"/><stop stop-color="#a6caff" stop-opacity="0" offset="1"/></linearGradient><radialGradient id="p" cx="1326.7" cy="-521.4" r="32.144" gradientTransform="matrix(1 0 0 .28878 -14.286 -353.69)" gradientUnits="userSpaceOnUse" xlink:href="#b"/><linearGradient id="b"><stop stop-color="#fff" offset="0"/><stop stop-color="#fff" offset=".113"/><stop stop-color="#fff" stop-opacity="0" offset="1"/></linearGradient><radialGradient id="q" cx="1326.3" cy="-588.63" r="12.206" gradientTransform="matrix(1 0 0 .31035 -14.286 -391.23)" gradientUnits="userSpaceOnUse" xlink:href="#b"/><radialGradient id="r" cx="1325.2" cy="-540.85" r="41.416" fy="-522.89" gradientTransform="matrix(1.9774 0 0 1.7545 -1309.4 426.69)" gradientUnits="userSpaceOnUse" spreadMethod="reflect" xlink:href="#c"/><linearGradient id="c"><stop stop-color="#00002b" offset="0"/><stop stop-color="#00002b" stop-opacity="0" offset="1"/></linearGradient><radialGradient id="s" cx="1326.4" cy="-537.35" r="41.416" fy="-516.01" gradientTransform="matrix(.89325 0 0 .89325 127.29 -40.613)" gradientUnits="userSpaceOnUse" spreadMethod="reflect" xlink:href="#b"/><radialGradient id="g" cx="1320.4" cy="-357.26" r="114.29" gradientTransform="matrix(4.3562 0 0 1.1153 -5094.7 1262.8)" gradientUnits="userSpaceOnUse" xlink:href="#a"/><radialGradient id="f" cx="1320.4" cy="-357.26" r="114.29" gradientTransform="matrix(8.3787 0 0 2.1452 -10392 1625.5)" gradientUnits="userSpaceOnUse" xlink:href="#a"/><radialGradient id="e" cx="1320.4" cy="-357.26" r="114.29" gradientTransform="matrix(7.8895 0 0 2.0199 -9747.9 1580.4)" gradientUnits="userSpaceOnUse" xlink:href="#a"/><linearGradient id="d" x1="128.65" x2="3892.9" y1="-473.38" y2="-480.15" gradientTransform="matrix(0 .64917 -.99346 0 486.37 -539.06)" gradientUnits="userSpaceOnUse" xlink:href="#a"/></defs><path d="m-6.7266 0v1080h1926.7v-1080z" fill="url(#d)" opacity=".685"/><g transform="translate(317.88 -112.63)" fill-rule="evenodd"><path d="m1664.4 852.73c0 144.55-457.69 261.73-1022.3 261.73-564.59 0-1022.3-117.18-1022.3-261.73 0-144.55 457.69-261.73 1022.3-261.73 564.59 0 1022.3 117.18 1022.3 261.73z" fill="url(#e)"/><path d="m1727.8 852.73c0 153.52-486.08 277.96-1085.7 277.96-599.61 0-1085.7-124.45-1085.7-277.97s486.08-277.96 1085.7-277.96c599.61 0 1085.7 124.45 1085.7 277.96z" fill="url(#f)"/><path d="m1206.6 861.03c0 79.814-252.72 144.52-564.45 144.52-311.74 0-564.46-64.702-564.46-144.52s252.72-144.52 564.46-144.52 564.45 64.702 564.45 144.52z" fill="url(#g)"/><g transform="translate(-460.94 -102.9)"><path d="m1046.9 717.41c0.189 0.884 0.42 1.773 0.65 2.642 7.901 8.2 29.727 14.104 55.466 14.104 25.74 0 47.602-5.904 55.51-14.104 0.23-0.87 0.46-1.758 0.65-2.642-7.362 6.254-29.746 10.78-56.16 10.78-26.413 0-48.76-4.526-56.116-10.78z" fill="#08102c"/><path transform="matrix(1.4348 0 0 1.1506 -779.44 1324.4)" d="m1353.5-536.76c0 23.367-18.542 42.31-41.415 42.31-22.874 0-41.417-18.943-41.417-42.31 0-23.366 18.543-42.309 41.417-42.309 22.873 0 41.416 18.943 41.416 42.31z" fill="url(#o)"/><path transform="matrix(1.4348 0 0 1.1506 -779.44 1324.4)" d="m1284-513.31c-4.566-0.697-4.507 1.107-2.273 3.932 7.011 9.165 18.488 14.399 30.607 14.399s23.57-5.236 30.577-14.4c2.136-2.732 2.86-4.938-2.273-3.906-8.877 1.814-18.736 0.467-28.304 0.464-9.567-3e-3 -19.436 1.33-28.334-0.489z" fill="url(#p)"/><path transform="matrix(1.4348 0 0 1.1506 -779.44 1324.4)" d="m1324.2-573.91c0-2.092-5.464-3.788-12.205-3.788-6.742 0-12.206 1.696-12.206 3.788 0 2.093 5.464 3.789 12.206 3.789 6.74 0 12.206-1.696 12.206-3.789z" fill="url(#q)"/><path transform="matrix(1.4348 0 0 1.1506 -779.44 1324.4)" d="m1339.6-568.39c4.595 7.408 7.344 24.729 7.344 34.843 0 24.153-15.597 35.72-34.844 35.72s-34.875-11.567-34.875-35.72c0-10.104 2.758-27.407 7.344-34.812-8.525 7.75-13.907 19.02-13.907 31.594 0 23.366 18.565 42.312 41.438 42.312 22.874 0 41.406-18.946 41.406-42.312 0-12.584-5.37-23.875-13.906-31.625z" fill="url(#r)"/><path transform="matrix(1.4348 0 0 1.1506 -779.44 1324.4)" d="m1312.1-577.54c-13.69 0-25.779 6.807-33.094 17.219-1.792 2.218-2.652 3.959-2.719 4.781 8.032-11.311 21.088-18.687 35.813-18.687 14.653 0 27.616 7.313 35.656 18.53-0.19-0.894-1.013-2.546-2.562-4.624-7.306-10.412-19.404-17.219-33.094-17.219z" fill="url(#s)"/><path d="m1104.1 661.63c-0.872-0.011-1.772 0.014-2.646 0.036-11.49 0.233-22.616 3.54-31.655 9.169 1.022-0.438 2.09-0.823 3.139-1.222 8.985-3.999 19.24-6.293 30.175-6.293 10.697 0 20.762 2.2 29.593 6.04 0.043 0.017 0.092 0.021 0.135 0.037 1.293 0.482 2.56 0.967 3.811 1.51-9.22-5.859-20.762-9.124-32.552-9.277z" fill="#fff"/></g><g transform="translate(-460.94 -234.19)"><path d="m1030.8 503.87c0.244 1.42 0.542 2.847 0.837 4.242 10.174 13.167 38.276 22.645 71.416 22.645s61.29-9.478 71.472-22.645c0.295-1.395 0.593-2.822 0.837-4.242-9.479 10.041-38.3 17.309-72.309 17.309s-62.78-7.268-72.253-17.309z" fill="#08102c"/><path transform="matrix(1.8474 0 0 1.8474 -1320.7 1478.5)" d="m1353.5-536.76c0 23.367-18.542 42.31-41.415 42.31-22.874 0-41.417-18.943-41.417-42.31 0-23.366 18.543-42.309 41.417-42.309 22.873 0 41.416 18.943 41.416 42.31z" fill="url(#o)"/><path transform="matrix(1.8474 0 0 1.8474 -1320.7 1478.5)" d="m1284-513.31c-4.566-0.697-4.507 1.107-2.273 3.932 7.011 9.165 18.488 14.399 30.607 14.399s23.57-5.236 30.577-14.4c2.136-2.732 2.86-4.938-2.273-3.906-8.877 1.814-18.736 0.467-28.304 0.464-9.567-3e-3 -19.436 1.33-28.334-0.489z" fill="url(#p)"/><path transform="matrix(1.8474 0 0 1.8474 -1320.7 1478.5)" d="m1324.2-573.91c0-2.092-5.464-3.788-12.205-3.788-6.742 0-12.206 1.696-12.206 3.788 0 2.093 5.464 3.789 12.206 3.789 6.74 0 12.206-1.696 12.206-3.789z" fill="url(#q)"/><path transform="matrix(1.8474 0 0 1.8474 -1320.7 1478.5)" d="m1339.6-568.39c4.595 7.408 7.344 24.729 7.344 34.843 0 24.153-15.597 35.72-34.844 35.72s-34.875-11.567-34.875-35.72c0-10.104 2.758-27.407 7.344-34.812-8.525 7.75-13.907 19.02-13.907 31.594 0 23.366 18.565 42.312 41.438 42.312 22.874 0 41.406-18.946 41.406-42.312 0-12.584-5.37-23.875-13.906-31.625z" fill="url(#r)"/><path transform="matrix(1.8474 0 0 1.8474 -1320.7 1478.5)" d="m1312.1-577.54c-13.69 0-25.779 6.807-33.094 17.219-1.792 2.218-2.652 3.959-2.719 4.781 8.032-11.311 21.088-18.687 35.813-18.687 14.653 0 27.616 7.313 35.656 18.53-0.19-0.894-1.013-2.546-2.562-4.624-7.306-10.412-19.404-17.219-33.094-17.219z" fill="url(#s)"/><path d="m1104.4 414.31c-1.123-0.018-2.281 0.021-3.406 0.058-14.794 0.373-29.12 5.684-40.757 14.72 1.315-0.703 2.689-1.321 4.04-1.962 11.569-6.42 24.773-10.103 38.853-10.103 13.773 0 26.732 3.534 38.102 9.699 0.055 0.025 0.118 0.032 0.173 0.058 1.666 0.775 3.296 1.553 4.907 2.424-11.87-9.407-26.732-14.65-41.912-14.894z" fill="#fff"/></g></g></svg>
