<svg id="SVGRoot" version="1.1" viewBox="0 0 1920 1080" xmlns="http://www.w3.org/2000/svg" xmlns:xlink="http://www.w3.org/1999/xlink"><defs><radialGradient id="b" cx="143.75" cy="102.95" r="37.75" gradientTransform="matrix(54.021 0 0 20.996 -7488 -2039.1)" gradientUnits="userSpaceOnUse" xlink:href="#a"/><linearGradient id="a"><stop stop-color="#fcebd5" offset="0"/><stop stop-color="#96856f" offset="1"/></linearGradient><radialGradient id="c" cx="143.75" cy="140.63" r="37.75" gradientTransform="matrix(25.43 0 0 4.4445 -3378.1 36.503)" gradientUnits="userSpaceOnUse" xlink:href="#a"/></defs><g transform="translate(682.49 250.71)" color="#000000"><path d="m-682.49-250.71v746.24h1920v-746.24z" fill="url(#b)" overflow="visible" stroke-width="6.3576"/><path d="m-682.49 493.75v335.54h1920v-335.54z" fill="url(#c)" overflow="visible" stroke-width="6.3576"/><path d="m281.81 511.67c-2.047 0.097-4.018 0.387-6.319 0.655-10.105 1.26-14.938 29.261-4.423 60.656-56.353 42.239-95.225 90.506 3.317 87.541 9.503 0 49.972 3.506 70.14-2.623 4.801-1.712 4.632-3.755 3.476-5.082-0.787-0.946-1.814-1.788-3.001-2.623 56.26-33.17 70.41-43.945 76.775-40.82 5.41 0.665 13.252 0.631 20.695-1.475 6.593-2.16 5.03-4.716 3.16-6.23-1.36-1.338-5.402-1.92-5.056-3.606 0.702-3.417 6.736-7.76 14.06-11.312 11.163-5.411 27.2-9.941 42.021-13.77 0.238-0.108 0.554-0.221 0.79-0.328 8.977-4.04 23.52-3.546 32.543-9.18 5.55-5.362-12.293-8.122-20.695-11.148-12.651-4.555-42.495-9.672-42.495-9.672-2.254-2.812-6.282-3.867-9.478-3.606-3.196 0.26-5.771 1.683-5.53 4.098-14.366-6.038-25.962-4.56-21.8 3.279 0.555 1.512-1.034 12.347-8.53 18.196-3.116 2.848-7.03 5.608-11.059 8.361-20.426 6.52-41.955 12.9-60.662 19.672-30.808 10.666-63.049 22.209-82.937 34.918-9.818 6.275-16.112 13.157-15.165 18.689-21.082-3.81-8.513-17.19-2.528-27.213 6.992-11.711 34.485-28.875 63.98-46.066 1.471-31.559 9.805-63.265-31.279-61.311z" fill="#4d4d4d" opacity=".77" overflow="visible"/><path d="m186.91 321.61c-24.873 6.752-78.911 350.73 86.3 338.91 9.502 0 54.385 7.954 66.758-6.059 2.623-3.914-0.143-8.592-2.987-11.625-1.99-2.163-4.202-4.113-6.451-6.021 14.071-75.83 14.576-100.45 24.917-93.305 6.254 1.518 14.191 1.71 18.956-3.105 3.845-4.94-0.984-10.817-4.779-14.276-3.061-3.06-7.998-4.704-9.797-8.558-3.644-7.811-3.007-17.518-0.199-25.636 4.4-12.72 15.12-23.24 25.329-32.15 10.58-9.235 24.873-8.25 36.135-21.13 7.68-12.257-8.969-18.606-16.169-25.522-10.842-10.415-38.803-22.228-38.803-22.228-2.275-12.855-13.619-9.565-15.054 1.477-11.968-13.804-23.987-10.499-22.939 7.422-0.045 3.458-6.19 28.055-16.01 41.427-14.307 21.927-35.663 42.094-50.019 64.109-17.241 24.384-34.668 50.807-38.39 79.862-1.838 14.344 0.46 29.954 8.442 42.6-25.927-8.708-30.236-39.219-37.001-62.135-23.134-78.366 68.792-263.68-8.24-244.06z" fill="#333" fill-rule="evenodd" font-family="Sans" font-weight="400" overflow="visible" style="text-indent:0;text-transform:none"/><path d="m386.86 421.66c-1.048 4.062-8.245 5.59-16.073 3.413-7.829-2.177-13.325-7.234-12.276-11.296s8.245-5.59 16.074-3.413c7.828 2.176 13.324 7.234 12.275 11.296z" overflow="visible"/><path d="m373.34 416.14c-0.297 0.998-2.331 1.373-4.544 0.838-2.213-0.534-3.767-1.776-3.47-2.774 0.296-0.997 2.33-1.373 4.543-0.838 2.213 0.534 3.767 1.776 3.47 2.774z" fill="#fff" overflow="visible"/></g></svg>
