<svg id="SVGRoot" version="1.1" viewBox="0 0 1920 1080" xmlns="http://www.w3.org/2000/svg" xmlns:xlink="http://www.w3.org/1999/xlink"><defs><radialGradient id="b" cx="153.32" cy="83.256" r="129.52" gradientTransform="matrix(5.2557 0 0 5.2215 154.18 105.26)" gradientUnits="userSpaceOnUse" spreadMethod="reflect" xlink:href="#a"/><linearGradient id="a"><stop stop-color="#e9d7e0" offset="0"/><stop stop-color="#68565f" offset=".5"/><stop stop-color="#3d2b34" offset="1"/></linearGradient><linearGradient id="c" x1="-67.052" x2="239.43" y1="186.65" y2="276.27" gradientTransform="matrix(0 -2.4098 6.8014 0 -277.82 305.78)" gradientUnits="userSpaceOnUse" spreadMethod="reflect" xlink:href="#a"/><radialGradient id="d" cx="81.429" cy="186.65" r="148.48" gradientTransform="matrix(11.439 4.053 -3.955 1.4013 766.75 -478.15)" gradientUnits="userSpaceOnUse" spreadMethod="reflect" xlink:href="#a"/><radialGradient id="e" cx="171.64" cy="-12.402" r="134.21" gradientTransform="matrix(0 8.2252 -5.8657 0 918.91 -1062)" gradientUnits="userSpaceOnUse" spreadMethod="reflect" xlink:href="#a"/><radialGradient id="f" cx="153.34" cy="69.498" r="127.58" gradientTransform="matrix(7.8715 2.789 -3.6378 1.2889 5.821 -13.931)" gradientUnits="userSpaceOnUse" spreadMethod="reflect" xlink:href="#a"/><radialGradient id="h" cx="153.34" cy="149.5" r="127.58" gradientTransform="matrix(7.8715 2.789 -3.6378 1.2889 296.85 96.246)" gradientUnits="userSpaceOnUse" spreadMethod="reflect" xlink:href="#a"/><radialGradient id="i" cx="171.64" cy="-12.402" r="134.21" gradientTransform="matrix(0 8.2252 -5.8657 0 918.92 -1062)" gradientUnits="userSpaceOnUse" spreadMethod="reflect" xlink:href="#a"/><radialGradient id="j" cx="153.34" cy="-10.502" r="127.58" gradientTransform="matrix(7.8715 2.789 -3.6378 1.2889 -285.2 -124.11)" gradientUnits="userSpaceOnUse" spreadMethod="reflect" xlink:href="#a"/><radialGradient id="l" cx="153.34" cy="229.5" r="127.58" gradientTransform="matrix(7.8715 2.789 -3.6378 1.2889 587.87 206.42)" gradientUnits="userSpaceOnUse" spreadMethod="reflect" xlink:href="#a"/></defs><path d="m959.88 0.048083c-369.87 0-690.48 24.784-850.77 60.988-73.105 11.907-123.69 38.014-123.69 68.485v820.93a212.33 75.233 0 0 0 122.99 68.403c160.05 36.286 481.04 61.07 851.47 61.07 370.22 0 691.27-24.734 851.47-60.988a212.24 75.199 0 0 0 123.22-68.485v-820.93a212.18 75.177 0 0 0-123.92-68.568c-160.45-36.172-481.11-60.905-850.78-60.905z" fill="url(#b)" overflow="visible" stroke-width=".38444"/><g stroke-linecap="round" stroke-linejoin="round" stroke-width="1.8618"><path d="m1920 113.43c0 62.62-429.81 113.38-960 113.38-530.2 0-960.01-50.763-960.01-113.38 0-62.617 429.82-113.38 960.01-113.38 530.2 0 960 50.763 960 113.38z" fill="url(#c)" overflow="visible" stroke="url(#d)"/><path d="m9.6391e-5 353.24v186.76c0 62.622 429.66 113.37 959.9 113.37 530.23 0 960.1-50.747 960.1-113.37v-186.76c0 0.97849-0.1943 1.9463-0.411 2.9167-0.1945 0.80516-0.2917 1.6077-0.626 2.4075-0.1945 0.29337-0.2762 0.58117-0.4112 0.87716-0.3538 0.77591-0.744 1.5597-1.2331 2.3329-0.2334 0.36548-0.5677 0.73046-0.8222 1.0931-0.3111 0.44523-0.6653 0.87182-1.0177 1.3144a120.95 42.856 0 0 1-6.5925 6.3454v0.0749c-0.7046 0.54372-1.4874 1.0664-2.2566 1.605-0.9004 0.6214-1.9184 1.2051-2.8892 1.8237-0.4893 0.31208-0.9201 0.64012-1.4287 0.94915a162.69 57.645 0 0 1-10.092 5.3989 207.19 73.412 0 0 1-16.267 6.8573c-1.4287 0.53608-2.8303 1.0718-4.3198 1.605-1.7616 0.62417-3.5214 1.2025-5.3575 1.8237-0.7632 0.25868-1.4873 0.54371-2.2586 0.79983-2.9948 0.98645-6.0562 1.9463-9.2699 2.9194-3.2885 0.99449-6.5766 2.0103-10.09 2.9915-3.5075 0.97842-7.1872 1.9543-10.912 2.9194-1.8205 0.46673-3.6937 0.91982-5.5609 1.3864a424.02 150.24 0 0 1-8.6536 2.1142c-4.2591 1.0104-8.6609 1.9996-13.167 2.9914-1.8007 0.39462-3.7328 0.77584-5.5686 1.1677-6.3358 1.3544-12.77 2.7648-19.558 4.0846-7.3282 1.4264-15.011 2.7728-22.852 4.1592-2.1825 0.38421-4.3649 0.78388-6.5925 1.1651-3.5584 0.61306-7.254 1.2211-10.91 1.8263-7.8649 1.2958-15.984 2.6102-24.299 3.8659-5.2299 0.78922-10.452 1.5597-15.847 2.3329l-4.1241 0.58671c-3.1669 0.44524-6.4412 0.86919-9.6768 1.3118-3.8834 0.53331-7.765 1.0078-11.738 1.5304a1096.8 388.61 0 0 1-39.325 4.8897c-6.743 0.78915-13.643 1.5677-20.588 2.3328-3.3195 0.36825-6.5158 0.73326-9.8805 1.0931-3.717 0.40017-7.3516 0.77854-11.122 1.1704-5.5157 0.57354-11.053 1.1198-16.675 1.6771-1.6636 0.16507-3.2667 0.34677-4.9442 0.50905-0.7047 0.0693-1.3507 0.15187-2.0612 0.22123-6.6451 0.64774-13.38 1.2691-20.174 1.8956-5.365 0.49586-10.61 0.97848-16.058 1.4584-2.2568 0.19974-4.5233 0.38628-6.796 0.58672-2.9789 0.2559-6.0635 0.47436-9.0585 0.72783-4.7405 0.40016-9.4067 0.84783-14.206 1.2397-154.73 12.603-342.21 19.988-544.4 19.988-202.19 0-389.7-7.3852-544.4-19.988a1695 600.57 0 0 1-24.5-2.0423c-4.3645-0.38144-8.6688-0.78118-12.973-1.1677-5.7039-0.5146-11.288-1.0772-16.886-1.6051-4.5979-0.43485-9.2618-0.86912-13.793-1.3144-9.1036-0.89046-18.164-1.7676-26.976-2.6981-4.664-0.49308-9.2167-1.0291-13.793-1.533-2.151-0.23441-4.2514-0.49032-6.3809-0.72784-5.4394-0.60822-10.947-1.1998-16.267-1.8237-6.111-0.71724-11.965-1.4557-17.91-2.189-1.2919-0.16019-2.6348-0.2774-3.9126-0.4369-5.9073-0.73852-11.769-1.5064-17.502-2.2636-6.4945-0.85316-12.672-1.6744-18.947-2.5515-5.6665-0.79457-11.19-1.5944-16.676-2.4076-1.1157-0.16504-2.1883-0.34675-3.2943-0.5118a860.99 305.06 0 0 1-15.238-2.3329c-7.6608-1.2131-14.975-2.3996-22.237-3.65-2.2116-0.37865-4.4081-0.78117-6.5824-1.1651-7.8412-1.3864-15.532-2.7328-22.862-4.1592-6.7784-1.3197-13.22-2.7302-19.564-4.0846-1.8398-0.3946-3.7485-0.77312-5.553-1.1677a470.1 166.56 0 0 1-18.941-4.3778c-0.97844-0.23995-1.918-0.48824-2.8809-0.72783-1.8597-0.46398-3.7621-0.92252-5.5689-1.3864a378.17 133.99 0 0 1-10.082-2.7008c-0.27611-0.0749-0.54794-0.14147-0.8221-0.21845-3.5074-0.9812-6.8037-1.997-10.084-2.9915a293.95 104.15 0 0 1-6.9973-2.1862c-0.7634-0.24828-1.5268-0.48269-2.2645-0.73049-0.80267-0.26145-1.4879-0.54093-2.2649-0.80252-1.8204-0.61307-3.6268-1.2078-5.3589-1.8237-1.4879-0.53053-2.905-1.0744-4.3179-1.605-0.90067-0.34122-1.801-0.67965-2.6798-1.0211a228.75 81.051 0 0 1-4.944-1.973c-2.347-0.97577-4.6644-1.9276-6.7939-2.9167-0.66578-0.30652-1.2137-0.64012-1.8597-0.9465a164 58.109 0 0 1-10.082-5.399c-0.52849-0.31209-0.95939-0.63734-1.4486-0.94915-0.97884-0.61861-2.0005-1.1998-2.8813-1.8236-0.74355-0.52777-1.3701-1.0745-2.0611-1.605 0-0.0278-0.19444-0.0415-0.19444-0.0721-1.2721-0.98382-2.4465-2.0023-3.5074-2.9914-0.959-0.9065-1.8986-1.7864-2.6697-2.7008-0.19446-0.21567-0.23334-0.43691-0.41106-0.65605-0.35389-0.43693-0.70467-0.87453-1.0376-1.3118-0.27611-0.36755-0.58723-0.72513-0.82212-1.0931-0.48923-0.77585-0.88084-1.5596-1.2332-2.3356-0.19444-0.29335-0.29556-0.58671-0.41106-0.87715-0.31499-0.79983-0.44994-1.6024-0.62611-2.4075a108.45 38.424 0 0 1-0.41106-2.9167z" fill="url(#e)" overflow="visible" stroke="url(#f)"/><path d="m9.6391e-5 566.53v186.76c0 62.622 429.66 113.37 959.9 113.37 530.23 0 960.1-50.747 960.1-113.37v-186.76c0 0.97849-0.1943 1.9463-0.411 2.9167-0.1945 0.80519-0.2917 1.6077-0.626 2.4075-0.1945 0.29336-0.2762 0.58118-0.4112 0.87716-0.3538 0.7759-0.744 1.5597-1.2331 2.3329-0.2334 0.36548-0.5677 0.73047-0.8222 1.0931-0.3111 0.44524-0.6653 0.87182-1.0177 1.3144a120.89 42.834 0 0 1-6.5925 6.3454v0.0749c-0.7046 0.54372-1.4874 1.0664-2.2566 1.605-0.9004 0.62139-1.9184 1.2051-2.8892 1.8237-0.4893 0.31208-0.9201 0.63734-1.4287 0.94914a162.65 57.629 0 0 1-10.092 5.399 207.18 73.407 0 0 1-16.267 6.8573c-1.4287 0.53609-2.8303 1.0718-4.3198 1.605-1.7616 0.62415-3.5214 1.2025-5.3575 1.8237-0.7632 0.25868-1.4873 0.54371-2.2586 0.79982-2.9948 0.98646-6.0562 1.9463-9.2699 2.9194-3.2885 0.9945-6.5766 2.0103-10.09 2.9915a372.78 132.08 0 0 1-10.912 2.9194c-1.8205 0.46674-3.6937 0.91981-5.5609 1.3864-2.8361 0.70648-5.6961 1.413-8.6536 2.1142-4.2591 1.0104-8.6609 1.9996-13.167 2.9914-1.8007 0.39461-3.7328 0.77582-5.5686 1.1677-6.3358 1.3544-12.77 2.7648-19.558 4.0846-7.3282 1.4263-15.011 2.7728-22.852 4.1591-2.1825 0.38422-4.3649 0.78389-6.5925 1.1651-3.5584 0.61307-7.254 1.2212-10.91 1.8263-7.8649 1.2958-15.984 2.6102-24.299 3.8659a890.55 315.54 0 0 1-19.971 2.9168c-3.1669 0.44802-6.4412 0.87182-9.6768 1.3144-3.8834 0.53053-7.765 1.0078-11.738 1.5304a1096 388.33 0 0 1-39.325 4.8897c-6.743 0.78913-13.643 1.5677-20.588 2.3328-3.3195 0.36825-6.5158 0.73325-9.8805 1.0931-3.717 0.40016-7.3516 0.77854-11.122 1.1704-5.5157 0.57354-11.053 1.1198-16.675 1.677-1.6636 0.16506-3.2667 0.34675-4.9442 0.50904-0.7047 0.0693-1.3507 0.15188-2.0612 0.22124-6.6451 0.64774-13.38 1.2691-20.174 1.893-5.365 0.49864-10.61 0.98113-16.058 1.461-2.2568 0.19972-4.5233 0.38629-6.796 0.58671-2.9789 0.25591-6.0635 0.47159-9.0585 0.72785-4.7405 0.40015-9.4067 0.84783-14.206 1.2397-154.73 12.603-342.21 19.988-544.4 19.988-202.19 0-389.7-7.3852-544.4-19.988a1697.8 601.57 0 0 1-24.5-2.0423c-4.3645-0.38144-8.6688-0.78117-12.973-1.1678-5.6957-0.51458-11.288-1.0772-16.886-1.6051-4.5979-0.43483-9.2618-0.8691-13.793-1.3144-9.0977-0.89049-18.164-1.7676-26.976-2.6981-4.664-0.49308-9.2089-1.0291-13.793-1.533-2.1432-0.23441-4.2514-0.49032-6.3809-0.72784-5.4394-0.60821-10.947-1.1998-16.267-1.8237-6.111-0.71723-11.965-1.4557-17.91-2.1889-1.2919-0.16021-2.6348-0.27741-3.9126-0.43691-5.9073-0.73853-11.769-1.5064-17.502-2.2636-6.4867-0.85317-12.672-1.6744-18.947-2.5515-5.6665-0.79456-11.19-1.5944-16.676-2.4075-1.1157-0.16506-2.1883-0.34675-3.2943-0.51182-5.1186-0.76522-10.288-1.5517-15.238-2.3329-7.6608-1.2131-14.975-2.3996-22.237-3.65-2.2116-0.37867-4.4081-0.78118-6.5824-1.1651-7.8412-1.3864-15.532-2.7328-22.862-4.1591-6.7784-1.3198-13.22-2.7302-19.556-4.0846-1.8398-0.39462-3.7621-0.77313-5.5608-1.1677a469.99 166.52 0 0 1-18.941-4.3778c-0.97844-0.23996-1.918-0.48754-2.8809-0.73054-1.8597-0.4612-3.7621-0.91981-5.5608-1.3864a378.17 133.99 0 0 1-10.084-2.6981c-0.27611-0.0749-0.54795-0.14148-0.82212-0.21846-3.5152-0.98119-6.8114-1.997-10.092-2.9915a294.17 104.23 0 0 1-6.9973-2.1862c-0.7634-0.24827-1.5268-0.48546-2.2645-0.73047-0.80267-0.26146-1.4879-0.54094-2.2649-0.80254-1.8204-0.61307-3.6268-1.2077-5.3589-1.8237-1.4681-0.53054-2.905-1.0745-4.3183-1.605-0.90027-0.34121-1.8006-0.67965-2.6795-1.0211a228.57 80.984 0 0 1-4.944-1.973c-2.347-0.97577-4.6644-1.9276-6.7939-2.9167-0.66579-0.3093-1.2137-0.64011-1.8597-0.9465a163.92 58.079 0 0 1-10.082-5.3989c-0.5285-0.31209-0.95941-0.63734-1.4486-0.94914-0.97884-0.61862-2.0005-1.1998-2.8813-1.8237-0.74355-0.52776-1.3701-1.0744-2.0611-1.605 0-0.0278-0.19444-0.0415-0.19444-0.0721a134.54 47.671 0 0 1-3.5074-2.9914c-0.95939-0.90649-1.8986-1.7864-2.6697-2.7008-0.19444-0.21567-0.23334-0.4376-0.41106-0.65607-0.35389-0.43691-0.70467-0.87451-1.0376-1.3118-0.27222-0.36756-0.58723-0.72514-0.82212-1.0931-0.48923-0.77583-0.88084-1.5596-1.2332-2.3356-0.19444-0.29336-0.29167-0.58671-0.41106-0.87716-0.31499-0.79983-0.44994-1.6024-0.62611-2.4075a108.45 38.424 0 0 1-0.41106-2.9167z" fill="url(#e)" overflow="visible" stroke="url(#h)"/><path d="m0.0047279 139.95v186.76c0 62.622 429.66 113.37 959.89 113.37 530.23 0 960.1-50.747 960.1-113.37v-186.76c0 1.1491-0.1943 2.2876-0.411 3.4287-0.1943 0.41333-0.276 0.82652-0.411 1.2398-0.2138 0.61307-0.5284 1.2131-0.8221 1.8236-0.1945 0.35993-0.1945 0.73588-0.4112 1.0931-0.6065 1.0798-1.4092 2.1409-2.2644 3.2101-0.9395 1.1838-2.0475 2.3328-3.2963 3.5033-1.233 1.1678-2.5736 2.3462-4.1164 3.5006-1.0177 0.76253-2.151 1.5064-3.2959 2.2609-0.607 0.40016-1.2136 0.7732-1.8596 1.1677a161.05 57.064 0 0 1-10.912 5.9109c-0.646 0.3093-1.1943 0.64012-1.8596 0.94644-0.1945 0.0797-0.4305 0.13871-0.6262 0.21847-1.9712 0.90649-4.0164 1.8769-6.1698 2.7727-0.2721 0.10678-0.5674 0.18655-0.8221 0.29336a226.77 80.35 0 0 1-17.91 6.564c-3.2493 1.0798-6.5766 2.1463-10.098 3.2101-3.2802 0.99714-6.5687 2.0103-10.082 2.9914-0.276 0.0776-0.5479 0.14424-0.822 0.21845-2.7853 0.77314-5.7195 1.5703-8.6456 2.3355-0.4696 0.12556-0.9593 0.23994-1.4486 0.36548a404.11 143.18 0 0 1-14.208 3.5006c-4.2964 1.0185-8.6221 1.9916-13.167 2.9914-2.9949 0.65885-6.1714 1.3198-9.2721 1.9704-5.1613 1.0824-10.405 2.1488-15.854 3.21 0 0.0138-0.1945 0.0555-0.1945 0.0722a647 229.24 0 0 1-22.649 4.1592c-2.1824 0.3842-4.3648 0.78379-6.5921 1.1677-3.5582 0.61029-7.2538 1.2184-10.91 1.8236a819.83 290.48 0 0 1-27.391 4.3032l-2.4684 0.36548c-5.4845 0.8132-11.008 1.613-16.674 2.4075-0.5284 0.0749-1.0963 0.14424-1.6442 0.21847-5.7486 0.79982-11.574 1.5516-17.502 2.3328-6.3358 0.83722-12.815 1.669-19.354 2.4795-19.632 2.4422-40.174 4.7804-61.56 7.0067-7.1327 0.74116-14.296 1.4717-21.619 2.1862-0.7046 0.0693-1.3506 0.15189-2.0611 0.22124-6.6528 0.64775-13.38 1.2691-20.174 1.8957-15.042 1.3863-30.393 2.7301-46.127 4.0125-154.73 12.606-342.2 19.988-544.39 19.988-202.21 0-389.66-7.3799-544.4-19.988-7.849-0.64011-15.598-1.3064-23.267-1.9703a1606 569.04 0 0 1-22.86-2.0423c-6.8488-0.6318-13.47-1.2424-20.174-1.8957-0.64595-0.0625-1.2137-0.1602-1.8597-0.22124-7.3143-0.71452-14.695-1.4451-21.822-2.1862-7.1089-0.74116-14.093-1.4984-21.008-2.2636-6.939-0.76516-13.846-1.5437-20.588-2.3329-6.1106-0.71717-11.965-1.4557-17.91-2.1889-1.2915-0.16019-2.6344-0.27739-3.9126-0.4376-5.9073-0.73852-11.769-1.5064-17.502-2.2636-6.4945-0.85315-12.679-1.6743-18.947-2.5515-5.6665-0.79449-11.19-1.5943-16.677-2.4075-1.1153-0.16506-2.1961-0.34676-3.2939-0.51181-5.1186-0.76516-10.288-1.5517-15.238-2.3328-7.6612-1.2131-14.976-2.3996-22.237-3.65-2.212-0.37866-4.4081-0.78118-6.5828-1.1651a647.36 229.37 0 0 1-22.65-4.1592c0-0.0138-0.19444-0.0555-0.21389-0.0721a562.37 199.26 0 0 1-15.854-3.21c-3.0925-0.65052-6.2674-1.3118-9.2541-1.973a466.42 165.26 0 0 1-25.743-6.0522 372.43 131.96 0 0 1-11.738-3.138c-0.27223-0.0749-0.54795-0.14147-0.82212-0.21845-3.5074-0.98112-6.8037-1.9943-10.084-2.9914a293.96 104.16 0 0 1-6.9977-2.1862c-1.0764-0.34675-2.0549-0.67687-3.0847-1.0238-3.206-1.0638-6.3358-2.1329-9.2719-3.21a221.35 78.427 0 0 1-15.854-6.4201c-0.19446-0.0693-0.25278-0.14703-0.41106-0.21847a177.23 62.796 0 0 1-6.7959-3.4287 162.85 57.701 0 0 1-5.966-3.4287c-1.8593-1.1491-3.5976-2.2662-5.1478-3.4287a132.55 46.964 0 0 1-4.1242-3.5007 121.83 43.165 0 0 1-2.6697-2.7008c-0.23334-0.267-0.41106-0.53332-0.62613-0.7999-0.86139-1.0718-1.6641-2.1329-2.2649-3.2127-0.19446-0.35993-0.23334-0.73048-0.41106-1.0931-0.29168-0.60542-0.60668-1.2157-0.82212-1.8236-0.19446-0.41333-0.29556-0.82652-0.41106-1.2398a108.4 38.409 0 0 1-0.41067-3.4287z" fill="url(#i)" overflow="visible" stroke="url(#j)"/><path d="m9.6391e-5 779.82v186.76c0 62.622 429.66 113.37 959.9 113.37 530.23 0 960.1-50.748 960.1-113.37v-186.76c0 1.1491-0.1943 2.2848-0.411 3.4287-0.1945 0.41055-0.2722 0.82645-0.411 1.2397-0.214 0.61306-0.5285 1.2131-0.8221 1.8237-0.1945 0.35995-0.1945 0.73583-0.4112 1.0931-0.6065 1.0798-1.4092 2.1409-2.2566 3.21-0.9591 1.1838-2.0553 2.3329-3.3041 3.5034-1.2332 1.1677-2.5736 2.3462-4.116 3.5006-1.0181 0.76252-2.1514 1.5064-3.2963 2.2609-0.6067 0.40015-1.2137 0.77319-1.8596 1.1678a161.16 57.101 0 0 1-10.912 5.9108c-0.646 0.30931-1.1939 0.64011-1.8598 0.94651-0.1943 0.0797-0.4498 0.1387-0.626 0.21846-1.9791 0.90649-4.0243 1.877-6.1775 2.7728-0.2723 0.10677-0.5674 0.18655-0.8222 0.29334a226.77 80.347 0 0 1-17.91 6.564c-3.2492 1.0798-6.5766 2.1462-10.09 3.21-3.288 0.99452-6.5766 2.0103-10.082 2.9915-0.276 0.077-0.5479 0.14425-0.8221 0.21847-2.7852 0.7732-5.7194 1.5703-8.6532 2.3355l-1.4293 0.36271a403.83 143.08 0 0 1-14.206 3.5034c-4.3043 1.0184-8.6222 1.9889-13.175 2.9914-2.9949 0.65605-6.1714 1.3197-9.2721 1.9703-5.1534 1.0824-10.399 2.1489-15.854 3.2074 0 0.0208-0.1944 0.0555-0.1944 0.0749a647.03 229.25 0 0 1-22.648 4.1591c-2.1825 0.3842-4.3649 0.78389-6.5846 1.1651-3.5584 0.61307-7.254 1.2211-10.91 1.8237a819.9 290.5 0 0 1-27.391 4.3058l-2.4682 0.36548c-5.4924 0.81313-11.008 1.613-16.682 2.4075-0.5287 0.0749-1.0964 0.14147-1.6443 0.21845-5.7486 0.79982-11.574 1.5517-17.502 2.3329-6.3358 0.83715-12.815 1.669-19.354 2.4795-19.64 2.4421-40.182 4.7804-61.568 7.0039-7.1326 0.74386-14.296 1.4717-21.619 2.1889-0.7047 0.0693-1.3507 0.15188-2.0612 0.21846-6.6449 0.64773-13.38 1.2718-20.174 1.8983-15.034 1.3864-30.386 2.7302-46.127 4.0125-154.73 12.606-342.2 19.988-544.39 19.988-202.21 0-389.66-7.3799-544.4-19.988-7.8412-0.64012-15.592-1.3064-23.267-1.9729-7.7059-0.66647-15.328-1.3464-22.852-2.0396a1502.2 532.24 0 0 1-20.182-1.8983c-0.64596-0.0625-1.2137-0.15465-1.8593-0.21846a1454.1 515.21 0 0 1-21.823-2.1862c-7.1031-0.74116-14.093-1.4984-21.008-2.2636-6.939-0.76515-13.846-1.5463-20.587-2.3328-6.111-0.71723-11.965-1.4557-17.91-2.1889-1.2919-0.1602-2.6347-0.2774-3.913-0.43691-5.9073-0.73853-11.762-1.5064-17.502-2.2636-6.4867-0.85317-12.672-1.6744-18.941-2.5515-5.6724-0.79456-11.196-1.597-16.683-2.4075-1.1153-0.16505-2.1883-0.34675-3.2939-0.51181-5.1186-0.76786-10.28-1.5517-15.23-2.3356-7.6767-1.2105-14.975-2.3996-22.245-3.6473-2.212-0.37867-4.4081-0.78117-6.5828-1.1651a647.21 229.32 0 0 1-22.65-4.1592c0-0.0208-0.19443-0.0555-0.19443-0.0749a562.21 199.2 0 0 1-15.855-3.2074c-3.1002-0.65052-6.2752-1.3144-9.2696-1.973a466.49 165.29 0 0 1-25.735-6.0521 372.33 131.92 0 0 1-11.738-3.1381l-0.82212-0.21846c-3.5078-0.98119-6.7959-1.997-10.084-2.9915a293.99 104.17 0 0 1-6.9973-2.1862c-1.0769-0.34676-2.0475-0.67686-3.0847-1.0238-3.2064-1.0638-6.3362-2.1329-9.272-3.2101a221.37 78.435 0 0 1-15.855-6.4201c-0.19444-0.0693-0.25277-0.14634-0.41106-0.21846a177.21 62.788 0 0 1-6.7959-3.4287 162.83 57.693 0 0 1-5.9656-3.4287 144.33 51.137 0 0 1-5.1482-3.4287 132.55 46.964 0 0 1-4.116-3.5006c-0.97886-0.90649-1.8986-1.7863-2.6779-2.7008-0.23334-0.26632-0.41106-0.53331-0.62611-0.79984-0.86139-1.0718-1.6637-2.1329-2.2645-3.2127-0.19444-0.35993-0.23334-0.73054-0.41106-1.0931-0.29556-0.60544-0.60705-1.2158-0.82212-1.8237-0.19444-0.4161-0.29167-0.82653-0.41106-1.2397a108.41 38.411 0 0 1-0.41106-3.4287z" fill="url(#e)" overflow="visible" stroke="url(#l)"/></g></svg>
