<svg id="SVGRoot" version="1.1" viewBox="0 0 1920 1080" xmlns="http://www.w3.org/2000/svg" xmlns:xlink="http://www.w3.org/1999/xlink"><defs><radialGradient id="b" cx="153" cy="83" r="130" gradientTransform="matrix(5.3 0 0 5.2 154 105)" gradientUnits="userSpaceOnUse" spreadMethod="reflect" xlink:href="#a"/><linearGradient id="a"><stop stop-color="#e9d7e0" offset="0"/><stop stop-color="#68565f" offset=".5"/><stop stop-color="#3d2b34" offset="1"/></linearGradient><radialGradient id="e" cx="172" cy="-12" r="134" gradientTransform="matrix(0 14 -5.9 0 919 -2328)" gradientUnits="userSpaceOnUse" spreadMethod="reflect" xlink:href="#a"/><radialGradient id="f" cx="153" cy="69" r="128" gradientTransform="matrix(7.9 4.6 -3.6 2.1 6.7 -603)" gradientUnits="userSpaceOnUse" spreadMethod="reflect" xlink:href="#a"/><radialGradient id="h" cx="153" cy="150" r="128" gradientTransform="matrix(7.9 4.6 -3.6 2.1 298 -422)" gradientUnits="userSpaceOnUse" spreadMethod="reflect" xlink:href="#a"/><radialGradient id="i" cx="172" cy="-12" r="134" gradientTransform="matrix(0 14 -5.9 0 919 -2328)" gradientUnits="userSpaceOnUse" spreadMethod="reflect" xlink:href="#a"/></defs><path d="m-3.2e-8 7.1e-6v1080h1920v-1080z" fill="url(#b)" overflow="visible" stroke-width=".38"/><path d="m9.6e-5 2.7e-8v307c0 103 430 186 960 186 530 0 960-83 960-186v-307c0 1.6-0.19 3.2-0.41 4.8-0.19 1.3-0.29 2.6-0.63 4-0.19 0.48-0.28 0.96-0.41 1.4-0.35 1.3-0.74 2.6-1.2 3.8-0.23 0.6-0.57 1.2-0.82 1.8-0.31 0.73-0.67 1.4-1 2.2a121 70 0 0 1-6.6 10v0.12c-0.7 0.89-1.5 1.8-2.3 2.6-0.9 1-1.9 2-2.9 3-0.49 0.51-0.92 1.1-1.4 1.6a163 95 0 0 1-10 8.9 207 121 0 0 1-16 11c-1.4 0.88-2.8 1.8-4.3 2.6-1.8 1-3.5 2-5.4 3-0.76 0.43-1.5 0.89-2.3 1.3-3 1.6-6.1 3.2-9.3 4.8-3.3 1.6-6.6 3.3-10 4.9-3.5 1.6-7.2 3.2-11 4.8-1.8 0.77-3.7 1.5-5.6 2.3a424 247 0 0 1-8.7 3.5c-4.3 1.7-8.7 3.3-13 4.9-1.8 0.65-3.7 1.3-5.6 1.9-6.3 2.2-13 4.5-20 6.7-7.3 2.3-15 4.6-23 6.8-2.2 0.63-4.4 1.3-6.6 1.9-3.6 1-7.3 2-11 3-7.9 2.1-16 4.3-24 6.4-5.2 1.3-10 2.6-16 3.8l-4.1 0.97c-3.2 0.73-6.4 1.4-9.7 2.2-3.9 0.88-7.8 1.7-12 2.5a1097 639 0 0 1-39 8c-6.7 1.3-14 2.6-21 3.8-3.3 0.61-6.5 1.2-9.9 1.8-3.7 0.66-7.4 1.3-11 1.9-5.5 0.94-11 1.8-17 2.8-1.7 0.27-3.3 0.57-4.9 0.84-0.7 0.11-1.4 0.25-2.1 0.36-6.6 1.1-13 2.1-20 3.1-5.4 0.82-11 1.6-16 2.4-2.3 0.33-4.5 0.64-6.8 0.97-3 0.42-6.1 0.78-9.1 1.2-4.7 0.66-9.4 1.4-14 2-155 21-342 33-544 33-202 0-390-12-544-33a1695 988 0 0 1-24-3.4c-4.4-0.63-8.7-1.3-13-1.9-5.7-0.85-11-1.8-17-2.6-4.6-0.72-9.3-1.4-14-2.2-9.1-1.5-18-2.9-27-4.4-4.7-0.81-9.2-1.7-14-2.5-2.2-0.39-4.3-0.81-6.4-1.2-5.4-1-11-2-16-3-6.1-1.2-12-2.4-18-3.6-1.3-0.26-2.6-0.46-3.9-0.72-5.9-1.2-12-2.5-18-3.7-6.5-1.4-13-2.8-19-4.2-5.7-1.3-11-2.6-17-4-1.1-0.27-2.2-0.57-3.3-0.84a861 502 0 0 1-15-3.8c-7.7-2-15-3.9-22-6-2.2-0.62-4.4-1.3-6.6-1.9-7.8-2.3-16-4.5-23-6.8-6.8-2.2-13-4.5-20-6.7-1.8-0.65-3.7-1.3-5.6-1.9a470 274 0 0 1-19-7.2c-0.98-0.39-1.9-0.8-2.9-1.2-1.9-0.76-3.8-1.5-5.6-2.3a378 220 0 0 1-10-4.4c-0.28-0.12-0.55-0.23-0.82-0.36-3.5-1.6-6.8-3.3-10-4.9a294 171 0 0 1-7-3.6c-0.76-0.41-1.5-0.79-2.3-1.2-0.8-0.43-1.5-0.89-2.3-1.3-1.8-1-3.6-2-5.4-3-1.5-0.87-2.9-1.8-4.3-2.6-0.9-0.56-1.8-1.1-2.7-1.7a229 133 0 0 1-4.9-3.2c-2.3-1.6-4.7-3.2-6.8-4.8-0.67-0.5-1.2-1.1-1.9-1.6a164 96 0 0 1-10-8.9c-0.53-0.51-0.96-1-1.4-1.6-0.98-1-2-2-2.9-3-0.74-0.87-1.4-1.8-2.1-2.6 0-0.046-0.19-0.068-0.19-0.12-1.3-1.6-2.4-3.3-3.5-4.9-0.96-1.5-1.9-2.9-2.7-4.4-0.19-0.35-0.23-0.72-0.41-1.1-0.35-0.72-0.7-1.4-1-2.2-0.28-0.6-0.59-1.2-0.82-1.8-0.49-1.3-0.88-2.6-1.2-3.8-0.19-0.48-0.3-0.97-0.41-1.4-0.31-1.3-0.45-2.6-0.63-4a108 63 0 0 1-0.41-4.8z" fill="url(#e)" overflow="visible" stroke="url(#f)"/><path d="m9.6e-5 351v307c0 103 430 186 960 186 530 0 960-83 960-186v-307c0 1.6-0.19 3.2-0.41 4.8-0.19 1.3-0.29 2.6-0.63 4-0.19 0.48-0.28 0.96-0.41 1.4-0.35 1.3-0.74 2.6-1.2 3.8-0.23 0.6-0.57 1.2-0.82 1.8-0.31 0.73-0.67 1.4-1 2.2a121 70 0 0 1-6.6 10v0.12c-0.7 0.89-1.5 1.8-2.3 2.6-0.9 1-1.9 2-2.9 3-0.49 0.51-0.92 1-1.4 1.6a163 95 0 0 1-10 8.9 207 121 0 0 1-16 11c-1.4 0.88-2.8 1.8-4.3 2.6-1.8 1-3.5 2-5.4 3-0.76 0.43-1.5 0.89-2.3 1.3-3 1.6-6.1 3.2-9.3 4.8-3.3 1.6-6.6 3.3-10 4.9a373 217 0 0 1-11 4.8c-1.8 0.77-3.7 1.5-5.6 2.3-2.8 1.2-5.7 2.3-8.7 3.5-4.3 1.7-8.7 3.3-13 4.9-1.8 0.65-3.7 1.3-5.6 1.9-6.3 2.2-13 4.5-20 6.7-7.3 2.3-15 4.6-23 6.8-2.2 0.63-4.4 1.3-6.6 1.9-3.6 1-7.3 2-11 3-7.9 2.1-16 4.3-24 6.4a891 519 0 0 1-20 4.8c-3.2 0.74-6.4 1.4-9.7 2.2-3.9 0.87-7.8 1.7-12 2.5a1096 639 0 0 1-39 8c-6.7 1.3-14 2.6-21 3.8-3.3 0.61-6.5 1.2-9.9 1.8-3.7 0.66-7.4 1.3-11 1.9-5.5 0.94-11 1.8-17 2.8-1.7 0.27-3.3 0.57-4.9 0.84-0.7 0.11-1.4 0.25-2.1 0.36-6.6 1.1-13 2.1-20 3.1-5.4 0.82-11 1.6-16 2.4-2.3 0.33-4.5 0.64-6.8 0.97-3 0.42-6.1 0.78-9.1 1.2-4.7 0.66-9.4 1.4-14 2-155 21-342 33-544 33-202 0-390-12-544-33a1698 990 0 0 1-24-3.4c-4.4-0.63-8.7-1.3-13-1.9-5.7-0.85-11-1.8-17-2.6-4.6-0.72-9.3-1.4-14-2.2-9.1-1.5-18-2.9-27-4.4-4.7-0.81-9.2-1.7-14-2.5-2.1-0.39-4.3-0.81-6.4-1.2-5.4-1-11-2-16-3-6.1-1.2-12-2.4-18-3.6-1.3-0.26-2.6-0.46-3.9-0.72-5.9-1.2-12-2.5-18-3.7-6.5-1.4-13-2.8-19-4.2-5.7-1.3-11-2.6-17-4-1.1-0.27-2.2-0.57-3.3-0.84-5.1-1.3-10-2.6-15-3.8-7.7-2-15-3.9-22-6-2.2-0.62-4.4-1.3-6.6-1.9-7.8-2.3-16-4.5-23-6.8-6.8-2.2-13-4.5-20-6.7-1.8-0.65-3.8-1.3-5.6-1.9a470 274 0 0 1-19-7.2c-0.98-0.39-1.9-0.8-2.9-1.2-1.9-0.76-3.8-1.5-5.6-2.3a378 220 0 0 1-10-4.4c-0.28-0.12-0.55-0.23-0.82-0.36-3.5-1.6-6.8-3.3-10-4.9a294 171 0 0 1-7-3.6c-0.76-0.41-1.5-0.8-2.3-1.2-0.8-0.43-1.5-0.89-2.3-1.3-1.8-1-3.6-2-5.4-3-1.5-0.87-2.9-1.8-4.3-2.6-0.9-0.56-1.8-1.1-2.7-1.7a229 133 0 0 1-4.9-3.2c-2.3-1.6-4.7-3.2-6.8-4.8-0.67-0.51-1.2-1.1-1.9-1.6a164 96 0 0 1-10-8.9c-0.53-0.51-0.96-1-1.4-1.6-0.98-1-2-2-2.9-3-0.74-0.87-1.4-1.8-2.1-2.6 0-0.046-0.19-0.068-0.19-0.12a135 78 0 0 1-3.5-4.9c-0.96-1.5-1.9-2.9-2.7-4.4-0.19-0.35-0.23-0.72-0.41-1.1-0.35-0.72-0.7-1.4-1-2.2-0.27-0.6-0.59-1.2-0.82-1.8-0.49-1.3-0.88-2.6-1.2-3.8-0.19-0.48-0.29-0.97-0.41-1.4-0.31-1.3-0.45-2.6-0.63-4a108 63 0 0 1-0.41-4.8z" fill="url(#e)" overflow="visible" stroke="url(#h)"/><path d="m27 7.1e-6c101 82 480 143 933 143 453 0 832-61 933-143z" fill="url(#i)"/><path d="m-3.2e-8 702v307c0 25 26 49 72 71h1775c47-22 72-46 72-71v-307c0 1.9-0.19 3.8-0.41 5.6-0.19 0.68-0.27 1.4-0.41 2-0.21 1-0.53 2-0.82 3-0.19 0.59-0.19 1.2-0.41 1.8-0.61 1.8-1.4 3.5-2.3 5.3-0.96 1.9-2.1 3.8-3.3 5.8-1.2 1.9-2.6 3.9-4.1 5.8-1 1.3-2.2 2.5-3.3 3.7-0.61 0.66-1.2 1.3-1.9 1.9a161 94 0 0 1-11 9.7c-0.65 0.51-1.2 1.1-1.9 1.6-0.19 0.13-0.45 0.23-0.63 0.36-2 1.5-4 3.1-6.2 4.6-0.27 0.18-0.57 0.31-0.82 0.48a227 132 0 0 1-18 11c-3.2 1.8-6.6 3.5-10 5.3-3.3 1.6-6.6 3.3-10 4.9-0.28 0.13-0.55 0.24-0.82 0.36-2.8 1.3-5.7 2.6-8.7 3.8l-1.4 0.6a404 235 0 0 1-14 5.8c-4.3 1.7-8.6 3.3-13 4.9-3 1.1-6.2 2.2-9.3 3.2-5.2 1.8-10 3.5-16 5.3 0 0.034-0.19 0.091-0.19 0.12a647 377 0 0 1-23 6.8c-2.2 0.63-4.4 1.3-6.6 1.9-3.6 1-7.3 2-11 3a820 478 0 0 1-27 7.1l-2.5 0.6c-5.5 1.3-11 2.7-17 4-0.53 0.12-1.1 0.23-1.6 0.36-5.7 1.3-12 2.6-18 3.8-6.3 1.4-13 2.7-19 4.1-20 4-40 7.9-62 12-7.1 1.2-14 2.4-22 3.6-0.7 0.11-1.4 0.25-2.1 0.36-6.6 1.1-13 2.1-20 3.1-15 2.3-30 4.5-46 6.6-155 21-342 33-544 33-202 0-390-12-544-33-7.8-1.1-16-2.1-23-3.2-7.7-1.1-15-2.2-23-3.4a1502 875 0 0 1-20-3.1c-0.65-0.1-1.2-0.25-1.9-0.36a1454 847 0 0 1-22-3.6c-7.1-1.2-14-2.5-21-3.7-6.9-1.3-14-2.5-21-3.8-6.1-1.2-12-2.4-18-3.6-1.3-0.26-2.6-0.46-3.9-0.72-5.9-1.2-12-2.5-18-3.7-6.5-1.4-13-2.8-19-4.2-5.7-1.3-11-2.6-17-4-1.1-0.27-2.2-0.57-3.3-0.84-5.1-1.3-10-2.6-15-3.8-7.7-2-15-3.9-22-6-2.2-0.62-4.4-1.3-6.6-1.9a647 377 0 0 1-23-6.8c0-0.034-0.2-0.091-0.2-0.12a562 328 0 0 1-16-5.3c-3.1-1.1-6.3-2.2-9.3-3.2a466 272 0 0 1-26-10 372 217 0 0 1-12-5.2l-0.82-0.36c-3.5-1.6-6.8-3.3-10-4.9a294 171 0 0 1-7-3.6c-1.1-0.57-2-1.1-3.1-1.7-3.2-1.7-6.3-3.5-9.3-5.3a221 129 0 0 1-16-11c-0.19-0.11-0.25-0.24-0.41-0.36a177 103 0 0 1-6.8-5.6 163 95 0 0 1-6-5.6 144 84 0 0 1-5.1-5.6 133 77 0 0 1-4.1-5.8c-0.98-1.5-1.9-2.9-2.7-4.4-0.23-0.44-0.41-0.88-0.63-1.3-0.86-1.8-1.7-3.5-2.3-5.3-0.19-0.59-0.23-1.2-0.41-1.8-0.3-1-0.61-2-0.82-3-0.19-0.68-0.29-1.4-0.41-2a108 63 0 0 1-0.41-5.6z" fill="url(#e)"/></svg>
