<svg xmlns="http://www.w3.org/2000/svg" width="1000" height="1000" viewBox="0 0 1000 1000" xml:space="preserve"><svg width="1000" height="1000" viewBox="0 0 900 900" xml:space="preserve"><path fill="#FFF" d="M0 0h900v900H0z"/><path shape-rendering="crispEdges" d="M240 80h20v20h-20zM260 80h20v20h-20zM300 80h20v20h-20zM320 80h20v20h-20zM340 80h20v20h-20zM380 80h20v20h-20zM400 80h20v20h-20zM440 80h20v20h-20zM480 80h20v20h-20zM500 80h20v20h-20zM540 80h20v20h-20zM560 80h20v20h-20zM640 80h20v20h-20zM240 100h20v20h-20zM320 100h20v20h-20zM340 100h20v20h-20zM360 100h20v20h-20zM440 100h20v20h-20zM460 100h20v20h-20zM480 100h20v20h-20zM500 100h20v20h-20zM520 100h20v20h-20zM540 100h20v20h-20zM560 100h20v20h-20zM580 100h20v20h-20zM620 100h20v20h-20zM260 120h20v20h-20zM300 120h20v20h-20zM340 120h20v20h-20zM360 120h20v20h-20zM380 120h20v20h-20zM420 120h20v20h-20zM480 120h20v20h-20zM520 120h20v20h-20zM540 120h20v20h-20zM560 120h20v20h-20zM600 120h20v20h-20zM240 140h20v20h-20zM260 140h20v20h-20zM280 140h20v20h-20zM320 140h20v20h-20zM380 140h20v20h-20zM400 140h20v20h-20zM420 140h20v20h-20zM460 140h20v20h-20zM500 140h20v20h-20zM520 140h20v20h-20zM620 140h20v20h-20zM640 140h20v20h-20zM260 160h20v20h-20zM280 160h20v20h-20zM320 160h20v20h-20zM420 160h20v20h-20zM440 160h20v20h-20zM480 160h20v20h-20zM560 160h20v20h-20zM260 180h20v20h-20zM280 180h20v20h-20zM300 180h20v20h-20zM340 180h20v20h-20zM380 180h20v20h-20zM500 180h20v20h-20zM540 180h20v20h-20zM580 180h20v20h-20zM600 180h20v20h-20zM640 180h20v20h-20zM240 200h20v20h-20zM280 200h20v20h-20zM320 200h20v20h-20zM360 200h20v20h-20zM400 200h20v20h-20zM440 200h20v20h-20zM480 200h20v20h-20zM520 200h20v20h-20zM560 200h20v20h-20zM600 200h20v20h-20zM640 200h20v20h-20zM240 220h20v20h-20zM320 220h20v20h-20zM360 220h20v20h-20zM420 220h20v20h-20zM440 220h20v20h-20zM460 220h20v20h-20zM620 220h20v20h-20zM640 220h20v20h-20zM80 240h20v20H80zM120 240h20v20h-20zM140 240h20v20h-20zM180 240h20v20h-20zM200 240h20v20h-20zM220 240h20v20h-20zM260 240h20v20h-20zM280 240h20v20h-20zM320 240h20v20h-20zM340 240h20v20h-20zM400 240h20v20h-20zM460 240h20v20h-20zM480 240h20v20h-20zM500 240h20v20h-20zM520 240h20v20h-20zM560 240h20v20h-20zM680 240h20v20h-20zM740 240h20v20h-20zM780 240h20v20h-20zM800 240h20v20h-20zM160 260h20v20h-20zM180 260h20v20h-20zM240 260h20v20h-20zM260 260h20v20h-20zM280 260h20v20h-20zM300 260h20v20h-20zM360 260h20v20h-20zM380 260h20v20h-20zM400 260h20v20h-20zM500 260h20v20h-20zM520 260h20v20h-20zM600 260h20v20h-20zM620 260h20v20h-20zM640 260h20v20h-20zM660 260h20v20h-20zM800 260h20v20h-20zM80 280h20v20H80zM120 280h20v20h-20zM200 280h20v20h-20zM280 280h20v20h-20zM300 280h20v20h-20zM320 280h20v20h-20zM360 280h20v20h-20zM380 280h20v20h-20zM440 280h20v20h-20zM500 280h20v20h-20zM520 280h20v20h-20zM540 280h20v20h-20zM560 280h20v20h-20zM580 280h20v20h-20zM640 280h20v20h-20zM660 280h20v20h-20zM720 280h20v20h-20zM760 280h20v20h-20zM780 280h20v20h-20zM800 280h20v20h-20zM100 300h20v20h-20zM160 300h20v20h-20zM240 300h20v20h-20zM300 300h20v20h-20zM380 300h20v20h-20zM440 300h20v20h-20zM460 300h20v20h-20zM500 300h20v20h-20zM520 300h20v20h-20zM540 300h20v20h-20zM560 300h20v20h-20zM580 300h20v20h-20zM600 300h20v20h-20zM680 300h20v20h-20zM740 300h20v20h-20zM800 300h20v20h-20zM80 320h20v20H80zM100 320h20v20h-20zM140 320h20v20h-20zM180 320h20v20h-20zM200 320h20v20h-20zM220 320h20v20h-20zM260 320h20v20h-20zM320 320h20v20h-20zM340 320h20v20h-20zM400 320h20v20h-20zM420 320h20v20h-20zM440 320h20v20h-20zM480 320h20v20h-20zM520 320h20v20h-20zM620 320h20v20h-20zM660 320h20v20h-20zM700 320h20v20h-20zM720 320h20v20h-20zM740 320h20v20h-20zM760 320h20v20h-20zM780 320h20v20h-20zM800 320h20v20h-20zM80 340h20v20H80zM140 340h20v20h-20zM180 340h20v20h-20zM220 340h20v20h-20zM240 340h20v20h-20zM280 340h20v20h-20zM320 340h20v20h-20zM360 340h20v20h-20zM400 340h20v20h-20zM440 340h20v20h-20zM460 340h20v20h-20zM520 340h20v20h-20zM540 340h20v20h-20zM560 340h20v20h-20zM600 340h20v20h-20zM680 340h20v20h-20zM700 340h20v20h-20zM740 340h20v20h-20zM800 340h20v20h-20zM160 360h20v20h-20zM200 360h20v20h-20zM220 360h20v20h-20zM240 360h20v20h-20zM280 360h20v20h-20zM300 360h20v20h-20zM320 360h20v20h-20zM420 360h20v20h-20zM440 360h20v20h-20zM480 360h20v20h-20zM500 360h20v20h-20zM540 360h20v20h-20zM580 360h20v20h-20zM600 360h20v20h-20zM660 360h20v20h-20zM700 360h20v20h-20zM720 360h20v20h-20zM740 360h20v20h-20zM780 360h20v20h-20zM800 360h20v20h-20zM80 380h20v20H80zM100 380h20v20h-20zM180 380h20v20h-20zM220 380h20v20h-20zM320 380h20v20h-20zM360 380h20v20h-20zM400 380h20v20h-20zM420 380h20v20h-20zM440 380h20v20h-20zM460 380h20v20h-20zM500 380h20v20h-20zM540 380h20v20h-20zM580 380h20v20h-20zM640 380h20v20h-20zM660 380h20v20h-20zM680 380h20v20h-20zM80 400h20v20H80zM120 400h20v20h-20zM140 400h20v20h-20zM200 400h20v20h-20zM360 400h20v20h-20zM400 400h20v20h-20zM420 400h20v20h-20zM440 400h20v20h-20zM480 400h20v20h-20zM520 400h20v20h-20zM540 400h20v20h-20zM560 400h20v20h-20zM600 400h20v20h-20zM660 400h20v20h-20zM80 420h20v20H80zM100 420h20v20h-20zM120 420h20v20h-20zM140 420h20v20h-20zM180 420h20v20h-20zM220 420h20v20h-20zM240 420h20v20h-20zM300 420h20v20h-20zM360 420h20v20h-20zM400 420h20v20h-20zM460 420h20v20h-20zM480 420h20v20h-20zM540 420h20v20h-20zM560 420h20v20h-20zM580 420h20v20h-20zM640 420h20v20h-20zM740 420h20v20h-20zM760 420h20v20h-20zM780 420h20v20h-20zM800 420h20v20h-20zM80 440h20v20H80zM120 440h20v20h-20zM160 440h20v20h-20zM200 440h20v20h-20zM260 440h20v20h-20zM340 440h20v20h-20zM360 440h20v20h-20zM380 440h20v20h-20zM400 440h20v20h-20zM420 440h20v20h-20zM460 440h20v20h-20zM520 440h20v20h-20zM540 440h20v20h-20zM560 440h20v20h-20zM580 440h20v20h-20zM600 440h20v20h-20zM640 440h20v20h-20zM660 440h20v20h-20zM680 440h20v20h-20zM780 440h20v20h-20zM800 440h20v20h-20zM80 460h20v20H80zM120 460h20v20h-20zM140 460h20v20h-20zM240 460h20v20h-20zM260 460h20v20h-20zM420 460h20v20h-20zM440 460h20v20h-20zM460 460h20v20h-20zM500 460h20v20h-20zM560 460h20v20h-20zM600 460h20v20h-20zM640 460h20v20h-20zM680 460h20v20h-20zM700 460h20v20h-20zM720 460h20v20h-20zM740 460h20v20h-20zM760 460h20v20h-20zM780 460h20v20h-20zM80 480h20v20H80zM100 480h20v20h-20zM140 480h20v20h-20zM180 480h20v20h-20zM200 480h20v20h-20zM320 480h20v20h-20zM340 480h20v20h-20zM360 480h20v20h-20zM400 480h20v20h-20zM440 480h20v20h-20zM480 480h20v20h-20zM500 480h20v20h-20zM560 480h20v20h-20zM580 480h20v20h-20zM640 480h20v20h-20zM660 480h20v20h-20zM700 480h20v20h-20zM720 480h20v20h-20zM740 480h20v20h-20zM780 480h20v20h-20zM180 500h20v20h-20zM240 500h20v20h-20zM260 500h20v20h-20zM320 500h20v20h-20zM340 500h20v20h-20zM440 500h20v20h-20zM460 500h20v20h-20zM480 500h20v20h-20zM500 500h20v20h-20zM540 500h20v20h-20zM600 500h20v20h-20zM640 500h20v20h-20zM660 500h20v20h-20zM720 500h20v20h-20zM800 500h20v20h-20zM80 520h20v20H80zM100 520h20v20h-20zM120 520h20v20h-20zM160 520h20v20h-20zM180 520h20v20h-20zM200 520h20v20h-20zM220 520h20v20h-20zM260 520h20v20h-20zM320 520h20v20h-20zM340 520h20v20h-20zM360 520h20v20h-20zM420 520h20v20h-20zM460 520h20v20h-20zM480 520h20v20h-20zM500 520h20v20h-20zM620 520h20v20h-20zM700 520h20v20h-20zM740 520h20v20h-20zM760 520h20v20h-20zM80 540h20v20H80zM140 540h20v20h-20zM160 540h20v20h-20zM240 540h20v20h-20zM340 540h20v20h-20zM360 540h20v20h-20zM380 540h20v20h-20zM440 540h20v20h-20zM500 540h20v20h-20zM540 540h20v20h-20zM560 540h20v20h-20zM600 540h20v20h-20zM620 540h20v20h-20zM640 540h20v20h-20zM660 540h20v20h-20zM700 540h20v20h-20zM740 540h20v20h-20zM760 540h20v20h-20zM780 540h20v20h-20zM800 540h20v20h-20zM180 560h20v20h-20zM200 560h20v20h-20zM220 560h20v20h-20zM240 560h20v20h-20zM280 560h20v20h-20zM380 560h20v20h-20zM440 560h20v20h-20zM500 560h20v20h-20zM520 560h20v20h-20zM580 560h20v20h-20zM620 560h20v20h-20zM640 560h20v20h-20zM660 560h20v20h-20zM680 560h20v20h-20zM700 560h20v20h-20zM740 560h20v20h-20zM780 560h20v20h-20zM800 560h20v20h-20zM140 580h20v20h-20zM180 580h20v20h-20zM280 580h20v20h-20zM300 580h20v20h-20zM320 580h20v20h-20zM400 580h20v20h-20zM420 580h20v20h-20zM440 580h20v20h-20zM480 580h20v20h-20zM520 580h20v20h-20zM600 580h20v20h-20zM620 580h20v20h-20zM640 580h20v20h-20zM680 580h20v20h-20zM700 580h20v20h-20zM740 580h20v20h-20zM780 580h20v20h-20zM100 600h20v20h-20zM140 600h20v20h-20zM160 600h20v20h-20zM200 600h20v20h-20zM240 600h20v20h-20zM280 600h20v20h-20zM340 600h20v20h-20zM380 600h20v20h-20zM400 600h20v20h-20zM420 600h20v20h-20zM440 600h20v20h-20zM460 600h20v20h-20zM500 600h20v20h-20zM560 600h20v20h-20zM600 600h20v20h-20zM660 600h20v20h-20zM720 600h20v20h-20zM780 600h20v20h-20zM80 620h20v20H80zM120 620h20v20h-20zM160 620h20v20h-20zM220 620h20v20h-20zM260 620h20v20h-20zM320 620h20v20h-20zM340 620h20v20h-20zM400 620h20v20h-20zM440 620h20v20h-20zM500 620h20v20h-20zM540 620h20v20h-20zM580 620h20v20h-20zM660 620h20v20h-20zM740 620h20v20h-20zM760 620h20v20h-20zM120 640h20v20h-20zM140 640h20v20h-20zM200 640h20v20h-20zM220 640h20v20h-20zM260 640h20v20h-20zM280 640h20v20h-20zM300 640h20v20h-20zM360 640h20v20h-20zM380 640h20v20h-20zM400 640h20v20h-20zM420 640h20v20h-20zM440 640h20v20h-20zM540 640h20v20h-20zM560 640h20v20h-20zM640 640h20v20h-20zM660 640h20v20h-20zM680 640h20v20h-20zM700 640h20v20h-20zM720 640h20v20h-20zM740 640h20v20h-20zM780 640h20v20h-20zM800 640h20v20h-20zM240 660h20v20h-20zM280 660h20v20h-20zM300 660h20v20h-20zM320 660h20v20h-20zM340 660h20v20h-20zM380 660h20v20h-20zM420 660h20v20h-20zM440 660h20v20h-20zM460 660h20v20h-20zM480 660h20v20h-20zM540 660h20v20h-20zM580 660h20v20h-20zM620 660h20v20h-20zM640 660h20v20h-20zM720 660h20v20h-20zM740 660h20v20h-20zM760 660h20v20h-20zM240 680h20v20h-20zM280 680h20v20h-20zM300 680h20v20h-20zM320 680h20v20h-20zM340 680h20v20h-20zM400 680h20v20h-20zM420 680h20v20h-20zM520 680h20v20h-20zM560 680h20v20h-20zM600 680h20v20h-20zM640 680h20v20h-20zM680 680h20v20h-20zM720 680h20v20h-20zM760 680h20v20h-20zM780 680h20v20h-20zM800 680h20v20h-20zM240 700h20v20h-20zM280 700h20v20h-20zM320 700h20v20h-20zM360 700h20v20h-20zM400 700h20v20h-20zM460 700h20v20h-20zM520 700h20v20h-20zM560 700h20v20h-20zM580 700h20v20h-20zM600 700h20v20h-20zM620 700h20v20h-20zM640 700h20v20h-20zM720 700h20v20h-20zM800 700h20v20h-20zM260 720h20v20h-20zM300 720h20v20h-20zM320 720h20v20h-20zM340 720h20v20h-20zM360 720h20v20h-20zM440 720h20v20h-20zM460 720h20v20h-20zM520 720h20v20h-20zM640 720h20v20h-20zM660 720h20v20h-20zM680 720h20v20h-20zM700 720h20v20h-20zM720 720h20v20h-20zM760 720h20v20h-20zM780 720h20v20h-20zM240 740h20v20h-20zM260 740h20v20h-20zM320 740h20v20h-20zM360 740h20v20h-20zM380 740h20v20h-20zM440 740h20v20h-20zM460 740h20v20h-20zM500 740h20v20h-20zM520 740h20v20h-20zM540 740h20v20h-20zM640 740h20v20h-20zM660 740h20v20h-20zM680 740h20v20h-20zM700 740h20v20h-20zM720 740h20v20h-20zM780 740h20v20h-20zM800 740h20v20h-20zM240 760h20v20h-20zM260 760h20v20h-20zM320 760h20v20h-20zM360 760h20v20h-20zM400 760h20v20h-20zM440 760h20v20h-20zM500 760h20v20h-20zM520 760h20v20h-20zM540 760h20v20h-20zM580 760h20v20h-20zM600 760h20v20h-20zM620 760h20v20h-20zM680 760h20v20h-20zM720 760h20v20h-20zM760 760h20v20h-20zM780 760h20v20h-20zM260 780h20v20h-20zM320 780h20v20h-20zM360 780h20v20h-20zM400 780h20v20h-20zM480 780h20v20h-20zM540 780h20v20h-20zM620 780h20v20h-20zM720 780h20v20h-20zM740 780h20v20h-20zM760 780h20v20h-20zM780 780h20v20h-20zM800 780h20v20h-20zM240 800h20v20h-20zM280 800h20v20h-20zM300 800h20v20h-20zM320 800h20v20h-20zM340 800h20v20h-20zM360 800h20v20h-20zM380 800h20v20h-20zM500 800h20v20h-20zM520 800h20v20h-20zM560 800h20v20h-20zM580 800h20v20h-20zM600 800h20v20h-20zM660 800h20v20h-20zM700 800h20v20h-20zM740 800h20v20h-20zM780 800h20v20h-20zM800 800h20v20h-20zM80 80h140v140H80z"/><path fill="#FFF" shape-rendering="crispEdges" d="M100 100h100v100H100z"/><path shape-rendering="crispEdges" d="M680 80h140v140H680z"/><path fill="#FFF" shape-rendering="crispEdges" d="M700 100h100v100H700z"/><path shape-rendering="crispEdges" d="M120 120h60v60h-60zM720 120h60v60h-60zM80 680h140v140H80z"/><path fill="#FFF" shape-rendering="crispEdges" d="M100 700h100v100H100z"/><path shape-rendering="crispEdges" d="M120 720h60v60h-60z"/></svg></svg>