<svg version="1.1" viewBox="0 0 512 512" xmlns="http://www.w3.org/2000/svg" xmlns:xlink="http://www.w3.org/1999/xlink"><defs><filter id="d" x="-.020825" y="-.032639" width="1.0417" height="1.0653" color-interpolation-filters="sRGB"><feGaussianBlur stdDeviation="3.097"/></filter><radialGradient id="b" cx="87.451" cy="78.341" r="109.29" fr="0" gradientTransform="matrix(2.0132,0,0,2.0132,25.64,21.534)" gradientUnits="userSpaceOnUse" spreadMethod="reflect"><stop stop-color="#fff" offset="0"/><stop stop-color="#72747d" offset=".45"/><stop stop-color="#72747d" offset=".5"/><stop stop-color="#3e4049" offset="1"/></radialGradient><radialGradient id="c" cx="101.62" cy="69.581" r="109.29" gradientTransform="matrix(2.2081 0 0 2.2081 -42.478 -42.147)" gradientUnits="userSpaceOnUse" spreadMethod="reflect" xlink:href="#b"/><linearGradient id="g" x1="289.26" x2="289.26" y1="588.13" y2="387.91" gradientTransform="matrix(-1 0 0 1 498.46 -68.455)" gradientUnits="userSpaceOnUse" xlink:href="#b"/><radialGradient id="radialGradient7092" cx="87.451" cy="78.341" r="109.29" fr="0" gradientTransform="matrix(2.0132 0 0 2.0132 -19.62 -27.098)" gradientUnits="userSpaceOnUse" spreadMethod="reflect" xlink:href="#b"/></defs><g><path d="m412.9 208.28c0 114.02-92.43 206.45-206.45 206.45s-206.45-92.43-206.45-206.45 92.43-206.45 206.45-206.45 206.45 92.43 206.45 206.45z" fill="url(#radialGradient7092)"/><path d="m206.44 7.4328c-79.043 0-147.16 46.642-178.44 113.88 31.282 67.23 99.406 113.85 178.44 113.85 79.04 0 147.19-46.617 178.47-113.85-31.278-67.24-99.428-113.88-178.47-113.88z" fill="url(#c)" filter="url(#d)"/><path d="m356.42 350.12c-41.184 28.378-93.446 45.375-150.38 45.375-55.739 0-107.09-16.253-147.88-43.562 37.527 38.728 90.095 62.812 148.28 62.812 59.077 0 112.34-24.85 149.97-64.625z" fill="url(#g)" opacity=".3"/></g></svg>
