<svg version="1.1" viewBox="0 0 600 600" xmlns="http://www.w3.org/2000/svg" xmlns:xlink="http://www.w3.org/1999/xlink"><defs><linearGradient id="a"><stop stop-color="#fff" offset=".6026"/><stop stop-color="#2e76ff" offset=".6026"/></linearGradient><linearGradient id="y"><stop stop-color="#fff" offset=".6026"/><stop stop-color="#ffa52e" offset=".6026"/></linearGradient><linearGradient id="g"><stop stop-color="#fff" offset=".6026"/><stop stop-color="#1fb135" offset=".6026"/></linearGradient><linearGradient id="n"><stop stop-color="#fff" offset=".6026"/><stop stop-color="#745327" offset=".6026"/></linearGradient><linearGradient id="j" x1="405.9" x2="409.1" y1="165.9" y2="171" gradientTransform="matrix(1 0 0 3.265 4.777 -299.1)" gradientUnits="userSpaceOnUse" spreadMethod="repeat" xlink:href="#y"/><linearGradient id="i" x1="405.9" x2="409.1" y1="165.9" y2="171" gradientTransform="matrix(1 0 0 3.265 4.777 -299.1)" gradientUnits="userSpaceOnUse" xlink:href="#a" spreadMethod="repeat"/><linearGradient id="h" x1="405.9" x2="409.1" y1="165.9" y2="171" gradientTransform="matrix(1 0 0 3.265 4.777 -299.1)" gradientUnits="userSpaceOnUse" spreadMethod="repeat" xlink:href="#g"/><linearGradient id="f" x1="405.9" x2="409.1" y1="165.9" y2="171" gradientTransform="matrix(1 0 0 3.265 4.777 -299.1)" gradientUnits="userSpaceOnUse" spreadMethod="repeat" xlink:href="#n"/><linearGradient id="e" x1="405.9" x2="409.1" y1="165.9" y2="171" gradientTransform="matrix(1 0 0 3.265 229.8 -299.1)" gradientUnits="userSpaceOnUse" spreadMethod="repeat" xlink:href="#y"/><linearGradient id="d" x1="405.9" x2="409.1" y1="165.9" y2="171" gradientTransform="matrix(1 0 0 3.265 229.8 -299.1)" gradientUnits="userSpaceOnUse" spreadMethod="repeat" xlink:href="#g"/><linearGradient id="c" x1="405.9" x2="409.1" y1="165.9" y2="171" gradientTransform="matrix(1 0 0 3.265 229.8 -299.1)" gradientUnits="userSpaceOnUse" xlink:href="#a" spreadMethod="repeat"/><linearGradient id="b" x1="405.9" x2="409.1" y1="165.9" y2="171" gradientTransform="matrix(1 0 0 3.265 229.8 -299.1)" gradientUnits="userSpaceOnUse" spreadMethod="repeat" xlink:href="#n"/></defs><g transform="translate(-308.7 -57.28)"><text transform="scale(.8892 1.125)" x="727.55994" y="147.47772" fill="#000000" font-family="'Nimbus Mono PS'" font-size="14.37px" stop-color="#000000" stroke-width="2" text-align="end" text-anchor="end" style="-inkscape-stroke:none;paint-order:markers fill stroke" xml:space="preserve"><tspan x="727.55994" y="147.47772" fill="#000000" stroke-width="2">RJ-45 PLUG</tspan></text><path d="m724.8 365.5s41.53 68.42-116.1 68.42-116.1-68.42-116.1-68.42" fill-opacity="0" stop-color="#000000" stroke="#e6e6e6" stroke-width="20" style="paint-order:markers fill stroke"/><g transform="translate(28.38)"><g stroke-width="2"><path d="m404.1 141.2h127.3v118h-127.3z" fill="#e6e6e6" stop-color="#000000" style="paint-order:markers fill stroke"/><path d="m404.1 141.2v170.6l20 85.89h87.29l20-85.89v-170.6z" fill="#e6e6e6" stop-color="#000000" style="paint-order:markers fill stroke"/><path d="m437.3 127.6h60.97v13.61h-60.97z" fill="#ccc" stop-color="#000000" style="paint-order:markers fill stroke"/></g><g fill="#d3bc5f" stroke-width="2"><path d="m413.8 141.2h8.813v29.82h-8.813z" stop-color="#000000" style="paint-order:markers fill stroke"/><path d="m428 141.2h8.813v29.82h-8.813z" stop-color="#000000" style="paint-order:markers fill stroke"/><path d="m442.1 141.2h8.813v29.82h-8.813z" stop-color="#000000" style="paint-order:markers fill stroke"/><path d="m456.3 141.2h8.813v29.82h-8.813z" stop-color="#000000" style="paint-order:markers fill stroke"/><path d="m470.5 141.2h8.813v29.82h-8.813z" stop-color="#000000" style="paint-order:markers fill stroke"/><path d="m484.6 141.2h8.813v29.82h-8.813z" stop-color="#000000" style="paint-order:markers fill stroke"/><path d="m498.8 141.2h8.813v29.82h-8.813z" stop-color="#000000" style="paint-order:markers fill stroke"/><path d="m512.9 141.2h8.813v29.82h-8.813z" stop-color="#000000" style="paint-order:markers fill stroke"/></g><g stroke-width="2"><path d="m418.6 144.4-2.619 0.6487c-0.2592 0.0649-0.3411 0.1297-0.3411 0.2811 0 0.1406 0.1637 0.2703 0.3274 0.2703 0.0273 0 0.1637-0.0216 0.2183-0.0324l1.705-0.4217v5.33h-1.828c-0.3001 0-0.4502 0.0973-0.4502 0.2703 0 0.1838 0.1637 0.2811 0.4502 0.2811h4.366c0.2865 0 0.4366-0.0973 0.4366-0.2811 0-0.173-0.1501-0.2703-0.4366-0.2703h-1.828z" style="paint-order:markers fill stroke"/><path d="m430.4 150.5c0.7367-0.4973 1.583-1.114 2.715-1.979 1.719-1.297 1.992-1.611 1.992-2.249 0-1.005-1.214-1.881-2.592-1.881-0.8459 0-1.637 0.3027-2.156 0.8217-0.2729 0.2703-0.4502 0.5946-0.4502 0.8001 0 0.1298 0.1501 0.2487 0.3411 0.2487 0.1774 0 0.2865-0.0757 0.3411-0.2487 0.2319-0.6271 1.037-1.07 1.924-1.07 1.01 0 1.883 0.6163 1.883 1.319 0 0.4649-0.2456 0.7352-1.514 1.708-1.132 0.8541-2.169 1.611-3.124 2.27l-0.1228 0.0865v0.7244h5.525v-0.8758c0-0.227-0.1228-0.346-0.3547-0.346s-0.3547 0.1189-0.3547 0.346v0.3244z" style="paint-order:markers fill stroke"/><path d="m446.3 147.2c-0.2865 0-0.4366 0.1081-0.4366 0.2811 0 0.173 0.1501 0.2703 0.4366 0.2703 1.31 0.0216 2.36 0.6703 2.36 1.481 0 0.7784-0.9959 1.438-2.197 1.438-0.764 0-1.46-0.1946-2.115-0.573-0.1228-0.0649-0.191-0.0865-0.2865-0.0865-0.1774 0-0.3274 0.1189-0.3274 0.2595 0 0.173 0.1774 0.3135 0.6685 0.5082 0.7094 0.3027 1.351 0.4433 2.046 0.4433 1.61 0 2.92-0.8974 2.92-1.989 0-0.7028-0.6276-1.373-1.583-1.708 0.8322-0.3135 1.296-0.8217 1.296-1.427 0-0.9622-1.078-1.697-2.483-1.697-0.7231 0-1.419 0.173-1.965 0.4973-0.3138 0.1946-0.5048 0.3784-0.5048 0.5082 0 0.1406 0.1501 0.2595 0.3411 0.2595 0.1092 0 0.191-0.0324 0.2592-0.0973 0.4911-0.4325 1.05-0.6163 1.869-0.6163 1.01 0 1.774 0.4973 1.774 1.146 0 0.346-0.2456 0.6811-0.6412 0.8866-0.3274 0.1622-0.6003 0.2162-1.132 0.2162z" style="paint-order:markers fill stroke"/><path d="m461.8 149.2v1.243h-0.9686c-0.2865 0-0.4366 0.0973-0.4366 0.2703 0 0.1838 0.1637 0.2811 0.4366 0.2811h2.074c0.2729 0 0.4366-0.0973 0.4366-0.2811 0-0.173-0.1501-0.2703-0.4366-0.2703h-0.3956v-1.243h0.3956c0.2865 0 0.4366-0.0973 0.4366-0.2811 0-0.173-0.1501-0.2703-0.4366-0.2703h-0.3956v-4.173h-1.269l-3.138 4.152v0.573zm0-0.5514h-2.961l2.756-3.622h0.2046z" style="paint-order:markers fill stroke"/><path d="m473.5 145.1h3.22c0.3002 0 0.4502-0.0973 0.4502-0.2811 0-0.173-0.1501-0.2703-0.4502-0.2703h-3.929v2.908c0 0.173 0.1364 0.2919 0.3411 0.2919 0.0819 0 0.1501-0.0216 0.3274-0.0865 0.6003-0.2379 1.146-0.346 1.692-0.346 1.105 0 1.855 0.6271 1.855 1.546 0 1.081-0.8868 1.816-2.183 1.816-0.764 0-1.473-0.2379-2.128-0.7028-0.1228-0.0865-0.191-0.1081-0.2865-0.1081-0.191 0-0.3411 0.1189-0.3411 0.2703 0 0.1622 0.191 0.3244 0.6685 0.5622 0.6958 0.3568 1.378 0.5298 2.115 0.5298 1.678 0 2.865-0.973 2.865-2.346 0-1.233-1.05-2.119-2.497-2.119-0.5866 0-1.05 0.0865-1.719 0.2919z" style="paint-order:markers fill stroke"/><path d="m487.1 148.2c-0.0136-0.1081-0.0136-0.2054-0.0136-0.2595 0-0.6487 0.2183-1.297 0.6139-1.751 0.6549-0.7784 1.705-1.265 2.729-1.265 0.2456 0 0.4502 0.0216 0.5866 0.0757s0.191 0.0649 0.2729 0.0649c0.191 0 0.3274-0.1189 0.3274-0.2595 0-0.2487-0.5048-0.4325-1.173-0.4325-0.8868 0-1.787 0.2703-2.524 0.7676-1.023 0.6811-1.514 1.6-1.514 2.865 0 1.87 1.16 3.189 2.824 3.189 1.364 0 2.428-0.919 2.428-2.097 0-1.114-1.064-2.033-2.36-2.033-0.9004 0-1.705 0.4108-2.197 1.135zm0.0955 0.7893c0.3138-0.4325 0.4638-0.6163 0.6549-0.7893 0.4366-0.3784 0.955-0.5838 1.446-0.5838 0.9004 0 1.651 0.6703 1.651 1.481 0 0.8758-0.7367 1.546-1.705 1.546-1.023 0-1.678-0.519-2.046-1.654z" style="paint-order:markers fill stroke"/><path d="m505.1 145.2-2.183 5.427c-0.0273 0.0649-0.0409 0.1081-0.0409 0.1514 0 0.1514 0.1501 0.2703 0.3411 0.2703 0.191 0 0.2728-0.0649 0.3547-0.2595l2.224-5.514v-0.7568h-5.239v0.8649c0 0.2379 0.1228 0.3568 0.3547 0.3568s0.3547-0.1189 0.3547-0.3568v-0.3135h3.834z" style="paint-order:markers fill stroke"/><path d="m518.5 147.7c0.8595-0.3568 1.282-0.8541 1.282-1.481 0-0.9839-1.132-1.806-2.483-1.806-1.351 0-2.483 0.8217-2.483 1.806 0 0.6271 0.4366 1.124 1.296 1.481-0.9141 0.346-1.432 0.9298-1.432 1.611 0 1.06 1.173 1.924 2.633 1.924 1.446 0 2.619-0.8649 2.619-1.924 0-0.6811-0.5321-1.276-1.432-1.611zm-1.228-2.735c1.01 0 1.801 0.5622 1.801 1.276 0 0.6703-0.7776 1.189-1.774 1.189s-1.774-0.519-1.774-1.189c0-0.7028 0.7913-1.276 1.746-1.276zm0 3.006c1.119 0 1.951 0.573 1.951 1.341s-0.8458 1.373-1.91 1.373c-1.078 0-1.924-0.6055-1.924-1.373 0-0.746 0.8322-1.341 1.883-1.341z" style="paint-order:markers fill stroke"/></g><g><g stroke-width="2"><path d="m413.8 161.8h8.813v97.36h-8.813z" fill="url(#j)" stop-color="#000000" style="paint-order:markers fill stroke"/><path d="m428 161.8h8.813v97.36h-8.813z" fill="#ffa52e" stop-color="#000000" style="paint-order:markers fill stroke"/><path d="m442.1 161.8h8.813v97.36h-8.813z" fill="url(#h)" stop-color="#000000" style="-inkscape-stroke:none;font-variation-settings:normal;paint-order:markers fill stroke"/><path d="m456.3 161.8h8.813v97.36h-8.813z" fill="#2e76ff" stop-color="#000000" style="paint-order:markers fill stroke"/><path d="m470.5 161.8h8.813v97.36h-8.813z" fill="url(#i)" stop-color="#000000" style="-inkscape-stroke:none;font-variation-settings:normal;paint-order:markers fill stroke"/><path d="m484.6 161.8h8.813v97.36h-8.813z" fill="#1fb135" stop-color="#000000" style="paint-order:markers fill stroke"/><path d="m498.8 161.8h8.813v97.36h-8.813z" fill="url(#f)" stop-color="#000000" style="-inkscape-stroke:none;font-variation-settings:normal;paint-order:markers fill stroke"/><path d="m512.9 161.8h8.813v97.36h-8.813z" fill="#745327" stop-color="#000000" style="paint-order:markers fill stroke"/></g><text transform="scale(1.026 .9751)" x="501.40521" y="369.11508" fill="#000000" font-family="'Nimbus Mono PS'" font-size="23.79px" stop-color="#000000" stroke-width="2" text-align="end" text-anchor="end" style="-inkscape-stroke:none;paint-order:markers fill stroke" xml:space="preserve"><tspan x="501.40521" y="369.11508" fill="#000000" stroke-width="2">T-568B</tspan></text></g><path d="m413 277.2h109.7v34.53h-109.7z" fill="#ccc" stop-color="#000000" stroke-width="2" style="paint-order:markers fill stroke"/><path d="m413 311.8h109.7v-3.66h-109.7z" fill="#fff" stop-color="#000000" stroke-width="2" style="paint-order:markers fill stroke"/><g stroke-width="2"><path d="m629.2 141.2h127.3v118h-127.3z" fill="#e6e6e6" stop-color="#000000" style="paint-order:markers fill stroke"/><path d="m629.2 141.2v170.6l20 85.89h87.29l20-85.89v-170.6z" fill="#e6e6e6" stop-color="#000000" style="paint-order:markers fill stroke"/><path d="m662.3 127.6h60.97v13.61h-60.97z" fill="#ccc" stop-color="#000000" style="paint-order:markers fill stroke"/></g><g fill="#d3bc5f" stroke-width="2"><path d="m638.9 141.2h8.813v29.82h-8.813z" stop-color="#000000" style="paint-order:markers fill stroke"/><path d="m653 141.2h8.813v29.82h-8.813z" stop-color="#000000" style="paint-order:markers fill stroke"/><path d="m667.2 141.2h8.813v29.82h-8.813z" stop-color="#000000" style="paint-order:markers fill stroke"/><path d="m681.3 141.2h8.813v29.82h-8.813z" stop-color="#000000" style="paint-order:markers fill stroke"/><path d="m695.5 141.2h8.813v29.82h-8.813z" stop-color="#000000" style="paint-order:markers fill stroke"/><path d="m709.6 141.2h8.813v29.82h-8.813z" stop-color="#000000" style="paint-order:markers fill stroke"/><path d="m723.8 141.2h8.813v29.82h-8.813z" stop-color="#000000" style="paint-order:markers fill stroke"/><path d="m737.9 141.2h8.813v29.82h-8.813z" stop-color="#000000" style="paint-order:markers fill stroke"/></g><g stroke-width="2"><path d="m643.6 144.4-2.619 0.6487c-0.2592 0.0649-0.3411 0.1297-0.3411 0.2811 0 0.1406 0.1637 0.2703 0.3274 0.2703 0.0273 0 0.1637-0.0216 0.2183-0.0324l1.705-0.4217v5.33h-1.828c-0.3001 0-0.4502 0.0973-0.4502 0.2703 0 0.1838 0.1637 0.2811 0.4502 0.2811h4.366c0.2865 0 0.4366-0.0973 0.4366-0.2811 0-0.173-0.1501-0.2703-0.4366-0.2703h-1.828z" style="paint-order:markers fill stroke"/><path d="m655.4 150.5c0.7367-0.4973 1.583-1.114 2.715-1.979 1.719-1.297 1.992-1.611 1.992-2.249 0-1.005-1.214-1.881-2.592-1.881-0.8459 0-1.637 0.3027-2.156 0.8217-0.2729 0.2703-0.4502 0.5946-0.4502 0.8001 0 0.1298 0.1501 0.2487 0.3411 0.2487 0.1774 0 0.2865-0.0757 0.3411-0.2487 0.2319-0.6271 1.037-1.07 1.924-1.07 1.01 0 1.883 0.6163 1.883 1.319 0 0.4649-0.2456 0.7352-1.514 1.708-1.132 0.8541-2.169 1.611-3.124 2.27l-0.1228 0.0865v0.7244h5.525v-0.8758c0-0.227-0.1228-0.346-0.3547-0.346s-0.3547 0.1189-0.3547 0.346v0.3244z" style="paint-order:markers fill stroke"/><path d="m671.3 147.2c-0.2865 0-0.4366 0.1081-0.4366 0.2811 0 0.173 0.1501 0.2703 0.4366 0.2703 1.31 0.0216 2.36 0.6703 2.36 1.481 0 0.7784-0.9959 1.438-2.197 1.438-0.764 0-1.46-0.1946-2.115-0.573-0.1228-0.0649-0.191-0.0865-0.2865-0.0865-0.1774 0-0.3274 0.1189-0.3274 0.2595 0 0.173 0.1774 0.3135 0.6685 0.5082 0.7094 0.3027 1.351 0.4433 2.046 0.4433 1.61 0 2.92-0.8974 2.92-1.989 0-0.7028-0.6276-1.373-1.583-1.708 0.8322-0.3135 1.296-0.8217 1.296-1.427 0-0.9622-1.078-1.697-2.483-1.697-0.7231 0-1.419 0.173-1.965 0.4973-0.3138 0.1946-0.5048 0.3784-0.5048 0.5082 0 0.1406 0.1501 0.2595 0.3411 0.2595 0.1092 0 0.191-0.0324 0.2592-0.0973 0.4911-0.4325 1.05-0.6163 1.869-0.6163 1.01 0 1.774 0.4973 1.774 1.146 0 0.346-0.2456 0.6811-0.6412 0.8866-0.3274 0.1622-0.6003 0.2162-1.132 0.2162z" style="paint-order:markers fill stroke"/><path d="m686.8 149.2v1.243h-0.9686c-0.2865 0-0.4366 0.0973-0.4366 0.2703 0 0.1838 0.1637 0.2811 0.4366 0.2811h2.074c0.2729 0 0.4366-0.0973 0.4366-0.2811 0-0.173-0.1501-0.2703-0.4366-0.2703h-0.3956v-1.243h0.3956c0.2865 0 0.4366-0.0973 0.4366-0.2811 0-0.173-0.1501-0.2703-0.4366-0.2703h-0.3956v-4.173h-1.269l-3.138 4.152v0.573zm0-0.5514h-2.961l2.756-3.622h0.2046z" style="paint-order:markers fill stroke"/><path d="m698.5 145.1h3.22c0.3002 0 0.4502-0.0973 0.4502-0.2811 0-0.173-0.1501-0.2703-0.4502-0.2703h-3.929v2.908c0 0.173 0.1364 0.2919 0.3411 0.2919 0.0819 0 0.1501-0.0216 0.3274-0.0865 0.6003-0.2379 1.146-0.346 1.692-0.346 1.105 0 1.855 0.6271 1.855 1.546 0 1.081-0.8868 1.816-2.183 1.816-0.764 0-1.473-0.2379-2.128-0.7028-0.1228-0.0865-0.191-0.1081-0.2865-0.1081-0.191 0-0.3411 0.1189-0.3411 0.2703 0 0.1622 0.191 0.3244 0.6685 0.5622 0.6958 0.3568 1.378 0.5298 2.115 0.5298 1.678 0 2.865-0.973 2.865-2.346 0-1.233-1.05-2.119-2.497-2.119-0.5866 0-1.05 0.0865-1.719 0.2919z" style="paint-order:markers fill stroke"/><path d="m712.1 148.2c-0.0136-0.1081-0.0136-0.2054-0.0136-0.2595 0-0.6487 0.2183-1.297 0.6139-1.751 0.6549-0.7784 1.705-1.265 2.729-1.265 0.2456 0 0.4502 0.0216 0.5866 0.0757s0.191 0.0649 0.2729 0.0649c0.191 0 0.3274-0.1189 0.3274-0.2595 0-0.2487-0.5048-0.4325-1.173-0.4325-0.8868 0-1.787 0.2703-2.524 0.7676-1.023 0.6811-1.514 1.6-1.514 2.865 0 1.87 1.16 3.189 2.824 3.189 1.364 0 2.428-0.919 2.428-2.097 0-1.114-1.064-2.033-2.36-2.033-0.9004 0-1.705 0.4108-2.197 1.135zm0.0955 0.7893c0.3138-0.4325 0.4638-0.6163 0.6549-0.7893 0.4366-0.3784 0.955-0.5838 1.446-0.5838 0.9004 0 1.651 0.6703 1.651 1.481 0 0.8758-0.7367 1.546-1.705 1.546-1.023 0-1.678-0.519-2.046-1.654z" style="paint-order:markers fill stroke"/><path d="m730.1 145.2-2.183 5.427c-0.0273 0.0649-0.0409 0.1081-0.0409 0.1514 0 0.1514 0.1501 0.2703 0.3411 0.2703 0.191 0 0.2728-0.0649 0.3547-0.2595l2.224-5.514v-0.7568h-5.239v0.8649c0 0.2379 0.1228 0.3568 0.3547 0.3568s0.3547-0.1189 0.3547-0.3568v-0.3135h3.834z" style="paint-order:markers fill stroke"/><path d="m743.5 147.7c0.8595-0.3568 1.282-0.8541 1.282-1.481 0-0.9839-1.132-1.806-2.483-1.806-1.351 0-2.483 0.8217-2.483 1.806 0 0.6271 0.4366 1.124 1.296 1.481-0.9141 0.346-1.432 0.9298-1.432 1.611 0 1.06 1.173 1.924 2.633 1.924 1.446 0 2.619-0.8649 2.619-1.924 0-0.6811-0.5321-1.276-1.432-1.611zm-1.228-2.735c1.01 0 1.801 0.5622 1.801 1.276 0 0.6703-0.7776 1.189-1.774 1.189s-1.774-0.519-1.774-1.189c0-0.7028 0.7913-1.276 1.746-1.276zm0 3.006c1.119 0 1.951 0.573 1.951 1.341s-0.8458 1.373-1.91 1.373c-1.078 0-1.924-0.6055-1.924-1.373 0-0.746 0.8322-1.341 1.883-1.341z" style="paint-order:markers fill stroke"/></g><g><g stroke-width="2"><path d="m638.9 161.8h8.813v97.36h-8.813z" fill="url(#e)" stop-color="#000000" style="paint-order:markers fill stroke"/><path d="m653 161.8h8.813v97.36h-8.813z" fill="#ffa52e" stop-color="#000000" style="paint-order:markers fill stroke"/><path d="m667.2 161.8h8.813v97.36h-8.813z" fill="url(#d)" stop-color="#000000" style="-inkscape-stroke:none;font-variation-settings:normal;paint-order:markers fill stroke"/><path d="m681.3 161.8h8.813v97.36h-8.813z" fill="#2e76ff" stop-color="#000000" style="paint-order:markers fill stroke"/><path d="m695.5 161.8h8.813v97.36h-8.813z" fill="url(#c)" stop-color="#000000" style="-inkscape-stroke:none;font-variation-settings:normal;paint-order:markers fill stroke"/><path d="m709.6 161.8h8.813v97.36h-8.813z" fill="#1fb135" stop-color="#000000" style="paint-order:markers fill stroke"/><path d="m723.8 161.8h8.813v97.36h-8.813z" fill="url(#b)" stop-color="#000000" style="-inkscape-stroke:none;font-variation-settings:normal;paint-order:markers fill stroke"/><path d="m737.9 161.8h8.813v97.36h-8.813z" fill="#745327" stop-color="#000000" style="paint-order:markers fill stroke"/></g><text transform="scale(1.026 .9751)" x="720.82007" y="369.11508" fill="#000000" font-family="'Nimbus Mono PS'" font-size="23.79px" stop-color="#000000" stroke-width="2" text-align="end" text-anchor="end" style="-inkscape-stroke:none;paint-order:markers fill stroke" xml:space="preserve"><tspan x="720.82007" y="369.11508" fill="#000000" stroke-width="2">T-568B</tspan></text></g><path d="m638 277.2h109.7v34.53h-109.7z" fill="#ccc" stop-color="#000000" stroke-width="2" style="paint-order:markers fill stroke"/><path d="m638 311.8h109.7v-3.66h-109.7z" fill="#fff" stop-color="#000000" stroke-width="2" style="paint-order:markers fill stroke"/></g><g fill="#000000" font-family="'Nimbus Mono PS'"><text transform="scale(1.263 .7915)" x="649.71783" y="138.84363" dominant-baseline="auto" font-size="19.31px" stop-color="#000000" stroke-width="2" text-align="end" text-anchor="end" style="-inkscape-stroke:none;font-feature-settings:normal;font-variant-alternates:normal;font-variant-caps:normal;font-variant-east-asian:normal;font-variant-ligatures:normal;font-variant-numeric:normal;font-variant-position:normal;font-variation-settings:normal;line-height:normal;paint-order:markers fill stroke;text-decoration-color:#000000;text-decoration-line:none;text-decoration-style:solid;text-indent:0;text-orientation:mixed;text-transform:none;white-space:normal" xml:space="preserve"><tspan x="649.71783" y="138.84363" dominant-baseline="auto" fill="#000000" font-family="'Nimbus Mono PS'" font-size="19.31px" stop-color="#000000" stroke-width="2" text-align="end" style="-inkscape-stroke:none;font-feature-settings:normal;font-variant-alternates:normal;font-variant-caps:normal;font-variant-east-asian:normal;font-variant-ligatures:normal;font-variant-numeric:normal;font-variant-position:normal;font-variation-settings:normal;line-height:normal;paint-order:markers fill stroke;text-decoration-color:#000000;text-decoration-line:none;text-decoration-style:solid;text-indent:0;text-orientation:mixed;text-transform:none;white-space:normal">Clip is pointed away from you</tspan></text><text transform="scale(.975 1.026)" x="856.90558" y="84.037369" font-size="25.03px" stop-color="#000000" stroke-width="2" text-align="end" text-anchor="end" style="-inkscape-stroke:none;paint-order:markers fill stroke" xml:space="preserve"><tspan x="856.90558" y="84.037369" fill="#000000" stroke-width="2">Straight-through Ethernet cable</tspan></text><text transform="scale(1.308 .7648)" x="343.76041" y="628.12909" font-size="18.66px" stop-color="#000000" stroke-width="2" text-align="end" style="-inkscape-stroke:none;paint-order:markers fill stroke" xml:space="preserve"><tspan x="343.76041" y="628.12909" text-align="start">TIA/EIA-568B Standard:</tspan><tspan x="343.76041" y="651.45532" text-align="start">1: White/Orange</tspan><tspan x="343.76041" y="674.78162" text-align="start">2: Orange</tspan><tspan x="343.76041" y="698.10785" text-align="start">3: White/Green</tspan><tspan x="343.76041" y="721.43408" text-align="start">4: Blue</tspan><tspan x="343.76041" y="744.76031" text-align="start">5: White/Blue</tspan><tspan x="343.76041" y="768.08661" text-align="start">6: Green</tspan><tspan x="343.76041" y="791.41284" text-align="start">7: White/Brown</tspan><tspan x="343.76041" y="814.73907" text-align="start">8: Brown</tspan></text></g></g></svg>
