<svg viewBox="0 0 1024 1024" xmlns="http://www.w3.org/2000/svg" xmlns:xlink="http://www.w3.org/1999/xlink"><defs><linearGradient id="a"><stop stop-color="#fff" offset=".603"/><stop stop-color="#2e76ff" offset=".603"/></linearGradient><linearGradient id="y"><stop stop-color="#fff" offset=".603"/><stop stop-color="#ffa52e" offset=".603"/></linearGradient><linearGradient id="g"><stop stop-color="#fff" offset=".603"/><stop stop-color="#1fb135" offset=".603"/></linearGradient><linearGradient id="n"><stop stop-color="#fff" offset=".603"/><stop stop-color="#745327" offset=".603"/></linearGradient><linearGradient id="j" x1="405.9" x2="409.1" y1="165.9" y2="171" gradientTransform="matrix(1 0 0 3.265 55.32 -289.4)" gradientUnits="userSpaceOnUse" spreadMethod="repeat" xlink:href="#y"/><linearGradient id="i" x1="405.9" x2="409.1" y1="165.9" y2="171" gradientTransform="matrix(1 0 0 3.265 4.784 -289.4)" gradientUnits="userSpaceOnUse" spreadMethod="repeat" xlink:href="#a"/><linearGradient id="h" x1="405.9" x2="409.1" y1="165.9" y2="171" gradientTransform="matrix(1 0 0 3.265 -45.24 -289.4)" gradientUnits="userSpaceOnUse" spreadMethod="repeat" xlink:href="#g"/><linearGradient id="f" x1="405.9" x2="409.1" y1="165.9" y2="171" gradientTransform="matrix(1 0 0 3.265 4.746 -289.4)" gradientUnits="userSpaceOnUse" spreadMethod="repeat" xlink:href="#n"/><linearGradient id="e" x1="405.9" x2="409.1" y1="165.9" y2="171" gradientTransform="matrix(1 0 0 3.265 229.8 -299.1)" gradientUnits="userSpaceOnUse" spreadMethod="repeat" xlink:href="#y"/><linearGradient id="d" x1="405.9" x2="409.1" y1="165.9" y2="171" gradientTransform="matrix(1 0 0 3.265 229.8 -299.1)" gradientUnits="userSpaceOnUse" spreadMethod="repeat" xlink:href="#g"/><linearGradient id="c" x1="405.9" x2="409.1" y1="165.9" y2="171" gradientTransform="matrix(1 0 0 3.265 229.8 -299.1)" gradientUnits="userSpaceOnUse" spreadMethod="repeat" xlink:href="#a"/><linearGradient id="b" x1="405.9" x2="409.1" y1="165.9" y2="171" gradientTransform="matrix(1 0 0 3.265 229.8 -299.1)" gradientUnits="userSpaceOnUse" spreadMethod="repeat" xlink:href="#n"/></defs><path d="M0 0h1024v1024H0z" fill="#fff" fill-opacity=".34" style="paint-order:markers fill stroke"/><path d="M447.6 183.3h2.862c1.704 1.006 2.658 2.472 4.68 7.07h1.34c.477 0 .75-.259.75-.747 0-.46-.25-.719-.75-.719h-.613c-1.75-3.736-2.431-4.886-3.726-6.036 1.954-.833 3.02-2.299 3.02-4.139 0-2.443-1.93-4.54-4.202-4.54h-5.656c-.477 0-.727.23-.727.718s.25.747.727.747h1.113v13.25h-1.113c-.477 0-.727.259-.727.718 0 .489.25.748.727.748h3.862c.477 0 .75-.259.75-.748 0-.46-.25-.718-.75-.718H447.6zm0-1.466v-6.179h3.339c1.59 0 3.044 1.466 3.044 3.075 0 1.696-1.772 3.104-3.907 3.104zm20.3-6.134h2.067c.477 0 .727-.259.727-.747s-.25-.719-.727-.719h-6.724c-.5 0-.75.23-.75.719s.273.747.75.747h3.476v9.887c0 2.127-1.408 3.822-3.203 3.822-1.09 0-2.113-.575-3.226-1.839v-3.593c0-.604-.204-.92-.59-.92s-.591.316-.591.92v4.282c1.772 1.954 2.885 2.615 4.384 2.615 2.408 0 4.407-2.385 4.407-5.288zm14.5 7.5c.5 0 .75-.259.75-.747 0-.46-.25-.719-.75-.719h-9.132c-.477 0-.727.259-.727.719 0 .488.25.747.727.747zm10.6 2.4v3.305h-1.613c-.477 0-.727.259-.727.719 0 .488.273.747.727.747h3.453c.454 0 .727-.259.727-.747 0-.46-.25-.719-.727-.719h-.659V185.6h.659c.477 0 .727-.259.727-.747 0-.46-.25-.719-.727-.719h-.659v-11.09h-2.113l-5.225 11.04v1.523zm0-1.466h-4.93l4.589-9.628h.34zm9.7-9.634h5.361c.5 0 .75-.259.75-.747 0-.46-.25-.719-.75-.719h-6.542v7.731c0 .46.227.776.568.776.136 0 .25-.057.545-.23 1-.632 1.908-.92 2.817-.92 1.84 0 3.09 1.668 3.09 4.11 0 2.875-1.478 4.829-3.636 4.829-1.272 0-2.453-.633-3.544-1.868-.204-.23-.318-.288-.477-.288-.318 0-.568.316-.568.719 0 .43.318.862 1.113 1.495 1.16.948 2.294 1.408 3.521 1.408 2.794 0 4.77-2.587 4.77-6.237 0-3.276-1.749-5.633-4.157-5.633-.977 0-1.749.23-2.862.776zm26.7 9.4h2.862c2.635 0 4.725-2.156 4.725-4.886 0-2.702-1.931-4.8-4.407-4.8h-5.475c-.477 0-.727.23-.727.718s.25.748.727.748h1.113v13.25h-1.113c-.477 0-.727.258-.727.718 0 .489.25.747.727.747h5.316c.477 0 .75-.258.75-.747 0-.46-.25-.718-.75-.718H529.4zm0-1.466v-6.754h3.248c1.749 0 3.158 1.495 3.158 3.334 0 1.868-1.567 3.42-3.476 3.42zm15-6.734h2.067c.477 0 .727-.259.727-.747s-.25-.719-.727-.719h-5.316c-.477 0-.727.23-.727.719s.25.747.727.747h2.067v13.25h-2.067c-.477 0-.727.259-.727.719 0 .488.25.747.727.747h10.38v-5.834c0-.575-.204-.891-.59-.891s-.591.316-.591.89v4.37h-5.952zm19.8 0h.659c.477 0 .727-.259.727-.747s-.227-.719-.727-.719h-3.407c-.477 0-.727.23-.727.719s.25.747.727.747h1.567v9.341c0 2.472-1.522 4.369-3.476 4.369-1.931 0-3.453-1.897-3.453-4.369V175.7h1.567c.477 0 .727-.259.727-.747s-.25-.719-.727-.719h-3.385c-.5 0-.75.23-.75.719s.25.747.75.747h.636v9.341c0 3.305 1.999 5.834 4.634 5.834s4.657-2.529 4.657-5.834zm14.1 8.8h.204c.477 0 .75-.259.75-.747 0-.46-.25-.719-.75-.719h-4.407c-.5 0-.75.23-.75.719s.25.747.75.747h3.021v3.966c-1.249.719-1.954.92-3.112.92-3.226 0-5.157-2.271-5.157-6.036v-2.07c0-1.58.614-3.333 1.59-4.483.84-1.006 1.817-1.466 3.067-1.466 1.954 0 3.521 1.063 3.635 2.443.023.575.205.833.568.833.386 0 .59-.316.59-.89v-2.588c0-.603-.18-.89-.59-.89-.386 0-.59.287-.59.89v.087c-1-.891-2.226-1.351-3.657-1.351-3.248 0-5.793 3.248-5.793 7.415v2.069c0 4.54 2.476 7.5 6.247 7.5 1.499 0 2.908-.488 4.384-1.522z" style="paint-order:markers fill stroke" stroke-width="3.556"/><path d="M779.5 555.8s-691.4 348-267.4 348c363.1 0-267.4-348-267.4-348" fill="none" stroke="#e6e6e6" stroke-width="49.08" style="paint-order:markers fill stroke"/><g stroke-width="2"><path d="M198.7 146.5H425v209.8H198.7z" fill="#e6e6e6" style="paint-order:markers fill stroke"/><path d="M198.7 146.5v303.3l35.56 152.7h155.2l35.56-152.7V146.5z" fill="#e6e6e6" style="paint-order:markers fill stroke"/><path d="M257.8 122.3h108.4v24.2H257.8z" fill="#ccc" style="paint-order:markers fill stroke"/><path d="M216 146.5h15.67v53.02H216zm25.2 0h15.67v53.02H241.2zm25.1 0h15.67v53.02H266.3zm25.2 0h15.67v53.02H291.5zm25.3 0h15.67v53.02H316.8zm25.1 0h15.67v53.02H341.9zm25.2 0h15.67v53.02H367.1zm25.1 0h15.67v53.02H392.2z" style="paint-order:markers fill stroke" fill="#d3bc5f"/><path d="m224.5 152.2-4.656 1.153c-.46.116-.606.231-.606.5 0 .25.291.481.582.481.049 0 .291-.039.388-.058l3.031-.75v9.476h-3.25c-.533 0-.8.173-.8.481 0 .327.291.5.8.5h7.762c.51 0 .777-.173.777-.5 0-.308-.267-.481-.777-.481h-3.249zm21 10.8c1.309-.884 2.814-1.981 4.827-3.518 3.056-2.306 3.541-2.864 3.541-3.999 0-1.786-2.158-3.344-4.608-3.344-1.504 0-2.91.538-3.833 1.461-.485.481-.801 1.057-.801 1.422 0 .231.267.443.607.443.315 0 .509-.135.606-.443.413-1.114 1.844-1.902 3.421-1.902 1.795 0 3.347 1.096 3.347 2.345 0 .827-.436 1.307-2.691 3.037a163.624 163.624 0 0 1-5.554 4.035l-.218.154v1.288h9.822v-1.557c0-.404-.218-.615-.631-.615-.412 0-.63.211-.63.615v.577zm28.3-5.9c-.509 0-.776.192-.776.5 0 .307.267.48.776.48 2.329.039 4.196 1.192 4.196 2.633 0 1.384-1.771 2.557-3.906 2.557a7.364 7.364 0 0 1-3.76-1.019c-.219-.115-.34-.154-.51-.154-.315 0-.582.212-.582.462 0 .307.316.557 1.189.903 1.261.538 2.402.788 3.637.788 2.863 0 5.191-1.595 5.191-3.536 0-1.249-1.115-2.441-2.814-3.036 1.48-.558 2.304-1.461 2.304-2.537 0-1.711-1.916-3.017-4.414-3.017-1.286 0-2.523.307-3.493.884-.558.346-.898.673-.898.903 0 .25.267.462.606.462.195 0 .34-.058.461-.173.873-.769 1.867-1.096 3.323-1.096 1.796 0 3.154.884 3.154 2.037 0 .616-.437 1.211-1.14 1.577-.582.288-1.067.384-2.013.384zm27.5 3.6v2.21h-1.722c-.509 0-.776.173-.776.48 0 .327.291.5.776.5h3.687c.486 0 .777-.173.777-.5 0-.307-.267-.48-.777-.48h-.703v-2.21h.703c.51 0 .777-.173.777-.5 0-.308-.267-.481-.777-.481h-.703v-7.418h-2.256l-5.579 7.381v1.019zm0-.981h-5.264l4.9-6.439h.364zm20.8-6.319h5.724c.534 0 .801-.173.801-.5 0-.308-.267-.481-.801-.481h-6.985v5.17c0 .308.243.519.607.519.145 0 .267-.038.582-.154 1.067-.422 2.037-.615 3.008-.615 1.964 0 3.298 1.115 3.298 2.749 0 1.922-1.577 3.228-3.881 3.228-1.359 0-2.619-.423-3.783-1.249-.219-.154-.34-.192-.51-.192-.339 0-.606.211-.606.48 0 .289.339.577 1.188 1 1.237.634 2.45.942 3.76.942 2.983 0 5.094-1.73 5.094-4.171 0-2.192-1.867-3.767-4.439-3.767-1.043 0-1.867.153-3.057.519zm24.2 5.5c-.024-.192-.024-.365-.024-.461 0-1.154.388-2.306 1.091-3.113 1.165-1.384 3.032-2.249 4.852-2.249.437 0 .8.038 1.043.134.242.096.339.116.485.116.34 0 .582-.212.582-.462 0-.442-.897-.769-2.085-.769a8.11 8.11 0 0 0-4.487 1.365c-1.819 1.211-2.692 2.845-2.692 5.093 0 3.325 2.062 5.67 5.02 5.67 2.425 0 4.317-1.634 4.317-3.728 0-1.981-1.892-3.614-4.196-3.614-1.6 0-3.031.73-3.906 2.017zm.17 1.403c.558-.769.824-1.096 1.164-1.403.776-.673 1.698-1.038 2.571-1.038 1.601 0 2.935 1.192 2.935 2.633 0 1.557-1.31 2.748-3.031 2.748-1.819 0-2.983-.922-3.637-2.94zm31.83-6.703-3.881 9.649a.7.7 0 0 0-.073.269c0 .269.267.48.607.48.339 0 .485-.115.63-.461l3.954-9.803v-1.345h-9.314v1.537c0 .423.218.635.631.635.412 0 .63-.212.63-.635v-.557h6.816zm23.8 4.4c1.528-.634 2.279-1.518 2.279-2.633 0-1.749-2.013-3.211-4.414-3.211-2.402 0-4.415 1.461-4.415 3.211 0 1.115.776 1.998 2.304 2.633-1.625.615-2.546 1.653-2.546 2.864 0 1.885 2.086 3.421 4.681 3.421 2.571 0 4.657-1.538 4.657-3.421 0-1.211-.946-2.268-2.546-2.864zm-2.183-4.862c1.795 0 3.201.999 3.201 2.268 0 1.192-1.382 2.114-3.153 2.114-1.772 0-3.154-.923-3.154-2.114 0-1.249 1.406-2.268 3.104-2.268zm0 5.344c1.989 0 3.468 1.018 3.468 2.384 0 1.365-1.504 2.441-3.396 2.441-1.916 0-3.42-1.077-3.42-2.441 0-1.326 1.479-2.384 3.348-2.384z" style="paint-order:markers fill stroke"/><path d="M266.5 183.1h15.67v173.1H266.5z" fill="url(#j)" style="paint-order:markers fill stroke"/><path d="M341.9 183.1h15.67v173.1H341.9z" fill="#ffa52e" style="paint-order:markers fill stroke"/><path d="M216.3 183.1h15.67v173.1H216.3z" fill="url(#h)" style="-inkscape-stroke:none;font-variation-settings:normal;paint-order:markers fill stroke"/><path d="M291.7 183.1h15.67v173.1H291.7z" fill="#2e76ff" style="paint-order:markers fill stroke"/><path d="M316.8 183.1h15.67v173.1H316.8z" fill="url(#i)" style="-inkscape-stroke:none;font-variation-settings:normal;paint-order:markers fill stroke"/><path d="M241.4 183.1h15.67v173.1H241.4z" fill="#1fb135" style="paint-order:markers fill stroke"/><path d="M367.1 183.1h15.67v173.1H367.1z" fill="url(#f)" style="-inkscape-stroke:none;font-variation-settings:normal;paint-order:markers fill stroke"/><path d="M392.2 183.1h15.67v173.1H392.2z" fill="#745327" style="paint-order:markers fill stroke"/></g><g stroke-width="3.556"><path d="M252.9 533.2v-19.01h6.726v2.722c0 .784.477 1.361 1.172 1.361.738 0 1.085-.412 1.085-1.361v-4.825h-20.26v4.825c0 .907.39 1.361 1.128 1.361s1.128-.454 1.128-1.361v-2.722h6.769v19.01h-4.296c-.955 0-1.432.371-1.432 1.031 0 .701.52 1.072 1.432 1.072h10.85c.911 0 1.432-.371 1.432-1.072 0-.66-.477-1.031-1.432-1.031zm33.6-8.3c.955 0 1.432-.371 1.432-1.072 0-.66-.477-1.031-1.432-1.031h-17.44c-.911 0-1.389.371-1.389 1.031 0 .701.477 1.072 1.389 1.072zm12.8-12.3h10.24c.955 0 1.432-.371 1.432-1.072 0-.66-.477-1.031-1.432-1.031h-12.5v11.09c0 .66.434 1.114 1.085 1.114.26 0 .477-.082 1.041-.33 1.909-.907 3.645-1.32 5.381-1.32 3.515 0 5.902 2.392 5.902 5.897 0 4.124-2.821 6.93-6.943 6.93-2.43 0-4.687-.908-6.769-2.682-.39-.33-.607-.412-.911-.412-.608 0-1.085.453-1.085 1.03 0 .62.607 1.238 2.126 2.146 2.213 1.36 4.383 2.02 6.726 2.02 5.337 0 9.113-3.711 9.113-8.948 0-4.702-3.341-8.083-7.941-8.083-1.866 0-3.341.33-5.468 1.114zm25.4 11.9c-.043-.412-.043-.784-.043-.99 0-2.474.694-4.949 1.953-6.68 2.083-2.97 5.424-4.826 8.679-4.826.78 0 1.432.083 1.866.289.433.206.607.247.867.247.608 0 1.041-.453 1.041-.99 0-.948-1.606-1.65-3.732-1.65-2.82 0-5.685 1.032-8.028 2.929-3.255 2.598-4.817 6.104-4.817 10.93 0 7.135 3.688 12.17 8.983 12.17 4.34 0 7.724-3.505 7.724-8.001 0-4.248-3.385-7.753-7.507-7.753-2.864 0-5.424 1.567-6.986 4.33zm.304 3.011c.998-1.65 1.475-2.351 2.083-3.011 1.389-1.443 3.038-2.227 4.6-2.227 2.864 0 5.25 2.557 5.25 5.65 0 3.341-2.342 5.897-5.423 5.897-3.255 0-5.337-1.98-6.51-6.31zm34.7-5.011c2.734-1.361 4.079-3.258 4.079-5.65 0-3.753-3.602-6.887-7.898-6.887s-7.898 3.134-7.898 6.887c0 2.392 1.389 4.289 4.122 5.65-2.907 1.32-4.556 3.547-4.556 6.145 0 4.042 3.732 7.341 8.375 7.341 4.6 0 8.332-3.299 8.332-7.341 0-2.598-1.692-4.866-4.556-6.145zm-3.905-10.43c3.211 0 5.728 2.145 5.728 4.866 0 2.557-2.473 4.537-5.641 4.537s-5.641-1.98-5.641-4.537c0-2.681 2.517-4.866 5.554-4.866zm0 11.47c3.558 0 6.205 2.186 6.205 5.114s-2.69 5.238-6.075 5.238c-3.428 0-6.119-2.31-6.119-5.238 0-2.846 2.647-5.114 5.988-5.114z" style="paint-order:markers fill stroke"/><path d="m387.5 527.5 2.363 6.162h-3.151c-.973 0-1.483.417-1.483 1.158 0 .788.51 1.205 1.483 1.205h7.228c.973 0 1.529-.417 1.529-1.205 0-.741-.51-1.158-1.529-1.158h-1.529l-9.128-23.72h-9.591c-1.019 0-1.529.37-1.529 1.158s.556 1.205 1.529 1.205h5.143l-8.062 21.36h-1.297c-.973 0-1.483.417-1.483 1.158 0 .788.556 1.205 1.483 1.205h6.996c.973 0 1.529-.417 1.529-1.205 0-.741-.51-1.158-1.529-1.158h-3.29l2.317-6.162zm-.927-2.363h-10.15l4.82-12.83h.37z" stroke-width="4.369" style="paint-order:markers fill stroke" aria-label="A"/></g><g stroke-width="2"><path d="M214.6 388.3h195v61.39h-195z" fill="#ccc" style="paint-order:markers fill stroke"/><path d="M214.6 449.8h195v-6.507h-195z" fill="#fff" style="paint-order:markers fill stroke"/><path d="M598.9 146.5h226.3v209.8H598.9z" fill="#e6e6e6" style="paint-order:markers fill stroke"/><path d="M598.9 146.5v303.3l35.56 152.7h155.2l35.56-152.7V146.5z" fill="#e6e6e6" style="paint-order:markers fill stroke"/><path d="M657.8 122.3h108.4v24.2H657.8z" fill="#ccc" style="paint-order:markers fill stroke"/><path d="M616.2 146.5h15.67v53.02H616.2zm25 0h15.67v53.02H641.2zm25.3 0h15.67v53.02H666.5zm25.1 0h15.67v53.02H691.6zm25.2 0h15.67v53.02H716.8zm25.1 0h15.67v53.02H741.9zm25.2 0h15.67v53.02H767.1zm25.1 0h15.67v53.02H792.2z" style="paint-order:markers fill stroke" fill="#d3bc5f"/><path d="m624.5 152.2-4.656 1.153c-.461.116-.607.231-.607.5 0 .25.291.481.582.481.049 0 .292-.039.389-.058l3.031-.75v9.476h-3.25c-.534 0-.8.173-.8.481 0 .327.291.5.8.5h7.762c.509 0 .776-.173.776-.5 0-.308-.267-.481-.776-.481h-3.25zm21 10.8c1.31-.884 2.815-1.981 4.827-3.518 3.056-2.306 3.541-2.864 3.541-3.999 0-1.786-2.158-3.344-4.608-3.344-1.504 0-2.91.538-3.833 1.461-.485.481-.8 1.057-.8 1.422 0 .231.267.443.606.443.316 0 .51-.135.607-.443.412-1.114 1.843-1.902 3.42-1.902 1.796 0 3.348 1.096 3.348 2.345 0 .827-.437 1.307-2.692 3.037a163.624 163.624 0 0 1-5.554 4.035l-.218.154v1.288h9.823v-1.557c0-.404-.219-.615-.631-.615s-.631.211-.631.615v.577zm28.3-5.9c-.51 0-.777.192-.777.5 0 .307.267.48.777.48 2.329.039 4.195 1.192 4.195 2.633 0 1.384-1.77 2.557-3.906 2.557a7.364 7.364 0 0 1-3.76-1.019c-.218-.115-.339-.154-.509-.154-.315 0-.582.212-.582.462 0 .307.315.557 1.188.903 1.262.538 2.402.788 3.638.788 2.862 0 5.191-1.595 5.191-3.536 0-1.249-1.116-2.441-2.814-3.036 1.479-.558 2.304-1.461 2.304-2.537 0-1.711-1.917-3.017-4.415-3.017-1.285 0-2.522.307-3.493.884-.558.346-.897.673-.897.903 0 .25.266.462.606.462a.63.63 0 0 0 .461-.173c.873-.769 1.866-1.096 3.323-1.096 1.795 0 3.153.884 3.153 2.037 0 .616-.436 1.211-1.14 1.577-.582.288-1.067.384-2.012.384zm27.5 3.6v2.21h-1.722c-.51 0-.776.173-.776.48 0 .327.291.5.776.5h3.687c.485 0 .776-.173.776-.5 0-.307-.267-.48-.776-.48h-.703v-2.21h.703c.509 0 .776-.173.776-.5 0-.308-.267-.481-.776-.481h-.703v-7.418h-2.256l-5.579 7.381v1.019zm0-.981h-5.264l4.899-6.439h.364zm20.8-6.319h5.725c.534 0 .8-.173.8-.5 0-.308-.267-.481-.8-.481h-6.985v5.17c0 .308.242.519.606.519.146 0 .267-.038.582-.154 1.067-.422 2.038-.615 3.008-.615 1.965 0 3.298 1.115 3.298 2.749 0 1.922-1.576 3.228-3.881 3.228-1.358 0-2.619-.423-3.783-1.249-.218-.154-.34-.192-.509-.192-.34 0-.607.211-.607.48 0 .289.34.577 1.189 1 1.237.634 2.45.942 3.76.942 2.983 0 5.093-1.73 5.093-4.171 0-2.192-1.866-3.767-4.439-3.767-1.043 0-1.867.153-3.056.519zm24.2 5.5c-.025-.192-.025-.365-.025-.461 0-1.154.389-2.306 1.092-3.113 1.164-1.384 3.031-2.249 4.852-2.249.436 0 .8.038 1.042.134.243.096.34.116.486.116.339 0 .582-.212.582-.462 0-.442-.898-.769-2.086-.769a8.119 8.119 0 0 0-4.487 1.365c-1.819 1.211-2.692 2.845-2.692 5.093 0 3.325 2.063 5.67 5.021 5.67 2.425 0 4.317-1.634 4.317-3.728 0-1.981-1.892-3.614-4.196-3.614-1.601 0-3.031.73-3.906 2.017zm.169 1.403c.558-.769.825-1.096 1.165-1.403.776-.673 1.698-1.038 2.57-1.038 1.601 0 2.936 1.192 2.936 2.633 0 1.557-1.31 2.748-3.032 2.748-1.818 0-2.983-.922-3.637-2.94zm31.83-6.703-3.881 9.649a.699.699 0 0 0-.072.269c0 .269.267.48.606.48.34 0 .485-.115.631-.461l3.954-9.803v-1.345h-9.314v1.537c0 .423.218.635.63.635s.631-.212.631-.635v-.557h6.816zm23.8 4.4c1.528-.634 2.279-1.518 2.279-2.633 0-1.749-2.012-3.211-4.414-3.211s-4.414 1.461-4.414 3.211c0 1.115.776 1.998 2.304 2.633-1.625.615-2.546 1.653-2.546 2.864 0 1.885 2.085 3.421 4.681 3.421 2.571 0 4.656-1.538 4.656-3.421 0-1.211-.946-2.268-2.546-2.864zm-2.183-4.862c1.796 0 3.202.999 3.202 2.268 0 1.192-1.383 2.114-3.154 2.114s-3.154-.923-3.154-2.114c0-1.249 1.407-2.268 3.104-2.268zm0 5.344c1.989 0 3.469 1.018 3.469 2.384 0 1.365-1.504 2.441-3.396 2.441-1.917 0-3.421-1.077-3.421-2.441 0-1.326 1.48-2.384 3.348-2.384z" style="paint-order:markers fill stroke"/><path d="M616.2 183.1h15.67v173.1H616.2z" fill="url(#e)" style="paint-order:markers fill stroke"/><path d="M641.2 183.1h15.67v173.1H641.2z" fill="#ffa52e" style="paint-order:markers fill stroke"/><path d="M666.5 183.1h15.67v173.1H666.5z" fill="url(#d)" style="-inkscape-stroke:none;font-variation-settings:normal;paint-order:markers fill stroke"/><path d="M691.6 183.1h15.67v173.1H691.6z" fill="#2e76ff" style="paint-order:markers fill stroke"/><path d="M716.8 183.1h15.67v173.1H716.8z" fill="url(#c)" style="-inkscape-stroke:none;font-variation-settings:normal;paint-order:markers fill stroke"/><path d="M741.9 183.1h15.67v173.1H741.9z" fill="#1fb135" style="paint-order:markers fill stroke"/><path d="M767.1 183.1h15.67v173.1H767.1z" fill="url(#b)" style="-inkscape-stroke:none;font-variation-settings:normal;paint-order:markers fill stroke"/><path d="M792.2 183.1h15.67v173.1H792.2z" fill="#745327" style="paint-order:markers fill stroke"/></g><path d="M653.1 533.2v-19.01h6.726v2.722c0 .784.477 1.361 1.172 1.361.738 0 1.085-.412 1.085-1.361v-4.825h-20.26v4.825c0 .907.39 1.361 1.128 1.361s1.128-.454 1.128-1.361v-2.722h6.769v19.01h-4.296c-.955 0-1.432.371-1.432 1.031 0 .701.52 1.072 1.432 1.072h10.85c.911 0 1.432-.371 1.432-1.072 0-.66-.477-1.031-1.432-1.031zm33.6-8.3c.955 0 1.432-.371 1.432-1.072 0-.66-.477-1.031-1.432-1.031h-17.44c-.911 0-1.389.371-1.389 1.031 0 .701.477 1.072 1.389 1.072zm12.8-12.3h10.24c.955 0 1.432-.371 1.432-1.072 0-.66-.477-1.031-1.432-1.031h-12.5v11.09c0 .66.434 1.114 1.085 1.114.26 0 .477-.082 1.041-.33 1.909-.907 3.645-1.32 5.381-1.32 3.515 0 5.902 2.392 5.902 5.897 0 4.124-2.821 6.93-6.943 6.93-2.43 0-4.687-.908-6.769-2.682-.39-.33-.607-.412-.911-.412-.608 0-1.085.453-1.085 1.03 0 .62.607 1.238 2.126 2.146 2.213 1.36 4.383 2.02 6.726 2.02 5.337 0 9.113-3.711 9.113-8.948 0-4.702-3.341-8.083-7.941-8.083-1.866 0-3.341.33-5.468 1.114zm25.4 11.9c-.043-.412-.043-.784-.043-.99 0-2.474.694-4.949 1.953-6.68 2.083-2.97 5.424-4.826 8.679-4.826.78 0 1.432.083 1.866.289.433.206.607.247.867.247.608 0 1.041-.453 1.041-.99 0-.948-1.606-1.65-3.732-1.65-2.82 0-5.685 1.032-8.028 2.929-3.255 2.598-4.817 6.104-4.817 10.93 0 7.135 3.688 12.17 8.983 12.17 4.34 0 7.724-3.505 7.724-8.001 0-4.248-3.385-7.753-7.507-7.753-2.864 0-5.424 1.567-6.986 4.33zm.304 3.011c.998-1.65 1.475-2.351 2.083-3.011 1.389-1.443 3.038-2.227 4.6-2.227 2.864 0 5.25 2.557 5.25 5.65 0 3.341-2.342 5.897-5.423 5.897-3.255 0-5.337-1.98-6.51-6.31zm34.7-5.011c2.734-1.361 4.079-3.258 4.079-5.65 0-3.753-3.602-6.887-7.898-6.887s-7.898 3.134-7.898 6.887c0 2.392 1.389 4.289 4.122 5.65-2.907 1.32-4.556 3.547-4.556 6.145 0 4.042 3.732 7.341 8.375 7.341 4.6 0 8.332-3.299 8.332-7.341 0-2.598-1.692-4.866-4.556-6.145zm-3.905-10.43c3.211 0 5.728 2.145 5.728 4.866 0 2.557-2.473 4.537-5.641 4.537s-5.641-1.98-5.641-4.537c0-2.681 2.517-4.866 5.554-4.866zm0 11.47c3.558 0 6.205 2.186 6.205 5.114s-2.69 5.238-6.075 5.238c-3.428 0-6.119-2.31-6.119-5.238 0-2.846 2.647-5.114 5.988-5.114zm18.3 9.66h-2.126c-.911 0-1.389.371-1.389 1.031 0 .701.477 1.072 1.389 1.072h13.32c4.079 0 7.377-2.887 7.377-6.434 0-2.639-1.779-4.66-5.164-5.856 2.256-1.278 3.341-2.804 3.341-4.825 0-3.464-3.298-6.104-7.637-6.104h-11.24c-.911 0-1.389.33-1.389 1.031s.477 1.072 1.389 1.072h2.126zm2.256-10.97v-8.042h6.9c2.994 0 5.337 1.732 5.337 3.959 0 2.392-2.517 4.083-6.075 4.083zm0 10.97v-8.867h6.249c2.604 0 3.992.247 5.337.99 1.562.866 2.473 2.186 2.473 3.588 0 2.392-2.3 4.289-5.251 4.289z" style="paint-order:markers fill stroke" stroke-width="3.556"/><path d="M614.6 388.3h195v61.39h-195z" fill="#ccc" style="paint-order:markers fill stroke"/><path d="M614.6 449.8h195v-6.507h-195z" fill="#fff" style="paint-order:markers fill stroke"/><path d="M154.8 76.84c-1.994-1.06-4.509-1.63-7.284-1.63-2.905 0-5.55.707-7.544 2.011-1.908 1.25-3.165 3.152-3.165 4.809v2.201c0 3.695 5.463 7.038 11.49 7.038 2.818 0 5.507-.68 7.674-1.929 1.214-.707 1.734-1.141 1.734-1.467 0-.38-.434-.652-1.084-.652-.39 0-.607.081-.954.299-2.34 1.685-4.423 2.364-7.37 2.364-4.987 0-9.236-2.663-9.236-5.815v-1.875c0-3.098 3.772-5.597 8.498-5.597 3.73 0 7.024 1.33 7.241 2.907.087.516.434.76 1.127.76.737 0 1.127-.298 1.127-.869v-2.989c0-.57-.39-.842-1.127-.842s-1.127.299-1.127.842zm19.7-2.39h-7.067c-.954 0-1.431.245-1.431.68 0 .461.477.706 1.431.706h4.813v13.61h-6.721c-.91 0-1.387.244-1.387.68 0 .461.477.706 1.387.706h15.7c.91 0 1.431-.245 1.431-.707 0-.435-.477-.68-1.431-.68h-6.721zm26 5h-7.154c-.954 0-1.387.217-1.387.68s.477.706 1.387.706h4.899v8.613h-6.721c-.91 0-1.387.244-1.387.68 0 .461.477.706 1.387.706h15.7c.91 0 1.431-.245 1.431-.707 0-.435-.477-.68-1.431-.68h-6.721zm-.087-5.516h-3.035v3.07h3.035zm18.49 5.516h-4.379c-.954 0-1.387.217-1.387.68s.477.706 1.387.706h2.125v13.56h-2.125c-.91 0-1.387.244-1.387.68 0 .461.477.706 1.387.706h8.368c.954 0 1.431-.245 1.431-.707 0-.435-.477-.68-1.431-.68h-3.989V88.31c1.994 1.549 4.379 2.255 7.544 2.255 5.463 0 9.669-2.527 9.669-5.76 0-3.261-4.162-5.733-9.712-5.733-3.209 0-5.29.652-7.501 2.31zm7.371 1.005c4.292 0 7.588 1.902 7.588 4.375 0 2.418-3.295 4.347-7.458 4.347-4.206 0-7.501-1.929-7.501-4.375 0-2.391 3.295-4.347 7.371-4.347zm52.23-1.005h-7.154c-.954 0-1.387.217-1.387.68s.477.706 1.387.706h4.899v8.613h-6.721c-.91 0-1.387.244-1.387.68 0 .461.477.706 1.387.706h15.7c.91 0 1.431-.245 1.431-.707 0-.435-.477-.68-1.431-.68h-6.721zm-.087-5.516h-3.035v3.07h3.035zm18.49 13.7c0-.435-.477-.734-1.127-.734-.737 0-1.127.3-1.127.87v2.2c0 .572.39.87 1.127.87.694 0 1.084-.299 1.084-.842 1.648.842 3.946 1.277 6.59 1.277 5.116 0 8.758-1.522 8.758-3.668 0-.978-.867-1.929-2.255-2.5-1.431-.598-3.035-.897-5.723-1.06-3.816-.272-4.032-.299-4.986-.652-.78-.299-1.257-.707-1.257-1.087 0-1.06 2.298-1.848 5.42-1.848 3.165 0 5.333.734 5.55 1.848.087.49.434.734 1.084.734.737 0 1.127-.3 1.127-.87v-1.848c0-.57-.39-.87-1.084-.87-.607 0-1.041.272-1.127.68-1.474-.707-3.425-1.06-5.767-1.06-4.379 0-7.631 1.33-7.631 3.152 0 .897.78 1.739 2.081 2.228 1.257.489 2.515.68 5.723.87 2.385.162 3.512.325 4.639.733 1.084.353 1.778.951 1.778 1.522 0 1.331-2.732 2.31-6.417 2.31-3.555 0-6.46-.924-6.46-2.065zm52-8.18h-4.379c-.954 0-1.387.217-1.387.68s.477.706 1.387.706h2.125V94.4h-2.125c-.91 0-1.387.244-1.387.68 0 .461.477.706 1.387.706h8.368c.954 0 1.431-.245 1.431-.707 0-.435-.477-.68-1.431-.68h-3.989v-6.085c1.994 1.549 4.379 2.255 7.544 2.255 5.463 0 9.669-2.527 9.669-5.76 0-3.261-4.162-5.733-9.712-5.733-3.208 0-5.29.652-7.501 2.31zm7.371 1.005c4.292 0 7.588 1.902 7.588 4.375 0 2.418-3.295 4.347-7.458 4.347-4.206 0-7.501-1.929-7.501-4.375 0-2.391 3.295-4.347 7.371-4.347zm25.33-1.385c-5.81 0-10.28 2.663-10.28 6.114 0 3.369 4.509 6.086 10.15 6.086 5.637 0 10.1-2.69 10.1-6.114 0-3.342-4.466-6.086-9.972-6.086zm-.26 1.386c4.509 0 7.978 2.038 7.978 4.728 0 2.608-3.47 4.701-7.848 4.701s-7.891-2.092-7.891-4.728c0-2.581 3.469-4.701 7.76-4.701zm27.26-1.006h-7.154c-.954 0-1.387.217-1.387.68s.477.706 1.387.706h4.899v8.613h-6.721c-.91 0-1.387.244-1.387.68 0 .461.477.706 1.387.706h15.7c.91 0 1.431-.245 1.431-.707 0-.435-.477-.68-1.431-.68h-6.721zm-.087-5.516h-3.035v3.07h3.035zm19.49 5.516h-3.512c-.954 0-1.387.217-1.387.68s.477.706 1.387.706h1.257v8.613h-1.734c-.954 0-1.431.244-1.431.68 0 .461.52.706 1.431.706h5.723c.91 0 1.387-.245 1.387-.707 0-.435-.477-.68-1.387-.68h-1.734v-6.547c2.645-2.038 3.729-2.445 6.374-2.445 1.561 0 2.385.163 3.339.652 1.041.543 1.561 1.168 1.561 1.902v6.44h-1.214c-.954 0-1.431.245-1.431.68 0 .461.52.706 1.431.706h4.726c.867 0 1.387-.245 1.387-.707 0-.434-.477-.68-1.387-.68h-1.257v-6.629c0-2.118-3.035-3.75-7.024-3.75-2.645 0-4.206.49-6.504 2.012zm26.8 0v-3.043c0-.57-.39-.842-1.127-.842s-1.127.299-1.127.842v3.043h-2.992c-.954 0-1.431.217-1.431.68s.477.706 1.431.706h2.992v7.01c0 2.065 2.732 3.424 6.981 3.424 2.038 0 4.466-.3 6.547-.788 1.604-.38 2.298-.734 2.298-1.141 0-.38-.477-.68-1.084-.68-.217 0-.39.028-.78.19-1.691.599-4.683 1.034-7.067 1.034-2.862 0-4.64-.815-4.64-2.092v-6.956h9.28c.953 0 1.43-.245 1.43-.707s-.476-.68-1.43-.68zm40.5 6.08v-.408c0-3.478-4.336-6.059-10.15-6.059-5.723 0-10.15 2.554-10.15 5.842 0 3.587 4.726 6.358 10.75 6.358 4.206 0 9.365-1.304 9.365-2.337 0-.38-.477-.679-1.084-.679-.26 0-.434.054-.78.218-1.734.815-4.856 1.412-7.458 1.412-4.51 0-7.891-1.738-8.498-4.346zm-17.99-1.386c.737-2.228 3.859-3.695 7.848-3.695 3.946 0 7.111 1.494 7.805 3.695zm43.19-9.694h-4.379c-.91 0-1.387.245-1.387.68 0 .461.477.706 1.387.706h2.125v5.706c-1.951-1.63-4.553-2.473-7.631-2.473-5.333 0-9.626 2.717-9.626 6.086s4.292 6.114 9.582 6.114c3.078 0 5.767-.87 7.674-2.473v2.038h4.379c.91 0 1.387-.245 1.387-.707 0-.434-.477-.679-1.387-.679h-2.125zm-9.842 6.005c4.292 0 7.588 2.038 7.588 4.728 0 2.608-3.339 4.701-7.501 4.701-4.206 0-7.501-2.092-7.501-4.728 0-2.608 3.295-4.701 7.414-4.701zm57.84 10.38h4.379c.91 0 1.387-.245 1.387-.706 0-.435-.477-.68-1.387-.68h-2.125v-6.956c0-1.984-3.078-3.424-7.241-3.424-1.648 0-4.466.353-6.851.87-.607.136-.91.353-.91.679 0 .38.477.68 1.04.68.217 0 .347-.028.911-.137 2.471-.489 4.292-.706 5.68-.706 3.035 0 5.116.815 5.116 2.038v1.685c-2.602-.408-3.685-.49-5.637-.49-5.637 0-9.409 1.63-9.409 4.05 0 2.092 2.818 3.532 6.981 3.532 2.992 0 5.376-.598 8.065-2.038zm0-3.206c-2.818 1.63-5.073 2.255-8.065 2.255-2.905 0-4.726-.842-4.726-2.147 0-1.576 3.035-2.663 7.371-2.663 1.908 0 3.989.136 5.42.353zm27.4 3.206 3.555-9.999h.65c.954 0 1.431-.244 1.431-.706s-.433-.68-1.43-.68h-4.814c-.954 0-1.387.218-1.387.68s.477.706 1.387.706h1.908l-2.775 7.853-3.599-6.44h-2.558l-3.555 6.44-2.862-7.853h1.994c.91 0 1.431-.244 1.431-.706s-.476-.68-1.43-.68h-4.814c-.953 0-1.387.218-1.387.68s.477.706 1.387.706h.65l3.643 9.999h2.558l3.729-6.63 3.772 6.63zm24.6 0h4.379c.91 0 1.387-.245 1.387-.706 0-.435-.477-.68-1.387-.68h-2.125v-6.956c0-1.984-3.078-3.424-7.241-3.424-1.648 0-4.466.353-6.851.87-.607.136-.91.353-.91.679 0 .38.476.68 1.04.68.217 0 .347-.028.911-.137 2.471-.489 4.292-.706 5.68-.706 3.035 0 5.116.815 5.116 2.038v1.685c-2.601-.408-3.685-.49-5.637-.49-5.637 0-9.409 1.63-9.409 4.05 0 2.092 2.818 3.532 6.981 3.532 2.992 0 5.376-.598 8.065-2.038zm0-3.206c-2.818 1.63-5.073 2.255-8.065 2.255-2.905 0-4.726-.842-4.726-2.147 0-1.576 3.035-2.663 7.371-2.663 1.908 0 3.989.136 5.42.353zm20.1 3.046-2.948 3.723h-5.376c-.91 0-1.387.245-1.387.68 0 .461.477.706 1.387.706h10.1c.954 0 1.431-.245 1.431-.707 0-.435-.477-.679-1.431-.679h-2.428l10.88-13.56h.434c.954 0 1.43-.244 1.43-.706s-.476-.68-1.43-.68h-4.77c-.91 0-1.386.218-1.386.68s.477.706 1.387.706h1.994l-6.634 8.342-6.721-8.342h1.864c.91 0 1.43-.244 1.43-.706s-.476-.68-1.43-.68h-4.986c-.91 0-1.387.218-1.387.68s.477.706 1.387.706h.563zm52-9.84h7.978c.91 0 1.387-.244 1.387-.706s-.477-.68-1.387-.68h-7.978v-1.494c0-1.25 1.864-2.119 4.596-2.119 1.604 0 2.862.082 5.376.3.304.026.477.026.564.026.693 0 1.17-.271 1.17-.679 0-.353-.346-.598-.953-.68-1.387-.19-4.38-.353-6.114-.353-3.99 0-6.894 1.467-6.894 3.505v1.494h-3.555c-.954 0-1.431.245-1.431.68 0 .462.477.706 1.43.706h3.556v8.613h-3.99c-.953 0-1.43.245-1.43.68 0 .461.52.706 1.43.706h13.7c.911 0 1.432-.245 1.432-.706 0-.435-.477-.68-1.431-.68h-7.458zm25.1-1.38h-5.246c-.91 0-1.431.245-1.431.68s.52.706 1.431.706h2.992v8.613h-3.946c-.91 0-1.431.272-1.431.68 0 .461.52.706 1.431.706h13.74c.867 0 1.387-.245 1.387-.707 0-.407-.52-.68-1.387-.68h-7.544v-5.651c4.683-2.636 6.114-3.233 7.978-3.233.867 0 1.648.244 2.688.897.347.19.477.244.867.244.65 0 1.127-.299 1.127-.734 0-.271-.26-.516-1.084-.923-1.17-.625-2.125-.87-3.469-.87-2.255 0-4.292.707-8.108 2.826zm28.1-.38c-5.81 0-10.28 2.663-10.28 6.114 0 3.369 4.509 6.086 10.15 6.086 5.637 0 10.1-2.69 10.1-6.114 0-3.342-4.466-6.086-9.972-6.086zm-.26 1.386c4.509 0 7.978 2.038 7.978 4.728 0 2.608-3.47 4.701-7.848 4.701s-7.891-2.092-7.891-4.728c0-2.581 3.469-4.701 7.76-4.701zm18.26-1.006h-3.469c-.954 0-1.387.217-1.387.68s.477.706 1.387.706h1.257v8.613h-1.257c-.91 0-1.387.244-1.387.68s.52.706 1.344.706h4.726c.91 0 1.431-.245 1.431-.68 0-.462-.477-.706-1.431-.706h-1.214v-6.93c1.561-1.44 2.862-2.064 4.336-2.064 1.344 0 2.558.87 2.558 1.82v8.56h3.469c.91 0 1.387-.245 1.387-.707 0-.434-.477-.679-1.387-.679h-1.257v-6.929c1.561-1.44 2.818-2.065 4.249-2.065s2.645.815 2.645 1.739v8.641h3.469c.867 0 1.387-.245 1.387-.706 0-.435-.477-.68-1.387-.68h-1.257v-7.364c0-1.657-2.168-3.016-4.813-3.016-1.778 0-3.078.462-4.813 1.766-1.041-1.196-2.428-1.766-4.249-1.766-1.734 0-2.992.435-4.336 1.467zm58.9 11.22-2.948 3.723h-5.376c-.91 0-1.387.245-1.387.68 0 .461.477.706 1.387.706h10.1c.954 0 1.431-.245 1.431-.707 0-.435-.477-.679-1.431-.679h-2.428l10.88-13.56h.434c.954 0 1.43-.244 1.43-.706s-.476-.68-1.43-.68h-4.77c-.91 0-1.386.218-1.386.68s.477.706 1.387.706h1.994l-6.634 8.342-6.721-8.342h1.864c.91 0 1.43-.244 1.43-.706s-.476-.68-1.43-.68h-4.986c-.91 0-1.387.218-1.387.68s.477.706 1.387.706h.563zm27.2-11.6c-5.81 0-10.28 2.663-10.28 6.114 0 3.369 4.509 6.086 10.15 6.086 5.637 0 10.1-2.69 10.1-6.114 0-3.342-4.466-6.086-9.972-6.086zm-.26 1.386c4.509 0 7.978 2.038 7.978 4.728 0 2.608-3.47 4.701-7.848 4.701s-7.891-2.092-7.891-4.728c0-2.581 3.469-4.701 7.76-4.701zm31.86 10.37h3.512c.91 0 1.387-.245 1.387-.706 0-.435-.477-.68-1.387-.68h-1.257V79.45h-5.246c-.997 0-1.431.218-1.431.68s.477.706 1.431.706h2.992v6.739c-2.341 1.549-4.856 2.31-7.674 2.31-2.081 0-3.729-.978-3.729-2.255v-8.179h-4.379c-.954 0-1.387.217-1.387.68s.477.706 1.387.706h2.125v6.793c0 2.2 2.428 3.64 6.027 3.64 2.775 0 5.246-.651 7.631-2.01z" style="paint-order:markers fill stroke" stroke-width="3.555"/><path d="M558.2 36.6h5.814v1.781c0 .913.39 1.415 1.128 1.415s1.128-.457 1.128-1.415v-5.89c0-.959-.39-1.461-1.128-1.461s-1.128.502-1.128 1.461v1.781H558.2v-8.903h12.23v4.155c0 .959.39 1.461 1.128 1.461s1.128-.502 1.128-1.461v-6.483h-18.87c-.911 0-1.388.365-1.388 1.141s.477 1.187 1.388 1.187h2.126v21.05h-2.126c-.911 0-1.388.41-1.388 1.141 0 .776.477 1.187 1.388 1.187h19.78v-7.396c0-.959-.39-1.461-1.128-1.461s-1.128.502-1.128 1.461v5.068h-13.15zm26.9-6.98v-5.113c0-.959-.39-1.415-1.128-1.415s-1.128.502-1.128 1.415v5.113h-2.994c-.955 0-1.432.365-1.432 1.141s.477 1.187 1.432 1.187h2.994v11.78c0 3.47 2.733 5.753 6.985 5.753 2.039 0 4.469-.502 6.551-1.324 1.605-.64 2.299-1.233 2.299-1.918 0-.64-.477-1.141-1.085-1.141-.217 0-.39.046-.781.32-1.692 1.004-4.686 1.735-7.072 1.735-2.863 0-4.642-1.37-4.642-3.515v-11.69h9.285c.954 0 1.432-.411 1.432-1.187s-.477-1.141-1.432-1.141zm25.1-8.4h-4.382c-.911 0-1.388.41-1.388 1.141 0 .776.477 1.187 1.388 1.187h2.126v22.87h-1.735c-.954 0-1.432.41-1.432 1.141 0 .776.52 1.187 1.432 1.187h5.727c.911 0 1.432-.41 1.432-1.187 0-.73-.477-1.141-1.432-1.141h-1.735v-11.09c1.171-1.37 1.909-2.237 2.169-2.465 1.258-1.096 2.43-1.552 4.078-1.552 1.692 0 2.56.274 3.514 1.096 1.041.868 1.562 1.918 1.562 3.196v10.82h-1.735c-.911 0-1.388.41-1.388 1.141 0 .776.477 1.187 1.388 1.187h5.727c.911 0 1.432-.41 1.432-1.187 0-.73-.477-1.141-1.432-1.141h-1.735v-10.96c0-3.744-2.994-6.483-7.115-6.483-2.603 0-4.382.913-6.465 3.333zm41.5 18.62v-.685c0-5.844-4.339-10.18-10.15-10.18-5.727 0-10.15 4.292-10.15 9.816 0 6.027 4.729 10.68 10.76 10.68 4.208 0 9.371-2.19 9.371-3.926 0-.639-.477-1.14-1.085-1.14-.26 0-.434.09-.781.364-1.735 1.37-4.859 2.374-7.462 2.374-4.512 0-7.896-2.922-8.504-7.305zm-18.01-2.328c.738-3.744 3.861-6.209 7.853-6.209 3.948 0 7.115 2.511 7.81 6.209zM666 29.62h-5.25c-.911 0-1.432.41-1.432 1.141 0 .73.52 1.187 1.432 1.187h2.994v14.47h-3.948c-.911 0-1.432.457-1.432 1.141 0 .776.52 1.187 1.432 1.187h13.75c.868 0 1.388-.41 1.388-1.187 0-.685-.52-1.141-1.388-1.141h-7.549v-9.496c4.686-4.429 6.117-5.433 7.983-5.433.868 0 1.649.41 2.69 1.507.347.32.477.41.868.41.65 0 1.128-.501 1.128-1.232 0-.457-.26-.868-1.085-1.552-1.171-1.05-2.126-1.461-3.471-1.461-2.256 0-4.295 1.187-8.113 4.748zm22.4 0h-3.514c-.954 0-1.388.365-1.388 1.141s.477 1.187 1.388 1.187h1.258v14.47h-1.735c-.954 0-1.432.41-1.432 1.141 0 .776.52 1.187 1.432 1.187h5.727c.911 0 1.388-.41 1.388-1.187 0-.73-.477-1.141-1.388-1.141h-1.735v-11c2.647-3.424 3.731-4.109 6.378-4.109 1.562 0 2.386.274 3.341 1.096 1.041.913 1.562 1.963 1.562 3.196v10.82h-1.215c-.954 0-1.432.41-1.432 1.141 0 .776.52 1.187 1.432 1.187h4.729c.868 0 1.388-.41 1.388-1.187 0-.73-.477-1.141-1.388-1.141h-1.258v-11.14c0-3.561-3.037-6.3-7.029-6.3-2.647 0-4.208.822-6.508 3.379zm41.4 10.22v-.685c0-5.844-4.339-10.18-10.15-10.18-5.727 0-10.15 4.292-10.15 9.816 0 6.027 4.729 10.68 10.76 10.68 4.208 0 9.371-2.19 9.371-3.926 0-.639-.477-1.14-1.085-1.14-.26 0-.434.09-.781.364-1.735 1.37-4.859 2.374-7.462 2.374-4.512 0-7.896-2.922-8.504-7.305zm-18.01-2.328c.738-3.744 3.861-6.209 7.853-6.209 3.948 0 7.115 2.511 7.81 6.209zm29.51-7.892v-5.113c0-.959-.39-1.415-1.128-1.415s-1.128.502-1.128 1.415v5.113h-2.994c-.955 0-1.432.365-1.432 1.141s.477 1.187 1.432 1.187h2.994v11.78c0 3.47 2.733 5.753 6.985 5.753 2.039 0 4.469-.502 6.551-1.324 1.605-.64 2.299-1.233 2.299-1.918 0-.64-.477-1.141-1.085-1.141-.217 0-.39.046-.78.32-1.693 1.004-4.687 1.735-7.073 1.735-2.863 0-4.642-1.37-4.642-3.515v-11.69h9.285c.955 0 1.432-.411 1.432-1.187s-.477-1.141-1.432-1.141zm64 1.55c-1.735-1.415-4.035-2.191-6.595-2.191-5.944 0-10.2 4.337-10.2 10.41 0 5.89 4.165 10.09 10.02 10.09 2.907 0 5.77-.867 8.07-2.511 1.302-.913 1.952-1.735 1.952-2.374 0-.594-.477-1.096-1.041-1.096-.347 0-.564.091-.955.502-2.169 2.1-4.816 3.15-7.94 3.15-4.599 0-7.853-3.196-7.853-7.807 0-4.794 3.167-8.035 7.81-8.035 3.558 0 6.465 1.735 6.725 4.018.087.913.434 1.278 1.085 1.278.738 0 1.128-.502 1.128-1.415V31.08c0-.959-.39-1.46-1.128-1.46-.737 0-1.085.501-1.085 1.46zM829 48.75h4.382c.911 0 1.388-.41 1.388-1.187 0-.73-.477-1.141-1.388-1.141h-2.126v-11.69c0-3.333-3.08-5.753-7.246-5.753-1.649 0-4.469.594-6.855 1.461-.607.228-.911.594-.911 1.141 0 .64.477 1.141 1.04 1.141.218 0 .348-.046.912-.228 2.473-.822 4.295-1.187 5.684-1.187 3.037 0 5.12 1.37 5.12 3.424v2.83c-2.603-.684-3.688-.821-5.64-.821-5.64 0-9.415 2.739-9.415 6.803 0 3.515 2.82 5.935 6.985 5.935 2.994 0 5.38-1.004 8.07-3.424zm0-5.387c-2.82 2.739-5.076 3.789-8.07 3.789-2.907 0-4.729-1.415-4.729-3.607 0-2.648 3.037-4.474 7.376-4.474 1.909 0 3.992.228 5.423.594zm14.6-22.14h-4.382c-.911 0-1.388.41-1.388 1.141 0 .776.477 1.187 1.388 1.187h2.126v22.87h-2.126c-.911 0-1.388.41-1.388 1.141 0 .776.477 1.187 1.388 1.187h4.382v-3.424c2.083 2.831 4.512 4.155 7.593 4.155 5.337 0 9.632-4.611 9.632-10.32 0-5.707-4.252-10.18-9.632-10.18-3.037 0-5.64 1.415-7.593 4.109zm7.376 10.09c4.295 0 7.593 3.47 7.593 7.944 0 4.383-3.341 7.898-7.506 7.898-4.122 0-7.462-3.515-7.462-7.944 0-4.337 3.297-7.898 7.376-7.898zm26.32-10.09h-7.072c-.954 0-1.432.41-1.432 1.141 0 .776.477 1.187 1.432 1.187h4.816v22.87h-6.725c-.911 0-1.388.41-1.388 1.141 0 .776.477 1.187 1.388 1.187h15.71c.911 0 1.432-.41 1.432-1.187 0-.73-.477-1.141-1.432-1.141H877.3zm34.7 18.62v-.685c0-5.844-4.339-10.18-10.15-10.18-5.727 0-10.15 4.292-10.15 9.816 0 6.027 4.729 10.68 10.76 10.68 4.208 0 9.371-2.19 9.371-3.926 0-.639-.477-1.14-1.085-1.14-.26 0-.434.09-.78.364-1.736 1.37-4.86 2.374-7.463 2.374-4.512 0-7.896-2.922-8.504-7.305zm-18.01-2.328c.738-3.744 3.861-6.209 7.853-6.209 3.948 0 7.115 2.511 7.81 6.209z" style="paint-order:markers fill stroke" stroke-width="3.556"/><g stroke-width="4.968" style="paint-order:markers fill stroke" aria-label="Crosower"><path d="M149.883 24.09c-3.893-1.865-8.802-2.869-14.218-2.869-5.67 0-10.835 1.243-14.726 3.539-3.724 2.2-6.178 5.547-6.178 8.464v3.873c0 6.503 10.664 12.39 22.424 12.39 5.501 0 10.749-1.196 14.989-3.395 2.369-1.243 3.384-2.008 3.384-2.582 0-.67-.846-1.148-2.116-1.148-.761 0-1.184.143-1.862.526-4.57 2.965-8.633 4.16-14.387 4.16-9.734 0-18.021-4.686-18.021-10.23v-3.3c0-5.451 7.363-9.851 16.592-9.851 7.278 0 13.71 2.343 14.134 5.117.169.909.847 1.339 2.2 1.339 1.439 0 2.201-.526 2.201-1.53v-5.26c0-1.004-.762-1.482-2.201-1.482-1.438 0-2.2.526-2.2 1.482zM182.25 28.68h-10.24c-1.778 0-2.794.43-2.794 1.195s1.016 1.243 2.794 1.243h5.84v15.16h-7.702c-1.778 0-2.794.478-2.794 1.196 0 .813 1.016 1.243 2.794 1.243h26.827c1.693 0 2.707-.43 2.707-1.243 0-.717-1.014-1.196-2.707-1.196h-14.726v-9.946c9.14-4.638 11.934-5.69 15.572-5.69 1.692 0 3.216.43 5.247 1.578.678.335.932.43 1.693.43 1.27 0 2.201-.526 2.201-1.29 0-.479-.509-.91-2.117-1.627-2.284-1.1-4.146-1.53-6.77-1.53-4.401 0-8.38 1.243-15.835 4.973zM237.071 28.01c-11.34 0-20.062 4.686-20.062 10.76 0 5.93 8.802 10.71 19.8 10.71 11.003 0 19.727-4.734 19.727-10.76 0-5.882-8.718-10.71-19.465-10.71zm-.507 2.439c8.802 0 15.571 3.586 15.571 8.32 0 4.591-6.77 8.273-15.323 8.273s-15.397-3.682-15.397-8.32c0-4.543 6.771-8.273 15.149-8.273zM274.834 43.07c0-.765-.93-1.291-2.2-1.291-1.44 0-2.2.526-2.2 1.53v3.873c0 1.004.76 1.53 2.2 1.53 1.354 0 2.115-.526 2.115-1.482 3.216 1.482 7.703 2.248 12.865 2.248 9.988 0 17.103-2.678 17.103-6.456 0-1.721-1.693-3.395-4.402-4.399-2.792-1.052-5.924-1.578-11.171-1.865-7.45-.478-7.872-.526-9.734-1.148-1.523-.526-2.454-1.243-2.454-1.913 0-1.865 4.485-3.252 10.58-3.252 6.179 0 10.41 1.291 10.833 3.252.169.86.847 1.291 2.115 1.291 1.44 0 2.202-.526 2.202-1.53v-3.252c0-1.004-.763-1.53-2.116-1.53-1.185 0-2.032.478-2.201 1.195-2.877-1.243-6.687-1.865-11.256-1.865-8.548 0-14.9 2.343-14.9 5.547 0 1.578 1.523 3.06 4.061 3.921 2.455.86 4.91 1.195 11.173 1.53 4.655.287 6.855.574 9.055 1.291 2.116.622 3.47 1.674 3.47 2.678 0 2.343-5.331 4.065-12.525 4.065-6.94 0-12.612-1.626-12.612-3.634zM338.694 28.01c-11.342 0-20.062 4.686-20.062 10.76 0 5.93 8.802 10.71 19.8 10.71 11.002 0 19.712-4.734 19.712-10.76 0-5.882-8.718-10.71-19.465-10.71zm-.507 2.439c8.802 0 15.571 3.586 15.571 8.32 0 4.591-6.77 8.273-15.324 8.273s-15.396-3.682-15.396-8.32c0-4.543 6.77-8.273 15.149-8.273zM401.534 48.72l6.94-17.6h1.268c1.864 0 2.794-.43 2.794-1.243 0-.813-.846-1.195-2.794-1.195h-9.394c-1.861 0-2.709.383-2.709 1.195 0 .813.932 1.243 2.71 1.243h3.723l-5.416 13.82-7.025-11.33h-4.994l-6.94 11.33-5.585-13.82h3.893c1.777 0 2.793-.43 2.793-1.243 0-.813-.932-1.195-2.793-1.195h-9.396c-1.862 0-2.707.383-2.707 1.195 0 .813.93 1.243 2.707 1.243h1.27l7.11 17.6h4.993l7.278-11.67 7.365 11.67zM459.125 39.39v-.717c0-6.121-8.464-10.66-19.8-10.66-11.172 0-19.8 4.495-19.8 10.28 0 6.312 9.227 11.19 20.996 11.19 8.21 0 18.283-2.295 18.283-4.112 0-.67-.93-1.196-2.116-1.196-.507 0-.847.095-1.523.382-3.386 1.434-9.48 2.486-14.557 2.486-8.803 0-15.396-3.06-16.592-7.65zm-35.123-2.439c1.439-3.921 7.532-6.503 15.323-6.503 7.701 0 13.88 2.63 15.236 6.503zM486.973 28.68h-10.241c-1.778 0-2.794.43-2.794 1.195s1.016 1.243 2.794 1.243h5.839v15.16h-7.701c-1.778 0-2.794.478-2.794 1.196 0 .813 1.016 1.243 2.794 1.243h26.827c1.693 0 2.709-.43 2.709-1.243 0-.717-1.016-1.196-2.71-1.196h-14.725v-9.946c9.14-4.638 11.934-5.69 15.572-5.69 1.692 0 3.216.43 5.247 1.578.676.335.93.43 1.693.43 1.27 0 2.2-.526 2.2-1.29 0-.479-.508-.91-2.116-1.627-2.284-1.1-4.146-1.53-6.77-1.53-4.402 0-8.38 1.243-15.835 4.973z"/></g></svg>