<svg version="1.1" viewBox="0 0 1024 1024" xmlns="http://www.w3.org/2000/svg" xmlns:xlink="http://www.w3.org/1999/xlink"><defs><linearGradient id="a"><stop stop-color="#fff" offset=".603"/><stop stop-color="#2e76ff" offset=".603"/></linearGradient><linearGradient id="y"><stop stop-color="#fff" offset=".603"/><stop stop-color="#ffa52e" offset=".603"/></linearGradient><linearGradient id="g"><stop stop-color="#fff" offset=".603"/><stop stop-color="#1fb135" offset=".603"/></linearGradient><linearGradient id="n"><stop stop-color="#fff" offset=".603"/><stop stop-color="#745327" offset=".603"/></linearGradient><linearGradient id="j" x1="406" x2="409" y1="166" y2="171" gradientTransform="matrix(1,0,0,3.26,4.78,-299)" gradientUnits="userSpaceOnUse" spreadMethod="repeat" xlink:href="#y"/><linearGradient id="i" x1="406" x2="409" y1="166" y2="171" gradientTransform="matrix(1,0,0,3.26,4.78,-299)" gradientUnits="userSpaceOnUse" spreadMethod="repeat" xlink:href="#a"/><linearGradient id="h" x1="406" x2="409" y1="166" y2="171" gradientTransform="matrix(1,0,0,3.26,4.78,-299)" gradientUnits="userSpaceOnUse" spreadMethod="repeat" xlink:href="#g"/><linearGradient id="f" x1="406" x2="409" y1="166" y2="171" gradientTransform="matrix(1,0,0,3.26,4.78,-299)" gradientUnits="userSpaceOnUse" spreadMethod="repeat" xlink:href="#n"/><linearGradient id="e" x1="406" x2="409" y1="166" y2="171" gradientTransform="matrix(1,0,0,3.26,230,-299)" gradientUnits="userSpaceOnUse" spreadMethod="repeat" xlink:href="#y"/><linearGradient id="d" x1="406" x2="409" y1="166" y2="171" gradientTransform="matrix(1,0,0,3.26,230,-299)" gradientUnits="userSpaceOnUse" spreadMethod="repeat" xlink:href="#g"/><linearGradient id="c" x1="406" x2="409" y1="166" y2="171" gradientTransform="matrix(1,0,0,3.26,230,-299)" gradientUnits="userSpaceOnUse" spreadMethod="repeat" xlink:href="#a"/><linearGradient id="b" x1="406" x2="409" y1="166" y2="171" gradientTransform="matrix(1,0,0,3.26,230,-299)" gradientUnits="userSpaceOnUse" spreadMethod="repeat" xlink:href="#n"/></defs><path d="m0 0h1024v1024h-1024z" fill="#fff" fill-opacity=".34" style="paint-order:markers fill stroke"/><path d="m718 776s73.8 122-206 122-206-122-206-122" fill="none" stroke="#ccc" stroke-width="35.6" style="paint-order:markers fill stroke"/><g stroke-width="2"><path d="m199 377h226v210h-226z" fill="#e6e6e6" style="paint-order:markers fill stroke"/><path d="m199 377v303l35.6 153h155l35.6-153v-303z" fill="#e6e6e6" style="paint-order:markers fill stroke"/><path d="m258 353h108v24.2h-108z" fill="#ccc" style="paint-order:markers fill stroke"/><path d="m216 377h15.7v53h-15.7zm25.2 0h15.7v53h-15.7zm25.1 0h15.7v53h-15.7zm25.2 0h15.7v53h-15.7zm25.3 0h15.7v53h-15.7zm25.1 0h15.7v53h-15.7zm25.2 0h15.7v53h-15.7zm25.1 0h15.7v53h-15.7z" fill="#d3bc5f" style="paint-order:markers fill stroke"/><path d="m216 413h15.7v173h-15.7z" fill="url(#j)" style="paint-order:markers fill stroke"/><path d="m241 413h15.7v173h-15.7z" fill="#ffa52e" style="paint-order:markers fill stroke"/><path d="m266 413h15.7v173h-15.7z" fill="url(#h)" style="-inkscape-stroke:none;font-variation-settings:normal;paint-order:markers fill stroke"/><path d="m292 413h15.7v173h-15.7z" fill="#2e76ff" style="paint-order:markers fill stroke"/><path d="m317 413h15.7v173h-15.7z" fill="url(#i)" style="-inkscape-stroke:none;font-variation-settings:normal;paint-order:markers fill stroke"/><path d="m342 413h15.7v173h-15.7z" fill="#1fb135" style="paint-order:markers fill stroke"/><path d="m367 413h15.7v173h-15.7z" fill="url(#f)" style="-inkscape-stroke:none;font-variation-settings:normal;paint-order:markers fill stroke"/><path d="m392 413h15.7v173h-15.7z" fill="#745327" style="paint-order:markers fill stroke"/><path d="m215 619h195v61.4h-195z" fill="#ccc" style="paint-order:markers fill stroke"/><path d="m215 680h195v-6.51h-195z" fill="#fff" style="paint-order:markers fill stroke"/><path d="m599 377h226v210h-226z" fill="#e6e6e6" style="paint-order:markers fill stroke"/><path d="m599 377v303l35.6 153h155l35.6-153v-303z" fill="#e6e6e6" style="paint-order:markers fill stroke"/><path d="m658 353h108v24.2h-108z" fill="#ccc" style="paint-order:markers fill stroke"/><path d="m616 377h15.7v53h-15.7zm25 0h15.7v53h-15.7zm25.3 0h15.7v53h-15.7zm25.1 0h15.7v53h-15.7zm25.2 0h15.7v53h-15.7zm25.1 0h15.7v53h-15.7zm25.2 0h15.7v53h-15.7zm25.1 0h15.7v53h-15.7z" fill="#d3bc5f" style="paint-order:markers fill stroke"/><path d="m616 413h15.7v173h-15.7z" fill="url(#e)" style="paint-order:markers fill stroke"/><path d="m641 413h15.7v173h-15.7z" fill="#ffa52e" style="paint-order:markers fill stroke"/><path d="m666 413h15.7v173h-15.7z" fill="url(#d)" style="-inkscape-stroke:none;font-variation-settings:normal;paint-order:markers fill stroke"/><path d="m692 413h15.7v173h-15.7z" fill="#2e76ff" style="paint-order:markers fill stroke"/><path d="m717 413h15.7v173h-15.7z" fill="url(#c)" style="-inkscape-stroke:none;font-variation-settings:normal;paint-order:markers fill stroke"/><path d="m742 413h15.7v173h-15.7z" fill="#1fb135" style="paint-order:markers fill stroke"/><path d="m767 413h15.7v173h-15.7z" fill="url(#b)" style="-inkscape-stroke:none;font-variation-settings:normal;paint-order:markers fill stroke"/><path d="m792 413h15.7v173h-15.7z" fill="#745327" style="paint-order:markers fill stroke"/></g><path d="m615 619h195v61.4h-195z" fill="#ccc" style="paint-order:markers fill stroke"/><path d="m615 681h195v-6.51h-195z" fill="#fff" style="paint-order:markers fill stroke"/><path d="m79.3 265v18.8h18.8v9.38h-9.38l-4.69-4.69h-4.69v9.38h4.69v-4.69l4.69 4.69h14.1v-18.8h-18.8v-9.38h14.1v4.69h4.69v-4.69l-4.69-4.69zm34.9 0v9.38h-4.69v4.69h4.69v18.8h4.69v-18.8h14.1l-4.69-4.69h-9.38v-9.38zm85.9 0v9.38h4.69v-4.69zm41.6 0v32.8h4.69v-18.8h14.1v18.8h4.69v-18.8l-4.69-4.69h-14.1v-9.38zm34.9 0v9.38h-4.69v4.69h4.69v18.8h4.69v-18.8h14.1l-4.69-4.69h-9.38v-9.38zm57 0v9.38h-4.69v4.69h4.69v18.8h4.69v-18.8h14.1l-4.69-4.69h-9.38v-9.38zm25.5 0v32.8h4.69v-18.8h14.1v18.8h4.69v-18.8l-4.69-4.69h-14.1v-9.38zm151 0v32.8h4.69v-18.8h14.1v18.8h4.69v-18.8l-4.69-4.69h-14.1v-9.38zm48.9 0v32.8h23.4v-4.69h-18.8v-9.38h14.1v-4.69h-14.1v-9.38h18.8v-4.69zm34.9 0v9.38h-4.69v4.69h4.69v18.8h4.69v-18.8h14.1l-4.69-4.69h-9.38v-9.38zm25.5 0v32.8h4.69v-18.8h14.1v18.8h4.69v-18.8l-4.69-4.69h-14.1v-9.38zm156 0v9.38h-4.69v4.69h4.69v18.8h4.69v-18.8h14.1l-4.69-4.69h-9.38v-9.38zm105 0v32.8h23.4v-18.8l-4.69-4.69h-14.1v-9.38zm30.2 0v32.8h4.69v-28.1zm-770 9.38v23.4h4.69v-18.8h14.1v4.69h4.69v-4.69l-4.69-4.69zm30.2 0v4.69h18.8v4.69h-18.8v14.1h23.4v-18.8l-4.69-4.69zm41.6 0v23.4h18.8v4.69h-18.8v4.69h23.4v-28.1l-4.69-4.69zm178 0v23.4h4.69v-18.8h14.1v4.69h4.69v-4.69l-4.69-4.69zm30.2 0v23.4h23.4v-18.8l-4.69-4.69zm30.2 0v23.4h23.4v-18.8l-4.69-4.69v18.8h-14.1v-18.8zm30.2 0v23.4h18.8v4.69h-18.8v4.69h23.4v-28.1l-4.69-4.69zm170 0v23.4h23.4v-4.69h-18.8v-4.69h18.8v-9.38l-4.69-4.69zm30.2 0v23.4h4.69v-18.8h14.1v4.69h4.69v-4.69l-4.69-4.69zm30.2 0v23.4h4.69v-18.8h14.1v18.8h4.69v-18.8l-4.69-4.69zm30.2 0v23.4h23.4v-4.69h-18.8v-4.69h18.8v-9.38l-4.69-4.69zm79.1 0v23.4h23.4v-4.69h-18.8v-14.1h18.8l-4.69-4.69zm30.2 0v4.69h18.8v4.69h-18.8v14.1h23.4v-18.8l-4.69-4.69zm71.8 0v23.4h23.4v-4.69h-18.8v-4.69h18.8v-9.38l-4.69-4.69zm-721 4.69v18.8h4.69v-18.8zm16.1 0h14.1v14.1h-14.1zm84.2 0v4.69h23.4v-4.69zm124 0h14.1v14.1h-14.1zm60.4 0h14.1v14.1h-14.1zm170 0h14.1v4.69h-14.1zm90.6 0h14.1v4.69h-14.1zm140 0h14.1v14.1h-14.1zm41.6 0h14.1v4.69h-14.1zm-751 9.38h14.1v4.69h-14.1zm680 0h14.1v4.69h-14.1zm-643 34.7-0.041 0.0606v17.7h19.3v-3.8h-3.86v1.27h-11.6v-12.7h11.6v2.53h3.86v-2.53l-3.86-2.53zm24.8 0.0293v17.7h3.86v-15.2zm9.41 0.0312v5.06h3.86v-2.53zm49.7 0v5.06h3.86v-2.53zm99.3 0v5.06h3.86v-2.53zm38.1 0v5.06h-3.86v2.53h3.86v10.1h3.86v-10.1h11.6l-3.86-2.53h-7.71v-5.06h-3.86zm61.2 0v5.06h-15.4v12.7h19.3v-15.2l-3.86-2.53zm143 0v5.06h-3.86v2.53h3.86v10.1h3.86v-10.1h11.6l-3.86-2.53h-7.71v-2.53h3.86v-2.53h-7.71zm-382 5.06v17.7h3.86v-5.07h15.4v-10.1l-3.86-2.53zm49.7 0v7.6h15.4v2.53h-15.4v2.53h19.3v-7.6h-15.4v-2.53h15.4l-3.86-2.53h-15.4zm40.3 0v17.7h3.86v-5.07h15.4v-10.1l-3.86-2.53zm24.8 0v12.7h19.3v-10.1l-3.86-2.53h-15.4zm34.2 0v12.7h3.86v-10.1h11.6v10.1h3.86v-10.1l-3.86-2.53h-15.4zm49.7 0v12.7h19.3v-2.53h-15.4v-2.53h15.4v-5.07l-3.86-2.53h-15.4zm65.1 0v2.53h15.4v2.53h-15.4v7.6h19.3v-10.1l-3.86-2.53h-15.4zm49.6 0v2.53h15.4v2.53h-15.4v7.6h19.3v-10.1l-3.86-2.53h-15.4zm24.8 0v5.07l5.79 7.6h1.93v2.53h-7.71v2.53h11.6v-5.07h1.93l5.78-7.6v-2.53l-3.86-2.53v5.07l-3.86 5.06h-3.86l-3.86-5.06v-5.07h-3.86zm65.1 0v12.7h3.86v-10.1h11.6v2.53h3.86v-2.53l-3.86-2.53h-15.4zm24.8 0v12.7h19.3v-10.1l-3.86-2.53h-15.4zm24.8 0v12.7h3.86v-10.1h3.86v10.1h3.86v-10.1h3.86v10.1h3.86v-10.1l-3.86-2.53h-15.4zm40.3 0v5.07l5.78 7.6h1.93v2.53h-7.71v2.53h11.6v-5.07h1.93l5.78-7.6v-2.53l-3.86-2.53v5.07l-3.86 5.06h-3.86l-3.86-5.06v-5.07h-3.86zm24.8 0v12.7h19.3v-10.1l-3.86-2.53h-15.4zm24.8 0-0.0195 0.0684h0.0195zm0 0.0684v12.6h19.3v-10.1l-3.86-2.53v10.1h-11.6v-10.1zm-254 0v12.6h19.3v-10.1l-3.86-2.53v10.1h-3.86v-10.1h-3.86v10.1h-3.86v-10.1zm-298 2.46v10.1h3.86v-10.1zm13.3 0h11.6v7.6h-11.6zm36.4 0v10.1h3.86v-10.1zm53.5 0h11.6v7.6h-11.6zm24.8 0h11.6v7.6h-11.6zm21 0v10.1h3.86v-10.1zm62.9 0h11.6v2.53h-11.6zm24.8 0h11.6v7.6h-11.6zm205 0h11.6v7.6h-11.6zm89.9 0h11.6v7.6h-11.6zm-254 5.07h11.6v2.53h-11.6zm49.7 0h11.6v2.53h-11.6zm-296 50.2-9.36 0.0391v2.34h9.38v4.69h-9.38v2.34h9.38v4.69h-9.38v2.34h11.7v-14.1zm126 0-9.36 0.0391v16.4h11.7v-14.1zm275 0-9.36 0.0391v2.34h9.38v4.69h-9.38v2.34h9.38v4.69h-9.38v2.34h11.7v-14.1zm126 0-9.36 0.0391v16.4h11.7v-14.1zm-508 0.01-2.35 0.0293v9.38h9.38v7.03h2.34v-14.1l-2.34-2.34v7.03h-7.03zm401 0-2.35 0.0293v9.38h9.38v7.03h2.34v-14.1l-2.34-2.34v7.03h-7.03zm-344 0.0195-9.36 0.01v16.4h11.7v-9.38h-9.38v-4.69h9.38zm401 0-9.36 0.01v16.4h11.7v-9.38h-9.38v-4.69h9.38zm-532 0.00957v16.4h2.34v-14.1zm20.6 0v2.34h9.38v4.69h-9.38v9.38h11.7v-2.34h-9.38v-4.69h9.38v-7.03l-2.34-2.34zm76 0v9.38h9.38v4.69h-9.38v2.34h11.7v-9.38h-9.38v-4.69h9.38l-2.34-2.34zm50 0v2.34h9.38v14.1h2.34v-14.1l-2.34-2.34zm254 0v16.4h2.34v-14.1zm20.6 0v2.34h9.38v4.69h-9.38v9.38h11.7v-2.34h-9.38v-4.69h9.38v-7.03l-2.34-2.34zm76 0v9.38h9.38v4.69h-9.38v2.34h11.7v-9.38h-9.38v-4.69h9.38l-2.34-2.34zm50 0v2.34h9.38v14.1h2.34v-14.1l-2.34-2.34zm-374 2.34h7.03v4.69h-7.03zm401 0h7.03v4.69h-7.03zm-451 7.03h6.98v4.69h-7.01zm50 0h6.98v4.69h-7.01zm351 0h6.98v4.69h-7.01zm50 0h6.98v4.69h-7.01zm-254 119 0.01 0.041v16.4h11.7l-2.34-2.34h-7.03v-14.1zm-54.7 0.01-0.01 0.0312v9.38h9.38v7.03h2.34v-14.1l-2.34-2.34v7.03h-7.03v-7.03zm-28.5 0.0176-0.01 0.0137v2.34l9.38-0.0234v9.4l-2.34 2.34h-7.03v2.34h7.03l4.69-4.69v-9.38l-2.34-2.34zm-15.1 4e-3 0.0117 0.01v16.4h2.34v-7.03h2.34l4.69 7.03h2.34l-5.02-7.03h5.02v-4.69l-4.69-4.69zm83.2 0v16.4h2.34v-7.03h9.38v-4.69l-4.69-4.69zm-24.5 0.01v9.38h9.38v4.69h-9.38v2.34h11.7v-9.38h-9.38v-4.69h9.38l-2.34-2.34zm54.7 0v16.4h9.38l2.34-2.34v-11.7l-2.34-2.34v14.1h-7.03v-14.1h-2.34zm15.1 0-0.0215 0.01h0.0215zm0 0.01v16.4h11.7v-9.38h-7.03v2.34h4.69v4.69h-7.03v-11.7h7.03v2.34h2.34v-2.34l-2.34-2.34zm-126 2.33h4.69l2.34 2.34v2.34h-7.03zm83.2 0h4.69l2.34 2.34v2.34h-7.03zm-56.2 4.69v2.34h11.7v-2.34zm-170 205 0.0899 0.0703v32.8h23.4v-18.8h-18.8v-9.38h18.8l-4.69-4.69zm397 0 0.0899 0.0703v32.8h23.4v-18.8h-18.8v-9.38h18.8l-4.69-4.69zm60.4 0.01 0.0801 0.0605v32.8h23.4v-18.8l-4.69-2.34v-7.03l-4.69-4.69zm-518 0.0605v4.69h9.38v28.1h4.69v-28.1h9.38v-4.69h-23.4zm30.2 0v18.8h18.8v9.38h-18.8v4.69h23.4v-18.8h-18.8v-9.38h18.8l-4.69-4.69zm60.4 0-0.0898 0.01h0.0898zm0 0.01v32.8h23.4v-28.1l-4.69-4.69zm306-0.01v4.69h9.38v28.1h4.69v-28.1h9.38v-4.69h-23.4zm30.2 0v18.8h18.8v9.38h-18.8v4.69h23.4v-18.8h-18.8v-9.38h18.8l-4.69-4.69zm60.4 0-0.0898 0.01h0.0898zm0 0.01v32.8h23.4v-28.1l-4.69-4.69zm-367 0.0488v32.8h23.4v-18.8l-4.69-2.34v-7.03l-4.69-4.69zm-26 4.63h14.1v9.38h-14.1zm397 0h14.1v9.38h-14.1zm30.2 0h9.38v7.03h-9.38zm-397 0.0566h9.38v7.03h-9.38zm397 11.6h14.1v11.7h-14.1zm-397 0.0742h14.1v11.7h-14.1zm-60.3 2.26h14v9.38h-14zm30.2 0h14v9.38h-14zm367 0h14v9.38h-14zm30.2 0h14v9.38h-14z" stop-color="#000000" style="-inkscape-stroke:none;paint-order:markers fill stroke"/></svg>
