<svg version="1.1" viewBox="0 0 1024 1024" xmlns="http://www.w3.org/2000/svg" xmlns:xlink="http://www.w3.org/1999/xlink"><defs><linearGradient id="a"><stop stop-color="#fff" offset=".603"/><stop stop-color="#2e76ff" offset=".603"/></linearGradient><linearGradient id="y"><stop stop-color="#fff" offset=".603"/><stop stop-color="#ffa52e" offset=".603"/></linearGradient><linearGradient id="g"><stop stop-color="#fff" offset=".603"/><stop stop-color="#1fb135" offset=".603"/></linearGradient><linearGradient id="n"><stop stop-color="#fff" offset=".603"/><stop stop-color="#745327" offset=".603"/></linearGradient><linearGradient id="j" x1="406" x2="409" y1="166" y2="171" gradientTransform="matrix(1 0 0 3.26 4.78 -299)" gradientUnits="userSpaceOnUse" spreadMethod="repeat" xlink:href="#y"/><linearGradient id="i" x1="406" x2="409" y1="166" y2="171" gradientTransform="matrix(1 0 0 3.26 4.78 -299)" gradientUnits="userSpaceOnUse" spreadMethod="repeat" xlink:href="#a"/><linearGradient id="h" x1="406" x2="409" y1="166" y2="171" gradientTransform="matrix(1 0 0 3.26 4.78 -299)" gradientUnits="userSpaceOnUse" spreadMethod="repeat" xlink:href="#g"/><linearGradient id="f" x1="406" x2="409" y1="166" y2="171" gradientTransform="matrix(1 0 0 3.26 4.78 -299)" gradientUnits="userSpaceOnUse" spreadMethod="repeat" xlink:href="#n"/><linearGradient id="e" x1="406" x2="409" y1="166" y2="171" gradientTransform="matrix(1 0 0 3.26 230 -299)" gradientUnits="userSpaceOnUse" spreadMethod="repeat" xlink:href="#y"/><linearGradient id="d" x1="406" x2="409" y1="166" y2="171" gradientTransform="matrix(1 0 0 3.26 230 -299)" gradientUnits="userSpaceOnUse" spreadMethod="repeat" xlink:href="#g"/><linearGradient id="c" x1="406" x2="409" y1="166" y2="171" gradientTransform="matrix(1 0 0 3.26 230 -299)" gradientUnits="userSpaceOnUse" spreadMethod="repeat" xlink:href="#a"/><linearGradient id="b" x1="406" x2="409" y1="166" y2="171" gradientTransform="matrix(1 0 0 3.26 230 -299)" gradientUnits="userSpaceOnUse" spreadMethod="repeat" xlink:href="#n"/></defs><path d="m0 0h1024v1024h-1024z" fill="#fff" fill-opacity=".34" style="paint-order:markers fill stroke"/><path d="m448 183h2.86c1.7 1.01 2.66 2.47 4.68 7.07h1.34c0.477 0 0.75-0.259 0.75-0.747 0-0.46-0.25-0.719-0.75-0.719h-0.613c-1.75-3.74-2.43-4.89-3.73-6.04 1.95-0.833 3.02-2.3 3.02-4.14 0-2.44-1.93-4.54-4.2-4.54h-5.66c-0.477 0-0.727 0.23-0.727 0.718s0.25 0.747 0.727 0.747h1.11v13.2h-1.11c-0.477 0-0.727 0.259-0.727 0.718 0 0.489 0.25 0.748 0.727 0.748h3.86c0.477 0 0.75-0.259 0.75-0.748 0-0.46-0.25-0.718-0.75-0.718h-1.57zm0-1.47v-6.18h3.34c1.59 0 3.04 1.47 3.04 3.08 0 1.7-1.77 3.1-3.91 3.1zm20.3-6.13h2.07c0.477 0 0.727-0.259 0.727-0.747s-0.25-0.719-0.727-0.719h-6.72c-0.5 0-0.75 0.23-0.75 0.719s0.273 0.747 0.75 0.747h3.48v9.89c0 2.13-1.41 3.82-3.2 3.82-1.09 0-2.11-0.575-3.23-1.84v-3.59c0-0.604-0.204-0.92-0.59-0.92s-0.591 0.316-0.591 0.92v4.28c1.77 1.95 2.88 2.62 4.38 2.62 2.41 0 4.41-2.38 4.41-5.29zm14.5 7.5c0.5 0 0.75-0.259 0.75-0.747 0-0.46-0.25-0.719-0.75-0.719h-9.13c-0.477 0-0.727 0.259-0.727 0.719 0 0.488 0.25 0.747 0.727 0.747zm10.6 2.4v3.3h-1.61c-0.477 0-0.727 0.259-0.727 0.719 0 0.488 0.273 0.747 0.727 0.747h3.45c0.454 0 0.727-0.259 0.727-0.747 0-0.46-0.25-0.719-0.727-0.719h-0.659v-3.3h0.659c0.477 0 0.727-0.259 0.727-0.747 0-0.46-0.25-0.719-0.727-0.719h-0.659v-11.1h-2.11l-5.22 11v1.52zm0-1.47h-4.93l4.59-9.63h0.34zm9.7-9.63h5.36c0.5 0 0.75-0.259 0.75-0.747 0-0.46-0.25-0.719-0.75-0.719h-6.54v7.73c0 0.46 0.227 0.776 0.568 0.776 0.136 0 0.25-0.057 0.545-0.23 1-0.632 1.91-0.92 2.82-0.92 1.84 0 3.09 1.67 3.09 4.11 0 2.88-1.48 4.83-3.64 4.83-1.27 0-2.45-0.633-3.54-1.87-0.204-0.23-0.318-0.288-0.477-0.288-0.318 0-0.568 0.316-0.568 0.719 0 0.43 0.318 0.862 1.11 1.5 1.16 0.948 2.29 1.41 3.52 1.41 2.79 0 4.77-2.59 4.77-6.24 0-3.28-1.75-5.63-4.16-5.63-0.977 0-1.75 0.23-2.86 0.776zm26.7 9.4h2.86c2.64 0 4.72-2.16 4.72-4.89 0-2.7-1.93-4.8-4.41-4.8h-5.48c-0.477 0-0.727 0.23-0.727 0.718s0.25 0.748 0.727 0.748h1.11v13.2h-1.11c-0.477 0-0.727 0.258-0.727 0.718 0 0.489 0.25 0.747 0.727 0.747h5.32c0.477 0 0.75-0.258 0.75-0.747 0-0.46-0.25-0.718-0.75-0.718h-3.02zm0-1.47v-6.75h3.25c1.75 0 3.16 1.5 3.16 3.33 0 1.87-1.57 3.42-3.48 3.42zm15-6.73h2.07c0.477 0 0.727-0.259 0.727-0.747s-0.25-0.719-0.727-0.719h-5.32c-0.477 0-0.727 0.23-0.727 0.719s0.25 0.747 0.727 0.747h2.07v13.2h-2.07c-0.477 0-0.727 0.259-0.727 0.719 0 0.488 0.25 0.747 0.727 0.747h10.4v-5.83c0-0.575-0.204-0.891-0.59-0.891s-0.591 0.316-0.591 0.89v4.37h-5.95zm19.8 0h0.659c0.477 0 0.727-0.259 0.727-0.747s-0.227-0.719-0.727-0.719h-3.41c-0.477 0-0.727 0.23-0.727 0.719s0.25 0.747 0.727 0.747h1.57v9.34c0 2.47-1.52 4.37-3.48 4.37-1.93 0-3.45-1.9-3.45-4.37v-9.34h1.57c0.477 0 0.727-0.259 0.727-0.747s-0.25-0.719-0.727-0.719h-3.38c-0.5 0-0.75 0.23-0.75 0.719s0.25 0.747 0.75 0.747h0.636v9.34c0 3.3 2 5.83 4.63 5.83s4.66-2.53 4.66-5.83zm14.1 8.8h0.204c0.477 0 0.75-0.259 0.75-0.747 0-0.46-0.25-0.719-0.75-0.719h-4.41c-0.5 0-0.75 0.23-0.75 0.719s0.25 0.747 0.75 0.747h3.02v3.97c-1.25 0.719-1.95 0.92-3.11 0.92-3.23 0-5.16-2.27-5.16-6.04v-2.07c0-1.58 0.614-3.33 1.59-4.48 0.84-1.01 1.82-1.47 3.07-1.47 1.95 0 3.52 1.06 3.64 2.44 0.023 0.575 0.205 0.833 0.568 0.833 0.386 0 0.59-0.316 0.59-0.89v-2.59c0-0.603-0.18-0.89-0.59-0.89-0.386 0-0.59 0.287-0.59 0.89v0.087c-1-0.891-2.23-1.35-3.66-1.35-3.25 0-5.79 3.25-5.79 7.42v2.07c0 4.54 2.48 7.5 6.25 7.5 1.5 0 2.91-0.488 4.38-1.52z" stroke-width="3.56" style="paint-order:markers fill stroke"/><path d="m718 545s73.8 122-206 122-206-122-206-122" fill="none" stroke="#e6e6e6" stroke-width="35.6" style="paint-order:markers fill stroke"/><g stroke-width="2"><path transform="translate(0 9.72)" d="m199 137h226v210h-226z" fill="#e6e6e6" style="paint-order:markers fill stroke"/><path transform="translate(0 9.72)" d="m199 137v303l35.6 153h155l35.6-153v-303z" fill="#e6e6e6" style="paint-order:markers fill stroke"/><path transform="translate(0 9.72)" d="m258 113h108v24.2h-108z" fill="#ccc" style="paint-order:markers fill stroke"/><path transform="translate(0 9.72)" d="m216 137h15.7v53h-15.7zm25.2 0h15.7v53h-15.7zm25.1 0h15.7v53h-15.7zm25.2 0h15.7v53h-15.7zm25.3 0h15.7v53h-15.7zm25.1 0h15.7v53h-15.7zm25.2 0h15.7v53h-15.7zm25.1 0h15.7v53h-15.7z" fill="#d3bc5f" style="paint-order:markers fill stroke"/><path transform="translate(0 9.72)" d="m224 142-4.66 1.15c-0.46 0.116-0.606 0.231-0.606 0.5 0 0.25 0.291 0.481 0.582 0.481 0.049 0 0.291-0.039 0.388-0.058l3.03-0.75v9.48h-3.25c-0.533 0-0.8 0.173-0.8 0.481 0 0.327 0.291 0.5 0.8 0.5h7.76c0.51 0 0.777-0.173 0.777-0.5 0-0.308-0.267-0.481-0.777-0.481h-3.25zm21 10.8c1.31-0.884 2.81-1.98 4.83-3.52 3.06-2.31 3.54-2.86 3.54-4 0-1.79-2.16-3.34-4.61-3.34-1.5 0-2.91 0.538-3.83 1.46-0.485 0.481-0.801 1.06-0.801 1.42 0 0.231 0.267 0.443 0.607 0.443 0.315 0 0.509-0.135 0.606-0.443 0.413-1.11 1.84-1.9 3.42-1.9 1.8 0 3.35 1.1 3.35 2.34 0 0.827-0.436 1.31-2.69 3.04a164 164 0 0 1-5.55 4.04l-0.218 0.154v1.29h9.82v-1.56c0-0.404-0.218-0.615-0.631-0.615-0.412 0-0.63 0.211-0.63 0.615v0.577zm28.3-5.9c-0.509 0-0.776 0.192-0.776 0.5 0 0.307 0.267 0.48 0.776 0.48 2.33 0.039 4.2 1.19 4.2 2.63 0 1.38-1.77 2.56-3.91 2.56a7.36 7.36 0 0 1-3.76-1.02c-0.219-0.115-0.34-0.154-0.51-0.154-0.315 0-0.582 0.212-0.582 0.462 0 0.307 0.316 0.557 1.19 0.903 1.26 0.538 2.4 0.788 3.64 0.788 2.86 0 5.19-1.6 5.19-3.54 0-1.25-1.12-2.44-2.81-3.04 1.48-0.558 2.3-1.46 2.3-2.54 0-1.71-1.92-3.02-4.41-3.02-1.29 0-2.52 0.307-3.49 0.884-0.558 0.346-0.898 0.673-0.898 0.903 0 0.25 0.267 0.462 0.606 0.462 0.195 0 0.34-0.058 0.461-0.173 0.873-0.769 1.87-1.1 3.32-1.1 1.8 0 3.15 0.884 3.15 2.04 0 0.616-0.437 1.21-1.14 1.58-0.582 0.288-1.07 0.384-2.01 0.384zm27.5 3.6v2.21h-1.72c-0.509 0-0.776 0.173-0.776 0.48 0 0.327 0.291 0.5 0.776 0.5h3.69c0.486 0 0.777-0.173 0.777-0.5 0-0.307-0.267-0.48-0.777-0.48h-0.703v-2.21h0.703c0.51 0 0.777-0.173 0.777-0.5 0-0.308-0.267-0.481-0.777-0.481h-0.703v-7.42h-2.26l-5.58 7.38v1.02zm0-0.981h-5.26l4.9-6.44h0.364zm20.8-6.32h5.72c0.534 0 0.801-0.173 0.801-0.5 0-0.308-0.267-0.481-0.801-0.481h-6.98v5.17c0 0.308 0.243 0.519 0.607 0.519 0.145 0 0.267-0.038 0.582-0.154 1.07-0.422 2.04-0.615 3.01-0.615 1.96 0 3.3 1.12 3.3 2.75 0 1.92-1.58 3.23-3.88 3.23-1.36 0-2.62-0.423-3.78-1.25-0.219-0.154-0.34-0.192-0.51-0.192-0.339 0-0.606 0.211-0.606 0.48 0 0.289 0.339 0.577 1.19 1 1.24 0.634 2.45 0.942 3.76 0.942 2.98 0 5.09-1.73 5.09-4.17 0-2.19-1.87-3.77-4.44-3.77-1.04 0-1.87 0.153-3.06 0.519zm24.2 5.5c-0.024-0.192-0.024-0.365-0.024-0.461 0-1.15 0.388-2.31 1.09-3.11 1.16-1.38 3.03-2.25 4.85-2.25 0.437 0 0.8 0.038 1.04 0.134 0.242 0.096 0.339 0.116 0.485 0.116 0.34 0 0.582-0.212 0.582-0.462 0-0.442-0.897-0.769-2.08-0.769a8.11 8.11 0 0 0-4.49 1.36c-1.82 1.21-2.69 2.84-2.69 5.09 0 3.32 2.06 5.67 5.02 5.67 2.42 0 4.32-1.63 4.32-3.73 0-1.98-1.89-3.61-4.2-3.61-1.6 0-3.03 0.73-3.91 2.02zm0.17 1.4c0.558-0.769 0.824-1.1 1.16-1.4 0.776-0.673 1.7-1.04 2.57-1.04 1.6 0 2.94 1.19 2.94 2.63 0 1.56-1.31 2.75-3.03 2.75-1.82 0-2.98-0.922-3.64-2.94zm31.8-6.7-3.88 9.65a0.689 0.689 0 0 0-0.073 0.269c0 0.269 0.267 0.48 0.607 0.48 0.339 0 0.485-0.115 0.63-0.461l3.95-9.8v-1.34h-9.31v1.54c0 0.423 0.218 0.635 0.631 0.635 0.412 0 0.63-0.212 0.63-0.635v-0.557h6.82zm23.8 4.4c1.53-0.634 2.28-1.52 2.28-2.63 0-1.75-2.01-3.21-4.41-3.21-2.4 0-4.42 1.46-4.42 3.21 0 1.12 0.776 2 2.3 2.63-1.62 0.615-2.55 1.65-2.55 2.86 0 1.88 2.09 3.42 4.68 3.42 2.57 0 4.66-1.54 4.66-3.42 0-1.21-0.946-2.27-2.55-2.86zm-2.18-4.86c1.8 0 3.2 0.999 3.2 2.27 0 1.19-1.38 2.11-3.15 2.11-1.77 0-3.15-0.923-3.15-2.11 0-1.25 1.41-2.27 3.1-2.27zm0 5.34c1.99 0 3.47 1.02 3.47 2.38 0 1.36-1.5 2.44-3.4 2.44-1.92 0-3.42-1.08-3.42-2.44 0-1.33 1.48-2.38 3.35-2.38z" style="paint-order:markers fill stroke"/><path transform="translate(0 9.72)" d="m216 173h15.7v173h-15.7z" fill="url(#j)" style="paint-order:markers fill stroke"/><path transform="translate(0 9.72)" d="m241 173h15.7v173h-15.7z" fill="#ffa52e" style="paint-order:markers fill stroke"/><path transform="translate(0 9.72)" d="m266 173h15.7v173h-15.7z" fill="url(#h)" style="-inkscape-stroke:none;font-variation-settings:normal;paint-order:markers fill stroke"/><path transform="translate(0 9.72)" d="m292 173h15.7v173h-15.7z" fill="#2e76ff" style="paint-order:markers fill stroke"/><path transform="translate(0 9.72)" d="m317 173h15.7v173h-15.7z" fill="url(#i)" style="-inkscape-stroke:none;font-variation-settings:normal;paint-order:markers fill stroke"/><path transform="translate(0 9.72)" d="m342 173h15.7v173h-15.7z" fill="#1fb135" style="paint-order:markers fill stroke"/><path transform="translate(0 9.72)" d="m367 173h15.7v173h-15.7z" fill="url(#f)" style="-inkscape-stroke:none;font-variation-settings:normal;paint-order:markers fill stroke"/><path transform="translate(0 9.72)" d="m392 173h15.7v173h-15.7z" fill="#745327" style="paint-order:markers fill stroke"/></g><path d="m253 533v-19h6.73v2.72c0 0.784 0.477 1.36 1.17 1.36 0.738 0 1.08-0.412 1.08-1.36v-4.82h-20.3v4.82c0 0.907 0.39 1.36 1.13 1.36s1.13-0.454 1.13-1.36v-2.72h6.77v19h-4.3c-0.955 0-1.43 0.371-1.43 1.03 0 0.701 0.52 1.07 1.43 1.07h10.8c0.911 0 1.43-0.371 1.43-1.07 0-0.66-0.477-1.03-1.43-1.03zm33.6-8.3c0.955 0 1.43-0.371 1.43-1.07 0-0.66-0.477-1.03-1.43-1.03h-17.4c-0.911 0-1.39 0.371-1.39 1.03 0 0.701 0.477 1.07 1.39 1.07zm12.8-12.3h10.2c0.955 0 1.43-0.371 1.43-1.07 0-0.66-0.477-1.03-1.43-1.03h-12.5v11.1c0 0.66 0.434 1.11 1.08 1.11 0.26 0 0.477-0.082 1.04-0.33 1.91-0.907 3.64-1.32 5.38-1.32 3.52 0 5.9 2.39 5.9 5.9 0 4.12-2.82 6.93-6.94 6.93-2.43 0-4.69-0.908-6.77-2.68-0.39-0.33-0.607-0.412-0.911-0.412-0.608 0-1.08 0.453-1.08 1.03 0 0.62 0.607 1.24 2.13 2.15 2.21 1.36 4.38 2.02 6.73 2.02 5.34 0 9.11-3.71 9.11-8.95 0-4.7-3.34-8.08-7.94-8.08-1.87 0-3.34 0.33-5.47 1.11zm25.4 11.9c-0.043-0.412-0.043-0.784-0.043-0.99 0-2.47 0.694-4.95 1.95-6.68 2.08-2.97 5.42-4.83 8.68-4.83 0.78 0 1.43 0.083 1.87 0.289 0.433 0.206 0.607 0.247 0.867 0.247 0.608 0 1.04-0.453 1.04-0.99 0-0.948-1.61-1.65-3.73-1.65-2.82 0-5.68 1.03-8.03 2.93-3.26 2.6-4.82 6.1-4.82 10.9 0 7.14 3.69 12.2 8.98 12.2 4.34 0 7.72-3.5 7.72-8 0-4.25-3.38-7.75-7.51-7.75-2.86 0-5.42 1.57-6.99 4.33zm0.304 3.01c0.998-1.65 1.48-2.35 2.08-3.01 1.39-1.44 3.04-2.23 4.6-2.23 2.86 0 5.25 2.56 5.25 5.65 0 3.34-2.34 5.9-5.42 5.9-3.26 0-5.34-1.98-6.51-6.31zm34.7-5.01c2.73-1.36 4.08-3.26 4.08-5.65 0-3.75-3.6-6.89-7.9-6.89s-7.9 3.13-7.9 6.89c0 2.39 1.39 4.29 4.12 5.65-2.91 1.32-4.56 3.55-4.56 6.14 0 4.04 3.73 7.34 8.38 7.34 4.6 0 8.33-3.3 8.33-7.34 0-2.6-1.69-4.87-4.56-6.14zm-3.9-10.4c3.21 0 5.73 2.14 5.73 4.87 0 2.56-2.47 4.54-5.64 4.54s-5.64-1.98-5.64-4.54c0-2.68 2.52-4.87 5.55-4.87zm0 11.5c3.56 0 6.2 2.19 6.2 5.11s-2.69 5.24-6.08 5.24c-3.43 0-6.12-2.31-6.12-5.24 0-2.85 2.65-5.11 5.99-5.11zm18.2 9.66h-2.13c-0.911 0-1.39 0.371-1.39 1.03 0 0.701 0.477 1.07 1.39 1.07h13.3c4.08 0 7.38-2.89 7.38-6.43 0-2.64-1.78-4.66-5.16-5.86 2.26-1.28 3.34-2.8 3.34-4.82 0-3.46-3.3-6.1-7.64-6.1h-11.2c-0.911 0-1.39 0.33-1.39 1.03s0.477 1.07 1.39 1.07h2.13zm2.26-11v-8.04h6.9c2.99 0 5.34 1.73 5.34 3.96 0 2.39-2.52 4.08-6.08 4.08zm0 11v-8.87h6.25c2.6 0 3.99 0.247 5.34 0.99 1.56 0.866 2.47 2.19 2.47 3.59 0 2.39-2.3 4.29-5.25 4.29z" stroke-width="3.56" style="paint-order:markers fill stroke"/><g stroke-width="2"><path transform="translate(0 9.72)" d="m215 379h195v61.4h-195z" fill="#ccc" style="paint-order:markers fill stroke"/><path transform="translate(0 9.72)" d="m215 440h195v-6.51h-195z" fill="#fff" style="paint-order:markers fill stroke"/><path transform="translate(0 9.72)" d="m599 137h226v210h-226z" fill="#e6e6e6" style="paint-order:markers fill stroke"/><path transform="translate(0 9.72)" d="m599 137v303l35.6 153h155l35.6-153v-303z" fill="#e6e6e6" style="paint-order:markers fill stroke"/><path transform="translate(0 9.72)" d="m658 113h108v24.2h-108z" fill="#ccc" style="paint-order:markers fill stroke"/><path transform="translate(0 9.72)" d="m616 137h15.7v53h-15.7zm25 0h15.7v53h-15.7zm25.3 0h15.7v53h-15.7zm25.1 0h15.7v53h-15.7zm25.2 0h15.7v53h-15.7zm25.1 0h15.7v53h-15.7zm25.2 0h15.7v53h-15.7zm25.1 0h15.7v53h-15.7z" fill="#d3bc5f" style="paint-order:markers fill stroke"/><path transform="translate(0 9.72)" d="m624 142-4.66 1.15c-0.461 0.116-0.607 0.231-0.607 0.5 0 0.25 0.291 0.481 0.582 0.481 0.049 0 0.292-0.039 0.389-0.058l3.03-0.75v9.48h-3.25c-0.534 0-0.8 0.173-0.8 0.481 0 0.327 0.291 0.5 0.8 0.5h7.76c0.509 0 0.776-0.173 0.776-0.5 0-0.308-0.267-0.481-0.776-0.481h-3.25zm21 10.8c1.31-0.884 2.82-1.98 4.83-3.52 3.06-2.31 3.54-2.86 3.54-4 0-1.79-2.16-3.34-4.61-3.34-1.5 0-2.91 0.538-3.83 1.46-0.485 0.481-0.8 1.06-0.8 1.42 0 0.231 0.267 0.443 0.606 0.443 0.316 0 0.51-0.135 0.607-0.443 0.412-1.11 1.84-1.9 3.42-1.9 1.8 0 3.35 1.1 3.35 2.34 0 0.827-0.437 1.31-2.69 3.04a163 163 0 0 1-5.55 4.04l-0.218 0.154v1.29h9.82v-1.56c0-0.404-0.219-0.615-0.631-0.615s-0.631 0.211-0.631 0.615v0.577zm28.3-5.9c-0.51 0-0.777 0.192-0.777 0.5 0 0.307 0.267 0.48 0.777 0.48 2.33 0.039 4.2 1.19 4.2 2.63 0 1.38-1.77 2.56-3.91 2.56a7.36 7.36 0 0 1-3.76-1.02c-0.218-0.115-0.339-0.154-0.509-0.154-0.315 0-0.582 0.212-0.582 0.462 0 0.307 0.315 0.557 1.19 0.903 1.26 0.538 2.4 0.788 3.64 0.788 2.86 0 5.19-1.6 5.19-3.54 0-1.25-1.12-2.44-2.81-3.04 1.48-0.558 2.3-1.46 2.3-2.54 0-1.71-1.92-3.02-4.42-3.02-1.28 0-2.52 0.307-3.49 0.884-0.558 0.346-0.897 0.673-0.897 0.903 0 0.25 0.266 0.462 0.606 0.462a0.63 0.63 0 0 0 0.461-0.173c0.873-0.769 1.87-1.1 3.32-1.1 1.8 0 3.15 0.884 3.15 2.04 0 0.616-0.436 1.21-1.14 1.58-0.582 0.288-1.07 0.384-2.01 0.384zm27.5 3.6v2.21h-1.72c-0.51 0-0.776 0.173-0.776 0.48 0 0.327 0.291 0.5 0.776 0.5h3.69c0.485 0 0.776-0.173 0.776-0.5 0-0.307-0.267-0.48-0.776-0.48h-0.703v-2.21h0.703c0.509 0 0.776-0.173 0.776-0.5 0-0.308-0.267-0.481-0.776-0.481h-0.703v-7.42h-2.26l-5.58 7.38v1.02zm0-0.981h-5.26l4.9-6.44h0.364zm20.8-6.32h5.72c0.534 0 0.8-0.173 0.8-0.5 0-0.308-0.267-0.481-0.8-0.481h-6.98v5.17c0 0.308 0.242 0.519 0.606 0.519 0.146 0 0.267-0.038 0.582-0.154 1.07-0.422 2.04-0.615 3.01-0.615 1.96 0 3.3 1.12 3.3 2.75 0 1.92-1.58 3.23-3.88 3.23-1.36 0-2.62-0.423-3.78-1.25-0.218-0.154-0.34-0.192-0.509-0.192-0.34 0-0.607 0.211-0.607 0.48 0 0.289 0.34 0.577 1.19 1 1.24 0.634 2.45 0.942 3.76 0.942 2.98 0 5.09-1.73 5.09-4.17 0-2.19-1.87-3.77-4.44-3.77-1.04 0-1.87 0.153-3.06 0.519zm24.2 5.5c-0.025-0.192-0.025-0.365-0.025-0.461 0-1.15 0.389-2.31 1.09-3.11 1.16-1.38 3.03-2.25 4.85-2.25 0.436 0 0.8 0.038 1.04 0.134 0.243 0.096 0.34 0.116 0.486 0.116 0.339 0 0.582-0.212 0.582-0.462 0-0.442-0.898-0.769-2.09-0.769a8.12 8.12 0 0 0-4.49 1.36c-1.82 1.21-2.69 2.84-2.69 5.09 0 3.32 2.06 5.67 5.02 5.67 2.42 0 4.32-1.63 4.32-3.73 0-1.98-1.89-3.61-4.2-3.61-1.6 0-3.03 0.73-3.91 2.02zm0.169 1.4c0.558-0.769 0.825-1.1 1.16-1.4 0.776-0.673 1.7-1.04 2.57-1.04 1.6 0 2.94 1.19 2.94 2.63 0 1.56-1.31 2.75-3.03 2.75-1.82 0-2.98-0.922-3.64-2.94zm31.8-6.7-3.88 9.65a0.702 0.702 0 0 0-0.072 0.269c0 0.269 0.267 0.48 0.606 0.48 0.34 0 0.485-0.115 0.631-0.461l3.95-9.8v-1.34h-9.31v1.54c0 0.423 0.218 0.635 0.63 0.635s0.631-0.212 0.631-0.635v-0.557h6.82zm23.8 4.4c1.53-0.634 2.28-1.52 2.28-2.63 0-1.75-2.01-3.21-4.41-3.21s-4.41 1.46-4.41 3.21c0 1.12 0.776 2 2.3 2.63-1.62 0.615-2.55 1.65-2.55 2.86 0 1.88 2.08 3.42 4.68 3.42 2.57 0 4.66-1.54 4.66-3.42 0-1.21-0.946-2.27-2.55-2.86zm-2.18-4.86c1.8 0 3.2 0.999 3.2 2.27 0 1.19-1.38 2.11-3.15 2.11s-3.15-0.923-3.15-2.11c0-1.25 1.41-2.27 3.1-2.27zm0 5.34c1.99 0 3.47 1.02 3.47 2.38 0 1.36-1.5 2.44-3.4 2.44-1.92 0-3.42-1.08-3.42-2.44 0-1.33 1.48-2.38 3.35-2.38z" style="paint-order:markers fill stroke"/><path transform="translate(0 9.72)" d="m616 173h15.7v173h-15.7z" fill="url(#e)" style="paint-order:markers fill stroke"/><path transform="translate(0 9.72)" d="m641 173h15.7v173h-15.7z" fill="#ffa52e" style="paint-order:markers fill stroke"/><path transform="translate(0 9.72)" d="m666 173h15.7v173h-15.7z" fill="url(#d)" style="-inkscape-stroke:none;font-variation-settings:normal;paint-order:markers fill stroke"/><path transform="translate(0 9.72)" d="m692 173h15.7v173h-15.7z" fill="#2e76ff" style="paint-order:markers fill stroke"/><path transform="translate(0 9.72)" d="m717 173h15.7v173h-15.7z" fill="url(#c)" style="-inkscape-stroke:none;font-variation-settings:normal;paint-order:markers fill stroke"/><path transform="translate(0 9.72)" d="m742 173h15.7v173h-15.7z" fill="#1fb135" style="paint-order:markers fill stroke"/><path transform="translate(0 9.72)" d="m767 173h15.7v173h-15.7z" fill="url(#b)" style="-inkscape-stroke:none;font-variation-settings:normal;paint-order:markers fill stroke"/><path transform="translate(0 9.72)" d="m792 173h15.7v173h-15.7z" fill="#745327" style="paint-order:markers fill stroke"/></g><path d="m653 533v-19h6.73v2.72c0 0.784 0.477 1.36 1.17 1.36 0.738 0 1.08-0.412 1.08-1.36v-4.82h-20.3v4.82c0 0.907 0.39 1.36 1.13 1.36s1.13-0.454 1.13-1.36v-2.72h6.77v19h-4.3c-0.955 0-1.43 0.371-1.43 1.03 0 0.701 0.52 1.07 1.43 1.07h10.8c0.911 0 1.43-0.371 1.43-1.07 0-0.66-0.477-1.03-1.43-1.03zm33.6-8.3c0.955 0 1.43-0.371 1.43-1.07 0-0.66-0.477-1.03-1.43-1.03h-17.4c-0.911 0-1.39 0.371-1.39 1.03 0 0.701 0.477 1.07 1.39 1.07zm12.8-12.3h10.2c0.955 0 1.43-0.371 1.43-1.07 0-0.66-0.477-1.03-1.43-1.03h-12.5v11.1c0 0.66 0.434 1.11 1.08 1.11 0.26 0 0.477-0.082 1.04-0.33 1.91-0.907 3.64-1.32 5.38-1.32 3.52 0 5.9 2.39 5.9 5.9 0 4.12-2.82 6.93-6.94 6.93-2.43 0-4.69-0.908-6.77-2.68-0.39-0.33-0.607-0.412-0.911-0.412-0.608 0-1.08 0.453-1.08 1.03 0 0.62 0.607 1.24 2.13 2.15 2.21 1.36 4.38 2.02 6.73 2.02 5.34 0 9.11-3.71 9.11-8.95 0-4.7-3.34-8.08-7.94-8.08-1.87 0-3.34 0.33-5.47 1.11zm25.4 11.9c-0.043-0.412-0.043-0.784-0.043-0.99 0-2.47 0.694-4.95 1.95-6.68 2.08-2.97 5.42-4.83 8.68-4.83 0.78 0 1.43 0.083 1.87 0.289 0.433 0.206 0.607 0.247 0.867 0.247 0.608 0 1.04-0.453 1.04-0.99 0-0.948-1.61-1.65-3.73-1.65-2.82 0-5.68 1.03-8.03 2.93-3.26 2.6-4.82 6.1-4.82 10.9 0 7.14 3.69 12.2 8.98 12.2 4.34 0 7.72-3.5 7.72-8 0-4.25-3.38-7.75-7.51-7.75-2.86 0-5.42 1.57-6.99 4.33zm0.304 3.01c0.998-1.65 1.48-2.35 2.08-3.01 1.39-1.44 3.04-2.23 4.6-2.23 2.86 0 5.25 2.56 5.25 5.65 0 3.34-2.34 5.9-5.42 5.9-3.26 0-5.34-1.98-6.51-6.31zm34.7-5.01c2.73-1.36 4.08-3.26 4.08-5.65 0-3.75-3.6-6.89-7.9-6.89s-7.9 3.13-7.9 6.89c0 2.39 1.39 4.29 4.12 5.65-2.91 1.32-4.56 3.55-4.56 6.14 0 4.04 3.73 7.34 8.38 7.34 4.6 0 8.33-3.3 8.33-7.34 0-2.6-1.69-4.87-4.56-6.14zm-3.9-10.4c3.21 0 5.73 2.14 5.73 4.87 0 2.56-2.47 4.54-5.64 4.54s-5.64-1.98-5.64-4.54c0-2.68 2.52-4.87 5.55-4.87zm0 11.5c3.56 0 6.2 2.19 6.2 5.11s-2.69 5.24-6.08 5.24c-3.43 0-6.12-2.31-6.12-5.24 0-2.85 2.65-5.11 5.99-5.11zm18.3 9.66h-2.13c-0.911 0-1.39 0.371-1.39 1.03 0 0.701 0.477 1.07 1.39 1.07h13.3c4.08 0 7.38-2.89 7.38-6.43 0-2.64-1.78-4.66-5.16-5.86 2.26-1.28 3.34-2.8 3.34-4.82 0-3.46-3.3-6.1-7.64-6.1h-11.2c-0.911 0-1.39 0.33-1.39 1.03s0.477 1.07 1.39 1.07h2.13zm2.26-11v-8.04h6.9c2.99 0 5.34 1.73 5.34 3.96 0 2.39-2.52 4.08-6.08 4.08zm0 11v-8.87h6.25c2.6 0 3.99 0.247 5.34 0.99 1.56 0.866 2.47 2.19 2.47 3.59 0 2.39-2.3 4.29-5.25 4.29z" stroke-width="3.56" style="paint-order:markers fill stroke"/><path d="m615 388h195v61.4h-195z" fill="#ccc" style="paint-order:markers fill stroke"/><path d="m615 450h195v-6.51h-195z" fill="#fff" style="paint-order:markers fill stroke"/><path d="m155 76.8c-1.99-1.06-4.51-1.63-7.28-1.63-2.9 0-5.55 0.707-7.54 2.01-1.91 1.25-3.16 3.15-3.16 4.81v2.2c0 3.7 5.46 7.04 11.5 7.04 2.82 0 5.51-0.68 7.67-1.93 1.21-0.707 1.73-1.14 1.73-1.47 0-0.38-0.434-0.652-1.08-0.652-0.39 0-0.607 0.081-0.954 0.299-2.34 1.68-4.42 2.36-7.37 2.36-4.99 0-9.24-2.66-9.24-5.82v-1.88c0-3.1 3.77-5.6 8.5-5.6 3.73 0 7.02 1.33 7.24 2.91 0.087 0.516 0.434 0.76 1.13 0.76 0.737 0 1.13-0.298 1.13-0.869v-2.99c0-0.57-0.39-0.842-1.13-0.842s-1.13 0.299-1.13 0.842zm19.7-2.39h-7.07c-0.954 0-1.43 0.245-1.43 0.68 0 0.461 0.477 0.706 1.43 0.706h4.81v13.6h-6.72c-0.91 0-1.39 0.244-1.39 0.68 0 0.461 0.477 0.706 1.39 0.706h15.7c0.91 0 1.43-0.245 1.43-0.707 0-0.435-0.477-0.68-1.43-0.68h-6.72zm26 5h-7.15c-0.954 0-1.39 0.217-1.39 0.68s0.477 0.706 1.39 0.706h4.9v8.61h-6.72c-0.91 0-1.39 0.244-1.39 0.68 0 0.461 0.477 0.706 1.39 0.706h15.7c0.91 0 1.43-0.245 1.43-0.707 0-0.435-0.477-0.68-1.43-0.68h-6.72zm-0.087-5.52h-3.04v3.07h3.04zm18.5 5.52h-4.38c-0.954 0-1.39 0.217-1.39 0.68s0.477 0.706 1.39 0.706h2.12v13.6h-2.12c-0.91 0-1.39 0.244-1.39 0.68 0 0.461 0.477 0.706 1.39 0.706h8.37c0.954 0 1.43-0.245 1.43-0.707 0-0.435-0.477-0.68-1.43-0.68h-3.99v-6.08c1.99 1.55 4.38 2.26 7.54 2.26 5.46 0 9.67-2.53 9.67-5.76 0-3.26-4.16-5.73-9.71-5.73-3.21 0-5.29 0.652-7.5 2.31zm7.37 1c4.29 0 7.59 1.9 7.59 4.38 0 2.42-3.3 4.35-7.46 4.35-4.21 0-7.5-1.93-7.5-4.38 0-2.39 3.3-4.35 7.37-4.35zm52.2-1h-7.15c-0.954 0-1.39 0.217-1.39 0.68s0.477 0.706 1.39 0.706h4.9v8.61h-6.72c-0.91 0-1.39 0.244-1.39 0.68 0 0.461 0.477 0.706 1.39 0.706h15.7c0.91 0 1.43-0.245 1.43-0.707 0-0.435-0.477-0.68-1.43-0.68h-6.72zm-0.087-5.52h-3.04v3.07h3.04zm18.5 13.7c0-0.435-0.477-0.734-1.13-0.734-0.737 0-1.13 0.3-1.13 0.87v2.2c0 0.572 0.39 0.87 1.13 0.87 0.694 0 1.08-0.299 1.08-0.842 1.65 0.842 3.95 1.28 6.59 1.28 5.12 0 8.76-1.52 8.76-3.67 0-0.978-0.867-1.93-2.26-2.5-1.43-0.598-3.04-0.897-5.72-1.06-3.82-0.272-4.03-0.299-4.99-0.652-0.78-0.299-1.26-0.707-1.26-1.09 0-1.06 2.3-1.85 5.42-1.85 3.16 0 5.33 0.734 5.55 1.85 0.087 0.49 0.434 0.734 1.08 0.734 0.737 0 1.13-0.3 1.13-0.87v-1.85c0-0.57-0.39-0.87-1.08-0.87-0.607 0-1.04 0.272-1.13 0.68-1.47-0.707-3.42-1.06-5.77-1.06-4.38 0-7.63 1.33-7.63 3.15 0 0.897 0.78 1.74 2.08 2.23 1.26 0.489 2.52 0.68 5.72 0.87 2.38 0.162 3.51 0.325 4.64 0.733 1.08 0.353 1.78 0.951 1.78 1.52 0 1.33-2.73 2.31-6.42 2.31-3.56 0-6.46-0.924-6.46-2.06zm52-8.18h-4.38c-0.954 0-1.39 0.217-1.39 0.68s0.477 0.706 1.39 0.706h2.12v13.6h-2.12c-0.91 0-1.39 0.244-1.39 0.68 0 0.461 0.477 0.706 1.39 0.706h8.37c0.954 0 1.43-0.245 1.43-0.707 0-0.435-0.477-0.68-1.43-0.68h-3.99v-6.08c1.99 1.55 4.38 2.26 7.54 2.26 5.46 0 9.67-2.53 9.67-5.76 0-3.26-4.16-5.73-9.71-5.73-3.21 0-5.29 0.652-7.5 2.31zm7.37 1c4.29 0 7.59 1.9 7.59 4.38 0 2.42-3.3 4.35-7.46 4.35-4.21 0-7.5-1.93-7.5-4.38 0-2.39 3.3-4.35 7.37-4.35zm25.3-1.38c-5.81 0-10.3 2.66-10.3 6.11 0 3.37 4.51 6.09 10.2 6.09 5.64 0 10.1-2.69 10.1-6.11 0-3.34-4.47-6.09-9.97-6.09zm-0.26 1.39c4.51 0 7.98 2.04 7.98 4.73 0 2.61-3.47 4.7-7.85 4.7s-7.89-2.09-7.89-4.73c0-2.58 3.47-4.7 7.76-4.7zm27.3-1.01h-7.15c-0.954 0-1.39 0.217-1.39 0.68s0.477 0.706 1.39 0.706h4.9v8.61h-6.72c-0.91 0-1.39 0.244-1.39 0.68 0 0.461 0.477 0.706 1.39 0.706h15.7c0.91 0 1.43-0.245 1.43-0.707 0-0.435-0.477-0.68-1.43-0.68h-6.72zm-0.087-5.52h-3.04v3.07h3.04zm19.5 5.52h-3.51c-0.954 0-1.39 0.217-1.39 0.68s0.477 0.706 1.39 0.706h1.26v8.61h-1.73c-0.954 0-1.43 0.244-1.43 0.68 0 0.461 0.52 0.706 1.43 0.706h5.72c0.91 0 1.39-0.245 1.39-0.707 0-0.435-0.477-0.68-1.39-0.68h-1.73v-6.55c2.64-2.04 3.73-2.44 6.37-2.44 1.56 0 2.38 0.163 3.34 0.652 1.04 0.543 1.56 1.17 1.56 1.9v6.44h-1.21c-0.954 0-1.43 0.245-1.43 0.68 0 0.461 0.52 0.706 1.43 0.706h4.73c0.867 0 1.39-0.245 1.39-0.707 0-0.434-0.477-0.68-1.39-0.68h-1.26v-6.63c0-2.12-3.04-3.75-7.02-3.75-2.64 0-4.21 0.49-6.5 2.01zm26.8 0v-3.04c0-0.57-0.39-0.842-1.13-0.842s-1.13 0.299-1.13 0.842v3.04h-2.99c-0.954 0-1.43 0.217-1.43 0.68s0.477 0.706 1.43 0.706h2.99v7.01c0 2.06 2.73 3.42 6.98 3.42 2.04 0 4.47-0.3 6.55-0.788 1.6-0.38 2.3-0.734 2.3-1.14 0-0.38-0.477-0.68-1.08-0.68-0.217 0-0.39 0.028-0.78 0.19-1.69 0.599-4.68 1.03-7.07 1.03-2.86 0-4.64-0.815-4.64-2.09v-6.96h9.28c0.953 0 1.43-0.245 1.43-0.707s-0.476-0.68-1.43-0.68zm40.5 6.08v-0.408c0-3.48-4.34-6.06-10.2-6.06-5.72 0-10.2 2.55-10.2 5.84 0 3.59 4.73 6.36 10.8 6.36 4.21 0 9.36-1.3 9.36-2.34 0-0.38-0.477-0.679-1.08-0.679-0.26 0-0.434 0.054-0.78 0.218-1.73 0.815-4.86 1.41-7.46 1.41-4.51 0-7.89-1.74-8.5-4.35zm-18-1.39c0.737-2.23 3.86-3.7 7.85-3.7 3.95 0 7.11 1.49 7.8 3.7zm43.2-9.69h-4.38c-0.91 0-1.39 0.245-1.39 0.68 0 0.461 0.477 0.706 1.39 0.706h2.12v5.71c-1.95-1.63-4.55-2.47-7.63-2.47-5.33 0-9.63 2.72-9.63 6.09s4.29 6.11 9.58 6.11c3.08 0 5.77-0.87 7.67-2.47v2.04h4.38c0.91 0 1.39-0.245 1.39-0.707 0-0.434-0.477-0.679-1.39-0.679h-2.12zm-9.84 6c4.29 0 7.59 2.04 7.59 4.73 0 2.61-3.34 4.7-7.5 4.7-4.21 0-7.5-2.09-7.5-4.73 0-2.61 3.3-4.7 7.41-4.7zm57.8 10.4h4.38c0.91 0 1.39-0.245 1.39-0.706 0-0.435-0.477-0.68-1.39-0.68h-2.12v-6.96c0-1.98-3.08-3.42-7.24-3.42-1.65 0-4.47 0.353-6.85 0.87-0.607 0.136-0.91 0.353-0.91 0.679 0 0.38 0.477 0.68 1.04 0.68 0.217 0 0.347-0.028 0.911-0.137 2.47-0.489 4.29-0.706 5.68-0.706 3.04 0 5.12 0.815 5.12 2.04v1.68c-2.6-0.408-3.68-0.49-5.64-0.49-5.64 0-9.41 1.63-9.41 4.05 0 2.09 2.82 3.53 6.98 3.53 2.99 0 5.38-0.598 8.06-2.04zm0-3.21c-2.82 1.63-5.07 2.26-8.06 2.26-2.9 0-4.73-0.842-4.73-2.15 0-1.58 3.04-2.66 7.37-2.66 1.91 0 3.99 0.136 5.42 0.353zm27.4 3.21 3.56-10h0.65c0.954 0 1.43-0.244 1.43-0.706s-0.433-0.68-1.43-0.68h-4.81c-0.954 0-1.39 0.218-1.39 0.68s0.477 0.706 1.39 0.706h1.91l-2.78 7.85-3.6-6.44h-2.56l-3.56 6.44-2.86-7.85h1.99c0.91 0 1.43-0.244 1.43-0.706s-0.476-0.68-1.43-0.68h-4.81c-0.953 0-1.39 0.218-1.39 0.68s0.477 0.706 1.39 0.706h0.65l3.64 10h2.56l3.73-6.63 3.77 6.63zm24.6 0h4.38c0.91 0 1.39-0.245 1.39-0.706 0-0.435-0.477-0.68-1.39-0.68h-2.12v-6.96c0-1.98-3.08-3.42-7.24-3.42-1.65 0-4.47 0.353-6.85 0.87-0.607 0.136-0.91 0.353-0.91 0.679 0 0.38 0.476 0.68 1.04 0.68 0.217 0 0.347-0.028 0.911-0.137 2.47-0.489 4.29-0.706 5.68-0.706 3.04 0 5.12 0.815 5.12 2.04v1.68c-2.6-0.408-3.68-0.49-5.64-0.49-5.64 0-9.41 1.63-9.41 4.05 0 2.09 2.82 3.53 6.98 3.53 2.99 0 5.38-0.598 8.06-2.04zm0-3.21c-2.82 1.63-5.07 2.26-8.06 2.26-2.9 0-4.73-0.842-4.73-2.15 0-1.58 3.04-2.66 7.37-2.66 1.91 0 3.99 0.136 5.42 0.353zm20.1 3.05-2.95 3.72h-5.38c-0.91 0-1.39 0.245-1.39 0.68 0 0.461 0.477 0.706 1.39 0.706h10.1c0.954 0 1.43-0.245 1.43-0.707 0-0.435-0.477-0.679-1.43-0.679h-2.43l10.9-13.6h0.434c0.954 0 1.43-0.244 1.43-0.706s-0.476-0.68-1.43-0.68h-4.77c-0.91 0-1.39 0.218-1.39 0.68s0.477 0.706 1.39 0.706h1.99l-6.63 8.34-6.72-8.34h1.86c0.91 0 1.43-0.244 1.43-0.706s-0.476-0.68-1.43-0.68h-4.99c-0.91 0-1.39 0.218-1.39 0.68s0.477 0.706 1.39 0.706h0.563zm52-9.84h7.98c0.91 0 1.39-0.244 1.39-0.706s-0.477-0.68-1.39-0.68h-7.98v-1.49c0-1.25 1.86-2.12 4.6-2.12 1.6 0 2.86 0.082 5.38 0.3 0.304 0.026 0.477 0.026 0.564 0.026 0.693 0 1.17-0.271 1.17-0.679 0-0.353-0.346-0.598-0.953-0.68-1.39-0.19-4.38-0.353-6.11-0.353-3.99 0-6.89 1.47-6.89 3.5v1.49h-3.56c-0.954 0-1.43 0.245-1.43 0.68 0 0.462 0.477 0.706 1.43 0.706h3.56v8.61h-3.99c-0.953 0-1.43 0.245-1.43 0.68 0 0.461 0.52 0.706 1.43 0.706h13.7c0.911 0 1.43-0.245 1.43-0.706 0-0.435-0.477-0.68-1.43-0.68h-7.46zm25.1-1.38h-5.25c-0.91 0-1.43 0.245-1.43 0.68s0.52 0.706 1.43 0.706h2.99v8.61h-3.95c-0.91 0-1.43 0.272-1.43 0.68 0 0.461 0.52 0.706 1.43 0.706h13.7c0.867 0 1.39-0.245 1.39-0.707 0-0.407-0.52-0.68-1.39-0.68h-7.54v-5.65c4.68-2.64 6.11-3.23 7.98-3.23 0.867 0 1.65 0.244 2.69 0.897 0.347 0.19 0.477 0.244 0.867 0.244 0.65 0 1.13-0.299 1.13-0.734 0-0.271-0.26-0.516-1.08-0.923-1.17-0.625-2.12-0.87-3.47-0.87-2.26 0-4.29 0.707-8.11 2.83zm28.1-0.38c-5.81 0-10.3 2.66-10.3 6.11 0 3.37 4.51 6.09 10.2 6.09 5.64 0 10.1-2.69 10.1-6.11 0-3.34-4.47-6.09-9.97-6.09zm-0.26 1.39c4.51 0 7.98 2.04 7.98 4.73 0 2.61-3.47 4.7-7.85 4.7s-7.89-2.09-7.89-4.73c0-2.58 3.47-4.7 7.76-4.7zm18.3-1.01h-3.47c-0.954 0-1.39 0.217-1.39 0.68s0.477 0.706 1.39 0.706h1.26v8.61h-1.26c-0.91 0-1.39 0.244-1.39 0.68s0.52 0.706 1.34 0.706h4.73c0.91 0 1.43-0.245 1.43-0.68 0-0.462-0.477-0.706-1.43-0.706h-1.21v-6.93c1.56-1.44 2.86-2.06 4.34-2.06 1.34 0 2.56 0.87 2.56 1.82v8.56h3.47c0.91 0 1.39-0.245 1.39-0.707 0-0.434-0.477-0.679-1.39-0.679h-1.26v-6.93c1.56-1.44 2.82-2.06 4.25-2.06s2.64 0.815 2.64 1.74v8.64h3.47c0.867 0 1.39-0.245 1.39-0.706 0-0.435-0.477-0.68-1.39-0.68h-1.26v-7.36c0-1.66-2.17-3.02-4.81-3.02-1.78 0-3.08 0.462-4.81 1.77-1.04-1.2-2.43-1.77-4.25-1.77-1.73 0-2.99 0.435-4.34 1.47zm58.9 11.2-2.95 3.72h-5.38c-0.91 0-1.39 0.245-1.39 0.68 0 0.461 0.477 0.706 1.39 0.706h10.1c0.954 0 1.43-0.245 1.43-0.707 0-0.435-0.477-0.679-1.43-0.679h-2.43l10.9-13.6h0.434c0.954 0 1.43-0.244 1.43-0.706s-0.476-0.68-1.43-0.68h-4.77c-0.91 0-1.39 0.218-1.39 0.68s0.477 0.706 1.39 0.706h1.99l-6.63 8.34-6.72-8.34h1.86c0.91 0 1.43-0.244 1.43-0.706s-0.476-0.68-1.43-0.68h-4.99c-0.91 0-1.39 0.218-1.39 0.68s0.477 0.706 1.39 0.706h0.563zm27.2-11.6c-5.81 0-10.3 2.66-10.3 6.11 0 3.37 4.51 6.09 10.2 6.09 5.64 0 10.1-2.69 10.1-6.11 0-3.34-4.47-6.09-9.97-6.09zm-0.26 1.39c4.51 0 7.98 2.04 7.98 4.73 0 2.61-3.47 4.7-7.85 4.7s-7.89-2.09-7.89-4.73c0-2.58 3.47-4.7 7.76-4.7zm31.9 10.4h3.51c0.91 0 1.39-0.245 1.39-0.706 0-0.435-0.477-0.68-1.39-0.68h-1.26v-10h-5.25c-0.997 0-1.43 0.218-1.43 0.68s0.477 0.706 1.43 0.706h2.99v6.74c-2.34 1.55-4.86 2.31-7.67 2.31-2.08 0-3.73-0.978-3.73-2.26v-8.18h-4.38c-0.954 0-1.39 0.217-1.39 0.68s0.477 0.706 1.39 0.706h2.12v6.79c0 2.2 2.43 3.64 6.03 3.64 2.78 0 5.25-0.651 7.63-2.01z" stroke-width="3.56" style="paint-order:markers fill stroke"/><path d="m127 24.8c-1.74-1.6-3.73-2.33-6.16-2.33-4.69 0-8.2 3.1-8.2 7.17 0 2.01 0.868 3.84 2.34 4.88 1.34 1 2.95 1.55 5.99 2.1 3.08 0.502 3.95 0.776 4.99 1.46 1.13 0.73 1.82 2.1 1.82 3.56 0 3.15-2.91 5.48-6.86 5.48-3.82 0-6.86-2.15-7.07-4.98-0.043-0.913-0.39-1.32-1.08-1.32-0.738 0-1.13 0.502-1.13 1.46v4.98c0 0.959 0.39 1.46 1.13 1.46s1.13-0.502 1.13-1.46v-0.64c1.78 1.83 4.25 2.83 7.07 2.83 5.38 0 9.2-3.24 9.2-7.72 0-2.37-1.04-4.38-2.78-5.48-1.34-0.867-2.56-1.23-5.94-1.82-2.65-0.457-3.78-0.822-4.82-1.55-1.04-0.685-1.6-1.83-1.6-3.15 0-2.88 2.52-4.93 5.99-4.93 3.25 0 5.77 1.87 5.99 4.43 0.043 0.913 0.434 1.32 1.08 1.32 0.738 0 1.13-0.502 1.13-1.46v-4.61c0-0.913-0.39-1.42-1.13-1.42s-1.08 0.502-1.08 1.42zm15.2 4.8v-5.11c0-0.959-0.39-1.42-1.13-1.42s-1.13 0.502-1.13 1.42v5.11h-2.99c-0.954 0-1.43 0.365-1.43 1.14s0.477 1.19 1.43 1.19h2.99v11.8c0 3.47 2.73 5.75 6.98 5.75 2.04 0 4.47-0.502 6.55-1.32 1.6-0.64 2.3-1.23 2.3-1.92 0-0.64-0.477-1.14-1.08-1.14-0.217 0-0.39 0.046-0.781 0.32-1.69 1-4.69 1.74-7.07 1.74-2.86 0-4.64-1.37-4.64-3.52v-11.7h9.28c0.955 0 1.43-0.411 1.43-1.19s-0.477-1.14-1.43-1.14zm28.8 0h-5.25c-0.911 0-1.43 0.41-1.43 1.14 0 0.73 0.52 1.19 1.43 1.19h2.99v14.5h-3.95c-0.911 0-1.43 0.457-1.43 1.14 0 0.776 0.52 1.19 1.43 1.19h13.8c0.868 0 1.39-0.41 1.39-1.19 0-0.685-0.52-1.14-1.39-1.14h-7.55v-9.5c4.69-4.43 6.12-5.43 7.98-5.43 0.868 0 1.65 0.41 2.69 1.51 0.347 0.32 0.477 0.41 0.868 0.41 0.65 0 1.13-0.501 1.13-1.23 0-0.457-0.26-0.868-1.08-1.55-1.17-1.05-2.13-1.46-3.47-1.46-2.26 0-4.3 1.19-8.11 4.75zm32.9 19.1h4.38c0.911 0 1.39-0.41 1.39-1.19 0-0.73-0.477-1.14-1.39-1.14h-2.13v-11.7c0-3.33-3.08-5.75-7.25-5.75-1.65 0-4.47 0.594-6.86 1.46-0.607 0.228-0.911 0.594-0.911 1.14 0 0.64 0.477 1.14 1.04 1.14 0.218 0 0.348-0.046 0.912-0.228 2.47-0.822 4.3-1.19 5.68-1.19 3.04 0 5.12 1.37 5.12 3.42v2.83c-2.6-0.684-3.69-0.821-5.64-0.821-5.64 0-9.42 2.74-9.42 6.8 0 3.52 2.82 5.94 6.98 5.94 2.99 0 5.38-1 8.07-3.42zm0-5.39c-2.82 2.74-5.08 3.79-8.07 3.79-2.91 0-4.73-1.42-4.73-3.61 0-2.65 3.04-4.47 7.38-4.47 1.91 0 3.99 0.228 5.42 0.594zm22.2-13.7h-7.16c-0.954 0-1.39 0.365-1.39 1.14s0.477 1.19 1.39 1.19h4.9v14.5h-6.72c-0.911 0-1.39 0.41-1.39 1.14 0 0.776 0.477 1.19 1.39 1.19h15.7c0.911 0 1.43-0.41 1.43-1.19 0-0.73-0.477-1.14-1.43-1.14h-6.72zm-0.087-9.27h-3.04v5.16h3.04zm30.9 12.5c-1.91-2.65-4.16-3.84-7.16-3.84-5.08 0-9.2 4.34-9.2 9.63 0 5.34 4.12 9.68 9.2 9.68 2.95 0 5.25-1.23 7.16-3.79v4.98c0.174 2.69-2.34 5.3-5.08 5.25h-5.03c-0.911 0-1.39 0.365-1.39 1.19 0 0.73 0.477 1.14 1.39 1.14h4.99c3.73 0.228 7.51-3.52 7.38-7.3v-17.8h2.13c0.911 0 1.39-0.41 1.39-1.19s-0.434-1.14-1.39-1.14h-4.38zm-7.12-1.51c4.04 0 7.12 3.2 7.12 7.35 0 4.06-3.08 7.3-7.03 7.3-3.95 0-7.07-3.24-7.07-7.35 0-4.02 3.12-7.3 6.98-7.3zm21.6-10.1h-4.38c-0.911 0-1.39 0.41-1.39 1.14 0 0.776 0.477 1.19 1.39 1.19h2.13v22.9h-1.74c-0.955 0-1.43 0.41-1.43 1.14 0 0.776 0.52 1.19 1.43 1.19h5.73c0.911 0 1.43-0.41 1.43-1.19 0-0.73-0.477-1.14-1.43-1.14h-1.74v-11.1c1.17-1.37 1.91-2.24 2.17-2.46 1.26-1.1 2.43-1.55 4.08-1.55 1.69 0 2.56 0.274 3.51 1.1 1.04 0.868 1.56 1.92 1.56 3.2v10.8h-1.74c-0.911 0-1.39 0.41-1.39 1.14 0 0.776 0.477 1.19 1.39 1.19h5.73c0.911 0 1.43-0.41 1.43-1.19 0-0.73-0.477-1.14-1.43-1.14h-1.74v-11c0-3.74-2.99-6.48-7.12-6.48-2.6 0-4.38 0.913-6.46 3.33zm27 8.4v-5.11c0-0.959-0.39-1.42-1.13-1.42s-1.13 0.502-1.13 1.42v5.11h-2.99c-0.954 0-1.43 0.365-1.43 1.14s0.477 1.19 1.43 1.19h2.99v11.8c0 3.47 2.73 5.75 6.98 5.75 2.04 0 4.47-0.502 6.55-1.32 1.6-0.64 2.3-1.23 2.3-1.92 0-0.64-0.477-1.14-1.08-1.14-0.217 0-0.39 0.046-0.781 0.32-1.69 1-4.69 1.74-7.07 1.74-2.86 0-4.64-1.37-4.64-3.52v-11.7h9.28c0.955 0 1.43-0.411 1.43-1.19s-0.477-1.14-1.43-1.14zm39.4 7.62c0.955 0 1.43-0.41 1.43-1.19 0-0.73-0.477-1.14-1.43-1.14h-17.4c-0.911 0-1.39 0.41-1.39 1.14 0 0.776 0.477 1.19 1.39 1.19zm12.6-7.62v-5.11c0-0.959-0.39-1.42-1.13-1.42s-1.13 0.502-1.13 1.42v5.11h-2.99c-0.954 0-1.43 0.365-1.43 1.14s0.477 1.19 1.43 1.19h2.99v11.8c0 3.47 2.73 5.75 6.98 5.75 2.04 0 4.47-0.502 6.55-1.32 1.6-0.64 2.3-1.23 2.3-1.92 0-0.64-0.477-1.14-1.08-1.14-0.217 0-0.39 0.046-0.781 0.32-1.69 1-4.69 1.74-7.07 1.74-2.86 0-4.64-1.37-4.64-3.52v-11.7h9.28c0.955 0 1.43-0.411 1.43-1.19s-0.477-1.14-1.43-1.14zm25.2-8.4h-4.38c-0.911 0-1.39 0.41-1.39 1.14 0 0.776 0.477 1.19 1.39 1.19h2.13v22.9h-1.74c-0.955 0-1.43 0.41-1.43 1.14 0 0.776 0.52 1.19 1.43 1.19h5.73c0.911 0 1.43-0.41 1.43-1.19 0-0.73-0.477-1.14-1.43-1.14h-1.74v-11.1c1.17-1.37 1.91-2.24 2.17-2.46 1.26-1.1 2.43-1.55 4.08-1.55 1.69 0 2.56 0.274 3.51 1.1 1.04 0.868 1.56 1.92 1.56 3.2v10.8h-1.74c-0.911 0-1.39 0.41-1.39 1.14 0 0.776 0.477 1.19 1.39 1.19h5.73c0.911 0 1.43-0.41 1.43-1.19 0-0.73-0.477-1.14-1.43-1.14h-1.74v-11c0-3.74-2.99-6.48-7.12-6.48-2.6 0-4.38 0.913-6.46 3.33zm29.6 8.4h-5.25c-0.911 0-1.43 0.41-1.43 1.14 0 0.73 0.52 1.19 1.43 1.19h2.99v14.5h-3.95c-0.911 0-1.43 0.457-1.43 1.14 0 0.776 0.52 1.19 1.43 1.19h13.8c0.868 0 1.39-0.41 1.39-1.19 0-0.685-0.52-1.14-1.39-1.14h-7.55v-9.5c4.69-4.43 6.12-5.43 7.98-5.43 0.868 0 1.65 0.41 2.69 1.51 0.347 0.32 0.477 0.41 0.868 0.41 0.65 0 1.13-0.501 1.13-1.23 0-0.457-0.26-0.868-1.08-1.55-1.17-1.05-2.13-1.46-3.47-1.46-2.26 0-4.3 1.19-8.11 4.75zm28.2-0.64c-5.81 0-10.3 4.47-10.3 10.3 0 5.66 4.51 10.2 10.2 10.2s10.1-4.52 10.1-10.3c0-5.62-4.47-10.2-9.98-10.2zm-0.26 2.33c4.51 0 7.98 3.42 7.98 7.94 0 4.38-3.47 7.9-7.85 7.9s-7.9-3.52-7.9-7.94c0-4.34 3.47-7.9 7.77-7.9zm32 17.4h3.51c0.911 0 1.39-0.41 1.39-1.19 0-0.73-0.477-1.14-1.39-1.14h-1.26v-16.8h-5.25c-0.998 0-1.43 0.365-1.43 1.14s0.477 1.19 1.43 1.19h2.99v11.3c-2.34 2.6-4.86 3.88-7.68 3.88-2.08 0-3.73-1.64-3.73-3.79v-13.7h-4.38c-0.954 0-1.39 0.365-1.39 1.14s0.477 1.19 1.39 1.19h2.13v11.4c0 3.7 2.43 6.12 6.03 6.12 2.78 0 5.25-1.1 7.64-3.38zm26-15.9c-1.91-2.65-4.16-3.84-7.16-3.84-5.08 0-9.2 4.34-9.2 9.63 0 5.34 4.12 9.68 9.2 9.68 2.95 0 5.25-1.23 7.16-3.79v4.98c0.174 2.69-2.34 5.3-5.08 5.25h-5.03c-0.911 0-1.39 0.365-1.39 1.19 0 0.73 0.477 1.14 1.39 1.14h4.99c3.73 0.228 7.51-3.52 7.38-7.3v-17.8h2.13c0.911 0 1.39-0.41 1.39-1.19s-0.434-1.14-1.39-1.14h-4.38zm-7.12-1.51c4.04 0 7.12 3.2 7.12 7.35 0 4.06-3.08 7.3-7.03 7.3-3.95 0-7.07-3.24-7.07-7.35 0-4.02 3.12-7.3 6.98-7.3zm21.7-10.1h-4.38c-0.911 0-1.39 0.41-1.39 1.14 0 0.776 0.477 1.19 1.39 1.19h2.13v22.9h-1.74c-0.954 0-1.43 0.41-1.43 1.14 0 0.776 0.52 1.19 1.43 1.19h5.73c0.911 0 1.43-0.41 1.43-1.19 0-0.73-0.477-1.14-1.43-1.14h-1.74v-11.1c1.17-1.37 1.91-2.24 2.17-2.46 1.26-1.1 2.43-1.55 4.08-1.55 1.69 0 2.56 0.274 3.51 1.1 1.04 0.868 1.56 1.92 1.56 3.2v10.8h-1.74c-0.911 0-1.39 0.41-1.39 1.14 0 0.776 0.477 1.19 1.39 1.19h5.73c0.911 0 1.43-0.41 1.43-1.19 0-0.73-0.477-1.14-1.43-1.14h-1.74v-11c0-3.74-2.99-6.48-7.12-6.48-2.6 0-4.38 0.913-6.46 3.33zm52.1 15.4h5.81v1.78c0 0.913 0.39 1.42 1.13 1.42s1.13-0.457 1.13-1.42v-5.89c0-0.959-0.39-1.46-1.13-1.46s-1.13 0.502-1.13 1.46v1.78h-5.81v-8.9h12.2v4.16c0 0.959 0.39 1.46 1.13 1.46s1.13-0.502 1.13-1.46v-6.48h-18.9c-0.911 0-1.39 0.365-1.39 1.14s0.477 1.19 1.39 1.19h2.13v21h-2.13c-0.911 0-1.39 0.41-1.39 1.14 0 0.776 0.477 1.19 1.39 1.19h19.8v-7.4c0-0.959-0.39-1.46-1.13-1.46s-1.13 0.502-1.13 1.46v5.07h-13.2zm26.9-6.98v-5.11c0-0.959-0.39-1.42-1.13-1.42s-1.13 0.502-1.13 1.42v5.11h-2.99c-0.955 0-1.43 0.365-1.43 1.14s0.477 1.19 1.43 1.19h2.99v11.8c0 3.47 2.73 5.75 6.98 5.75 2.04 0 4.47-0.502 6.55-1.32 1.6-0.64 2.3-1.23 2.3-1.92 0-0.64-0.477-1.14-1.08-1.14-0.217 0-0.39 0.046-0.781 0.32-1.69 1-4.69 1.74-7.07 1.74-2.86 0-4.64-1.37-4.64-3.52v-11.7h9.28c0.954 0 1.43-0.411 1.43-1.19s-0.477-1.14-1.43-1.14zm25.1-8.4h-4.38c-0.911 0-1.39 0.41-1.39 1.14 0 0.776 0.477 1.19 1.39 1.19h2.13v22.9h-1.74c-0.954 0-1.43 0.41-1.43 1.14 0 0.776 0.52 1.19 1.43 1.19h5.73c0.911 0 1.43-0.41 1.43-1.19 0-0.73-0.477-1.14-1.43-1.14h-1.74v-11.1c1.17-1.37 1.91-2.24 2.17-2.46 1.26-1.1 2.43-1.55 4.08-1.55 1.69 0 2.56 0.274 3.51 1.1 1.04 0.868 1.56 1.92 1.56 3.2v10.8h-1.74c-0.911 0-1.39 0.41-1.39 1.14 0 0.776 0.477 1.19 1.39 1.19h5.73c0.911 0 1.43-0.41 1.43-1.19 0-0.73-0.477-1.14-1.43-1.14h-1.74v-11c0-3.74-2.99-6.48-7.12-6.48-2.6 0-4.38 0.913-6.46 3.33zm41.5 18.6v-0.685c0-5.84-4.34-10.2-10.2-10.2-5.73 0-10.2 4.29-10.2 9.82 0 6.03 4.73 10.7 10.8 10.7 4.21 0 9.37-2.19 9.37-3.93 0-0.639-0.477-1.14-1.08-1.14-0.26 0-0.434 0.09-0.781 0.364-1.74 1.37-4.86 2.37-7.46 2.37-4.51 0-7.9-2.92-8.5-7.3zm-18-2.33c0.738-3.74 3.86-6.21 7.85-6.21 3.95 0 7.12 2.51 7.81 6.21zm32.3-7.89h-5.25c-0.911 0-1.43 0.41-1.43 1.14 0 0.73 0.52 1.19 1.43 1.19h2.99v14.5h-3.95c-0.911 0-1.43 0.457-1.43 1.14 0 0.776 0.52 1.19 1.43 1.19h13.8c0.868 0 1.39-0.41 1.39-1.19 0-0.685-0.52-1.14-1.39-1.14h-7.55v-9.5c4.69-4.43 6.12-5.43 7.98-5.43 0.868 0 1.65 0.41 2.69 1.51 0.347 0.32 0.477 0.41 0.868 0.41 0.65 0 1.13-0.501 1.13-1.23 0-0.457-0.26-0.868-1.08-1.55-1.17-1.05-2.13-1.46-3.47-1.46-2.26 0-4.3 1.19-8.11 4.75zm22.4 0h-3.51c-0.954 0-1.39 0.365-1.39 1.14s0.477 1.19 1.39 1.19h1.26v14.5h-1.74c-0.954 0-1.43 0.41-1.43 1.14 0 0.776 0.52 1.19 1.43 1.19h5.73c0.911 0 1.39-0.41 1.39-1.19 0-0.73-0.477-1.14-1.39-1.14h-1.74v-11c2.65-3.42 3.73-4.11 6.38-4.11 1.56 0 2.39 0.274 3.34 1.1 1.04 0.913 1.56 1.96 1.56 3.2v10.8h-1.22c-0.954 0-1.43 0.41-1.43 1.14 0 0.776 0.52 1.19 1.43 1.19h4.73c0.868 0 1.39-0.41 1.39-1.19 0-0.73-0.477-1.14-1.39-1.14h-1.26v-11.1c0-3.56-3.04-6.3-7.03-6.3-2.65 0-4.21 0.822-6.51 3.38zm41.4 10.2v-0.685c0-5.84-4.34-10.2-10.2-10.2-5.73 0-10.2 4.29-10.2 9.82 0 6.03 4.73 10.7 10.8 10.7 4.21 0 9.37-2.19 9.37-3.93 0-0.639-0.477-1.14-1.08-1.14-0.26 0-0.434 0.09-0.781 0.364-1.74 1.37-4.86 2.37-7.46 2.37-4.51 0-7.9-2.92-8.5-7.3zm-18-2.33c0.738-3.74 3.86-6.21 7.85-6.21 3.95 0 7.12 2.51 7.81 6.21zm29.5-7.89v-5.11c0-0.959-0.39-1.42-1.13-1.42s-1.13 0.502-1.13 1.42v5.11h-2.99c-0.955 0-1.43 0.365-1.43 1.14s0.477 1.19 1.43 1.19h2.99v11.8c0 3.47 2.73 5.75 6.98 5.75 2.04 0 4.47-0.502 6.55-1.32 1.6-0.64 2.3-1.23 2.3-1.92 0-0.64-0.477-1.14-1.08-1.14-0.217 0-0.39 0.046-0.78 0.32-1.69 1-4.69 1.74-7.07 1.74-2.86 0-4.64-1.37-4.64-3.52v-11.7h9.28c0.955 0 1.43-0.411 1.43-1.19s-0.477-1.14-1.43-1.14zm64 1.55c-1.74-1.42-4.04-2.19-6.6-2.19-5.94 0-10.2 4.34-10.2 10.4 0 5.89 4.16 10.1 10 10.1 2.91 0 5.77-0.867 8.07-2.51 1.3-0.913 1.95-1.74 1.95-2.37 0-0.594-0.477-1.1-1.04-1.1-0.347 0-0.564 0.091-0.955 0.502-2.17 2.1-4.82 3.15-7.94 3.15-4.6 0-7.85-3.2-7.85-7.81 0-4.79 3.17-8.04 7.81-8.04 3.56 0 6.46 1.74 6.72 4.02 0.087 0.913 0.434 1.28 1.08 1.28 0.738 0 1.13-0.502 1.13-1.42v-4.11c0-0.959-0.39-1.46-1.13-1.46-0.737 0-1.08 0.501-1.08 1.46zm23.7 17.6h4.38c0.911 0 1.39-0.41 1.39-1.19 0-0.73-0.477-1.14-1.39-1.14h-2.13v-11.7c0-3.33-3.08-5.75-7.25-5.75-1.65 0-4.47 0.594-6.86 1.46-0.607 0.228-0.911 0.594-0.911 1.14 0 0.64 0.477 1.14 1.04 1.14 0.218 0 0.348-0.046 0.912-0.228 2.47-0.822 4.3-1.19 5.68-1.19 3.04 0 5.12 1.37 5.12 3.42v2.83c-2.6-0.684-3.69-0.821-5.64-0.821-5.64 0-9.42 2.74-9.42 6.8 0 3.52 2.82 5.94 6.98 5.94 2.99 0 5.38-1 8.07-3.42zm0-5.39c-2.82 2.74-5.08 3.79-8.07 3.79-2.91 0-4.73-1.42-4.73-3.61 0-2.65 3.04-4.47 7.38-4.47 1.91 0 3.99 0.228 5.42 0.594zm14.6-22.1h-4.38c-0.911 0-1.39 0.41-1.39 1.14 0 0.776 0.477 1.19 1.39 1.19h2.13v22.9h-2.13c-0.911 0-1.39 0.41-1.39 1.14 0 0.776 0.477 1.19 1.39 1.19h4.38v-3.42c2.08 2.83 4.51 4.16 7.59 4.16 5.34 0 9.63-4.61 9.63-10.3 0-5.71-4.25-10.2-9.63-10.2-3.04 0-5.64 1.42-7.59 4.11zm7.38 10.1c4.3 0 7.59 3.47 7.59 7.94 0 4.38-3.34 7.9-7.51 7.9-4.12 0-7.46-3.52-7.46-7.94 0-4.34 3.3-7.9 7.38-7.9zm26.3-10.1h-7.07c-0.954 0-1.43 0.41-1.43 1.14 0 0.776 0.477 1.19 1.43 1.19h4.82v22.9h-6.72c-0.911 0-1.39 0.41-1.39 1.14 0 0.776 0.477 1.19 1.39 1.19h15.7c0.911 0 1.43-0.41 1.43-1.19 0-0.73-0.477-1.14-1.43-1.14h-6.72zm34.7 18.6v-0.685c0-5.84-4.34-10.2-10.2-10.2-5.73 0-10.2 4.29-10.2 9.82 0 6.03 4.73 10.7 10.8 10.7 4.21 0 9.37-2.19 9.37-3.93 0-0.639-0.477-1.14-1.08-1.14-0.26 0-0.434 0.09-0.78 0.364-1.74 1.37-4.86 2.37-7.46 2.37-4.51 0-7.9-2.92-8.5-7.3zm-18-2.33c0.738-3.74 3.86-6.21 7.85-6.21 3.95 0 7.12 2.51 7.81 6.21z" stroke-width="3.56" style="paint-order:markers fill stroke"/><path d="m243 748v-11.7h6.73v1.68c0 0.482 0.477 0.837 1.17 0.837 0.738 0 1.08-0.253 1.08-0.837v-2.97h-20.3v2.97c0 0.558 0.39 0.837 1.13 0.837s1.13-0.279 1.13-0.837v-1.68h6.77v11.7h-4.3c-0.955 0-1.43 0.228-1.43 0.634 0 0.432 0.52 0.66 1.43 0.66h10.8c0.911 0 1.43-0.228 1.43-0.66 0-0.406-0.477-0.634-1.43-0.634zm26-11.7h5.81c0.911 0 1.43-0.228 1.43-0.66s-0.477-0.634-1.43-0.634h-13.9c-0.911 0-1.39 0.203-1.39 0.634s0.477 0.66 1.39 0.66h5.81v11.7h-5.81c-0.911 0-1.39 0.228-1.39 0.634 0 0.432 0.477 0.66 1.39 0.66h13.9c0.911 0 1.43-0.228 1.43-0.66 0-0.406-0.477-0.634-1.43-0.634h-5.81zm30.4 8.3 2.21 3.37h-2.95c-0.911 0-1.39 0.228-1.39 0.634 0 0.432 0.477 0.66 1.39 0.66h6.77c0.911 0 1.43-0.228 1.43-0.66 0-0.406-0.477-0.634-1.43-0.634h-1.43l-8.55-13h-8.98c-0.955 0-1.43 0.203-1.43 0.634s0.52 0.66 1.43 0.66h4.82l-7.55 11.7h-1.22c-0.911 0-1.39 0.228-1.39 0.634 0 0.432 0.52 0.66 1.39 0.66h6.55c0.911 0 1.43-0.228 1.43-0.66 0-0.406-0.477-0.634-1.43-0.634h-3.08l2.17-3.37zm-0.868-1.29h-9.5l4.51-7.03h0.347zm29.6-9.81c0.217-0.254 0.26-0.304 0.26-0.431 0-0.33-0.52-0.61-1.13-0.61-0.52 0-0.824 0.128-1.13 0.508l-14.2 17.3c-0.173 0.203-0.217 0.305-0.217 0.432 0 0.33 0.521 0.608 1.13 0.608 0.521 0 0.825-0.126 1.13-0.507zm12.3 9h5.81v0.99c0 0.507 0.39 0.786 1.13 0.786s1.13-0.254 1.13-0.786v-3.27c0-0.533-0.39-0.812-1.13-0.812s-1.13 0.279-1.13 0.811v0.99h-5.81v-4.95h12.2v2.31c0 0.533 0.39 0.812 1.13 0.812s1.13-0.28 1.13-0.812v-3.6h-18.9c-0.911 0-1.39 0.203-1.39 0.634s0.477 0.66 1.39 0.66h2.13v11.7h-2.13c-0.911 0-1.39 0.228-1.39 0.634 0 0.432 0.477 0.66 1.39 0.66h19.8v-4.11c0-0.533-0.39-0.812-1.13-0.812s-1.13 0.28-1.13 0.812v2.82h-13.2zm32.8-6.2h5.81c0.911 0 1.43-0.228 1.43-0.66s-0.477-0.634-1.43-0.634h-13.9c-0.911 0-1.39 0.203-1.39 0.634s0.477 0.66 1.39 0.66h5.81v11.7h-5.81c-0.911 0-1.39 0.228-1.39 0.634 0 0.432 0.477 0.66 1.39 0.66h13.9c0.911 0 1.43-0.228 1.43-0.66 0-0.406-0.477-0.634-1.43-0.634h-5.81zm30.3 8.3 2.21 3.37h-2.95c-0.911 0-1.39 0.228-1.39 0.634 0 0.432 0.477 0.66 1.39 0.66h6.77c0.911 0 1.43-0.228 1.43-0.66 0-0.406-0.477-0.634-1.43-0.634h-1.43l-8.55-13h-8.98c-0.955 0-1.43 0.203-1.43 0.634s0.52 0.66 1.43 0.66h4.82l-7.55 11.7h-1.22c-0.911 0-1.39 0.228-1.39 0.634 0 0.432 0.52 0.66 1.39 0.66h6.55c0.911 0 1.43-0.228 1.43-0.66 0-0.406-0.477-0.634-1.43-0.634h-3.08l2.17-3.37zm-0.868-1.29h-9.5l4.51-7.03h0.347zm30.2-0.406c0.955 0 1.43-0.228 1.43-0.66 0-0.406-0.477-0.634-1.43-0.634h-17.4c-0.911 0-1.39 0.228-1.39 0.634 0 0.432 0.477 0.66 1.39 0.66zm12.8-7.6h10.2c0.955 0 1.43-0.228 1.43-0.66 0-0.406-0.477-0.634-1.43-0.634h-12.5v6.82c0 0.406 0.434 0.685 1.08 0.685 0.26 0 0.477-0.05 1.04-0.203 1.91-0.558 3.64-0.812 5.38-0.812 3.52 0 5.9 1.47 5.9 3.63 0 2.54-2.82 4.26-6.94 4.26-2.43 0-4.69-0.558-6.77-1.65-0.39-0.203-0.607-0.254-0.911-0.254-0.608 0-1.08 0.28-1.08 0.635 0 0.38 0.607 0.76 2.13 1.32 2.21 0.837 4.38 1.24 6.73 1.24 5.34 0 9.11-2.28 9.11-5.51 0-2.89-3.34-4.97-7.94-4.97-1.87 0-3.34 0.203-5.47 0.685zm25.5 7.3c-0.043-0.254-0.043-0.482-0.043-0.609 0-1.52 0.694-3.04 1.95-4.11 2.08-1.83 5.42-2.97 8.68-2.97 0.78 0 1.43 0.05 1.87 0.178 0.433 0.127 0.607 0.152 0.867 0.152 0.608 0 1.04-0.28 1.04-0.609 0-0.583-1.61-1.02-3.73-1.02-2.82 0-5.68 0.634-8.03 1.8-3.25 1.6-4.82 3.76-4.82 6.72 0 4.39 3.69 7.48 8.98 7.48 4.34 0 7.72-2.16 7.72-4.92 0-2.61-3.38-4.77-7.51-4.77-2.86 0-5.42 0.964-6.99 2.66zm0.304 1.85c0.998-1.02 1.48-1.45 2.08-1.85 1.39-0.888 3.04-1.37 4.6-1.37 2.86 0 5.25 1.57 5.25 3.48 0 2.06-2.34 3.63-5.42 3.63-3.25 0-5.34-1.22-6.51-3.88zm34.6-3.05c2.73-0.837 4.08-2 4.08-3.48 0-2.31-3.6-4.24-7.9-4.24-4.3 0-7.9 1.93-7.9 4.24 0 1.47 1.39 2.64 4.12 3.48-2.91 0.812-4.56 2.18-4.56 3.78 0 2.49 3.73 4.52 8.38 4.52 4.6 0 8.33-2.03 8.33-4.52 0-1.6-1.69-2.99-4.56-3.78zm-3.9-6.42c3.21 0 5.73 1.32 5.73 2.99 0 1.57-2.47 2.79-5.64 2.79s-5.64-1.22-5.64-2.79c0-1.65 2.52-2.99 5.55-2.99zm0 7.05c3.56 0 6.2 1.34 6.2 3.15s-2.69 3.22-6.08 3.22c-3.43 0-6.12-1.42-6.12-3.22 0-1.75 2.65-3.15 5.99-3.15zm18.3 5.97h-2.13c-0.911 0-1.39 0.228-1.39 0.634 0 0.432 0.477 0.66 1.39 0.66h13.3c4.08 0 7.38-1.78 7.38-3.96 0-1.62-1.78-2.87-5.16-3.6 2.26-0.786 3.34-1.72 3.34-2.97 0-2.13-3.3-3.76-7.64-3.76h-11.2c-0.911 0-1.39 0.203-1.39 0.634s0.477 0.66 1.39 0.66h2.13zm2.26-6.75v-4.95h6.9c2.99 0 5.34 1.07 5.34 2.44 0 1.47-2.52 2.51-6.08 2.51zm0 6.75v-5.46h6.25c2.6 0 3.99 0.152 5.34 0.609 1.56 0.533 2.47 1.34 2.47 2.21 0 1.47-2.3 2.64-5.25 2.64zm63.7-12c-1.74-0.888-3.73-1.29-6.16-1.29-4.69 0-8.2 1.72-8.2 3.98 0 1.12 0.868 2.13 2.34 2.72 1.34 0.558 2.95 0.863 5.99 1.17 3.08 0.28 3.95 0.431 4.99 0.812 1.13 0.406 1.82 1.17 1.82 1.98 0 1.75-2.91 3.04-6.86 3.04-3.82 0-6.86-1.19-7.07-2.77-0.043-0.507-0.39-0.736-1.08-0.736-0.738 0-1.13 0.28-1.13 0.812v2.77c0 0.533 0.39 0.812 1.13 0.812s1.13-0.28 1.13-0.812v-0.355c1.78 1.02 4.25 1.57 7.07 1.57 5.38 0 9.2-1.8 9.2-4.29 0-1.32-1.04-2.44-2.78-3.04-1.34-0.482-2.56-0.685-5.94-1.02-2.65-0.254-3.78-0.457-4.82-0.863-1.04-0.38-1.6-1.02-1.6-1.75 0-1.6 2.52-2.74 5.99-2.74 3.25 0 5.77 1.04 5.99 2.46 0.043 0.508 0.434 0.736 1.08 0.736 0.738 0 1.13-0.28 1.13-0.812v-2.56c0-0.507-0.39-0.786-1.13-0.786s-1.08 0.279-1.08 0.786zm15.3 2.7v-2.84c0-0.533-0.39-0.786-1.13-0.786s-1.13 0.279-1.13 0.786v2.84h-2.99c-0.955 0-1.43 0.203-1.43 0.634s0.477 0.66 1.43 0.66h2.99v6.55c0 1.93 2.73 3.2 6.99 3.2 2.04 0 4.47-0.28 6.55-0.736 1.6-0.355 2.3-0.685 2.3-1.07 0-0.355-0.477-0.634-1.08-0.634-0.217 0-0.39 0.025-0.781 0.178-1.69 0.558-4.69 0.964-7.07 0.964-2.86 0-4.64-0.762-4.64-1.95v-6.5h9.29c0.955 0 1.43-0.229 1.43-0.66s-0.477-0.634-1.43-0.634zm35.6 10.6h4.38c0.911 0 1.39-0.228 1.39-0.66 0-0.406-0.477-0.634-1.39-0.634h-2.13v-6.5c0-1.85-3.08-3.2-7.25-3.2-1.65 0-4.47 0.33-6.86 0.812-0.607 0.127-0.911 0.33-0.911 0.634 0 0.355 0.477 0.634 1.04 0.634 0.218 0 0.348-0.025 0.912-0.126 2.47-0.457 4.3-0.66 5.68-0.66 3.04 0 5.12 0.761 5.12 1.9v1.57c-2.6-0.38-3.69-0.457-5.64-0.457-5.64 0-9.42 1.52-9.42 3.78 0 1.95 2.82 3.3 6.99 3.3 2.99 0 5.38-0.558 8.07-1.9zm0-2.99c-2.82 1.52-5.08 2.11-8.07 2.11-2.91 0-4.73-0.787-4.73-2 0-1.47 3.04-2.49 7.38-2.49 1.91 0 3.99 0.127 5.42 0.33zm15.6-7.61h-3.52c-0.955 0-1.39 0.203-1.39 0.634s0.477 0.66 1.39 0.66h1.26v8.04h-1.74c-0.955 0-1.43 0.228-1.43 0.634 0 0.432 0.52 0.66 1.43 0.66h5.73c0.911 0 1.39-0.228 1.39-0.66 0-0.406-0.477-0.634-1.39-0.634h-1.74v-6.12c2.65-1.9 3.73-2.28 6.38-2.28 1.56 0 2.39 0.152 3.34 0.609 1.04 0.507 1.56 1.09 1.56 1.78v6.01h-1.22c-0.955 0-1.43 0.228-1.43 0.634 0 0.432 0.52 0.66 1.43 0.66h4.73c0.868 0 1.39-0.228 1.39-0.66 0-0.406-0.477-0.634-1.39-0.634h-1.26v-6.19c0-1.98-3.04-3.5-7.03-3.5-2.65 0-4.21 0.457-6.51 1.88zm40.6-4.7h-4.38c-0.911 0-1.39 0.228-1.39 0.634 0 0.432 0.477 0.66 1.39 0.66h2.13v5.33c-1.95-1.52-4.56-2.31-7.64-2.31-5.34 0-9.63 2.54-9.63 5.68s4.3 5.71 9.59 5.71c3.08 0 5.77-0.812 7.68-2.31v1.9h4.38c0.911 0 1.39-0.228 1.39-0.66 0-0.406-0.477-0.634-1.39-0.634h-2.13zm-9.85 5.61c4.3 0 7.59 1.9 7.59 4.42 0 2.44-3.34 4.39-7.51 4.39-4.21 0-7.51-1.95-7.51-4.42 0-2.44 3.3-4.39 7.42-4.39zm31.8 9.69h4.38c0.911 0 1.39-0.228 1.39-0.66 0-0.406-0.477-0.634-1.39-0.634h-2.13v-6.5c0-1.85-3.08-3.2-7.25-3.2-1.65 0-4.47 0.33-6.86 0.812-0.607 0.127-0.911 0.33-0.911 0.634 0 0.355 0.477 0.634 1.04 0.634 0.218 0 0.348-0.025 0.912-0.126 2.47-0.457 4.3-0.66 5.68-0.66 3.04 0 5.12 0.761 5.12 1.9v1.57c-2.6-0.38-3.69-0.457-5.64-0.457-5.64 0-9.42 1.52-9.42 3.78 0 1.95 2.82 3.3 6.99 3.3 2.99 0 5.38-0.558 8.07-1.9zm0-2.99c-2.82 1.52-5.08 2.11-8.07 2.11-2.91 0-4.73-0.787-4.73-2 0-1.47 3.04-2.49 7.38-2.49 1.91 0 3.99 0.127 5.42 0.33zm19.2-7.61h-5.25c-0.911 0-1.43 0.228-1.43 0.634s0.52 0.66 1.43 0.66h2.99v8.04h-3.95c-0.911 0-1.43 0.254-1.43 0.634 0 0.432 0.52 0.66 1.43 0.66h13.8c0.868 0 1.39-0.228 1.39-0.66 0-0.38-0.52-0.634-1.39-0.634h-7.55v-5.28c4.69-2.46 6.12-3.02 7.98-3.02 0.868 0 1.65 0.228 2.69 0.837 0.347 0.178 0.477 0.229 0.868 0.229 0.65 0 1.13-0.28 1.13-0.685 0-0.254-0.26-0.482-1.08-0.863-1.17-0.583-2.13-0.812-3.47-0.812-2.26 0-4.3 0.66-8.11 2.64zm37-4.7h-4.38c-0.911 0-1.39 0.228-1.39 0.634 0 0.432 0.477 0.66 1.39 0.66h2.13v5.33c-1.95-1.52-4.56-2.31-7.64-2.31-5.34 0-9.63 2.54-9.63 5.68s4.3 5.71 9.59 5.71c3.08 0 5.77-0.812 7.68-2.31v1.9h4.38c0.911 0 1.39-0.228 1.39-0.66 0-0.406-0.477-0.634-1.39-0.634h-2.13zm-9.85 5.61c4.3 0 7.59 1.9 7.59 4.42 0 2.44-3.34 4.39-7.51 4.39-4.21 0-7.51-1.95-7.51-4.42 0-2.44 3.3-4.39 7.42-4.39zm26.6 6.49c-1.82 0-3.21 0.761-3.21 1.75s1.39 1.78 3.21 1.78h0.477c1.82 0 3.21-0.786 3.21-1.78s-1.39-1.75-3.21-1.75zm0-7.46c-1.82 0-3.21 0.761-3.21 1.75s1.39 1.78 3.21 1.78h0.477c1.82 0 3.21-0.761 3.21-1.78 0-0.99-1.39-1.75-3.21-1.75zm-545 26.9-8.33 1.52c-0.824 0.152-1.08 0.305-1.08 0.66 0 0.33 0.52 0.634 1.04 0.634 0.087 0 0.52-0.05 0.694-0.076l5.42-0.99v12.5h-5.81c-0.954 0-1.43 0.229-1.43 0.635 0 0.431 0.521 0.66 1.43 0.66h13.9c0.912 0 1.39-0.229 1.39-0.66 0-0.406-0.478-0.635-1.39-0.635h-5.81zm24.7 12.4c-1.82 0-3.21 0.761-3.21 1.75s1.39 1.78 3.21 1.78h0.477c1.82 0 3.21-0.787 3.21-1.78s-1.39-1.75-3.21-1.75zm0-7.46c-1.82 0-3.21 0.761-3.21 1.75s1.39 1.78 3.21 1.78h0.477c1.82 0 3.21-0.761 3.21-1.78 0-0.99-1.39-1.75-3.21-1.75zm44.3 10.6h3.17l4.77-9.59 4.69 9.59h3.17l2.69-13h0.434c0.911 0 1.43-0.228 1.43-0.66s-0.477-0.634-1.43-0.634h-6.51c-0.91 0-1.39 0.203-1.39 0.634s0.477 0.66 1.39 0.66h3.9l-2.3 11-4.47-9.18h-3.04l-4.6 9.21-2.26-11h3.82c0.911 0 1.43-0.228 1.43-0.66s-0.477-0.634-1.43-0.634h-6.51c-0.91 0-1.39 0.203-1.39 0.634s0.477 0.66 1.39 0.66h0.477zm28.4-15.3h-4.38c-0.911 0-1.39 0.228-1.39 0.634 0 0.432 0.477 0.66 1.39 0.66h2.13v12.7h-1.74c-0.955 0-1.43 0.228-1.43 0.634 0 0.432 0.52 0.66 1.43 0.66h5.73c0.911 0 1.43-0.228 1.43-0.66 0-0.406-0.477-0.634-1.43-0.634h-1.74v-6.16c1.17-0.761 1.91-1.24 2.17-1.37 1.26-0.609 2.43-0.863 4.08-0.863 1.69 0 2.56 0.153 3.52 0.61 1.04 0.481 1.56 1.06 1.56 1.78v6.01h-1.74c-0.911 0-1.39 0.229-1.39 0.635 0 0.43 0.477 0.66 1.39 0.66h5.73c0.911 0 1.43-0.229 1.43-0.66 0-0.406-0.477-0.635-1.43-0.635h-1.74v-6.09c0-2.08-2.99-3.6-7.12-3.6-2.6 0-4.38 0.508-6.46 1.85zm32.8 4.7h-7.16c-0.955 0-1.39 0.203-1.39 0.634s0.477 0.66 1.39 0.66h4.9v8.04h-6.73c-0.911 0-1.39 0.228-1.39 0.634 0 0.432 0.477 0.66 1.39 0.66h15.7c0.911 0 1.43-0.228 1.43-0.66 0-0.406-0.477-0.634-1.43-0.634h-6.73zm-0.087-5.15h-3.04v2.87h3.04zm20.3 5.15v-2.84c0-0.533-0.39-0.786-1.13-0.786s-1.13 0.279-1.13 0.786v2.84h-2.99c-0.955 0-1.43 0.203-1.43 0.634s0.477 0.66 1.43 0.66h2.99v6.55c0 1.93 2.73 3.2 6.99 3.2 2.04 0 4.47-0.28 6.55-0.736 1.6-0.355 2.3-0.685 2.3-1.07 0-0.355-0.477-0.634-1.08-0.634-0.217 0-0.39 0.025-0.781 0.178-1.69 0.558-4.69 0.964-7.07 0.964-2.86 0-4.64-0.762-4.64-1.95v-6.5h9.29c0.955 0 1.43-0.229 1.43-0.66s-0.477-0.634-1.43-0.634zm40.5 5.7v-0.38c0-3.25-4.34-5.66-10.2-5.66-5.73 0-10.2 2.38-10.2 5.46 0 3.35 4.73 5.94 10.8 5.94 4.21 0 9.37-1.22 9.37-2.18 0-0.355-0.477-0.634-1.08-0.634-0.26 0-0.434 0.05-0.781 0.203-1.74 0.761-4.86 1.32-7.46 1.32-4.51 0-7.9-1.62-8.5-4.06zm-18-1.29c0.738-2.08 3.86-3.45 7.85-3.45 3.95 0 7.12 1.4 7.81 3.45zm42.4-9.61c0.217-0.254 0.26-0.304 0.26-0.431 0-0.33-0.52-0.61-1.13-0.61-0.52 0-0.824 0.128-1.13 0.508l-14.2 17.3c-0.173 0.203-0.217 0.305-0.217 0.432 0 0.33 0.521 0.609 1.13 0.609 0.521 0 0.825-0.127 1.13-0.508zm18.1 1.2c-6.34 0-11.2 3.27-11.2 7.51 0 4.19 4.9 7.48 11 7.48 6.2 0 11.1-3.3 11.1-7.51 0-4.14-4.86-7.48-10.9-7.48zm-0.26 1.29c4.95 0 8.9 2.74 8.9 6.22 0 3.4-3.95 6.19-8.81 6.19-4.82 0-8.76-2.79-8.76-6.22 0-3.37 3.95-6.19 8.68-6.19zm24.2 2.71h-5.25c-0.911 0-1.43 0.228-1.43 0.634s0.52 0.66 1.43 0.66h2.99v8.04h-3.95c-0.911 0-1.43 0.254-1.43 0.634 0 0.432 0.52 0.66 1.43 0.66h13.8c0.868 0 1.39-0.228 1.39-0.66 0-0.38-0.52-0.634-1.39-0.634h-7.55v-5.28c4.69-2.46 6.12-3.02 7.98-3.02 0.868 0 1.65 0.228 2.69 0.837 0.347 0.178 0.477 0.229 0.868 0.229 0.65 0 1.13-0.28 1.13-0.685 0-0.254-0.26-0.482-1.08-0.863-1.17-0.584-2.13-0.812-3.47-0.812-2.26 0-4.3 0.66-8.11 2.64zm32.9 10.6h4.38c0.911 0 1.39-0.228 1.39-0.66 0-0.406-0.477-0.634-1.39-0.634h-2.13v-6.5c0-1.85-3.08-3.2-7.25-3.2-1.65 0-4.47 0.33-6.86 0.812-0.607 0.127-0.911 0.33-0.911 0.634 0 0.355 0.477 0.634 1.04 0.634 0.218 0 0.348-0.025 0.912-0.126 2.47-0.457 4.3-0.66 5.68-0.66 3.04 0 5.12 0.761 5.12 1.9v1.57c-2.6-0.38-3.69-0.457-5.64-0.457-5.64 0-9.42 1.52-9.42 3.78 0 1.95 2.82 3.3 6.99 3.3 2.99 0 5.38-0.558 8.07-1.9zm0-2.99c-2.82 1.52-5.08 2.11-8.07 2.11-2.91 0-4.73-0.786-4.73-2 0-1.47 3.04-2.49 7.38-2.49 1.91 0 3.99 0.127 5.42 0.33zm15.6-7.61h-3.52c-0.955 0-1.39 0.203-1.39 0.634s0.477 0.66 1.39 0.66h1.26v8.04h-1.74c-0.955 0-1.43 0.228-1.43 0.634 0 0.432 0.52 0.66 1.43 0.66h5.73c0.911 0 1.39-0.228 1.39-0.66 0-0.406-0.477-0.634-1.39-0.634h-1.74v-6.12c2.65-1.9 3.73-2.28 6.38-2.28 1.56 0 2.39 0.152 3.34 0.609 1.04 0.507 1.56 1.09 1.56 1.78v6.01h-1.22c-0.955 0-1.43 0.228-1.43 0.634 0 0.432 0.52 0.66 1.43 0.66h4.73c0.868 0 1.39-0.228 1.39-0.66 0-0.406-0.477-0.634-1.39-0.634h-1.26v-6.19c0-1.98-3.04-3.5-7.03-3.5-2.65 0-4.21 0.457-6.51 1.88zm37.4 1.8c-1.91-1.47-4.17-2.13-7.16-2.13-5.08 0-9.2 2.41-9.2 5.35 0 2.97 4.12 5.38 9.2 5.38 2.95 0 5.25-0.685 7.16-2.11v2.76c0.174 1.5-2.34 2.94-5.08 2.92h-5.03c-0.911 0-1.39 0.203-1.39 0.66 0 0.406 0.477 0.634 1.39 0.634h4.99c3.73 0.127 7.51-1.95 7.38-4.06v-9.9h2.13c0.911 0 1.39-0.228 1.39-0.66s-0.434-0.634-1.39-0.634h-4.38zm-7.12-0.837c4.04 0 7.12 1.78 7.12 4.08 0 2.26-3.08 4.06-7.03 4.06s-7.07-1.8-7.07-4.08c0-2.23 3.12-4.06 6.99-4.06zm37.1 4.74v-0.38c0-3.25-4.34-5.66-10.2-5.66-5.73 0-10.2 2.38-10.2 5.46 0 3.35 4.73 5.94 10.8 5.94 4.21 0 9.37-1.22 9.37-2.18 0-0.355-0.477-0.634-1.08-0.634-0.26 0-0.434 0.05-0.781 0.203-1.74 0.761-4.86 1.32-7.46 1.32-4.51 0-7.9-1.62-8.5-4.06zm-18-1.29c0.738-2.08 3.86-3.45 7.85-3.45 3.95 0 7.12 1.4 7.81 3.45zm-363 36.6c2.34-1.17 5.03-2.61 8.64-4.64 5.47-3.04 6.34-3.78 6.34-5.28 0-2.36-3.86-4.42-8.24-4.42-2.69 0-5.21 0.71-6.86 1.93-0.868 0.634-1.43 1.4-1.43 1.88 0 0.304 0.477 0.584 1.08 0.584 0.564 0 0.911-0.178 1.08-0.584 0.738-1.47 3.3-2.51 6.12-2.51 3.21 0 5.99 1.45 5.99 3.1 0 1.09-0.781 1.72-4.82 4.01-3.6 2-6.9 3.78-9.94 5.33l-0.39 0.203v1.7h17.6v-2.06c0-0.533-0.391-0.812-1.13-0.812-0.737 0-1.13 0.28-1.13 0.812v0.761zm33-1.8c-1.82 0-3.21 0.761-3.21 1.75s1.39 1.78 3.21 1.78h0.477c1.82 0 3.21-0.786 3.21-1.78s-1.39-1.75-3.21-1.75zm0-7.46c-1.82 0-3.21 0.761-3.21 1.75s1.39 1.78 3.21 1.78h0.477c1.82 0 3.21-0.761 3.21-1.78 0-0.99-1.39-1.75-3.21-1.75zm52.4-4.04c-6.34 0-11.2 3.27-11.2 7.51 0 4.19 4.9 7.48 11 7.48 6.2 0 11.1-3.3 11.1-7.51 0-4.14-4.86-7.48-10.9-7.48zm-0.26 1.29c4.95 0 8.9 2.74 8.9 6.22 0 3.4-3.95 6.19-8.81 6.19-4.82 0-8.76-2.79-8.76-6.22 0-3.37 3.95-6.19 8.68-6.19zm24.3 2.71h-5.25c-0.911 0-1.43 0.228-1.43 0.634s0.52 0.66 1.43 0.66h2.99v8.04h-3.95c-0.911 0-1.43 0.254-1.43 0.634 0 0.432 0.52 0.66 1.43 0.66h13.8c0.868 0 1.39-0.228 1.39-0.66 0-0.38-0.52-0.634-1.39-0.634h-7.55v-5.28c4.69-2.46 6.12-3.02 7.98-3.02 0.868 0 1.65 0.228 2.69 0.837 0.347 0.178 0.477 0.229 0.868 0.229 0.65 0 1.13-0.28 1.13-0.685 0-0.254-0.26-0.483-1.08-0.863-1.17-0.584-2.13-0.812-3.47-0.812-2.26 0-4.3 0.66-8.11 2.64zm32.9 10.6h4.38c0.911 0 1.39-0.228 1.39-0.66 0-0.406-0.477-0.634-1.39-0.634h-2.13v-6.5c0-1.85-3.08-3.2-7.25-3.2-1.65 0-4.47 0.33-6.86 0.812-0.607 0.127-0.911 0.33-0.911 0.634 0 0.355 0.477 0.635 1.04 0.635 0.218 0 0.348-0.026 0.912-0.127 2.47-0.457 4.3-0.66 5.68-0.66 3.04 0 5.12 0.761 5.12 1.9v1.57c-2.6-0.38-3.69-0.457-5.64-0.457-5.64 0-9.42 1.52-9.42 3.78 0 1.95 2.82 3.3 6.99 3.3 2.99 0 5.38-0.558 8.07-1.9zm0-2.99c-2.82 1.52-5.08 2.11-8.07 2.11-2.91 0-4.73-0.786-4.73-2 0-1.47 3.04-2.49 7.38-2.49 1.91 0 3.99 0.127 5.42 0.33zm15.6-7.61h-3.52c-0.955 0-1.39 0.203-1.39 0.634 0 0.432 0.477 0.66 1.39 0.66h1.26v8.04h-1.74c-0.955 0-1.43 0.228-1.43 0.634 0 0.432 0.52 0.66 1.43 0.66h5.73c0.911 0 1.39-0.228 1.39-0.66 0-0.406-0.477-0.634-1.39-0.634h-1.74v-6.12c2.65-1.9 3.73-2.28 6.38-2.28 1.56 0 2.39 0.152 3.34 0.609 1.04 0.507 1.56 1.09 1.56 1.78v6.01h-1.22c-0.955 0-1.43 0.228-1.43 0.634 0 0.432 0.52 0.66 1.43 0.66h4.73c0.868 0 1.39-0.228 1.39-0.66 0-0.406-0.477-0.634-1.39-0.634h-1.26v-6.19c0-1.98-3.04-3.5-7.03-3.5-2.65 0-4.21 0.457-6.51 1.88zm37.4 1.8c-1.91-1.47-4.17-2.13-7.16-2.13-5.08 0-9.2 2.41-9.2 5.35 0 2.97 4.12 5.38 9.2 5.38 2.95 0 5.25-0.685 7.16-2.11v2.76c0.174 1.5-2.34 2.94-5.08 2.92h-5.03c-0.911 0-1.39 0.203-1.39 0.66 0 0.406 0.477 0.634 1.39 0.634h4.99c3.73 0.127 7.51-1.95 7.38-4.06v-9.9h2.13c0.911 0 1.39-0.228 1.39-0.66 0-0.431-0.434-0.634-1.39-0.634h-4.38zm-7.12-0.837c4.04 0 7.12 1.78 7.12 4.08 0 2.26-3.08 4.06-7.03 4.06s-7.07-1.8-7.07-4.08c0-2.23 3.12-4.06 6.99-4.06zm37.1 4.74v-0.38c0-3.25-4.34-5.66-10.2-5.66-5.73 0-10.2 2.38-10.2 5.46 0 3.35 4.73 5.94 10.8 5.94 4.21 0 9.37-1.22 9.37-2.18 0-0.355-0.477-0.634-1.08-0.634-0.26 0-0.434 0.05-0.781 0.203-1.74 0.761-4.86 1.32-7.46 1.32-4.51 0-7.9-1.62-8.5-4.06zm-18-1.29c0.738-2.08 3.86-3.45 7.85-3.45 3.95 0 7.12 1.4 7.81 3.45zm-201 28.9c-0.911 0-1.39 0.254-1.39 0.66s0.477 0.634 1.39 0.634c4.17 0.05 7.51 1.57 7.51 3.48 0 1.83-3.17 3.37-6.99 3.37-2.43 0-4.64-0.457-6.73-1.34-0.39-0.152-0.607-0.203-0.911-0.203-0.564 0-1.04 0.28-1.04 0.609 0 0.406 0.564 0.736 2.13 1.19 2.26 0.71 4.3 1.04 6.51 1.04 5.12 0 9.29-2.11 9.29-4.67 0-1.65-2-3.22-5.03-4.01 2.65-0.736 4.12-1.93 4.12-3.35 0-2.26-3.43-3.98-7.9-3.98-2.3 0-4.51 0.406-6.25 1.17-0.998 0.457-1.61 0.888-1.61 1.19 0 0.33 0.477 0.609 1.08 0.609 0.347 0 0.607-0.076 0.824-0.228 1.56-1.02 3.34-1.45 5.94-1.45 3.21 0 5.64 1.17 5.64 2.69 0 0.811-0.78 1.6-2.04 2.08-1.04 0.38-1.91 0.507-3.6 0.507zm26.7 5.9c-1.82 0-3.21 0.761-3.21 1.75s1.39 1.78 3.21 1.78h0.477c1.82 0 3.21-0.787 3.21-1.78s-1.39-1.75-3.21-1.75zm0-7.46c-1.82 0-3.21 0.761-3.21 1.75s1.39 1.78 3.21 1.78h0.477c1.82 0 3.21-0.761 3.21-1.78 0-0.99-1.39-1.75-3.21-1.75zm44.3 10.6h3.17l4.77-9.59 4.69 9.59h3.17l2.69-13h0.434c0.911 0 1.43-0.228 1.43-0.66 0-0.431-0.477-0.634-1.43-0.634h-6.51c-0.91 0-1.39 0.203-1.39 0.634s0.477 0.66 1.39 0.66h3.9l-2.3 11-4.47-9.18h-3.04l-4.6 9.21-2.26-11h3.82c0.911 0 1.43-0.228 1.43-0.66 0-0.431-0.477-0.634-1.43-0.634h-6.51c-0.91 0-1.39 0.203-1.39 0.634s0.477 0.66 1.39 0.66h0.477zm28.4-15.3h-4.38c-0.911 0-1.39 0.228-1.39 0.634 0 0.432 0.477 0.66 1.39 0.66h2.13v12.7h-1.74c-0.955 0-1.43 0.228-1.43 0.634 0 0.432 0.52 0.66 1.43 0.66h5.73c0.911 0 1.43-0.228 1.43-0.66 0-0.406-0.477-0.634-1.43-0.634h-1.74v-6.16c1.17-0.761 1.91-1.24 2.17-1.37 1.26-0.609 2.43-0.863 4.08-0.863 1.69 0 2.56 0.153 3.52 0.61 1.04 0.481 1.56 1.06 1.56 1.78v6.01h-1.74c-0.911 0-1.39 0.229-1.39 0.635 0 0.43 0.477 0.66 1.39 0.66h5.73c0.911 0 1.43-0.23 1.43-0.66 0-0.406-0.477-0.635-1.43-0.635h-1.74v-6.09c0-2.08-2.99-3.6-7.12-3.6-2.6 0-4.38 0.508-6.46 1.85zm32.8 4.7h-7.16c-0.955 0-1.39 0.203-1.39 0.634 0 0.432 0.477 0.66 1.39 0.66h4.9v8.04h-6.73c-0.911 0-1.39 0.228-1.39 0.634 0 0.432 0.477 0.66 1.39 0.66h15.7c0.911 0 1.43-0.228 1.43-0.66 0-0.406-0.477-0.634-1.43-0.634h-6.73zm-0.087-5.15h-3.04v2.87h3.04zm20.3 5.15v-2.84c0-0.533-0.39-0.786-1.13-0.786s-1.13 0.279-1.13 0.786v2.84h-2.99c-0.955 0-1.43 0.203-1.43 0.634 0 0.432 0.477 0.66 1.43 0.66h2.99v6.55c0 1.93 2.73 3.2 6.99 3.2 2.04 0 4.47-0.28 6.55-0.736 1.6-0.355 2.3-0.685 2.3-1.07 0-0.355-0.477-0.634-1.08-0.634-0.217 0-0.39 0.025-0.781 0.178-1.69 0.558-4.69 0.964-7.07 0.964-2.86 0-4.64-0.762-4.64-1.95v-6.5h9.29c0.955 0 1.43-0.229 1.43-0.66s-0.477-0.634-1.43-0.634zm40.5 5.7v-0.38c0-3.25-4.34-5.66-10.2-5.66-5.73 0-10.2 2.38-10.2 5.46 0 3.35 4.73 5.94 10.8 5.94 4.21 0 9.37-1.22 9.37-2.18 0-0.355-0.477-0.634-1.08-0.634-0.26 0-0.434 0.05-0.781 0.203-1.74 0.761-4.86 1.32-7.46 1.32-4.51 0-7.9-1.62-8.5-4.06zm-18-1.29c0.738-2.08 3.86-3.45 7.85-3.45 3.95 0 7.12 1.4 7.81 3.45zm42.4-9.61c0.217-0.254 0.26-0.304 0.26-0.431 0-0.33-0.52-0.61-1.13-0.61-0.52 0-0.824 0.128-1.13 0.508l-14.2 17.3c-0.173 0.203-0.217 0.305-0.217 0.432 0 0.33 0.521 0.609 1.13 0.609 0.521 0 0.825-0.127 1.13-0.508zm27.7 10.6h0.39c0.912 0 1.43-0.228 1.43-0.66 0-0.406-0.477-0.634-1.43-0.634h-8.42c-0.954 0-1.43 0.203-1.43 0.634 0 0.432 0.478 0.66 1.43 0.66h5.77v3.5c-2.39 0.634-3.73 0.812-5.94 0.812-6.16 0-9.85-2-9.85-5.33v-1.83c0-1.4 1.17-2.94 3.04-3.96 1.6-0.888 3.47-1.29 5.86-1.29 3.73 0 6.73 0.939 6.94 2.16 0.044 0.507 0.391 0.736 1.08 0.736 0.738 0 1.13-0.28 1.13-0.787v-2.28c0-0.533-0.347-0.786-1.13-0.786-0.737 0-1.13 0.253-1.13 0.786v0.077c-1.91-0.787-4.25-1.19-6.99-1.19-6.2 0-11.1 2.87-11.1 6.55v1.83c0 4.01 4.73 6.62 11.9 6.62 2.86 0 5.55-0.432 8.38-1.34zm14.3-5.4h-5.25c-0.911 0-1.43 0.228-1.43 0.634s0.52 0.66 1.43 0.66h2.99v8.04h-3.95c-0.911 0-1.43 0.254-1.43 0.634 0 0.432 0.52 0.66 1.43 0.66h13.8c0.868 0 1.39-0.228 1.39-0.66 0-0.38-0.52-0.634-1.39-0.634h-7.55v-5.28c4.69-2.46 6.12-3.02 7.98-3.02 0.868 0 1.65 0.228 2.69 0.837 0.347 0.178 0.477 0.229 0.868 0.229 0.65 0 1.13-0.28 1.13-0.685 0-0.254-0.26-0.483-1.08-0.863-1.17-0.584-2.13-0.812-3.47-0.812-2.26 0-4.3 0.66-8.11 2.64zm37.8 5.7v-0.38c0-3.25-4.34-5.66-10.2-5.66-5.73 0-10.2 2.38-10.2 5.46 0 3.35 4.73 5.94 10.8 5.94 4.21 0 9.37-1.22 9.37-2.18 0-0.355-0.477-0.634-1.08-0.634-0.26 0-0.434 0.05-0.781 0.203-1.74 0.761-4.86 1.32-7.46 1.32-4.51 0-7.9-1.62-8.5-4.06zm-18-1.29c0.738-2.08 3.86-3.45 7.85-3.45 3.95 0 7.12 1.4 7.81 3.45zm44 1.29v-0.38c0-3.25-4.34-5.66-10.2-5.66-5.73 0-10.2 2.38-10.2 5.46 0 3.35 4.73 5.94 10.8 5.94 4.21 0 9.37-1.22 9.37-2.18 0-0.355-0.477-0.634-1.08-0.634-0.26 0-0.434 0.05-0.781 0.203-1.74 0.761-4.86 1.32-7.46 1.32-4.51 0-7.9-1.62-8.5-4.06zm-18-1.29c0.738-2.08 3.86-3.45 7.85-3.45 3.95 0 7.12 1.4 7.81 3.45zm28.7-4.41h-3.52c-0.955 0-1.39 0.203-1.39 0.634 0 0.432 0.477 0.66 1.39 0.66h1.26v8.04h-1.74c-0.955 0-1.43 0.228-1.43 0.634 0 0.432 0.52 0.66 1.43 0.66h5.73c0.911 0 1.39-0.228 1.39-0.66 0-0.406-0.477-0.634-1.39-0.634h-1.74v-6.12c2.65-1.9 3.73-2.28 6.38-2.28 1.56 0 2.39 0.152 3.34 0.609 1.04 0.507 1.56 1.09 1.56 1.78v6.01h-1.22c-0.955 0-1.43 0.228-1.43 0.634 0 0.432 0.52 0.66 1.43 0.66h4.73c0.868 0 1.39-0.228 1.39-0.66 0-0.406-0.477-0.634-1.39-0.634h-1.26v-6.19c0-1.98-3.04-3.5-7.03-3.5-2.65 0-4.21 0.457-6.51 1.88zm-330 38.1v2.92h-3.08c-0.911 0-1.39 0.228-1.39 0.634 0 0.432 0.52 0.66 1.39 0.66h6.6c0.868 0 1.39-0.228 1.39-0.66 0-0.406-0.477-0.634-1.39-0.634h-1.26v-2.92h1.26c0.911 0 1.39-0.228 1.39-0.66 0-0.406-0.477-0.634-1.39-0.634h-1.26v-9.79h-4.04l-9.98 9.74v1.34zm0-1.29h-9.42l8.76-8.5h0.65zm22.8 2.39c-1.82 0-3.21 0.761-3.21 1.75s1.39 1.78 3.21 1.78h0.477c1.82 0 3.21-0.787 3.21-1.78s-1.39-1.75-3.21-1.75zm0-7.46c-1.82 0-3.21 0.761-3.21 1.75s1.39 1.78 3.21 1.78h0.477c1.82 0 3.21-0.761 3.21-1.78 0-0.99-1.39-1.75-3.21-1.75zm44.4 9.36h-2.13c-0.911 0-1.39 0.228-1.39 0.634 0 0.432 0.477 0.66 1.39 0.66h13.3c4.08 0 7.38-1.78 7.38-3.96 0-1.62-1.78-2.87-5.16-3.6 2.26-0.786 3.34-1.72 3.34-2.97 0-2.13-3.3-3.76-7.64-3.76h-11.2c-0.911 0-1.39 0.203-1.39 0.634 0 0.432 0.477 0.66 1.39 0.66h2.13zm2.26-6.75v-4.95h6.9c2.99 0 5.34 1.07 5.34 2.44 0 1.47-2.52 2.51-6.08 2.51zm0 6.75v-5.46h6.25c2.6 0 3.99 0.152 5.34 0.609 1.56 0.533 2.47 1.34 2.47 2.21 0 1.47-2.3 2.64-5.25 2.64zm32.7-14h-7.07c-0.955 0-1.43 0.228-1.43 0.634 0 0.432 0.477 0.66 1.43 0.66h4.82v12.7h-6.73c-0.911 0-1.39 0.228-1.39 0.634 0 0.432 0.477 0.66 1.39 0.66h15.7c0.911 0 1.43-0.228 1.43-0.66 0-0.406-0.477-0.634-1.43-0.634h-6.73zm30.8 15.3h3.52c0.911 0 1.39-0.228 1.39-0.66 0-0.406-0.477-0.634-1.39-0.634h-1.26v-9.34h-5.25c-0.998 0-1.43 0.203-1.43 0.634s0.477 0.66 1.43 0.66h2.99v6.29c-2.34 1.45-4.86 2.16-7.68 2.16-2.08 0-3.73-0.913-3.73-2.11v-7.64h-4.38c-0.955 0-1.39 0.203-1.39 0.634s0.477 0.66 1.39 0.66h2.13v6.34c0 2.06 2.43 3.4 6.03 3.4 2.78 0 5.25-0.609 7.64-1.88zm30-5v-0.38c0-3.25-4.34-5.66-10.2-5.66-5.73 0-10.2 2.38-10.2 5.46 0 3.35 4.73 5.94 10.8 5.94 4.21 0 9.37-1.22 9.37-2.18 0-0.355-0.477-0.634-1.08-0.634-0.26 0-0.434 0.05-0.781 0.203-1.74 0.761-4.86 1.32-7.46 1.32-4.51 0-7.9-1.62-8.5-4.06zm-18-1.29c0.738-2.08 3.86-3.45 7.85-3.45 3.95 0 7.12 1.4 7.81 3.45zm-152 24h10.2c0.955 0 1.43-0.228 1.43-0.66 0-0.406-0.477-0.634-1.43-0.634h-12.5v6.82c0 0.406 0.434 0.685 1.08 0.685 0.26 0 0.477-0.05 1.04-0.203 1.91-0.558 3.64-0.812 5.38-0.812 3.52 0 5.9 1.47 5.9 3.63 0 2.54-2.82 4.26-6.94 4.26-2.43 0-4.69-0.558-6.77-1.65-0.39-0.203-0.607-0.253-0.911-0.253-0.608 0-1.08 0.279-1.08 0.634 0 0.38 0.607 0.761 2.13 1.32 2.21 0.837 4.38 1.24 6.73 1.24 5.34 0 9.11-2.28 9.11-5.51 0-2.89-3.34-4.97-7.94-4.97-1.87 0-3.34 0.203-5.47 0.685zm30.3 10.8c-1.82 0-3.21 0.761-3.21 1.75s1.39 1.78 3.21 1.78h0.477c1.82 0 3.21-0.786 3.21-1.78s-1.39-1.75-3.21-1.75zm0-7.46c-1.82 0-3.21 0.761-3.21 1.75s1.39 1.78 3.21 1.78h0.477c1.82 0 3.21-0.761 3.21-1.78 0-0.99-1.39-1.75-3.21-1.75zm44.3 10.7h3.17l4.77-9.59 4.69 9.59h3.17l2.69-13h0.434c0.911 0 1.43-0.228 1.43-0.66s-0.477-0.634-1.43-0.634h-6.51c-0.91 0-1.39 0.203-1.39 0.634 0 0.432 0.477 0.66 1.39 0.66h3.9l-2.3 11-4.47-9.18h-3.04l-4.6 9.21-2.26-11h3.82c0.911 0 1.43-0.228 1.43-0.66s-0.477-0.634-1.43-0.634h-6.51c-0.91 0-1.39 0.203-1.39 0.634 0 0.432 0.477 0.66 1.39 0.66h0.477zm28.4-15.3h-4.38c-0.911 0-1.39 0.228-1.39 0.634 0 0.432 0.477 0.66 1.39 0.66h2.13v12.7h-1.74c-0.955 0-1.43 0.228-1.43 0.634 0 0.432 0.52 0.66 1.43 0.66h5.73c0.911 0 1.43-0.228 1.43-0.66 0-0.406-0.477-0.634-1.43-0.634h-1.74v-6.16c1.17-0.761 1.91-1.24 2.17-1.37 1.26-0.609 2.43-0.863 4.08-0.863 1.69 0 2.56 0.153 3.52 0.61 1.04 0.481 1.56 1.06 1.56 1.78v6.01h-1.74c-0.911 0-1.39 0.229-1.39 0.635 0 0.43 0.477 0.66 1.39 0.66h5.73c0.911 0 1.43-0.23 1.43-0.66 0-0.406-0.477-0.635-1.43-0.635h-1.74v-6.09c0-2.08-2.99-3.6-7.12-3.6-2.6 0-4.38 0.508-6.46 1.85zm32.8 4.6h-7.16c-0.955 0-1.39 0.203-1.39 0.634 0 0.432 0.477 0.66 1.39 0.66h4.9v8.04h-6.73c-0.911 0-1.39 0.228-1.39 0.634 0 0.432 0.477 0.66 1.39 0.66h15.7c0.911 0 1.43-0.228 1.43-0.66 0-0.406-0.477-0.634-1.43-0.634h-6.73zm-0.087-5.15h-3.04v2.87h3.04zm20.3 5.15v-2.84c0-0.533-0.39-0.786-1.13-0.786s-1.13 0.279-1.13 0.786v2.84h-2.99c-0.955 0-1.43 0.203-1.43 0.634 0 0.432 0.477 0.66 1.43 0.66h2.99v6.55c0 1.93 2.73 3.2 6.99 3.2 2.04 0 4.47-0.28 6.55-0.736 1.6-0.355 2.3-0.685 2.3-1.07 0-0.355-0.477-0.634-1.08-0.634-0.217 0-0.39 0.025-0.781 0.178-1.69 0.558-4.69 0.964-7.07 0.964-2.86 0-4.64-0.761-4.64-1.95v-6.5h9.29c0.955 0 1.43-0.229 1.43-0.66s-0.477-0.634-1.43-0.634zm40.5 5.7v-0.38c0-3.25-4.34-5.66-10.2-5.66-5.73 0-10.2 2.38-10.2 5.46 0 3.35 4.73 5.94 10.8 5.94 4.21 0 9.37-1.22 9.37-2.18 0-0.355-0.477-0.634-1.08-0.634-0.26 0-0.434 0.05-0.781 0.203-1.74 0.761-4.86 1.32-7.46 1.32-4.51 0-7.9-1.62-8.5-4.06zm-18-1.29c0.738-2.08 3.86-3.45 7.85-3.45 3.95 0 7.12 1.4 7.81 3.45zm42.4-9.61c0.217-0.254 0.26-0.304 0.26-0.431 0-0.33-0.52-0.61-1.13-0.61-0.52 0-0.824 0.128-1.13 0.508l-14.2 17.3c-0.173 0.203-0.217 0.305-0.217 0.431 0 0.33 0.521 0.61 1.13 0.61 0.521 0 0.825-0.127 1.13-0.508zm10 14.6h-2.13c-0.911 0-1.39 0.228-1.39 0.634 0 0.432 0.477 0.66 1.39 0.66h13.3c4.08 0 7.38-1.78 7.38-3.96 0-1.62-1.78-2.87-5.16-3.6 2.26-0.787 3.34-1.72 3.34-2.97 0-2.13-3.3-3.75-7.64-3.75h-11.2c-0.911 0-1.39 0.203-1.39 0.634 0 0.432 0.477 0.66 1.39 0.66h2.13zm2.26-6.75v-4.95h6.9c2.99 0 5.34 1.07 5.34 2.44 0 1.47-2.52 2.51-6.08 2.51zm0 6.75v-5.46h6.25c2.6 0 3.99 0.152 5.34 0.609 1.56 0.533 2.47 1.34 2.47 2.21 0 1.47-2.3 2.64-5.25 2.64zm32.7-14h-7.07c-0.955 0-1.43 0.228-1.43 0.634 0 0.432 0.477 0.66 1.43 0.66h4.82v12.7h-6.73c-0.911 0-1.39 0.228-1.39 0.634 0 0.432 0.477 0.66 1.39 0.66h15.7c0.911 0 1.43-0.228 1.43-0.66 0-0.406-0.477-0.634-1.43-0.634h-6.73zm30.8 15.3h3.52c0.911 0 1.39-0.228 1.39-0.66 0-0.406-0.477-0.634-1.39-0.634h-1.26v-9.34h-5.25c-0.998 0-1.43 0.203-1.43 0.634 0 0.432 0.477 0.66 1.43 0.66h2.99v6.29c-2.34 1.45-4.86 2.16-7.68 2.16-2.08 0-3.73-0.913-3.73-2.11v-7.64h-4.38c-0.955 0-1.39 0.203-1.39 0.634 0 0.432 0.477 0.66 1.39 0.66h2.13v6.34c0 2.06 2.43 3.4 6.03 3.4 2.78 0 5.25-0.609 7.64-1.88zm30-5v-0.38c0-3.25-4.34-5.66-10.2-5.66-5.73 0-10.2 2.38-10.2 5.46 0 3.35 4.73 5.94 10.8 5.94 4.21 0 9.37-1.22 9.37-2.18 0-0.355-0.477-0.634-1.08-0.634-0.26 0-0.434 0.05-0.781 0.203-1.74 0.761-4.86 1.32-7.46 1.32-4.51 0-7.9-1.62-8.5-4.06zm-18-1.29c0.738-2.08 3.86-3.45 7.85-3.45 3.95 0 7.12 1.4 7.81 3.45zm-309 31.3c-0.043-0.254-0.043-0.482-0.043-0.609 0-1.52 0.694-3.04 1.95-4.11 2.08-1.83 5.42-2.97 8.68-2.97 0.78 0 1.43 0.05 1.87 0.178 0.434 0.127 0.607 0.152 0.867 0.152 0.608 0 1.04-0.28 1.04-0.61 0-0.583-1.6-1.01-3.73-1.01-2.82 0-5.68 0.634-8.03 1.8-3.25 1.6-4.82 3.76-4.82 6.72 0 4.39 3.69 7.48 8.98 7.48 4.34 0 7.72-2.16 7.72-4.92 0-2.61-3.38-4.77-7.51-4.77-2.86 0-5.42 0.964-6.99 2.66zm0.304 1.85c0.998-1.02 1.48-1.45 2.08-1.85 1.39-0.888 3.04-1.37 4.6-1.37 2.86 0 5.25 1.57 5.25 3.48 0 2.06-2.34 3.63-5.42 3.63-3.25 0-5.34-1.22-6.51-3.88zm30.7 1.65c-1.82 0-3.21 0.761-3.21 1.75s1.39 1.78 3.21 1.78h0.477c1.82 0 3.21-0.787 3.21-1.78 0-0.99-1.39-1.75-3.21-1.75zm0-7.46c-1.82 0-3.21 0.761-3.21 1.75s1.39 1.78 3.21 1.78h0.477c1.82 0 3.21-0.761 3.21-1.78 0-0.99-1.39-1.75-3.21-1.75zm62.1 5.46h0.39c0.912 0 1.43-0.228 1.43-0.66 0-0.406-0.477-0.634-1.43-0.634h-8.42c-0.954 0-1.43 0.203-1.43 0.634 0 0.432 0.478 0.66 1.43 0.66h5.77v3.5c-2.39 0.634-3.73 0.812-5.94 0.812-6.16 0-9.85-2-9.85-5.33v-1.83c0-1.4 1.17-2.94 3.04-3.96 1.6-0.888 3.47-1.29 5.86-1.29 3.73 0 6.73 0.939 6.94 2.16 0.044 0.507 0.391 0.736 1.08 0.736 0.738 0 1.13-0.28 1.13-0.787v-2.28c0-0.532-0.347-0.786-1.13-0.786-0.737 0-1.13 0.254-1.13 0.786v0.077c-1.91-0.787-4.25-1.19-6.99-1.19-6.2 0-11.1 2.87-11.1 6.55v1.83c0 4.01 4.73 6.62 11.9 6.62 2.86 0 5.55-0.432 8.38-1.34zm14.3-5.4h-5.25c-0.911 0-1.43 0.228-1.43 0.634s0.52 0.66 1.43 0.66h2.99v8.04h-3.95c-0.911 0-1.43 0.254-1.43 0.634 0 0.432 0.52 0.66 1.43 0.66h13.8c0.868 0 1.39-0.228 1.39-0.66 0-0.38-0.52-0.634-1.39-0.634h-7.55v-5.28c4.69-2.46 6.12-3.02 7.98-3.02 0.868 0 1.65 0.228 2.69 0.837 0.347 0.178 0.477 0.229 0.868 0.229 0.65 0 1.13-0.28 1.13-0.685 0-0.254-0.26-0.482-1.08-0.863-1.17-0.584-2.13-0.812-3.47-0.812-2.26 0-4.3 0.66-8.11 2.64zm37.8 5.6v-0.38c0-3.25-4.34-5.66-10.2-5.66-5.73 0-10.2 2.38-10.2 5.46 0 3.35 4.73 5.94 10.8 5.94 4.21 0 9.37-1.22 9.37-2.18 0-0.355-0.477-0.634-1.08-0.634-0.26 0-0.434 0.05-0.781 0.203-1.74 0.761-4.86 1.32-7.46 1.32-4.51 0-7.9-1.62-8.5-4.06zm-18-1.29c0.738-2.08 3.86-3.45 7.85-3.45 3.95 0 7.12 1.4 7.81 3.45zm44 1.29v-0.38c0-3.25-4.34-5.66-10.2-5.66-5.73 0-10.2 2.38-10.2 5.46 0 3.35 4.73 5.94 10.8 5.94 4.21 0 9.37-1.22 9.37-2.18 0-0.355-0.477-0.634-1.08-0.634-0.26 0-0.434 0.05-0.781 0.203-1.74 0.761-4.86 1.32-7.46 1.32-4.51 0-7.9-1.62-8.5-4.06zm-18-1.29c0.738-2.08 3.86-3.45 7.85-3.45 3.95 0 7.12 1.4 7.81 3.45zm28.7-4.31h-3.52c-0.955 0-1.39 0.203-1.39 0.634 0 0.432 0.477 0.66 1.39 0.66h1.26v8.04h-1.74c-0.955 0-1.43 0.228-1.43 0.634 0 0.432 0.52 0.66 1.43 0.66h5.73c0.911 0 1.39-0.228 1.39-0.66 0-0.406-0.477-0.634-1.39-0.634h-1.74v-6.12c2.65-1.9 3.73-2.28 6.38-2.28 1.56 0 2.39 0.152 3.34 0.609 1.04 0.507 1.56 1.09 1.56 1.78v6.01h-1.22c-0.955 0-1.43 0.228-1.43 0.634 0 0.432 0.52 0.66 1.43 0.66h4.73c0.868 0 1.39-0.228 1.39-0.66 0-0.406-0.477-0.634-1.39-0.634h-1.26v-6.19c0-1.98-3.04-3.5-7.03-3.5-2.65 0-4.21 0.457-6.51 1.88zm-171 28.6-6.94 12.7c-0.087 0.152-0.13 0.254-0.13 0.355 0 0.356 0.477 0.635 1.08 0.635s0.868-0.153 1.13-0.61l7.07-12.9v-1.78h-16.7v2.03c0 0.558 0.39 0.837 1.13 0.837 0.737 0 1.13-0.28 1.13-0.837v-0.736h12.2zm20.1 10.6c-1.82 0-3.21 0.761-3.21 1.75s1.39 1.78 3.21 1.78h0.477c1.82 0 3.21-0.786 3.21-1.78s-1.39-1.75-3.21-1.75zm0-7.46c-1.82 0-3.21 0.761-3.21 1.75s1.39 1.78 3.21 1.78h0.477c1.82 0 3.21-0.761 3.21-1.78 0-0.99-1.39-1.75-3.21-1.75zm44.3 10.6h3.17l4.77-9.59 4.69 9.59h3.17l2.69-13h0.434c0.911 0 1.43-0.228 1.43-0.66 0-0.431-0.477-0.634-1.43-0.634h-6.51c-0.91 0-1.39 0.203-1.39 0.634 0 0.432 0.477 0.66 1.39 0.66h3.9l-2.3 11-4.47-9.18h-3.04l-4.6 9.21-2.26-11h3.82c0.911 0 1.43-0.228 1.43-0.66 0-0.431-0.477-0.634-1.43-0.634h-6.51c-0.91 0-1.39 0.203-1.39 0.634 0 0.432 0.477 0.66 1.39 0.66h0.477zm28.4-15.3h-4.38c-0.911 0-1.39 0.228-1.39 0.634 0 0.432 0.477 0.66 1.39 0.66h2.13v12.7h-1.74c-0.955 0-1.43 0.228-1.43 0.634 0 0.432 0.52 0.66 1.43 0.66h5.73c0.911 0 1.43-0.228 1.43-0.66 0-0.406-0.477-0.634-1.43-0.634h-1.74v-6.16c1.17-0.761 1.91-1.24 2.17-1.37 1.26-0.609 2.43-0.863 4.08-0.863 1.69 0 2.56 0.153 3.52 0.61 1.04 0.481 1.56 1.06 1.56 1.78v6.01h-1.74c-0.911 0-1.39 0.229-1.39 0.635 0 0.431 0.477 0.66 1.39 0.66h5.73c0.911 0 1.43-0.229 1.43-0.66 0-0.406-0.477-0.635-1.43-0.635h-1.74v-6.09c0-2.08-2.99-3.6-7.12-3.6-2.6 0-4.38 0.508-6.46 1.85zm32.8 4.7h-7.16c-0.955 0-1.39 0.203-1.39 0.634 0 0.432 0.477 0.66 1.39 0.66h4.9v8.04h-6.73c-0.911 0-1.39 0.228-1.39 0.634 0 0.432 0.477 0.66 1.39 0.66h15.7c0.911 0 1.43-0.228 1.43-0.66 0-0.406-0.477-0.634-1.43-0.634h-6.73zm-0.087-5.15h-3.04v2.87h3.04zm20.3 5.15v-2.84c0-0.533-0.39-0.786-1.13-0.786s-1.13 0.279-1.13 0.786v2.84h-2.99c-0.955 0-1.43 0.203-1.43 0.634 0 0.432 0.477 0.66 1.43 0.66h2.99v6.55c0 1.93 2.73 3.2 6.99 3.2 2.04 0 4.47-0.28 6.55-0.736 1.6-0.355 2.3-0.685 2.3-1.07 0-0.355-0.477-0.634-1.08-0.634-0.217 0-0.39 0.025-0.781 0.178-1.69 0.558-4.69 0.964-7.07 0.964-2.86 0-4.64-0.761-4.64-1.95v-6.5h9.29c0.955 0 1.43-0.229 1.43-0.66s-0.477-0.634-1.43-0.634zm40.5 5.7v-0.38c0-3.25-4.34-5.66-10.2-5.66-5.73 0-10.2 2.38-10.2 5.46 0 3.35 4.73 5.94 10.8 5.94 4.21 0 9.37-1.22 9.37-2.18 0-0.355-0.477-0.634-1.08-0.634-0.26 0-0.434 0.05-0.781 0.203-1.74 0.761-4.86 1.32-7.46 1.32-4.51 0-7.9-1.62-8.5-4.06zm-18-1.29c0.738-2.08 3.86-3.45 7.85-3.45 3.95 0 7.12 1.4 7.81 3.45zm42.4-9.61c0.217-0.254 0.26-0.304 0.26-0.431 0-0.33-0.52-0.61-1.13-0.61-0.52 0-0.824 0.128-1.13 0.508l-14.2 17.3c-0.173 0.203-0.217 0.305-0.217 0.431 0 0.33 0.521 0.61 1.13 0.61 0.521 0 0.825-0.127 1.13-0.508zm10 14.5h-2.13c-0.911 0-1.39 0.228-1.39 0.634 0 0.432 0.477 0.66 1.39 0.66h13.3c4.08 0 7.38-1.78 7.38-3.96 0-1.62-1.78-2.87-5.16-3.6 2.26-0.786 3.34-1.72 3.34-2.97 0-2.13-3.3-3.76-7.64-3.76h-11.2c-0.911 0-1.39 0.203-1.39 0.634 0 0.432 0.477 0.66 1.39 0.66h2.13zm2.26-6.75v-4.95h6.9c2.99 0 5.34 1.07 5.34 2.44 0 1.47-2.52 2.51-6.08 2.51zm0 6.75v-5.46h6.25c2.6 0 3.99 0.152 5.34 0.609 1.56 0.533 2.47 1.34 2.47 2.21 0 1.47-2.3 2.64-5.25 2.64zm29.7-9.3h-5.25c-0.911 0-1.43 0.228-1.43 0.634s0.52 0.66 1.43 0.66h2.99v8.04h-3.95c-0.911 0-1.43 0.254-1.43 0.634 0 0.432 0.52 0.66 1.43 0.66h13.8c0.868 0 1.39-0.228 1.39-0.66 0-0.38-0.52-0.634-1.39-0.634h-7.55v-5.28c4.69-2.46 6.12-3.02 7.98-3.02 0.868 0 1.65 0.228 2.69 0.837 0.347 0.178 0.477 0.229 0.868 0.229 0.65 0 1.13-0.28 1.13-0.685 0-0.254-0.26-0.482-1.08-0.863-1.17-0.584-2.13-0.812-3.47-0.812-2.26 0-4.3 0.66-8.11 2.64zm28.1-0.4c-5.81 0-10.3 2.49-10.3 5.71 0 3.15 4.51 5.68 10.2 5.68 5.64 0 10.1-2.51 10.1-5.71 0-3.12-4.47-5.68-9.98-5.68zm-0.26 1.29c4.51 0 7.98 1.9 7.98 4.42 0 2.44-3.47 4.39-7.85 4.39s-7.9-1.95-7.9-4.42c0-2.41 3.47-4.39 7.77-4.39zm32.5 9.71 3.56-9.34h0.65c0.956 0 1.43-0.228 1.43-0.66 0-0.431-0.434-0.634-1.43-0.634h-4.82c-0.955 0-1.39 0.203-1.39 0.634 0 0.432 0.478 0.66 1.39 0.66h1.91l-2.78 7.33-3.6-6.01h-2.56l-3.56 6.01-2.86-7.33h2c0.911 0 1.43-0.228 1.43-0.66 0-0.431-0.477-0.634-1.43-0.634h-4.82c-0.955 0-1.39 0.203-1.39 0.634 0 0.432 0.478 0.66 1.39 0.66h0.65l3.65 9.34h2.56l3.73-6.19 3.78 6.19zm14.2-10.6h-3.52c-0.955 0-1.39 0.203-1.39 0.634 0 0.432 0.477 0.66 1.39 0.66h1.26v8.04h-1.74c-0.955 0-1.43 0.228-1.43 0.634 0 0.432 0.52 0.66 1.43 0.66h5.73c0.911 0 1.39-0.228 1.39-0.66 0-0.406-0.477-0.634-1.39-0.634h-1.74v-6.12c2.65-1.9 3.73-2.28 6.38-2.28 1.56 0 2.39 0.152 3.34 0.609 1.04 0.507 1.56 1.09 1.56 1.78v6.01h-1.22c-0.955 0-1.43 0.228-1.43 0.634 0 0.432 0.52 0.66 1.43 0.66h4.73c0.868 0 1.39-0.228 1.39-0.66 0-0.406-0.477-0.634-1.39-0.634h-1.26v-6.19c0-1.98-3.04-3.5-7.03-3.5-2.65 0-4.21 0.457-6.51 1.88zm-329 34.4c2.73-0.837 4.08-2 4.08-3.48 0-2.31-3.6-4.24-7.9-4.24s-7.9 1.93-7.9 4.24c0 1.47 1.39 2.64 4.12 3.48-2.91 0.812-4.56 2.18-4.56 3.78 0 2.49 3.73 4.52 8.38 4.52 4.6 0 8.33-2.03 8.33-4.52 0-1.6-1.69-2.99-4.56-3.78zm-3.9-6.42c3.21 0 5.73 1.32 5.73 2.99 0 1.57-2.47 2.79-5.64 2.79s-5.64-1.22-5.64-2.79c0-1.65 2.52-2.99 5.55-2.99zm0 7.05c3.56 0 6.2 1.34 6.2 3.15s-2.69 3.22-6.08 3.22c-3.43 0-6.12-1.42-6.12-3.22 0-1.75 2.65-3.15 5.99-3.15zm25.9 4.17c-1.82 0-3.21 0.761-3.21 1.75s1.39 1.78 3.21 1.78h0.477c1.82 0 3.21-0.787 3.21-1.78 0-0.99-1.39-1.75-3.21-1.75zm0-7.46c-1.82 0-3.21 0.761-3.21 1.75s1.39 1.78 3.21 1.78h0.477c1.82 0 3.21-0.761 3.21-1.78 0-0.99-1.39-1.75-3.21-1.75zm44.4 9.26h-2.13c-0.911 0-1.39 0.228-1.39 0.634 0 0.432 0.477 0.66 1.39 0.66h13.3c4.08 0 7.38-1.78 7.38-3.96 0-1.62-1.78-2.87-5.16-3.6 2.26-0.786 3.34-1.72 3.34-2.97 0-2.13-3.3-3.76-7.64-3.76h-11.2c-0.911 0-1.39 0.203-1.39 0.634 0 0.432 0.477 0.66 1.39 0.66h2.13zm2.26-6.75v-4.95h6.9c2.99 0 5.34 1.07 5.34 2.44 0 1.47-2.52 2.51-6.08 2.51zm0 6.75v-5.46h6.25c2.6 0 3.99 0.152 5.34 0.609 1.56 0.533 2.47 1.34 2.47 2.21 0 1.47-2.3 2.64-5.25 2.64zm29.7-9.3h-5.25c-0.911 0-1.43 0.228-1.43 0.634s0.52 0.66 1.43 0.66h2.99v8.04h-3.95c-0.911 0-1.43 0.254-1.43 0.634 0 0.432 0.52 0.66 1.43 0.66h13.8c0.868 0 1.39-0.228 1.39-0.66 0-0.38-0.52-0.634-1.39-0.634h-7.55v-5.28c4.69-2.46 6.12-3.02 7.98-3.02 0.868 0 1.65 0.228 2.69 0.837 0.347 0.178 0.477 0.229 0.868 0.229 0.65 0 1.13-0.28 1.13-0.685 0-0.254-0.26-0.482-1.08-0.863-1.17-0.584-2.13-0.812-3.47-0.812-2.26 0-4.3 0.66-8.11 2.64zm28.1-0.4c-5.81 0-10.3 2.49-10.3 5.71 0 3.15 4.51 5.68 10.2 5.68 5.64 0 10.1-2.51 10.1-5.71 0-3.12-4.47-5.68-9.98-5.68zm-0.26 1.29c4.51 0 7.98 1.9 7.98 4.42 0 2.44-3.47 4.39-7.85 4.39s-7.9-1.95-7.9-4.42c0-2.41 3.47-4.39 7.77-4.39zm32.5 9.71 3.56-9.34h0.65c0.956 0 1.43-0.228 1.43-0.66 0-0.431-0.434-0.634-1.43-0.634h-4.82c-0.955 0-1.39 0.203-1.39 0.634 0 0.432 0.478 0.66 1.39 0.66h1.91l-2.78 7.33-3.6-6.01h-2.56l-3.56 6.01-2.86-7.33h2c0.911 0 1.43-0.228 1.43-0.66 0-0.431-0.477-0.634-1.43-0.634h-4.82c-0.955 0-1.39 0.203-1.39 0.634 0 0.432 0.478 0.66 1.39 0.66h0.65l3.65 9.34h2.56l3.73-6.19 3.78 6.19zm14.2-10.6h-3.52c-0.955 0-1.39 0.203-1.39 0.634 0 0.432 0.477 0.66 1.39 0.66h1.26v8.04h-1.74c-0.955 0-1.43 0.228-1.43 0.634 0 0.432 0.52 0.66 1.43 0.66h5.73c0.911 0 1.39-0.228 1.39-0.66 0-0.406-0.477-0.634-1.39-0.634h-1.74v-6.12c2.65-1.9 3.73-2.28 6.38-2.28 1.56 0 2.39 0.152 3.34 0.609 1.04 0.507 1.56 1.09 1.56 1.78v6.01h-1.22c-0.955 0-1.43 0.228-1.43 0.634 0 0.432 0.52 0.66 1.43 0.66h4.73c0.868 0 1.39-0.228 1.39-0.66 0-0.406-0.477-0.634-1.39-0.634h-1.26v-6.19c0-1.98-3.04-3.5-7.03-3.5-2.65 0-4.21 0.457-6.51 1.88z" stroke-width="6.32" style="paint-order:markers fill stroke"/></svg>
