<svg version="1.1" viewBox="0 0 1024 1024" xmlns="http://www.w3.org/2000/svg" xmlns:xlink="http://www.w3.org/1999/xlink"><defs><linearGradient id="a"><stop stop-color="#fff" offset=".603"/><stop stop-color="#2e76ff" offset=".603"/></linearGradient><linearGradient id="y"><stop stop-color="#fff" offset=".603"/><stop stop-color="#ffa52e" offset=".603"/></linearGradient><linearGradient id="g"><stop stop-color="#fff" offset=".603"/><stop stop-color="#1fb135" offset=".603"/></linearGradient><linearGradient id="n"><stop stop-color="#fff" offset=".603"/><stop stop-color="#745327" offset=".603"/></linearGradient><linearGradient id="j" x1="406" x2="409" y1="166" y2="171" gradientTransform="matrix(1,0,0,3.26,55.3,-289)" gradientUnits="userSpaceOnUse" spreadMethod="repeat" xlink:href="#y"/><linearGradient id="i" x1="406" x2="409" y1="166" y2="171" gradientTransform="matrix(1,0,0,3.26,4.78,-289)" gradientUnits="userSpaceOnUse" spreadMethod="repeat" xlink:href="#a"/><linearGradient id="h" x1="406" x2="409" y1="166" y2="171" gradientTransform="matrix(1,0,0,3.26,-45.2,-289)" gradientUnits="userSpaceOnUse" spreadMethod="repeat" xlink:href="#g"/><linearGradient id="f" x1="406" x2="409" y1="166" y2="171" gradientTransform="matrix(1,0,0,3.26,4.75,-289)" gradientUnits="userSpaceOnUse" spreadMethod="repeat" xlink:href="#n"/><linearGradient id="e" x1="406" x2="409" y1="166" y2="171" gradientTransform="matrix(1,0,0,3.26,230,-299)" gradientUnits="userSpaceOnUse" spreadMethod="repeat" xlink:href="#y"/><linearGradient id="d" x1="406" x2="409" y1="166" y2="171" gradientTransform="matrix(1,0,0,3.26,230,-299)" gradientUnits="userSpaceOnUse" spreadMethod="repeat" xlink:href="#g"/><linearGradient id="c" x1="406" x2="409" y1="166" y2="171" gradientTransform="matrix(1,0,0,3.26,230,-299)" gradientUnits="userSpaceOnUse" spreadMethod="repeat" xlink:href="#a"/><linearGradient id="b" x1="406" x2="409" y1="166" y2="171" gradientTransform="matrix(1,0,0,3.26,230,-299)" gradientUnits="userSpaceOnUse" spreadMethod="repeat" xlink:href="#n"/></defs><path d="m0 0h1024v1024h-1024z" fill="#666" fill-opacity=".34" style="paint-order:markers fill stroke"/><g stroke-width="2"><path d="m199 146h226v210h-226z" fill="#e6e6e6" style="paint-order:markers fill stroke"/><path d="m199 146v303l35.6 153h155l35.6-153v-303z" fill="#e6e6e6" style="paint-order:markers fill stroke"/><path d="m258 122h108v24.2h-108z" fill="#ccc" style="paint-order:markers fill stroke"/><path d="m216 146h15.7v53h-15.7zm25.2 0h15.7v53h-15.7zm25.1 0h15.7v53h-15.7zm25.2 0h15.7v53h-15.7zm25.3 0h15.7v53h-15.7zm25.1 0h15.7v53h-15.7zm25.2 0h15.7v53h-15.7zm25.1 0h15.7v53h-15.7z" fill="#d3bc5f" style="paint-order:markers fill stroke"/><path d="m266 183h15.7v173h-15.7z" fill="url(#j)" style="paint-order:markers fill stroke"/><path d="m342 183h15.7v173h-15.7z" fill="#ffa52e" style="paint-order:markers fill stroke"/><path d="m216 183h15.7v173h-15.7z" fill="url(#h)" style="-inkscape-stroke:none;font-variation-settings:normal;paint-order:markers fill stroke"/><path d="m292 183h15.7v173h-15.7z" fill="#2e76ff" style="paint-order:markers fill stroke"/><path d="m317 183h15.7v173h-15.7z" fill="url(#i)" style="-inkscape-stroke:none;font-variation-settings:normal;paint-order:markers fill stroke"/><path d="m241 183h15.7v173h-15.7z" fill="#1fb135" style="paint-order:markers fill stroke"/><path d="m367 183h15.7v173h-15.7z" fill="url(#f)" style="-inkscape-stroke:none;font-variation-settings:normal;paint-order:markers fill stroke"/><path d="m392 183h15.7v173h-15.7z" fill="#745327" style="paint-order:markers fill stroke"/><path d="m222 155v16.4h2.34v-14.1zm20.6 0v2.34h9.38v4.69h-9.38v9.38h11.7v-2.34h-9.38v-4.69h9.38v-7.03l-2.34-2.34zm25 0v2.34h9.38v4.69h-9.38v2.34h9.38v4.69h-9.38v2.34h11.7v-14.1l-2.34-2.34zm26 0v9.38h9.38v7.03h2.34v-14.1l-2.34-2.34v7.03h-7.03v-7.03zm25 0v9.38h9.38v4.69h-9.38v2.34h11.7v-9.38h-9.38v-4.69h9.38l-2.34-2.34zm25 0v16.4h11.7v-9.38h-9.38v-4.69h9.38l-2.34-2.34zm25 0v2.34h9.38v14.1h2.34v-14.1l-2.34-2.34zm25 0v16.4h11.7v-14.1l-2.34-2.34zm2.34 2.34h7.03v4.69h-7.03zm-50 7.03h6.98v4.69h-7.01zm50 0h6.98v4.69h-7.01z" fill="#333" style="paint-order:markers fill stroke"/></g><path d="m780 556s-691 348-267 348c363 0-267-348-267-348" fill="none" stroke="#e6e6e6" stroke-width="49.1" style="paint-order:markers fill stroke"/><g stroke-width="2"><path d="m599 146v303l35.6 153h155l35.6-153v-303z" fill="#e6e6e6" style="paint-order:markers fill stroke"/><path d="m215 388h195v61.4h-195z" fill="#ccc" style="paint-order:markers fill stroke"/><path d="m215 450h195v-6.51h-195z" fill="#fff" style="paint-order:markers fill stroke"/><path d="m599 146h226v210h-226z" fill="#e6e6e6" style="paint-order:markers fill stroke"/></g><path d="m615 388h195v61.4h-195z" fill="#ccc" style="paint-order:markers fill stroke"/><path d="m615 450h195v-6.51h-195z" fill="#fff" style="paint-order:markers fill stroke"/><path d="m174 34v32.8h23.4v-4.69h-18.8v-9.38h14.1v-4.69h-14.1v-9.38h18.8v-4.69h-23.4zm34.9 0v9.38h-4.69v4.69h4.69v18.8h4.69v-18.8h14.1l-4.69-4.69h-9.38v-9.38h-4.69zm25.5 0v32.8h4.69v-18.8h14.1v18.8h4.69v-18.8l-4.69-4.69h-14.1v-9.38h-4.69zm156 0v9.38h-4.69v4.69h4.69v18.8h4.69v-18.8h14.1l-4.69-4.69h-9.38v-9.38h-4.69zm395 0v32.8h23.4v-18.8l-4.69-4.69h-14.1v-9.38h-4.69zm30.2 0v32.8h4.69v-28.1l-4.69-4.69zm-551 9.38v23.4h23.4v-4.69h-18.8v-4.69h18.8v-9.38l-4.69-4.69h-18.8zm30.2 0v23.4h4.69v-18.8h14.1v4.69h4.69v-4.69l-4.69-4.69h-18.8zm30.2 0v23.4h4.69v-18.8h14.1v18.8h4.69v-18.8l-4.69-4.69h-18.8zm30.2 0v23.4h23.4v-4.69h-18.8v-4.69h18.8v-9.38l-4.69-4.69h-18.8zm79.1 0v23.4h23.4v-4.69h-18.8v-14.1h18.8l-4.69-4.69h-18.8zm30.2 0v23.4h4.69v-18.8h14.1v4.69h4.69v-4.69l-4.69-4.69h-18.8zm30.2 0v23.4h23.4v-18.8l-4.69-4.69h-18.8zm30.2 0v14.1h18.8v4.69h-18.8v4.69h23.4v-14.1h-18.8v-4.69h18.8l-4.69-4.69h-18.8zm30.2 0v14.1h18.8v4.69h-18.8v4.69h23.4v-14.1h-18.8v-4.69h18.8l-4.69-4.69h-18.8zm30.2 0v23.4h23.4v-18.8l-4.69-4.69h-18.8zm30.2 0v9.38l7.03 14.1h9.38l7.03-14.1v-4.69l-4.69-4.69v9.38l-4.69 9.38h-4.69l-4.69-9.38v-9.38h-4.69zm30.2 0v23.4h23.4v-4.69h-18.8v-4.69h18.8v-9.38l-4.69-4.69h-18.8zm30.2 0v23.4h4.69v-18.8h14.1v4.69h4.69v-4.69l-4.69-4.69h-18.8zm48.9 0v23.4h23.4v-4.69h-18.8v-14.1h18.8l-4.69-4.69h-18.8zm30.2 0v4.69h18.8v4.69h-18.8v14.1h23.4v-18.8l-4.69-4.69h-18.8zm71.8 0v23.4h23.4v-4.69h-18.8v-4.69h18.8v-9.38l-4.69-4.69h-18.8zm-557 4.69h14.1v4.69h-14.1v-4.69zm90.6 0h14.1v4.69h-14.1v-4.69zm140 0h14.1v14.1h-14.1v-14.1zm90.6 0h14.1v14.1h-14.1v-14.1zm60.4 0h14.1v4.69h-14.1v-4.69zm140 0h14.1v14.1h-14.1v-14.1zm41.6 0h14.1v4.69h-14.1v-4.69zm-71.8 9.38h14.1v4.69h-14.1v-4.69zm-550 34.7v17.7h19.3v-3.8h-3.86v1.27h-11.6v-12.7h11.6v2.53h3.86v-2.53l-3.86-2.53h-15.4zm24.8 0v17.7h3.86v-15.2l-3.86-2.53zm9.41 0v5.06h3.86v-2.53l-3.86-2.53zm49.7 0v5.06h3.86v-2.53l-3.86-2.53zm99.3 0v5.06h3.86v-2.53l-3.86-2.53zm38.1 0v5.06h-3.86v2.53h3.86v10.1h3.86v-10.1h11.6l-3.86-2.53h-7.71v-5.06h-3.86zm61.2 0v5.06h-15.4v12.7h19.3v-15.2l-3.86-2.53zm143 0v5.06h-3.86v2.53h3.86v10.1h3.86v-10.1h11.6l-3.86-2.53h-7.71v-2.53h3.86v-2.53h-7.71zm-382 5.06v17.7h3.86v-5.07h15.4v-10.1l-3.86-2.53h-15.4zm49.7 0v7.6h15.4v2.53h-15.4v2.53h19.3v-7.6h-15.4v-2.53h15.4l-3.86-2.53h-15.4zm40.3 0v17.7h3.86v-5.07h15.4v-10.1l-3.86-2.53h-15.4zm24.8 0v12.7h19.3v-10.1l-3.86-2.53h-15.4zm34.2 0v12.7h3.86v-10.1h11.6v10.1h3.86v-10.1l-3.86-2.53h-15.4zm49.7 0v12.7h19.3v-2.53h-15.4v-2.53h15.4v-5.07l-3.86-2.53h-15.4zm65.1 0v2.53h15.4v2.53h-15.4v7.6h19.3v-10.1l-3.86-2.53h-15.4zm24.8 0v12.7h19.3v-10.1l-3.86-2.53v10.1h-3.86v-10.1h-3.86v10.1h-3.86v-10.1h-3.86zm24.8 0v2.53h15.4v2.53h-15.4v7.6h19.3v-10.1l-3.86-2.53h-15.4zm24.8 0v5.07l5.79 7.6h1.93v2.53h-7.71v2.53h11.6v-5.07h1.93l5.78-7.6v-2.53l-3.86-2.53v5.07l-3.86 5.06h-3.86l-3.86-5.06v-5.07h-3.86zm65.1 0v12.7h3.86v-10.1h11.6v2.53h3.86v-2.53l-3.86-2.53h-15.4zm24.8 0v12.7h19.3v-10.1l-3.86-2.53h-15.4zm24.8 0v12.7h3.86v-10.1h3.86v10.1h3.86v-10.1h3.86v10.1h3.86v-10.1l-3.86-2.53h-15.4zm40.3 0v5.07l5.78 7.6h1.93v2.53h-7.71v2.53h11.6v-5.07h1.93l5.78-7.6v-2.53l-3.86-2.53v5.07l-3.86 5.06h-3.86l-3.86-5.06v-5.07h-3.86zm24.8 0v12.7h19.3v-10.1l-3.86-2.53h-15.4zm24.8 0v12.7h19.3v-10.1l-3.86-2.53v10.1h-11.6v-10.1h-3.86zm-552 2.53v10.1h3.86v-10.1h-3.86zm13.3 0h11.6v7.6h-11.6v-7.6zm36.4 0v10.1h3.86v-10.1h-3.86zm53.5 0h11.6v7.6h-11.6v-7.6zm24.8 0h11.6v7.6h-11.6v-7.6zm21 0v10.1h3.86v-10.1h-3.86zm62.9 0h11.6v2.53h-11.6v-2.53zm24.8 0h11.6v7.6h-11.6v-7.6zm205 0h11.6v7.6h-11.6v-7.6zm89.9 0h11.6v7.6h-11.6v-7.6zm-254 5.07h11.6v2.53h-11.6v-2.53zm49.7 0h11.6v2.53h-11.6v-2.53zm-128 179v16.4h2.34v-7.03h2.34l4.69 7.03h2.34l-5.02-7.03h5.02v-4.69l-4.69-4.69h-7.03zm15.1 0v2.34l9.38-0.0234v9.4l-2.34 2.34h-7.03v2.34h7.03l4.69-4.69v-9.38l-2.34-2.34h-9.38zm28.5 0v9.38h9.38v7.03h2.34v-14.1l-2.34-2.34v7.03h-7.03v-7.03h-2.34zm15.1 0v9.38h9.38v4.69h-9.38v2.34h11.7v-9.38h-9.38v-4.69h9.38l-2.34-2.34h-9.38zm24.5 0v16.4h2.34v-7.03h9.38v-4.69l-4.69-4.69h-7.03zm15.1 0v16.4h11.7l-2.34-2.34h-7.03v-14.1h-2.34zm15.1 0v16.4h9.38l2.34-2.34v-11.7l-2.34-2.34v14.1h-7.03v-14.1h-2.34zm15.1 0v16.4h11.7v-9.38h-7.03v2.34h4.69v4.69h-7.03v-11.7h7.03v2.34h2.34v-2.34l-2.34-2.34h-9.38zm-126 2.34h4.69l2.34 2.34v2.34h-4.69-2.34v-4.69zm83.2 0h4.69l2.34 2.34v2.34h-7.03v-4.69zm-56.2 4.69v2.34h11.7v-2.34h-11.7zm-230 205v4.69h9.38v28.1h4.69v-28.1h9.38v-4.69h-23.4zm30.2 0v18.8h18.8v9.38h-18.8v4.69h23.4v-18.8h-18.8v-9.38h18.8l-4.69-4.69h-18.8zm30.2 0v32.8h23.4v-18.8h-18.8v-9.38h18.8l-4.69-4.69h-18.8zm30.2 0v32.8h23.4v-28.1l-4.69-4.69h-18.8zm30.2 0v32.8h4.69v-16.4h14.1v16.4h4.69v-28.1l-4.69-4.69h-18.8zm276 0v4.69h9.38v28.1h4.69v-28.1h9.38v-4.69h-23.4zm30.2 0v18.8h18.8v9.38h-18.8v4.69h23.4v-18.8h-18.8v-9.38h18.8l-4.69-4.69h-18.8zm30.2 0v32.8h23.4v-18.8h-18.8v-9.38h18.8l-4.69-4.69h-18.8zm30.2 0v32.8h23.4v-28.1l-4.69-4.69h-18.8zm30.2 0v32.8h23.4v-18.8l-4.69-2.34v-7.03l-4.69-4.69h-14.1zm-423 4.69h14.1v9.38h-14.1v-9.38zm30.2 0h14.1v7.03h-14.1v-7.03zm367 0h14.1v9.38h-14.1v-9.38zm30.2 0h9.38v7.03h-9.38v-7.03zm0 11.7h14.1v11.7h-14.1v-11.7zm-457 2.34h14v9.38h-14l0.0469-9.38zm30.2 0h14v9.38h-14l0.0469-9.38zm367 0h14v9.38h-14l0.0469-9.38zm30.2 0h14v9.38h-14l0.0469-9.38z" fill="#333" style="paint-order:markers fill stroke"/><g stroke-width="2"><path d="m616 146h15.7v53h-15.7zm25 0h15.7v53h-15.7zm25.3 0h15.7v53h-15.7zm25.1 0h15.7v53h-15.7zm25.2 0h15.7v53h-15.7zm25.1 0h15.7v53h-15.7zm25.2 0h15.7v53h-15.7zm25.1 0h15.7v53h-15.7z" fill="#d3bc5f" style="paint-order:markers fill stroke"/><path d="m623 155v16.4h2.34v-14.1zm20.6 0v2.34h9.38v4.69h-9.38v9.38h11.7v-2.34h-9.38v-4.69h9.38v-7.03l-2.34-2.34zm25 0v2.34h9.38v4.69h-9.38v2.34h9.38v4.69h-9.38v2.34h11.7v-14.1l-2.34-2.34zm26 0v9.38h9.38v7.03h2.34v-14.1l-2.34-2.34v7.03h-7.03v-7.03zm25 0v9.38h9.38v4.69h-9.38v2.34h11.7v-9.38h-9.38v-4.69h9.38l-2.34-2.34zm25 0v16.4h11.7v-9.38h-9.38v-4.69h9.38l-2.34-2.34zm25 0v2.34h9.38v14.1h2.34v-14.1l-2.34-2.34zm25 0v16.4h11.7v-14.1l-2.34-2.34zm2.34 2.34h7.03v4.69h-7.03zm-50 7.03h6.98v4.69h-7.01zm50 0h6.98v4.69h-7.01z" fill="#333" style="paint-order:markers fill stroke"/><path d="m658 122h108v24.2h-108z" fill="#ccc" style="paint-order:markers fill stroke"/><path d="m616 183h15.7v173h-15.7z" fill="url(#e)" style="paint-order:markers fill stroke"/><path d="m641 183h15.7v173h-15.7z" fill="#ffa52e" style="paint-order:markers fill stroke"/><path d="m666 183h15.7v173h-15.7z" fill="url(#d)" style="-inkscape-stroke:none;font-variation-settings:normal;paint-order:markers fill stroke"/><path d="m692 183h15.7v173h-15.7z" fill="#2e76ff" style="paint-order:markers fill stroke"/><path d="m717 183h15.7v173h-15.7z" fill="url(#c)" style="-inkscape-stroke:none;font-variation-settings:normal;paint-order:markers fill stroke"/><path d="m742 183h15.7v173h-15.7z" fill="#1fb135" style="paint-order:markers fill stroke"/><path d="m767 183h15.7v173h-15.7z" fill="url(#b)" style="-inkscape-stroke:none;font-variation-settings:normal;paint-order:markers fill stroke"/><path d="m792 183h15.7v173h-15.7z" fill="#745327" style="paint-order:markers fill stroke"/></g></svg>
