<svg version="1.1" viewBox="0 0 1024 1024" xmlns="http://www.w3.org/2000/svg" xmlns:xlink="http://www.w3.org/1999/xlink"><defs><linearGradient id="a"><stop stop-color="#fff" offset=".603"/><stop stop-color="#2e76ff" offset=".603"/></linearGradient><linearGradient id="y"><stop stop-color="#fff" offset=".603"/><stop stop-color="#ffa52e" offset=".603"/></linearGradient><linearGradient id="g"><stop stop-color="#fff" offset=".603"/><stop stop-color="#1fb135" offset=".603"/></linearGradient><linearGradient id="n"><stop stop-color="#fff" offset=".603"/><stop stop-color="#745327" offset=".603"/></linearGradient><linearGradient id="j" x1="405.9" x2="409.1" y1="165.9" y2="171" gradientTransform="matrix(1 0 0 3.265 55.32 -289.4)" gradientUnits="userSpaceOnUse" spreadMethod="repeat" xlink:href="#y"/><linearGradient id="i" x1="405.9" x2="409.1" y1="165.9" y2="171" gradientTransform="matrix(1 0 0 3.265 4.784 -289.4)" gradientUnits="userSpaceOnUse" spreadMethod="repeat" xlink:href="#a"/><linearGradient id="h" x1="405.9" x2="409.1" y1="165.9" y2="171" gradientTransform="matrix(1 0 0 3.265 -45.24 -289.4)" gradientUnits="userSpaceOnUse" spreadMethod="repeat" xlink:href="#g"/><linearGradient id="f" x1="405.9" x2="409.1" y1="165.9" y2="171" gradientTransform="matrix(1 0 0 3.265 4.746 -289.4)" gradientUnits="userSpaceOnUse" spreadMethod="repeat" xlink:href="#n"/><linearGradient id="e" x1="405.9" x2="409.1" y1="165.9" y2="171" gradientTransform="matrix(1 0 0 3.265 229.8 -299.1)" gradientUnits="userSpaceOnUse" spreadMethod="repeat" xlink:href="#y"/><linearGradient id="d" x1="405.9" x2="409.1" y1="165.9" y2="171" gradientTransform="matrix(1 0 0 3.265 229.8 -299.1)" gradientUnits="userSpaceOnUse" spreadMethod="repeat" xlink:href="#g"/><linearGradient id="c" x1="405.9" x2="409.1" y1="165.9" y2="171" gradientTransform="matrix(1 0 0 3.265 229.8 -299.1)" gradientUnits="userSpaceOnUse" spreadMethod="repeat" xlink:href="#a"/><linearGradient id="b" x1="405.9" x2="409.1" y1="165.9" y2="171" gradientTransform="matrix(1 0 0 3.265 229.8 -299.1)" gradientUnits="userSpaceOnUse" spreadMethod="repeat" xlink:href="#n"/></defs><path d="M0 0h1024v1024H0z" fill="#fff" fill-opacity=".34" style="paint-order:markers fill stroke"/><g stroke-width="3.556"><path d="m447.6 183.3h2.862c1.704 1.006 2.658 2.472 4.68 7.07h1.34c0.477 0 0.75-0.259 0.75-0.747 0-0.46-0.25-0.719-0.75-0.719h-0.613c-1.75-3.736-2.431-4.886-3.726-6.036 1.954-0.833 3.02-2.299 3.02-4.139 0-2.443-1.93-4.54-4.202-4.54h-5.656c-0.477 0-0.727 0.23-0.727 0.718s0.25 0.747 0.727 0.747h1.113v13.25h-1.113c-0.477 0-0.727 0.259-0.727 0.718 0 0.489 0.25 0.748 0.727 0.748h3.862c0.477 0 0.75-0.259 0.75-0.748 0-0.46-0.25-0.718-0.75-0.718h-1.567zm0-1.466v-6.179h3.339c1.59 0 3.044 1.466 3.044 3.075 0 1.696-1.772 3.104-3.907 3.104zm20.3-6.134h2.067c0.477 0 0.727-0.259 0.727-0.747s-0.25-0.719-0.727-0.719h-6.724c-0.5 0-0.75 0.23-0.75 0.719s0.273 0.747 0.75 0.747h3.476v9.887c0 2.127-1.408 3.822-3.203 3.822-1.09 0-2.113-0.575-3.226-1.839v-3.593c0-0.604-0.204-0.92-0.59-0.92s-0.591 0.316-0.591 0.92v4.282c1.772 1.954 2.885 2.615 4.384 2.615 2.408 0 4.407-2.385 4.407-5.288zm14.5 7.5c0.5 0 0.75-0.259 0.75-0.747 0-0.46-0.25-0.719-0.75-0.719h-9.132c-0.477 0-0.727 0.259-0.727 0.719 0 0.488 0.25 0.747 0.727 0.747zm10.6 2.4v3.305h-1.613c-0.477 0-0.727 0.259-0.727 0.719 0 0.488 0.273 0.747 0.727 0.747h3.453c0.454 0 0.727-0.259 0.727-0.747 0-0.46-0.25-0.719-0.727-0.719h-0.659v-3.305h0.659c0.477 0 0.727-0.259 0.727-0.747 0-0.46-0.25-0.719-0.727-0.719h-0.659v-11.09h-2.113l-5.225 11.04v1.523zm0-1.466h-4.93l4.589-9.628h0.34zm9.7-9.634h5.361c0.5 0 0.75-0.259 0.75-0.747 0-0.46-0.25-0.719-0.75-0.719h-6.542v7.731c0 0.46 0.227 0.776 0.568 0.776 0.136 0 0.25-0.057 0.545-0.23 1-0.632 1.908-0.92 2.817-0.92 1.84 0 3.09 1.668 3.09 4.11 0 2.875-1.478 4.829-3.636 4.829-1.272 0-2.453-0.633-3.544-1.868-0.204-0.23-0.318-0.288-0.477-0.288-0.318 0-0.568 0.316-0.568 0.719 0 0.43 0.318 0.862 1.113 1.495 1.16 0.948 2.294 1.408 3.521 1.408 2.794 0 4.77-2.587 4.77-6.237 0-3.276-1.749-5.633-4.157-5.633-0.977 0-1.749 0.23-2.862 0.776zm26.7 9.4h2.862c2.635 0 4.725-2.156 4.725-4.886 0-2.702-1.931-4.8-4.407-4.8h-5.475c-0.477 0-0.727 0.23-0.727 0.718s0.25 0.748 0.727 0.748h1.113v13.25h-1.113c-0.477 0-0.727 0.258-0.727 0.718 0 0.489 0.25 0.747 0.727 0.747h5.316c0.477 0 0.75-0.258 0.75-0.747 0-0.46-0.25-0.718-0.75-0.718h-3.021zm0-1.466v-6.754h3.248c1.749 0 3.158 1.495 3.158 3.334 0 1.868-1.567 3.42-3.476 3.42zm15-6.734h2.067c0.477 0 0.727-0.259 0.727-0.747s-0.25-0.719-0.727-0.719h-5.316c-0.477 0-0.727 0.23-0.727 0.719s0.25 0.747 0.727 0.747h2.067v13.25h-2.067c-0.477 0-0.727 0.259-0.727 0.719 0 0.488 0.25 0.747 0.727 0.747h10.38v-5.834c0-0.575-0.204-0.891-0.59-0.891s-0.591 0.316-0.591 0.89v4.37h-5.952zm19.8 0h0.659c0.477 0 0.727-0.259 0.727-0.747s-0.227-0.719-0.727-0.719h-3.407c-0.477 0-0.727 0.23-0.727 0.719s0.25 0.747 0.727 0.747h1.567v9.341c0 2.472-1.522 4.369-3.476 4.369-1.931 0-3.453-1.897-3.453-4.369v-9.341h1.567c0.477 0 0.727-0.259 0.727-0.747s-0.25-0.719-0.727-0.719h-3.385c-0.5 0-0.75 0.23-0.75 0.719s0.25 0.747 0.75 0.747h0.636v9.341c0 3.305 1.999 5.834 4.634 5.834s4.657-2.529 4.657-5.834zm14.1 8.8h0.204c0.477 0 0.75-0.259 0.75-0.747 0-0.46-0.25-0.719-0.75-0.719h-4.407c-0.5 0-0.75 0.23-0.75 0.719s0.25 0.747 0.75 0.747h3.021v3.966c-1.249 0.719-1.954 0.92-3.112 0.92-3.226 0-5.157-2.271-5.157-6.036v-2.07c0-1.58 0.614-3.333 1.59-4.483 0.84-1.006 1.817-1.466 3.067-1.466 1.954 0 3.521 1.063 3.635 2.443 0.023 0.575 0.205 0.833 0.568 0.833 0.386 0 0.59-0.316 0.59-0.89v-2.588c0-0.603-0.18-0.89-0.59-0.89-0.386 0-0.59 0.287-0.59 0.89v0.087c-1-0.891-2.226-1.351-3.657-1.351-3.248 0-5.793 3.248-5.793 7.415v2.069c0 4.54 2.476 7.5 6.247 7.5 1.499 0 2.908-0.488 4.384-1.522z" style="paint-order:markers fill stroke"/></g><path d="m779.5 555.8s-691.4 348-267.4 348c363.1 0-267.4-348-267.4-348" fill="none" stroke="#e6e6e6" stroke-width="49.08" style="paint-order:markers fill stroke"/><g stroke-width="2"><path d="m198.7 146.5h226.3v209.8h-226.3z" fill="#e6e6e6" style="paint-order:markers fill stroke"/><path d="m198.7 146.5v303.3l35.56 152.7h155.2l35.56-152.7v-303.3z" fill="#e6e6e6" style="paint-order:markers fill stroke"/><path d="m257.8 122.3h108.4v24.2h-108.4z" fill="#ccc" style="paint-order:markers fill stroke"/><g fill="#d3bc5f"><path d="m216 146.5h15.67v53.02h-15.67zm25.2 0h15.67v53.02h-15.67zm25.1 0h15.67v53.02h-15.67zm25.2 0h15.67v53.02h-15.67zm25.3 0h15.67v53.02h-15.67zm25.1 0h15.67v53.02h-15.67zm25.2 0h15.67v53.02h-15.67zm25.1 0h15.67v53.02h-15.67z" style="paint-order:markers fill stroke"/></g><path d="m224.5 152.2-4.656 1.153c-0.46 0.116-0.606 0.231-0.606 0.5 0 0.25 0.291 0.481 0.582 0.481 0.049 0 0.291-0.039 0.388-0.058l3.031-0.75v9.476h-3.25c-0.533 0-0.8 0.173-0.8 0.481 0 0.327 0.291 0.5 0.8 0.5h7.762c0.51 0 0.777-0.173 0.777-0.5 0-0.308-0.267-0.481-0.777-0.481h-3.249zm21 10.8c1.309-0.884 2.814-1.981 4.827-3.518 3.056-2.306 3.541-2.864 3.541-3.999 0-1.786-2.158-3.344-4.608-3.344-1.504 0-2.91 0.538-3.833 1.461-0.485 0.481-0.801 1.057-0.801 1.422 0 0.231 0.267 0.443 0.607 0.443 0.315 0 0.509-0.135 0.606-0.443 0.413-1.114 1.844-1.902 3.421-1.902 1.795 0 3.347 1.096 3.347 2.345 0 0.827-0.436 1.307-2.691 3.037-1.823 1.384-3.675 2.729-5.554 4.035l-0.218 0.154v1.288h9.822v-1.557c0-0.404-0.218-0.615-0.631-0.615-0.412 0-0.63 0.211-0.63 0.615v0.577zm28.3-5.9c-0.509 0-0.776 0.192-0.776 0.5 0 0.307 0.267 0.48 0.776 0.48 2.329 0.039 4.196 1.192 4.196 2.633 0 1.384-1.771 2.557-3.906 2.557-1.322 4e-3 -2.621-0.348-3.76-1.019-0.219-0.115-0.34-0.154-0.51-0.154-0.315 0-0.582 0.212-0.582 0.462 0 0.307 0.316 0.557 1.189 0.903 1.261 0.538 2.402 0.788 3.637 0.788 2.863 0 5.191-1.595 5.191-3.536 0-1.249-1.115-2.441-2.814-3.036 1.48-0.558 2.304-1.461 2.304-2.537 0-1.711-1.916-3.017-4.414-3.017-1.286 0-2.523 0.307-3.493 0.884-0.558 0.346-0.898 0.673-0.898 0.903 0 0.25 0.267 0.462 0.606 0.462 0.195 0 0.34-0.058 0.461-0.173 0.873-0.769 1.867-1.096 3.323-1.096 1.796 0 3.154 0.884 3.154 2.037 0 0.616-0.437 1.211-1.14 1.577-0.582 0.288-1.067 0.384-2.013 0.384zm27.5 3.6v2.21h-1.722c-0.509 0-0.776 0.173-0.776 0.48 0 0.327 0.291 0.5 0.776 0.5h3.687c0.486 0 0.777-0.173 0.777-0.5 0-0.307-0.267-0.48-0.777-0.48h-0.703v-2.21h0.703c0.51 0 0.777-0.173 0.777-0.5 0-0.308-0.267-0.481-0.777-0.481h-0.703v-7.418h-2.256l-5.579 7.381v1.019zm0-0.981h-5.264l4.9-6.439h0.364zm20.8-6.319h5.724c0.534 0 0.801-0.173 0.801-0.5 0-0.308-0.267-0.481-0.801-0.481h-6.985v5.17c0 0.308 0.243 0.519 0.607 0.519 0.145 0 0.267-0.038 0.582-0.154 1.067-0.422 2.037-0.615 3.008-0.615 1.964 0 3.298 1.115 3.298 2.749 0 1.922-1.577 3.228-3.881 3.228-1.359 0-2.619-0.423-3.783-1.249-0.219-0.154-0.34-0.192-0.51-0.192-0.339 0-0.606 0.211-0.606 0.48 0 0.289 0.339 0.577 1.188 1 1.237 0.634 2.45 0.942 3.76 0.942 2.983 0 5.094-1.73 5.094-4.171 0-2.192-1.867-3.767-4.439-3.767-1.043 0-1.867 0.153-3.057 0.519zm24.2 5.5c-0.024-0.192-0.024-0.365-0.024-0.461 0-1.154 0.388-2.306 1.091-3.113 1.165-1.384 3.032-2.249 4.852-2.249 0.437 0 0.8 0.038 1.043 0.134 0.242 0.096 0.339 0.116 0.485 0.116 0.34 0 0.582-0.212 0.582-0.462 0-0.442-0.897-0.769-2.085-0.769-1.597 3e-3 -3.158 0.478-4.487 1.365-1.819 1.211-2.692 2.845-2.692 5.093 0 3.325 2.062 5.67 5.02 5.67 2.425 0 4.317-1.634 4.317-3.728 0-1.981-1.892-3.614-4.196-3.614-1.6 0-3.031 0.73-3.906 2.017zm0.17 1.403c0.558-0.769 0.824-1.096 1.164-1.403 0.776-0.673 1.698-1.038 2.571-1.038 1.601 0 2.935 1.192 2.935 2.633 0 1.557-1.31 2.748-3.031 2.748-1.819 0-2.983-0.922-3.637-2.94zm31.83-6.703-3.881 9.649c-0.042 0.084-0.067 0.175-0.073 0.269 0 0.269 0.267 0.48 0.607 0.48 0.339 0 0.485-0.115 0.63-0.461l3.954-9.803v-1.345h-9.314v1.537c0 0.423 0.218 0.635 0.631 0.635 0.412 0 0.63-0.212 0.63-0.635v-0.557h6.816zm23.8 4.4c1.528-0.634 2.279-1.518 2.279-2.633 0-1.749-2.013-3.211-4.414-3.211-2.402 0-4.415 1.461-4.415 3.211 0 1.115 0.776 1.998 2.304 2.633-1.625 0.615-2.546 1.653-2.546 2.864 0 1.885 2.086 3.421 4.681 3.421 2.571 0 4.657-1.538 4.657-3.421 0-1.211-0.946-2.268-2.546-2.864zm-2.183-4.862c1.795 0 3.201 0.999 3.201 2.268 0 1.192-1.382 2.114-3.153 2.114-1.772 0-3.154-0.923-3.154-2.114 0-1.249 1.406-2.268 3.104-2.268zm0 5.344c1.989 0 3.468 1.018 3.468 2.384 0 1.365-1.504 2.441-3.396 2.441-1.916 0-3.42-1.077-3.42-2.441 0-1.326 1.479-2.384 3.348-2.384z" style="paint-order:markers fill stroke"/><path d="m266.5 183.1h15.67v173.1h-15.67z" fill="url(#j)" style="paint-order:markers fill stroke"/><path d="m341.9 183.1h15.67v173.1h-15.67z" fill="#ffa52e" style="paint-order:markers fill stroke"/><path d="m216.3 183.1h15.67v173.1h-15.67z" fill="url(#h)" style="-inkscape-stroke:none;font-variation-settings:normal;paint-order:markers fill stroke"/><path d="m291.7 183.1h15.67v173.1h-15.67z" fill="#2e76ff" style="paint-order:markers fill stroke"/><path d="m316.8 183.1h15.67v173.1h-15.67z" fill="url(#i)" style="-inkscape-stroke:none;font-variation-settings:normal;paint-order:markers fill stroke"/><path d="m241.4 183.1h15.67v173.1h-15.67z" fill="#1fb135" style="paint-order:markers fill stroke"/><path d="m367.1 183.1h15.67v173.1h-15.67z" fill="url(#f)" style="-inkscape-stroke:none;font-variation-settings:normal;paint-order:markers fill stroke"/><path d="m392.2 183.1h15.67v173.1h-15.67z" fill="#745327" style="paint-order:markers fill stroke"/></g><g stroke-width="3.556"><path d="m252.9 533.2v-19.01h6.726v2.722c0 0.784 0.477 1.361 1.172 1.361 0.738 0 1.085-0.412 1.085-1.361v-4.825h-20.26v4.825c0 0.907 0.39 1.361 1.128 1.361s1.128-0.454 1.128-1.361v-2.722h6.769v19.01h-4.296c-0.955 0-1.432 0.371-1.432 1.031 0 0.701 0.52 1.072 1.432 1.072h10.85c0.911 0 1.432-0.371 1.432-1.072 0-0.66-0.477-1.031-1.432-1.031zm33.6-8.3c0.955 0 1.432-0.371 1.432-1.072 0-0.66-0.477-1.031-1.432-1.031h-17.44c-0.911 0-1.389 0.371-1.389 1.031 0 0.701 0.477 1.072 1.389 1.072zm12.8-12.3h10.24c0.955 0 1.432-0.371 1.432-1.072 0-0.66-0.477-1.031-1.432-1.031h-12.5v11.09c0 0.66 0.434 1.114 1.085 1.114 0.26 0 0.477-0.082 1.041-0.33 1.909-0.907 3.645-1.32 5.381-1.32 3.515 0 5.902 2.392 5.902 5.897 0 4.124-2.821 6.93-6.943 6.93-2.43 0-4.687-0.908-6.769-2.682-0.39-0.33-0.607-0.412-0.911-0.412-0.608 0-1.085 0.453-1.085 1.03 0 0.62 0.607 1.238 2.126 2.146 2.213 1.36 4.383 2.02 6.726 2.02 5.337 0 9.113-3.711 9.113-8.948 0-4.702-3.341-8.083-7.941-8.083-1.866 0-3.341 0.33-5.468 1.114zm25.4 11.9c-0.043-0.412-0.043-0.784-0.043-0.99 0-2.474 0.694-4.949 1.953-6.68 2.083-2.97 5.424-4.826 8.679-4.826 0.78 0 1.432 0.083 1.866 0.289 0.433 0.206 0.607 0.247 0.867 0.247 0.608 0 1.041-0.453 1.041-0.99 0-0.948-1.606-1.65-3.732-1.65-2.82 0-5.685 1.032-8.028 2.929-3.255 2.598-4.817 6.104-4.817 10.93 0 7.135 3.688 12.17 8.983 12.17 4.34 0 7.724-3.505 7.724-8.001 0-4.248-3.385-7.753-7.507-7.753-2.864 0-5.424 1.567-6.986 4.33zm0.304 3.011c0.998-1.65 1.475-2.351 2.083-3.011 1.389-1.443 3.038-2.227 4.6-2.227 2.864 0 5.25 2.557 5.25 5.65 0 3.341-2.342 5.897-5.423 5.897-3.255 0-5.337-1.98-6.51-6.31zm34.7-5.011c2.734-1.361 4.079-3.258 4.079-5.65 0-3.753-3.602-6.887-7.898-6.887s-7.898 3.134-7.898 6.887c0 2.392 1.389 4.289 4.122 5.65-2.907 1.32-4.556 3.547-4.556 6.145 0 4.042 3.732 7.341 8.375 7.341 4.6 0 8.332-3.299 8.332-7.341 0-2.598-1.692-4.866-4.556-6.145zm-3.905-10.43c3.211 0 5.728 2.145 5.728 4.866 0 2.557-2.473 4.537-5.641 4.537s-5.641-1.98-5.641-4.537c0-2.681 2.517-4.866 5.554-4.866zm0 11.47c3.558 0 6.205 2.186 6.205 5.114s-2.69 5.238-6.075 5.238c-3.428 0-6.119-2.31-6.119-5.238 0-2.846 2.647-5.114 5.988-5.114z" style="paint-order:markers fill stroke"/><g stop-color="#000000" stroke-width="4.369" style="paint-order:markers fill stroke" aria-label="A"><path d="m387.5 527.5 2.363 6.162h-3.151c-0.973 0-1.483 0.417-1.483 1.158 0 0.7877 0.5097 1.205 1.483 1.205h7.228c0.973 0 1.529-0.417 1.529-1.205 0-0.7413-0.5097-1.158-1.529-1.158h-1.529l-9.128-23.72h-9.591c-1.019 0-1.529 0.3707-1.529 1.158s0.556 1.205 1.529 1.205h5.143l-8.062 21.36h-1.297c-0.973 0-1.483 0.417-1.483 1.158 0 0.7877 0.556 1.205 1.483 1.205h6.996c0.973 0 1.529-0.417 1.529-1.205 0-0.7413-0.5097-1.158-1.529-1.158h-3.29l2.317-6.162zm-0.9267-2.363h-10.15l4.819-12.83h0.3707z"/></g></g><g stroke-width="2"><path d="m214.6 388.3h195v61.39h-195z" fill="#ccc" style="paint-order:markers fill stroke"/><path d="m214.6 449.8h195v-6.507h-195z" fill="#fff" style="paint-order:markers fill stroke"/><path d="m598.9 146.5h226.3v209.8h-226.3z" fill="#e6e6e6" style="paint-order:markers fill stroke"/><path d="m598.9 146.5v303.3l35.56 152.7h155.2l35.56-152.7v-303.3z" fill="#e6e6e6" style="paint-order:markers fill stroke"/><path d="m657.8 122.3h108.4v24.2h-108.4z" fill="#ccc" style="paint-order:markers fill stroke"/><g fill="#d3bc5f"><path d="m616.2 146.5h15.67v53.02h-15.67zm25 0h15.67v53.02h-15.67zm25.3 0h15.67v53.02h-15.67zm25.1 0h15.67v53.02h-15.67zm25.2 0h15.67v53.02h-15.67zm25.1 0h15.67v53.02h-15.67zm25.2 0h15.67v53.02h-15.67zm25.1 0h15.67v53.02h-15.67z" style="paint-order:markers fill stroke"/></g><path d="m624.5 152.2-4.656 1.153c-0.461 0.116-0.607 0.231-0.607 0.5 0 0.25 0.291 0.481 0.582 0.481 0.049 0 0.292-0.039 0.389-0.058l3.031-0.75v9.476h-3.25c-0.534 0-0.8 0.173-0.8 0.481 0 0.327 0.291 0.5 0.8 0.5h7.762c0.509 0 0.776-0.173 0.776-0.5 0-0.308-0.267-0.481-0.776-0.481h-3.25zm21 10.8c1.31-0.884 2.815-1.981 4.827-3.518 3.056-2.306 3.541-2.864 3.541-3.999 0-1.786-2.158-3.344-4.608-3.344-1.504 0-2.91 0.538-3.833 1.461-0.485 0.481-0.8 1.057-0.8 1.422 0 0.231 0.267 0.443 0.606 0.443 0.316 0 0.51-0.135 0.607-0.443 0.412-1.114 1.843-1.902 3.42-1.902 1.796 0 3.348 1.096 3.348 2.345 0 0.827-0.437 1.307-2.692 3.037-1.823 1.384-3.675 2.729-5.554 4.035l-0.218 0.154v1.288h9.823v-1.557c0-0.404-0.219-0.615-0.631-0.615s-0.631 0.211-0.631 0.615v0.577zm28.3-5.9c-0.51 0-0.777 0.192-0.777 0.5 0 0.307 0.267 0.48 0.777 0.48 2.329 0.039 4.195 1.192 4.195 2.633 0 1.384-1.77 2.557-3.906 2.557-1.322 4e-3 -2.621-0.348-3.76-1.019-0.218-0.115-0.339-0.154-0.509-0.154-0.315 0-0.582 0.212-0.582 0.462 0 0.307 0.315 0.557 1.188 0.903 1.262 0.538 2.402 0.788 3.638 0.788 2.862 0 5.191-1.595 5.191-3.536 0-1.249-1.116-2.441-2.814-3.036 1.479-0.558 2.304-1.461 2.304-2.537 0-1.711-1.917-3.017-4.415-3.017-1.285 0-2.522 0.307-3.493 0.884-0.558 0.346-0.897 0.673-0.897 0.903 0 0.25 0.266 0.462 0.606 0.462 0.171 7e-3 0.337-0.055 0.461-0.173 0.873-0.769 1.866-1.096 3.323-1.096 1.795 0 3.153 0.884 3.153 2.037 0 0.616-0.436 1.211-1.14 1.577-0.582 0.288-1.067 0.384-2.012 0.384zm27.5 3.6v2.21h-1.722c-0.51 0-0.776 0.173-0.776 0.48 0 0.327 0.291 0.5 0.776 0.5h3.687c0.485 0 0.776-0.173 0.776-0.5 0-0.307-0.267-0.48-0.776-0.48h-0.703v-2.21h0.703c0.509 0 0.776-0.173 0.776-0.5 0-0.308-0.267-0.481-0.776-0.481h-0.703v-7.418h-2.256l-5.579 7.381v1.019zm0-0.981h-5.264l4.899-6.439h0.364zm20.8-6.319h5.725c0.534 0 0.8-0.173 0.8-0.5 0-0.308-0.267-0.481-0.8-0.481h-6.985v5.17c0 0.308 0.242 0.519 0.606 0.519 0.146 0 0.267-0.038 0.582-0.154 1.067-0.422 2.038-0.615 3.008-0.615 1.965 0 3.298 1.115 3.298 2.749 0 1.922-1.576 3.228-3.881 3.228-1.358 0-2.619-0.423-3.783-1.249-0.218-0.154-0.34-0.192-0.509-0.192-0.34 0-0.607 0.211-0.607 0.48 0 0.289 0.34 0.577 1.189 1 1.237 0.634 2.45 0.942 3.76 0.942 2.983 0 5.093-1.73 5.093-4.171 0-2.192-1.866-3.767-4.439-3.767-1.043 0-1.867 0.153-3.056 0.519zm24.2 5.5c-0.025-0.192-0.025-0.365-0.025-0.461 0-1.154 0.389-2.306 1.092-3.113 1.164-1.384 3.031-2.249 4.852-2.249 0.436 0 0.8 0.038 1.042 0.134 0.243 0.096 0.34 0.116 0.486 0.116 0.339 0 0.582-0.212 0.582-0.462 0-0.442-0.898-0.769-2.086-0.769-1.597 4e-3 -3.158 0.478-4.487 1.365-1.819 1.211-2.692 2.845-2.692 5.093 0 3.325 2.063 5.67 5.021 5.67 2.425 0 4.317-1.634 4.317-3.728 0-1.981-1.892-3.614-4.196-3.614-1.601 0-3.031 0.73-3.906 2.017zm0.169 1.403c0.558-0.769 0.825-1.096 1.165-1.403 0.776-0.673 1.698-1.038 2.57-1.038 1.601 0 2.936 1.192 2.936 2.633 0 1.557-1.31 2.748-3.032 2.748-1.818 0-2.983-0.922-3.637-2.94zm31.83-6.703-3.881 9.649c-0.042 0.084-0.066 0.175-0.072 0.269 0 0.269 0.267 0.48 0.606 0.48 0.34 0 0.485-0.115 0.631-0.461l3.954-9.803v-1.345h-9.314v1.537c0 0.423 0.218 0.635 0.63 0.635s0.631-0.212 0.631-0.635v-0.557h6.816zm23.8 4.4c1.528-0.634 2.279-1.518 2.279-2.633 0-1.749-2.012-3.211-4.414-3.211s-4.414 1.461-4.414 3.211c0 1.115 0.776 1.998 2.304 2.633-1.625 0.615-2.546 1.653-2.546 2.864 0 1.885 2.085 3.421 4.681 3.421 2.571 0 4.656-1.538 4.656-3.421 0-1.211-0.946-2.268-2.546-2.864zm-2.183-4.862c1.796 0 3.202 0.999 3.202 2.268 0 1.192-1.383 2.114-3.154 2.114s-3.154-0.923-3.154-2.114c0-1.249 1.407-2.268 3.104-2.268zm0 5.344c1.989 0 3.469 1.018 3.469 2.384 0 1.365-1.504 2.441-3.396 2.441-1.917 0-3.421-1.077-3.421-2.441 0-1.326 1.48-2.384 3.348-2.384z" style="paint-order:markers fill stroke"/><path d="m616.2 183.1h15.67v173.1h-15.67z" fill="url(#e)" style="paint-order:markers fill stroke"/><path d="m641.2 183.1h15.67v173.1h-15.67z" fill="#ffa52e" style="paint-order:markers fill stroke"/><path d="m666.5 183.1h15.67v173.1h-15.67z" fill="url(#d)" style="-inkscape-stroke:none;font-variation-settings:normal;paint-order:markers fill stroke"/><path d="m691.6 183.1h15.67v173.1h-15.67z" fill="#2e76ff" style="paint-order:markers fill stroke"/><path d="m716.8 183.1h15.67v173.1h-15.67z" fill="url(#c)" style="-inkscape-stroke:none;font-variation-settings:normal;paint-order:markers fill stroke"/><path d="m741.9 183.1h15.67v173.1h-15.67z" fill="#1fb135" style="paint-order:markers fill stroke"/><path d="m767.1 183.1h15.67v173.1h-15.67z" fill="url(#b)" style="-inkscape-stroke:none;font-variation-settings:normal;paint-order:markers fill stroke"/><path d="m792.2 183.1h15.67v173.1h-15.67z" fill="#745327" style="paint-order:markers fill stroke"/></g><g stroke-width="3.556"><path d="m653.1 533.2v-19.01h6.726v2.722c0 0.784 0.477 1.361 1.172 1.361 0.738 0 1.085-0.412 1.085-1.361v-4.825h-20.26v4.825c0 0.907 0.39 1.361 1.128 1.361s1.128-0.454 1.128-1.361v-2.722h6.769v19.01h-4.296c-0.955 0-1.432 0.371-1.432 1.031 0 0.701 0.52 1.072 1.432 1.072h10.85c0.911 0 1.432-0.371 1.432-1.072 0-0.66-0.477-1.031-1.432-1.031zm33.6-8.3c0.955 0 1.432-0.371 1.432-1.072 0-0.66-0.477-1.031-1.432-1.031h-17.44c-0.911 0-1.389 0.371-1.389 1.031 0 0.701 0.477 1.072 1.389 1.072zm12.8-12.3h10.24c0.955 0 1.432-0.371 1.432-1.072 0-0.66-0.477-1.031-1.432-1.031h-12.5v11.09c0 0.66 0.434 1.114 1.085 1.114 0.26 0 0.477-0.082 1.041-0.33 1.909-0.907 3.645-1.32 5.381-1.32 3.515 0 5.902 2.392 5.902 5.897 0 4.124-2.821 6.93-6.943 6.93-2.43 0-4.687-0.908-6.769-2.682-0.39-0.33-0.607-0.412-0.911-0.412-0.608 0-1.085 0.453-1.085 1.03 0 0.62 0.607 1.238 2.126 2.146 2.213 1.36 4.383 2.02 6.726 2.02 5.337 0 9.113-3.711 9.113-8.948 0-4.702-3.341-8.083-7.941-8.083-1.866 0-3.341 0.33-5.468 1.114zm25.4 11.9c-0.043-0.412-0.043-0.784-0.043-0.99 0-2.474 0.694-4.949 1.953-6.68 2.083-2.97 5.424-4.826 8.679-4.826 0.78 0 1.432 0.083 1.866 0.289 0.433 0.206 0.607 0.247 0.867 0.247 0.608 0 1.041-0.453 1.041-0.99 0-0.948-1.606-1.65-3.732-1.65-2.82 0-5.685 1.032-8.028 2.929-3.255 2.598-4.817 6.104-4.817 10.93 0 7.135 3.688 12.17 8.983 12.17 4.34 0 7.724-3.505 7.724-8.001 0-4.248-3.385-7.753-7.507-7.753-2.864 0-5.424 1.567-6.986 4.33zm0.304 3.011c0.998-1.65 1.475-2.351 2.083-3.011 1.389-1.443 3.038-2.227 4.6-2.227 2.864 0 5.25 2.557 5.25 5.65 0 3.341-2.342 5.897-5.423 5.897-3.255 0-5.337-1.98-6.51-6.31zm34.7-5.011c2.734-1.361 4.079-3.258 4.079-5.65 0-3.753-3.602-6.887-7.898-6.887s-7.898 3.134-7.898 6.887c0 2.392 1.389 4.289 4.122 5.65-2.907 1.32-4.556 3.547-4.556 6.145 0 4.042 3.732 7.341 8.375 7.341 4.6 0 8.332-3.299 8.332-7.341 0-2.598-1.692-4.866-4.556-6.145zm-3.905-10.43c3.211 0 5.728 2.145 5.728 4.866 0 2.557-2.473 4.537-5.641 4.537s-5.641-1.98-5.641-4.537c0-2.681 2.517-4.866 5.554-4.866zm0 11.47c3.558 0 6.205 2.186 6.205 5.114s-2.69 5.238-6.075 5.238c-3.428 0-6.119-2.31-6.119-5.238 0-2.846 2.647-5.114 5.988-5.114zm18.3 9.66h-2.126c-0.911 0-1.389 0.371-1.389 1.031 0 0.701 0.477 1.072 1.389 1.072h13.32c4.079 0 7.377-2.887 7.377-6.434 0-2.639-1.779-4.66-5.164-5.856 2.256-1.278 3.341-2.804 3.341-4.825 0-3.464-3.298-6.104-7.637-6.104h-11.24c-0.911 0-1.389 0.33-1.389 1.031s0.477 1.072 1.389 1.072h2.126zm2.256-10.97v-8.042h6.9c2.994 0 5.337 1.732 5.337 3.959 0 2.392-2.517 4.083-6.075 4.083zm0 10.97v-8.867h6.249c2.604 0 3.992 0.247 5.337 0.99 1.562 0.866 2.473 2.186 2.473 3.588 0 2.392-2.3 4.289-5.251 4.289z" style="paint-order:markers fill stroke"/></g><path d="m614.6 388.3h195v61.39h-195z" fill="#ccc" style="paint-order:markers fill stroke"/><path d="m614.6 449.8h195v-6.507h-195z" fill="#fff" style="paint-order:markers fill stroke"/><g stroke-width="3.555"><path d="m154.8 76.84c-1.994-1.06-4.509-1.63-7.284-1.63-2.905 0-5.55 0.707-7.544 2.011-1.908 1.25-3.165 3.152-3.165 4.809v2.201c0 3.695 5.463 7.038 11.49 7.038 2.818 0 5.507-0.68 7.674-1.929 1.214-0.707 1.734-1.141 1.734-1.467 0-0.38-0.434-0.652-1.084-0.652-0.39 0-0.607 0.081-0.954 0.299-2.34 1.685-4.423 2.364-7.37 2.364-4.987 0-9.236-2.663-9.236-5.815v-1.875c0-3.098 3.772-5.597 8.498-5.597 3.73 0 7.024 1.33 7.241 2.907 0.087 0.516 0.434 0.76 1.127 0.76 0.737 0 1.127-0.298 1.127-0.869v-2.989c0-0.57-0.39-0.842-1.127-0.842s-1.127 0.299-1.127 0.842zm19.7-2.39h-7.067c-0.954 0-1.431 0.245-1.431 0.68 0 0.461 0.477 0.706 1.431 0.706h4.813v13.61h-6.721c-0.91 0-1.387 0.244-1.387 0.68 0 0.461 0.477 0.706 1.387 0.706h15.7c0.91 0 1.431-0.245 1.431-0.707 0-0.435-0.477-0.68-1.431-0.68h-6.721zm26 5h-7.154c-0.954 0-1.387 0.217-1.387 0.68s0.477 0.706 1.387 0.706h4.899v8.613h-6.721c-0.91 0-1.387 0.244-1.387 0.68 0 0.461 0.477 0.706 1.387 0.706h15.7c0.91 0 1.431-0.245 1.431-0.707 0-0.435-0.477-0.68-1.431-0.68h-6.721zm-0.087-5.516h-3.035v3.07h3.035zm18.49 5.516h-4.379c-0.954 0-1.387 0.217-1.387 0.68s0.477 0.706 1.387 0.706h2.125v13.56h-2.125c-0.91 0-1.387 0.244-1.387 0.68 0 0.461 0.477 0.706 1.387 0.706h8.368c0.954 0 1.431-0.245 1.431-0.707 0-0.435-0.477-0.68-1.431-0.68h-3.989v-6.085c1.994 1.549 4.379 2.255 7.544 2.255 5.463 0 9.669-2.527 9.669-5.76 0-3.261-4.162-5.733-9.712-5.733-3.209 0-5.29 0.652-7.501 2.31zm7.371 1.005c4.292 0 7.588 1.902 7.588 4.375 0 2.418-3.295 4.347-7.458 4.347-4.206 0-7.501-1.929-7.501-4.375 0-2.391 3.295-4.347 7.371-4.347zm52.23-1.005h-7.154c-0.954 0-1.387 0.217-1.387 0.68s0.477 0.706 1.387 0.706h4.899v8.613h-6.721c-0.91 0-1.387 0.244-1.387 0.68 0 0.461 0.477 0.706 1.387 0.706h15.7c0.91 0 1.431-0.245 1.431-0.707 0-0.435-0.477-0.68-1.431-0.68h-6.721zm-0.087-5.516h-3.035v3.07h3.035zm18.49 13.7c0-0.435-0.477-0.734-1.127-0.734-0.737 0-1.127 0.3-1.127 0.87v2.2c0 0.572 0.39 0.87 1.127 0.87 0.694 0 1.084-0.299 1.084-0.842 1.648 0.842 3.946 1.277 6.59 1.277 5.116 0 8.758-1.522 8.758-3.668 0-0.978-0.867-1.929-2.255-2.5-1.431-0.598-3.035-0.897-5.723-1.06-3.816-0.272-4.032-0.299-4.986-0.652-0.78-0.299-1.257-0.707-1.257-1.087 0-1.06 2.298-1.848 5.42-1.848 3.165 0 5.333 0.734 5.55 1.848 0.087 0.49 0.434 0.734 1.084 0.734 0.737 0 1.127-0.3 1.127-0.87v-1.848c0-0.57-0.39-0.87-1.084-0.87-0.607 0-1.041 0.272-1.127 0.68-1.474-0.707-3.425-1.06-5.767-1.06-4.379 0-7.631 1.33-7.631 3.152 0 0.897 0.78 1.739 2.081 2.228 1.257 0.489 2.515 0.68 5.723 0.87 2.385 0.162 3.512 0.325 4.639 0.733 1.084 0.353 1.778 0.951 1.778 1.522 0 1.331-2.732 2.31-6.417 2.31-3.555 0-6.46-0.924-6.46-2.065zm52-8.18h-4.379c-0.954 0-1.387 0.217-1.387 0.68s0.477 0.706 1.387 0.706h2.125v13.56h-2.125c-0.91 0-1.387 0.244-1.387 0.68 0 0.461 0.477 0.706 1.387 0.706h8.368c0.954 0 1.431-0.245 1.431-0.707 0-0.435-0.477-0.68-1.431-0.68h-3.989v-6.085c1.994 1.549 4.379 2.255 7.544 2.255 5.463 0 9.669-2.527 9.669-5.76 0-3.261-4.162-5.733-9.712-5.733-3.208 0-5.29 0.652-7.501 2.31zm7.371 1.005c4.292 0 7.588 1.902 7.588 4.375 0 2.418-3.295 4.347-7.458 4.347-4.206 0-7.501-1.929-7.501-4.375 0-2.391 3.295-4.347 7.371-4.347zm25.33-1.385c-5.81 0-10.28 2.663-10.28 6.114 0 3.369 4.509 6.086 10.15 6.086 5.637 0 10.1-2.69 10.1-6.114 0-3.342-4.466-6.086-9.972-6.086zm-0.26 1.386c4.509 0 7.978 2.038 7.978 4.728 0 2.608-3.47 4.701-7.848 4.701s-7.891-2.092-7.891-4.728c0-2.581 3.469-4.701 7.76-4.701zm27.26-1.006h-7.154c-0.954 0-1.387 0.217-1.387 0.68s0.477 0.706 1.387 0.706h4.899v8.613h-6.721c-0.91 0-1.387 0.244-1.387 0.68 0 0.461 0.477 0.706 1.387 0.706h15.7c0.91 0 1.431-0.245 1.431-0.707 0-0.435-0.477-0.68-1.431-0.68h-6.721zm-0.087-5.516h-3.035v3.07h3.035zm19.49 5.516h-3.512c-0.954 0-1.387 0.217-1.387 0.68s0.477 0.706 1.387 0.706h1.257v8.613h-1.734c-0.954 0-1.431 0.244-1.431 0.68 0 0.461 0.52 0.706 1.431 0.706h5.723c0.91 0 1.387-0.245 1.387-0.707 0-0.435-0.477-0.68-1.387-0.68h-1.734v-6.547c2.645-2.038 3.729-2.445 6.374-2.445 1.561 0 2.385 0.163 3.339 0.652 1.041 0.543 1.561 1.168 1.561 1.902v6.44h-1.214c-0.954 0-1.431 0.245-1.431 0.68 0 0.461 0.52 0.706 1.431 0.706h4.726c0.867 0 1.387-0.245 1.387-0.707 0-0.434-0.477-0.68-1.387-0.68h-1.257v-6.629c0-2.118-3.035-3.75-7.024-3.75-2.645 0-4.206 0.49-6.504 2.012zm26.8 0v-3.043c0-0.57-0.39-0.842-1.127-0.842s-1.127 0.299-1.127 0.842v3.043h-2.992c-0.954 0-1.431 0.217-1.431 0.68s0.477 0.706 1.431 0.706h2.992v7.01c0 2.065 2.732 3.424 6.981 3.424 2.038 0 4.466-0.3 6.547-0.788 1.604-0.38 2.298-0.734 2.298-1.141 0-0.38-0.477-0.68-1.084-0.68-0.217 0-0.39 0.028-0.78 0.19-1.691 0.599-4.683 1.034-7.067 1.034-2.862 0-4.64-0.815-4.64-2.092v-6.956h9.28c0.953 0 1.43-0.245 1.43-0.707s-0.476-0.68-1.43-0.68zm40.5 6.08v-0.408c0-3.478-4.336-6.059-10.15-6.059-5.723 0-10.15 2.554-10.15 5.842 0 3.587 4.726 6.358 10.75 6.358 4.206 0 9.365-1.304 9.365-2.337 0-0.38-0.477-0.679-1.084-0.679-0.26 0-0.434 0.054-0.78 0.218-1.734 0.815-4.856 1.412-7.458 1.412-4.51 0-7.891-1.738-8.498-4.346zm-17.99-1.386c0.737-2.228 3.859-3.695 7.848-3.695 3.946 0 7.111 1.494 7.805 3.695zm43.19-9.694h-4.379c-0.91 0-1.387 0.245-1.387 0.68 0 0.461 0.477 0.706 1.387 0.706h2.125v5.706c-1.951-1.63-4.553-2.473-7.631-2.473-5.333 0-9.626 2.717-9.626 6.086s4.292 6.114 9.582 6.114c3.078 0 5.767-0.87 7.674-2.473v2.038h4.379c0.91 0 1.387-0.245 1.387-0.707 0-0.434-0.477-0.679-1.387-0.679h-2.125zm-9.842 6.005c4.292 0 7.588 2.038 7.588 4.728 0 2.608-3.339 4.701-7.501 4.701-4.206 0-7.501-2.092-7.501-4.728 0-2.608 3.295-4.701 7.414-4.701zm57.84 10.38h4.379c0.91 0 1.387-0.245 1.387-0.706 0-0.435-0.477-0.68-1.387-0.68h-2.125v-6.956c0-1.984-3.078-3.424-7.241-3.424-1.648 0-4.466 0.353-6.851 0.87-0.607 0.136-0.91 0.353-0.91 0.679 0 0.38 0.477 0.68 1.04 0.68 0.217 0 0.347-0.028 0.911-0.137 2.471-0.489 4.292-0.706 5.68-0.706 3.035 0 5.116 0.815 5.116 2.038v1.685c-2.602-0.408-3.685-0.49-5.637-0.49-5.637 0-9.409 1.63-9.409 4.05 0 2.092 2.818 3.532 6.981 3.532 2.992 0 5.376-0.598 8.065-2.038zm0-3.206c-2.818 1.63-5.073 2.255-8.065 2.255-2.905 0-4.726-0.842-4.726-2.147 0-1.576 3.035-2.663 7.371-2.663 1.908 0 3.989 0.136 5.42 0.353zm27.4 3.206 3.555-9.999h0.65c0.954 0 1.431-0.244 1.431-0.706s-0.433-0.68-1.43-0.68h-4.814c-0.954 0-1.387 0.218-1.387 0.68s0.477 0.706 1.387 0.706h1.908l-2.775 7.853-3.599-6.44h-2.558l-3.555 6.44-2.862-7.853h1.994c0.91 0 1.431-0.244 1.431-0.706s-0.476-0.68-1.43-0.68h-4.814c-0.953 0-1.387 0.218-1.387 0.68s0.477 0.706 1.387 0.706h0.65l3.643 9.999h2.558l3.729-6.63 3.772 6.63zm24.6 0h4.379c0.91 0 1.387-0.245 1.387-0.706 0-0.435-0.477-0.68-1.387-0.68h-2.125v-6.956c0-1.984-3.078-3.424-7.241-3.424-1.648 0-4.466 0.353-6.851 0.87-0.607 0.136-0.91 0.353-0.91 0.679 0 0.38 0.476 0.68 1.04 0.68 0.217 0 0.347-0.028 0.911-0.137 2.471-0.489 4.292-0.706 5.68-0.706 3.035 0 5.116 0.815 5.116 2.038v1.685c-2.601-0.408-3.685-0.49-5.637-0.49-5.637 0-9.409 1.63-9.409 4.05 0 2.092 2.818 3.532 6.981 3.532 2.992 0 5.376-0.598 8.065-2.038zm0-3.206c-2.818 1.63-5.073 2.255-8.065 2.255-2.905 0-4.726-0.842-4.726-2.147 0-1.576 3.035-2.663 7.371-2.663 1.908 0 3.989 0.136 5.42 0.353zm20.1 3.046-2.948 3.723h-5.376c-0.91 0-1.387 0.245-1.387 0.68 0 0.461 0.477 0.706 1.387 0.706h10.1c0.954 0 1.431-0.245 1.431-0.707 0-0.435-0.477-0.679-1.431-0.679h-2.428l10.88-13.56h0.434c0.954 0 1.43-0.244 1.43-0.706s-0.476-0.68-1.43-0.68h-4.77c-0.91 0-1.386 0.218-1.386 0.68s0.477 0.706 1.387 0.706h1.994l-6.634 8.342-6.721-8.342h1.864c0.91 0 1.43-0.244 1.43-0.706s-0.476-0.68-1.43-0.68h-4.986c-0.91 0-1.387 0.218-1.387 0.68s0.477 0.706 1.387 0.706h0.563zm52-9.84h7.978c0.91 0 1.387-0.244 1.387-0.706s-0.477-0.68-1.387-0.68h-7.978v-1.494c0-1.25 1.864-2.119 4.596-2.119 1.604 0 2.862 0.082 5.376 0.3 0.304 0.026 0.477 0.026 0.564 0.026 0.693 0 1.17-0.271 1.17-0.679 0-0.353-0.346-0.598-0.953-0.68-1.387-0.19-4.38-0.353-6.114-0.353-3.99 0-6.894 1.467-6.894 3.505v1.494h-3.555c-0.954 0-1.431 0.245-1.431 0.68 0 0.462 0.477 0.706 1.43 0.706h3.556v8.613h-3.99c-0.953 0-1.43 0.245-1.43 0.68 0 0.461 0.52 0.706 1.43 0.706h13.7c0.911 0 1.432-0.245 1.432-0.706 0-0.435-0.477-0.68-1.431-0.68h-7.458zm25.1-1.38h-5.246c-0.91 0-1.431 0.245-1.431 0.68s0.52 0.706 1.431 0.706h2.992v8.613h-3.946c-0.91 0-1.431 0.272-1.431 0.68 0 0.461 0.52 0.706 1.431 0.706h13.74c0.867 0 1.387-0.245 1.387-0.707 0-0.407-0.52-0.68-1.387-0.68h-7.544v-5.651c4.683-2.636 6.114-3.233 7.978-3.233 0.867 0 1.648 0.244 2.688 0.897 0.347 0.19 0.477 0.244 0.867 0.244 0.65 0 1.127-0.299 1.127-0.734 0-0.271-0.26-0.516-1.084-0.923-1.17-0.625-2.125-0.87-3.469-0.87-2.255 0-4.292 0.707-8.108 2.826zm28.1-0.38c-5.81 0-10.28 2.663-10.28 6.114 0 3.369 4.509 6.086 10.15 6.086 5.637 0 10.1-2.69 10.1-6.114 0-3.342-4.466-6.086-9.972-6.086zm-0.26 1.386c4.509 0 7.978 2.038 7.978 4.728 0 2.608-3.47 4.701-7.848 4.701s-7.891-2.092-7.891-4.728c0-2.581 3.469-4.701 7.76-4.701zm18.26-1.006h-3.469c-0.954 0-1.387 0.217-1.387 0.68s0.477 0.706 1.387 0.706h1.257v8.613h-1.257c-0.91 0-1.387 0.244-1.387 0.68s0.52 0.706 1.344 0.706h4.726c0.91 0 1.431-0.245 1.431-0.68 0-0.462-0.477-0.706-1.431-0.706h-1.214v-6.93c1.561-1.44 2.862-2.064 4.336-2.064 1.344 0 2.558 0.87 2.558 1.82v8.56h3.469c0.91 0 1.387-0.245 1.387-0.707 0-0.434-0.477-0.679-1.387-0.679h-1.257v-6.929c1.561-1.44 2.818-2.065 4.249-2.065s2.645 0.815 2.645 1.739v8.641h3.469c0.867 0 1.387-0.245 1.387-0.706 0-0.435-0.477-0.68-1.387-0.68h-1.257v-7.364c0-1.657-2.168-3.016-4.813-3.016-1.778 0-3.078 0.462-4.813 1.766-1.041-1.196-2.428-1.766-4.249-1.766-1.734 0-2.992 0.435-4.336 1.467zm58.9 11.22-2.948 3.723h-5.376c-0.91 0-1.387 0.245-1.387 0.68 0 0.461 0.477 0.706 1.387 0.706h10.1c0.954 0 1.431-0.245 1.431-0.707 0-0.435-0.477-0.679-1.431-0.679h-2.428l10.88-13.56h0.434c0.954 0 1.43-0.244 1.43-0.706s-0.476-0.68-1.43-0.68h-4.77c-0.91 0-1.386 0.218-1.386 0.68s0.477 0.706 1.387 0.706h1.994l-6.634 8.342-6.721-8.342h1.864c0.91 0 1.43-0.244 1.43-0.706s-0.476-0.68-1.43-0.68h-4.986c-0.91 0-1.387 0.218-1.387 0.68s0.477 0.706 1.387 0.706h0.563zm27.2-11.6c-5.81 0-10.28 2.663-10.28 6.114 0 3.369 4.509 6.086 10.15 6.086 5.637 0 10.1-2.69 10.1-6.114 0-3.342-4.466-6.086-9.972-6.086zm-0.26 1.386c4.509 0 7.978 2.038 7.978 4.728 0 2.608-3.47 4.701-7.848 4.701s-7.891-2.092-7.891-4.728c0-2.581 3.469-4.701 7.76-4.701zm31.86 10.37h3.512c0.91 0 1.387-0.245 1.387-0.706 0-0.435-0.477-0.68-1.387-0.68h-1.257v-9.999h-5.246c-0.997 0-1.431 0.218-1.431 0.68s0.477 0.706 1.431 0.706h2.992v6.739c-2.341 1.549-4.856 2.31-7.674 2.31-2.081 0-3.729-0.978-3.729-2.255v-8.179h-4.379c-0.954 0-1.387 0.217-1.387 0.68s0.477 0.706 1.387 0.706h2.125v6.793c0 2.2 2.428 3.64 6.027 3.64 2.775 0 5.246-0.651 7.631-2.01z" style="paint-order:markers fill stroke"/></g><g stroke-width="3.556"><path d="m558.2 36.6h5.814v1.781c0 0.913 0.39 1.415 1.128 1.415s1.128-0.457 1.128-1.415v-5.89c0-0.959-0.39-1.461-1.128-1.461s-1.128 0.502-1.128 1.461v1.781h-5.814v-8.903h12.23v4.155c0 0.959 0.39 1.461 1.128 1.461s1.128-0.502 1.128-1.461v-6.483h-18.87c-0.911 0-1.388 0.365-1.388 1.141s0.477 1.187 1.388 1.187h2.126v21.05h-2.126c-0.911 0-1.388 0.41-1.388 1.141 0 0.776 0.477 1.187 1.388 1.187h19.78v-7.396c0-0.959-0.39-1.461-1.128-1.461s-1.128 0.502-1.128 1.461v5.068h-13.15zm26.9-6.98v-5.113c0-0.959-0.39-1.415-1.128-1.415s-1.128 0.502-1.128 1.415v5.113h-2.994c-0.955 0-1.432 0.365-1.432 1.141s0.477 1.187 1.432 1.187h2.994v11.78c0 3.47 2.733 5.753 6.985 5.753 2.039 0 4.469-0.502 6.551-1.324 1.605-0.64 2.299-1.233 2.299-1.918 0-0.64-0.477-1.141-1.085-1.141-0.217 0-0.39 0.046-0.781 0.32-1.692 1.004-4.686 1.735-7.072 1.735-2.863 0-4.642-1.37-4.642-3.515v-11.69h9.285c0.954 0 1.432-0.411 1.432-1.187s-0.477-1.141-1.432-1.141zm25.1-8.4h-4.382c-0.911 0-1.388 0.41-1.388 1.141 0 0.776 0.477 1.187 1.388 1.187h2.126v22.87h-1.735c-0.954 0-1.432 0.41-1.432 1.141 0 0.776 0.52 1.187 1.432 1.187h5.727c0.911 0 1.432-0.41 1.432-1.187 0-0.73-0.477-1.141-1.432-1.141h-1.735v-11.09c1.171-1.37 1.909-2.237 2.169-2.465 1.258-1.096 2.43-1.552 4.078-1.552 1.692 0 2.56 0.274 3.514 1.096 1.041 0.868 1.562 1.918 1.562 3.196v10.82h-1.735c-0.911 0-1.388 0.41-1.388 1.141 0 0.776 0.477 1.187 1.388 1.187h5.727c0.911 0 1.432-0.41 1.432-1.187 0-0.73-0.477-1.141-1.432-1.141h-1.735v-10.96c0-3.744-2.994-6.483-7.115-6.483-2.603 0-4.382 0.913-6.465 3.333zm41.5 18.62v-0.685c0-5.844-4.339-10.18-10.15-10.18-5.727 0-10.15 4.292-10.15 9.816 0 6.027 4.729 10.68 10.76 10.68 4.208 0 9.371-2.19 9.371-3.926 0-0.639-0.477-1.14-1.085-1.14-0.26 0-0.434 0.09-0.781 0.364-1.735 1.37-4.859 2.374-7.462 2.374-4.512 0-7.896-2.922-8.504-7.305zm-18.01-2.328c0.738-3.744 3.861-6.209 7.853-6.209 3.948 0 7.115 2.511 7.81 6.209zm32.31-7.892h-5.25c-0.911 0-1.432 0.41-1.432 1.141 0 0.73 0.52 1.187 1.432 1.187h2.994v14.47h-3.948c-0.911 0-1.432 0.457-1.432 1.141 0 0.776 0.52 1.187 1.432 1.187h13.75c0.868 0 1.388-0.41 1.388-1.187 0-0.685-0.52-1.141-1.388-1.141h-7.549v-9.496c4.686-4.429 6.117-5.433 7.983-5.433 0.868 0 1.649 0.41 2.69 1.507 0.347 0.32 0.477 0.41 0.868 0.41 0.65 0 1.128-0.501 1.128-1.232 0-0.457-0.26-0.868-1.085-1.552-1.171-1.05-2.126-1.461-3.471-1.461-2.256 0-4.295 1.187-8.113 4.748zm22.4 0h-3.514c-0.954 0-1.388 0.365-1.388 1.141s0.477 1.187 1.388 1.187h1.258v14.47h-1.735c-0.954 0-1.432 0.41-1.432 1.141 0 0.776 0.52 1.187 1.432 1.187h5.727c0.911 0 1.388-0.41 1.388-1.187 0-0.73-0.477-1.141-1.388-1.141h-1.735v-11c2.647-3.424 3.731-4.109 6.378-4.109 1.562 0 2.386 0.274 3.341 1.096 1.041 0.913 1.562 1.963 1.562 3.196v10.82h-1.215c-0.954 0-1.432 0.41-1.432 1.141 0 0.776 0.52 1.187 1.432 1.187h4.729c0.868 0 1.388-0.41 1.388-1.187 0-0.73-0.477-1.141-1.388-1.141h-1.258v-11.14c0-3.561-3.037-6.3-7.029-6.3-2.647 0-4.208 0.822-6.508 3.379zm41.4 10.22v-0.685c0-5.844-4.339-10.18-10.15-10.18-5.727 0-10.15 4.292-10.15 9.816 0 6.027 4.729 10.68 10.76 10.68 4.208 0 9.371-2.19 9.371-3.926 0-0.639-0.477-1.14-1.085-1.14-0.26 0-0.434 0.09-0.781 0.364-1.735 1.37-4.859 2.374-7.462 2.374-4.512 0-7.896-2.922-8.504-7.305zm-18.01-2.328c0.738-3.744 3.861-6.209 7.853-6.209 3.948 0 7.115 2.511 7.81 6.209zm29.51-7.892v-5.113c0-0.959-0.39-1.415-1.128-1.415s-1.128 0.502-1.128 1.415v5.113h-2.994c-0.955 0-1.432 0.365-1.432 1.141s0.477 1.187 1.432 1.187h2.994v11.78c0 3.47 2.733 5.753 6.985 5.753 2.039 0 4.469-0.502 6.551-1.324 1.605-0.64 2.299-1.233 2.299-1.918 0-0.64-0.477-1.141-1.085-1.141-0.217 0-0.39 0.046-0.78 0.32-1.693 1.004-4.687 1.735-7.073 1.735-2.863 0-4.642-1.37-4.642-3.515v-11.69h9.285c0.955 0 1.432-0.411 1.432-1.187s-0.477-1.141-1.432-1.141zm64 1.55c-1.735-1.415-4.035-2.191-6.595-2.191-5.944 0-10.2 4.337-10.2 10.41 0 5.89 4.165 10.09 10.02 10.09 2.907 0 5.77-0.867 8.07-2.511 1.302-0.913 1.952-1.735 1.952-2.374 0-0.594-0.477-1.096-1.041-1.096-0.347 0-0.564 0.091-0.955 0.502-2.169 2.1-4.816 3.15-7.94 3.15-4.599 0-7.853-3.196-7.853-7.807 0-4.794 3.167-8.035 7.81-8.035 3.558 0 6.465 1.735 6.725 4.018 0.087 0.913 0.434 1.278 1.085 1.278 0.738 0 1.128-0.502 1.128-1.415v-4.109c0-0.959-0.39-1.46-1.128-1.46-0.737 0-1.085 0.501-1.085 1.46zm23.7 17.58h4.382c0.911 0 1.388-0.41 1.388-1.187 0-0.73-0.477-1.141-1.388-1.141h-2.126v-11.69c0-3.333-3.08-5.753-7.246-5.753-1.649 0-4.469 0.594-6.855 1.461-0.607 0.228-0.911 0.594-0.911 1.141 0 0.64 0.477 1.141 1.04 1.141 0.218 0 0.348-0.046 0.912-0.228 2.473-0.822 4.295-1.187 5.684-1.187 3.037 0 5.12 1.37 5.12 3.424v2.83c-2.603-0.684-3.688-0.821-5.64-0.821-5.64 0-9.415 2.739-9.415 6.803 0 3.515 2.82 5.935 6.985 5.935 2.994 0 5.38-1.004 8.07-3.424zm0-5.387c-2.82 2.739-5.076 3.789-8.07 3.789-2.907 0-4.729-1.415-4.729-3.607 0-2.648 3.037-4.474 7.376-4.474 1.909 0 3.992 0.228 5.423 0.594zm14.6-22.14h-4.382c-0.911 0-1.388 0.41-1.388 1.141 0 0.776 0.477 1.187 1.388 1.187h2.126v22.87h-2.126c-0.911 0-1.388 0.41-1.388 1.141 0 0.776 0.477 1.187 1.388 1.187h4.382v-3.424c2.083 2.831 4.512 4.155 7.593 4.155 5.337 0 9.632-4.611 9.632-10.32 0-5.707-4.252-10.18-9.632-10.18-3.037 0-5.64 1.415-7.593 4.109zm7.376 10.09c4.295 0 7.593 3.47 7.593 7.944 0 4.383-3.341 7.898-7.506 7.898-4.122 0-7.462-3.515-7.462-7.944 0-4.337 3.297-7.898 7.376-7.898zm26.32-10.09h-7.072c-0.954 0-1.432 0.41-1.432 1.141 0 0.776 0.477 1.187 1.432 1.187h4.816v22.87h-6.725c-0.911 0-1.388 0.41-1.388 1.141 0 0.776 0.477 1.187 1.388 1.187h15.71c0.911 0 1.432-0.41 1.432-1.187 0-0.73-0.477-1.141-1.432-1.141h-6.725zm34.7 18.62v-0.685c0-5.844-4.339-10.18-10.15-10.18-5.727 0-10.15 4.292-10.15 9.816 0 6.027 4.729 10.68 10.76 10.68 4.208 0 9.371-2.19 9.371-3.926 0-0.639-0.477-1.14-1.085-1.14-0.26 0-0.434 0.09-0.78 0.364-1.736 1.37-4.86 2.374-7.463 2.374-4.512 0-7.896-2.922-8.504-7.305zm-18.01-2.328c0.738-3.744 3.861-6.209 7.853-6.209 3.948 0 7.115 2.511 7.81 6.209z" style="paint-order:markers fill stroke"/></g><g transform="matrix(1.458 0 0 1 -234.3 0)" stop-color="#000000" stroke-width="4.968" style="paint-order:markers fill stroke" aria-label="Crosower"><path d="m263.5 24.09c-2.67-1.865-6.037-2.869-9.752-2.869-3.889 0-7.431 1.243-10.1 3.539-2.554 2.2-4.237 5.547-4.237 8.464v3.873c0 6.503 7.314 12.39 15.38 12.39 3.773 0 7.372-1.196 10.28-3.395 1.625-1.243 2.321-2.008 2.321-2.582 0-0.6694-0.58-1.148-1.451-1.148-0.522 0-0.812 0.1434-1.277 0.526-3.135 2.965-5.921 4.16-9.868 4.16-6.676 0-12.36-4.686-12.36-10.23v-3.3c0-5.451 5.05-9.851 11.38-9.851 4.992 0 9.404 2.343 9.694 5.117 0.116 0.9086 0.581 1.339 1.509 1.339 0.987 0 1.51-0.526 1.51-1.53v-5.26c0-1.004-0.523-1.482-1.51-1.482-0.986 0-1.509 0.526-1.509 1.482z"/><path d="m285.7 28.68h-7.024c-1.219 0-1.916 0.4303-1.916 1.195s0.697 1.243 1.916 1.243h4.006v15.16h-5.283c-1.219 0-1.916 0.4782-1.916 1.196 0 0.8129 0.697 1.243 1.916 1.243h18.4c1.161 0 1.857-0.4304 1.857-1.243 0-0.7173-0.696-1.196-1.857-1.196h-10.1v-9.946c6.269-4.638 8.185-5.69 10.68-5.69 1.161 0 2.206 0.4304 3.599 1.578 0.465 0.3347 0.639 0.4303 1.161 0.4303 0.871 0 1.51-0.526 1.51-1.291 0-0.4782-0.349-0.9085-1.452-1.626-1.567-1.1-2.844-1.53-4.644-1.53-3.018 0-5.747 1.243-10.86 4.973z"/><path d="m323.3 28.01c-7.778 0-13.76 4.686-13.76 10.76 0 5.93 6.037 10.71 13.58 10.71 7.547 0 13.53-4.734 13.53-10.76 0-5.882-5.979-10.71-13.35-10.71zm-0.348 2.439c6.037 0 10.68 3.586 10.68 8.32 0 4.591-4.644 8.273-10.51 8.273s-10.56-3.682-10.56-8.32c0-4.543 4.644-8.273 10.39-8.273z"/><path d="m349.2 43.07c0-0.7651-0.638-1.291-1.509-1.291-0.987 0-1.509 0.526-1.509 1.53v3.873c0 1.004 0.522 1.53 1.509 1.53 0.929 0 1.451-0.526 1.451-1.482 2.206 1.482 5.283 2.248 8.824 2.248 6.85 0 11.73-2.678 11.73-6.456 0-1.721-1.161-3.395-3.019-4.399-1.915-1.052-4.063-1.578-7.662-1.865-5.109-0.4782-5.399-0.526-6.676-1.148-1.045-0.526-1.683-1.243-1.683-1.913 0-1.865 3.076-3.252 7.256-3.252 4.238 0 7.14 1.291 7.43 3.252 0.116 0.8607 0.581 1.291 1.451 1.291 0.987 0 1.51-0.526 1.51-1.53v-3.252c0-1.004-0.523-1.53-1.451-1.53-0.813 0-1.394 0.4782-1.51 1.195-1.973-1.243-4.586-1.865-7.72-1.865-5.863 0-10.22 2.343-10.22 5.547 0 1.578 1.045 3.06 2.786 3.921 1.684 0.8607 3.367 1.195 7.663 1.53 3.193 0.2869 4.702 0.5738 6.211 1.291 1.451 0.6216 2.38 1.674 2.38 2.678 0 2.343-3.657 4.065-8.591 4.065-4.76 0-8.65-1.626-8.65-3.634z"/><path d="m393 28.01c-7.779 0-13.76 4.686-13.76 10.76 0 5.93 6.037 10.71 13.58 10.71 7.546 0 13.52-4.734 13.52-10.76 0-5.882-5.979-10.71-13.35-10.71zm-0.348 2.439c6.037 0 10.68 3.586 10.68 8.32 0 4.591-4.644 8.273-10.51 8.273s-10.56-3.682-10.56-8.32c0-4.543 4.644-8.273 10.39-8.273z"/><path d="m436.1 48.72 4.76-17.6h0.87c1.278 0 1.916-0.4303 1.916-1.243 0-0.8129-0.58-1.195-1.916-1.195h-6.443c-1.277 0-1.858 0.3825-1.858 1.195 0 0.813 0.639 1.243 1.858 1.243h2.554l-3.715 13.82-4.818-11.33h-3.425l-4.76 11.33-3.831-13.82h2.67c1.219 0 1.916-0.4303 1.916-1.243 0-0.8129-0.639-1.195-1.916-1.195h-6.444c-1.277 0-1.857 0.3825-1.857 1.195 0 0.813 0.638 1.243 1.857 1.243h0.871l4.876 17.6h3.425l4.992-11.67 5.051 11.67z"/><path d="m475.6 39.39v-0.7173c0-6.121-5.805-10.66-13.58-10.66-7.663 0-13.58 4.495-13.58 10.28 0 6.312 6.328 11.19 14.4 11.19 5.631 0 12.54-2.295 12.54-4.112 0-0.6695-0.638-1.196-1.451-1.196-0.348 0-0.581 0.0956-1.045 0.3826-2.322 1.434-6.502 2.486-9.984 2.486-6.038 0-10.56-3.06-11.38-7.651zm-24.09-2.439c0.987-3.921 5.166-6.503 10.51-6.503 5.282 0 9.52 2.63 10.45 6.503z"/><path d="m494.7 28.68h-7.024c-1.219 0-1.916 0.4303-1.916 1.195s0.697 1.243 1.916 1.243h4.005v15.16h-5.282c-1.219 0-1.916 0.4782-1.916 1.196 0 0.8129 0.697 1.243 1.916 1.243h18.4c1.161 0 1.858-0.4304 1.858-1.243 0-0.7173-0.697-1.196-1.858-1.196h-10.1v-9.946c6.269-4.638 8.185-5.69 10.68-5.69 1.161 0 2.206 0.4304 3.599 1.578 0.464 0.3347 0.638 0.4303 1.161 0.4303 0.871 0 1.509-0.526 1.509-1.291 0-0.4782-0.348-0.9085-1.451-1.626-1.567-1.1-2.844-1.53-4.644-1.53-3.019 0-5.747 1.243-10.86 4.973z"/></g></svg>
