<svg viewBox="0 0 1024 1024" xmlns="http://www.w3.org/2000/svg" xmlns:xlink="http://www.w3.org/1999/xlink"><defs><linearGradient id="a"><stop stop-color="#fff" offset=".603"/><stop stop-color="#2e76ff" offset=".603"/></linearGradient><linearGradient id="y"><stop stop-color="#fff" offset=".603"/><stop stop-color="#ffa52e" offset=".603"/></linearGradient><linearGradient id="g"><stop stop-color="#fff" offset=".603"/><stop stop-color="#1fb135" offset=".603"/></linearGradient><linearGradient id="n"><stop stop-color="#fff" offset=".603"/><stop stop-color="#745327" offset=".603"/></linearGradient><linearGradient id="j" x1="405.9" x2="409.1" y1="165.9" y2="171" gradientTransform="matrix(1 0 0 3.265 4.777 -299.1)" gradientUnits="userSpaceOnUse" spreadMethod="repeat" xlink:href="#y"/><linearGradient id="i" x1="405.9" x2="409.1" y1="165.9" y2="171" gradientTransform="matrix(1 0 0 3.265 4.777 -299.1)" gradientUnits="userSpaceOnUse" spreadMethod="repeat" xlink:href="#a"/><linearGradient id="h" x1="405.9" x2="409.1" y1="165.9" y2="171" gradientTransform="matrix(1 0 0 3.265 4.777 -299.1)" gradientUnits="userSpaceOnUse" spreadMethod="repeat" xlink:href="#g"/><linearGradient id="f" x1="405.9" x2="409.1" y1="165.9" y2="171" gradientTransform="matrix(1 0 0 3.265 4.777 -299.1)" gradientUnits="userSpaceOnUse" spreadMethod="repeat" xlink:href="#n"/><linearGradient id="e" x1="405.9" x2="409.1" y1="165.9" y2="171" gradientTransform="matrix(1 0 0 3.265 229.8 -299.1)" gradientUnits="userSpaceOnUse" spreadMethod="repeat" xlink:href="#y"/><linearGradient id="d" x1="405.9" x2="409.1" y1="165.9" y2="171" gradientTransform="matrix(1 0 0 3.265 229.8 -299.1)" gradientUnits="userSpaceOnUse" spreadMethod="repeat" xlink:href="#g"/><linearGradient id="c" x1="405.9" x2="409.1" y1="165.9" y2="171" gradientTransform="matrix(1 0 0 3.265 229.8 -299.1)" gradientUnits="userSpaceOnUse" spreadMethod="repeat" xlink:href="#a"/><linearGradient id="b" x1="405.9" x2="409.1" y1="165.9" y2="171" gradientTransform="matrix(1 0 0 3.265 229.8 -299.1)" gradientUnits="userSpaceOnUse" spreadMethod="repeat" xlink:href="#n"/></defs><path d="M0 0h1024v1024H0z" fill="#fff" fill-opacity=".34" style="paint-order:markers fill stroke"/><path d="M447.6 173.6h2.862c1.704 1.006 2.658 2.472 4.68 7.07h1.34c.477 0 .75-.259.75-.747 0-.46-.25-.719-.75-.719h-.613c-1.75-3.736-2.431-4.886-3.726-6.036 1.954-.833 3.02-2.299 3.02-4.139 0-2.443-1.93-4.54-4.202-4.54h-5.656c-.477 0-.727.23-.727.718s.25.747.727.747h1.113v13.25h-1.113c-.477 0-.727.259-.727.718 0 .489.25.748.727.748h3.862c.477 0 .75-.259.75-.748 0-.46-.25-.718-.75-.718H447.6zm0-1.466v-6.179h3.339c1.59 0 3.044 1.466 3.044 3.075 0 1.696-1.772 3.104-3.907 3.104zM467.9 166h2.067c.477 0 .727-.259.727-.747s-.25-.719-.727-.719h-6.724c-.5 0-.75.23-.75.719s.273.747.75.747h3.476v9.887c0 2.127-1.408 3.822-3.203 3.822-1.09 0-2.113-.575-3.226-1.839v-3.593c0-.604-.204-.92-.59-.92s-.591.316-.591.92v4.282c1.772 1.954 2.885 2.615 4.384 2.615 2.408 0 4.407-2.385 4.407-5.288zm14.5 7.5c.5 0 .75-.259.75-.747 0-.46-.25-.719-.75-.719h-9.132c-.477 0-.727.259-.727.719 0 .488.25.747.727.747zm10.6 2.4v3.305h-1.613c-.477 0-.727.259-.727.719 0 .488.273.747.727.747h3.453c.454 0 .727-.259.727-.747 0-.46-.25-.719-.727-.719h-.659V175.9h.659c.477 0 .727-.259.727-.747 0-.46-.25-.719-.727-.719h-.659v-11.09h-2.113l-5.225 11.04v1.523zm0-1.466h-4.93l4.589-9.628h.34zm9.7-9.634h5.361c.5 0 .75-.259.75-.747 0-.46-.25-.719-.75-.719h-6.542v7.731c0 .46.227.776.568.776.136 0 .25-.057.545-.23 1-.632 1.908-.92 2.817-.92 1.84 0 3.09 1.668 3.09 4.11 0 2.875-1.478 4.829-3.636 4.829-1.272 0-2.453-.633-3.544-1.868-.204-.23-.318-.288-.477-.288-.318 0-.568.316-.568.719 0 .43.318.862 1.113 1.495 1.16.948 2.294 1.408 3.521 1.408 2.794 0 4.77-2.587 4.77-6.237 0-3.276-1.749-5.633-4.157-5.633-.977 0-1.749.23-2.862.776zm26.7 9.4h2.862c2.635 0 4.725-2.156 4.725-4.886 0-2.702-1.931-4.8-4.407-4.8h-5.475c-.477 0-.727.23-.727.718s.25.748.727.748h1.113v13.25h-1.113c-.477 0-.727.258-.727.718 0 .489.25.747.727.747h5.316c.477 0 .75-.258.75-.747 0-.46-.25-.718-.75-.718H529.4zm0-1.466v-6.754h3.248c1.749 0 3.158 1.495 3.158 3.334 0 1.868-1.567 3.42-3.476 3.42zm15-6.734h2.067c.477 0 .727-.259.727-.747s-.25-.719-.727-.719h-5.316c-.477 0-.727.23-.727.719s.25.747.727.747h2.067v13.25h-2.067c-.477 0-.727.259-.727.719 0 .488.25.747.727.747h10.38v-5.834c0-.575-.204-.891-.59-.891s-.591.316-.591.89v4.37h-5.952zm19.8 0h.659c.477 0 .727-.259.727-.747s-.227-.719-.727-.719h-3.407c-.477 0-.727.23-.727.719s.25.747.727.747h1.567v9.341c0 2.472-1.522 4.369-3.476 4.369-1.931 0-3.453-1.897-3.453-4.369V166h1.567c.477 0 .727-.259.727-.747s-.25-.719-.727-.719h-3.385c-.5 0-.75.23-.75.719s.25.747.75.747h.636v9.341c0 3.305 1.999 5.834 4.634 5.834s4.657-2.529 4.657-5.834zm14.1 8.8h.204c.477 0 .75-.259.75-.747 0-.46-.25-.719-.75-.719h-4.407c-.5 0-.75.23-.75.719s.25.747.75.747h3.021v3.966c-1.249.719-1.954.92-3.112.92-3.226 0-5.157-2.271-5.157-6.036v-2.07c0-1.58.614-3.333 1.59-4.483.84-1.006 1.817-1.466 3.067-1.466 1.954 0 3.521 1.063 3.635 2.443.023.575.205.833.568.833.386 0 .59-.316.59-.89v-2.588c0-.603-.18-.89-.59-.89-.386 0-.59.287-.59.89v.087c-1-.891-2.226-1.351-3.657-1.351-3.248 0-5.793 3.248-5.793 7.415v2.069c0 4.54 2.476 7.5 6.247 7.5 1.499 0 2.908-.488 4.384-1.522z" style="paint-order:markers fill stroke" transform="translate(0 9.721)" stroke-width="3.556"/><path d="M718.4 535.5S792.23 657.1 512 657.1 305.6 535.5 305.6 535.5" stroke="#e6e6e6" stroke-width="35.56" style="paint-order:markers fill stroke" fill="none" transform="translate(0 9.721)"/><g stroke-width="2"><path d="M198.7 136.8H425v209.8H198.7z" fill="#e6e6e6" style="paint-order:markers fill stroke" transform="translate(0 9.721)"/><path d="M198.7 136.8v303.3l35.56 152.7h155.2l35.56-152.7V136.8z" fill="#e6e6e6" style="paint-order:markers fill stroke" transform="translate(0 9.721)"/><path d="M257.8 112.6h108.4v24.2H257.8z" fill="#ccc" style="paint-order:markers fill stroke" transform="translate(0 9.721)"/><path d="M216 136.8h15.67v53.02H216zm25.2 0h15.67v53.02H241.2zm25.1 0h15.67v53.02H266.3zm25.2 0h15.67v53.02H291.5zm25.3 0h15.67v53.02H316.8zm25.1 0h15.67v53.02H341.9zm25.2 0h15.67v53.02H367.1zm25.1 0h15.67v53.02H392.2z" style="paint-order:markers fill stroke" transform="translate(0 9.721)" fill="#d3bc5f"/><path d="m224.5 142.5-4.656 1.153c-.46.116-.606.231-.606.5 0 .25.291.481.582.481.049 0 .291-.039.388-.058l3.031-.75v9.476h-3.25c-.533 0-.8.173-.8.481 0 .327.291.5.8.5h7.762c.51 0 .777-.173.777-.5 0-.308-.267-.481-.777-.481h-3.249zm21 10.8c1.309-.884 2.814-1.981 4.827-3.518 3.056-2.306 3.541-2.864 3.541-3.999 0-1.786-2.158-3.344-4.608-3.344-1.504 0-2.91.538-3.833 1.461-.485.481-.801 1.057-.801 1.422 0 .231.267.443.607.443.315 0 .509-.135.606-.443.413-1.114 1.844-1.902 3.421-1.902 1.795 0 3.347 1.096 3.347 2.345 0 .827-.436 1.307-2.691 3.037a163.95 163.95 0 0 1-5.554 4.035l-.218.154v1.288h9.822v-1.557c0-.404-.218-.615-.631-.615-.412 0-.63.211-.63.615v.577zm28.3-5.9c-.509 0-.776.192-.776.5 0 .307.267.48.776.48 2.329.039 4.196 1.192 4.196 2.633 0 1.384-1.771 2.557-3.906 2.557a7.355 7.355 0 0 1-3.76-1.019c-.219-.115-.34-.154-.51-.154-.315 0-.582.212-.582.462 0 .307.316.557 1.189.903 1.261.538 2.402.788 3.637.788 2.863 0 5.191-1.595 5.191-3.536 0-1.249-1.115-2.441-2.814-3.036 1.48-.558 2.304-1.461 2.304-2.537 0-1.711-1.916-3.017-4.414-3.017-1.286 0-2.523.307-3.493.884-.558.346-.898.673-.898.903 0 .25.267.462.606.462.195 0 .34-.058.461-.173.873-.769 1.867-1.096 3.323-1.096 1.796 0 3.154.884 3.154 2.037 0 .616-.437 1.211-1.14 1.577-.582.288-1.067.384-2.013.384zm27.5 3.6v2.21h-1.722c-.509 0-.776.173-.776.48 0 .327.291.5.776.5h3.687c.486 0 .777-.173.777-.5 0-.307-.267-.48-.777-.48h-.703V151h.703c.51 0 .777-.173.777-.5 0-.308-.267-.481-.777-.481h-.703v-7.418h-2.256l-5.579 7.381v1.019zm0-.981h-5.264l4.9-6.439h.364zm20.8-6.319h5.724c.534 0 .801-.173.801-.5 0-.308-.267-.481-.801-.481h-6.985v5.17c0 .308.243.519.607.519.145 0 .267-.038.582-.154 1.067-.422 2.037-.615 3.008-.615 1.964 0 3.298 1.115 3.298 2.749 0 1.922-1.577 3.228-3.881 3.228-1.359 0-2.619-.423-3.783-1.249-.219-.154-.34-.192-.51-.192-.339 0-.606.211-.606.48 0 .289.339.577 1.188 1 1.237.634 2.45.942 3.76.942 2.983 0 5.094-1.73 5.094-4.171 0-2.192-1.867-3.767-4.439-3.767-1.043 0-1.867.153-3.057.519zm24.2 5.5c-.024-.192-.024-.365-.024-.461 0-1.154.388-2.306 1.091-3.113 1.165-1.384 3.032-2.249 4.852-2.249.437 0 .8.038 1.043.134.242.096.339.116.485.116.34 0 .582-.212.582-.462 0-.442-.897-.769-2.085-.769a8.113 8.113 0 0 0-4.487 1.365c-1.819 1.211-2.692 2.845-2.692 5.093 0 3.325 2.062 5.67 5.02 5.67 2.425 0 4.317-1.634 4.317-3.728 0-1.981-1.892-3.614-4.196-3.614-1.6 0-3.031.73-3.906 2.017zm.17 1.403c.558-.769.824-1.096 1.164-1.403.776-.673 1.698-1.038 2.571-1.038 1.601 0 2.935 1.192 2.935 2.633 0 1.557-1.31 2.748-3.031 2.748-1.819 0-2.983-.922-3.637-2.94zm31.83-6.703-3.881 9.649a.689.689 0 0 0-.073.269c0 .269.267.48.607.48.339 0 .485-.115.63-.461l3.954-9.803v-1.345h-9.314v1.537c0 .423.218.635.631.635.412 0 .63-.212.63-.635v-.557h6.816zm23.8 4.4c1.528-.634 2.279-1.518 2.279-2.633 0-1.749-2.013-3.211-4.414-3.211-2.402 0-4.415 1.461-4.415 3.211 0 1.115.776 1.998 2.304 2.633-1.625.615-2.546 1.653-2.546 2.864 0 1.885 2.086 3.421 4.681 3.421 2.571 0 4.657-1.538 4.657-3.421 0-1.211-.946-2.268-2.546-2.864zm-2.183-4.862c1.795 0 3.201.999 3.201 2.268 0 1.192-1.382 2.114-3.153 2.114-1.772 0-3.154-.923-3.154-2.114 0-1.249 1.406-2.268 3.104-2.268zm0 5.344c1.989 0 3.468 1.018 3.468 2.384 0 1.365-1.504 2.441-3.396 2.441-1.916 0-3.42-1.077-3.42-2.441 0-1.326 1.479-2.384 3.348-2.384z" style="paint-order:markers fill stroke" transform="translate(0 9.721)"/><path d="M216 173.4h15.67v173.1H216z" fill="url(#j)" style="paint-order:markers fill stroke" transform="translate(0 9.721)"/><path d="M241.2 173.4h15.67v173.1H241.2z" fill="#ffa52e" style="paint-order:markers fill stroke" transform="translate(0 9.721)"/><path d="M266.3 173.4h15.67v173.1H266.3z" fill="url(#h)" style="-inkscape-stroke:none;font-variation-settings:normal;paint-order:markers fill stroke" transform="translate(0 9.721)"/><path d="M291.5 173.4h15.67v173.1H291.5z" fill="#2e76ff" style="paint-order:markers fill stroke" transform="translate(0 9.721)"/><path d="M316.8 173.4h15.67v173.1H316.8z" fill="url(#i)" style="-inkscape-stroke:none;font-variation-settings:normal;paint-order:markers fill stroke" transform="translate(0 9.721)"/><path d="M341.9 173.4h15.67v173.1H341.9z" fill="#1fb135" style="paint-order:markers fill stroke" transform="translate(0 9.721)"/><path d="M367.1 173.4h15.67v173.1H367.1z" fill="url(#f)" style="-inkscape-stroke:none;font-variation-settings:normal;paint-order:markers fill stroke" transform="translate(0 9.721)"/><path d="M392.2 173.4h15.67v173.1H392.2z" fill="#745327" style="paint-order:markers fill stroke" transform="translate(0 9.721)"/></g><path d="M252.9 523.5v-19.01h6.726v2.722c0 .784.477 1.361 1.172 1.361.738 0 1.085-.412 1.085-1.361v-4.825h-20.26v4.825c0 .907.39 1.361 1.128 1.361.738 0 1.128-.454 1.128-1.361v-2.722h6.769v19.01h-4.296c-.955 0-1.432.371-1.432 1.031 0 .701.52 1.072 1.432 1.072h10.85c.911 0 1.432-.371 1.432-1.072 0-.66-.477-1.031-1.432-1.031zm33.6-8.3c.955 0 1.432-.371 1.432-1.072 0-.66-.477-1.031-1.432-1.031h-17.44c-.911 0-1.389.371-1.389 1.031 0 .701.477 1.072 1.389 1.072zm12.8-12.3h10.24c.955 0 1.432-.371 1.432-1.072 0-.66-.477-1.031-1.432-1.031h-12.5v11.09c0 .66.434 1.114 1.085 1.114.26 0 .477-.082 1.041-.33 1.909-.907 3.645-1.32 5.381-1.32 3.515 0 5.902 2.392 5.902 5.897 0 4.124-2.821 6.93-6.943 6.93-2.43 0-4.687-.908-6.769-2.682-.39-.33-.607-.412-.911-.412-.608 0-1.085.453-1.085 1.03 0 .62.607 1.238 2.126 2.146 2.213 1.36 4.383 2.02 6.726 2.02 5.337 0 9.113-3.711 9.113-8.948 0-4.702-3.341-8.083-7.941-8.083-1.866 0-3.341.33-5.468 1.114zm25.4 11.9c-.043-.412-.043-.784-.043-.99 0-2.474.694-4.949 1.953-6.68 2.083-2.97 5.424-4.826 8.679-4.826.78 0 1.432.083 1.866.289.433.206.607.247.867.247.608 0 1.041-.453 1.041-.99 0-.948-1.606-1.65-3.732-1.65-2.82 0-5.685 1.032-8.028 2.929-3.255 2.598-4.817 6.104-4.817 10.93 0 7.135 3.688 12.17 8.983 12.17 4.34 0 7.724-3.505 7.724-8.001 0-4.248-3.385-7.753-7.507-7.753-2.864 0-5.424 1.567-6.986 4.33zm.304 3.011c.998-1.65 1.475-2.351 2.083-3.011 1.389-1.443 3.038-2.227 4.6-2.227 2.864 0 5.25 2.557 5.25 5.65 0 3.341-2.342 5.897-5.423 5.897-3.255 0-5.337-1.98-6.51-6.31zM359.7 512.8c2.734-1.361 4.079-3.258 4.079-5.65 0-3.753-3.602-6.887-7.898-6.887s-7.898 3.134-7.898 6.887c0 2.392 1.389 4.289 4.122 5.65-2.907 1.32-4.556 3.547-4.556 6.145 0 4.042 3.732 7.341 8.375 7.341 4.6 0 8.332-3.299 8.332-7.341 0-2.598-1.692-4.866-4.556-6.145zm-3.905-10.43c3.211 0 5.728 2.145 5.728 4.866 0 2.557-2.473 4.537-5.641 4.537s-5.641-1.98-5.641-4.537c0-2.681 2.517-4.866 5.554-4.866zm0 11.47c3.558 0 6.205 2.186 6.205 5.114s-2.69 5.238-6.075 5.238c-3.428 0-6.119-2.31-6.119-5.238 0-2.846 2.647-5.114 5.988-5.114zM374 523.5h-2.126c-.911 0-1.389.371-1.389 1.031 0 .701.477 1.072 1.389 1.072h13.32c4.079 0 7.377-2.887 7.377-6.434 0-2.639-1.779-4.66-5.164-5.856 2.256-1.278 3.341-2.804 3.341-4.825 0-3.464-3.298-6.104-7.637-6.104h-11.24c-.911 0-1.389.33-1.389 1.031s.477 1.072 1.389 1.072h2.126zm2.256-10.97v-8.042h6.9c2.994 0 5.337 1.732 5.337 3.959 0 2.392-2.517 4.083-6.075 4.083zm0 10.97v-8.867h6.249c2.604 0 3.992.247 5.337.99 1.562.866 2.473 2.186 2.473 3.588 0 2.392-2.3 4.289-5.251 4.289z" style="paint-order:markers fill stroke" transform="translate(0 9.721)" stroke-width="3.556"/><g stroke-width="2"><path d="M214.6 378.6h195v61.39h-195z" fill="#ccc" style="paint-order:markers fill stroke" transform="translate(0 9.721)"/><path d="M214.6 440.1h195v-6.507h-195z" fill="#fff" style="paint-order:markers fill stroke" transform="translate(0 9.721)"/><path d="M598.9 136.8h226.3v209.8H598.9z" fill="#e6e6e6" style="paint-order:markers fill stroke" transform="translate(0 9.721)"/><path d="M598.9 136.8v303.3l35.56 152.7h155.2l35.56-152.7V136.8z" fill="#e6e6e6" style="paint-order:markers fill stroke" transform="translate(0 9.721)"/><path d="M657.8 112.6h108.4v24.2H657.8z" fill="#ccc" style="paint-order:markers fill stroke" transform="translate(0 9.721)"/><path d="M616.2 136.8h15.67v53.02H616.2zm25 0h15.67v53.02H641.2zm25.3 0h15.67v53.02H666.5zm25.1 0h15.67v53.02H691.6zm25.2 0h15.67v53.02H716.8zm25.1 0h15.67v53.02H741.9zm25.2 0h15.67v53.02H767.1zm25.1 0h15.67v53.02H792.2z" style="paint-order:markers fill stroke" transform="translate(0 9.721)" fill="#d3bc5f"/><path d="m624.5 142.5-4.656 1.153c-.461.116-.607.231-.607.5 0 .25.291.481.582.481.049 0 .292-.039.389-.058l3.031-.75v9.476h-3.25c-.534 0-.8.173-.8.481 0 .327.291.5.8.5h7.762c.509 0 .776-.173.776-.5 0-.308-.267-.481-.776-.481h-3.25zm21 10.8c1.31-.884 2.815-1.981 4.827-3.518 3.056-2.306 3.541-2.864 3.541-3.999 0-1.786-2.158-3.344-4.608-3.344-1.504 0-2.91.538-3.833 1.461-.485.481-.8 1.057-.8 1.422 0 .231.267.443.606.443.316 0 .51-.135.607-.443.412-1.114 1.843-1.902 3.42-1.902 1.796 0 3.348 1.096 3.348 2.345 0 .827-.437 1.307-2.692 3.037a162.949 162.949 0 0 1-5.554 4.035l-.218.154v1.288h9.823v-1.557c0-.404-.219-.615-.631-.615s-.631.211-.631.615v.577zm28.3-5.9c-.51 0-.777.192-.777.5 0 .307.267.48.777.48 2.329.039 4.195 1.192 4.195 2.633 0 1.384-1.77 2.557-3.906 2.557a7.357 7.357 0 0 1-3.76-1.019c-.218-.115-.339-.154-.509-.154-.315 0-.582.212-.582.462 0 .307.315.557 1.188.903 1.262.538 2.402.788 3.638.788 2.862 0 5.191-1.595 5.191-3.536 0-1.249-1.116-2.441-2.814-3.036 1.479-.558 2.304-1.461 2.304-2.537 0-1.711-1.917-3.017-4.415-3.017-1.285 0-2.522.307-3.493.884-.558.346-.897.673-.897.903 0 .25.266.462.606.462a.63.63 0 0 0 .461-.173c.873-.769 1.866-1.096 3.323-1.096 1.795 0 3.153.884 3.153 2.037 0 .616-.436 1.211-1.14 1.577-.582.288-1.067.384-2.012.384zm27.5 3.6v2.21h-1.722c-.51 0-.776.173-.776.48 0 .327.291.5.776.5h3.687c.485 0 .776-.173.776-.5 0-.307-.267-.48-.776-.48h-.703V151h.703c.509 0 .776-.173.776-.5 0-.308-.267-.481-.776-.481h-.703v-7.418h-2.256l-5.579 7.381v1.019zm0-.981h-5.264l4.899-6.439h.364zm20.8-6.319h5.725c.534 0 .8-.173.8-.5 0-.308-.267-.481-.8-.481h-6.985v5.17c0 .308.242.519.606.519.146 0 .267-.038.582-.154 1.067-.422 2.038-.615 3.008-.615 1.965 0 3.298 1.115 3.298 2.749 0 1.922-1.576 3.228-3.881 3.228-1.358 0-2.619-.423-3.783-1.249-.218-.154-.34-.192-.509-.192-.34 0-.607.211-.607.48 0 .289.34.577 1.189 1 1.237.634 2.45.942 3.76.942 2.983 0 5.093-1.73 5.093-4.171 0-2.192-1.866-3.767-4.439-3.767-1.043 0-1.867.153-3.056.519zm24.2 5.5c-.025-.192-.025-.365-.025-.461 0-1.154.389-2.306 1.092-3.113 1.164-1.384 3.031-2.249 4.852-2.249.436 0 .8.038 1.042.134.243.096.34.116.486.116.339 0 .582-.212.582-.462 0-.442-.898-.769-2.086-.769a8.116 8.116 0 0 0-4.487 1.365c-1.819 1.211-2.692 2.845-2.692 5.093 0 3.325 2.063 5.67 5.021 5.67 2.425 0 4.317-1.634 4.317-3.728 0-1.981-1.892-3.614-4.196-3.614-1.601 0-3.031.73-3.906 2.017zm.169 1.403c.558-.769.825-1.096 1.165-1.403.776-.673 1.698-1.038 2.57-1.038 1.601 0 2.936 1.192 2.936 2.633 0 1.557-1.31 2.748-3.032 2.748-1.818 0-2.983-.922-3.637-2.94zM778.3 143.9l-3.881 9.649a.702.702 0 0 0-.072.269c0 .269.267.48.606.48.34 0 .485-.115.631-.461l3.954-9.803v-1.345h-9.314v1.537c0 .423.218.635.63.635s.631-.212.631-.635v-.557h6.816zm23.8 4.4c1.528-.634 2.279-1.518 2.279-2.633 0-1.749-2.012-3.211-4.414-3.211s-4.414 1.461-4.414 3.211c0 1.115.776 1.998 2.304 2.633-1.625.615-2.546 1.653-2.546 2.864 0 1.885 2.085 3.421 4.681 3.421 2.571 0 4.656-1.538 4.656-3.421 0-1.211-.946-2.268-2.546-2.864zm-2.183-4.862c1.796 0 3.202.999 3.202 2.268 0 1.192-1.383 2.114-3.154 2.114s-3.154-.923-3.154-2.114c0-1.249 1.407-2.268 3.104-2.268zm0 5.344c1.989 0 3.469 1.018 3.469 2.384 0 1.365-1.504 2.441-3.396 2.441-1.917 0-3.421-1.077-3.421-2.441 0-1.326 1.48-2.384 3.348-2.384z" style="paint-order:markers fill stroke" transform="translate(0 9.721)"/><path d="M616.2 173.4h15.67v173.1H616.2z" fill="url(#e)" style="paint-order:markers fill stroke" transform="translate(0 9.721)"/><path d="M641.2 173.4h15.67v173.1H641.2z" fill="#ffa52e" style="paint-order:markers fill stroke" transform="translate(0 9.721)"/><path d="M666.5 173.4h15.67v173.1H666.5z" fill="url(#d)" style="-inkscape-stroke:none;font-variation-settings:normal;paint-order:markers fill stroke" transform="translate(0 9.721)"/><path d="M691.6 173.4h15.67v173.1H691.6z" fill="#2e76ff" style="paint-order:markers fill stroke" transform="translate(0 9.721)"/><path d="M716.8 173.4h15.67v173.1H716.8z" fill="url(#c)" style="-inkscape-stroke:none;font-variation-settings:normal;paint-order:markers fill stroke" transform="translate(0 9.721)"/><path d="M741.9 173.4h15.67v173.1H741.9z" fill="#1fb135" style="paint-order:markers fill stroke" transform="translate(0 9.721)"/><path d="M767.1 173.4h15.67v173.1H767.1z" fill="url(#b)" style="-inkscape-stroke:none;font-variation-settings:normal;paint-order:markers fill stroke" transform="translate(0 9.721)"/><path d="M792.2 173.4h15.67v173.1H792.2z" fill="#745327" style="paint-order:markers fill stroke" transform="translate(0 9.721)"/></g><path d="M653.1 523.5v-19.01h6.726v2.722c0 .784.477 1.361 1.172 1.361.738 0 1.085-.412 1.085-1.361v-4.825h-20.26v4.825c0 .907.39 1.361 1.128 1.361.738 0 1.128-.454 1.128-1.361v-2.722h6.769v19.01h-4.296c-.955 0-1.432.371-1.432 1.031 0 .701.52 1.072 1.432 1.072h10.85c.911 0 1.432-.371 1.432-1.072 0-.66-.477-1.031-1.432-1.031zm33.6-8.3c.955 0 1.432-.371 1.432-1.072 0-.66-.477-1.031-1.432-1.031h-17.44c-.911 0-1.389.371-1.389 1.031 0 .701.477 1.072 1.389 1.072zm12.8-12.3h10.24c.955 0 1.432-.371 1.432-1.072 0-.66-.477-1.031-1.432-1.031h-12.5v11.09c0 .66.434 1.114 1.085 1.114.26 0 .477-.082 1.041-.33 1.909-.907 3.645-1.32 5.381-1.32 3.515 0 5.902 2.392 5.902 5.897 0 4.124-2.821 6.93-6.943 6.93-2.43 0-4.687-.908-6.769-2.682-.39-.33-.607-.412-.911-.412-.608 0-1.085.453-1.085 1.03 0 .62.607 1.238 2.126 2.146 2.213 1.36 4.383 2.02 6.726 2.02 5.337 0 9.113-3.711 9.113-8.948 0-4.702-3.341-8.083-7.941-8.083-1.866 0-3.341.33-5.468 1.114zm25.4 11.9c-.043-.412-.043-.784-.043-.99 0-2.474.694-4.949 1.953-6.68 2.083-2.97 5.424-4.826 8.679-4.826.78 0 1.432.083 1.866.289.433.206.607.247.867.247.608 0 1.041-.453 1.041-.99 0-.948-1.606-1.65-3.732-1.65-2.82 0-5.685 1.032-8.028 2.929-3.255 2.598-4.817 6.104-4.817 10.93 0 7.135 3.688 12.17 8.983 12.17 4.34 0 7.724-3.505 7.724-8.001 0-4.248-3.385-7.753-7.507-7.753-2.864 0-5.424 1.567-6.986 4.33zm.304 3.011c.998-1.65 1.475-2.351 2.083-3.011 1.389-1.443 3.038-2.227 4.6-2.227 2.864 0 5.25 2.557 5.25 5.65 0 3.341-2.342 5.897-5.423 5.897-3.255 0-5.337-1.98-6.51-6.31zM759.9 512.8c2.734-1.361 4.079-3.258 4.079-5.65 0-3.753-3.602-6.887-7.898-6.887s-7.898 3.134-7.898 6.887c0 2.392 1.389 4.289 4.122 5.65-2.907 1.32-4.556 3.547-4.556 6.145 0 4.042 3.732 7.341 8.375 7.341 4.6 0 8.332-3.299 8.332-7.341 0-2.598-1.692-4.866-4.556-6.145zm-3.905-10.43c3.211 0 5.728 2.145 5.728 4.866 0 2.557-2.473 4.537-5.641 4.537s-5.641-1.98-5.641-4.537c0-2.681 2.517-4.866 5.554-4.866zm0 11.47c3.558 0 6.205 2.186 6.205 5.114s-2.69 5.238-6.075 5.238c-3.428 0-6.119-2.31-6.119-5.238 0-2.846 2.647-5.114 5.988-5.114zm18.305 9.66h-2.126c-.911 0-1.389.371-1.389 1.031 0 .701.477 1.072 1.389 1.072h13.32c4.079 0 7.377-2.887 7.377-6.434 0-2.639-1.779-4.66-5.164-5.856 2.256-1.278 3.341-2.804 3.341-4.825 0-3.464-3.298-6.104-7.637-6.104h-11.24c-.911 0-1.389.33-1.389 1.031s.477 1.072 1.389 1.072h2.126zm2.256-10.97v-8.042h6.9c2.994 0 5.337 1.732 5.337 3.959 0 2.392-2.517 4.083-6.075 4.083zm0 10.97v-8.867h6.249c2.604 0 3.992.247 5.337.99 1.562.866 2.473 2.186 2.473 3.588 0 2.392-2.3 4.289-5.251 4.289z" style="paint-order:markers fill stroke" transform="translate(0 9.721)" stroke-width="3.556"/><path d="M614.6 378.6h195v61.39h-195z" fill="#ccc" style="paint-order:markers fill stroke" transform="translate(0 9.721)"/><path d="M614.6 440.1h195v-6.507h-195z" fill="#fff" style="paint-order:markers fill stroke" transform="translate(0 9.721)"/><path d="M154.8 67.12c-1.994-1.06-4.509-1.63-7.284-1.63-2.905 0-5.55.707-7.544 2.011-1.908 1.25-3.165 3.152-3.165 4.809v2.201c0 3.695 5.463 7.038 11.49 7.038 2.818 0 5.507-.68 7.674-1.929 1.214-.707 1.734-1.141 1.734-1.467 0-.38-.434-.652-1.084-.652-.39 0-.607.081-.954.299-2.34 1.685-4.423 2.364-7.37 2.364-4.987 0-9.236-2.663-9.236-5.815v-1.875c0-3.098 3.772-5.597 8.498-5.597 3.73 0 7.024 1.33 7.241 2.907.087.516.434.76 1.127.76.737 0 1.127-.298 1.127-.869v-2.989c0-.57-.39-.842-1.127-.842s-1.127.299-1.127.842zm19.7-2.39h-7.067c-.954 0-1.431.245-1.431.68 0 .461.477.706 1.431.706h4.813v13.61h-6.721c-.91 0-1.387.244-1.387.68 0 .461.477.706 1.387.706h15.7c.91 0 1.431-.245 1.431-.707 0-.435-.477-.68-1.431-.68h-6.721zm26 5h-7.154c-.954 0-1.387.217-1.387.68s.477.706 1.387.706h4.899v8.613h-6.721c-.91 0-1.387.244-1.387.68 0 .461.477.706 1.387.706h15.7c.91 0 1.431-.245 1.431-.707 0-.435-.477-.68-1.431-.68h-6.721zm-.087-5.516h-3.035v3.07h3.035zM218.9 69.73h-4.379c-.954 0-1.387.217-1.387.68s.477.706 1.387.706h2.125v13.56h-2.125c-.91 0-1.387.244-1.387.68 0 .461.477.706 1.387.706h8.368c.954 0 1.431-.245 1.431-.707 0-.435-.477-.68-1.431-.68H218.9V78.59c1.994 1.549 4.379 2.255 7.544 2.255 5.463 0 9.669-2.527 9.669-5.76 0-3.261-4.162-5.733-9.712-5.733-3.209 0-5.29.652-7.501 2.31zm7.371 1.005c4.292 0 7.588 1.902 7.588 4.375 0 2.418-3.295 4.347-7.458 4.347-4.206 0-7.501-1.929-7.501-4.375 0-2.391 3.295-4.347 7.371-4.347zM278.5 69.73h-7.154c-.954 0-1.387.217-1.387.68s.477.706 1.387.706h4.899v8.613h-6.721c-.91 0-1.387.244-1.387.68 0 .461.477.706 1.387.706h15.7c.91 0 1.431-.245 1.431-.707 0-.435-.477-.68-1.431-.68h-6.721zm-.087-5.516h-3.035v3.07h3.035zM296.9 77.91c0-.435-.477-.734-1.127-.734-.737 0-1.127.3-1.127.87v2.2c0 .572.39.87 1.127.87.694 0 1.084-.299 1.084-.842 1.648.842 3.946 1.277 6.59 1.277 5.116 0 8.758-1.522 8.758-3.668 0-.978-.867-1.929-2.255-2.5-1.431-.598-3.035-.897-5.723-1.06-3.816-.272-4.032-.299-4.986-.652-.78-.299-1.257-.707-1.257-1.087 0-1.06 2.298-1.848 5.42-1.848 3.165 0 5.333.734 5.55 1.848.087.49.434.734 1.084.734.737 0 1.127-.3 1.127-.87V70.6c0-.57-.39-.87-1.084-.87-.607 0-1.041.272-1.127.68-1.474-.707-3.425-1.06-5.767-1.06-4.379 0-7.631 1.33-7.631 3.152 0 .897.78 1.739 2.081 2.228 1.257.489 2.515.68 5.723.87 2.385.162 3.512.325 4.639.733 1.084.353 1.778.951 1.778 1.522 0 1.331-2.732 2.31-6.417 2.31-3.555 0-6.46-.924-6.46-2.065zm52-8.18h-4.379c-.954 0-1.387.217-1.387.68s.477.706 1.387.706h2.125v13.56h-2.125c-.91 0-1.387.244-1.387.68 0 .461.477.706 1.387.706h8.368c.954 0 1.431-.245 1.431-.707 0-.435-.477-.68-1.431-.68H348.9V78.59c1.994 1.549 4.379 2.255 7.544 2.255 5.463 0 9.669-2.527 9.669-5.76 0-3.261-4.162-5.733-9.712-5.733-3.208 0-5.29.652-7.501 2.31zm7.371 1.005c4.292 0 7.588 1.902 7.588 4.375 0 2.418-3.295 4.347-7.458 4.347-4.206 0-7.501-1.929-7.501-4.375 0-2.391 3.295-4.347 7.371-4.347zM381.6 69.35c-5.81 0-10.28 2.663-10.28 6.114 0 3.369 4.509 6.086 10.15 6.086 5.637 0 10.1-2.69 10.1-6.114 0-3.342-4.466-6.086-9.972-6.086zm-.26 1.386c4.509 0 7.978 2.038 7.978 4.728 0 2.608-3.47 4.701-7.848 4.701s-7.891-2.092-7.891-4.728c0-2.581 3.469-4.701 7.76-4.701zm27.26-1.006h-7.154c-.954 0-1.387.217-1.387.68s.477.706 1.387.706h4.899v8.613h-6.721c-.91 0-1.387.244-1.387.68 0 .461.477.706 1.387.706h15.7c.91 0 1.431-.245 1.431-.707 0-.435-.477-.68-1.431-.68h-6.721zm-.087-5.516h-3.035v3.07h3.035zM428 69.73h-3.512c-.954 0-1.387.217-1.387.68s.477.706 1.387.706h1.257v8.613h-1.734c-.954 0-1.431.244-1.431.68 0 .461.52.706 1.431.706h5.723c.91 0 1.387-.245 1.387-.707 0-.435-.477-.68-1.387-.68H428v-6.547c2.645-2.038 3.729-2.445 6.374-2.445 1.561 0 2.385.163 3.339.652 1.041.543 1.561 1.168 1.561 1.902v6.44h-1.214c-.954 0-1.431.245-1.431.68 0 .461.52.706 1.431.706h4.726c.867 0 1.387-.245 1.387-.707 0-.434-.477-.68-1.387-.68h-1.257V73.1c0-2.118-3.035-3.75-7.024-3.75-2.645 0-4.206.49-6.504 2.012zm26.8 0v-3.043c0-.57-.39-.842-1.127-.842s-1.127.299-1.127.842v3.043h-2.992c-.954 0-1.431.217-1.431.68s.477.706 1.431.706h2.992v7.01c0 2.065 2.732 3.424 6.981 3.424 2.038 0 4.466-.3 6.547-.788 1.604-.38 2.298-.734 2.298-1.141 0-.38-.477-.68-1.084-.68-.217 0-.39.028-.78.19-1.691.599-4.683 1.034-7.067 1.034-2.862 0-4.64-.815-4.64-2.092v-6.956h9.28c.953 0 1.43-.245 1.43-.707 0-.462-.476-.68-1.43-.68zm40.5 6.08v-.408c0-3.478-4.336-6.059-10.15-6.059-5.723 0-10.15 2.554-10.15 5.842 0 3.587 4.726 6.358 10.75 6.358 4.206 0 9.365-1.304 9.365-2.337 0-.38-.477-.679-1.084-.679-.26 0-.434.054-.78.218-1.734.815-4.856 1.412-7.458 1.412-4.51 0-7.891-1.738-8.498-4.346zm-17.99-1.386c.737-2.228 3.859-3.695 7.848-3.695 3.946 0 7.111 1.494 7.805 3.695zm43.19-9.694h-4.379c-.91 0-1.387.245-1.387.68 0 .461.477.706 1.387.706h2.125v5.706c-1.951-1.63-4.553-2.473-7.631-2.473-5.333 0-9.626 2.717-9.626 6.086s4.292 6.114 9.582 6.114c3.078 0 5.767-.87 7.674-2.473v2.038h4.379c.91 0 1.387-.245 1.387-.707 0-.434-.477-.679-1.387-.679h-2.125zm-9.842 6.005c4.292 0 7.588 2.038 7.588 4.728 0 2.608-3.339 4.701-7.501 4.701-4.206 0-7.501-2.092-7.501-4.728 0-2.608 3.295-4.701 7.414-4.701zM568.5 81.11h4.379c.91 0 1.387-.245 1.387-.706 0-.435-.477-.68-1.387-.68h-2.125v-6.956c0-1.984-3.078-3.424-7.241-3.424-1.648 0-4.466.353-6.851.87-.607.136-.91.353-.91.679 0 .38.477.68 1.04.68.217 0 .347-.028.911-.137 2.471-.489 4.292-.706 5.68-.706 3.035 0 5.116.815 5.116 2.038v1.685c-2.602-.408-3.685-.49-5.637-.49-5.637 0-9.409 1.63-9.409 4.05 0 2.092 2.818 3.532 6.981 3.532 2.992 0 5.376-.598 8.065-2.038zm0-3.206c-2.818 1.63-5.073 2.255-8.065 2.255-2.905 0-4.726-.842-4.726-2.147 0-1.576 3.035-2.663 7.371-2.663 1.908 0 3.989.136 5.42.353zm27.4 3.206 3.555-9.999h.65c.954 0 1.431-.244 1.431-.706 0-.462-.433-.68-1.43-.68h-4.814c-.954 0-1.387.218-1.387.68s.477.706 1.387.706h1.908l-2.775 7.853-3.599-6.44h-2.558l-3.555 6.44-2.862-7.853h1.994c.91 0 1.431-.244 1.431-.706 0-.462-.476-.68-1.43-.68h-4.814c-.953 0-1.387.218-1.387.68s.477.706 1.387.706h.65l3.643 9.999h2.558l3.729-6.63 3.772 6.63zm24.6 0h4.379c.91 0 1.387-.245 1.387-.706 0-.435-.477-.68-1.387-.68h-2.125v-6.956c0-1.984-3.078-3.424-7.241-3.424-1.648 0-4.466.353-6.851.87-.607.136-.91.353-.91.679 0 .38.476.68 1.04.68.217 0 .347-.028.911-.137 2.471-.489 4.292-.706 5.68-.706 3.035 0 5.116.815 5.116 2.038v1.685c-2.601-.408-3.685-.49-5.637-.49-5.637 0-9.409 1.63-9.409 4.05 0 2.092 2.818 3.532 6.981 3.532 2.992 0 5.376-.598 8.065-2.038zm0-3.206c-2.818 1.63-5.073 2.255-8.065 2.255-2.905 0-4.726-.842-4.726-2.147 0-1.576 3.035-2.663 7.371-2.663 1.908 0 3.989.136 5.42.353zm20.1 3.046-2.948 3.723h-5.376c-.91 0-1.387.245-1.387.68 0 .461.477.706 1.387.706h10.1c.954 0 1.431-.245 1.431-.707 0-.435-.477-.679-1.431-.679h-2.428l10.88-13.56h.434c.954 0 1.43-.244 1.43-.706 0-.462-.476-.68-1.43-.68h-4.77c-.91 0-1.386.218-1.386.68s.477.706 1.387.706h1.994l-6.634 8.342-6.721-8.342h1.864c.91 0 1.43-.244 1.43-.706 0-.462-.476-.68-1.43-.68h-4.986c-.91 0-1.387.218-1.387.68s.477.706 1.387.706h.563zm52-9.84h7.978c.91 0 1.387-.244 1.387-.706 0-.462-.477-.68-1.387-.68H692.6V68.23c0-1.25 1.864-2.119 4.596-2.119 1.604 0 2.862.082 5.376.3.304.026.477.026.564.026.693 0 1.17-.271 1.17-.679 0-.353-.346-.598-.953-.68-1.387-.19-4.38-.353-6.114-.353-3.99 0-6.894 1.467-6.894 3.505v1.494h-3.555c-.954 0-1.431.245-1.431.68 0 .462.477.706 1.43.706h3.556v8.613h-3.99c-.953 0-1.43.245-1.43.68 0 .461.52.706 1.43.706h13.7c.911 0 1.432-.245 1.432-.706 0-.435-.477-.68-1.431-.68h-7.458zm25.1-1.38h-5.246c-.91 0-1.431.245-1.431.68s.52.706 1.431.706h2.992v8.613H711.5c-.91 0-1.431.272-1.431.68 0 .461.52.706 1.431.706h13.74c.867 0 1.387-.245 1.387-.707 0-.407-.52-.68-1.387-.68h-7.544v-5.651c4.683-2.636 6.114-3.233 7.978-3.233.867 0 1.648.244 2.688.897.347.19.477.244.867.244.65 0 1.127-.299 1.127-.734 0-.271-.26-.516-1.084-.923-1.17-.625-2.125-.87-3.469-.87-2.255 0-4.292.707-8.108 2.826zm28.1-.38c-5.81 0-10.28 2.663-10.28 6.114 0 3.369 4.509 6.086 10.15 6.086 5.637 0 10.1-2.69 10.1-6.114 0-3.342-4.466-6.086-9.972-6.086zm-.26 1.386c4.509 0 7.978 2.038 7.978 4.728 0 2.608-3.47 4.701-7.848 4.701s-7.891-2.092-7.891-4.728c0-2.581 3.469-4.701 7.76-4.701zm18.26-1.006h-3.469c-.954 0-1.387.217-1.387.68s.477.706 1.387.706h1.257v8.613h-1.257c-.91 0-1.387.244-1.387.68s.52.706 1.344.706h4.726c.91 0 1.431-.245 1.431-.68 0-.462-.477-.706-1.431-.706H763.8v-6.93c1.561-1.44 2.862-2.064 4.336-2.064 1.344 0 2.558.87 2.558 1.82v8.56h3.469c.91 0 1.387-.245 1.387-.707 0-.434-.477-.679-1.387-.679h-1.257V72.8c1.561-1.44 2.818-2.065 4.249-2.065s2.645.815 2.645 1.739v8.641h3.469c.867 0 1.387-.245 1.387-.706 0-.435-.477-.68-1.387-.68h-1.257v-7.364c0-1.657-2.168-3.016-4.813-3.016-1.778 0-3.078.462-4.813 1.766-1.041-1.196-2.428-1.766-4.249-1.766-1.734 0-2.992.435-4.336 1.467zm58.9 11.22-2.948 3.723h-5.376c-.91 0-1.387.245-1.387.68 0 .461.477.706 1.387.706h10.1c.954 0 1.431-.245 1.431-.707 0-.435-.477-.679-1.431-.679h-2.428l10.88-13.56h.434c.954 0 1.43-.244 1.43-.706 0-.462-.476-.68-1.43-.68h-4.77c-.91 0-1.386.218-1.386.68s.477.706 1.387.706h1.994l-6.634 8.342-6.721-8.342h1.864c.91 0 1.43-.244 1.43-.706 0-.462-.476-.68-1.43-.68h-4.986c-.91 0-1.387.218-1.387.68s.477.706 1.387.706h.563zm27.2-11.6c-5.81 0-10.28 2.663-10.28 6.114 0 3.369 4.509 6.086 10.15 6.086 5.637 0 10.1-2.69 10.1-6.114 0-3.342-4.466-6.086-9.972-6.086zm-.26 1.386c4.509 0 7.978 2.038 7.978 4.728 0 2.608-3.47 4.701-7.848 4.701s-7.891-2.092-7.891-4.728c0-2.581 3.469-4.701 7.76-4.701zM881.5 81.11h3.512c.91 0 1.387-.245 1.387-.706 0-.435-.477-.68-1.387-.68h-1.257v-9.999h-5.246c-.997 0-1.431.218-1.431.68s.477.706 1.431.706h2.992v6.739c-2.341 1.549-4.856 2.31-7.674 2.31-2.081 0-3.729-.978-3.729-2.255v-8.179h-4.379c-.954 0-1.387.217-1.387.68s.477.706 1.387.706h2.125v6.793c0 2.2 2.428 3.64 6.027 3.64 2.775 0 5.246-.651 7.631-2.01z" style="paint-order:markers fill stroke" transform="translate(0 9.721)" stroke-width="3.555"/><path d="M127.4 15.1c-1.735-1.598-3.731-2.328-6.161-2.328-4.686 0-8.2 3.105-8.2 7.168 0 2.009.868 3.835 2.343 4.885 1.345 1.004 2.95 1.552 5.987 2.1 3.08.502 3.948.776 4.989 1.461 1.128.73 1.822 2.1 1.822 3.561 0 3.15-2.907 5.479-6.855 5.479-3.818 0-6.855-2.146-7.072-4.976-.043-.913-.39-1.324-1.085-1.324-.738 0-1.128.502-1.128 1.461v4.976c0 .959.39 1.461 1.128 1.461.738 0 1.128-.502 1.128-1.461v-.64c1.779 1.827 4.252 2.832 7.072 2.832 5.38 0 9.198-3.242 9.198-7.716 0-2.374-1.041-4.383-2.777-5.48-1.345-.867-2.56-1.232-5.944-1.825-2.647-.457-3.775-.822-4.816-1.552-1.041-.685-1.605-1.826-1.605-3.15 0-2.876 2.516-4.931 5.987-4.931 3.254 0 5.77 1.872 5.987 4.429.043.913.434 1.324 1.085 1.324.738 0 1.128-.502 1.128-1.461v-4.611c0-.913-.39-1.415-1.128-1.415-.738 0-1.085.502-1.085 1.415zm15.2 4.8v-5.113c0-.959-.39-1.415-1.128-1.415-.738 0-1.128.502-1.128 1.415V19.9h-2.994c-.954 0-1.432.365-1.432 1.141s.477 1.187 1.432 1.187h2.994v11.78c0 3.47 2.733 5.753 6.985 5.753 2.039 0 4.469-.502 6.551-1.324 1.605-.64 2.299-1.233 2.299-1.918 0-.64-.477-1.141-1.085-1.141-.217 0-.39.046-.781.32-1.692 1.004-4.686 1.735-7.072 1.735-2.863 0-4.642-1.37-4.642-3.515v-11.69h9.285c.955 0 1.432-.411 1.432-1.187s-.477-1.141-1.432-1.141zm28.8 0h-5.25c-.911 0-1.432.41-1.432 1.141 0 .73.52 1.187 1.432 1.187h2.994v14.47h-3.948c-.911 0-1.432.457-1.432 1.141 0 .776.52 1.187 1.432 1.187h13.75c.868 0 1.388-.41 1.388-1.187 0-.685-.52-1.141-1.388-1.141h-7.549v-9.496c4.686-4.429 6.117-5.433 7.983-5.433.868 0 1.649.41 2.69 1.507.347.32.477.41.868.41.65 0 1.128-.501 1.128-1.232 0-.457-.26-.868-1.085-1.552-1.171-1.05-2.126-1.461-3.471-1.461-2.256 0-4.295 1.187-8.113 4.748zm32.9 19.13h4.382c.911 0 1.388-.41 1.388-1.187 0-.73-.477-1.141-1.388-1.141h-2.126v-11.69c0-3.333-3.08-5.753-7.246-5.753-1.649 0-4.469.594-6.855 1.461-.607.228-.911.594-.911 1.141 0 .64.477 1.141 1.04 1.141.218 0 .348-.046.912-.228 2.473-.822 4.295-1.187 5.684-1.187 3.037 0 5.12 1.37 5.12 3.424v2.83c-2.603-.684-3.688-.821-5.64-.821-5.64 0-9.415 2.739-9.415 6.803 0 3.515 2.82 5.935 6.985 5.935 2.994 0 5.38-1.004 8.07-3.424zm0-5.387c-2.82 2.739-5.076 3.789-8.07 3.789-2.907 0-4.729-1.415-4.729-3.607 0-2.648 3.037-4.474 7.376-4.474 1.909 0 3.992.228 5.423.594zM226.5 19.9h-7.159c-.954 0-1.388.365-1.388 1.141s.477 1.187 1.388 1.187h4.903v14.47h-6.725c-.911 0-1.388.41-1.388 1.141 0 .776.477 1.187 1.388 1.187h15.71c.911 0 1.432-.41 1.432-1.187 0-.73-.477-1.141-1.432-1.141h-6.725zm-.087-9.268h-3.037v5.159h3.037zM257.3 23.09c-1.909-2.648-4.165-3.835-7.159-3.835-5.076 0-9.198 4.337-9.198 9.633 0 5.342 4.122 9.679 9.198 9.679 2.95 0 5.25-1.233 7.159-3.789v4.976c.174 2.694-2.343 5.296-5.076 5.25h-5.033c-.911 0-1.388.365-1.388 1.187 0 .73.477 1.141 1.388 1.141h4.989c3.731.228 7.506-3.515 7.376-7.305v-17.81h2.126c.911 0 1.388-.41 1.388-1.187s-.434-1.141-1.388-1.141H257.3zm-7.115-1.507c4.035 0 7.115 3.196 7.115 7.351 0 4.063-3.08 7.305-7.029 7.305-3.948 0-7.072-3.242-7.072-7.351 0-4.018 3.124-7.305 6.985-7.305zM271.8 11.5h-4.382c-.911 0-1.388.41-1.388 1.141 0 .776.477 1.187 1.388 1.187h2.126v22.87h-1.735c-.955 0-1.432.41-1.432 1.141 0 .776.52 1.187 1.432 1.187h5.727c.911 0 1.432-.41 1.432-1.187 0-.73-.477-1.141-1.432-1.141h-1.735v-11.09c1.171-1.37 1.909-2.237 2.169-2.465 1.258-1.096 2.43-1.552 4.078-1.552 1.692 0 2.56.274 3.514 1.096 1.041.868 1.562 1.918 1.562 3.196v10.82h-1.735c-.911 0-1.388.41-1.388 1.141 0 .776.477 1.187 1.388 1.187h5.727c.911 0 1.432-.41 1.432-1.187 0-.73-.477-1.141-1.432-1.141h-1.735v-10.96c0-3.744-2.994-6.483-7.115-6.483-2.603 0-4.382.913-6.465 3.333zm27 8.4v-5.113c0-.959-.39-1.415-1.128-1.415-.738 0-1.128.502-1.128 1.415V19.9h-2.994c-.954 0-1.432.365-1.432 1.141s.477 1.187 1.432 1.187h2.994v11.78c0 3.47 2.733 5.753 6.985 5.753 2.039 0 4.469-.502 6.551-1.324 1.605-.64 2.299-1.233 2.299-1.918 0-.64-.477-1.141-1.085-1.141-.217 0-.39.046-.781.32-1.692 1.004-4.686 1.735-7.072 1.735-2.864 0-4.642-1.37-4.642-3.515v-11.69h9.285c.955 0 1.432-.411 1.432-1.187s-.477-1.141-1.432-1.141zm39.4 7.62c.955 0 1.432-.41 1.432-1.187 0-.73-.477-1.141-1.432-1.141h-17.44c-.911 0-1.388.41-1.388 1.141 0 .776.477 1.187 1.388 1.187zm12.6-7.62v-5.113c0-.959-.39-1.415-1.128-1.415-.738 0-1.128.502-1.128 1.415V19.9h-2.994c-.954 0-1.432.365-1.432 1.141s.477 1.187 1.432 1.187h2.994v11.78c0 3.47 2.733 5.753 6.985 5.753 2.039 0 4.469-.502 6.551-1.324 1.605-.64 2.299-1.233 2.299-1.918 0-.64-.477-1.141-1.085-1.141-.217 0-.39.046-.781.32-1.692 1.004-4.686 1.735-7.072 1.735-2.863 0-4.642-1.37-4.642-3.515v-11.69h9.285c.955 0 1.432-.411 1.432-1.187s-.477-1.141-1.432-1.141zm25.2-8.4h-4.382c-.911 0-1.388.41-1.388 1.141 0 .776.477 1.187 1.388 1.187h2.126v22.87h-1.735c-.955 0-1.432.41-1.432 1.141 0 .776.52 1.187 1.432 1.187h5.727c.911 0 1.432-.41 1.432-1.187 0-.73-.477-1.141-1.432-1.141h-1.735v-11.09c1.171-1.37 1.909-2.237 2.169-2.465 1.258-1.096 2.43-1.552 4.078-1.552 1.692 0 2.56.274 3.514 1.096 1.041.868 1.562 1.918 1.562 3.196v10.82h-1.735c-.911 0-1.388.41-1.388 1.141 0 .776.477 1.187 1.388 1.187h5.727c.911 0 1.432-.41 1.432-1.187 0-.73-.477-1.141-1.432-1.141h-1.735v-10.96c0-3.744-2.994-6.483-7.115-6.483-2.603 0-4.382.913-6.465 3.333zm29.6 8.4h-5.25c-.911 0-1.432.41-1.432 1.141 0 .73.52 1.187 1.432 1.187h2.994v14.47h-3.948c-.911 0-1.432.457-1.432 1.141 0 .776.52 1.187 1.432 1.187h13.75c.868 0 1.388-.41 1.388-1.187 0-.685-.52-1.141-1.388-1.141h-7.549v-9.496c4.686-4.429 6.117-5.433 7.983-5.433.868 0 1.649.41 2.69 1.507.347.32.477.41.868.41.65 0 1.128-.501 1.128-1.232 0-.457-.26-.868-1.085-1.552-1.171-1.05-2.126-1.461-3.471-1.461-2.256 0-4.295 1.187-8.113 4.748zm28.2-.64c-5.814 0-10.28 4.474-10.28 10.27 0 5.661 4.512 10.23 10.15 10.23s10.11-4.52 10.11-10.27c0-5.616-4.469-10.23-9.979-10.23zm-.26 2.328c4.512 0 7.983 3.424 7.983 7.944 0 4.383-3.471 7.898-7.853 7.898s-7.896-3.515-7.896-7.944c0-4.337 3.47-7.898 7.766-7.898zM465.5 39.03h3.514c.911 0 1.388-.41 1.388-1.187 0-.73-.477-1.141-1.388-1.141h-1.258v-16.8h-5.25c-.998 0-1.432.365-1.432 1.141s.477 1.187 1.432 1.187h2.994v11.32c-2.343 2.602-4.859 3.881-7.679 3.881-2.083 0-3.731-1.644-3.731-3.789v-13.74h-4.382c-.954 0-1.388.365-1.388 1.141s.477 1.187 1.388 1.187h2.126v11.41c0 3.698 2.43 6.118 6.031 6.118 2.777 0 5.25-1.096 7.636-3.379zm26-15.94c-1.909-2.648-4.165-3.835-7.159-3.835-5.076 0-9.198 4.337-9.198 9.633 0 5.342 4.122 9.679 9.198 9.679 2.95 0 5.25-1.233 7.159-3.789v4.976c.174 2.694-2.343 5.296-5.076 5.25h-5.033c-.911 0-1.388.365-1.388 1.187 0 .73.477 1.141 1.388 1.141h4.989c3.731.228 7.506-3.515 7.376-7.305v-17.81h2.126c.911 0 1.388-.41 1.388-1.187s-.434-1.141-1.388-1.141H491.5zm-7.115-1.507c4.035 0 7.115 3.196 7.115 7.351 0 4.063-3.08 7.305-7.029 7.305-3.948 0-7.072-3.242-7.072-7.351 0-4.018 3.124-7.305 6.985-7.305zM506.1 11.5h-4.382c-.911 0-1.388.41-1.388 1.141 0 .776.477 1.187 1.388 1.187h2.126v22.87h-1.735c-.954 0-1.432.41-1.432 1.141 0 .776.52 1.187 1.432 1.187h5.727c.911 0 1.432-.41 1.432-1.187 0-.73-.477-1.141-1.432-1.141h-1.735v-11.09c1.171-1.37 1.909-2.237 2.169-2.465 1.258-1.096 2.43-1.552 4.078-1.552 1.692 0 2.56.274 3.514 1.096 1.041.868 1.562 1.918 1.562 3.196v10.82h-1.735c-.911 0-1.388.41-1.388 1.141 0 .776.477 1.187 1.388 1.187h5.727c.911 0 1.432-.41 1.432-1.187 0-.73-.477-1.141-1.432-1.141h-1.735v-10.96c0-3.744-2.994-6.483-7.115-6.483-2.603 0-4.382.913-6.465 3.333zm52.1 15.38h5.814v1.781c0 .913.39 1.415 1.128 1.415.738 0 1.128-.457 1.128-1.415v-5.89c0-.959-.39-1.461-1.128-1.461-.738 0-1.128.502-1.128 1.461v1.781H558.2v-8.903h12.23v4.155c0 .959.39 1.461 1.128 1.461.738 0 1.128-.502 1.128-1.461v-6.483h-18.87c-.911 0-1.388.365-1.388 1.141s.477 1.187 1.388 1.187h2.126v21.05h-2.126c-.911 0-1.388.41-1.388 1.141 0 .776.477 1.187 1.388 1.187h19.78v-7.396c0-.959-.39-1.461-1.128-1.461s-1.128.502-1.128 1.461v5.068h-13.15zm26.9-6.98v-5.113c0-.959-.39-1.415-1.128-1.415-.738 0-1.128.502-1.128 1.415V19.9h-2.994c-.955 0-1.432.365-1.432 1.141s.477 1.187 1.432 1.187h2.994v11.78c0 3.47 2.733 5.753 6.985 5.753 2.039 0 4.469-.502 6.551-1.324 1.605-.64 2.299-1.233 2.299-1.918 0-.64-.477-1.141-1.085-1.141-.217 0-.39.046-.781.32-1.692 1.004-4.686 1.735-7.072 1.735-2.863 0-4.642-1.37-4.642-3.515v-11.69h9.285c.954 0 1.432-.411 1.432-1.187s-.477-1.141-1.432-1.141zm25.1-8.4h-4.382c-.911 0-1.388.41-1.388 1.141 0 .776.477 1.187 1.388 1.187h2.126v22.87h-1.735c-.954 0-1.432.41-1.432 1.141 0 .776.52 1.187 1.432 1.187h5.727c.911 0 1.432-.41 1.432-1.187 0-.73-.477-1.141-1.432-1.141h-1.735v-11.09c1.171-1.37 1.909-2.237 2.169-2.465 1.258-1.096 2.43-1.552 4.078-1.552 1.692 0 2.56.274 3.514 1.096 1.041.868 1.562 1.918 1.562 3.196v10.82h-1.735c-.911 0-1.388.41-1.388 1.141 0 .776.477 1.187 1.388 1.187h5.727c.911 0 1.432-.41 1.432-1.187 0-.73-.477-1.141-1.432-1.141h-1.735v-10.96c0-3.744-2.994-6.483-7.115-6.483-2.603 0-4.382.913-6.465 3.333zm41.5 18.62v-.685c0-5.844-4.339-10.18-10.15-10.18-5.727 0-10.15 4.292-10.15 9.816 0 6.027 4.729 10.68 10.76 10.68 4.208 0 9.371-2.19 9.371-3.926 0-.639-.477-1.14-1.085-1.14-.26 0-.434.09-.781.364-1.735 1.37-4.859 2.374-7.462 2.374-4.512 0-7.896-2.922-8.504-7.305zm-18.01-2.328c.738-3.744 3.861-6.209 7.853-6.209 3.948 0 7.115 2.511 7.81 6.209zM666 19.9h-5.25c-.911 0-1.432.41-1.432 1.141 0 .73.52 1.187 1.432 1.187h2.994v14.47h-3.948c-.911 0-1.432.457-1.432 1.141 0 .776.52 1.187 1.432 1.187h13.75c.868 0 1.388-.41 1.388-1.187 0-.685-.52-1.141-1.388-1.141h-7.549v-9.496c4.686-4.429 6.117-5.433 7.983-5.433.868 0 1.649.41 2.69 1.507.347.32.477.41.868.41.65 0 1.128-.501 1.128-1.232 0-.457-.26-.868-1.085-1.552-1.171-1.05-2.126-1.461-3.471-1.461-2.256 0-4.295 1.187-8.113 4.748zm22.4 0h-3.514c-.954 0-1.388.365-1.388 1.141s.477 1.187 1.388 1.187h1.258v14.47h-1.735c-.954 0-1.432.41-1.432 1.141 0 .776.52 1.187 1.432 1.187h5.727c.911 0 1.388-.41 1.388-1.187 0-.73-.477-1.141-1.388-1.141h-1.735v-11c2.647-3.424 3.731-4.109 6.378-4.109 1.562 0 2.386.274 3.341 1.096 1.041.913 1.562 1.963 1.562 3.196v10.82h-1.215c-.954 0-1.432.41-1.432 1.141 0 .776.52 1.187 1.432 1.187h4.729c.868 0 1.388-.41 1.388-1.187 0-.73-.477-1.141-1.388-1.141h-1.258v-11.14c0-3.561-3.037-6.3-7.029-6.3-2.647 0-4.208.822-6.508 3.379zm41.4 10.22v-.685c0-5.844-4.339-10.18-10.15-10.18-5.727 0-10.15 4.292-10.15 9.816 0 6.027 4.729 10.68 10.76 10.68 4.208 0 9.371-2.19 9.371-3.926 0-.639-.477-1.14-1.085-1.14-.26 0-.434.09-.781.364-1.735 1.37-4.859 2.374-7.462 2.374-4.512 0-7.896-2.922-8.504-7.305zm-18.01-2.328c.738-3.744 3.861-6.209 7.853-6.209 3.948 0 7.115 2.511 7.81 6.209zM741.3 19.9v-5.113c0-.959-.39-1.415-1.128-1.415s-1.128.502-1.128 1.415V19.9h-2.994c-.955 0-1.432.365-1.432 1.141s.477 1.187 1.432 1.187h2.994v11.78c0 3.47 2.733 5.753 6.985 5.753 2.039 0 4.469-.502 6.551-1.324 1.605-.64 2.299-1.233 2.299-1.918 0-.64-.477-1.141-1.085-1.141-.217 0-.39.046-.78.32-1.693 1.004-4.687 1.735-7.073 1.735-2.863 0-4.642-1.37-4.642-3.515v-11.69h9.285c.955 0 1.432-.411 1.432-1.187s-.477-1.141-1.432-1.141zm64 1.55c-1.735-1.415-4.035-2.191-6.595-2.191-5.944 0-10.2 4.337-10.2 10.41 0 5.89 4.165 10.09 10.02 10.09 2.907 0 5.77-.867 8.07-2.511 1.302-.913 1.952-1.735 1.952-2.374 0-.594-.477-1.096-1.041-1.096-.347 0-.564.091-.955.502-2.169 2.1-4.816 3.15-7.94 3.15-4.599 0-7.853-3.196-7.853-7.807 0-4.794 3.167-8.035 7.81-8.035 3.558 0 6.465 1.735 6.725 4.018.087.913.434 1.278 1.085 1.278.738 0 1.128-.502 1.128-1.415V21.36c0-.959-.39-1.46-1.128-1.46-.737 0-1.085.501-1.085 1.46zM829 39.03h4.382c.911 0 1.388-.41 1.388-1.187 0-.73-.477-1.141-1.388-1.141h-2.126v-11.69c0-3.333-3.08-5.753-7.246-5.753-1.649 0-4.469.594-6.855 1.461-.607.228-.911.594-.911 1.141 0 .64.477 1.141 1.04 1.141.218 0 .348-.046.912-.228 2.473-.822 4.295-1.187 5.684-1.187 3.037 0 5.12 1.37 5.12 3.424v2.83c-2.603-.684-3.688-.821-5.64-.821-5.64 0-9.415 2.739-9.415 6.803 0 3.515 2.82 5.935 6.985 5.935 2.994 0 5.38-1.004 8.07-3.424zm0-5.387c-2.82 2.739-5.076 3.789-8.07 3.789-2.907 0-4.729-1.415-4.729-3.607 0-2.648 3.037-4.474 7.376-4.474 1.909 0 3.992.228 5.423.594zM843.6 11.5h-4.382c-.911 0-1.388.41-1.388 1.141 0 .776.477 1.187 1.388 1.187h2.126v22.87h-2.126c-.911 0-1.388.41-1.388 1.141 0 .776.477 1.187 1.388 1.187h4.382v-3.424c2.083 2.831 4.512 4.155 7.593 4.155 5.337 0 9.632-4.611 9.632-10.32 0-5.707-4.252-10.18-9.632-10.18-3.037 0-5.64 1.415-7.593 4.109zm7.376 10.09c4.295 0 7.593 3.47 7.593 7.944 0 4.383-3.341 7.898-7.506 7.898-4.122 0-7.462-3.515-7.462-7.944 0-4.337 3.297-7.898 7.376-7.898zM877.3 11.5h-7.072c-.954 0-1.432.41-1.432 1.141 0 .776.477 1.187 1.432 1.187h4.816v22.87h-6.725c-.911 0-1.388.41-1.388 1.141 0 .776.477 1.187 1.388 1.187h15.71c.911 0 1.432-.41 1.432-1.187 0-.73-.477-1.141-1.432-1.141h-6.725zM912 30.12v-.685c0-5.844-4.339-10.18-10.15-10.18-5.727 0-10.15 4.292-10.15 9.816 0 6.027 4.729 10.68 10.76 10.68 4.208 0 9.371-2.19 9.371-3.926 0-.639-.477-1.14-1.085-1.14-.26 0-.434.09-.78.364-1.736 1.37-4.86 2.374-7.463 2.374-4.512 0-7.896-2.922-8.504-7.305zm-18.01-2.328c.738-3.744 3.861-6.209 7.853-6.209 3.948 0 7.115 2.511 7.81 6.209z" style="paint-order:markers fill stroke" transform="translate(0 9.721)" stroke-width="3.556"/><path d="M243.4 738.5v-11.7h6.726v1.675c0 .482.477.837 1.172.837.738 0 1.085-.253 1.085-.837v-2.968h-20.26v2.968c0 .558.39.837 1.128.837.738 0 1.128-.279 1.128-.837V726.8h6.769v11.7h-4.296c-.955 0-1.432.228-1.432.634 0 .432.52.66 1.432.66h10.85c.911 0 1.432-.228 1.432-.66 0-.406-.477-.634-1.432-.634zm26-11.7h5.814c.911 0 1.432-.228 1.432-.66s-.477-.634-1.432-.634h-13.89c-.911 0-1.389.203-1.389.634s.477.66 1.389.66h5.814v11.7h-5.814c-.911 0-1.389.228-1.389.634 0 .432.477.66 1.389.66h13.89c.911 0 1.432-.228 1.432-.66 0-.406-.477-.634-1.432-.634H269.4zm30.4 8.3 2.213 3.374h-2.951c-.911 0-1.389.228-1.389.634 0 .432.477.66 1.389.66h6.769c.911 0 1.432-.228 1.432-.66 0-.406-.477-.634-1.432-.634h-1.432l-8.548-12.99h-8.982c-.955 0-1.432.203-1.432.634s.52.66 1.432.66h4.816l-7.55 11.7h-1.215c-.911 0-1.389.228-1.389.634 0 .432.52.66 1.389.66h6.552c.911 0 1.432-.228 1.432-.66 0-.406-.477-.634-1.432-.634h-3.081l2.17-3.374zm-.868-1.294h-9.503l4.513-7.028h.347zM328.5 724c.217-.254.26-.304.26-.431 0-.33-.52-.61-1.128-.61-.52 0-.824.128-1.128.508l-14.23 17.33c-.173.203-.217.305-.217.432 0 .33.521.608 1.128.608.521 0 .825-.126 1.128-.507zm12.3 9h5.814v.99c0 .507.39.786 1.128.786.738 0 1.128-.254 1.128-.786v-3.273c0-.533-.39-.812-1.128-.812-.738 0-1.128.279-1.128.811v.99H340.8v-4.947h12.24v2.309c0 .533.39.812 1.128.812.738 0 1.128-.28 1.128-.812v-3.603h-18.88c-.911 0-1.389.203-1.389.634s.477.66 1.389.66h2.126v11.7h-2.126c-.911 0-1.389.228-1.389.634 0 .432.477.66 1.389.66h19.79v-4.11c0-.533-.39-.812-1.128-.812-.738 0-1.128.28-1.128.812v2.816H340.8zm32.8-6.2h5.814c.911 0 1.432-.228 1.432-.66s-.477-.634-1.432-.634h-13.89c-.911 0-1.389.203-1.389.634s.477.66 1.389.66h5.814v11.7h-5.814c-.911 0-1.389.228-1.389.634 0 .432.477.66 1.389.66h13.89c.911 0 1.432-.228 1.432-.66 0-.406-.477-.634-1.432-.634H373.6zm30.3 8.3 2.213 3.374h-2.951c-.911 0-1.389.228-1.389.634 0 .432.477.66 1.389.66h6.769c.911 0 1.432-.228 1.432-.66 0-.406-.477-.634-1.432-.634h-1.432l-8.548-12.99h-8.982c-.955 0-1.432.203-1.432.634s.52.66 1.432.66h4.816l-7.55 11.7h-1.215c-.911 0-1.389.228-1.389.634 0 .432.52.66 1.389.66h6.552c.911 0 1.432-.228 1.432-.66 0-.406-.477-.634-1.432-.634h-3.081l2.17-3.374zm-.868-1.294h-9.503l4.513-7.028h.347zm30.168-.406c.955 0 1.432-.228 1.432-.66 0-.406-.477-.634-1.432-.634h-17.44c-.911 0-1.389.228-1.389.634 0 .432.477.66 1.389.66zm12.8-7.6h10.24c.955 0 1.432-.228 1.432-.66 0-.406-.477-.634-1.432-.634h-12.5v6.825c0 .406.434.685 1.085.685.26 0 .477-.05 1.041-.203 1.909-.558 3.645-.812 5.381-.812 3.515 0 5.901 1.472 5.901 3.628 0 2.537-2.82 4.262-6.943 4.262-2.43 0-4.686-.558-6.769-1.649-.39-.203-.607-.254-.911-.254-.608 0-1.085.28-1.085.635 0 .38.607.76 2.126 1.319 2.213.837 4.383 1.243 6.726 1.243 5.337 0 9.112-2.283 9.112-5.506 0-2.892-3.341-4.973-7.941-4.973-1.866 0-3.341.203-5.467.685zm25.5 7.3c-.043-.254-.043-.482-.043-.609 0-1.522.694-3.045 1.953-4.11 2.083-1.827 5.424-2.968 8.678-2.968.78 0 1.432.05 1.866.178.433.127.607.152.867.152.608 0 1.041-.28 1.041-.609 0-.583-1.606-1.015-3.732-1.015-2.82 0-5.684.634-8.027 1.801-3.254 1.598-4.816 3.755-4.816 6.723 0 4.389 3.688 7.485 8.982 7.485 4.34 0 7.724-2.157 7.724-4.922 0-2.613-3.385-4.77-7.507-4.77-2.864 0-5.424.964-6.986 2.664zm.304 1.852c.998-1.015 1.475-1.446 2.083-1.852 1.389-.888 3.037-1.37 4.6-1.37 2.864 0 5.25 1.573 5.25 3.476 0 2.055-2.343 3.628-5.424 3.628-3.254 0-5.337-1.218-6.51-3.882zM506.4 731.9c2.734-.837 4.079-2.004 4.079-3.476 0-2.309-3.602-4.237-7.897-4.237-4.296 0-7.897 1.928-7.897 4.237 0 1.472 1.389 2.639 4.122 3.476-2.907.812-4.556 2.182-4.556 3.78 0 2.486 3.732 4.516 8.375 4.516 4.6 0 8.331-2.03 8.331-4.516 0-1.598-1.692-2.994-4.556-3.78zm-3.905-6.419c3.211 0 5.728 1.319 5.728 2.994 0 1.573-2.473 2.791-5.641 2.791s-5.641-1.218-5.641-2.791c0-1.649 2.517-2.994 5.554-2.994zm0 7.053c3.558 0 6.205 1.345 6.205 3.146s-2.69 3.222-6.075 3.222c-3.428 0-6.118-1.421-6.118-3.222 0-1.751 2.647-3.146 5.988-3.146zM520.8 738.5h-2.126c-.911 0-1.389.228-1.389.634 0 .432.477.66 1.389.66h13.32c4.079 0 7.377-1.776 7.377-3.958 0-1.624-1.779-2.867-5.164-3.603 2.256-.786 3.341-1.725 3.341-2.968 0-2.131-3.298-3.755-7.637-3.755h-11.24c-.911 0-1.389.203-1.389.634s.477.66 1.389.66h2.126zm2.256-6.749v-4.947h6.899c2.994 0 5.337 1.066 5.337 2.436 0 1.472-2.517 2.512-6.075 2.512zm0 6.749v-5.455h6.248c2.603 0 3.992.152 5.337.609 1.562.533 2.473 1.345 2.473 2.207 0 1.472-2.3 2.639-5.25 2.639zm63.744-12c-1.736-.888-3.732-1.294-6.162-1.294-4.686 0-8.201 1.725-8.201 3.983 0 1.116.868 2.131 2.343 2.715 1.345.558 2.951.863 5.988 1.167 3.081.28 3.949.431 4.99.812 1.128.406 1.822 1.167 1.822 1.979 0 1.75-2.907 3.045-6.856 3.045-3.818 0-6.856-1.192-7.073-2.766-.043-.507-.39-.736-1.085-.736-.738 0-1.128.28-1.128.812v2.766c0 .533.39.812 1.128.812.738 0 1.128-.28 1.128-.812v-.355c1.779 1.015 4.252 1.573 7.073 1.573 5.381 0 9.199-1.801 9.199-4.288 0-1.32-1.041-2.436-2.777-3.045-1.345-.482-2.56-.685-5.945-1.015-2.647-.254-3.775-.457-4.816-.863-1.041-.38-1.605-1.015-1.605-1.75 0-1.599 2.517-2.74 5.988-2.74 3.254 0 5.771 1.04 5.988 2.46.043.508.434.736 1.085.736.738 0 1.128-.28 1.128-.812v-2.563c0-.507-.39-.786-1.128-.786-.738 0-1.085.279-1.085.786zm15.3 2.7v-2.842c0-.533-.39-.786-1.128-.786-.738 0-1.128.279-1.128.786v2.842h-2.994c-.955 0-1.432.203-1.432.634s.477.66 1.432.66h2.994v6.546c0 1.928 2.734 3.197 6.986 3.197 2.039 0 4.469-.28 6.552-.736 1.605-.355 2.3-.685 2.3-1.066 0-.355-.477-.634-1.085-.634-.217 0-.39.025-.781.178-1.692.558-4.686.964-7.073.964-2.864 0-4.643-.762-4.643-1.954v-6.495h9.286c.955 0 1.432-.229 1.432-.66s-.477-.634-1.432-.634zm35.6 10.6h4.383c.911 0 1.389-.228 1.389-.66 0-.406-.477-.634-1.389-.634h-2.126v-6.495c0-1.852-3.081-3.197-7.246-3.197-1.649 0-4.469.33-6.856.812-.607.127-.911.33-.911.634 0 .355.477.634 1.04.634.218 0 .348-.025.912-.126 2.473-.457 4.296-.66 5.684-.66 3.037 0 5.12.761 5.12 1.903v1.573c-2.603-.38-3.688-.457-5.641-.457-5.641 0-9.416 1.522-9.416 3.78 0 1.954 2.82 3.298 6.986 3.298 2.994 0 5.381-.558 8.071-1.903zm0-2.994c-2.82 1.522-5.077 2.106-8.071 2.106-2.907 0-4.73-.787-4.73-2.004 0-1.472 3.037-2.486 7.377-2.486 1.909 0 3.992.127 5.424.33zm15.6-7.606h-3.515c-.955 0-1.389.203-1.389.634s.477.66 1.389.66h1.258v8.043h-1.736c-.955 0-1.432.228-1.432.634 0 .432.52.66 1.432.66h5.728c.911 0 1.389-.228 1.389-.66 0-.406-.477-.634-1.389-.634h-1.736v-6.115c2.647-1.903 3.732-2.283 6.379-2.283 1.562 0 2.387.152 3.341.609 1.041.507 1.562 1.09 1.562 1.776v6.013h-1.215c-.955 0-1.432.228-1.432.634 0 .432.52.66 1.432.66h4.73c.868 0 1.389-.228 1.389-.66 0-.406-.477-.634-1.389-.634h-1.258v-6.191c0-1.98-3.037-3.501-7.029-3.501-2.647 0-4.209.457-6.509 1.877zm40.6-4.7h-4.383c-.911 0-1.389.228-1.389.634 0 .432.477.66 1.389.66h2.126v5.328c-1.953-1.522-4.556-2.309-7.637-2.309-5.337 0-9.633 2.537-9.633 5.683s4.296 5.709 9.59 5.709c3.081 0 5.771-.812 7.68-2.309v1.903h4.383c.911 0 1.389-.228 1.389-.66 0-.406-.477-.634-1.389-.634H693.9zm-9.85 5.607c4.296 0 7.594 1.903 7.594 4.415 0 2.436-3.341 4.389-7.507 4.389-4.209 0-7.507-1.954-7.507-4.415 0-2.436 3.298-4.389 7.42-4.389zm31.75 9.693h4.383c.911 0 1.389-.228 1.389-.66 0-.406-.477-.634-1.389-.634h-2.126v-6.495c0-1.852-3.081-3.197-7.246-3.197-1.649 0-4.469.33-6.856.812-.607.127-.911.33-.911.634 0 .355.477.634 1.04.634.218 0 .348-.025.912-.126 2.473-.457 4.296-.66 5.684-.66 3.037 0 5.12.761 5.12 1.903v1.573c-2.604-.38-3.688-.457-5.641-.457-5.641 0-9.416 1.522-9.416 3.78 0 1.954 2.82 3.298 6.986 3.298 2.994 0 5.381-.558 8.071-1.903zm0-2.994c-2.82 1.522-5.077 2.106-8.071 2.106-2.907 0-4.73-.787-4.73-2.004 0-1.472 3.037-2.486 7.377-2.486 1.909 0 3.992.127 5.424.33zM735 729.2h-5.25c-.911 0-1.432.228-1.432.634s.52.66 1.432.66h2.994v8.043h-3.949c-.911 0-1.432.254-1.432.634 0 .432.52.66 1.432.66h13.76c.868 0 1.389-.228 1.389-.66 0-.38-.52-.634-1.389-.634h-7.55v-5.277c4.686-2.461 6.118-3.019 7.984-3.019.868 0 1.649.228 2.69.837.347.178.477.229.868.229.65 0 1.128-.28 1.128-.685 0-.254-.26-.482-1.085-.863-1.172-.583-2.126-.812-3.471-.812-2.256 0-4.296.66-8.114 2.64zm37-4.7h-4.383c-.911 0-1.389.228-1.389.634 0 .432.477.66 1.389.66h2.126v5.328c-1.953-1.522-4.556-2.309-7.637-2.309-5.337 0-9.633 2.537-9.633 5.683s4.296 5.709 9.59 5.709c3.081 0 5.771-.812 7.68-2.309v1.903h4.383c.911 0 1.389-.228 1.389-.66 0-.406-.477-.634-1.389-.634H772zm-9.85 5.607c4.296 0 7.594 1.903 7.594 4.415 0 2.436-3.341 4.389-7.507 4.389-4.209 0-7.507-1.954-7.507-4.415 0-2.436 3.298-4.389 7.42-4.389zm26.65 6.493c-1.822 0-3.211.761-3.211 1.751 0 .99 1.389 1.776 3.211 1.776h.477c1.822 0 3.211-.786 3.211-1.776s-1.389-1.751-3.21-1.751zm0-7.459c-1.822 0-3.211.761-3.211 1.751 0 .99 1.389 1.776 3.211 1.776h.477c1.822 0 3.211-.761 3.211-1.776 0-.99-1.389-1.751-3.21-1.751zM243.4 756l-8.331 1.522c-.824.152-1.085.305-1.085.66 0 .33.52.634 1.041.634.087 0 .52-.05.694-.076l5.424-.99v12.51h-5.814c-.954 0-1.432.229-1.432.635 0 .431.521.66 1.432.66h13.89c.912 0 1.39-.229 1.39-.66 0-.406-.478-.635-1.39-.635h-5.814zm24.7 12.4c-1.822 0-3.211.761-3.211 1.751 0 .99 1.389 1.776 3.211 1.776h.477c1.822 0 3.211-.787 3.211-1.776s-1.389-1.751-3.21-1.751zm0-7.459c-1.822 0-3.211.761-3.211 1.751s1.389 1.776 3.211 1.776h.477c1.822 0 3.211-.761 3.211-1.776 0-.99-1.389-1.751-3.21-1.751zm44.3 10.559h3.168l4.773-9.59 4.686 9.59h3.168l2.69-12.99h.434c.911 0 1.432-.228 1.432-.66s-.477-.634-1.432-.634h-6.51c-.91 0-1.388.203-1.388.634s.477.66 1.389.66h3.905l-2.3 11.01-4.47-9.185h-3.036l-4.6 9.21-2.256-11.04h3.818c.911 0 1.432-.228 1.432-.66s-.477-.634-1.432-.634h-6.51c-.91 0-1.388.203-1.388.634s.477.66 1.389.66h.477zm28.4-15.3h-4.383c-.911 0-1.389.228-1.389.634 0 .432.477.66 1.389.66h2.126v12.71h-1.736c-.955 0-1.432.228-1.432.634 0 .432.52.66 1.432.66h5.728c.911 0 1.432-.228 1.432-.66 0-.406-.477-.634-1.432-.634h-1.736v-6.165c1.172-.761 1.909-1.243 2.17-1.37 1.258-.609 2.43-.863 4.079-.863 1.692 0 2.56.153 3.515.61 1.041.481 1.562 1.065 1.562 1.775v6.013h-1.736c-.911 0-1.389.229-1.389.635 0 .43.477.66 1.389.66h5.728c.911 0 1.432-.229 1.432-.66 0-.406-.477-.635-1.432-.635h-1.736v-6.089c0-2.08-2.994-3.603-7.116-3.603-2.604 0-4.383.508-6.465 1.852zm32.8 4.7h-7.16c-.955 0-1.389.203-1.389.634s.477.66 1.389.66h4.903v8.043h-6.726c-.911 0-1.389.228-1.389.634 0 .432.477.66 1.389.66h15.71c.911 0 1.432-.228 1.432-.66 0-.406-.477-.634-1.432-.634h-6.726zm-.087-5.15h-3.037v2.867h3.037zm20.287 5.15v-2.842c0-.533-.39-.786-1.128-.786-.738 0-1.128.279-1.128.786v2.842h-2.994c-.955 0-1.432.203-1.432.634s.477.66 1.432.66h2.994v6.546c0 1.928 2.734 3.197 6.986 3.197 2.039 0 4.469-.28 6.552-.736 1.605-.355 2.3-.685 2.3-1.066 0-.355-.477-.634-1.085-.634-.217 0-.39.025-.781.178-1.692.558-4.686.964-7.073.964-2.864 0-4.643-.762-4.643-1.954v-6.495h9.286c.955 0 1.432-.229 1.432-.66s-.477-.634-1.432-.634zm40.5 5.7v-.38c0-3.249-4.339-5.659-10.15-5.659-5.728 0-10.15 2.385-10.15 5.455 0 3.35 4.73 5.937 10.76 5.937 4.209 0 9.373-1.218 9.373-2.182 0-.355-.477-.634-1.085-.634-.26 0-.434.05-.781.203-1.736.761-4.86 1.32-7.463 1.32-4.513 0-7.897-1.625-8.505-4.06zm-18.01-1.294c.738-2.08 3.862-3.451 7.854-3.451 3.949 0 7.116 1.395 7.81 3.451zm42.41-9.606c.217-.254.26-.304.26-.431 0-.33-.52-.61-1.128-.61-.52 0-.824.128-1.128.508l-14.23 17.33c-.173.203-.217.305-.217.432 0 .33.521.609 1.128.609.521 0 .825-.127 1.128-.508zm18.1 1.2c-6.335 0-11.2 3.273-11.2 7.51 0 4.186 4.903 7.485 11.02 7.485 6.205 0 11.06-3.298 11.06-7.51 0-4.136-4.86-7.485-10.89-7.485zm-.26 1.294c4.947 0 8.895 2.74 8.895 6.216 0 3.4-3.95 6.191-8.808 6.191-4.816 0-8.765-2.791-8.765-6.216 0-3.374 3.949-6.191 8.678-6.191zm24.16 2.706h-5.25c-.911 0-1.432.228-1.432.634s.52.66 1.432.66h2.994v8.043h-3.949c-.911 0-1.432.254-1.432.634 0 .432.52.66 1.432.66h13.76c.868 0 1.389-.228 1.389-.66 0-.38-.52-.634-1.389-.634h-7.55v-5.277c4.686-2.461 6.118-3.019 7.984-3.019.868 0 1.649.228 2.69.837.347.178.477.229.868.229.65 0 1.128-.28 1.128-.685 0-.254-.26-.482-1.085-.863-1.172-.584-2.126-.812-3.471-.812-2.256 0-4.296.66-8.114 2.64zm32.9 10.6h4.383c.911 0 1.389-.228 1.389-.66 0-.406-.477-.634-1.389-.634h-2.126v-6.495c0-1.852-3.081-3.197-7.246-3.197-1.649 0-4.469.33-6.856.812-.607.127-.911.33-.911.634 0 .355.477.634 1.04.634.218 0 .348-.025.912-.126 2.473-.457 4.296-.66 5.684-.66 3.037 0 5.12.761 5.12 1.903v1.573c-2.604-.38-3.688-.457-5.641-.457-5.641 0-9.416 1.522-9.416 3.78 0 1.954 2.82 3.298 6.986 3.298 2.994 0 5.381-.558 8.071-1.903zm0-2.994c-2.82 1.522-5.077 2.106-8.071 2.106-2.907 0-4.73-.786-4.73-2.004 0-1.472 3.037-2.486 7.377-2.486 1.909 0 3.992.127 5.424.33zm15.6-7.606h-3.515c-.955 0-1.389.203-1.389.634s.477.66 1.389.66h1.258v8.043h-1.736c-.955 0-1.432.228-1.432.634 0 .432.52.66 1.432.66h5.728c.911 0 1.389-.228 1.389-.66 0-.406-.477-.634-1.389-.634h-1.736v-6.115c2.647-1.903 3.732-2.283 6.379-2.283 1.562 0 2.387.152 3.341.609 1.041.507 1.562 1.09 1.562 1.776v6.013h-1.215c-.955 0-1.432.228-1.432.634 0 .432.52.66 1.432.66h4.73c.868 0 1.389-.228 1.389-.66 0-.406-.477-.634-1.389-.634h-1.258v-6.191c0-1.98-3.037-3.501-7.029-3.501-2.647 0-4.209.457-6.509 1.878zm37.4 1.8c-1.909-1.472-4.166-2.131-7.16-2.131-5.077 0-9.199 2.41-9.199 5.353 0 2.968 4.122 5.379 9.199 5.379 2.951 0 5.25-.685 7.16-2.106v2.765c.174 1.497-2.343 2.943-5.077 2.918h-5.033c-.911 0-1.389.203-1.389.66 0 .406.477.634 1.389.634h4.99c3.732.127 7.507-1.954 7.377-4.059v-9.895h2.126c.911 0 1.389-.228 1.389-.66s-.434-.634-1.389-.634H586.6zm-7.116-.837c4.035 0 7.116 1.776 7.116 4.085 0 2.258-3.081 4.059-7.029 4.059s-7.073-1.801-7.073-4.085c0-2.233 3.124-4.06 6.986-4.06zM616.6 766.6v-.38c0-3.249-4.339-5.659-10.15-5.659-5.728 0-10.15 2.385-10.15 5.455 0 3.35 4.73 5.937 10.76 5.937 4.209 0 9.373-1.218 9.373-2.182 0-.355-.477-.634-1.085-.634-.26 0-.434.05-.781.203-1.736.761-4.86 1.32-7.463 1.32-4.513 0-7.897-1.625-8.505-4.06zm-18.01-1.294c.738-2.08 3.862-3.451 7.854-3.451 3.949 0 7.116 1.395 7.81 3.451zM235.1 801.9c2.343-1.167 5.033-2.613 8.635-4.643 5.467-3.045 6.335-3.78 6.335-5.277 0-2.36-3.862-4.415-8.244-4.415-2.69 0-5.207.71-6.856 1.928-.868.634-1.432 1.395-1.432 1.877 0 .304.477.584 1.085.584.564 0 .911-.178 1.085-.584.738-1.472 3.298-2.512 6.118-2.512 3.211 0 5.988 1.446 5.988 3.095 0 1.091-.781 1.725-4.816 4.009-3.602 2.004-6.899 3.78-9.937 5.328l-.39.203v1.7h17.57v-2.055c0-.533-.391-.812-1.129-.812-.737 0-1.127.28-1.127.812v.761zm33-1.8c-1.822 0-3.211.761-3.211 1.751 0 .99 1.389 1.776 3.211 1.776h.477c1.822 0 3.211-.786 3.211-1.776s-1.389-1.751-3.21-1.751zm0-7.459c-1.822 0-3.211.761-3.211 1.751 0 .99 1.389 1.776 3.211 1.776h.477c1.822 0 3.211-.761 3.211-1.776 0-.99-1.389-1.751-3.21-1.751zm52.4-4.041c-6.335 0-11.2 3.273-11.2 7.51 0 4.186 4.903 7.485 11.02 7.485 6.205 0 11.06-3.298 11.06-7.51 0-4.136-4.86-7.485-10.89-7.485zm-.26 1.294c4.947 0 8.895 2.74 8.895 6.216 0 3.4-3.95 6.191-8.808 6.191-4.816 0-8.765-2.791-8.765-6.216 0-3.374 3.949-6.191 8.678-6.191zm24.26 2.706h-5.25c-.911 0-1.432.228-1.432.634s.52.66 1.432.66h2.994v8.043h-3.949c-.911 0-1.432.254-1.432.634 0 .432.52.66 1.432.66h13.76c.868 0 1.389-.228 1.389-.66 0-.38-.52-.634-1.389-.634h-7.55v-5.277c4.686-2.461 6.118-3.019 7.984-3.019.868 0 1.649.228 2.69.837.347.178.477.229.868.229.65 0 1.128-.28 1.128-.685 0-.254-.26-.483-1.085-.863-1.172-.584-2.126-.812-3.471-.812-2.256 0-4.296.66-8.114 2.639zm32.9 10.6h4.383c.911 0 1.389-.228 1.389-.66 0-.406-.477-.634-1.389-.634h-2.126v-6.495c0-1.852-3.081-3.197-7.246-3.197-1.649 0-4.469.33-6.856.812-.607.127-.911.33-.911.634 0 .355.477.635 1.04.635.218 0 .348-.026.912-.127 2.473-.457 4.296-.66 5.684-.66 3.037 0 5.12.761 5.12 1.903v1.573c-2.604-.38-3.688-.457-5.641-.457-5.641 0-9.416 1.522-9.416 3.78 0 1.954 2.82 3.298 6.986 3.298 2.994 0 5.381-.558 8.071-1.903zm0-2.994c-2.82 1.522-5.077 2.106-8.071 2.106-2.907 0-4.73-.786-4.73-2.004 0-1.472 3.037-2.486 7.377-2.486 1.909 0 3.992.127 5.424.33zM393 792.6h-3.515c-.955 0-1.389.203-1.389.634 0 .432.477.66 1.389.66h1.258v8.043h-1.736c-.955 0-1.432.228-1.432.634 0 .432.52.66 1.432.66h5.728c.911 0 1.389-.228 1.389-.66 0-.406-.477-.634-1.389-.634h-1.736v-6.115c2.647-1.903 3.732-2.284 6.379-2.284 1.562 0 2.387.152 3.341.609 1.041.507 1.562 1.091 1.562 1.776v6.013h-1.215c-.955 0-1.432.228-1.432.634 0 .432.52.66 1.432.66h4.73c.868 0 1.389-.228 1.389-.66 0-.406-.477-.634-1.389-.634h-1.258v-6.191c0-1.979-3.037-3.501-7.029-3.501-2.647 0-4.209.457-6.509 1.877zm37.4 1.8c-1.909-1.472-4.166-2.131-7.16-2.131-5.077 0-9.199 2.41-9.199 5.353 0 2.968 4.122 5.379 9.199 5.379 2.951 0 5.25-.685 7.16-2.106v2.765c.174 1.497-2.343 2.943-5.077 2.918h-5.033c-.911 0-1.389.203-1.389.66 0 .406.477.634 1.389.634h4.99c3.732.127 7.507-1.954 7.377-4.059v-9.895h2.126c.911 0 1.389-.228 1.389-.66 0-.431-.434-.634-1.389-.634H430.4zm-7.116-.837c4.035 0 7.116 1.776 7.116 4.085 0 2.258-3.081 4.06-7.029 4.06s-7.073-1.801-7.073-4.085c0-2.233 3.124-4.06 6.986-4.06zM460.4 798.3v-.38c0-3.249-4.339-5.659-10.15-5.659-5.728 0-10.15 2.385-10.15 5.455 0 3.35 4.73 5.937 10.76 5.937 4.209 0 9.373-1.218 9.373-2.182 0-.355-.477-.634-1.085-.634-.26 0-.434.05-.781.203-1.736.761-4.86 1.32-7.463 1.32-4.513 0-7.897-1.625-8.505-4.06zm-18.01-1.294c.738-2.08 3.862-3.451 7.854-3.451 3.949 0 7.116 1.395 7.81 3.451zM241.4 825.9c-.911 0-1.389.254-1.389.66s.477.634 1.389.634c4.166.05 7.507 1.573 7.507 3.476 0 1.827-3.168 3.374-6.986 3.374-2.43 0-4.643-.457-6.726-1.345-.39-.152-.607-.203-.911-.203-.564 0-1.041.28-1.041.609 0 .406.564.736 2.126 1.192 2.256.71 4.296 1.04 6.509 1.04 5.12 0 9.286-2.106 9.286-4.668 0-1.649-1.996-3.222-5.033-4.009 2.647-.736 4.122-1.928 4.122-3.349 0-2.258-3.428-3.983-7.897-3.983-2.3 0-4.513.406-6.248 1.167-.998.457-1.606.888-1.606 1.192 0 .33.477.609 1.085.609.347 0 .607-.076.824-.228 1.562-1.015 3.341-1.446 5.945-1.446 3.211 0 5.641 1.167 5.641 2.689 0 .811-.78 1.598-2.039 2.08-1.04.38-1.909.507-3.602.507zm26.7 5.9c-1.822 0-3.211.761-3.211 1.751 0 .99 1.389 1.776 3.211 1.776h.477c1.822 0 3.211-.787 3.211-1.776s-1.389-1.751-3.21-1.751zm0-7.459c-1.822 0-3.211.761-3.211 1.751s1.389 1.776 3.211 1.776h.477c1.822 0 3.211-.761 3.211-1.776 0-.99-1.389-1.751-3.21-1.751zm44.3 10.559h3.168l4.773-9.59 4.686 9.59h3.168l2.69-12.99h.434c.911 0 1.432-.228 1.432-.66 0-.431-.477-.634-1.432-.634h-6.51c-.91 0-1.388.203-1.388.634s.477.66 1.389.66h3.905l-2.3 11.01-4.47-9.185h-3.036l-4.6 9.21-2.256-11.04h3.818c.911 0 1.432-.228 1.432-.66 0-.431-.477-.634-1.432-.634h-6.51c-.91 0-1.388.203-1.388.634s.477.66 1.389.66h.477zm28.4-15.3h-4.383c-.911 0-1.389.228-1.389.634 0 .432.477.66 1.389.66h2.126v12.71h-1.736c-.955 0-1.432.228-1.432.634 0 .432.52.66 1.432.66h5.728c.911 0 1.432-.228 1.432-.66 0-.406-.477-.634-1.432-.634h-1.736v-6.165c1.172-.761 1.909-1.243 2.17-1.37 1.258-.609 2.43-.863 4.079-.863 1.692 0 2.56.153 3.515.61 1.041.481 1.562 1.065 1.562 1.775v6.013h-1.736c-.911 0-1.389.229-1.389.635 0 .43.477.66 1.389.66h5.728c.911 0 1.432-.23 1.432-.66 0-.406-.477-.635-1.432-.635h-1.736v-6.089c0-2.08-2.994-3.603-7.116-3.603-2.604 0-4.383.508-6.465 1.852zm32.8 4.7h-7.16c-.955 0-1.389.203-1.389.634 0 .432.477.66 1.389.66h4.903v8.043h-6.726c-.911 0-1.389.228-1.389.634 0 .432.477.66 1.389.66h15.71c.911 0 1.432-.228 1.432-.66 0-.406-.477-.634-1.432-.634h-6.726zm-.087-5.15h-3.037v2.867h3.037zm20.287 5.15v-2.842c0-.533-.39-.786-1.128-.786-.738 0-1.128.279-1.128.786v2.842h-2.994c-.955 0-1.432.203-1.432.634 0 .432.477.66 1.432.66h2.994v6.546c0 1.928 2.734 3.197 6.986 3.197 2.039 0 4.469-.28 6.552-.736 1.605-.355 2.3-.685 2.3-1.066 0-.355-.477-.634-1.085-.634-.217 0-.39.025-.781.178-1.692.558-4.686.964-7.073.964-2.864 0-4.643-.762-4.643-1.954v-6.495h9.286c.955 0 1.432-.229 1.432-.66 0-.431-.477-.634-1.432-.634zm40.5 5.7v-.38c0-3.249-4.339-5.659-10.15-5.659-5.728 0-10.15 2.385-10.15 5.455 0 3.35 4.73 5.937 10.76 5.937 4.209 0 9.373-1.218 9.373-2.182 0-.355-.477-.634-1.085-.634-.26 0-.434.05-.781.203-1.736.761-4.86 1.32-7.463 1.32-4.513 0-7.897-1.625-8.505-4.06zm-18.01-1.294c.738-2.08 3.862-3.451 7.854-3.451 3.949 0 7.116 1.395 7.81 3.451zm42.41-9.606c.217-.254.26-.304.26-.431 0-.33-.52-.61-1.128-.61-.52 0-.824.128-1.128.508l-14.23 17.33c-.173.203-.217.305-.217.432 0 .33.521.609 1.128.609.521 0 .825-.127 1.128-.508zm27.7 10.6h.39c.912 0 1.432-.228 1.432-.66 0-.406-.477-.634-1.432-.634h-8.418c-.954 0-1.432.203-1.432.634 0 .432.478.66 1.432.66h5.771v3.501c-2.387.634-3.732.812-5.945.812-6.162 0-9.85-2.004-9.85-5.328v-1.827c0-1.395 1.172-2.943 3.037-3.958 1.605-.888 3.471-1.294 5.858-1.294 3.732 0 6.726.939 6.943 2.157.044.507.391.736 1.085.736.738 0 1.128-.28 1.128-.787v-2.283c0-.533-.347-.786-1.128-.786-.737 0-1.128.253-1.128.786v.077c-1.909-.787-4.252-1.192-6.986-1.192-6.205 0-11.06 2.867-11.06 6.546v1.827c0 4.009 4.73 6.622 11.93 6.622 2.864 0 5.554-.432 8.375-1.345zm14.3-5.4h-5.25c-.911 0-1.432.228-1.432.634s.52.66 1.432.66h2.994v8.043h-3.949c-.911 0-1.432.254-1.432.634 0 .432.52.66 1.432.66h13.76c.868 0 1.389-.228 1.389-.66 0-.38-.52-.634-1.389-.634h-7.55v-5.277c4.686-2.461 6.118-3.019 7.984-3.019.868 0 1.649.228 2.69.837.347.178.477.229.868.229.65 0 1.128-.28 1.128-.685 0-.254-.26-.483-1.085-.863-1.172-.584-2.126-.812-3.471-.812-2.256 0-4.296.66-8.114 2.639zm37.8 5.7v-.38c0-3.249-4.339-5.659-10.15-5.659-5.728 0-10.15 2.385-10.15 5.455 0 3.35 4.73 5.937 10.76 5.937 4.209 0 9.373-1.218 9.373-2.182 0-.355-.477-.634-1.085-.634-.26 0-.434.05-.781.203-1.736.761-4.86 1.32-7.463 1.32-4.513 0-7.897-1.625-8.505-4.06zm-18.01-1.294c.738-2.08 3.862-3.451 7.854-3.451 3.949 0 7.116 1.395 7.81 3.451zM564.5 830v-.38c0-3.249-4.339-5.659-10.15-5.659-5.728 0-10.15 2.385-10.15 5.455 0 3.35 4.73 5.937 10.76 5.937 4.209 0 9.373-1.218 9.373-2.182 0-.355-.477-.634-1.085-.634-.26 0-.434.05-.781.203-1.736.761-4.86 1.32-7.463 1.32-4.513 0-7.897-1.625-8.505-4.06zm-18.01-1.294c.738-2.08 3.862-3.451 7.854-3.451 3.949 0 7.116 1.395 7.81 3.451zm28.71-4.406h-3.515c-.955 0-1.389.203-1.389.634 0 .432.477.66 1.389.66h1.258v8.043h-1.736c-.955 0-1.432.228-1.432.634 0 .432.52.66 1.432.66h5.728c.911 0 1.389-.228 1.389-.66 0-.406-.477-.634-1.389-.634h-1.736v-6.115c2.647-1.903 3.732-2.283 6.379-2.283 1.562 0 2.387.152 3.341.609 1.041.507 1.562 1.091 1.562 1.776v6.013h-1.215c-.955 0-1.432.228-1.432.634 0 .432.52.66 1.432.66h4.73c.868 0 1.389-.228 1.389-.66 0-.406-.477-.634-1.389-.634h-1.258v-6.191c0-1.979-3.037-3.501-7.029-3.501-2.647 0-4.209.457-6.509 1.877zm-329.9 38.1v2.918h-3.081c-.911 0-1.389.228-1.389.634 0 .432.52.66 1.389.66h6.596c.868 0 1.389-.228 1.389-.66 0-.406-.477-.634-1.389-.634h-1.258V862.4h1.258c.911 0 1.389-.228 1.389-.66 0-.406-.477-.634-1.389-.634h-1.258v-9.793h-4.035l-9.98 9.743v1.345zm0-1.294h-9.416l8.765-8.5h.65zm22.8 2.394c-1.822 0-3.211.761-3.211 1.751 0 .99 1.389 1.776 3.211 1.776h.477c1.822 0 3.211-.787 3.211-1.776s-1.389-1.751-3.21-1.751zm0-7.459c-1.822 0-3.211.761-3.211 1.751 0 .99 1.389 1.776 3.211 1.776h.477c1.822 0 3.211-.761 3.211-1.776 0-.99-1.389-1.751-3.21-1.751zm44.4 9.359h-2.126c-.911 0-1.389.228-1.389.634 0 .432.477.66 1.389.66h13.32c4.079 0 7.377-1.776 7.377-3.958 0-1.624-1.779-2.867-5.164-3.603 2.256-.786 3.341-1.725 3.341-2.968 0-2.131-3.298-3.755-7.637-3.755h-11.24c-.911 0-1.389.203-1.389.634 0 .432.477.66 1.389.66h2.126zm2.256-6.749v-4.948h6.899c2.994 0 5.337 1.066 5.337 2.436 0 1.472-2.517 2.512-6.075 2.512zm0 6.749v-5.455h6.248c2.604 0 3.992.152 5.337.609 1.562.533 2.473 1.345 2.473 2.207 0 1.472-2.3 2.639-5.25 2.639zm32.744-14h-7.073c-.955 0-1.432.228-1.432.634 0 .432.477.66 1.432.66h4.816v12.71h-6.726c-.911 0-1.389.228-1.389.634 0 .432.477.66 1.389.66h15.71c.911 0 1.432-.228 1.432-.66 0-.406-.477-.634-1.432-.634h-6.726zm30.8 15.3h3.515c.911 0 1.389-.228 1.389-.66 0-.406-.477-.634-1.389-.634h-1.258v-9.337h-5.25c-.998 0-1.432.203-1.432.634s.477.66 1.432.66h2.994v6.292c-2.343 1.446-4.86 2.157-7.68 2.157-2.083 0-3.732-.913-3.732-2.106v-7.637h-4.383c-.955 0-1.389.203-1.389.634s.477.66 1.389.66h2.126v6.343c0 2.055 2.43 3.4 6.031 3.4 2.777 0 5.25-.609 7.637-1.877zm30-5v-.38c0-3.249-4.339-5.659-10.15-5.659-5.728 0-10.15 2.385-10.15 5.455 0 3.35 4.73 5.937 10.76 5.937 4.209 0 9.373-1.218 9.373-2.182 0-.355-.477-.634-1.085-.634-.26 0-.434.05-.781.203-1.736.761-4.86 1.32-7.463 1.32-4.513 0-7.897-1.625-8.505-4.06zm-18.01-1.294c.738-2.08 3.862-3.45 7.854-3.45 3.949 0 7.116 1.395 7.81 3.45zM237.8 884.4h10.24c.955 0 1.432-.228 1.432-.66 0-.406-.477-.634-1.432-.634h-12.5v6.825c0 .406.434.685 1.085.685.26 0 .477-.05 1.041-.203 1.909-.558 3.645-.812 5.381-.812 3.515 0 5.901 1.472 5.901 3.628 0 2.537-2.82 4.262-6.943 4.262-2.43 0-4.686-.558-6.769-1.649-.39-.203-.607-.253-.911-.253-.608 0-1.085.279-1.085.634 0 .38.607.761 2.126 1.319 2.213.837 4.383 1.243 6.726 1.243 5.337 0 9.112-2.284 9.112-5.506 0-2.892-3.341-4.973-7.941-4.973-1.866 0-3.341.203-5.467.685zm30.3 10.8c-1.822 0-3.211.761-3.211 1.751 0 .99 1.389 1.776 3.211 1.776h.477c1.822 0 3.211-.786 3.211-1.776s-1.389-1.751-3.21-1.751zm0-7.459c-1.822 0-3.211.761-3.211 1.751 0 .99 1.389 1.776 3.211 1.776h.477c1.822 0 3.211-.761 3.211-1.776 0-.99-1.389-1.751-3.21-1.751zm44.3 10.659h3.168l4.773-9.59 4.686 9.59h3.168l2.69-12.99h.434c.911 0 1.432-.228 1.432-.66s-.477-.634-1.432-.634h-6.51c-.91 0-1.388.203-1.388.634 0 .432.477.66 1.389.66h3.905l-2.3 11.01-4.47-9.185h-3.036l-4.6 9.21-2.256-11.04h3.818c.911 0 1.432-.228 1.432-.66s-.477-.634-1.432-.634h-6.51c-.91 0-1.388.203-1.388.634 0 .432.477.66 1.389.66h.477zm28.4-15.3h-4.383c-.911 0-1.389.228-1.389.634 0 .432.477.66 1.389.66h2.126v12.71h-1.736c-.955 0-1.432.228-1.432.634 0 .432.52.66 1.432.66h5.728c.911 0 1.432-.228 1.432-.66 0-.406-.477-.634-1.432-.634h-1.736v-6.165c1.172-.761 1.909-1.243 2.17-1.37 1.258-.609 2.43-.863 4.079-.863 1.692 0 2.56.153 3.515.61 1.041.481 1.562 1.065 1.562 1.775v6.013h-1.736c-.911 0-1.389.229-1.389.635 0 .43.477.66 1.389.66h5.728c.911 0 1.432-.23 1.432-.66 0-.406-.477-.635-1.432-.635h-1.736v-6.089c0-2.08-2.994-3.603-7.116-3.603-2.604 0-4.383.508-6.465 1.852zm32.8 4.6h-7.16c-.955 0-1.389.203-1.389.634 0 .432.477.66 1.389.66h4.903v8.043h-6.726c-.911 0-1.389.228-1.389.634 0 .432.477.66 1.389.66h15.71c.911 0 1.432-.228 1.432-.66 0-.406-.477-.634-1.432-.634h-6.726zm-.087-5.15h-3.037v2.867h3.037zm20.287 5.15v-2.842c0-.533-.39-.786-1.128-.786-.738 0-1.128.279-1.128.786v2.842h-2.994c-.955 0-1.432.203-1.432.634 0 .432.477.66 1.432.66h2.994v6.546c0 1.928 2.734 3.197 6.986 3.197 2.039 0 4.469-.28 6.552-.736 1.605-.355 2.3-.685 2.3-1.066 0-.355-.477-.634-1.085-.634-.217 0-.39.025-.781.178-1.692.558-4.686.964-7.073.964-2.864 0-4.643-.761-4.643-1.954v-6.495h9.286c.955 0 1.432-.229 1.432-.66 0-.431-.477-.634-1.432-.634zm40.5 5.7v-.38c0-3.249-4.339-5.659-10.15-5.659-5.728 0-10.15 2.385-10.15 5.455 0 3.35 4.73 5.937 10.76 5.937 4.209 0 9.373-1.218 9.373-2.182 0-.355-.477-.634-1.085-.634-.26 0-.434.05-.781.203-1.736.761-4.86 1.32-7.463 1.32-4.513 0-7.897-1.625-8.505-4.06zm-18.01-1.294c.738-2.08 3.862-3.45 7.854-3.45 3.949 0 7.116 1.395 7.81 3.45zm42.41-9.606c.217-.254.26-.304.26-.431 0-.33-.52-.61-1.128-.61-.52 0-.824.128-1.128.508l-14.23 17.33c-.173.203-.217.305-.217.431 0 .33.521.61 1.128.61.521 0 .825-.127 1.128-.508zm10 14.6h-2.126c-.911 0-1.389.228-1.389.634 0 .432.477.66 1.389.66h13.32c4.079 0 7.377-1.776 7.377-3.958 0-1.624-1.779-2.867-5.164-3.603 2.256-.787 3.341-1.725 3.341-2.97 0-2.13-3.298-3.754-7.637-3.754h-11.24c-.911 0-1.389.203-1.389.634 0 .432.477.66 1.389.66h2.126zm2.256-6.749v-4.948h6.899c2.994 0 5.337 1.066 5.337 2.436 0 1.472-2.517 2.512-6.075 2.512zm0 6.749v-5.455h6.248c2.603 0 3.992.152 5.337.609 1.562.533 2.473 1.345 2.473 2.207 0 1.472-2.3 2.639-5.25 2.639zm32.744-14h-7.073c-.955 0-1.432.228-1.432.634 0 .432.477.66 1.432.66h4.816v12.71h-6.726c-.911 0-1.389.228-1.389.634 0 .432.477.66 1.389.66h15.71c.911 0 1.432-.228 1.432-.66 0-.406-.477-.634-1.432-.634h-6.726zm30.8 15.3h3.515c.911 0 1.389-.228 1.389-.66 0-.406-.477-.634-1.389-.634h-1.258v-9.337h-5.25c-.998 0-1.432.203-1.432.634 0 .432.477.66 1.432.66h2.994v6.292c-2.343 1.446-4.86 2.157-7.68 2.157-2.083 0-3.732-.913-3.732-2.106v-7.637h-4.383c-.955 0-1.389.203-1.389.634 0 .432.477.66 1.389.66h2.126v6.343c0 2.055 2.43 3.4 6.031 3.4 2.777 0 5.25-.609 7.637-1.877zm30-5v-.38c0-3.249-4.339-5.659-10.15-5.659-5.728 0-10.15 2.385-10.15 5.455 0 3.35 4.73 5.937 10.76 5.937 4.209 0 9.373-1.218 9.373-2.182 0-.355-.477-.634-1.085-.634-.26 0-.434.05-.781.203-1.736.761-4.86 1.32-7.463 1.32-4.513 0-7.897-1.625-8.505-4.06zm-18.01-1.294c.738-2.08 3.862-3.45 7.854-3.45 3.949 0 7.116 1.395 7.81 3.45zM237.1 923.4c-.043-.254-.043-.482-.043-.609 0-1.522.694-3.045 1.953-4.11 2.083-1.827 5.424-2.968 8.678-2.968.78 0 1.432.05 1.866.178.434.127.607.152.867.152.608 0 1.041-.28 1.041-.61 0-.583-1.605-1.014-3.732-1.014-2.82 0-5.684.634-8.027 1.8-3.254 1.599-4.816 3.756-4.816 6.724 0 4.389 3.688 7.485 8.982 7.485 4.34 0 7.724-2.157 7.724-4.922 0-2.613-3.385-4.77-7.507-4.77-2.864 0-5.424.964-6.986 2.664zm.304 1.852c.998-1.015 1.475-1.446 2.083-1.852 1.389-.888 3.037-1.37 4.6-1.37 2.864 0 5.25 1.573 5.25 3.476 0 2.055-2.343 3.628-5.424 3.628-3.254 0-5.337-1.218-6.51-3.882zM268.1 926.9c-1.822 0-3.211.761-3.211 1.751 0 .99 1.389 1.776 3.211 1.776h.477c1.822 0 3.211-.787 3.211-1.776 0-.99-1.389-1.751-3.21-1.751zm0-7.459c-1.822 0-3.211.761-3.211 1.751 0 .99 1.389 1.776 3.211 1.776h.477c1.822 0 3.211-.761 3.211-1.776 0-.99-1.389-1.751-3.21-1.751zm62.1 5.459h.39c.912 0 1.432-.228 1.432-.66 0-.406-.477-.634-1.432-.634h-8.418c-.954 0-1.432.203-1.432.634 0 .432.478.66 1.432.66h5.771v3.501c-2.387.634-3.732.812-5.945.812-6.162 0-9.85-2.004-9.85-5.328v-1.827c0-1.395 1.172-2.943 3.037-3.958 1.605-.888 3.471-1.294 5.858-1.294 3.732 0 6.726.939 6.943 2.157.044.507.391.736 1.085.736.738 0 1.128-.28 1.128-.787v-2.283c0-.532-.347-.786-1.128-.786-.737 0-1.128.254-1.128.786v.077c-1.909-.787-4.252-1.192-6.986-1.192-6.205 0-11.06 2.867-11.06 6.546v1.827c0 4.009 4.73 6.622 11.93 6.622 2.864 0 5.554-.432 8.375-1.345zm14.3-5.4h-5.25c-.911 0-1.432.228-1.432.634s.52.66 1.432.66h2.994v8.043h-3.949c-.911 0-1.432.254-1.432.634 0 .432.52.66 1.432.66h13.76c.868 0 1.389-.228 1.389-.66 0-.38-.52-.634-1.389-.634h-7.55v-5.277c4.686-2.461 6.118-3.019 7.984-3.019.868 0 1.649.228 2.69.837.347.178.477.229.868.229.65 0 1.128-.28 1.128-.685 0-.254-.26-.482-1.085-.863-1.172-.584-2.126-.812-3.471-.812-2.256 0-4.296.66-8.114 2.639zm37.8 5.6v-.38c0-3.249-4.339-5.659-10.15-5.659-5.728 0-10.15 2.385-10.15 5.455 0 3.35 4.73 5.937 10.76 5.937 4.209 0 9.373-1.218 9.373-2.182 0-.355-.477-.634-1.085-.634-.26 0-.434.05-.781.203-1.736.761-4.86 1.319-7.463 1.319-4.513 0-7.897-1.624-8.505-4.06zm-18.01-1.294c.738-2.08 3.862-3.451 7.854-3.451 3.949 0 7.116 1.395 7.81 3.451zm44.01 1.294v-.38c0-3.249-4.339-5.659-10.15-5.659-5.728 0-10.15 2.385-10.15 5.455 0 3.35 4.73 5.937 10.76 5.937 4.209 0 9.373-1.218 9.373-2.182 0-.355-.477-.634-1.085-.634-.26 0-.434.05-.781.203-1.736.761-4.86 1.319-7.463 1.319-4.513 0-7.897-1.624-8.505-4.06zm-18.01-1.294c.738-2.08 3.862-3.451 7.854-3.451 3.949 0 7.116 1.395 7.81 3.451zM419 919.5h-3.515c-.955 0-1.389.203-1.389.634 0 .432.477.66 1.389.66h1.258v8.043h-1.736c-.955 0-1.432.228-1.432.634 0 .432.52.66 1.432.66h5.728c.911 0 1.389-.228 1.389-.66 0-.406-.477-.634-1.389-.634h-1.736v-6.115c2.647-1.903 3.732-2.283 6.379-2.283 1.562 0 2.387.152 3.341.609 1.041.507 1.562 1.09 1.562 1.776v6.013h-1.215c-.955 0-1.432.228-1.432.634 0 .432.52.66 1.432.66h4.73c.868 0 1.389-.228 1.389-.66 0-.406-.477-.634-1.389-.634h-1.258v-6.191c0-1.98-3.037-3.501-7.029-3.501-2.647 0-4.209.457-6.509 1.877zm-171 28.6-6.943 12.74c-.087.152-.13.254-.13.355 0 .356.477.635 1.085.635s.868-.153 1.128-.61l7.073-12.94v-1.775h-16.66v2.03c0 .558.39.837 1.128.837.737 0 1.128-.28 1.128-.837v-.736h12.19zm20.1 10.6c-1.822 0-3.211.761-3.211 1.751 0 .99 1.389 1.776 3.211 1.776h.477c1.822 0 3.211-.786 3.211-1.776s-1.389-1.751-3.21-1.751zm0-7.459c-1.822 0-3.211.761-3.211 1.751 0 .99 1.389 1.776 3.211 1.776h.477c1.822 0 3.211-.761 3.211-1.776 0-.99-1.389-1.751-3.21-1.751zm44.3 10.559h3.168l4.773-9.59 4.686 9.59h3.168l2.69-12.99h.434c.911 0 1.432-.228 1.432-.66 0-.431-.477-.634-1.432-.634h-6.51c-.91 0-1.388.203-1.388.634 0 .432.477.66 1.389.66h3.905l-2.3 11.01-4.47-9.185h-3.036l-4.6 9.21-2.256-11.04h3.818c.911 0 1.432-.228 1.432-.66 0-.431-.477-.634-1.432-.634h-6.51c-.91 0-1.388.203-1.388.634 0 .432.477.66 1.389.66h.477zm28.4-15.3h-4.383c-.911 0-1.389.228-1.389.634 0 .432.477.66 1.389.66h2.126v12.71h-1.736c-.955 0-1.432.228-1.432.634 0 .432.52.66 1.432.66h5.728c.911 0 1.432-.228 1.432-.66 0-.406-.477-.634-1.432-.634h-1.736v-6.165c1.172-.761 1.909-1.243 2.17-1.37 1.258-.609 2.43-.863 4.079-.863 1.692 0 2.56.153 3.515.61 1.041.481 1.562 1.065 1.562 1.775v6.013h-1.736c-.911 0-1.389.229-1.389.635 0 .431.477.66 1.389.66h5.728c.911 0 1.432-.229 1.432-.66 0-.406-.477-.635-1.432-.635h-1.736v-6.089c0-2.08-2.994-3.603-7.116-3.603-2.604 0-4.383.508-6.465 1.852zm32.8 4.7h-7.16c-.955 0-1.389.203-1.389.634 0 .432.477.66 1.389.66h4.903v8.043h-6.726c-.911 0-1.389.228-1.389.634 0 .432.477.66 1.389.66h15.71c.911 0 1.432-.228 1.432-.66 0-.406-.477-.634-1.432-.634h-6.726zm-.087-5.15h-3.037v2.867h3.037zm20.287 5.15v-2.842c0-.533-.39-.786-1.128-.786-.738 0-1.128.279-1.128.786v2.842h-2.994c-.955 0-1.432.203-1.432.634 0 .432.477.66 1.432.66h2.994v6.546c0 1.928 2.734 3.197 6.986 3.197 2.039 0 4.469-.28 6.552-.736 1.605-.355 2.3-.685 2.3-1.066 0-.355-.477-.634-1.085-.634-.217 0-.39.025-.781.178-1.692.558-4.686.964-7.073.964-2.864 0-4.643-.761-4.643-1.954v-6.495h9.286c.955 0 1.432-.229 1.432-.66 0-.431-.477-.634-1.432-.634zm40.5 5.7v-.38c0-3.249-4.339-5.659-10.15-5.659-5.728 0-10.15 2.385-10.15 5.455 0 3.35 4.73 5.937 10.76 5.937 4.209 0 9.373-1.218 9.373-2.182 0-.355-.477-.634-1.085-.634-.26 0-.434.05-.781.203-1.736.761-4.86 1.319-7.463 1.319-4.513 0-7.897-1.624-8.505-4.059zm-18.01-1.294c.738-2.08 3.862-3.451 7.854-3.451 3.949 0 7.116 1.395 7.81 3.451zM458.7 946c.217-.254.26-.304.26-.431 0-.33-.52-.61-1.128-.61-.52 0-.824.128-1.128.508l-14.23 17.33c-.173.203-.217.305-.217.431 0 .33.521.61 1.128.61.521 0 .825-.127 1.128-.508zm10 14.5h-2.126c-.911 0-1.389.228-1.389.634 0 .432.477.66 1.389.66h13.32c4.079 0 7.377-1.776 7.377-3.958 0-1.624-1.779-2.867-5.164-3.603 2.256-.786 3.341-1.725 3.341-2.969 0-2.131-3.298-3.755-7.637-3.755h-11.24c-.911 0-1.389.203-1.389.634 0 .432.477.66 1.389.66h2.126zm2.256-6.749v-4.947h6.899c2.994 0 5.337 1.066 5.337 2.436 0 1.472-2.517 2.512-6.075 2.512zm0 6.749v-5.455h6.248c2.603 0 3.992.152 5.337.609 1.562.533 2.473 1.345 2.473 2.207 0 1.472-2.3 2.639-5.25 2.639zm29.744-9.3h-5.25c-.911 0-1.432.228-1.432.634s.52.66 1.432.66h2.994v8.043h-3.949c-.911 0-1.432.254-1.432.634 0 .432.52.66 1.432.66h13.76c.868 0 1.389-.228 1.389-.66 0-.38-.52-.634-1.389-.634h-7.55v-5.277c4.686-2.461 6.118-3.019 7.984-3.019.868 0 1.649.228 2.69.837.347.178.477.229.868.229.65 0 1.128-.28 1.128-.685 0-.254-.26-.482-1.085-.863-1.172-.584-2.126-.812-3.471-.812-2.256 0-4.296.66-8.114 2.639zm28.1-.4c-5.814 0-10.28 2.486-10.28 5.709 0 3.146 4.513 5.683 10.15 5.683 5.641 0 10.11-2.512 10.11-5.709 0-3.121-4.469-5.683-9.98-5.683zm-.26 1.294c4.513 0 7.984 1.903 7.984 4.415 0 2.436-3.471 4.389-7.854 4.389s-7.897-1.954-7.897-4.415c0-2.41 3.47-4.389 7.767-4.389zM561 961.8l3.558-9.337h.65c.956 0 1.433-.228 1.433-.66 0-.431-.434-.634-1.432-.634h-4.816c-.955 0-1.39.203-1.39.634 0 .432.478.66 1.39.66h1.909l-2.777 7.332-3.602-6.013h-2.56l-3.558 6.013-2.864-7.332h1.996c.911 0 1.432-.228 1.432-.66 0-.431-.477-.634-1.432-.634h-4.816c-.955 0-1.39.203-1.39.634 0 .432.478.66 1.39.66h.65l3.646 9.337h2.56l3.732-6.191 3.775 6.191zm14.2-10.6h-3.515c-.955 0-1.389.203-1.389.634 0 .432.477.66 1.389.66h1.258v8.043h-1.736c-.955 0-1.432.228-1.432.634 0 .432.52.66 1.432.66h5.728c.911 0 1.389-.228 1.389-.66 0-.406-.477-.634-1.389-.634h-1.736v-6.115c2.647-1.903 3.732-2.283 6.379-2.283 1.562 0 2.387.152 3.341.609 1.041.507 1.562 1.09 1.562 1.776v6.013h-1.215c-.955 0-1.432.228-1.432.634 0 .432.52.66 1.432.66h4.73c.868 0 1.389-.228 1.389-.66 0-.406-.477-.634-1.389-.634h-1.258v-6.191c0-1.98-3.037-3.501-7.029-3.501-2.647 0-4.209.457-6.509 1.877zm-329.1 34.4c2.734-.837 4.079-2.004 4.079-3.476 0-2.309-3.602-4.237-7.897-4.237s-7.897 1.928-7.897 4.237c0 1.472 1.389 2.639 4.122 3.476-2.907.812-4.556 2.182-4.556 3.78 0 2.486 3.732 4.516 8.375 4.516 4.6 0 8.331-2.03 8.331-4.516 0-1.598-1.692-2.994-4.556-3.78zm-3.905-6.419c3.211 0 5.728 1.319 5.728 2.994 0 1.573-2.473 2.791-5.641 2.791s-5.641-1.218-5.641-2.791c0-1.649 2.517-2.994 5.554-2.994zm0 7.053c3.558 0 6.205 1.345 6.205 3.146s-2.69 3.222-6.075 3.222c-3.428 0-6.118-1.421-6.118-3.222 0-1.751 2.647-3.146 5.988-3.146zM268.1 990.4c-1.822 0-3.211.761-3.211 1.751 0 .99 1.389 1.776 3.211 1.776h.477c1.822 0 3.211-.787 3.211-1.776 0-.99-1.389-1.751-3.21-1.751zm0-7.459c-1.822 0-3.211.761-3.211 1.751s1.389 1.776 3.211 1.776h.477c1.822 0 3.211-.761 3.211-1.776 0-.99-1.389-1.751-3.21-1.751zm44.4 9.259h-2.126c-.911 0-1.389.228-1.389.634 0 .432.477.66 1.389.66h13.32c4.079 0 7.377-1.776 7.377-3.958 0-1.624-1.779-2.867-5.164-3.603 2.256-.786 3.341-1.725 3.341-2.968 0-2.131-3.298-3.755-7.637-3.755h-11.24c-.911 0-1.389.203-1.389.634 0 .432.477.66 1.389.66h2.126zm2.256-6.749v-4.947h6.899c2.994 0 5.337 1.066 5.337 2.436 0 1.472-2.517 2.512-6.075 2.512zm0 6.749v-5.455h6.248c2.604 0 3.992.152 5.337.609 1.562.533 2.473 1.345 2.473 2.207 0 1.472-2.3 2.639-5.25 2.639zm29.744-9.3h-5.25c-.911 0-1.432.228-1.432.634s.52.66 1.432.66h2.994v8.043h-3.949c-.911 0-1.432.254-1.432.634 0 .432.52.66 1.432.66h13.76c.868 0 1.389-.228 1.389-.66 0-.38-.52-.634-1.389-.634h-7.55v-5.277c4.686-2.461 6.118-3.019 7.984-3.019.868 0 1.649.228 2.69.837.347.178.477.229.868.229.65 0 1.128-.28 1.128-.685 0-.254-.26-.482-1.085-.863-1.172-.584-2.126-.812-3.471-.812-2.256 0-4.296.66-8.114 2.639zm28.1-.4c-5.814 0-10.28 2.486-10.28 5.709 0 3.146 4.513 5.683 10.15 5.683 5.641 0 10.11-2.512 10.11-5.709 0-3.121-4.469-5.683-9.98-5.683zm-.26 1.294c4.513 0 7.984 1.903 7.984 4.415 0 2.436-3.471 4.389-7.854 4.389s-7.897-1.954-7.897-4.415c0-2.41 3.47-4.389 7.767-4.389zm32.46 9.706 3.558-9.337h.65c.956 0 1.433-.228 1.433-.66 0-.431-.434-.634-1.432-.634h-4.816c-.955 0-1.39.203-1.39.634 0 .432.478.66 1.39.66h1.909l-2.777 7.332-3.602-6.013h-2.56l-3.558 6.013-2.864-7.332h1.996c.911 0 1.432-.228 1.432-.66 0-.431-.477-.634-1.432-.634h-4.816c-.955 0-1.39.203-1.39.634 0 .432.478.66 1.39.66h.65l3.646 9.337h2.56l3.732-6.191 3.775 6.191zm14.2-10.6h-3.515c-.955 0-1.389.203-1.389.634 0 .432.477.66 1.389.66h1.258v8.043h-1.736c-.955 0-1.432.228-1.432.634 0 .432.52.66 1.432.66h5.728c.911 0 1.389-.228 1.389-.66 0-.406-.477-.634-1.389-.634h-1.736v-6.115c2.647-1.903 3.732-2.283 6.379-2.283 1.562 0 2.387.152 3.341.609 1.041.507 1.562 1.09 1.562 1.776v6.013h-1.215c-.955 0-1.432.228-1.432.634 0 .432.52.66 1.432.66h4.73c.868 0 1.389-.228 1.389-.66 0-.406-.477-.634-1.389-.634h-1.258v-6.191c0-1.98-3.037-3.501-7.029-3.501-2.647 0-4.209.457-6.509 1.877z" style="paint-order:markers fill stroke" transform="translate(0 9.721)" stroke-width="6.324"/></svg>