<svg version="1.1" viewBox="0 0 190 219" xmlns="http://www.w3.org/2000/svg"><defs><radialGradient id="e" cx="-43" cy="294" r="80" gradientTransform="matrix(-1.7 -.86 .29 -.56 18 241)" gradientUnits="userSpaceOnUse" spreadMethod="reflect"><stop stop-color="#fff" offset="0"/><stop stop-color="#fff" offset=".19"/><stop stop-color="#999" offset=".52"/><stop stop-color="#1f1f1f" offset="1"/></radialGradient><radialGradient id="h" cx="49" cy="150" r="80" gradientTransform="matrix(1.9 1.1 -.32 .55 -9.1 -29)" gradientUnits="userSpaceOnUse" spreadMethod="reflect"><stop stop-color="#fff" offset="0"/><stop stop-color="#fff" offset=".098"/><stop stop-color="#505050" offset="1"/></radialGradient><radialGradient id="j" cx="-362" cy="402" r="50" gradientTransform="matrix(-.93 -2.9 4.1 -1.3 -1758 -310)" gradientUnits="userSpaceOnUse" spreadMethod="reflect"><stop stop-color="#fff" offset="0"/><stop stop-color="#999" offset=".56"/><stop stop-color="#fff" offset="1"/></radialGradient><radialGradient id="f" cx="139" cy="-194" r="50" gradientTransform="matrix(.91 .41 -1.6 3.6 -378 834)" gradientUnits="userSpaceOnUse"><stop stop-color="#fff" offset="0"/><stop stop-color="#fff" offset=".098"/><stop stop-color="#444" offset="1"/></radialGradient></defs><path d="m151 34c-7.5 0.14-16 3-24 8.1 0.68 20-6 46-20 71-14 25-32 45-49 55 0.55 16 5.9 29 16 34 3.9 2.1 8.3 3.1 13 3 23-0.42 53-25 73-63 25-46 27-93 3.6-105-3.9-2.1-8.3-3.1-13-3z" fill="url(#e)" overflow="visible"/><path d="m122 21c7.5 22 3.5 55-16 91-21 39-53 66-77 67 2 0.86 4.2 1.4 6.4 1.8 0.36-0.045 0.73-0.1 1.1-0.16-1.9-0.33-3.8-0.84-5.5-1.6 24-1.3 55-28 77-67 18-33 22-64 17-86a30 30 0 0 0-3.3-4.7z" fill="url(#f)" filter="url(#g)" overflow="visible"/><path d="m99 0.0022c-24 0.28-56 27-78 67-24 45-28 90-9.3 108 7.8 9.8 17 18 29 24 12 6.3 24 9.9 36 11 0.01 3e-3 0.02 0.028 0.03 0.031 2.3 0.55 4.7 0.78 7.2 0.75 24-0.3 56-27 78-67 24-44 28-90 9.4-108a94 94 0 0 0-29-25c-12-6.3-24-9.9-31-11-7.4-0.87-9.9-1.1-12-1.1zm51 34c4.7-0.09 9.1 0.86 13 3 23 12 21 60-3.6 105-21 38-51 63-73 63-4.7 0.087-9.1-0.89-13-3-23-12-21-60 3.7-105 21-38 51-63 73-63z" fill="url(#h)" filter="url(#i)" overflow="visible"/><path d="m152 29c-24 0.45-56 27-78 67-26 49-28 99-3.8 112 4.2 2.3 8.8 3.3 14 3.2 24-0.45 56-27 78-67 26-49 28-99 3.8-112-4.2-2.3-8.8-3.3-14-3.2zm-2 5.5c4.7-0.087 9.1 0.87 13 3 23 12 21 59-3.6 105-21 38-51 63-73 63-4.7 0.087-9.1-0.9-13-3-23-12-21-59 3.6-105 21-38 51-63 73-63z" fill="#fff" overflow="visible"/><path d="m151 28c-24 0.44-56 27-78 67-26 49-28 99-3.8 112 4.2 2.3 8.8 3.3 14 3.2 24-0.45 56-27 78-67 26-49 28-99 3.8-112-4.2-2.3-8.8-3.3-14-3.2zm-2 5.4c4.7-0.087 9.1 0.9 13 3 23 12 21 59-3.6 105-21 38-51 63-73 63-4.7 0.087-9.1-0.9-13-3-23-12-21-59 3.6-105 21-38 51-63 73-63z" fill="url(#j)" filter="url(#k)" overflow="visible"/><path d="m59 189c-7.5-22-1.4-58 18-94 21-39 53-66 77-67-2-0.86-8.7 1.1-11 0.75-24 2.9-49 26-70 64-17 31-24 63-20 85 1.5 4.2 3.6 7.8 6.2 11z" fill="#fff" filter="url(#l)" overflow="visible" stroke="#fff"/><path d="m119 26c-0.28 0.057-0.61 12-0.8 12s-23-5.5-23-5.2c-0.05 0.24 20 6.1 20 6.4s-19 19-18 19c0.23 0.18 20-18 21-18 0.29 0.073-0.48 5-0.21 5s1.8-5.1 2-5.3c0.19-0.17 7.5 0.9 7.5 0.66 0.05-0.24-6.4-1.9-6.5-2.2-0.1-0.25 17-7.2 17-7.4s-18 7.4-17 6c-0.29-0.074-1.4-11-1.7-11z" fill="#fff" overflow="visible"/></svg>
