<svg id="SVGRoot" version="1.1" viewBox="0 0 1920 1080" xmlns="http://www.w3.org/2000/svg" xmlns:xlink="http://www.w3.org/1999/xlink"><defs><radialGradient id="bb" cx="136.14" cy="475.64" r="24.047" gradientTransform="matrix(2.1231 0 0 1.4278 280.5 338.51)" gradientUnits="userSpaceOnUse" xlink:href="#a"/><linearGradient id="a"><stop stop-color="#d0d0d0" offset="0"/><stop stop-color="#d0d0d0" offset=".5"/><stop stop-color="#fff" offset="1"/></linearGradient><radialGradient id="ba" cx="179.62" cy="464.78" r="14.531" gradientTransform="matrix(2.1231 0 0 1.9633 280.5 82.078)" gradientUnits="userSpaceOnUse" xlink:href="#a"/><radialGradient id="aZ" cx="222.09" cy="454.33" r="23.906" gradientTransform="matrix(2.1231 0 0 1.3669 280.5 351.4)" gradientUnits="userSpaceOnUse" xlink:href="#a"/><radialGradient id="aY" cx="130.62" cy="450.88" r="20.125" gradientTransform="matrix(2.1231 0 0 1.5297 280.5 275.36)" gradientUnits="userSpaceOnUse" xlink:href="#a"/><radialGradient id="aX" cx="169.44" cy="441.48" r="14.063" gradientTransform="matrix(2.1231 0 0 1.9226 280.5 96.328)" gradientUnits="userSpaceOnUse" xlink:href="#a"/><radialGradient id="aW" cx="202.09" cy="433.62" r="14.188" gradientTransform="matrix(2.1231 0 0 1.8706 280.5 117.31)" gradientUnits="userSpaceOnUse" xlink:href="#a"/><radialGradient id="aV" cx="234.14" cy="425.91" r="14.297" gradientTransform="matrix(2.1231 0 0 1.8191 280.5 137.26)" gradientUnits="userSpaceOnUse" xlink:href="#a"/><radialGradient id="aU" cx="137.91" cy="424.61" r="27.375" gradientTransform="matrix(2.1231 0 0 1.1985 280.5 400.4)" gradientUnits="userSpaceOnUse" xlink:href="#a"/><radialGradient id="aT" cx="265.59" cy="418.33" r="14.406" gradientTransform="matrix(2.1231 0 0 1.7754 280.5 153.26)" gradientUnits="userSpaceOnUse" xlink:href="#a"/><radialGradient id="aS" cx="184" cy="413.72" r="13.719" gradientTransform="matrix(2.1231 0 0 1.8426 280.5 123.85)" gradientUnits="userSpaceOnUse" xlink:href="#a"/><radialGradient id="aR" cx="296.5" cy="410.89" r="14.5" gradientTransform="matrix(2.1231 0 0 1.7319 280.5 168.55)" gradientUnits="userSpaceOnUse" xlink:href="#a"/><radialGradient id="aQ" cx="215.45" cy="406.36" r="13.828" gradientTransform="matrix(2.1231 0 0 1.7969 280.5 140.38)" gradientUnits="userSpaceOnUse" xlink:href="#a"/><radialGradient id="aP" cx="342.42" cy="425.03" r="93.734" gradientTransform="matrix(2.1231 0 0 .71914 280.5 604.53)" gradientUnits="userSpaceOnUse" xlink:href="#a"/><radialGradient id="aO" cx="326.86" cy="403.59" r="14.578" gradientTransform="matrix(2.1231 0 0 1.693 280.5 181.38)" gradientUnits="userSpaceOnUse" xlink:href="#a"/><radialGradient id="aN" cx="130.92" cy="402.95" r="22.047" gradientTransform="matrix(2.1231 0 0 1.3106 280.5 335.21)" gradientUnits="userSpaceOnUse" xlink:href="#a"/><radialGradient id="aM" cx="246.36" cy="399.14" r="13.922" gradientTransform="matrix(2.1231 0 0 1.7514 280.5 156.17)" gradientUnits="userSpaceOnUse" xlink:href="#a"/><radialGradient id="aL" cx="356.67" cy="396.41" r="14.672" gradientTransform="matrix(2.1231 0 0 1.6506 280.5 195.13)" gradientUnits="userSpaceOnUse" xlink:href="#a"/><radialGradient id="aK" cx="453.05" cy="397" r="17.891" gradientTransform="matrix(2.1231 0 0 1.4315 280.5 282.38)" gradientUnits="userSpaceOnUse" xlink:href="#a"/><radialGradient id="aJ" cx="170.98" cy="393.78" r="13.297" gradientTransform="matrix(2.1231 0 0 1.8112 280.5 130.61)" gradientUnits="userSpaceOnUse" xlink:href="#a"/><radialGradient id="aI" cx="276.7" cy="392.05" r="14.016" gradientTransform="matrix(2.1231 0 0 1.7113 280.5 169.27)" gradientUnits="userSpaceOnUse" xlink:href="#a"/><radialGradient id="aH" cx="385.97" cy="389.36" r="14.75" gradientTransform="matrix(2.1231 0 0 1.6126 280.5 206.59)" gradientUnits="userSpaceOnUse" xlink:href="#a"/><radialGradient id="aG" cx="487.67" cy="388.41" r="17.922" gradientTransform="matrix(2.1231 0 0 1.3994 280.5 288.91)" gradientUnits="userSpaceOnUse" xlink:href="#a"/><radialGradient id="aF" cx="201.8" cy="386.77" r="13.391" gradientTransform="matrix(2.1231 0 0 1.7664 280.5 145.78)" gradientUnits="userSpaceOnUse" xlink:href="#a"/><radialGradient id="aE" cx="306.55" cy="385.06" r="14.109" gradientTransform="matrix(2.1231 0 0 1.6693 280.5 182.54)" gradientUnits="userSpaceOnUse" xlink:href="#a"/><radialGradient id="aD" cx="120.88" cy="383.11" r="12.75" gradientTransform="matrix(2.1231 0 0 1.8395 280.5 116.45)" gradientUnits="userSpaceOnUse" xlink:href="#a"/><radialGradient id="aC" cx="414.77" cy="382.44" r="14.828" gradientTransform="matrix(2.1231 0 0 1.5795 280.5 215.71)" gradientUnits="userSpaceOnUse" xlink:href="#a"/><radialGradient id="aB" cx="232.08" cy="379.89" r="13.484" gradientTransform="matrix(2.1231 0 0 1.7246 280.5 159.21)" gradientUnits="userSpaceOnUse" xlink:href="#a"/><radialGradient id="aA" cx="521.58" cy="380" r="17.953" gradientTransform="matrix(2.1231 0 0 1.3674 280.5 294.99)" gradientUnits="userSpaceOnUse" xlink:href="#a"/><radialGradient id="az" cx="335.86" cy="378.22" r="14.203" gradientTransform="matrix(2.1231 0 0 1.6303 280.5 194.2)" gradientUnits="userSpaceOnUse" xlink:href="#a"/><radialGradient id="ay" cx="151.7" cy="376.3" r="12.859" gradientTransform="matrix(2.1231 0 0 1.7929 280.5 132.06)" gradientUnits="userSpaceOnUse" xlink:href="#a"/><radialGradient id="ax" cx="443.06" cy="375.62" r="14.906" gradientTransform="matrix(2.1231 0 0 1.5445 280.5 225.15)" gradientUnits="userSpaceOnUse" xlink:href="#a"/><radialGradient id="aw" cx="261.84" cy="373.14" r="13.594" gradientTransform="matrix(2.1231 0 0 1.6814 280.5 172.62)" gradientUnits="userSpaceOnUse" xlink:href="#a"/><radialGradient id="av" cx="364.67" cy="371.47" r="14.266" gradientTransform="matrix(2.1231 0 0 1.5952 280.5 203.89)" gradientUnits="userSpaceOnUse" xlink:href="#a"/><radialGradient id="au" cx="554.78" cy="371.75" r="17.969" gradientTransform="matrix(2.1231 0 0 1.3366 280.5 300.18)" gradientUnits="userSpaceOnUse" xlink:href="#a"/><radialGradient id="at" cx="182.03" cy="369.59" r="12.969" gradientTransform="matrix(2.1231 0 0 1.7445 280.5 147.72)" gradientUnits="userSpaceOnUse" xlink:href="#a"/><radialGradient id="as" cx="470.88" cy="368.92" r="14.969" gradientTransform="matrix(2.1231 0 0 1.5092 280.5 234.28)" gradientUnits="userSpaceOnUse" xlink:href="#a"/><radialGradient id="ar" cx="291.09" cy="366.48" r="13.656" gradientTransform="matrix(2.1231 0 0 1.6446 280.5 183.18)" gradientUnits="userSpaceOnUse" xlink:href="#a"/><radialGradient id="aq" cx="393" cy="364.86" r="14.344" gradientTransform="matrix(2.1231 0 0 1.5611 280.5 212.85)" gradientUnits="userSpaceOnUse" xlink:href="#a"/><radialGradient id="ap" cx="119.56" cy="361.64" r="12.25" gradientTransform="matrix(2.1231 0 0 1.3567 280.5 284.96)" gradientUnits="userSpaceOnUse" xlink:href="#a"/><radialGradient id="ao" cx="589.73" cy="363.08" r="15.672" gradientTransform="matrix(2.1231 0 0 1.4204 280.5 262.96)" gradientUnits="userSpaceOnUse" xlink:href="#a"/><radialGradient id="an" cx="211.84" cy="363" r="13.063" gradientTransform="matrix(2.1231 0 0 1.7066 280.5 158.99)" gradientUnits="userSpaceOnUse" xlink:href="#a"/><radialGradient id="am" cx="319.84" cy="359.94" r="13.75" gradientTransform="matrix(2.1231 0 0 1.6068 280.5 193.64)" gradientUnits="userSpaceOnUse" xlink:href="#a"/><radialGradient id="al" cx="420.86" cy="358.34" r="14.422" gradientTransform="matrix(2.1231 0 0 1.5274 280.5 221.29)" gradientUnits="userSpaceOnUse" xlink:href="#a"/><radialGradient id="ak" cx="615.88" cy="356.59" r="15.719" gradientTransform="matrix(2.1231 0 0 1.3929 280.5 268.19)" gradientUnits="userSpaceOnUse" xlink:href="#a"/><radialGradient id="aj" cx="241.12" cy="356.53" r="13.156" gradientTransform="matrix(2.1231 0 0 1.6642 280.5 171.42)" gradientUnits="userSpaceOnUse" xlink:href="#a"/><radialGradient id="ai" cx="348.14" cy="353.52" r="13.828" gradientTransform="matrix(2.1231 0 0 1.5713 280.5 202.86)" gradientUnits="userSpaceOnUse" xlink:href="#a"/><radialGradient id="ah" cx="448.23" cy="351.94" r="14.484" gradientTransform="matrix(2.1231 0 0 1.4933 280.5 229.46)" gradientUnits="userSpaceOnUse" xlink:href="#a"/><radialGradient id="ag" cx="179.11" cy="348.84" r="12.234" gradientTransform="matrix(2.1231 0 0 1.3124 280.5 290.63)" gradientUnits="userSpaceOnUse" xlink:href="#a"/><radialGradient id="af" cx="521.81" cy="356.83" r="38.125" gradientTransform="matrix(2.1231 0 0 .88317 280.5 450.25)" gradientUnits="userSpaceOnUse" xlink:href="#a"/><radialGradient id="ae" cx="641.58" cy="350.22" r="15.766" gradientTransform="matrix(2.1231 0 0 1.3677 280.5 272.36)" gradientUnits="userSpaceOnUse" xlink:href="#a"/><radialGradient id="ad" cx="269.95" cy="350.14" r="13.234" gradientTransform="matrix(2.1231 0 0 1.6268 280.5 181.58)" gradientUnits="userSpaceOnUse" xlink:href="#a"/><radialGradient id="ac" cx="375.97" cy="347.19" r="13.906" gradientTransform="matrix(2.1231 0 0 1.5363 280.5 211.55)" gradientUnits="userSpaceOnUse" xlink:href="#a"/><radialGradient id="ab" cx="475.17" cy="345.64" r="14.547" gradientTransform="matrix(2.1231 0 0 1.4618 280.5 236.39)" gradientUnits="userSpaceOnUse" xlink:href="#a"/><radialGradient id="aa" cx="208.16" cy="342.59" r="12.25" gradientTransform="matrix(2.1231 0 0 1.289 280.5 293.55)" gradientUnits="userSpaceOnUse" xlink:href="#a"/><radialGradient id="Z" cx="298.3" cy="343.89" r="13.328" gradientTransform="matrix(2.1231 0 0 1.5905 280.5 190.97)" gradientUnits="userSpaceOnUse" xlink:href="#a"/><radialGradient id="Y" cx="403.33" cy="340.97" r="13.984" gradientTransform="matrix(2.1231 0 0 1.504 280.5 218.91)" gradientUnits="userSpaceOnUse" xlink:href="#a"/><radialGradient id="X" cx="501.67" cy="339.45" r="14.609" gradientTransform="matrix(2.1231 0 0 1.4328 280.5 242.13)" gradientUnits="userSpaceOnUse" xlink:href="#a"/><radialGradient id="W" cx="236.72" cy="336.45" r="12.25" gradientTransform="matrix(2.1231 0 0 1.2701 280.5 294.81)" gradientUnits="userSpaceOnUse" xlink:href="#a"/><radialGradient id="V" cx="326.17" cy="337.72" r="13.391" gradientTransform="matrix(2.1231 0 0 1.5558 280.5 199.4)" gradientUnits="userSpaceOnUse" xlink:href="#a"/><radialGradient id="U" cx="602.2" cy="337.31" r="15.234" gradientTransform="matrix(2.1231 0 0 1.3675 280.5 262.68)" gradientUnits="userSpaceOnUse" xlink:href="#a"/><radialGradient id="T" cx="684.36" cy="339.69" r="27.703" gradientTransform="matrix(2.1231 0 0 .98194 280.5 395.45)" gradientUnits="userSpaceOnUse" xlink:href="#a"/><radialGradient id="S" cx="430.23" cy="334.86" r="14.047" gradientTransform="matrix(2.1231 0 0 1.4713 280.5 226.07)" gradientUnits="userSpaceOnUse" xlink:href="#a"/><radialGradient id="R" cx="264.83" cy="330.41" r="12.234" gradientTransform="matrix(2.1231 0 0 1.2527 280.5 295.39)" gradientUnits="userSpaceOnUse" xlink:href="#a"/><radialGradient id="Q" cx="353.59" cy="331.66" r="13.469" gradientTransform="matrix(2.1231 0 0 1.5221 280.5 207.12)" gradientUnits="userSpaceOnUse" xlink:href="#a"/><radialGradient id="P" cx="721.12" cy="330.5" r="15.875" gradientTransform="matrix(2.1231 0 0 1.2872 280.5 284.06)" gradientUnits="userSpaceOnUse" xlink:href="#a"/><radialGradient id="O" cx="456.72" cy="328.83" r="14.094" gradientTransform="matrix(2.1231 0 0 1.4429 280.5 231.49)" gradientUnits="userSpaceOnUse" xlink:href="#a"/><radialGradient id="N" cx="380.58" cy="325.69" r="13.547" gradientTransform="matrix(2.1231 0 0 1.4889 280.5 214.37)" gradientUnits="userSpaceOnUse" xlink:href="#a"/><radialGradient id="M" cx="657.17" cy="324.09" r="15.328" gradientTransform="matrix(2.1231 0 0 1.3115 280.5 270.83)" gradientUnits="userSpaceOnUse" xlink:href="#a"/><radialGradient id="L" cx="307.42" cy="321.25" r="12.234" gradientTransform="matrix(2.1231 0 0 1.2202 280.5 297.87)" gradientUnits="userSpaceOnUse" xlink:href="#a"/><radialGradient id="K" cx="482.78" cy="322.91" r="14.156" gradientTransform="matrix(2.1231 0 0 1.4154 280.5 236.32)" gradientUnits="userSpaceOnUse" xlink:href="#a"/><radialGradient id="J" cx="407.12" cy="319.81" r="13.594" gradientTransform="matrix(2.1231 0 0 1.4593 280.5 220.09)" gradientUnits="userSpaceOnUse" xlink:href="#a"/><radialGradient id="I" cx="681.45" cy="318.25" r="15.359" gradientTransform="matrix(2.1231 0 0 1.2872 280.5 273.81)" gradientUnits="userSpaceOnUse" xlink:href="#a"/><radialGradient id="H" cx="334.41" cy="315.44" r="12.219" gradientTransform="matrix(2.1231 0 0 1.2 280.5 298.98)" gradientUnits="userSpaceOnUse" xlink:href="#a"/><radialGradient id="G" cx="520.58" cy="324.16" r="26.234" gradientTransform="matrix(2.1231 0 0 1.525 280.5 201.69)" gradientUnits="userSpaceOnUse" xlink:href="#a"/><radialGradient id="F" cx="433.27" cy="314.05" r="13.672" gradientTransform="matrix(2.1231 0 0 1.4292 280.5 225.74)" gradientUnits="userSpaceOnUse" xlink:href="#a"/><radialGradient id="E" cx="705.36" cy="312.48" r="15.391" gradientTransform="matrix(2.1231 0 0 1.2652 280.5 275.87)" gradientUnits="userSpaceOnUse" xlink:href="#a"/><radialGradient id="D" cx="360.95" cy="309.73" r="12.203" gradientTransform="matrix(2.1231 0 0 1.1825 280.5 299.14)" gradientUnits="userSpaceOnUse" xlink:href="#a"/><radialGradient id="C" cx="458.98" cy="308.34" r="13.734" gradientTransform="matrix(2.1231 0 0 1.4009 280.5 230.49)" gradientUnits="userSpaceOnUse" xlink:href="#a"/><radialGradient id="B" cx="552.31" cy="307.09" r="14.313" gradientTransform="matrix(2.1231 0 0 1.3397 280.5 248.39)" gradientUnits="userSpaceOnUse" xlink:href="#a"/><radialGradient id="A" cx="737.27" cy="315.94" r="24.891" gradientTransform="matrix(2.1231 0 0 1.5807 280.5 179.18)" gradientUnits="userSpaceOnUse" xlink:href="#a"/><radialGradient id="z" cx="387.09" cy="304.11" r="12.188" gradientTransform="matrix(2.1231 0 0 1.1677 280.5 298.35)" gradientUnits="userSpaceOnUse" xlink:href="#a"/><radialGradient id="y" cx="643.08" cy="306.39" r="14.859" gradientTransform="matrix(2.1231 0 0 1.2882 280.5 263.63)" gradientUnits="userSpaceOnUse" xlink:href="#a"/><radialGradient id="x" cx="576.88" cy="301.52" r="14.344" gradientTransform="matrix(2.1231 0 0 1.316 280.5 251.17)" gradientUnits="userSpaceOnUse" xlink:href="#a"/><radialGradient id="w" cx="666.91" cy="300.81" r="14.906" gradientTransform="matrix(2.1231 0 0 1.2641 280.5 266.21)" gradientUnits="userSpaceOnUse" xlink:href="#a"/><radialGradient id="v" cx="426.73" cy="295.58" r="12.172" gradientTransform="matrix(2.1231 0 0 1.142 280.5 297.81)" gradientUnits="userSpaceOnUse" xlink:href="#a"/><radialGradient id="u" cx="497.97" cy="299.8" r="26.781" gradientTransform="matrix(2.1231 0 0 .92778 280.5 366.16)" gradientUnits="userSpaceOnUse" xlink:href="#a"/><radialGradient id="t" cx="601.05" cy="296.03" r="14.391" gradientTransform="matrix(2.1231 0 0 1.2909 280.5 254.16)" gradientUnits="userSpaceOnUse" xlink:href="#a"/><radialGradient id="s" cx="690.34" cy="295.33" r="14.938" gradientTransform="matrix(2.1231 0 0 1.2414 280.5 268.18)" gradientUnits="userSpaceOnUse" xlink:href="#a"/><radialGradient id="r" cx="451.84" cy="290.19" r="12.156" gradientTransform="matrix(2.1231 0 0 1.1243 280.5 297.64)" gradientUnits="userSpaceOnUse" xlink:href="#a"/><radialGradient id="q" cx="541.02" cy="290.2" r="13.891" gradientTransform="matrix(2.1231 0 0 1.3159 280.5 242.06)" gradientUnits="userSpaceOnUse" xlink:href="#a"/><radialGradient id="p" cx="629.66" cy="289.53" r="14.438" gradientTransform="matrix(2.1231 0 0 1.2638 280.5 256.61)" gradientUnits="userSpaceOnUse" xlink:href="#a"/><radialGradient id="o" cx="476.59" cy="284.86" r="12.156" gradientTransform="matrix(2.1231 0 0 1.1107 280.5 296.21)" gradientUnits="userSpaceOnUse" xlink:href="#a"/><radialGradient id="n" cx="565.09" cy="284.88" r="13.938" gradientTransform="matrix(2.1231 0 0 1.29 280.5 245.12)" gradientUnits="userSpaceOnUse" xlink:href="#a"/><radialGradient id="m" cx="653.03" cy="284.22" r="14.469" gradientTransform="matrix(2.1231 0 0 1.2427 280.5 258.04)" gradientUnits="userSpaceOnUse" xlink:href="#a"/><radialGradient id="l" cx="500.97" cy="279.62" r="12.125" gradientTransform="matrix(2.1231 0 0 1.0944 280.5 295.46)" gradientUnits="userSpaceOnUse" xlink:href="#a"/><radialGradient id="k" cx="588.8" cy="279.64" r="13.984" gradientTransform="matrix(2.1231 0 0 1.2691 280.5 246.61)" gradientUnits="userSpaceOnUse" xlink:href="#a"/><radialGradient id="j" cx="676.05" cy="278.98" r="14.516" gradientTransform="matrix(2.1231 0 0 1.2181 280.5 260.29)" gradientUnits="userSpaceOnUse" xlink:href="#a"/><radialGradient id="i" cx="529.78" cy="273.42" r="12.125" gradientTransform="matrix(2.1231 0 0 1.0752 280.5 294.32)" gradientUnits="userSpaceOnUse" xlink:href="#a"/><radialGradient id="h" cx="706.31" cy="282.09" r="23.188" gradientTransform="matrix(2.1231 0 0 1.5423 280.5 171.66)" gradientUnits="userSpaceOnUse" xlink:href="#a"/><radialGradient id="g" cx="616.84" cy="273.42" r="14.031" gradientTransform="matrix(2.1231 0 0 1.2412 280.5 248.92)" gradientUnits="userSpaceOnUse" xlink:href="#a"/><radialGradient id="f" cx="553.38" cy="268.36" r="12.094" gradientTransform="matrix(2.1231 0 0 1.0616 280.5 292.68)" gradientUnits="userSpaceOnUse" xlink:href="#a"/><radialGradient id="e" cx="639.78" cy="268.36" r="14.063" gradientTransform="matrix(2.1231 0 0 1.2196 280.5 250.27)" gradientUnits="userSpaceOnUse" xlink:href="#a"/><radialGradient id="d" cx="576.61" cy="263.36" r="12.078" gradientTransform="matrix(2.1231 0 0 1.0464 280.5 291.35)" gradientUnits="userSpaceOnUse" xlink:href="#a"/><radialGradient id="c" cx="662.38" cy="263.36" r="14.094" gradientTransform="matrix(2.1231 0 0 1.1981 280.5 251.42)" gradientUnits="userSpaceOnUse" xlink:href="#a"/><radialGradient id="b" cx="684.66" cy="258.44" r="14.125" gradientTransform="matrix(2.1231 0 0 1.179 280.5 251.8)" gradientUnits="userSpaceOnUse" xlink:href="#a"/></defs><g><path d="m1693 558.64 28.055 31.711 5.8279-17.191-22.738-25.288z" fill="#535353"/><path d="m1721 590.35 46.305-10.461-3.2484-15.049-37.229 8.3184z" fill="#5a5a5a"/><path d="m1646.1 568.95 27.21 32.18 5.6623-17.274-22.059-25.662z" fill="#505050"/><path d="m1673.3 601.13 46.993-10.613-3.5499-15.097-37.781 8.4394z" fill="#5c5c5c"/><path d="m1721.4 590.87 60.572 68.47 4.8003-16.836-55.933-62.305z" fill="#4f4f4f"/><path d="m1598.5 579.42 26.335 32.656 5.4904-17.352-21.352-26.046z" fill="#4e4e4e"/><path d="m1624.8 612.08 47.696-10.773-3.8556-15.148-38.35 8.5689z" fill="#5d5d5d"/><path d="m1673.7 601.65 28.48 33.681 5.9235-17.522-23.095-26.87z" fill="#525252"/><path d="m1702.2 635.33 47.868-11.114-3.4543-15.248-38.488 8.8406z" fill="#595959"/><path d="m1782 659.34 48.027-11.473-0.7388-15.407-42.488 10.042z" fill="#545454"/><path d="m1470.5 574.28 15.456 21.458 5.6135-16.151-12.533-17.112z" fill="#474747"/><path d="m1486 595.74 48.174-10.535-3.8025-14.006-38.76 8.3927z" fill="#5d5d5d"/><path d="m1550.2 590.04 25.435 33.144 5.3099-17.435-20.622-26.437z" fill="#4b4b4b"/><path d="m1575.7 623.18 48.416-10.934-4.1741-15.197-38.929 8.6963z" fill="#5f5f5f"/><path d="m1625.3 612.6 27.577 34.193 5.7451-17.605-22.365-27.282z" fill="#505050"/><path d="m1652.8 646.79 48.602-11.284-3.7749-15.297-39.08 8.9765z" fill="#5b5b5b"/><path d="m1702.7 635.87 29.842 35.293 6.2058-17.779-24.208-28.163z" fill="#545454"/><path d="m1732.5 671.17 48.772-11.652-3.346-15.397-39.22 9.2695z" fill="#585858"/><path d="m1421.5 584.83 14.834 21.775 5.397-16.214-12.03-17.369z" fill="#444"/><path d="m1436.3 606.6 48.891-10.694-4.1549-14.038-39.341 8.5179z" fill="#5e5e5e"/><path d="m1782.5 659.9 66.606 75.294 5.4033-17.272-61.547-68.56z" fill="#515151"/><path d="m1491.2 603.03 24.31 33.747 5.0891-17.535-19.713-26.921z" fill="#484848"/><path d="m1371.7 595.52 14.193 22.102 5.174-16.28-11.507-17.63z" fill="#414141"/><path d="m1515.5 636.77 49.299-11.136-4.5646-15.257-39.643 8.8576z" fill="#606060"/><path d="m1576.1 623.71 26.641 34.715 5.5626-17.69-21.609-27.696z" fill="#4d4d4d"/><path d="m1385.9 617.63 49.624-10.855-4.5158-14.072-39.936 8.6453z" fill="#606060"/><path d="m1602.7 658.43 49.35-11.458-4.1019-15.346-39.685 9.1145z" fill="#5d5d5d"/><path d="m1849.1 735.19 49.872-12.639-0.3418-15.703-44.127 11.07z" fill="#4f4f4f"/><path d="m1653.3 647.34 28.904 35.838 6.0211-17.862-23.448-28.603z" fill="#515151"/><path d="m1682.2 683.18 49.539-11.834-3.6794-15.444-39.838 9.4139z" fill="#595959"/><path d="m1764.3 708.75 49.713-12.227-3.225-15.541-39.978 9.7281z" fill="#555"/><path d="m1733 671.73 31.303 37.021 6.5115-18.04-25.403-29.552z" fill="#555"/><path d="m1441.3 614 23.339 34.256 4.898-17.615-18.93-27.333z" fill="#454545"/><path d="m1310.9 608.6 13.393 22.505 4.898-16.361-10.862-17.951z" fill="#3d3d3d"/><path d="m1464.7 648.26 50.055-11.306-4.9023-15.306-40.254 8.9956z" fill="#626262"/><path d="m1324.3 631.1 50.53-11.051-4.9659-14.11-40.664 8.8024z" fill="#616161"/><path d="m1515.9 637.31 25.471 35.36 5.3311-17.792-20.662-28.216z" fill="#4a4a4a"/><path d="m1603.2 658.99 27.934 36.401 5.8322-17.947-22.666-29.055z" fill="#4f4f4f"/><path d="m1541.4 672.68 50.275-11.673-4.5116-15.403-40.433 9.2865z" fill="#5e5e5e"/><path d="m1631.1 695.39 50.32-12.019-4.019-15.492-40.469 9.5646z" fill="#5a5a5a"/><path d="m1797.7 748.23 50.683-12.845-3.0849-15.683-40.764 10.225zm-115-64.47 30.331 37.611 6.3184-18.125-24.615-30.025z" fill="#535353"/><path d="m1390.7 625.13 22.335 34.783 4.6985-17.7-18.117-27.753z" fill="#424242"/><path d="m1764.8 709.35 32.876 38.881 6.8364-18.303-26.688-31.046z" fill="#575757"/><path d="m1713 721.37 50.509-12.422-3.5668-15.588-40.624 9.8852z" fill="#565656"/><path d="m1259.5 619.65 12.703 22.845 4.6602-16.424-10.306-18.227z" fill="#393939"/><path d="m1272.2 642.5 51.299-11.223-5.3502-14.14-41.288 8.9383z" fill="#626262"/><path d="m1413.1 659.92 50.827-11.482-5.2484-15.35-40.88 9.1315z" fill="#636363"/><path d="m1465.1 648.8 24.465 35.91 5.1315-17.872-19.849-28.662z" fill="#474747"/><path d="m1207.3 630.87 11.991 23.193 4.4118-16.488-9.726-18.507z" fill="#363636"/><path d="m1489.5 684.72 51.061-11.855-4.8598-15.452-41.07 9.4351z" fill="#606060"/><path d="m1219.3 654.06 52.086-11.393-5.7472-14.172-41.927 9.0763z" fill="#636363"/><path d="m1631.5 695.97 29.324 38.216 6.1189-18.212-23.8-30.509z" fill="#505050"/><path d="m1660.9 734.19 51.326-12.624-3.9235-15.635-41.284 10.047z" fill="#585858"/><path d="m1154.4 642.26 11.255 23.552 4.1571-16.554-9.1315-18.794z" fill="#323232"/><path d="m1165.6 665.81 52.866-11.565-6.1528-14.204-42.558 9.2143z" fill="#646464"/><path d="m1413.4 660.47 23.422 36.475 4.9256-17.962-19.004-29.11z" fill="#444"/><path d="m1135 672.5-10.832-23.758-4.6454-9.5052 8.6666 19.017z" fill="#010101"/><path d="m1291.4 687.39 110.26-24.904-7.0573-15.104-97.559 21.798z" fill="#666"/><path d="m1271.5 651.36 19.904 36.036 5.639-18.21-16.172-28.747z" fill="#3f3f3f"/><path d="m1436.8 696.95 51.868-12.044-5.2186-15.499-41.724 9.5837z" fill="#616161"/><path d="m1692.2 774.97 104.68-26.53-4.5223-15.456-92.621 23.231z" fill="#555"/><path d="m1070.8 660.23 10.07 24.121 3.7452-16.654-8.1698-19.252z" fill="#2d2d2d"/><path d="m1080 684.53-10.055-24.127-5.2292-9.4648 8.036 19.316z" fill="#050505"/><path d="m507.42 781.36 1.242 28.146 0.6794-17.272-1.0127-22.488z" fill="#060606"/><path d="m1080.9 684.35 54.178-11.851-6.8109-14.246-43.622 9.4436z" fill="#666"/><path d="m1015.7 672.07 9.2695 24.501 3.4692-16.72-7.5222-19.556zm-443.79 123.6-2.2887-27.685-11-8.9786 1.6942 22.193z" fill="#292929"/><path d="m1024.1 696.76-9.2568-24.507-5.828-9.4181 7.3821 19.622z" fill="#090909"/><path d="m1218.3 663.06 18.785 36.602 3.9957-17.979-15.244-29.214z" fill="#373737"/><path d="m1661.3 734.8 30.821 40.165 7.5371-18.756-25.042-32.07z" fill="#555"/><path d="m959.76 684.1 8.4415 24.889 3.1847-16.785-6.8534-19.868z" fill="#252525"/><path d="m967.32 709.19-8.4288-24.896-6.4479-9.3693 6.709 19.936zm-334.58 45.235 3.3333 27.218 1.4076-17.142-2.7091-21.745z" fill="#0e0e0e"/><path d="m1025 696.57 55.033-12.038-7.2483-14.276-44.316 9.5965zm-516.32 112.94 63.254-13.836-11.592-14.471-50.98 11.036z" fill="#666"/><path d="m902.92 696.32 7.5901 25.286 2.8874-16.849-6.1634-20.191zm-205.68 71.937-4.3099-26.785-9.5094-9.1145 3.346 21.465z" fill="#202020"/><path d="m693.87 741.28 4.3227 26.779 1.7537-17.08-3.5138-21.388z" fill="#121212"/><path d="m1237.1 699.67 53.502-12.087-6.4628-15.507-43.044 9.6177z" fill="#676767"/><path d="m877.65 728.8-7.0976-25.516-7.4415-9.2908 5.622 20.439z" fill="#151515"/><path d="m758.36 754.89-5.2696-26.352-8.8003-9.1761 4.1295 21.114z" fill="#1c1c1c"/><path d="m754.02 728.34 5.2844 26.344 2.0849-17.015-4.2908-21.04z" fill="#161616"/><path d="m813.2 715.62 6.2144 25.921 2.4076-16.951-5.0445-20.7z" fill="#1b1b1b"/><path d="m818.49 741.74-6.1995-25.93-8.1103-9.2334 4.8874 20.773z" fill="#181818"/><path d="m968.2 708.99 55.908-12.229-7.7027-14.303-45.023 9.7472z" fill="#666"/><path d="m1321.2 681.32 21.509 37.49 6.656-14.229-19.259-33.021z" fill="#3e3e3e"/><path d="m1164.3 674.96 17.63 37.18 3.7664-18.063-14.308-29.679z" fill="#343434"/><path d="m910.51 721.61 56.806-12.427-8.1676-14.329-45.753 9.9043zm-274.44 60.027 61.171-13.378-10.473-14.437-49.29 10.673zm62.122-13.588 60.171-13.159-9.9404-14.416-48.477 10.499zm121.22-26.513 58.237-12.739-8.9171-14.367-46.912 10.155zm-60.114 13.148 59.192-12.947-9.4224-14.39-47.685 10.323z" fill="#676767"/><path d="m1181.9 712.14 54.356-12.28-6.8577-15.554-43.732 9.7706z" fill="#686868"/><path d="m1516 723.58 26.974 39.596 5.6559-18.399-21.9-31.624z" fill="#4a4a4a"/><path d="m1109.4 687.03 16.433 37.77 3.5307-18.148-13.34-30.155z" fill="#303030"/><path d="m1124.9 725-16.414-37.781-4.3885-8.1252 13.129 30.259z" fill="#040404"/><path d="m1342.7 718.81 17.596-4.087 4.0212-13.588-14.964 3.4458z" fill="#4e4e4e"/><path d="m1543 763.18 53.197-13.083-4.7451-15.732-42.798 10.416z" fill="#5c5c5c"/><path d="m1267.3 693.5 20.367 38.089 4.3206-18.191-16.533-30.411z" fill="#3a3a3a"/><path d="m509.03 819.11 1.9702 44.573 0.64755-19.023-1.6051-35.626z" fill="#060606"/><path d="m1597.4 750.52 29.511 40.97 6.1719-18.582-23.966-32.728z" fill="#4f4f4f"/><path d="m1627 791.49 53.43-13.541-4.2738-15.821-42.985 10.781z" fill="#585858"/><path d="m1053.6 699.29 15.197 38.377 3.2823-18.231-12.34-30.645z" fill="#2c2c2c"/><path d="m1067.9 737.87-15.18-38.388-5.0445-8.053 12.121 30.749z" fill="#080808"/><path d="m1125.8 724.8 55.231-12.475-7.259-15.601-44.441 9.9277z" fill="#696969"/><path d="m1287.6 731.59 54.186-12.582-6.2674-15.626-43.598 10.015z" fill="#656565"/><path d="m576.26 848.94-3.6242-43.825-11.11-7.3439 2.6836 35.146z" fill="#2a2a2a"/><path d="m573.63 804.89 3.6475 43.813 0.98512-18.932-2.9681-35.017z" fill="#0a0a0a"/><path d="m1360.3 714.73 23.327 39.779 1.4097-18.499-20.715-34.868z" fill="#353535"/><path d="m996.98 711.76 13.919 39.002 3.0297-18.322-11.301-31.142z" fill="#282828"/><path d="m1010 750.96-13.9-39.01-5.7239-7.9765 11.078 31.252z" fill="#0c0c0c"/><path d="m1212.5 705.87 19.182 38.706 4.0869-18.28-15.573-30.906z" fill="#373737"/><path d="m641.42 834.22-5.2441-43.084-10.267-7.4479 4.0106 34.547z" fill="#262626"/><path d="m637.14 790.92 5.2696 43.074 1.3078-18.845-4.2887-34.42z" fill="#0e0e0e"/><path d="m1383.6 754.51 66.39-15.86-8.5519-15.966-56.428 13.325z" fill="#656565"/><path d="m1068.8 737.67 56.097-12.671-7.673-15.647-45.142 10.085z" fill="#6a6a6a"/><path d="m939.41 724.42 12.599 39.639 2.7685-18.407-10.231-31.656z" fill="#242424"/><path d="m951.09 764.27-12.575-39.649-6.4245-7.898 9.9999 31.768z" fill="#111"/><path d="m705.46 819.75-6.8152-42.36-9.4479-7.5456 5.2929 33.961z" fill="#222"/><path d="m699.61 777.18 6.8364 42.35 1.6199-18.756-5.5583-33.84z" fill="#121212"/><path d="m880.92 737.29 11.229 40.292 2.4947-18.492-9.1209-32.182z" fill="#1f1f1f"/><path d="m891.22 777.79-11.21-40.303-7.1422-7.8152 8.881 32.295z" fill="#151515"/><path d="m511 863.68 65.265-14.741-12.051-16.023-52.566 11.743z" fill="#6a6a6a"/><path d="m768.43 805.53-8.329-41.66-8.6559-7.639 6.5307 33.392z" fill="#1e1e1e"/><path d="m761.04 763.66 8.3523 41.647 1.9214-18.669-6.7855-33.273z" fill="#171717"/><path d="m821.47 750.37 9.8152 40.961 2.2144-18.579-7.9744-32.721z" fill="#1b1b1b"/><path d="m830.34 791.54-9.7939-40.972-7.8874-7.7281 7.7239 32.836z" fill="#191919"/><path d="m1231.7 744.57 55.069-12.785-6.6708-15.671-44.312 10.178z" fill="#666"/><path d="m1010.9 750.76 57.042-12.887-8.1039-15.69-45.908 10.255z" fill="#6a6a6a"/><path d="m1543.4 763.82 28.378 41.656 5.9469-18.669-23.046-33.28z" fill="#4c4c4c"/><path d="m1156.9 718.44 17.957 39.337 3.8428-18.365-14.579-31.414z" fill="#333"/><path d="m1174 757.98-17.936-39.348-3.9448-7.9341 14.365 31.524z" fill="#010101"/><path d="m1571.8 805.47 54.33-13.768-4.6708-15.866-43.715 10.966z" fill="#595959"/><path d="m1305.9 728.04 21.796 39.821 4.6157-18.429-17.696-31.804z" fill="#3d3d3d"/><path d="m577.27 848.71 64.144-14.488-11.501-15.987-51.657 11.543zm374.74-84.646 57.982-13.1-8.5456-15.734-46.668 10.427zm-309.6 69.933 63.048-14.242-10.97-15.945-50.77 11.342z" fill="#6b6b6b"/><path d="m1327.7 767.86 55.086-13.157-6.1443-15.749-44.326 10.475z" fill="#626262"/><path d="m1174.9 757.77 55.974-12.996-7.087-15.715-45.044 10.346z" fill="#676767"/><path d="m892.15 777.58 58.944-13.314-9.002-15.779-47.447 10.601z" fill="#6b6b6b"/><path d="m1100.4 731.21 16.688 39.982 3.5902-18.452-13.552-31.934z" fill="#2f2f2f"/><path d="m1116.2 771.4-16.666-39.993-4.6199-7.8555 13.329 32.046z" fill="#060606"/><path d="m706.44 819.53 61.984-14-10.454-15.906-49.91 11.151z" fill="#6b6b6b"/><path d="m511.03 864.4 2.0764 47.035 0.22505-19.191-1.6836-37.617z" fill="#040404"/><path d="m831.28 791.33 59.933-13.537-9.4712-15.824-48.248 10.781zm-61.893 13.981 60.946-13.766-9.9574-15.864-49.065 10.962z" fill="#6b6b6b"/><path d="m1250.2 740.97 20.573 40.479 4.3736-18.518-16.709-32.333z" fill="#393939"/><path d="m1043 744.19 15.376 40.645 3.3291-18.539-12.488-32.467z" fill="#2b2b2b"/><path d="m1057.4 785.05-15.354-40.656-5.3163-7.7706 12.257 32.581z" fill="#0a0a0a"/><path d="m1488.5 777.33 27.199 42.36 5.7154-18.758-22.095-33.847z" fill="#484848"/><path d="m1117.1 771.19 56.9-13.212-7.5159-15.758-45.793 10.518z" fill="#676767"/><path d="m616.88 887.34-4.7622-45.785-10.444-7.1591 3.6135 36.73z" fill="#272727"/><path d="m613.18 841.31 4.7919 45.774 1.2187-19.159-3.898-36.594z" fill="#0d0d0d"/><path d="m1515.7 819.69 55.26-14.004-5.0806-15.906-44.464 11.153z" fill="#5b5b5b"/><path d="m984.59 757.38 14.017 41.322 3.0572-18.626-11.384-33.012z" fill="#272727"/><path d="m1270.8 781.45 56.004-13.38-6.5625-15.79-45.07 10.65z" fill="#636363"/><path d="m997.67 798.92-13.993-41.333-6.036-7.6836 11.146 33.129z" fill="#0e0e0e"/><path d="m683.19 871.94-6.4436-44.993-9.9999-7.1782 4.9745 36.093z" fill="#242424"/><path d="m677.74 826.72 6.467 44.982 1.5541-19.068-5.259-35.959z" fill="#111"/><path d="m925.24 770.79 12.611 42.019 2.7792-18.715-10.246-33.571z" fill="#232323"/><path d="m936.9 813.03-12.59-42.029-6.7727-7.5901 9.9977 33.692z" fill="#131313"/><path d="m1193.7 754.11 19.308 41.152 4.121-18.605-15.679-32.874z" fill="#353535"/><path d="m1058.3 784.83 57.848-13.433-7.9574-15.802-46.56 10.696z" fill="#686868"/><path d="m748.28 856.83-8.0615-44.225-9.1549-7.2865 6.2993 35.469z" fill="#202020"/><path d="m741.19 812.38 8.0848 44.212 1.879-18.981-6.5753-35.337z" fill="#161616"/><path d="m864.93 784.42 11.155 42.73 2.4883-18.802-9.0657-34.146z" fill="#1e1e1e"/><path d="m875.13 827.37-11.131-42.738-7.5456-7.4946 8.8088 34.267z" fill="#171717"/><path d="m812.25 841.97-9.6241-43.473-8.3375-7.3927 7.5774 34.862z" fill="#1c1c1c"/><path d="m803.58 798.28 9.6474 43.46 2.1889-18.892-7.8407-34.734z" fill="#1a1a1a"/><path d="m513.1 911.43 103.77-24.095-11.592-16.216-91.956 21.121z" fill="#686868"/><path d="m1319.7 818.08 156.23-38.422-6.6348-15.584-143.83 35.002z" fill="#606060"/><path d="m998.6 798.7 58.823-13.658-8.4139-15.845-47.35 10.877z" fill="#696969"/><path d="m1213 795.26 56.944-13.601-6.9936-15.834-45.83 10.83z" fill="#656565"/><path d="m617.97 887.08 65.218-15.142-11.469-16.08-52.526 12.066z" fill="#696969"/><path d="m1136.2 767.46 17.996 41.844 3.8619-18.694-14.618-33.431z" fill="#323232"/><path d="m1153.3 809.53-17.974-41.855-4.3099-7.6135 14.388 33.552z" fill="#040404"/><path d="m1297.5 775.8 22.25 42.278 5.7706-19.002-18.093-33.772z" fill="#404040"/><path d="m937.85 812.81 59.823-13.889-8.8852-15.887-48.156 11.061z" fill="#696969"/><path d="m684.2 871.7 64.08-14.879-10.917-16.042-51.609 11.853z" fill="#6a6a6a"/><path d="m513.14 912.19 2.1974 49.713 1.6412-19.79-1.8131-39.762z" fill="#090909"/><path d="m876.09 827.15 60.817-14.121-9.3651-15.928-48.963 11.246zm-126.81 29.443 62.974-14.622-10.384-16.004-50.711 11.647z" fill="#6a6a6a"/><path d="m1408.8 796.93 25.452 43.39 6.6411-19.201-20.702-34.664z" fill="#484848"/><path d="m813.23 841.75 61.895-14.374-9.8682-15.966-49.838 11.448z" fill="#6a6a6a"/><path d="m1077.7 781.04 16.637 42.551 3.5902-18.781-13.516-34.002z" fill="#2d2d2d"/><path d="m1434.3 840.32 69.052-17.501-6.8407-15.639-55.57 13.938z" fill="#5d5d5d"/><path d="m1154.2 809.31 57.91-13.832-7.4372-15.877-46.611 11.015z" fill="#666"/><path d="m1093.4 823.82-16.616-42.564-5.0318-7.5158 13.278 34.123z" fill="#090909"/><path d="m1240.1 789.52 20.947 42.999 4.4628-18.836-17.019-34.363z" fill="#393939"/><path d="m1018.3 794.85 15.229 43.28 3.3099-18.87-12.376-34.586z" fill="#292929"/><path d="m1032.6 838.35-15.206-43.29-5.7791-7.4182 12.127 34.713z" fill="#0d0d0d"/><path d="m644.44 931.06-5.6178-48.069-11.694-6.5158 4.2674 38.594z" fill="#2b2b2b"/><path d="m639.59 882.82 5.6369 48.059 1.3991-19.405-4.5902-38.437z" fill="#0e0e0e"/><path d="m1094.4 823.59 58.897-14.068-7.898-15.917-47.409 11.204z" fill="#666"/><path d="m957.84 808.89 13.771 44.025 3.0191-18.957-11.191-35.189z" fill="#252525"/><path d="m970.64 853.15-13.747-44.038-6.5477-7.3141 10.934 35.318z" fill="#121212"/><path d="m711.82 914.97-7.3587-47.222-9.9022-6.8492 5.7112 37.898z" fill="#242424"/><path d="m705.47 867.51 7.3842 47.207 1.7473-19.312-6.0084-37.753z" fill="#131313"/><path d="m1261 832.52 57.838-14.225-6.8216-15.94-46.554 11.329z" fill="#626262"/><path d="m896.36 823.17 12.259 44.791 2.7197-19.046-9.9638-35.804z" fill="#202020"/><path d="m907.64 868.19-12.233-44.802-7.346-7.2058 9.6984 35.938z" fill="#171717"/><path d="m778.26 899.1-9.0423-46.394-9.0232-6.9723 7.0912 37.227z" fill="#202020"/><path d="m770.21 852.48 9.0678 46.382 2.0828-19.225-7.3736-37.087z" fill="#171717"/><path d="m833.83 837.7 10.692 45.575 2.4055-19.134-8.692-36.437z" fill="#1c1c1c"/><path d="m843.52 883.51-10.667-45.588-8.1698-7.0912 8.416 36.573z" fill="#1b1b1b"/><path d="m515.34 961.9 129.11-30.838-13.044-15.991-114.42 27.04z" fill="#676767"/><path d="m1339 814.12 23.877 44.305 6.3587-19.316-19.426-35.399z" fill="#444"/><path d="m1181.7 803.48 19.596 43.736 4.1931-18.923-15.923-34.955z" fill="#353535"/><path d="m1033.5 838.13 59.914-14.31-8.3694-15.959-48.233 11.401z" fill="#676767"/><path d="m1200.4 847.44-19.575-43.749-3.8684-7.3545 15.686 35.084z" fill="#030303"/><path d="m1362.8 858.42 70.549-17.877-7.4097-15.681-56.78 14.242z" fill="#5e5e5e"/><path d="m971.61 852.91 60.955-14.56-8.8598-15.996-49.076 11.599zm-326.38 77.959 66.589-15.904-11.55-16.174-53.643 12.675z" fill="#676767"/><path d="m1201.3 847.21 58.81-14.463-7.278-15.983-47.341 11.522z" fill="#636363"/><path d="m515.37 962.71 2.3248 52.621-0.69425-19.492-1.8641-42.135z"/><path d="m1122.3 817.67 18.195 44.496 3.9171-19.015-14.788-35.564z" fill="#313131"/><path d="m908.62 867.96 62.023-14.815-9.3629-16.034-49.94 11.802z" fill="#686868"/><path d="m1139.5 862.4-18.174-44.507-4.6114-7.2462 14.543 35.698z" fill="#070707"/><path d="m712.86 914.72 65.403-15.622-10.976-16.14-52.679 12.45zm131.66-31.448 63.12-15.078-9.8831-16.072-50.832 12.015zm-65.245 15.584 64.245-15.346-10.42-16.106-51.74 12.227z" fill="#686868"/><path d="m1267.7 831.66 22.233 45.25 6.0551-19.433-18.093-36.157z" fill="#3f3f3f"/><path d="m1061.9 832.1 16.745 45.273 3.6242-19.102-13.609-36.193z" fill="#2c2c2c"/><path d="m1077.7 877.61-16.722-45.286-5.3842-7.1337 13.354 36.327z" fill="#0c0c0c"/><path d="m1289 877.15-22.212-45.261-4.1995-6.8174 17.804 36.322z" fill="#030303"/><path d="m611.93 992.15-4.9044-51.35-10.206-6.5264 3.7176 41.231z" fill="#272727"/><path d="m1140.5 862.17 59.87-14.724-7.7579-16.019-48.195 11.728z" fill="#646464"/><path d="m608.19 940.52 4.9362 51.335 1.2654-19.726-4.0212-41.08z" fill="#0c0c0c"/><path d="m1289.9 876.91 72.033-18.255-7.9935-15.722-57.984 14.543z" fill="#5f5f5f"/><path d="m1000.4 846.79 15.24 46.072 3.3269-19.193-12.39-36.836z" fill="#282828"/><path d="m1014.7 893.1-15.214-46.084-6.1804-7.0169 12.123 36.974z" fill="#101010"/><path d="m682.25 974.86-6.7876-50.411-10.603-6.3524 5.2314 40.481z" fill="#272727"/><path d="m676.51 924.2 6.8152 50.396 1.6475-19.639-5.5498-40.32z" fill="#111"/><path d="m937.92 861.73 13.673 46.891 3.0148-19.278-11.121-37.496z" fill="#242424"/><path d="m517.69 1015.3 94.237-23.176-11.393-16.645-83.538 20.329zm560.95-137.95 60.895-14.976-8.242-16.055-49.029 11.932z" fill="#656565"/><path d="m950.6 908.86-13.652-46.904-7.0063-6.8959 10.847 37.636z" fill="#151515"/><path d="m751.21 957.9-8.5986-49.498-9.6602-6.4967 6.7133 39.743z" fill="#232323"/><path d="m743.64 908.16 8.6283 49.483 2.0042-19.548-7.0211-39.588z" fill="#161616"/><path d="m874.31 876.93 12.055 47.732 2.69-19.369-9.8045-38.174z" fill="#1f1f1f"/><path d="m885.35 924.91-12.032-47.742-7.8598-6.7685 9.5179 38.32z" fill="#1a1a1a"/><path d="m818.88 941.26-10.346-48.609-8.7409-6.6347 8.1421 39.021z" fill="#1e1e1e"/><path d="m809.54 892.41 10.374 48.596 2.3566-19.46-8.4394-38.87z" fill="#1b1b1b"/><path d="m1194.8 849.58 20.507 46.224 5.7451-19.548-16.696-36.944z" fill="#3b3b3b"/><path d="m1214.3 896.06-20.484-46.235-3.7685-7.0063 16.42 37.097z" fill="#030303"/><path d="m1015.7 892.86 62.008-15.248-8.7514-16.093-49.929 12.151zm-402.54 98.999 69.126-17-12.159-16.282-55.702 13.556z" fill="#666"/><path d="m1215.3 895.81 73.627-18.66-8.6071-15.756-59.275 14.868z" fill="#616161"/><path d="m517.73 1016.2 2.4649 55.796 0.28662-19.991-2.0021-44.687z" fill="#040404"/><path d="m951.6 908.62 63.09-15.516-9.2716-16.127-50.806 12.363zm-268.27 65.976 67.884-16.694-11.545-16.252-54.691 13.31zm203.04-49.934 64.233-15.796-9.8109-16.163-51.732 12.59zm-134.1 32.98 66.611-16.382-10.945-16.225-53.662 13.057zm67.647-16.639 65.439-16.093-10.374-16.191-52.708 12.826z" fill="#666"/><path d="m633.11 1043.4-5.6369-54.182-11.155-5.8407 4.2823 43.537z" fill="#2a2a2a"/><path d="m628.57 988.91 5.6687 54.167 1.4225-19.978-4.6199-43.367z" fill="#0e0e0e"/><path d="m705.05 1025.1-7.6114-53.163-10.599-5.9023 5.8874 42.717z" fill="#272727"/><path d="m698.51 971.7 7.6411 53.15 1.346-19.772-6.2101-42.551z" fill="#111"/><path d="m520.2 1072 112.92-28.618-12.512-16.486-100.12 25.11z" fill="#626262"/><path d="m813.67 997.6-10.516-51.647-8.6305-6.2611 8.2759 41.481z" fill="#1e1e1e"/><path d="m804.2 945.69 10.543 51.634 2.3503-19.741-8.5816-41.322z" fill="#1a1a1a"/><path d="m634.23 1043.1 70.819-17.949-12.323-16.348-57.074 14.316zm180.51-45.747 399.59-101.27-7.8321-16.144-389.42 97.674z" fill="#636363"/><path d="m706.15 1024.8 107.52-27.25-10.87-16.427-95.304 23.904z" fill="#646464"/><path d="m1740.8 539.84-36.69 8.0275 22.69 25.278 37.288-8.2929-23.29-25.012zm-46.708 10.216-37.22 8.1612 22.093 25.611 37.751-8.4266zm-176.68 4.2462-38.348 8.1612 12.473 17.119 38.811-8.3608zm129.38 6.104-37.819 8.295 21.365 26.008 38.348-8.5604zm-178.21 4.3142-38.878 8.2929 12.008 17.382 39.344-8.5562zm130.11 6.1698-38.348 8.4266 20.635 26.405 38.944-8.692zm173.3 0.0658-41.135 9.2228 55.931 62.301 42.528-10.019zm-352.9 4.3142-39.543 8.4288 11.543 17.647 39.942-8.6262zm303.87 7.1655-37.951 8.4925 23.089 26.872 38.547-8.8258zm-183.05 1.327-39.01 8.5604 19.705 26.936 39.677-8.8895-20.369-26.607zm-181.32 4.4458-40.208 8.5583 10.815 17.983 40.67-8.8258zm316.14 5.0424-38.482 8.6262 22.359 27.335 39.078-9.0232zm-184.45 1.3928-39.609 8.692 18.908 27.269 40.273-8.9574-19.575-27.004zm-182.85 4.4458-40.87 8.7578 10.35 18.246 41.267-8.9574zm318.33 5.1762-39.078 8.7578 21.63 27.732 39.675-9.1549zm-185.9 1.3928-40.208 8.8237 18.114 27.734 40.87-9.157zm-184.38 4.5774-41.466 8.8237 9.7535 18.514 41.864-9.0912-10.148-18.246zm497.67 6.0381-38.679 8.9574 24.216 28.131 39.212-9.2228zm-187.3 1.4586-39.808 8.9595 20.632 28.195 40.473-9.2886zm-188.96 1.7261-96.007 20.966 16.191 28.728 97.53-21.762zm-174.16 1.9894-42.063 9.0232 9.0891 18.777 42.596-9.2228zm501.25 6.1719-39.212 9.089 23.422 28.596 39.872-9.4224zm-188.76 1.4586-40.405 9.089 19.836 28.662 41.07-9.4203zm138.86 10.085-39.808 9.2228 22.624 29.059 40.473-9.554-23.288-28.726zm-534.49 0.0658-43.125 9.2228 8.1591 19.242 43.592-9.4224zm716.02 0-42.662 10.153 61.57 68.534 44.123-11.078zm-371.81 1.3949-41.07 9.2207 19.044 29.129 41.73-9.554-19.702-28.796zm-195.66 2.586-42.331 9.2886 15.261 29.193 43.059-9.6177zm-203.42 7.7642-43.789 9.3544 7.4989 19.505 44.32-9.554zm720.07 0.79616-39.411 9.4203 25.412 29.524 39.94-9.7515zm-570.46 3.2484-42.993 9.3566 14.331 29.724 43.723-9.8194-15.061-29.259zm184.78 0.99786-69.065 15.524 19.306 33.042 14.928-3.4501 20.7 34.898 56.462-13.335zm-390.12 6.8322-44.452 9.4903 6.8343 19.836 45.048-9.6878zm725.71 0.86411-40.008 9.4861 24.615 30.057 40.604-9.8873zm-575.03 3.2484-43.656 9.554 13.333 30.123 44.388-9.8852-14.066-29.789zm158.64 6.3694-42.861 9.622 16.522 30.454 43.588-10.019-17.248-30.055zm-365.84 1.5923-45.248 9.622 6.1698 20.235 45.781-9.951-6.7027-19.904zm731.35 0.86411-40.607 9.6878 23.753 30.52 41.333-10.085zm-579.68 3.3184-44.386 9.6856 12.34 30.654 45.182-10.085zm159.63 6.501-43.524 9.7536 15.592 30.917 44.254-10.148zm554.2 3.4501-40.142 9.8194 26.673 31.051 40.736-10.216zm-770.23 2.3885-45.116 9.8194 11.28 31.184 45.912-10.284zm-184.64 2.5222-46.311 9.951 5.0424 20.7 46.908-10.216zm345.27 4.1125-44.254 9.8852 14.596 31.45 45.05-10.35zm557.45 3.7154-91.16 22.359 25.01 32.046 92.623-23.22zm-196.98 1.3269-42.131 10.019 21.896 31.647 42.794-10.416zm-578.48 0.86199-45.779 10.021 10.216 31.645 46.643-10.416zm-186.17 2.5902-47.108 10.085 4.312 21.029 47.706-10.35zm554 0.99361-43.59 10.085 17.715 31.781 44.32-10.484zm-206.07 3.1189-44.984 10.151 13.535 31.913 45.846-10.55zm-220.01 6.036-46.577 10.153 9.0891 32.244 47.505-10.616zm-187.83 2.6539-47.834 10.219 3.5159 21.363 48.5-10.482zm558.51 0.99787-44.32 10.216 16.72 32.31 45.052-10.616zm-207.87 3.1847-45.713 10.282 12.473 32.443 46.575-10.681-13.333-32.046zm-222.06 6.1018-47.303 10.35 7.9617 32.709 48.233-10.747zm778.59 0.13375-42.265 10.416 23.951 32.709 42.993-10.815-24.681-32.31zm-202.69 1.9235-141.32 33.571 18.112 33.772 143.78-34.966zm-765.31 0.66242-48.634 10.35 2.6539 21.762 49.299-10.679zm563.02 0.99786-45.05 10.414 15.726 32.845 45.779-10.817zm-209.72 3.2484-46.443 10.418 11.346 33.04 47.371-10.881zm-224.05 6.2377-48.169 10.482 6.8343 33.307 49.031-10.947zm785.02 0.13164-42.993 10.552 23.021 33.237 43.723-10.947zm-408.5 3.5838-45.779 10.616 14.596 33.439 46.643-11.015zm-211.58 3.3163-47.239 10.616 10.284 33.573 48.101-11.081zm-226.18 6.3056-48.897 10.747 5.5052 33.836 49.961-11.146-6.5689-33.439zm791.59 0.19744-43.724 10.681 22.093 33.838 44.454-11.146-22.824-33.375zm-984.4 2.5838-50.29 10.747 0.99574 22.492 51.018-11.015zm572.31 1.0616-46.509 10.747 13.535 34.036 47.371-11.21zm-213.37 3.3821-48.035 10.749 9.0232 34.169 48.963-11.28zm376.59 5.0424-45.713 10.881 17.049 34.303 46.511-11.28zm-604.96 1.3949-49.759 10.881 4.312 34.367 50.755-11.278zm785.62 3.1847-54.606 13.401 20.7 34.634 55.6-13.934zm-403.06 0.66242-47.305 10.947 12.34 34.569 48.235-11.346zm-215.3 3.4501-48.9 10.947 7.83 34.766 49.893-11.478zm379.57 5.1082-46.507 11.083 15.923 34.963 47.371-11.546-16.785-34.501zm-610.13 1.3949-50.624 11.078 2.9851 35.031 51.619-11.543zm385.68 3.9808-48.167 11.146 11.21 35.163 49.099-11.611zm393.97 2.3885-55.8 13.666 19.441 35.431 56.793-14.265zm-611.26 1.0616-49.694 11.146 6.5689 35.363 50.689-11.611zm382.63 5.2398-47.307 11.214 14.796 35.628 48.167-11.743-15.658-35.099zm-615.37 1.3949-51.486 11.278 1.5923 35.628 52.547-11.741zm388.8 4.0466-48.963 11.346 9.951 35.76 49.961-11.741zm-219.28 3.5159-50.558 11.412 5.2398 35.893 51.619-11.809-6.3035-35.496zm603.69 2.0573-56.927 14 18.114 36.159 57.986-14.596zm-218.02 3.3163-48.101 11.412 13.601 36.161 49.031-11.877zm-228.7 5.5074-49.829 11.545 8.6942 36.424 50.821-12.008zm-221.27 3.5838-51.486 11.543 3.9171 36.624 52.547-12.074-4.9766-36.093zm595.74 5.3078-58.12 14.263 16.652 36.957 59.316-14.93zm-206.94 0.13163-48.963 11.611 12.408 36.823 49.893-12.142-13.335-36.293zm-230.89 5.639-50.687 11.677 7.3651 37.091 51.751-12.208zm-222.99 3.5838-90.035 20.17 1.6603 37.619 91.956-21.1zm391.58 5.5732-49.759 11.877 11.078 37.486 50.823-12.407zm196.79 2.7855-381.57 93.485 8.6262 41.333 389.39-97.663zm-429.87 2.9193-51.617 11.943 6.0381 37.753 52.681-12.407-7.0997-37.288zm169.79 9.3566-50.757 12.074 9.8194 38.15 51.751-12.607zm-235.4 5.8386-52.547 12.14 4.5774 38.416 53.674-12.673zm170.91 9.4861-51.685 12.276 8.4925 38.878 52.679-12.804zm-238.39 6.104-111.93 25.877 1.7898 39.743 114.45-27.004zm172.7 9.554-52.547 12.473 7.0339 39.543 53.672-13.004zm-66.878 15.86-53.475 12.739 5.5052 40.339 54.738-13.337-6.7685-39.743zm-68.071 16.187-54.473 12.938 3.9808 41.135 55.732-13.601zm-68.008 16.189-81.74 19.439 1.9257 42.131 83.53-20.369zm197.65 5.4415-93.217 22.823 6.2356 42.528 95.275-23.885zm-107.68 26.339-55.795 13.666 4.6432 43.392 57.059-14.331zm-70.526 17.25-97.797 24.017 1.9915 44.653 100.12-25.08z" fill="#ccc"/><path d="m1740.8 539.84-36.692 8.0275 22.692 25.278 37.286-8.2929z" fill="url(#b)"/><path d="m1694.1 550.06-37.222 8.1612 22.095 25.611 37.749-8.4288z" fill="url(#c)"/><path d="m1517.4 554.31-38.35 8.1612 12.473 17.119 38.815-8.3608z" fill="url(#d)"/><path d="m1646.8 560.41-37.817 8.2929 21.363 26.008 38.35-8.5562z" fill="url(#e)"/><path d="m1468.6 564.72-38.881 8.2929 12.01 17.382 39.341-8.5583-12.471-17.119z" fill="url(#f)"/><path d="m1598.7 570.89-38.35 8.4266 20.637 26.405 38.944-8.692z" fill="url(#g)"/><path d="m1772 570.96-41.135 9.2228 55.931 62.301 42.528-10.021z" fill="url(#h)"/><path d="m1419.1 575.27-39.543 8.4266 11.546 17.649 39.94-8.6262z" fill="url(#i)"/><path d="m1723 582.44-37.951 8.4924 23.089 26.87 38.549-8.8237z" fill="url(#j)"/><path d="m1539.9 583.76-39.012 8.5583 19.702 26.938 39.677-8.8916-20.367-26.603z" fill="url(#k)"/><path d="m1358.6 588.21-40.205 8.5583 10.815 17.981 40.67-8.8237z" fill="url(#l)"/><path d="m1674.7 593.25-38.481 8.6262 22.356 27.335 39.08-9.0232-22.957-26.938z" fill="url(#m)"/><path d="m1490.3 594.64-39.611 8.692 18.91 27.269 40.271-8.9574z" fill="url(#n)"/><path d="m1307.4 599.09-40.87 8.7578 10.35 18.246 41.267-8.9574-10.749-18.046z" fill="url(#o)"/><path d="m1625.8 604.27-39.078 8.7578 21.628 27.732 39.677-9.157-22.227-27.335z" fill="url(#p)"/><path d="m1439.9 605.66-40.208 8.8237 18.112 27.734 40.87-9.157z" fill="url(#q)"/><path d="m1255.5 610.24-41.466 8.8237 9.7514 18.511 41.866-9.089z" fill="url(#r)"/><path d="m1753.1 616.27-38.681 8.9574 24.218 28.131 39.21-9.2228z" fill="url(#s)"/><path d="m1565.8 617.73-39.808 8.9574 20.634 28.197 40.473-9.2886z" fill="url(#t)"/><path d="m1376.9 619.46-96.003 20.966 16.189 28.728 97.53-21.762z" fill="url(#u)"/><path d="m1202.7 621.45-42.065 9.0232 9.0912 18.777 42.594-9.2228z" fill="url(#v)"/><path d="m1704 627.62-39.212 9.0848 23.42 28.598 39.876-9.4224-24.085-28.265z" fill="url(#w)"/><path d="m1515.2 629.08-40.407 9.089 19.838 28.662 41.07-9.4203-20.503-28.331z" fill="url(#x)"/><path d="m1654.1 639.16-39.808 9.2228 22.624 29.059 40.473-9.554-23.291-28.728z" fill="url(#y)"/><path d="m1119.6 639.23-43.127 9.2228 8.1613 19.242 43.59-9.4224z" fill="url(#z)"/><path d="m1835.6 639.23-42.662 10.151 61.57 68.538 44.12-11.081z" fill="url(#A)"/><path d="m1463.8 640.62-41.07 9.2207 19.042 29.127 41.732-9.554-19.705-28.796z" fill="url(#B)"/><path d="m1268.2 643.21-42.331 9.2886 15.261 29.193 43.057-9.6198z" fill="url(#C)"/><path d="m1064.7 650.97-43.789 9.3544 7.4968 19.505 44.32-9.554-8.0275-19.308z" fill="url(#D)"/><path d="m1784.8 651.77-39.409 9.4203 25.409 29.524 39.942-9.7536-25.942-29.193z" fill="url(#E)"/><path d="m1214.3 655.02-42.993 9.3544 14.331 29.724 43.724-9.8194z" fill="url(#F)"/><path d="m1399.1 656.02-69.067 15.524 19.308 33.042 14.926-3.4501 20.7 34.898 56.464-13.335z" fill="url(#G)"/><path d="m1009 662.85-44.454 9.4882 6.8364 19.838 45.048-9.6878z" fill="url(#H)"/><path d="m1734.7 663.71-40.008 9.4861 24.613 30.055 40.604-9.8852-25.212-29.658z" fill="url(#I)"/><path d="m1159.7 666.96-43.658 9.554 13.335 30.121 44.388-9.8852z" fill="url(#J)"/><path d="m1318.3 673.33-42.862 9.6198 16.52 30.454 43.59-10.019-17.25-30.055z" fill="url(#K)"/><path d="m952.47 674.93-45.25 9.6198 6.1719 20.235 45.779-9.951z" fill="url(#L)"/><path d="m1683.8 675.79-40.605 9.6878 23.751 30.52 41.335-10.085z" fill="url(#M)"/><path d="m1104.1 679.11-44.388 9.6856 12.342 30.654 45.182-10.085-13.138-30.254z" fill="url(#N)"/><path d="m1263.8 685.61-43.524 9.7536 15.592 30.917 44.254-10.151z" fill="url(#O)"/><path d="m1818 689.06-40.14 9.8194 26.673 31.051 40.736-10.219z" fill="url(#P)"/><path d="m1047.7 691.45-45.116 9.8194 11.28 31.184 45.912-10.284z" fill="url(#Q)"/><path d="m863.1 693.97-46.309 9.951 5.0424 20.7 46.908-10.219-5.6411-20.435z" fill="url(#R)"/><path d="m1208.4 698.08-44.254 9.8852 14.596 31.45 45.052-10.35-15.393-30.985z" fill="url(#S)"/><path d="m1765.8 701.8-91.162 22.359 25.014 32.046 92.621-23.223-26.475-31.182z" fill="url(#T)"/><path d="m1568.8 703.12-42.131 10.019 21.894 31.647 42.796-10.416z" fill="url(#U)"/><path d="m990.35 703.98-45.781 10.019 10.219 31.647 46.643-10.416-11.083-31.25z" fill="url(#V)"/><path d="m804.18 706.57-47.106 10.085 4.312 21.032 47.704-10.35z" fill="url(#W)"/><path d="m1358.2 707.57-43.59 10.085 17.713 31.781 44.32-10.484z" fill="url(#X)"/><path d="m1152.1 710.69-44.982 10.148 13.535 31.915 45.846-10.55-14.399-31.516z" fill="url(#Y)"/><path d="m932.1 716.72-46.575 10.151 9.089 32.246 47.505-10.616z" fill="url(#Z)"/><path d="m744.27 719.38-47.838 10.219 3.5159 21.363 48.5-10.482-4.1804-21.1z" fill="url(#aa)"/><path d="m1302.8 720.37-44.32 10.219 16.72 32.31 45.05-10.616z" fill="url(#ab)"/><path d="m1094.9 723.56-45.713 10.284 12.473 32.443 46.575-10.681z" fill="url(#ac)"/><path d="m872.85 729.66-47.305 10.35 7.9617 32.709 48.235-10.747z" fill="url(#ad)"/><path d="m1651.4 729.8-42.265 10.416 23.953 32.709 42.993-10.815-24.681-32.312z" fill="url(#ae)"/><path d="m1448.7 731.72-141.32 33.571 18.114 33.77 143.78-34.963z" fill="url(#af)"/><path d="m683.43 732.38-48.632 10.35 2.6539 21.762 49.297-10.681z" fill="url(#ag)"/><path d="m1246.5 733.38-45.05 10.416 15.724 32.842 45.781-10.815z" fill="url(#ah)"/><path d="m1036.7 736.63-46.443 10.416 11.344 33.042 47.373-10.881z" fill="url(#ai)"/><path d="m812.68 742.87-48.167 10.482 6.8343 33.307 49.029-10.947-7.6963-32.845z" fill="url(#aj)"/><path d="m1597.7 743-42.993 10.55 23.023 33.239 43.723-10.947z" fill="url(#ak)"/><path d="m1189.2 746.58-45.781 10.616 14.596 33.439 46.645-11.015-15.46-33.038z" fill="url(#al)"/><path d="m977.62 749.9-47.239 10.616 10.284 33.573 48.101-11.081z" fill="url(#am)"/><path d="m751.44 756.2-48.9 10.749 5.5074 33.836 49.959-11.146-6.5689-33.439z" fill="url(#an)"/><path d="m1543 756.4-43.721 10.681 22.093 33.838 44.452-11.146-22.824-33.375z" fill="url(#ao)"/><path d="m558.63 758.99-50.292 10.747 0.99787 22.492 51.018-11.015-1.724-22.227z" fill="url(#ap)"/><path d="m1130.9 760.05-46.511 10.747 13.535 34.036 47.373-11.212-14.397-33.573z" fill="url(#aq)"/><path d="m917.57 763.43-48.035 10.749 9.0232 34.169 48.963-11.28-9.9532-33.639z" fill="url(#ar)"/><path d="m1294.2 768.47-45.715 10.881 17.051 34.301 46.511-11.278z" fill="url(#as)"/><path d="m689.2 769.87-49.762 10.881 4.3142 34.367 50.755-11.28-5.3078-33.97z" fill="url(#at)"/><path d="m1474.8 773.05-54.602 13.401 20.7 34.634 55.598-13.934-21.696-34.104z" fill="url(#au)"/><path d="m1071.8 773.72-47.307 10.947 12.342 34.566 48.235-11.344z" fill="url(#av)"/><path d="m856.46 777.17-48.897 10.947 7.83 34.766 49.893-11.478z" fill="url(#aw)"/><path d="m1236 782.27-46.511 11.081 15.923 34.966 47.373-11.546z" fill="url(#ax)"/><path d="m625.91 783.67-50.624 11.078 2.9851 35.031 51.619-11.543z" fill="url(#ay)"/><path d="m1011.6 787.65-48.169 11.146 11.212 35.163 49.097-11.611-12.14-34.7z" fill="url(#az)"/><path d="m1405.6 790.04-55.798 13.666 19.439 35.431 56.793-14.267-20.435-34.832z" fill="url(#aA)"/><path d="m794.3 791.1-49.694 11.146 6.5689 35.363 50.689-11.611-7.5647-34.9z" fill="url(#aB)"/><path d="m1176.9 796.34-47.305 11.212 14.794 35.63 48.169-11.743z" fill="url(#aC)"/><path d="m561.55 797.74-51.486 11.278 1.5923 35.628 52.547-11.743-2.6539-35.165z" fill="url(#aD)"/><path d="m950.35 801.78-48.965 11.346 9.9532 35.76 49.959-11.743z" fill="url(#aE)"/><path d="m731.07 805.3-50.558 11.412 5.242 35.893 51.619-11.809-6.3056-35.496z" fill="url(#aF)"/><path d="m1334.8 807.35-56.927 14 18.112 36.157 57.989-14.594z" fill="url(#aG)"/><path d="m1116.7 810.67-48.101 11.412 13.601 36.159 49.031-11.875z" fill="url(#aH)"/><path d="m888.05 816.18-49.827 11.545 8.692 36.424 50.823-12.008z" fill="url(#aI)"/><path d="m666.78 819.76-51.486 11.543 3.9129 36.624 52.547-12.076-4.9766-36.093z" fill="url(#aJ)"/><path d="m1262.5 825.07-58.12 14.263 16.654 36.955 59.316-14.926z" fill="url(#aK)"/><path d="m1055.6 825.2-48.965 11.611 12.408 36.823 49.893-12.144z" fill="url(#aL)"/><path d="m824.69 830.84-50.689 11.677 7.363 37.089 51.751-12.208-8.4266-36.558z" fill="url(#aM)"/><path d="m601.69 834.42-90.033 20.17 1.6582 37.619 91.958-21.1z" fill="url(#aN)"/><path d="m993.27 840-49.762 11.877 11.081 37.486 50.823-12.407-12.144-36.955z" fill="url(#aO)"/><path d="m1190.1 842.78-381.56 93.483 8.6262 41.337 389.39-97.663-16.454-37.154z" fill="url(#aP)"/><path d="m760.2 845.7-51.619 11.943 6.0381 37.751 52.679-12.405-7.0997-37.288z" fill="url(#aQ)"/><path d="m929.98 855.06-50.755 12.074 9.8194 38.15 51.751-12.609-10.815-37.619z" fill="url(#aR)"/><path d="m694.58 860.9-52.547 12.14 4.5774 38.416 53.677-12.673-5.7069-37.885z" fill="url(#aS)"/><path d="m865.49 870.38-51.685 12.274 8.4925 38.881 52.681-12.804z" fill="url(#aT)"/><path d="m627.1 876.49-111.93 25.877 1.7919 39.743 114.45-27.006z" fill="url(#aU)"/><path d="m799.8 886.04-52.547 12.473 7.0318 39.543 53.674-13.004z" fill="url(#aV)"/><path d="m732.93 901.9-53.477 12.739 5.5074 40.339 54.736-13.335z" fill="url(#aW)"/><path d="m664.85 918.09-54.471 12.938 3.9808 41.135 55.732-13.601z" fill="url(#aX)"/><path d="m596.85 934.28-81.74 19.439 1.9235 42.131 83.532-20.369z" fill="url(#aY)"/><path d="m794.5 939.72-93.217 22.823 6.2356 42.526 95.275-23.883-8.2929-41.464z" fill="url(#aZ)"/><path d="m686.81 966.06-55.798 13.666 4.6432 43.392 57.059-14.331z" fill="url(#ba)"/><path d="m616.29 983.31-97.795 24.017 1.9894 44.651 100.12-25.078-4.3099-43.59z" fill="url(#bb)"/></g></svg>
