<svg version="1.1" viewBox="0 0 190.29 219.48" xmlns="http://www.w3.org/2000/svg" xmlns:xlink="http://www.w3.org/1999/xlink"><defs><filter id="k" x="-.014424" y="-.010278" width="1.0288" height="1.0206"><feGaussianBlur stdDeviation=".78"/></filter><radialGradient id="e" cx="-43.022" cy="294.08" r="80.5" gradientTransform="matrix(-1.659 -.85821 .28863 -.55795 102.34 -127.69)" gradientUnits="userSpaceOnUse" spreadMethod="reflect"><stop stop-color="#fff" offset="0"/><stop stop-color="#fff" offset=".192"/><stop stop-color="#999" offset=".515"/><stop stop-color="#1f1f1f" offset="1"/></radialGradient><radialGradient id="h" cx="49.241" cy="150.48" r="80.5" gradientTransform="matrix(1.948 1.1247 -.31673 .5486 75.085 -397.55)" gradientUnits="userSpaceOnUse" spreadMethod="reflect"><stop stop-color="#fff" offset="0"/><stop stop-color="#fff" offset=".098"/><stop stop-color="#505050" offset="1"/></radialGradient><filter id="l" x="-.033128" y="-.021731" width="1.0693" height="1.0445"><feGaussianBlur stdDeviation="1.32"/></filter><radialGradient id="j" cx="-362.18" cy="401.76" r="50" gradientTransform="matrix(-.9335 -2.9378 4.0686 -1.2928 -1673.7 -678.42)" gradientUnits="userSpaceOnUse" spreadMethod="reflect"><stop stop-color="#fff" offset="0"/><stop stop-color="#999" offset=".563"/><stop stop-color="#fff" offset="1"/></radialGradient><filter id="g" x="-.016092" y="-.0098433" width="1.0322" height="1.0197"><feGaussianBlur stdDeviation=".655"/></filter><radialGradient id="f" cx="138.75" cy="-193.57" r="50.418" gradientTransform="matrix(.91046 .4136 -1.6129 3.5504 -293.93 465.76)" gradientUnits="userSpaceOnUse"><stop stop-color="#fff" offset="0"/><stop stop-color="#fff" offset=".098"/><stop stop-color="#444" offset="1"/></radialGradient><filter id="i" x="-.0038739" y="-.0033633" width="1.0077" height="1.0067"><feGaussianBlur stdDeviation=".296"/></filter></defs><g><path transform="translate(-81.3 371.72)" d="M234.678-334.103c-7.539.142-15.896 3-24.438 8.125.681 20.07-5.977 45.828-19.75 71.156-13.78 25.34-31.777 44.917-49 55.25.553 16.185 5.877 28.695 16.094 34.25 3.934 2.14 8.342 3.119 13.062 3.032 22.741-.42 52.856-25.469 73.469-63.375 24.891-45.775 26.512-92.992 3.625-105.438-3.934-2.139-8.344-3.089-13.062-3z" fill="url(#e)" overflow="visible"/><path transform="translate(-81.3 371.72)" d="M206.39-347.193c7.523 22.103 3.527 55.457-15.723 90.86-21.46 39.464-52.597 65.746-76.531 67.093 2.046.865 4.193 1.436 6.437 1.75.363-.045.728-.101 1.094-.156-1.921-.332-3.76-.845-5.531-1.594 23.934-1.347 55.07-27.63 76.53-67.094 17.949-33.006 22.362-63.883 17.067-86.203a29.605 29.605 0 0 0-3.344-4.656z" fill="url(#f)" filter="url(#g)" overflow="visible"/><path transform="translate(-81.3 371.72)" d="M183.204-368.397c-24.124.279-56.143 26.847-78.063 67.157-24.209 44.52-27.65 90.282-9.312 107.718 7.754 9.83 17.47 18.214 29.031 24.5 11.574 6.294 23.957 9.902 36.438 11.063.01.003.02.028.03.031 2.307.546 4.724.78 7.22.75 24.122-.296 56.12-26.862 78.03-67.156 24.16-44.427 27.648-90.107 9.438-107.625a94.356 94.356 0 0 0-29.156-24.625c-11.554-6.283-23.855-9.864-31.3-10.737-7.444-.874-9.86-1.104-12.356-1.076zm51.469 34.282c4.718-.09 9.128.86 13.062 3 22.887 12.445 21.266 59.663-3.625 105.437-20.613 37.907-50.728 62.956-73.469 63.375-4.72.087-9.128-.892-13.062-3.031-22.887-12.446-21.235-59.632 3.656-105.406 20.613-37.907 50.702-62.948 73.438-63.375z" fill="url(#h)" filter="url(#i)" overflow="visible"/><path d="M155.185 32.638c-24.098.447-55.995 26.977-77.843 67.157-26.384 48.519-28.104 98.558-3.844 111.75 4.17 2.267 8.81 3.31 13.812 3.218 24.101-.446 56.026-27.007 77.875-67.187 26.384-48.52 28.104-98.558 3.844-111.75-4.17-2.268-8.842-3.28-13.844-3.188zm-2.031 5.469c4.702-.087 9.08.869 13 3 22.804 12.4 21.176 59.423-3.625 105.031-20.538 37.77-50.532 62.737-73.187 63.157-4.702.087-9.081-.9-13-3.032-22.804-12.4-21.176-59.423 3.625-105.031 20.537-37.769 50.534-62.706 73.187-63.125z" fill="#fff" overflow="visible"/><path transform="translate(-81.3 371.72)" d="M235.07-340.145c-24.098.44-55.994 26.977-77.843 67.156-26.383 48.52-28.103 98.559-3.844 111.75 4.17 2.268 8.842 3.312 13.844 3.22 24.101-.447 55.995-27.009 77.844-67.188 26.383-48.52 28.103-98.527 3.844-111.72-4.17-2.266-8.843-3.31-13.844-3.218zm-2.03 5.438c4.703-.087 9.111.9 13.03 3.03 22.805 12.401 21.176 59.424-3.624 105.032-20.538 37.77-50.533 62.737-73.188 63.156-4.702.087-9.08-.9-13-3.03-22.804-12.401-21.206-59.424 3.594-105.032 20.538-37.77 50.527-62.737 73.188-63.156z" fill="url(#j)" filter="url(#k)" overflow="visible"/><path transform="rotate(180 159.14 -65.14)" d="M256.161-322.267c7.524 22.102 1.407 58.286-17.844 93.687-21.46 39.465-52.596 65.747-76.53 67.094 2.046.865 8.693-1.064 10.937-.75 23.582-2.9 48.85-26.197 69.593-64.344 16.9-31.079 23.688-62.772 20-85-1.513-4.16-3.574-7.762-6.156-10.687z" fill="#fff" filter="url(#l)" overflow="visible" stroke="#fff"/><path d="M121.924 29.463c-.277.057-.607 12.013-.797 12.187-.19.174-22.544-5.482-22.594-5.237-.05.244 20.363 6.108 20.464 6.356.101.248-18.692 18.57-18.467 18.756.226.185 20.414-17.922 20.704-17.85.29.073-.484 5.026-.207 4.967.277-.059 1.79-5.084 1.978-5.26.188-.174 7.462.9 7.513.655.05-.244-6.37-1.947-6.468-2.195-.1-.25 16.945-7.228 16.718-7.413-.227-.185-17.567 7.445-17.15 5.957-.29-.074-1.418-10.98-1.694-10.923z" fill="#fff" overflow="visible"/></g></svg>
