<svg version="1.1" viewBox="0 0 1024 1024" xmlns="http://www.w3.org/2000/svg" xmlns:xlink="http://www.w3.org/1999/xlink"><defs><linearGradient id="b"><stop stop-color="#fff" offset="0"/><stop offset="1"/></linearGradient><linearGradient id="y" x1="407.6" x2="538.9" y1="543.8" y2="362.2" gradientTransform="matrix(1.821 0 0 1.821 -309.3 -160.8)" gradientUnits="userSpaceOnUse" xlink:href="#b"/><linearGradient id="w" x1="434.6" x2="527.6" y1="370.1" y2="399.5" gradientTransform="matrix(1.821 0 0 1.821 -309.3 -160.8)" gradientUnits="userSpaceOnUse" xlink:href="#b"/><linearGradient id="v" x1="383.3" x2="413.4" y1="462.2" y2="465.6" gradientTransform="matrix(1.821 0 0 1.821 -317.3 -139.1)" gradientUnits="userSpaceOnUse" xlink:href="#b"/><linearGradient id="u" x1="416.9" x2="507.6" y1="313.6" y2="590.6" gradientTransform="matrix(1.821 0 0 1.821 -309.3 -160.8)" gradientUnits="userSpaceOnUse" spreadMethod="reflect" xlink:href="#b"/><linearGradient id="t" x1="402.2" x2="406.4" y1="365.8" y2="390.9" gradientTransform="matrix(1.821 0 0 1.821 -309.3 -160.8)" gradientUnits="userSpaceOnUse" xlink:href="#b"/><linearGradient id="s" x1="315.9" x2="291.7" y1="346.7" y2="377.3" gradientTransform="matrix(1.821 0 0 1.821 -309.3 -160.8)" gradientUnits="userSpaceOnUse" xlink:href="#b"/><linearGradient id="r" x1="307.4" x2="326.7" y1="349" y2="372.8" gradientTransform="matrix(1.821 0 0 1.821 -309.3 -160.8)" gradientUnits="userSpaceOnUse" xlink:href="#b"/><linearGradient id="q" x1="405.7" x2="378.2" y1="368" y2="395.7" gradientTransform="matrix(1.821 0 0 1.821 -309.3 -160.8)" gradientUnits="userSpaceOnUse" xlink:href="#b"/><linearGradient id="p" x1="351.5" x2="329.1" y1="384.2" y2="500.1" gradientTransform="matrix(1.821 0 0 1.821 -317.3 -139.1)" gradientUnits="userSpaceOnUse" xlink:href="#b"/><linearGradient id="o" x1="402.1" x2="364" y1="333.8" y2="507.7" gradientTransform="matrix(1.821 0 0 1.821 -309.3 -160.8)" gradientUnits="userSpaceOnUse" xlink:href="#b"/><linearGradient id="n" x1="246.6" x2="291.9" y1="539.6" y2="427.5" gradientTransform="matrix(1.821 0 0 1.821 -309.3 -160.8)" gradientUnits="userSpaceOnUse" xlink:href="#b"/><linearGradient id="m" x1="207.4" x2="243.9" y1="597.2" y2="367.2" gradientTransform="matrix(1.821 0 0 1.821 -309.3 -160.8)" gradientUnits="userSpaceOnUse" xlink:href="#b"/><linearGradient id="x" x1="287.7" x2="449.9" y1="396.3" y2="287.7" gradientTransform="matrix(1.821 0 0 1.821 -309.3 -160.8)" gradientUnits="userSpaceOnUse" spreadMethod="reflect" xlink:href="#b"/></defs><path d="m0 0h1024v1024h-1024z" fill="#fff" fill-opacity=".34" stop-color="#000000" style="paint-order:markers fill stroke"/><path d="m962 262.9-287.9 212.1-6.983 150.4 284.4-270.2z" fill="#575757" stroke-width="1.821"/><path d="m292.4 410.3 359.3 216.9 15.47-1.839 284.4-270.2 6.931-93.87-253.3-22.44" fill="#4d4d4d" stop-color="#000000" style="-inkscape-stroke:none;paint-order:markers fill stroke"/><path d="m298.5 404.1 409.7-166.1-6.049 1.753-411.7 166.5z" fill="var(--color4)" stroke-width="1.821"/><path d="m663 468.8 292.1-209-246.9-21.7-409.7 166.1z" fill="#c5c5c5" stroke-width="1.821"/><g stroke-width=".8867"><path d="m955.1 259.8-292.1 209 11 6.103 287.9-212.1z" fill="#939393"/><g fill="#4d4d4d"><path d="m298.9 542.8-6.496-132.5-1.844-4.079 6.495 131.4z"/><path d="m290.5 406.2 1.844 4.08 6.207-6.196z"/><path d="m658.1 476.5-365.8-66.09 6.497 132.5 352.9 84.3z"/></g><path d="m663 468.8-364.5-64.69-6.209 6.196 365.8 66.09z" fill="#b3b3b3"/><path d="m658.1 476.5-6.393 150.7 15.43-1.839 6.982-150.4z" fill="#4d4d4d"/><path d="m674.1 474.9-11-6.103-5.018 7.593z" fill="#b3b3b3"/></g><g stroke-width="1.821"><path d="m318.2 436.4-2.098-0.0455 307 58.39 1.602-0.0965z" fill="#161616"/><path d="m316 436.4-2.673 0.4552-251.3 111.3 0.5098 8.306 10.87 98.83 1.763 6.145 339 109.7 4.212-0.5135 4.039 0.1147 200.5-171.6 3.527-102.6-1.934-1.875-306.4-58.27-2.107-0.0583z" fill="url(#m)"/><path d="m192.6 555.3-117.7 59.21 4.018 40.97 344.5 109.5-0.9596-42.17 99.78-78.35z"/><path d="m79.21 616.9 329.6 99.23 94.61-74.32-312.6-81.06z" fill="url(#n)"/><path d="m409.6 756.2-0.8703-40-329.6-99.23 3.804 35.4z" fill="url(#o)"/><path d="m132.5 613 22.18 6.464 135.5-72.78-20.94-5.058z" fill="#decd87"/><path d="m290.5 552.1-0.2731-5.34-135.5 72.78 0.5189 5.91z" fill="#9c8664"/><path d="m222.9 620.2 23.42 6.619 109-64.15-22.16-5.353z" fill="#decd87"/><path d="m355.5 568.1-0.1894-5.471-109 64.15 0.3824 5.972z" fill="#907a57"/><path d="m155.2 625.4-0.5189-5.91-22.18-6.464 0.5462 5.857z" fill="#d38d5f"/><path d="m294.7 640.4 24.98 7.065 104.8-68.19-23.51-5.679z" fill="#decd87"/><path d="m424.7 584.8-0.0947-5.612-104.8 68.19 0.2749 6.138z" fill="#856e4b"/><path d="m246.8 632.7-0.3824-5.972-23.42-6.619 0.4151 5.918z" fill="#d38d5f"/><path d="m350.6 676.6 27.06 7.891 120.3-87.56-24.96-6.03z" fill="#decd87"/><path d="m497.9 602.7 0.0128-5.759-120.3 87.56 0.193 6.422z" fill="#7a6340"/><path d="m320 653.5-0.275-6.136-24.98-7.065 0.3132 6.081zm57.77 37.4-0.193-6.422-27.06-7.891 0.2367 6.362z" fill="#d38d5f"/><path d="m62 548 2.921-0.3387 251.1-111.4-2.713 0.4334z" fill="#808080"/><path d="m64.9 547.7-1.877 2.902-0.5116 5.746 1.366 1.708 2.786-2.846 340.7 92.81 4.383-3.074 4.266-2.846-351-94.39z" fill="url(#p)"/><path d="m414.1 763.1-4.197 2.618-331.9-106.8-3.54-4.541-10.56-96.23-1.333-1.69 10.88 98.85 1.773 6.131 339 109.7 1.42-6.034-2.276-112.7-1.748-7.402-4.346 3.07 4.499 5.45z" fill="#333"/><path d="m413.4 652.4 6.792-7.777-4.237-2.464-4.301 2.837z" fill="#666"/><path d="m258.3 487.4 0.2494 4.252 5.39-0.4789-0.244-4.248z" fill="#333"/><path d="m263.7 486.9 60.23 13.1 5.433-1.575-66.31-14.35z" fill="#898989"/><path d="m263.7 486.9 0.244 4.246 60.16 13.2-0.1821-4.35z" fill="#333"/><path d="m324.9 506.4-0.1821-4.363-0.8285-1.879 0.1821 4.35z" fill="#202020"/><path d="m324.8 501.9 3.128-0.3896 1.478-3.064-5.433 1.575z" fill="#525252"/><path d="m324.7 502-33.36 17.06 0.6792 0.9068 35.8-18.35z" fill="#2d2d2d"/><path d="m292.1 519.8-0.6773-0.9068-5.776-0.5754z" fill="#242424"/><path d="m391 541.9 0.1183 4.656 31.46-18.68-0.0783-4.525z" fill="#333"/><path d="m419 521.5-33.96 19.85 5.907 0.5717 31.5-18.55z" fill="url(#q)"/><path d="m392.3 542.9-1.134-1.041-5.907-0.5717z" fill="#262626"/><path d="m263.1 484.2-7.793 1.591 3.044 1.702 5.395-0.477z" fill="url(#r)"/><path d="m223.9 503.4 0.295 4.368 34.41-16.21-0.2513-4.252z" fill="#333"/><path d="m255.3 485.8-37.09 17.22 5.681 0.5754 34.45-16.09z" fill="url(#s)"/><path d="m224.3 504.3-0.3896-0.8157-5.681-0.5772z" fill="#222"/><path d="m64.92 547.7-2.921 0.3387 0.5244 8.326 0.4953-5.772z" fill="#666"/><path d="m624.4 494.7-1.602 0.0965 3.521 1.752z" fill="#313131"/><path d="m515.5 571.2-99.62 70.94 4.235 2.464 206.3-148.1-3.523-1.752-107.3 76.44z" fill="#808080"/><path d="m422.5 523.3 5.641-0.5444-1.275-3.152-7.826 1.828z" fill="url(#t)"/><path d="m422.5 523.3 0.0764 4.525 5.635-0.5462-0.071-4.523z" fill="#333"/><path d="m428.1 522.7 69.63 15.15 5.734-1.721-76.62-16.58z" fill="#949494"/><path d="m428.1 522.7 0.0711 4.521 69.54 15.26 9e-3 -4.636z" fill="#333"/><path d="m499.3 544.8 0.011-4.652-1.579-2.172-9e-3 4.636z" fill="#3f3f3f"/><path d="m499.4 540 3.68-0.3496 0.4734-3.543-5.732 1.721z" fill="#616161"/><path d="m499.3 540-29.84 19.76 1.52 1.16 32.01-21.27z" fill="#3d3d3d"/><path d="m471.1 561-1.52-1.156-6.001-0.5681z" fill="#272727"/><path d="m622.8 599.2 3.551-102.6-206.3 148.1 2.318 126z" fill="url(#u)"/><path d="m418.5 770.5 4.049 0.0727-6.832-5.617-1.42 6.034z" fill="#1a1a1a"/><path d="m413.4 652.4 2.276 112.7 6.832 5.617-2.318-126z" fill="url(#v)"/><path d="m626.4 496.5-37.67 27.02 0.9668 83.59c1.905 4.953 6.475 7.755 16.22 6.487l16.96-14.51 3.527-102.6z" fill="url(#w)"/><path d="m316 436.4-132.3 58.72-119.5 53.42 351 94.39 100.4-71.68 107.3-76.42zm-52.91 47.8 66.35 14.4-1.478 3.015-35.85 18.39-73.91-16.96 37.11-17.24zm163.9 35.51 76.64 16.56-0.5135 3.527-31.97 21.29-85.92-19.74 33.98-19.81z" fill="url(#x)"/><path d="m316 436.4-32.26 13.56 306.1 68.41 33.07-23.54z" fill="url(#y)"/></g><g stroke-width="1.773"><path d="m143.6 765.5v-149.2" stop-color="#000000" stroke="#000" style="-inkscape-stroke:none;paint-order:markers fill stroke"/><path d="m364.2 680.5v83.94" fill="#aa3939" stop-color="#000000" stroke="#f00" style="-inkscape-stroke:none;paint-order:markers fill stroke"/><path d="m307.2 643.9v120.9" stop-color="#000000" stroke="#999" style="-inkscape-stroke:none;paint-order:markers fill stroke"/><path d="m234.6 623.5v141.7" fill="#2d882d" stop-color="#000000" stroke="#2d882d" style="-inkscape-stroke:none;paint-order:markers fill stroke"/></g><g stroke-width="7.477"><g fill="#aa3939" stop-color="#000000" style="paint-order:markers fill stroke" aria-label="+5V"><path d="m355.5 779h-5.024v-5.024h-1.699v5.024h-5.024v1.699h5.024v5.024h1.699v-5.024h5.024z"/><path d="m368.3 768.2h-8.883l-1.286 9.369h1.966c0.9951-1.189 1.82-1.602 3.18-1.602 2.306 0 3.738 1.578 3.738 4.126 0 2.476-1.432 3.98-3.762 3.98-1.869 0-3.01-0.9466-3.519-2.888h-2.136c0.2912 1.408 0.534 2.087 1.044 2.718 0.9708 1.311 2.718 2.063 4.66 2.063 3.471 0 5.898-2.524 5.898-6.165 0-3.398-2.257-5.728-5.558-5.728-1.214 0-2.184 0.3155-3.18 1.044l0.6796-4.806h7.16z"/><path d="m379.8 785.4 6.141-17.69h-2.403l-4.903 14.98-5.194-14.98h-2.427l6.359 17.69z"/></g><g stop-color="#000000" style="paint-order:markers fill stroke" aria-label="-5V"><path d="m133.1 777.9h-5.777v1.748h5.777z"/><path d="m145.8 768.2h-8.883l-1.286 9.369h1.966c0.9951-1.189 1.82-1.602 3.18-1.602 2.306 0 3.738 1.578 3.738 4.126 0 2.476-1.432 3.98-3.762 3.98-1.869 0-3.01-0.9466-3.519-2.888h-2.136c0.2912 1.408 0.534 2.087 1.044 2.718 0.9708 1.311 2.718 2.063 4.66 2.063 3.471 0 5.898-2.524 5.898-6.165 0-3.398-2.257-5.728-5.558-5.728-1.214 0-2.184 0.3155-3.18 1.044l0.6796-4.806h7.16z"/><path d="m157.3 785.4 6.141-17.69h-2.403l-4.903 14.98-5.194-14.98h-2.427l6.359 17.69z"/></g><g fill="#999" stop-color="#000000" style="paint-order:markers fill stroke" aria-label="-DATA"><path d="m269.5 778.1h-5.777v1.748h5.777z"/><path d="m272.9 785.7h6.82c4.466 0 7.209-3.349 7.209-8.859 0-5.485-2.718-8.835-7.209-8.835h-6.82zm2.257-1.99v-13.71h4.175c3.495 0 5.34 2.354 5.34 6.869 0 4.49-1.845 6.844-5.34 6.844z"/><path d="m298.8 780.4 1.82 5.315h2.524l-6.213-17.69h-2.913l-6.311 17.69h2.403l1.869-5.315zm-0.631-1.893h-5.631l2.913-8.058z"/><path d="m309.8 770h5.801v-1.99h-13.88v1.99h5.825v15.7h2.257z"/><path d="m325.2 780.4 1.82 5.315h2.524l-6.213-17.69h-2.913l-6.311 17.69h2.403l1.869-5.315zm-0.631-1.893h-5.631l2.913-8.058z"/></g><g fill="#2d882d" stop-color="#000000" style="paint-order:markers fill stroke" aria-label="+DATA"><path d="m189.4 779.1h-5.024v-5.024h-1.699v5.024h-5.024v1.699h5.024v5.024h1.699v-5.024h5.024z"/><path d="m192.8 785.6h6.82c4.466 0 7.209-3.349 7.209-8.859 0-5.485-2.718-8.835-7.209-8.835h-6.82zm2.257-1.99v-13.71h4.175c3.495 0 5.34 2.354 5.34 6.869 0 4.49-1.845 6.844-5.34 6.844z"/><path d="m218.7 780.3 1.82 5.315h2.524l-6.213-17.69h-2.913l-6.311 17.69h2.403l1.869-5.315zm-0.631-1.893h-5.631l2.913-8.058z"/><path d="m229.7 769.9h5.801v-1.99h-13.88v1.99h5.825v15.7h2.257z"/><path d="m245.1 780.3 1.82 5.315h2.524l-6.213-17.69h-2.913l-6.311 17.69h2.403l1.869-5.315zm-0.6311-1.893h-5.631l2.913-8.058z"/></g></g></svg>
