<svg version="1.1" viewBox="0 0 512 320" xmlns="http://www.w3.org/2000/svg" xmlns:xlink="http://www.w3.org/1999/xlink"><defs><linearGradient id="b"><stop stop-color="#fff" offset="0"/><stop offset="1"/></linearGradient><linearGradient id="y" x1="407.6" x2="538.9" y1="543.8" y2="362.2" gradientTransform="translate(-276.8 247.6)" gradientUnits="userSpaceOnUse" xlink:href="#b"/><linearGradient id="w" x1="434.6" x2="527.6" y1="370.1" y2="399.5" gradientTransform="translate(-276.8 247.6)" gradientUnits="userSpaceOnUse" xlink:href="#b"/><linearGradient id="v" x1="383.3" x2="413.4" y1="462.2" y2="465.6" gradientTransform="translate(-281.2 259.5)" gradientUnits="userSpaceOnUse" xlink:href="#b"/><linearGradient id="u" x1="416.9" x2="507.6" y1="313.6" y2="590.6" gradientTransform="translate(-276.8 247.6)" gradientUnits="userSpaceOnUse" spreadMethod="reflect" xlink:href="#b"/><linearGradient id="t" x1="402.2" x2="406.4" y1="365.8" y2="390.9" gradientTransform="translate(-276.8 247.6)" gradientUnits="userSpaceOnUse" xlink:href="#b"/><linearGradient id="s" x1="315.9" x2="291.7" y1="346.7" y2="377.3" gradientTransform="translate(-276.8 247.6)" gradientUnits="userSpaceOnUse" xlink:href="#b"/><linearGradient id="r" x1="307.4" x2="326.7" y1="349" y2="372.8" gradientTransform="translate(-276.8 247.6)" gradientUnits="userSpaceOnUse" xlink:href="#b"/><linearGradient id="q" x1="405.7" x2="378.2" y1="368" y2="395.7" gradientTransform="translate(-276.8 247.6)" gradientUnits="userSpaceOnUse" xlink:href="#b"/><linearGradient id="p" x1="351.5" x2="329.1" y1="384.2" y2="500.1" gradientTransform="translate(-281.2 259.5)" gradientUnits="userSpaceOnUse" xlink:href="#b"/><linearGradient id="o" x1="402.1" x2="364" y1="333.8" y2="507.7" gradientTransform="translate(-276.8 247.6)" gradientUnits="userSpaceOnUse" xlink:href="#b"/><linearGradient id="n" x1="246.6" x2="291.9" y1="539.6" y2="427.5" gradientTransform="translate(-276.8 247.6)" gradientUnits="userSpaceOnUse" xlink:href="#b"/><linearGradient id="m" x1="207.4" x2="243.9" y1="597.2" y2="367.2" gradientTransform="translate(-276.8 247.6)" gradientUnits="userSpaceOnUse" xlink:href="#b"/><linearGradient id="x" x1="287.7" x2="449.9" y1="396.3" y2="287.7" gradientTransform="translate(-276.8 247.6)" gradientUnits="userSpaceOnUse" spreadMethod="reflect" xlink:href="#b"/></defs><path d="m134.3 93.14 225-91.22-3.322 0.963-226.1 91.42z" fill="var(--color4)"/><path transform="translate(77.3 -464.7)" d="m257.2 593.4 160.4-114.8-135.6-11.92-225 91.22z" fill="#808080"/><g fill="#4d4d4d"><path transform="translate(77.3 -464.7)" d="m417.6 478.6-160.4 114.8 6.042 3.352 158.1-116.5z"/><path d="m134.5 169.3-3.568-72.77-1.013-2.24 3.567 72.16z"/><path d="m129.9 94.3 1.013 2.241 3.409-3.403z"/><path transform="translate(77.3 -464.7)" d="m254.5 597.6-200.9-36.3 3.568 72.77 193.8 46.3z"/><path transform="translate(77.3 -464.7)" d="m257.2 593.4-200.2-35.53-3.41 3.403 200.9 36.3z"/><path transform="translate(77.3 -464.7)" d="m254.5 597.6-3.511 82.77 8.473-1.01 3.835-82.58z"/><path d="m340.6 132-6.041-3.352-2.756 4.17z"/></g><path d="m145.1 110.9-1.152-0.025 168.6 32.07 0.88-0.053z" fill="#161616"/><path transform="translate(77.3 -464.7)" d="m66.59 575.6-1.468 0.25-138 61.12 0.28 4.562 5.97 54.28 0.968 3.375 186.2 60.25 2.313-0.282 2.218 0.063 110.1-94.22 1.937-56.34-1.062-1.03-168.3-32-1.157-0.032z" fill="url(#m)"/><path d="m76.14 176.2-64.62 32.52 2.207 22.5 189.2 60.14-0.527-23.16 54.8-43.03z"/><path transform="translate(77.3 -464.7)" d="m-63.44 674.7 181 54.5 51.96-40.82-171.7-44.52z" fill="url(#n)"/><path transform="translate(77.3 -464.7)" d="m118 751.2-0.478-21.97-181-54.5 2.089 19.44z" fill="url(#o)"/><path d="m43.12 207.9 12.18 3.55 74.4-39.97-11.5-2.778z" fill="#a05a2c"/><path d="m129.9 174.4-0.15-2.933-74.4 39.97 0.285 3.246z" fill="#9c8664"/><path d="m92.8 211.8 12.86 3.635 59.88-35.23-12.17-2.94z" fill="#a05a2c"/><path d="m165.6 183.2-0.104-3.005-59.88 35.23 0.21 3.28z" fill="#907a57"/><path d="m55.58 214.7-0.285-3.246-12.18-3.55 0.3 3.217z" fill="#d38d5f"/><path d="m132.2 222.9 13.72 3.88 57.56-37.45-12.91-3.119z" fill="#a05a2c"/><path d="m203.6 192.4-0.052-3.082-57.56 37.45 0.151 3.371z" fill="#856e4b"/><path d="m105.9 218.7-0.21-3.28-12.86-3.635 0.228 3.25z" fill="#d38d5f"/><path d="m162.9 242.8 14.86 4.334 66.09-48.09-13.71-3.312z" fill="#a05a2c"/><path d="m243.8 202.2 7e-3 -3.163-66.09 48.09 0.106 3.527z" fill="#7a6340"/><path d="m146.1 230.1-0.151-3.37-13.72-3.88 0.172 3.34zm31.73 20.54-0.106-3.527-14.86-4.334 0.13 3.494z" fill="#d38d5f"/><path d="m4.41 172.2 1.604-0.186 137.9-61.16-1.49 0.238z" fill="gray"/><path transform="translate(77.3 -464.7)" d="m-71.3 636.7-1.031 1.594-0.281 3.156 0.75 0.938 1.53-1.563 187.1 50.97 2.407-1.688 2.343-1.563-192.8-51.84z" fill="url(#p)"/><path d="m197.8 290.3-2.305 1.438-182.3-58.67-1.944-2.494-5.8-52.85-0.732-0.928 5.974 54.29 0.974 3.367 186.2 60.25 0.78-3.314-1.25-61.87-0.96-4.065-2.387 1.686 2.471 2.993z" fill="#333"/><path d="m197.4 229.5 3.73-4.271-2.327-1.353-2.362 1.558z" fill="#666"/><path d="M112.228 138.9l.137 2.335 2.96-.263-.134-2.333z" fill="#333"/><path d="m115.2 138.6 33.08 7.195 2.984-0.865-36.42-7.879z" fill="#898989"/><path d="m115.2 138.6 0.134 2.332 33.04 7.252-0.1-2.389z" fill="#333"/><path d="m148.8 149.3-0.1-2.396-0.455-1.032 0.1 2.389z" fill="#202020"/><path d="M148.723 146.867l1.718-.214.812-1.683-2.984.865z" fill="#525252"/><path d="m148.7 146.9-18.32 9.371 0.373 0.498 19.66-10.08z" fill="#2d2d2d"/><path d="m130.8 156.7-0.372-0.498-3.172-0.316z" fill="#242424"/><path d="m185.1 168.8 0.065 2.557 17.28-10.26-0.043-2.485z" fill="#333"/><path transform="translate(77.3 -464.7)" d="m123.2 622.3-18.65 10.9 3.244 0.314 17.3-10.19z" fill="url(#q)"/><path d="m185.8 169.4-0.623-0.572-3.244-0.314z" fill="#262626"/><path transform="translate(77.3 -464.7)" d="M37.532 601.828l-4.28.874 1.672.935 2.963-.262z" fill="url(#r)"/><path d="m93.3 147.7 0.162 2.399 18.9-8.902-0.138-2.335z" fill="#333"/><path transform="translate(77.3 -464.7)" d="m33.25 602.7-20.37 9.456 3.12 0.316 18.92-8.837z" fill="url(#s)"/><path d="m93.52 148.2-0.214-0.448-3.12-0.317z" fill="#222"/><path d="M6.014 172.005l-1.604.186.288 4.573.272-3.17z" fill="#666"/><path d="m313.3 142.9-0.88 0.053 1.934 0.962z" fill="#313131"/><path d="m253.5 184.9-54.71 38.96 2.326 1.353 113.3-81.34-1.935-0.962-58.95 41.98z" fill="gray"/><path transform="translate(77.3 -464.7)" d="m125.1 623.3 3.098-0.299-0.7-1.731-4.298 1.004z" fill="url(#t)"/><path d="m202.4 158.6 0.042 2.485 3.095-0.3-0.039-2.484z" fill="#333"/><path d="m205.5 158.3 38.24 8.318 3.149-0.945-42.08-9.104z" fill="#949494"/><path d="m205.5 158.3 0.039 2.483 38.19 8.381 5e-3 -2.546z" fill="#333"/><path d="m244.6 170.4 6e-3 -2.555-0.867-1.193-5e-3 2.546z" fill="#3f3f3f"/><path d="M244.634 167.804l2.021-.192.26-1.946-3.148.945z" fill="#616161"/><path d="m244.6 167.8-16.39 10.85 0.835 0.637 17.58-11.68z" fill="#3d3d3d"/><path d="m229.1 179.3-0.835-0.635-3.296-0.312z" fill="#272727"/><path transform="translate(77.3 -464.7)" d="m235.1 665 1.95-56.34-113.3 81.34 1.273 69.22z" fill="url(#u)"/><path d="m200.2 294.4 2.224 0.04-3.752-3.085-0.78 3.314z" fill="#1a1a1a"/><path transform="translate(77.3 -464.7)" d="m120.1 694.2 1.25 61.87 3.752 3.085-1.273-69.22z" fill="url(#v)"/><path transform="translate(77.3 -464.7)" d="m237.1 608.6-20.69 14.84 0.531 45.91c1.046 2.72 3.556 4.259 8.906 3.563l9.313-7.969 1.937-56.34z" fill="url(#w)"/><path transform="translate(77.3 -464.7)" d="m66.59 575.6-72.66 32.25-65.62 29.34 192.8 51.84 55.12-39.37 58.94-41.97zm-29.06 26.25 36.44 7.906-0.812 1.656-19.69 10.1-40.59-9.312 20.38-9.469zm90 19.5 42.09 9.094-0.282 1.937-17.56 11.69-47.19-10.84 18.66-10.88z" fill="url(#x)"/><path transform="translate(77.3 -464.7)" d="m66.59 575.6-17.72 7.445 168.1 37.57 18.16-12.93z" fill="url(#y)"/><path transform="translate(77.3 -464.7)" d="m421.4 480.3-158.1 116.5-3.835 82.58 156.2-148.4z" fill="#666"/><g transform="translate(-.14 -3.36)" stroke-width="2"><path d="m49.34 295v-81.92" stop-color="#000000" stroke="#000" stroke-width="2" style="-inkscape-stroke:none;paint-order:markers fill stroke"/><path d="m170.5 248.3c26.48 16.69 52.96 33.37 79.45 50.06" fill="#008000" stop-color="#000000" stroke="#f00" style="-inkscape-stroke:none;paint-order:markers fill stroke"/><path d="m139.2 228.2v66.52" stop-color="#000000" stroke="#999" stroke-width="2" style="-inkscape-stroke:none;paint-order:markers fill stroke"/><path d="m99.37 217v77.74" stop-color="#000000" stroke="#008000" stroke-width="2" style="-inkscape-stroke:none;paint-order:markers fill stroke"/></g><g font-family="'Nimbus Sans L'" font-size="13.33px" stroke-width="2" text-anchor="middle"><text x="263.63315" y="302.57855" fill="#000000" stop-color="#000000" text-align="center" style="-inkscape-stroke:none;paint-order:markers fill stroke" xml:space="preserve"><tspan x="263.63315" y="302.57855" fill="#ff0000">+5V</tspan></text><text x="50.045036" y="302.57855" fill="#000000" stop-color="#000000" text-align="center" style="-inkscape-stroke:none;paint-order:markers fill stroke" xml:space="preserve"><tspan x="50.045036" y="302.57855" fill="#000000">-5V</tspan></text><text x="138.84671" y="302.73184" fill="#999999" stop-color="#000000" text-align="center" style="-inkscape-stroke:none;paint-order:markers fill stroke" xml:space="preserve"><tspan x="138.84671" y="302.73184" fill="#999999">-DATA</tspan></text><text x="98.990059" y="302.66519" fill="#008000" stop-color="#000000" text-align="center" style="-inkscape-stroke:none;paint-order:markers fill stroke" xml:space="preserve"><tspan x="98.990059" y="302.66519" fill="#008000">+DATA</tspan></text></g></svg>
