<svg version="1.1" viewBox="0 0 1024 1024" xmlns="http://www.w3.org/2000/svg" xmlns:xlink="http://www.w3.org/1999/xlink"><defs><linearGradient id="b"><stop stop-color="#fff" offset="0"/><stop offset="1"/></linearGradient><linearGradient id="y" x1="408" x2="539" y1="544" y2="362" gradientTransform="translate(-309 -161) scale(1.82)" gradientUnits="userSpaceOnUse" xlink:href="#b"/><linearGradient id="w" x1="435" x2="528" y1="370" y2="400" gradientTransform="translate(-309 -161) scale(1.82)" gradientUnits="userSpaceOnUse" xlink:href="#b"/><linearGradient id="v" x1="383" x2="413" y1="462" y2="466" gradientTransform="translate(-317 -139) scale(1.82)" gradientUnits="userSpaceOnUse" xlink:href="#b"/><linearGradient id="u" x1="417" x2="508" y1="314" y2="591" gradientTransform="translate(-309 -161) scale(1.82)" gradientUnits="userSpaceOnUse" spreadMethod="reflect" xlink:href="#b"/><linearGradient id="t" x1="402" x2="406" y1="366" y2="391" gradientTransform="translate(-309 -161) scale(1.82)" gradientUnits="userSpaceOnUse" xlink:href="#b"/><linearGradient id="s" x1="316" x2="292" y1="347" y2="377" gradientTransform="translate(-309 -161) scale(1.82)" gradientUnits="userSpaceOnUse" xlink:href="#b"/><linearGradient id="r" x1="307" x2="327" y1="349" y2="373" gradientTransform="translate(-309 -161) scale(1.82)" gradientUnits="userSpaceOnUse" xlink:href="#b"/><linearGradient id="q" x1="406" x2="378" y1="368" y2="396" gradientTransform="translate(-309 -161) scale(1.82)" gradientUnits="userSpaceOnUse" xlink:href="#b"/><linearGradient id="p" x1="352" x2="329" y1="384" y2="500" gradientTransform="translate(-317 -139) scale(1.82)" gradientUnits="userSpaceOnUse" xlink:href="#b"/><linearGradient id="o" x1="402" x2="364" y1="334" y2="508" gradientTransform="translate(-309 -161) scale(1.82)" gradientUnits="userSpaceOnUse" xlink:href="#b"/><linearGradient id="n" x1="247" x2="292" y1="540" y2="428" gradientTransform="translate(-309 -161) scale(1.82)" gradientUnits="userSpaceOnUse" xlink:href="#b"/><linearGradient id="m" x1="207" x2="244" y1="597" y2="367" gradientTransform="translate(-309 -161) scale(1.82)" gradientUnits="userSpaceOnUse" xlink:href="#b"/><linearGradient id="x" x1="288" x2="450" y1="396" y2="288" gradientTransform="translate(-309 -161) scale(1.82)" gradientUnits="userSpaceOnUse" spreadMethod="reflect" xlink:href="#b"/><linearGradient id="a" x1="573" x2="212" y1="583" y2="204" gradientTransform="translate(-309 -161) scale(1.82)" gradientUnits="userSpaceOnUse" spreadMethod="reflect" xlink:href="#b"/></defs><path d="m0 0h1024v1024h-1024z" fill="#4d4d4d" fill-opacity=".34" style="paint-order:markers fill stroke"/><path d="m962 263-288 212-6.98 150 284-270z" fill="#575757"/><path d="m292 410 359 217 15.5-1.84 284-270 6.93-93.9-253-22.4" fill="#4d4d4d" style="-inkscape-stroke:none;paint-order:markers fill stroke"/><path d="m298 404 410-166-6.05 1.75-412 166z" fill="var(--color4)"/><g stroke-width=".887"><path d="m955 260-292 209 11 6.1 288-212z" fill="#939393"/><path d="m299 543-6.5-132-1.84-4.08 6.5 131z" fill="#333"/><path d="m290 406 1.84 4.08 6.21-6.2z" fill="gray"/><path d="m658 476-366-66.1 6.5 132 353 84.3z" fill="#333"/><path d="m663 469-364-64.7-6.21 6.2 366 66.1z" fill="#b3b3b3"/><path d="m658 476-6.39 151 15.4-1.84 6.98-150z" fill="#666"/><path d="m674 475-11-6.1-5.02 7.59z" fill="#b3b3b3"/></g><g stroke-width="1.82"><path d="m318 436-2.1-0.045 307 58.4 1.6-0.097z" fill="#161616"/><path d="m316 436-2.67 0.455-251 111 0.51 8.31 10.9 98.8 1.76 6.14 339 110 4.21-0.513 4.04 0.114 200-172 3.53-103-1.93-1.88-306-58.3-2.11-0.058z" fill="url(#m)"/><path d="m193 555-118 59.2 4.02 41 344 110-0.96-42.2 99.8-78.4z"/><path d="m79.2 617 330 99.2 94.6-74.3-313-81.1z" fill="url(#n)"/><path d="m351 677 27.1 7.89 120-87.6-25-6.03z" fill="#decd87"/><path d="m410 756-0.87-40-330-99.2 3.8 35.4z" fill="url(#o)"/><path d="m132 613 22.2 6.46 136-72.8-20.9-5.06z" fill="#decd87"/><path d="m290 552-0.273-5.34-136 72.8 0.519 5.91z" fill="#9c8664"/><path d="m223 620 23.4 6.62 109-64.2-22.2-5.35z" fill="#decd87"/><path d="m356 568-0.19-5.47-109 64.2 0.383 5.97z" fill="#907a57"/><path d="m155 625-0.519-5.91-22.2-6.46 0.546 5.86z" fill="#d38d5f"/><path d="m295 640 25 7.06 105-68.2-23.5-5.68z" fill="#decd87"/><path d="m425 585-0.095-5.61-105 68.2 0.275 6.14z" fill="#856e4b"/><path d="m247 633-0.382-5.97-23.4-6.62 0.415 5.92z" fill="#d38d5f"/><path d="m498 603 0.013-5.76-120 87.6 0.193 6.42z" fill="#7a6340"/><path d="m320 654-0.275-6.14-25-7.06 0.313 6.08zm57.8 37.4-0.193-6.42-27.1-7.89 0.237 6.36z" fill="#d38d5f"/><path d="m62 548 2.92-0.339 251-111-2.71 0.434z" fill="gray"/><path d="m64.9 548-1.88 2.9-0.512 5.75 1.37 1.71 2.79-2.85 341 92.8 4.38-3.07 4.27-2.85-351-94.4z" fill="url(#p)"/><path d="m414 763-4.2 2.62-332-107-3.54-4.54-10.6-96.2-1.33-1.69 10.9 98.8 1.77 6.13 339 110 1.42-6.03-2.28-113-1.75-7.4-4.35 3.07 4.5 5.45z" fill="#333"/><path d="m258 487 0.25 4.25 5.39-0.479-0.245-4.25z" fill="#333"/><path d="m264 487 60.2 13.1 5.43-1.58-66.3-14.4z" fill="#898989"/><path d="m264 487 0.244 4.25 60.2 13.2-0.182-4.35z" fill="#333"/><path d="m325 506-0.182-4.36-0.829-1.88 0.182 4.35z" fill="#202020"/><path d="m325 502 3.13-0.39 1.48-3.06-5.43 1.58z" fill="#525252"/><path d="m325 502-33.4 17.1 0.68 0.907 35.8-18.4z" fill="#2d2d2d"/><path d="m292 520-0.677-0.907-5.78-0.575z" fill="#242424"/><path d="m391 542 0.118 4.66 31.5-18.7-0.078-4.52z" fill="#333"/><path d="m419 522-34 19.8 5.91 0.572 31.5-18.6z" fill="url(#q)"/><path d="m392 543-1.13-1.04-5.91-0.572z" fill="#262626"/><path d="m263 484-7.79 1.59 3.04 1.7 5.4-0.477z" fill="url(#r)"/><path d="m224 503 0.295 4.37 34.4-16.2-0.251-4.25z" fill="#333"/><path d="m255 486-37.1 17.2 5.68 0.575 34.4-16.1z" fill="url(#s)"/><path d="m224 504-0.39-0.816-5.68-0.577z" fill="#222"/><path d="m64.9 548-2.92 0.339 0.524 8.33 0.496-5.77z" fill="#666"/><path d="m624 495-1.6 0.097 3.52 1.75z" fill="#313131"/><path d="m416 642 4.71 2.63 206-148-3.52-1.75z" fill="#808080"/><path d="m422 523 5.64-0.544-1.28-3.15-7.83 1.83z" fill="url(#t)"/><path d="m422 523 0.076 4.52 5.64-0.546-0.07-4.52z" fill="#333"/><path d="m428 523 69.6 15.2 5.73-1.72-76.6-16.6z" fill="#949494"/><path d="m428 523 0.071 4.52 69.5 15.3 0.01-4.64z" fill="#333"/><path d="m499 545 0.011-4.65-1.58-2.17-9e-3 4.64z" fill="#3f3f3f"/><path d="m499 540 3.68-0.35 0.473-3.54-5.73 1.72z" fill="#616161"/><path d="m499 540-29.8 19.8 1.52 1.16 32-21.3z" fill="#3d3d3d"/><path d="m471 561-1.52-1.16-6-0.568z" fill="#272727"/><path d="m623 599 3.55-103-206 148 2.23 126z" fill="url(#u)"/><path d="m413 652 2.28 113 7.47 5.31-2.11-126z" fill="url(#v)"/><path d="m626 496-37.7 27 0.967 83.6c1.9 4.95 6.48 7.76 16.2 6.49l17-14.5 3.53-103z" fill="url(#w)"/><path d="m316 436-252 112 350 95.8 208-150zm-52.9 47.8 66.4 14.4-1.48 3.02-35.8 18.4-73.9-17 37.1-17.2zm164 35.5 76.6 16.6-0.513 3.53-32 21.3-85.9-19.7 34-19.8z" fill="url(#x)"/><path d="m316 436-32.3 13.6 306 68.4 33.1-23.5z" fill="url(#y)"/><path d="m413 652 7.64-7.64-4.03-2.29-5.22 2.62z" fill="#666"/><path d="m418 771 4.59-0.814-7.53-5.85-1.22 6.67z" fill="#1a1a1a"/></g><g transform="translate(-12 -4.44)"><path d="m144 766v-149" color="#000000" style="-inkscape-stroke:none;paint-order:markers fill stroke"/><path d="m143 617v156h1.77v-156z" color="#000000" style="-inkscape-stroke:none;paint-order:markers fill stroke"/></g><g transform="translate(12.9 4.77)"><path d="m364 680v83.9" color="#000000" fill="#aa3939" style="-inkscape-stroke:none;paint-order:markers fill stroke"/><path d="m363 680v83.9h1.77v-83.9z" color="#000000" fill="#f00" style="-inkscape-stroke:none;paint-order:markers fill stroke"/></g><g transform="matrix(1 0 0 .836 -11.7 102)" fill="#fff"><path d="m307 644v121" color="#000000" style="-inkscape-stroke:none;paint-order:markers fill stroke"/><path d="m306 644v121h1.77v-121z" color="#000000" style="-inkscape-stroke:none;paint-order:markers fill stroke"/></g><g transform="matrix(1 0 0 .836 -11.4 98)" fill="#2d882d"><path d="m235 624v142" color="#000000" style="-inkscape-stroke:none;paint-order:markers fill stroke"/><path d="m234 624v142h1.77v-142z" color="#000000" style="-inkscape-stroke:none;paint-order:markers fill stroke"/></g><path d="m663 469 292-209-247-21.7-410 166z" fill="url(#a)" style="-inkscape-stroke:none;font-variation-settings:normal"/><path d="m106 766v9.38h9.38v4.69h-9.38v2.34h11.7v-9.38h-9.38v-4.69h9.38l-2.34-2.34zm15.1 4.69v4.69l3.52 7.03h4.69l3.52-7.03v-2.34l-2.34-2.34v4.69l-2.34 4.69h-2.34l-2.34-4.69v-4.69zm-29.3 2.34v2.34h11.7v-2.34z" fill="#333" style="paint-order:markers fill stroke"/><path d="m188 746v16.4h9.38l2.34-2.34v-9.38l-4.69-4.69zm15.1 0v16.4h2.34v-8.2h7.03v8.2h2.34v-14.1l-2.34-2.34zm15.1 0v2.34h4.69v14.1h2.34v-14.1h4.69v-2.34zm15.1 0v16.4h2.34v-8.2h7.03v8.2h2.34v-14.1l-2.34-2.34zm-55.7 2.34v4.69h-4.69v2.34h4.69v4.69h2.34v-4.69h4.69v-2.34h-4.69v-4.69zm12.8 0h4.69l2.34 2.34v9.38h-7.03zm15.1 0h7.03v3.52h-7.03zm30.2 0h7.03v3.52h-7.03z" fill="#2d882d" style="paint-order:markers fill stroke"/><path d="m260 746v16.4h9.38l2.34-2.34v-9.38l-4.69-4.69zm15.1 0v16.4h2.34v-8.2h7.03v8.2h2.34v-14.1l-2.34-2.34zm15.1 0v2.34h4.69v14.1h2.34v-14.1h4.69v-2.34zm15.1 0v16.4h2.34v-8.2h7.03v8.2h2.34v-14.1l-2.34-2.34zm-42.9 2.34h4.69l2.34 2.34v9.38h-7.03zm15.1 0h7.03v3.52h-7.03zm30.2 0h7.03v3.52h-7.03zm-61.9 4.69v2.34h11.7v-2.34z" fill="#fff" style="paint-order:markers fill stroke"/><path d="m351 766v9.38h9.38v4.69h-9.38v2.34h11.7v-9.38h-9.38v-4.69h9.38l-2.34-2.34zm-10.4 2.34v4.69h-4.69v2.34h4.69v4.69h2.34v-4.69h4.69v-2.34h-4.69v-4.69zm25.5 2.34v4.69l3.52 7.03h4.69l3.52-7.03v-2.34l-2.34-2.34v4.69l-2.34 4.69h-2.34l-2.34-4.69v-4.69z" fill="#f00" style="paint-order:markers fill stroke"/></svg>
