<svg version="1.1" viewBox="0 0 48 48" xmlns="http://www.w3.org/2000/svg" xmlns:xlink="http://www.w3.org/1999/xlink"><defs><linearGradient id="b"><stop stop-color="#a19e83" offset="0"/><stop stop-color="#6b5e3e" offset=".5"/><stop stop-color="#9a7643" offset="1"/></linearGradient><filter id="t" x="-.098792" y="-.078378" width="1.1976" height="1.1568" color-interpolation-filters="sRGB"><feGaussianBlur stdDeviation="1.974"/></filter><filter id="L" x="-.25842" y="-.069628" width="1.5168" height="1.1393" color-interpolation-filters="sRGB"><feGaussianBlur stdDeviation=".806"/></filter><filter id="z" x="-.027781" y="-.10384" width="1.0556" height="1.2077" color-interpolation-filters="sRGB"><feGaussianBlur stdDeviation=".501"/></filter><filter id="F" x="-.23555" y="-.1735" width="1.4711" height="1.347" color-interpolation-filters="sRGB"><feGaussianBlur stdDeviation=".88"/></filter><filter id="y" x="-.081996" y="-.13999" width="1.164" height="1.28" color-interpolation-filters="sRGB"><feGaussianBlur stdDeviation="3.575"/></filter><linearGradient id="f"><stop stop-color="#6d6d6d" offset="0"/><stop offset=".226"/><stop offset="1"/></linearGradient><linearGradient id="d"><stop stop-color="#312c27" offset="0"/><stop stop-color="#6a4931" offset=".075"/><stop stop-color="#120d09" offset=".567"/><stop stop-color="#453021" offset="1"/></linearGradient><linearGradient id="a"><stop offset="0"/><stop stop-opacity="0" offset=".5"/><stop stop-opacity="0" offset="1"/></linearGradient><filter id="B" x="-.057419" y="-.021149" width="1.1148" height="1.0423" color-interpolation-filters="sRGB"><feGaussianBlur stdDeviation="1.872"/></filter><filter id="ar" x="-.047712" y="-.022405" width="1.0954" height="1.0448" color-interpolation-filters="sRGB"><feGaussianBlur stdDeviation="1.295"/></filter><filter id="ao" x="-.076133" y="-.1249" width="1.1523" height="1.2498" color-interpolation-filters="sRGB"><feGaussianBlur stdDeviation="1.749"/></filter><filter id="aq" x="-.043947" y="-.056272" width="1.0879" height="1.1125" color-interpolation-filters="sRGB"><feGaussianBlur stdDeviation="1.044"/></filter><filter id="V" x="-.049903" y="-.023986" width="1.0998" height="1.048" color-interpolation-filters="sRGB"><feGaussianBlur stdDeviation="1.328"/></filter><filter id="m" x="-.0052922" y="-.0043861" width="1.0106" height="1.0088" color-interpolation-filters="sRGB"><feGaussianBlur stdDeviation=".511"/></filter><filter id="q" x="-.091316" y="-.032557" width="1.1826" height="1.0651" color-interpolation-filters="sRGB"><feGaussianBlur stdDeviation="3.536"/></filter><filter id="M" x="-.30356" y="-.31702" width="1.6071" height="1.634"><feGaussianBlur stdDeviation="5.022"/></filter><radialGradient id="l" cx="324.29" cy="342.26" r="114.09" gradientTransform="matrix(.98589 -.1674 .21928 1.2915 227.9 -6.367)" gradientUnits="userSpaceOnUse" xlink:href="#b"/><radialGradient id="s" cx="178.59" cy="350.94" r="24.124" gradientTransform="matrix(1.5081 .5034 -.39327 1.1782 567.21 -89.103)" gradientUnits="userSpaceOnUse" spreadMethod="reflect" xlink:href="#a"/><linearGradient id="x" x1="293.18" x2="413.72" y1="312.6" y2="447.5" gradientTransform="rotate(-9.636 740.95 -1409.6)" gradientUnits="userSpaceOnUse" xlink:href="#b"/><radialGradient id="an" cx="655.9" cy="316.56" r="24.822" gradientTransform="matrix(1.3507 0 0 .80913 -228.54 58.452)" gradientUnits="userSpaceOnUse"><stop offset="0"/><stop stop-opacity="0" offset="1"/></radialGradient><radialGradient id="ap" cx="291.95" cy="320.46" r="39.646" gradientTransform="matrix(3.8934 2.467 -1.7191 2.7131 26.397 -1203.1)" gradientUnits="userSpaceOnUse" xlink:href="#b"/><radialGradient id="am" cx="380.94" cy="357.12" r="2.652" gradientTransform="matrix(1 0 0 1.4375 298.12 -117.15)" gradientUnits="userSpaceOnUse" xlink:href="#b"/><radialGradient id="al" cx="201.8" cy="165.94" r="5.422" gradientTransform="matrix(1 0 0 .23055 508.45 359.58)" gradientUnits="userSpaceOnUse" xlink:href="#b"/><radialGradient id="ak" cx="202.38" cy="172.36" r="4" gradientTransform="matrix(1 0 0 .19922 508.45 369.92)" gradientUnits="userSpaceOnUse" xlink:href="#b"/><radialGradient id="aj" cx="204.05" cy="179.57" r="4.078" gradientTransform="matrix(1 0 0 .19436 508.45 376.57)" gradientUnits="userSpaceOnUse" xlink:href="#b"/><radialGradient id="ai" cx="205.94" cy="183.93" r="5.188" gradientTransform="matrix(1 0 0 .22069 508.45 375.23)" gradientUnits="userSpaceOnUse" xlink:href="#b"/><radialGradient id="ah" cx="179.78" cy="189.19" r="5.969" gradientTransform="matrix(1 0 0 .15805 508.45 391.19)" gradientUnits="userSpaceOnUse" xlink:href="#b"/><radialGradient id="ag" cx="180.91" cy="182.84" r="5.094" gradientTransform="matrix(1 0 0 .22086 508.45 374.36)" gradientUnits="userSpaceOnUse" xlink:href="#b"/><radialGradient id="af" cx="181.05" cy="175.56" r="5.141" gradientTransform="matrix(1 0 0 .27356 508.45 359.44)" gradientUnits="userSpaceOnUse" xlink:href="#b"/><radialGradient id="ae" cx="179.44" cy="170.27" r="5.25" gradientTransform="matrix(1 0 0 .31845 508.45 347.94)" gradientUnits="userSpaceOnUse" xlink:href="#b"/><linearGradient id="ad" x1="376.98" x2="396.51" y1="323.86" y2="310.07" gradientTransform="translate(298.12 39.096)" gradientUnits="userSpaceOnUse" xlink:href="#b"/><linearGradient id="Y" x1="425.55" x2="435.03" y1="309.98" y2="309.98" gradientTransform="translate(298.12 39.096)" gradientUnits="userSpaceOnUse" xlink:href="#b"/><radialGradient id="U" cx="352.66" cy="470.57" r="8.755" gradientTransform="matrix(1 0 0 .70187 298.12 179.39)" gradientUnits="userSpaceOnUse" xlink:href="#b"/><radialGradient id="T" cx="340.62" cy="471.54" r="8.907" gradientTransform="matrix(1 0 0 .78625 298.12 139.89)" gradientUnits="userSpaceOnUse" xlink:href="#b"/><radialGradient id="S" cx="328.72" cy="470.01" r="9.04" gradientTransform="matrix(1 0 0 .67141 298.12 193.54)" gradientUnits="userSpaceOnUse" xlink:href="#b"/><radialGradient id="R" cx="433.79" cy="462.97" r="11.925" gradientTransform="matrix(1 0 0 .3314 298.12 348.64)" gradientUnits="userSpaceOnUse" xlink:href="#b"/><radialGradient id="Q" cx="425.99" cy="464.84" r="12.882" gradientTransform="matrix(1 0 0 .3932 298.12 321.17)" gradientUnits="userSpaceOnUse" xlink:href="#b"/><radialGradient id="P" cx="417.66" cy="465.99" r="12.245" gradientTransform="matrix(1 0 0 .47222 298.12 285.04)" gradientUnits="userSpaceOnUse" xlink:href="#b"/><linearGradient id="O" x1="448.54" x2="399.52" y1="480.19" y2="456.5" gradientTransform="translate(298.12 39.096)" gradientUnits="userSpaceOnUse" xlink:href="#b"/><radialGradient id="N" cx="420.69" cy="322.81" r="8.425" gradientTransform="matrix(1.7695 .16613 -.07903 .84172 -4.577 5.1)" gradientUnits="userSpaceOnUse" xlink:href="#f"/><radialGradient id="K" cx="438.24" cy="317.08" r="4.469" gradientTransform="matrix(5.5377 -.36703 .2028 3.0597 -1760.3 -472.91)" gradientUnits="userSpaceOnUse"><stop stop-color="#fff" offset="0"/><stop stop-color="#fff" stop-opacity="0" offset="1"/></radialGradient><radialGradient id="J" cx="422.53" cy="275.76" r="2.986" gradientTransform="matrix(1.7995 1.7995 -1.1737 1.1737 283.95 -770.23)" gradientUnits="userSpaceOnUse" xlink:href="#f"/><radialGradient id="I" cx="379.76" cy="267.2" r="11.703" gradientTransform="matrix(2.0855 1.2041 -.46357 .80293 -.23 -370.45)" gradientUnits="userSpaceOnUse" xlink:href="#f"/><radialGradient id="H" cx="379.22" cy="272.92" r="11.703" gradientTransform="matrix(.98589 -.1674 .14966 .88147 249.56 129.17)" gradientUnits="userSpaceOnUse" xlink:href="#b"/><radialGradient id="G" cx="379.22" cy="272.92" r="11.703" gradientTransform="matrix(.98589 -.1674 .14966 .88147 250.25 126.72)" gradientUnits="userSpaceOnUse" xlink:href="#b"/><radialGradient id="E" cx="354.3" cy="245.68" r="10.004" gradientTransform="matrix(.9112 -.41196 .66267 1.4658 149.67 65.97)" gradientUnits="userSpaceOnUse" xlink:href="#b"/><radialGradient id="D" cx="412.3" cy="382.87" r="12.949" gradientTransform="matrix(2.2591 .25789 -.39285 3.4413 -65.047 -1017.2)" gradientUnits="userSpaceOnUse" xlink:href="#b"/><radialGradient id="C" cx="349.09" cy="349.02" r="50.654" gradientTransform="matrix(2.165 1.9448 -1.3709 1.5262 369.63 -825.26)" gradientUnits="userSpaceOnUse"><stop stop-color="#a19e83" offset="0"/><stop stop-color="#6b5e3e" offset=".409"/><stop stop-color="#31220d" offset="1"/></radialGradient><radialGradient id="A" cx="305.06" cy="498.48" r="88.3" gradientTransform="matrix(-.83111 1.4395 -1.5347 -.88608 1621.2 322.04)" gradientUnits="userSpaceOnUse" spreadMethod="reflect"><stop stop-color="#a19e83" offset="0"/><stop stop-color="#6b5e3e" offset=".399"/><stop stop-color="#31220d" offset="1"/></radialGradient><radialGradient id="w" cx="166.43" cy="319.06" r="24.124" gradientTransform="matrix(-1.1536 -2.5298 2.2368 -.59734 145.83 1099.6)" gradientUnits="userSpaceOnUse" spreadMethod="reflect" xlink:href="#d"/><radialGradient id="v" cx="166.43" cy="319.06" r="24.124" gradientTransform="matrix(0 2.7645 -2.2914 0 1500.4 -123.94)" gradientUnits="userSpaceOnUse" spreadMethod="reflect" xlink:href="#d"/><radialGradient id="u" cx="186.73" cy="332.47" r="24.124" gradientTransform="matrix(0 2.871 -2.2507 0 1471.6 -146.48)" gradientUnits="userSpaceOnUse" spreadMethod="reflect" xlink:href="#d"/><linearGradient id="r" x1="309.58" x2="315.39" y1="510.49" y2="448.97" gradientTransform="translate(298.12 39.096)" gradientUnits="userSpaceOnUse" xlink:href="#b"/><radialGradient id="p" cx="23.375" cy="115.3" r="42.515" gradientTransform="matrix(-.62154 -.18543 1.9506 -6.5384 351.63 1005.5)" gradientUnits="userSpaceOnUse" xlink:href="#b"/><radialGradient id="o" cx="371.65" cy="403.45" r="71.331" gradientTransform="matrix(.98646 -.16397 .14196 .854 255.48 150.3)" gradientUnits="userSpaceOnUse"><stop stop-color="#7c8777" offset="0"/><stop stop-color="#fff" stop-opacity="0" offset="1"/></radialGradient><linearGradient id="n" x1="744.27" x2="658.21" y1="520.22" y2="356.16" gradientUnits="userSpaceOnUse" xlink:href="#a"/><linearGradient id="k" x1="174.61" x2="169.3" y1="217.28" y2="134.55" gradientTransform="translate(508.45 231.9)" gradientUnits="userSpaceOnUse" xlink:href="#b"/><radialGradient id="j" cx="313.07" cy="490.14" r="69.957" gradientTransform="matrix(2.2972 -.39004 .1802 1.0613 -183.03 140.36)" gradientUnits="userSpaceOnUse" xlink:href="#a"/></defs><g transform="matrix(.14005 0 0 .13996 7.1769 3.753)"><g font-family="Sans" font-weight="400"><path transform="translate(-506.71 -229.44)" d="m657.04 352.19c-13.535 2.4-23.49 4.182-35.386 12.252-10.438 8.448-12.374 22.737-19.93 33.274-7.804 17.98-13.063 38.113-9.406 57.733 3.086 15.253 8.233 33.103 21.75 39.986 20.546 10.463 58.347 8.538 90.223 1.005-0.055-0.778 1.155-2.145 4.19-4.261 10.939-11.065 23.32-24.4 21.426-41.263 0.728-11.933-5.218-23.714-8.933-53.731-2.787-22.513-5.946-32.27-3.137-38.075 0.01-0.022 0.01-0.044 0.02-0.067-10.785 8.468-28.702 8.92-40.385 1.85-19.836-16.21-18.426-4.904-20.432-8.703z" color="#000000" fill="url(#j)" overflow="visible" style="text-indent:0;text-transform:none"/><path transform="translate(-506.71 -229.44)" d="m661.58 351.84c-3.357-0.164-3.403 2.48-4.532 0.344-13.534 2.4-23.51 4.18-35.406 12.25-10.438 8.448-12.35 22.744-19.906 33.281-7.804 17.98-13.063 38.099-9.407 57.719 3.087 15.253 8.233 33.117 21.75 40 20.547 10.463 58.344 8.533 90.22 1-0.056-0.778 1.152-2.134 4.187-4.25 10.94-11.065 23.3-24.419 21.406-41.281 0.728-11.934-5.191-23.702-8.906-53.719-2.787-22.513-5.966-32.257-3.157-38.062 0.01-0.023 0.021-0.072 0.032-0.094-10.786 8.468-28.693 8.945-40.375 1.875-8.679-7.091-13.296-8.935-15.907-9.063z" color="#000000" fill="url(#k)" opacity=".595" overflow="visible" style="text-indent:0;text-transform:none"/><path transform="translate(-506.71 -229.44)" d="m572.87 238.24c-15.313 3.07-21.518 19.882-22.414 33.784-6.365 34.51-29.307 63.697-33.414 98.862-12.616 75.408 13.235 118.41 87.26 129.66 12.69 2.556 14.886 14.78 27.224 15.886 21.825 1.95 36.127 1.564 30.684-2.953-2.612-2.545-12.23-9.389-12.12-10.246 0.312-0.948 5.826-0.35 8.42-0.472 12.062-0.566 28.43-4.936 51.206 7.597 9.498 4.546 20.77 4.174 31.448 2.489 11.314-5.33-1.483-11.98-5.873-15.153-5.546-4.01-14.462-1.043-20.503-1.043-2.498 0-14.048 1.082-6.068-4.482 10.94-11.065 23.337-24.395 21.442-41.257 0.729-11.934-5.237-23.708-8.952-53.725-3.716-30.017-8.055-37.397 1.91-42.903 8.18-8.203 1.372-19.07 1.2-28.634-0.056-3.059 2.463-5.641 2.578-8.647 0.167-4.342-0.801-8.928-2.756-12.74-4.309-8.405-12.808-14.905-19.935-20.842-0.57-4.27-3.745-9.054-6.922-9.793-0.98-0.229-1.838-0.074-2.387 0.594-1.418 2.693-0.711 5.045-1.927 4.593a32.135 32.135 0 0 0-2.2-0.832c-12.536-4.224-26.406-0.47-39.313-0.376-2.814-10.397-20.28-23.465-26.31-13.256-0.867 1.467-1.73 3.86-1.814 5.922-0.12 2.928 1.247 5.685 1.883 8.585 2.99 13.627 5.502 27.951-1.893 40.643-14.602 25.803-39.4 45.288-49.162 74-7.196 19.765-10.613 43.705 2.03 62.111 14.307 21.508 12.233 32.06-4.994 22.148-17.624-10.401-37.825-30.322-34.979-50.844 4.4-42.478 32.463-77.143 43.926-117.53 5.447-18.423 10.739-37.376 10.966-56.685-0.325-9.337-9.068-16.317-18.241-14.463z" color="#000000" fill="url(#l)" filter="url(#m)" overflow="visible" style="text-indent:0;text-transform:none"/><path transform="translate(-506.71 -229.44)" d="m661.58 351.84c-3.357-0.164-3.403 2.48-4.532 0.344-13.534 2.4-23.51 4.18-35.406 12.25-10.438 8.448-12.35 22.744-19.906 33.281-7.804 17.98-13.063 38.099-9.407 57.719 3.087 15.253 8.233 33.117 21.75 40 20.547 10.463 58.344 8.533 90.22 1-0.056-0.778 1.152-2.134 4.187-4.25 10.94-11.065 23.3-24.419 21.406-41.281 0.728-11.934-5.191-23.702-8.906-53.719-2.787-22.513-5.966-32.257-3.157-38.062 0.01-0.023 0.021-0.072 0.032-0.094-10.786 8.468-28.693 8.945-40.375 1.875-8.679-7.091-13.296-8.935-15.907-9.063z" color="#000000" fill="url(#n)" opacity=".595" overflow="visible" style="text-indent:0;text-transform:none"/><path transform="translate(-506.71 -229.44)" d="m661.58 351.84c-3.357-0.164-3.403 2.48-4.532 0.344-13.534 2.4-23.51 4.18-35.406 12.25-10.438 8.448-12.35 22.744-19.906 33.281-7.804 17.98-13.063 38.099-9.407 57.719 3.087 15.253 8.233 33.117 21.75 40 20.547 10.463 58.344 8.533 90.22 1-0.056-0.778 1.152-2.134 4.187-4.25 10.94-11.065 23.3-24.419 21.406-41.281 0.728-11.934-5.191-23.702-8.906-53.719-2.787-22.513-5.966-32.257-3.157-38.062 0.01-0.023 0.021-0.072 0.032-0.094-10.786 8.468-28.693 8.945-40.375 1.875-8.679-7.091-13.296-8.935-15.907-9.063z" color="#000000" fill="url(#o)" opacity=".595" overflow="visible" style="text-indent:0;text-transform:none"/><path transform="translate(-506.71 -229.44)" d="m576.27 237.93c-1.118-0.032-2.26 0.08-3.406 0.313-15.313 3.07-21.512 19.879-22.407 33.78-6.365 34.511-29.3 63.71-33.406 98.876-12.303 73.614 38.842 132.34 91.084 127.4-33.664-34.882-11.004-6.16-30.87-16.723-1.754-0.765-3.762-2.004-6.058-3.802-17.624-10.401-37.815-30.321-34.968-50.844 4.4-42.478 32.443-77.143 43.906-117.53 5.447-18.422 10.741-37.379 10.969-56.688-0.284-8.17-7.02-14.56-14.844-14.781z" color="#000000" fill="url(#p)" filter="url(#q)" overflow="visible" style="text-indent:0;text-transform:none"/><path transform="translate(-506.71 -229.44)" d="m606.64 496.06 0.562 5.313c10.205 3.669 12.982 14.046 24.313 15.062 21.824 1.95 36.13 1.58 30.687-2.937-1.728-1.685-6.453-5.25-9.468-7.72-16.236-0.277-31.747-3.721-46.094-9.718z" color="#000000" fill="url(#r)" overflow="visible" style="text-indent:0;text-transform:none"/></g><path transform="translate(-506.71 -229.44)" d="m694.05 382.71a11.937 11.937 0 0 0-4.031 0.782c-11.922 4.586-18.123 20.535-18.969 33.28-0.5 7.528 2.701 16.145 8.5 20.97 5.335 4.438 14.084 7.08 20.406 4.218 11.638-5.266 18.251-20.559 18.97-33.312 0.37-6.6-2.939-13.754-7.813-18.219-4.432-4.06-11.045-7.862-17.063-7.719z" color="#000000" fill="url(#s)" filter="url(#t)" overflow="visible"/><path transform="translate(-506.71 -229.44)" d="m696.49 376.72c-1.552 0.03-3.053 0.255-4.5 0.718-13.327 4.264-20.273 19.09-21.218 30.938-0.559 6.996 3.017 15.016 9.5 19.5 5.963 4.125 15.744 6.534 22.812 3.875 13.01-4.895 20.416-19.083 21.219-30.938 0.415-6.134-3.301-12.787-8.75-16.937-4.955-3.773-12.335-7.29-19.063-7.156z" color="#000000" fill="url(#u)" overflow="visible"/><path transform="translate(-506.71 -229.44)" d="m702.15 386.22c-12.217 0.444-17.8 12.958-16.313 23.53 0.942 6.696 3.866 16.624 15.531 16.72 11.666 0.096 17.652-15.148 18.469-26.563 0.423-5.907-3.384-12.316-15.156-13.625a19.44 19.44 0 0 0-2.531-0.062z" color="#000000" fill="url(#v)" overflow="visible"/><path transform="translate(-506.71 -229.44)" d="m704.27 387.88c-1.824-0.023-3.795 0.196-5.938 0.75-11.428 2.953-13.122 17.435-9.156 28.094 2.052 5.515 12.737 11.847 17.719 7.75 6.186-5.09 15.351-15.993 11.906-26.375-1.716-5.17-6.629-10.122-14.531-10.22z" color="#000000" fill="url(#w)" overflow="visible"/><g font-family="Sans" font-weight="400"><path transform="translate(-506.71 -229.44)" d="m625.39 362.62c-18.787 0.682-54.892 36.025-15.5 39.406 15.475 0.647 38.49 2.435 51.719 7.469 3.462 1.317 5.2 3.462 9.125 6.406 3.887 2.916 8.03 7.596 12.875 7.969 4.845 0.372 10.325-2.705 12.406-4.313 0 0-14.346 2.648-15.563-1.5 6.993 0.343 11.543-2.37 16.188-5.062 0 0-16.095 1.242-15.75-1.25 5.714-0.123 11.072-3.225 15.531-7.094-2.24 1.371-13.2 4.437-14.031 0.156-0.928-4.776 12.504 1.105 13.719-4.969-8.77-2.238-18.12 0.723-27.094-0.343-18.073-2.148-29.221-18.803-34.5-31-1.349-4.352-4.79-6.033-9.125-5.875zm71.031 42.03c0.239-0.145 0.42-0.278 0.438-0.374-0.144 0.127-0.293 0.249-0.438 0.375z" color="#000000" fill="url(#x)" filter="url(#y)" overflow="visible" style="text-indent:0;text-transform:none"/><path transform="translate(-506.71 -229.44)" d="m674.3 349.74-0.437 0.906s7.487 5.51 10.687 6.844 7.055 2.776 9.875 3.187c4 0.583 8.423 0.852 12.25-0.812 0.815-0.355 1.62-1.156 2.313-1.875-0.04 0.197-0.115 0.394-0.125 0.593-0.025 0.464 0.04 0.96 0.375 1.344 0.779 0.893 1.975 1.266 3.28 1.375 1.307 0.11 1.876-0.344 1.876-0.344l2.75-2.593s-3.364 2.035-4.531 1.937c-1.168-0.098-2.101-0.43-2.625-1.031-0.08-0.092-0.174-0.3-0.157-0.625s0.159-0.743 0.282-1.125c0.232-0.721 0.464-1.276 0.5-1.344l0.062-0.094-0.812-0.5-0.063 0.063c-0.045 0.059-0.53 0.632-1.219 1.375-0.722 0.778-1.68 1.631-2.312 1.906-3.527 1.534-7.782 1.324-11.719 0.75-2.615-0.381-6.455-1.804-9.625-3.125s-10.625-6.812-10.625-6.812z" color="#000000" filter="url(#z)" overflow="visible" style="text-indent:0;text-transform:none"/><path transform="translate(-506.71 -229.44)" d="m629.09 266.1c-1.254-0.043-3.652 0.859-2.406 0.562 0.259-0.061 0.513-0.09 0.781-0.125a9.499 9.499 0 0 1 2.313 0c2e-3 -0.286-0.28-0.423-0.688-0.437zm0.688 0.437a0.841 0.841 0 0 1-0.125 0.438c-0.867 1.467-1.73 3.874-1.813 5.937-0.119 2.927 1.239 5.662 1.875 8.563 2.99 13.627 5.49 27.964-1.906 40.656-14.602 25.803-39.394 45.289-49.156 74-7.196 19.766-10.612 43.687 2.03 62.094 2.423 7.234 9.76 13.845 14.938 20.312-8.044-17.295-4.646-38.017 1.719-55.5 9.762-28.711 34.554-48.197 49.156-74 1.975-3.388 3.226-6.889 3.969-10.469v-19.437c-0.546-3.607-1.283-7.2-2.062-10.75-0.637-2.9-2.026-5.635-1.907-8.563 5.34-13.951 3.107-30.2-16.718-33.28z" color="#000000" fill="url(#A)" filter="url(#B)" overflow="visible" style="text-indent:0;text-transform:none"/><path transform="translate(-506.71 -229.44)" d="m618.33 369.31c-2.682 8.591-1.416 31.507 44.843 39.648 3.649 0.642 5.2 3.432 9.125 6.375 3.888 2.916 8.03 7.627 12.875 8 4.846 0.373 10.325-2.704 12.406-4.312 0 0-14.346 2.617-15.562-1.531 6.992 0.343 11.542-2.37 16.187-5.063 0 0-16.407 0.586-16.062-1.906 5.9-0.126 16.062-5.75 16.062-5.75s-9.985 2.184-14.78 1.656c-6.303-0.693 14.25-7.125 14.25-7.125s-9.303 1.503-19.47 1.406l5.19-10.435-8.533 10.342c-7.416-0.354-14.81-1.713-19-5.313-6.747-5.798-16.434-15.25-19.094-22.219 9.416-45.305-10.674-30.23-18.436-3.774z" color="#000000" fill="url(#C)" overflow="visible" style="text-indent:0;text-transform:none"/><path transform="translate(-506.71 -229.44)" d="m717.81 394.99c-7.356 1.29-16.174 4.616-16.174 4.616 0.276 0.518 20.252-1.388 18.905 0.574-1.804 2.628-17.706 3.763-17.576 4.082 0 0 13.246 2.779 18.67 1.012 1.148 2.238-16.18 6.933-16.18 6.933s10.47 2.067 16.958-0.565c-1.163 3.103-15.014 2.785-15.014 2.785s9.056 4.584 13.507 2.633c1.39-0.61 3.05-0.486 4.107-1.676 0.01-0.01 0.017-0.025 0.026-0.036a3.98 3.98 0 0 0 0.417-1.465c0.099-1.17-0.332-2.52-1.597-3.057a0.522 0.522 0 0 0-0.036-0.026l-0.581-0.25c0.093-0.052 0.092-0.073 0.2-0.129 1.216-0.628 3.124-1.425 3.946-3.079 0.62-1.246 1.029-2.598 0.384-3.9-0.604-1.22-1.892-1.818-2.956-2.288-0.139-0.061-0.178-0.048-0.267-0.081 0.035-0.044 0.08-0.142 0.128-0.18 0.162-0.13 0.797-0.432 1.39-0.775 0.288-0.168 0.615-0.36 0.902-0.66 0.3-0.315 0.542-0.749 0.576-1.271a4.538 4.538 0 0 0-0.882-2.957c-0.608-0.831-1.496-1.53-8.853-0.24z" color="#000000" fill="url(#D)" overflow="visible" style="text-indent:0;text-transform:none"/></g><path transform="translate(-506.71 -229.44)" d="m633.09 263.97c-0.894 0.076-1.828 0.35-2.781 0.78-5.084 2.3-5.094 8.559-1.531 16.438 3.562 7.88 0.947 19.142 6.03 16.844 3.108-1.405 9.174-8.717 9.188-13.125 0.01-2.804 0.542-8.686-0.843-11.75-2.672-5.91-5.7-8.992-9.188-9.187a6.142 6.142 0 0 0-0.875 0z" color="#000000" fill="url(#E)" opacity=".972" overflow="visible"/><g font-family="Sans" font-weight="400"><path transform="translate(-506.71 -229.44)" d="m655.93 294.75c-1.066 0.227-1.898 0.55-2.468 0.958-0.327 0.233-0.521 0.583-0.655 0.999-0.133 0.415-0.216 0.904-0.257 1.47-0.082 1.13 0.017 2.515 0.264 3.98 0.493 2.931 2.749 5.289 4.701 6.968 2.561 2.202 6.056 3.883 10.23 4.063 2.089 0.09 4.052 6e-3 5.61-0.191 0.78-0.099 1.451-0.25 1.993-0.402 0.541-0.153 0.975-0.268 1.267-0.564 0.522-0.529 0.665-1.412 0.742-2.535s-2e-3 -2.486-0.222-3.924c-0.441-2.877-3.302-5.71-5.145-7.526a4.77 4.77 0 0 0-0.263-0.241c-2.552-2.162-5.062-3.333-9.089-3.497-2.013-0.081-3.96 8e-3 -5.568 0.248-0.402 0.06-0.784 0.118-1.14 0.194z" color="#000000" fill="url(#G)" opacity=".573" overflow="visible" style="text-indent:0;text-transform:none"/><path d="m214.77 82.508a18.59 18.59 0 0 0-1.47 2.132c-0.95 1.602-1.2 2.776-1.152 4.122 2e-3 0.047 8e-3 0.098 0.013 0.144 0.115 1.013 0.294 2.586 1.093 3.222 0.4 0.318 0.821 0.577 1.195 0.728 0.374 0.15 0.696 0.224 0.993 0.105 0.166-0.066 0.298-0.209 0.481-0.396s0.413-0.432 0.638-0.72c0.45-0.579 0.955-1.342 1.446-2.173 0.981-1.662 1.318-3.282 1.26-4.639-0.045-1.034-0.225-2.293-1.028-2.958-0.402-0.333-0.82-0.6-1.197-0.75a1.926 1.926 0 0 0-0.53-0.137 0.77 0.77 0 0 0-0.478 0.096c-0.36 0.21-0.788 0.633-1.264 1.224z" color="#000000" opacity=".56" overflow="visible" style="text-indent:0;text-transform:none"/><path transform="translate(-506.71 -229.44)" d="m664.8 283.94c-0.387 2e-3 -0.718 0.01-1.063 0.032a9.437 9.437 0 0 0-1.406 0.187c-0.41 0.09-0.797 0.229-1.094 0.375-0.34 0.168-0.567 0.425-0.75 0.781-0.182 0.356-0.32 0.81-0.437 1.313a12.053 12.053 0 0 0-0.25 1.844c0.58-0.256 1.353-0.438 2.312-0.5 0.345-0.023 0.739 2e-3 1.125 0 1.547-0.01 3.366 0.167 5.25 0.5 3.768 0.664 5.988 2.012 8.094 4.28 0.074 0.08 0.15 0.165 0.219 0.25 1.486 1.868 3.76 4.768 3.781 7.407 5e-3 0.65-9e-3 1.285-0.062 1.875 0.115-0.041 0.217-0.056 0.312-0.125 0.564-0.408 0.836-1.19 1.063-2.187 0.226-0.998 0.322-2.243 0.312-3.563-0.02-2.639-2.358-5.54-3.844-7.406-0.068-0.086-0.113-0.17-0.187-0.25-2.106-2.269-4.326-3.648-8.094-4.313-1.884-0.332-3.734-0.509-5.281-0.5z" color="#000000" fill="#fff" filter="url(#F)" opacity=".168" overflow="visible" style="text-indent:0;text-transform:none"/><path transform="translate(-506.71 -229.44)" d="m723.08 307.59c-0.201 0.023-0.417 0.087-0.657 0.157-0.16 0.046-0.325 0.092-0.5 0.156-0.7 0.253-1.516 0.644-2.312 1.125-1.593 0.962-2.364 2.009-2.938 3.5-0.02 0.052-0.015 0.133-0.031 0.187-0.36 1.186-0.931 3.015-0.5 4.344 0.215 0.665 0.45 1.286 0.719 1.75s0.52 0.796 0.843 0.906a0.48 0.48 0 0 0 0.157 0.031 11.38 11.38 0 0 1-0.344-0.937c-0.431-1.33 0.14-3.158 0.5-4.344 0.016-0.054 0.042-0.135 0.062-0.187 0.574-1.492 1.345-2.538 2.938-3.5 0.796-0.482 1.58-0.872 2.281-1.125 0.175-0.064 0.34-0.141 0.5-0.188 0.444-0.129 0.851-0.156 1.156-0.125a6.703 6.703 0 0 0-0.437-0.875c-0.136-0.233-0.264-0.445-0.406-0.594a0.9 0.9 0 0 0-0.5-0.28 2.012 2.012 0 0 0-0.532 0z" color="#000000" fill="#fff" filter="url(#F)" opacity=".366" overflow="visible" style="text-indent:0;text-transform:none"/><path transform="translate(-506.71 -229.44)" d="m721.52 304.52a0.48 0.48 0 0 0-0.281 0.031c-0.527 0.181-8.477 3.95-10 8.313a5.55 5.55 0 0 0-0.063 0.312c-0.402 2.314-1.026 5.888-0.281 8.563 0.372 1.337 0.79 2.587 1.219 3.53 0.43 0.945 0.839 1.657 1.312 1.907 0.08 0.042 0.134 0.054 0.219 0.063a31.72 31.72 0 0 1-0.594-1.907c-0.745-2.674-0.12-6.248 0.281-8.562 0.019-0.106 0.04-0.21 0.063-0.313 0.677-2.898 1.688-4.934 3.875-6.687 1.093-0.877 2.177-1.565 3.156-2 0.245-0.109 0.495-0.205 0.719-0.281 0.623-0.213 1.185-0.28 1.625-0.188-0.378-1.126-0.66-2.61-1.25-2.781z" color="#000000" filter="url(#F)" opacity=".112" overflow="visible" style="text-indent:0;text-transform:none"/><path d="m213.68 82.51c-0.476 0.591-0.995 1.333-1.47 2.134-0.95 1.6-1.2 2.775-1.153 4.122 2e-3 0.047 8e-3 0.097 0.014 0.143 0.115 1.014 0.294 2.586 1.093 3.222 0.4 0.318 0.821 0.578 1.195 0.728 0.374 0.151 0.696 0.225 0.993 0.106 0.166-0.067 0.298-0.21 0.481-0.397s0.412-0.432 0.638-0.72c0.45-0.578 0.954-1.341 1.445-2.173 0.982-1.662 1.319-3.282 1.26-4.639-0.044-1.034-0.224-2.293-1.027-2.958-0.402-0.333-0.82-0.599-1.197-0.749a1.926 1.926 0 0 0-0.53-0.138 0.77 0.77 0 0 0-0.478 0.096c-0.361 0.21-0.788 0.634-1.264 1.224z" color="#000000" opacity=".56" overflow="visible" style="text-indent:0;text-transform:none"/><path transform="translate(-506.71 -229.44)" d="m655.24 297.19c-1.067 0.228-1.898 0.551-2.469 0.958-0.327 0.234-0.521 0.583-0.654 0.999s-0.217 0.905-0.258 1.47c-0.082 1.13 0.018 2.515 0.264 3.98 0.494 2.931 2.75 5.29 4.702 6.968 2.56 2.203 6.055 3.883 10.23 4.064 2.088 0.09 4.051 6e-3 5.61-0.192 0.78-0.099 1.45-0.25 1.992-0.401 0.542-0.154 0.976-0.269 1.267-0.564 0.523-0.53 0.666-1.412 0.743-2.535s-2e-3 -2.486-0.223-3.925c-0.44-2.877-3.302-5.71-5.145-7.526a4.77 4.77 0 0 0-0.263-0.24c-2.551-2.163-5.062-3.334-9.088-3.497-2.013-0.082-3.96 8e-3 -5.568 0.248-0.403 0.06-0.785 0.117-1.14 0.193z" color="#000000" fill="url(#H)" overflow="visible" style="text-indent:0;text-transform:none"/><path transform="translate(-506.71 -229.44)" d="m656.05 297.23c-0.926 0.196-1.646 0.477-2.141 0.83-0.284 0.202-0.452 0.505-0.568 0.866-0.115 0.36-0.187 0.785-0.223 1.275-0.071 0.98 0.015 2.181 0.229 3.452 0.428 2.542 2.384 4.587 4.077 6.043 2.221 1.91 5.252 3.367 8.873 3.524 1.81 0.078 3.513 5e-3 4.865-0.166a11.988 11.988 0 0 0 1.728-0.348c0.47-0.133 0.846-0.233 1.099-0.49 0.453-0.458 0.576-1.224 0.643-2.198s-2e-3 -2.156-0.193-3.403c-0.382-2.496-2.863-4.953-4.462-6.528a4.12 4.12 0 0 0-0.227-0.208c-2.214-1.876-4.39-2.891-7.883-3.033-1.746-0.07-3.434 7e-3 -4.829 0.215-0.349 0.052-0.68 0.102-0.988 0.168z" color="#000000" fill="url(#I)" overflow="visible" style="text-indent:0;text-transform:none"/><path transform="translate(-506.71 -229.44)" d="m720.74 312.67a15.57 15.57 0 0 0-1.23 1.786c-0.797 1.34-1.006 2.324-0.966 3.452 2e-3 0.04 7e-3 0.081 0.011 0.12 0.097 0.849 0.247 2.165 0.916 2.698 0.335 0.266 0.688 0.484 1 0.61 0.314 0.126 0.584 0.188 0.832 0.088 0.14-0.055 0.25-0.175 0.403-0.332a7.18 7.18 0 0 0 0.534-0.603c0.377-0.484 0.8-1.123 1.21-1.82 0.823-1.391 1.105-2.748 1.056-3.884-0.037-0.866-0.188-1.92-0.86-2.478-0.337-0.278-0.687-0.501-1.003-0.627a1.613 1.613 0 0 0-0.444-0.115 0.643 0.643 0 0 0-0.4 0.08c-0.302 0.176-0.66 0.53-1.059 1.025z" color="#000000" fill="url(#J)" overflow="visible" style="text-indent:0;text-transform:none"/></g><path transform="translate(-506.71 -229.44)" d="m722.68 324.94c-4.751 4.683-5.311 11.563-4.25 17.813 0.716 4.217 1.028 7.16 4.25 9.969 6.194-8.013 0.132-18.194-0.031-27.22-3e-3 -0.19 0.015-0.374 0.03-0.562z" color="#000000" fill="url(#K)" filter="url(#L)" opacity=".185" overflow="visible"/><path transform="translate(-506.71 -229.44)" d="m667.52 320.34c-1.384 12.527 7.458 22.67 18.156 29.843 7.218 4.84 11.947 8.473 21.406 8.157-0.913-18.94-25.684-25.032-38.812-37.157-0.279-0.256-0.51-0.567-0.75-0.843z" color="#000000" fill="#fff" filter="url(#M)" opacity=".142" overflow="visible"/><path transform="translate(-506.71 -229.44)" d="m712.21 343.6a5.915 5.915 0 0 0-0.687 0.062c-3.592 0.61-6.697 4.747-7.032 8.375-0.172 1.865 1.215 3.85 2.782 4.875 1.86 1.217 4.414 0.92 6.625 0.688 2.117-0.223 4.686-0.345 6.062-1.97 1.394-1.645 1.894-4.426 0.969-6.374-1.466-3.085-5.287-5.829-8.719-5.656z" fill="url(#N)" fill-rule="evenodd"/><path transform="translate(-506.71 -229.44)" d="m706.02 494.87c-6.707 3-13.674 5.45-20.875 7.25 7.247 0.911 15.394 3.187 24.594 8.25 9.497 4.546 20.76 4.154 31.437 2.468 11.314-5.33-1.485-11.982-5.875-15.156-5.546-4.01-14.458-1.031-20.5-1.031-1.974 0-9.61 0.683-8.781-1.781z" color="#000000" fill="url(#O)" font-family="Sans" font-weight="400" overflow="visible" style="text-indent:0;text-transform:none"/><g fill-rule="evenodd"><path transform="translate(-506.71 -229.44)" d="m704.37 499.3-0.839 5.613 24.491 5.952z" fill="url(#P)"/><path transform="translate(-506.71 -229.44)" d="m715.31 498.88-4.077 2.674 25.763 7.456z" fill="url(#Q)"/><path transform="translate(-506.71 -229.44)" d="m729.14 498.11-9.15 1.428 23.85 6.477z" fill="url(#R)"/><path transform="translate(-506.71 -229.44)" d="m622.76 503.04-4.957 4.491 18.08 7.648z" fill="url(#S)"/><path transform="translate(-506.71 -229.44)" d="m635.92 503.63-6.087 3.563 17.814 10.444z" fill="url(#T)"/><path transform="translate(-506.71 -229.44)" d="m646.68 503.52-4.658 3 17.51 9.29z" fill="url(#U)"/></g><path transform="translate(-506.71 -229.44)" d="m632.77 317.5c-4.032 3.912-8.072 7.804-12.094 11.72-14.763 24.3-37.975 43.35-47.344 70.906a126.75 126.75 0 0 0-2.187 6.562c-8e-3 0.032-0.024 0.062-0.032 0.094a96.393 96.393 0 0 0-0.812 3.438c-1.605 9.006-1.96 18.137-0.375 27 1.086 4.477 2.785 8.878 5.375 13.156 0.603-9.955 0.049-25.798 3.969-38.063 8.996-36.491 34.85-71.095 53.5-94.812z" color="#000000" filter="url(#V)" font-family="Sans" font-weight="400" opacity=".684" overflow="visible" style="text-indent:0;text-transform:none"/><g fill="url(#Y)" font-family="Sans" font-weight="400"><path transform="translate(-506.71 -229.44)" d="m725.14 344.51-0.368 0.505 6.547 4.364z" color="#000000" overflow="visible" style="text-indent:0;text-transform:none"/><path transform="translate(-506.71 -229.44)" d="m724.28 341.48 0.021 0.696 8.846-0.587z" color="#000000" overflow="visible" style="text-indent:0;text-transform:none"/><path transform="translate(-506.71 -229.44)" d="m724.11 350.64-0.433 0.626 8.39 5.405z" color="#000000" overflow="visible" style="text-indent:0;text-transform:none"/></g><g fill="url(#ad)" font-family="Sans" font-weight="400"><path transform="translate(-506.71 -229.44)" d="m681.35 344.43-26.041 7.844 26.212-7.253z" color="#000000" overflow="visible" style="text-indent:0;text-transform:none"/><path transform="translate(-506.71 -229.44)" d="m686.61 345.71-16.17 12.374 16.593-11.796z" color="#000000" overflow="visible" style="text-indent:0;text-transform:none"/><path transform="translate(-506.71 -229.44)" d="m684.35 351.54-10.072 14.375 10.625-13.993z" color="#000000" overflow="visible" style="text-indent:0;text-transform:none"/><path transform="translate(-506.71 -229.44)" d="m694.33 355.64-5.428 7.746 5.726-7.54z" color="#000000" overflow="visible" style="text-indent:0;text-transform:none"/><path transform="translate(-506.71 -229.44)" d="m691.21 353.69-5.427 7.746 5.725-7.54z" color="#000000" overflow="visible" style="text-indent:0;text-transform:none"/></g><g fill-rule="evenodd"><path transform="translate(-506.71 -229.44)" d="m693.14 400.49-10.5 1.375c0.294 0.635 0.578 1.29 0.812 1.968z" fill="url(#ae)"/><path transform="translate(-506.71 -229.44)" d="m694.64 406.06c-4.07 0.642-6.686 1.486-10.281 1.313 0.084 0.492 0.133 0.994 0.187 1.5z" fill="url(#af)"/><path transform="translate(-506.71 -229.44)" d="m684.58 413.62c-0.072 0.765-0.172 1.515-0.313 2.25l10.187-1.875-9.875-0.375z" fill="url(#ag)"/><path transform="translate(-506.71 -229.44)" d="m682.99 420.15c-0.216 0.52-0.468 1.008-0.72 1.5 3.893 1.237 7.743-0.88 11.938-1.5-4.024-0.097-8.098 1.206-11.218 0z" fill="url(#ah)"/><path transform="translate(-506.71 -229.44)" d="m709.2 414.68c3.279 1.064 6.416 2.409 10.375 2.281a18.063 18.063 0 0 1-1.312-1.718c-2.966 0.29-6.023-0.183-9.063-0.563z" fill="url(#ai)"/><path transform="translate(-506.71 -229.44)" d="m715.99 410.68c-2.209 0.881-4.822 1.236-7.563 1.406 2.744 0.153 5.493 0.263 8.156 0.094-0.21-0.485-0.416-0.99-0.593-1.5z" fill="url(#aj)"/><path transform="translate(-506.71 -229.44)" d="m714.77 403.46-7.938 0.907 8 0.687a24.286 24.286 0 0 1-0.062-1.594z" fill="url(#ak)"/><path transform="translate(-506.71 -229.44)" d="m715.67 396.59-10.844 2.5 10.407-0.593c0.129-0.651 0.256-1.284 0.437-1.907z" fill="url(#al)"/><path transform="translate(-506.71 -229.44)" d="m681.71 392.41-5.303 6.806c0.657 0.24 1.32 0.504 1.967 0.817z" fill="url(#am)"/></g><g font-family="Sans" font-weight="400"><path transform="translate(-506.71 -229.44)" d="m634.63 296.16c-0.284 0.03-0.601 0.235-0.938 0.75l-2.937 2.593c-2.503 1.521 1.92 3.65 2.562 5.375 9.706 16.69 26.626 24.115 45.344 24.47 1.87-0.211 6.322 1.491 6.469-0.782-2.44-0.585-5.332 0.137-7.688-1.125-3.38-1.522-6.24-3.927-10-4.781-16.142 0.815-23.707-12.341-30.531-24.157-0.775-0.789-1.432-2.435-2.281-2.343z" color="#000000" fill="url(#an)" filter="url(#ao)" overflow="visible" style="text-indent:0;text-transform:none"/><path transform="translate(-506.71 -229.44)" d="m621.52 383.92c11.06 8.744 30.039 17.38 46.416 25.461 3.294 2.187 6.447 5.575 9.5 7.406 2.703-1.348-1.64-3.761-0.093-6.28 0.18-1.577 1.084-4.988-1.844-3.782-11.387 0.15-23.312-3.684-30.094-13.313-5.483-6.104-10.101-12.966-13.787-20.3-1.97-3.846-11.765 6.325-10.098 10.808z" color="#000000" fill="url(#ap)" filter="url(#aq)" opacity=".53" overflow="visible" style="text-indent:0;text-transform:none"/><path transform="translate(-506.71 -229.44)" d="m645.99 332.22s-36.581 27.398-46.437 47.125c-13.49 26.997-26.223 54.762-13.375 89.53 3.566 10.609 1.132-22.938 2.562-26.374-6.918-38.234 57.25-110.28 57.25-110.28z" color="#000000" filter="url(#ar)" opacity=".577" overflow="visible" style="text-indent:0;text-transform:none"/></g></g></svg>
